<svg width="20" height="20" viewBox="0 0 20 20" fill="none" xmlns="http://www.w3.org/2000/svg">
<path d="M10 20C15.5228 20 20 15.5228 20 10C20 4.47715 15.5228 0 10 0C4.47715 0 0 4.47715 0 10C0 15.5228 4.47715 20 10 20Z" fill="black"/>
<path d="M13.2393 11.2471C15.4032 11.6391 16.875 12.4109 16.875 13.2991C16.875 14.5844 13.7967 15.625 10 15.625C6.20328 15.625 3.125 14.5838 3.125 13.2991C3.125 12.4109 4.5974 11.6391 6.76073 11.2471C7.70089 11.4867 8.8112 11.6245 10 11.6245C11.1888 11.6245 12.2991 11.4867 13.2393 11.2476V11.2471ZM12.4108 7.48C14.2488 7.78038 15.5149 8.41206 15.5149 9.14387C15.5149 10.1648 13.0456 10.9928 10 10.9928C6.95437 10.9928 4.4851 10.1648 4.4851 9.14387C4.4851 8.41262 5.75125 7.78038 7.58917 7.48C8.29557 7.65606 9.11943 7.75675 10 7.75675C10.8806 7.75675 11.7044 7.6555 12.4108 7.48ZM10.0252 4.375C12.306 4.375 14.1554 5.00163 14.1554 5.77506C14.1554 6.54794 12.306 7.17456 10.0252 7.17456C7.74443 7.17456 5.89505 6.54794 5.89505 5.77506C5.89505 5.00163 7.74443 4.375 10.0252 4.375Z" fill="white"/>
</svg>
