<svg width="16" height="16" viewBox="0 0 16 16" fill="none" xmlns="http://www.w3.org/2000/svg">
<path d="M8 16C12.4183 16 16 12.4183 16 8C16 3.58172 12.4183 0 8 0C3.58172 0 0 3.58172 0 8C0 12.4183 3.58172 16 8 16Z" fill="#FEF4FF"/>
<path d="M10.8157 4.51153C10.8288 4.27513 10.86 4.11938 10.923 3.97703C10.948 3.92064 10.9712 3.87466 10.9748 3.87466C10.9784 3.87466 10.9676 3.91625 10.9507 3.96709C10.9048 4.10528 10.8974 4.29431 10.9289 4.51407C10.9689 4.79299 10.9917 4.8332 11.2799 5.13477C11.4151 5.27619 11.5721 5.45436 11.6291 5.53085L11.7326 5.66996L11.6291 5.5706C11.5024 5.44905 11.211 5.21172 11.1467 5.17775C11.1035 5.1551 11.0972 5.15534 11.0704 5.1826C11.0459 5.20756 11.0407 5.24523 11.0373 5.4227C11.0319 5.69931 10.9953 5.87702 10.9062 6.05449C10.858 6.15062 10.8504 6.13005 10.894 6.02168C10.9264 5.9408 10.9298 5.90521 10.9296 5.63738C10.9291 5.09918 10.8666 4.97 10.5005 4.74839C10.4078 4.69224 10.255 4.61136 10.161 4.56838C10.0669 4.52563 9.99221 4.48819 9.99491 4.48542C10.0053 4.47479 10.3623 4.58155 10.5059 4.63817C10.7196 4.72228 10.755 4.73314 10.7808 4.72297C10.7982 4.71627 10.8067 4.66428 10.815 4.51176L10.8157 4.51153Z" fill="#F50DB4"/>
<path d="M6.29975 3.72861C6.17285 3.70851 6.16768 3.7062 6.2273 3.69672C6.3416 3.6787 6.6116 3.70319 6.79767 3.74849C7.23214 3.85386 7.62724 4.12423 8.04911 4.60396L8.16116 4.73152L8.32158 4.70518C8.99703 4.59426 9.68439 4.68253 10.259 4.9536C10.4172 5.02824 10.6665 5.17683 10.6976 5.21496C10.7075 5.2272 10.7257 5.30554 10.7381 5.38896C10.7808 5.67805 10.7594 5.89966 10.6728 6.06512C10.6258 6.15524 10.6231 6.18367 10.6548 6.26085C10.68 6.32232 10.7507 6.36784 10.8204 6.36784C10.9633 6.36784 11.117 6.13167 11.1883 5.80353L11.2166 5.6732L11.2727 5.73813C11.5802 6.094 11.8217 6.57928 11.8631 6.92476L11.8738 7.01488L11.8221 6.93308C11.7332 6.79211 11.6437 6.69621 11.5294 6.61903C11.3231 6.47969 11.105 6.43208 10.5272 6.40112C10.0055 6.37293 9.71027 6.3274 9.41755 6.22988C8.9194 6.06396 8.6683 5.84305 8.07656 5.04996C7.81376 4.69779 7.65131 4.50275 7.48954 4.34584C7.12234 3.98928 6.76145 3.8021 6.29975 3.72907V3.72861Z" fill="#F50DB4"/>
<path d="M6.54612 5.43449C6.28873 5.07238 6.12943 4.51754 6.16385 4.10251L6.17443 3.97403L6.23315 3.98489C6.34318 4.00545 6.53285 4.07755 6.62172 4.13255C6.86562 4.28368 6.97114 4.48288 7.07847 4.99427C7.10997 5.14401 7.15114 5.3134 7.17027 5.37094C7.20087 5.46337 7.31629 5.67898 7.41034 5.81901C7.47807 5.92 7.43307 5.96783 7.28344 5.95397C7.05507 5.93294 6.7457 5.71479 6.54612 5.43426V5.43449Z" fill="#F50DB4"/>
<path d="M10.5032 8.12871C9.30034 7.63396 8.87644 7.2046 8.87644 6.47992C8.87644 6.37339 8.88004 6.28604 8.88454 6.28604C8.88904 6.28604 8.93539 6.32116 8.98804 6.36437C9.23194 6.56426 9.50508 6.64953 10.2613 6.7623C10.7063 6.82863 10.9568 6.88224 11.1876 6.96034C11.9218 7.20899 12.3761 7.71391 12.4845 8.40139C12.516 8.60105 12.4976 8.97587 12.4465 9.17322C12.4062 9.3292 12.2831 9.6102 12.2507 9.62106C12.2417 9.62407 12.2327 9.58871 12.2305 9.54042C12.2181 9.28229 12.0903 9.03087 11.8759 8.84254C11.632 8.62855 11.3044 8.45801 10.5032 8.12848V8.12871Z" fill="#F50DB4"/>
<path d="M9.65875 8.33415C9.64368 8.24264 9.61758 8.12548 9.6007 8.07418L9.5701 7.98082L9.62703 8.04622C9.706 8.1368 9.76833 8.25235 9.8212 8.40671C9.86148 8.52433 9.86598 8.55946 9.86575 8.75057C9.86553 8.93821 9.86035 8.97773 9.82323 9.08356C9.7645 9.25064 9.6916 9.36895 9.56943 9.49605C9.34961 9.72459 9.06723 9.851 8.65954 9.90345C8.58866 9.91247 8.38212 9.92795 8.20054 9.93765C7.7429 9.96192 7.44162 10.0123 7.17118 10.1094C7.13225 10.1234 7.0976 10.1318 7.094 10.1283C7.08298 10.1172 7.26725 10.0049 7.41957 9.93003C7.63422 9.82442 7.84774 9.76688 8.32654 9.68531C8.56301 9.6451 8.80714 9.59634 8.86924 9.57693C9.45468 9.39368 9.75573 8.92042 9.65943 8.33461L9.65875 8.33415Z" fill="#F50DB4"/>
<path d="M10.2102 9.33452C10.0505 8.9835 10.0138 8.64473 10.1013 8.3286C10.1108 8.29486 10.1259 8.26713 10.1349 8.26713C10.1439 8.26713 10.1817 8.28793 10.2186 8.31335C10.2921 8.36396 10.44 8.44923 10.8335 8.66853C11.3246 8.9419 11.6045 9.15381 11.7949 9.39576C11.9616 9.60766 12.0649 9.84891 12.1144 10.1433C12.1425 10.3099 12.1261 10.7111 12.0842 10.8791C11.9522 11.4083 11.6453 11.824 11.2076 12.0666C11.1435 12.1022 11.0859 12.1313 11.0796 12.1316C11.0733 12.1316 11.0967 12.071 11.1316 11.9966C11.2787 11.6823 11.2956 11.3764 11.1842 11.036C11.1161 10.8276 10.977 10.5734 10.6964 10.1435C10.3702 9.64394 10.2903 9.51084 10.21 9.33452H10.2102Z" fill="#F50DB4"/>
<path d="M5.69182 11.2283C6.13822 10.8433 6.69374 10.5697 7.19953 10.4858C7.41755 10.4495 7.78093 10.4641 7.98275 10.5168C8.3063 10.6013 8.59587 10.7908 8.74639 11.0166C8.89354 11.2373 8.95677 11.4295 9.02247 11.8575C9.04834 12.0262 9.07669 12.1958 9.08524 12.2342C9.13451 12.456 9.23059 12.633 9.34961 12.7222C9.53861 12.8637 9.86418 12.8724 10.1846 12.7449C10.239 12.7232 10.2861 12.7081 10.2894 12.7116C10.3011 12.7234 10.1398 12.8336 10.026 12.8916C9.87296 12.9697 9.75123 13 9.58946 13C9.29606 13 9.05262 12.8475 8.84944 12.5369C8.80939 12.4757 8.71962 12.2926 8.64964 12.1297C8.435 11.6299 8.32925 11.4776 8.07995 11.311C7.86328 11.1661 7.5836 11.14 7.37323 11.2454C7.09693 11.3838 7.01998 11.7443 7.21776 11.9728C7.29628 12.0636 7.44298 12.142 7.5629 12.1572C7.78723 12.1857 7.98005 12.0114 7.98005 11.7801C7.98005 11.6299 7.92358 11.5442 7.78115 11.4785C7.58675 11.3889 7.37796 11.4936 7.37886 11.6803C7.37931 11.7598 7.41328 11.8097 7.49113 11.8457C7.5413 11.8688 7.54243 11.8707 7.50148 11.8621C7.32306 11.8242 7.28143 11.6047 7.42475 11.4589C7.59688 11.284 7.95283 11.3611 8.075 11.6001C8.1263 11.7004 8.13237 11.9003 8.0876 12.0209C7.98747 12.291 7.6952 12.4329 7.39888 12.3557C7.19706 12.303 7.11493 12.2462 6.87171 11.9902C6.44894 11.5453 6.28469 11.4591 5.6754 11.3618L5.55862 11.3433L5.6916 11.2287L5.69182 11.2283Z" fill="#F50DB4"/>
<path fill-rule="evenodd" clip-rule="evenodd" d="M3.70801 3.26598C5.11987 5.01645 6.09231 5.7386 6.20031 5.89111C6.28964 6.01705 6.25589 6.13029 6.10311 6.21902C6.01807 6.26848 5.84347 6.31839 5.75594 6.31839C5.65694 6.31839 5.62297 6.27934 5.62297 6.27934C5.56559 6.22364 5.53319 6.23335 5.23867 5.69908C4.82963 5.05065 4.48718 4.51269 4.47795 4.50367C4.46355 4.48981 4.70325 4.93411 5.19705 5.83658C5.31675 6.1185 5.2209 6.22203 5.2209 6.26224C5.2209 6.34404 5.19907 6.38702 5.1003 6.49933C4.93583 6.68674 4.86225 6.89749 4.80915 7.33332C4.74975 7.82206 4.58235 8.16708 4.11863 8.75796C3.84729 9.1039 3.80274 9.16721 3.73434 9.30656C3.64816 9.48218 3.62431 9.58039 3.61464 9.80201C3.60451 10.0363 3.62431 10.1877 3.69429 10.4118C3.75571 10.608 3.81961 10.7374 3.98341 10.9965C4.12471 11.2199 4.20616 11.3861 4.20616 11.4513C4.20616 11.503 4.21583 11.503 4.43475 11.4524C4.95878 11.3316 5.38425 11.119 5.62364 10.8585C5.77169 10.6972 5.80657 10.6083 5.80769 10.3871C5.80837 10.2427 5.80342 10.2124 5.76517 10.1292C5.70284 9.99381 5.58967 9.88127 5.3397 9.70703C5.01232 9.47849 4.8726 9.29431 4.8339 9.04127C4.80218 8.83353 4.83908 8.68702 5.01997 8.29949C5.2074 7.89809 5.25375 7.72709 5.28525 7.32269C5.3055 7.06133 5.33362 6.95827 5.4072 6.87554C5.48392 6.78934 5.55277 6.75999 5.74267 6.73365C6.05204 6.69044 6.24891 6.60863 6.41091 6.45635C6.55131 6.32417 6.61004 6.19684 6.61904 6.00504L6.62579 5.85968L6.54726 5.76633C6.26309 5.42825 3.51766 3 3.50011 3C3.49629 3 3.58989 3.1197 3.70801 3.26598ZM4.36568 10.0678C4.43003 9.95152 4.39583 9.80201 4.28828 9.72898C4.18681 9.65989 4.02886 9.69247 4.02886 9.78236C4.02886 9.80986 4.04371 9.82974 4.07723 9.8473C4.13348 9.87688 4.13776 9.91015 4.09343 9.97832C4.04843 10.0472 4.05226 10.108 4.10356 10.1491C4.18658 10.2154 4.30403 10.1789 4.36568 10.0678Z" fill="#F50DB4"/>
<path fill-rule="evenodd" clip-rule="evenodd" d="M6.82109 6.81037C6.67597 6.8559 6.53467 7.01303 6.49102 7.17803C6.46447 7.27855 6.47954 7.4551 6.51937 7.50941C6.58394 7.59745 6.64627 7.62056 6.81524 7.6194C7.14599 7.61709 7.43331 7.4722 7.46683 7.29103C7.49428 7.14267 7.36806 6.93678 7.19414 6.84642C7.10436 6.79974 6.91356 6.78125 6.82131 6.81037H6.82109ZM7.20764 7.11933C7.25871 7.04539 7.23621 6.9652 7.14959 6.91112C6.98444 6.80806 6.73469 6.89333 6.73469 7.05278C6.73469 7.13204 6.86496 7.2187 6.98444 7.2187C7.06386 7.2187 7.17254 7.17017 7.20786 7.11933H7.20764Z" fill="#F50DB4"/>
</svg>
