<svg width="54" height="54" viewBox="0 0 54 54" fill="none" xmlns="http://www.w3.org/2000/svg">
<path d="M27 54C41.9117 54 54 41.9117 54 27C54 12.0883 41.9117 0 27 0C12.0883 0 0 12.0883 0 27C0 41.9117 12.0883 54 27 54Z" fill="#F50DB4" fill-opacity="0.13"/>
<path d="M36.503 15.2264C36.547 14.4286 36.6526 13.9029 36.8652 13.4225C36.9495 13.2322 37.0277 13.077 37.0399 13.077C37.052 13.077 37.0156 13.2174 36.9586 13.3889C36.8037 13.8553 36.7786 14.4933 36.885 15.235C37.0201 16.1764 37.0968 16.3121 38.0696 17.3298C38.526 17.8072 39.056 18.4085 39.2481 18.6666L39.5974 19.1361L39.2481 18.8008C38.8206 18.3905 37.8372 17.5896 37.62 17.4749C37.4742 17.3985 37.453 17.3993 37.3626 17.4913C37.2798 17.5755 37.2624 17.7026 37.251 18.3016C37.2327 19.2352 37.109 19.8349 36.8083 20.4339C36.6458 20.7583 36.6199 20.6889 36.7673 20.3232C36.8766 20.0502 36.888 19.9301 36.8872 19.0262C36.8857 17.2097 36.6746 16.7738 35.4391 16.0258C35.1263 15.8363 34.6107 15.5633 34.2932 15.4183C33.9758 15.274 33.7237 15.1476 33.7328 15.1383C33.7678 15.1024 34.9729 15.4627 35.4573 15.6538C36.1787 15.9377 36.298 15.9744 36.3853 15.94C36.4438 15.9174 36.4726 15.7419 36.5007 15.2272L36.503 15.2264Z" fill="#F50DB4"/>
<path d="M21.2617 12.5841C20.8334 12.5162 20.8159 12.5084 21.0171 12.4764C21.4029 12.4156 22.3141 12.4983 22.9421 12.6511C24.4085 13.0068 25.7419 13.9193 27.1657 15.5384L27.5439 15.9689L28.0853 15.88C30.365 15.5056 32.6848 15.8036 34.6243 16.7184C35.1581 16.9703 35.9995 17.4718 36.1043 17.6005C36.1377 17.6418 36.1992 17.9062 36.241 18.1877C36.3852 19.1634 36.3131 19.9114 36.0207 20.4698C35.862 20.7739 35.8529 20.8699 35.96 21.1304C36.045 21.3378 36.2835 21.4915 36.5189 21.4915C37.0011 21.4915 37.5197 20.6944 37.7605 19.5869L37.8561 19.147L38.0452 19.3662C39.0833 20.5673 39.8981 22.2051 40.0378 23.3711L40.0742 23.6752L39.8996 23.3991C39.5996 22.9234 39.2974 22.5997 38.9116 22.3392C38.2153 21.8689 37.4795 21.7083 35.5294 21.6038C33.7684 21.5086 32.7722 21.355 31.7842 21.0259C30.103 20.4659 29.2555 19.7203 27.2584 17.0436C26.3714 15.855 25.8232 15.1968 25.2772 14.6672C24.0379 13.4638 22.8199 12.8321 21.2617 12.5856V12.5841Z" fill="#F50DB4"/>
<path d="M22.0932 18.3414C21.2245 17.1193 20.6868 15.2467 20.803 13.846L20.8387 13.4123L21.0369 13.449C21.4082 13.5184 22.0484 13.7617 22.3483 13.9474C23.1715 14.4574 23.5276 15.1297 23.8898 16.8557C23.9961 17.361 24.1351 17.9327 24.1997 18.1269C24.3029 18.4389 24.6925 19.1665 25.0099 19.6392C25.2385 19.98 25.0866 20.1414 24.5816 20.0946C23.8109 20.0237 22.7667 19.2874 22.0932 18.3406V18.3414Z" fill="#F50DB4"/>
<path d="M35.4482 27.4344C31.3886 25.7646 29.958 24.3155 29.958 21.8697C29.958 21.5102 29.9701 21.2154 29.9853 21.2154C30.0005 21.2154 30.1569 21.3339 30.3346 21.4798C31.1578 22.1544 32.0797 22.4422 34.6319 22.8228C36.1339 23.0466 36.9791 23.2276 37.7582 23.4912C40.236 24.3304 41.7692 26.0345 42.1352 28.3547C42.2415 29.0286 42.1793 30.2936 42.0069 30.9596C41.871 31.4861 41.4556 32.4344 41.3462 32.4711C41.3159 32.4812 41.2855 32.3619 41.2779 32.1989C41.2361 31.3277 40.8048 30.4792 40.0811 29.8436C39.258 29.1214 38.1523 28.5458 35.4482 27.4336V27.4344Z" fill="#F50DB4"/>
<path d="M32.5983 28.1278C32.5474 27.8189 32.4593 27.4235 32.4024 27.2504L32.2991 26.9353L32.4912 27.156C32.7578 27.4617 32.9681 27.8517 33.1466 28.3727C33.2825 28.7696 33.2977 28.8882 33.2969 29.5332C33.2962 30.1665 33.2787 30.2998 33.1534 30.657C32.9552 31.2209 32.7092 31.6202 32.2968 32.0492C31.5549 32.8205 30.6019 33.2471 29.2259 33.4242C28.9867 33.4546 28.2896 33.5068 27.6768 33.5396C26.1323 33.6215 25.1155 33.7915 24.2027 34.1191C24.0713 34.1666 23.9544 34.1947 23.9423 34.183C23.905 34.1456 24.527 33.7665 25.0411 33.5138C25.7655 33.1574 26.4861 32.9632 28.1021 32.6879C28.9002 32.5522 29.7241 32.3876 29.9337 32.3221C31.9095 31.7037 32.9256 30.1064 32.6006 28.1293L32.5983 28.1278Z" fill="#F50DB4"/>
<path d="M34.4595 31.504C33.9204 30.3193 33.7966 29.176 34.092 28.109C34.1239 27.9952 34.1748 27.9016 34.2051 27.9016C34.2355 27.9016 34.3631 27.9718 34.4876 28.0576C34.7359 28.2284 35.2348 28.5161 36.563 29.2563C38.2207 30.1789 39.1653 30.8941 39.8078 31.7107C40.3704 32.4259 40.719 33.2401 40.8861 34.2337C40.981 34.796 40.9255 36.1499 40.7843 36.7169C40.3385 38.5029 39.3028 39.906 37.8258 40.7249C37.6094 40.845 37.415 40.9433 37.3937 40.9441C37.3725 40.9441 37.4514 40.7397 37.5691 40.4886C38.0658 39.4279 38.1227 38.3953 37.7468 37.2465C37.5167 36.543 37.0475 35.6851 36.1005 34.2345C34.9994 32.5483 34.7299 32.0991 34.4588 31.504H34.4595Z" fill="#F50DB4"/>
<path d="M19.2099 37.8954C20.7165 36.5961 22.5914 35.6726 24.2984 35.3895C25.0342 35.2671 26.2606 35.3162 26.9418 35.494C28.0338 35.7795 29.0111 36.419 29.5191 37.181C30.0157 37.9258 30.2291 38.5747 30.4508 40.0191C30.5381 40.5884 30.6338 41.1609 30.6627 41.2904C30.829 42.0391 31.1532 42.6365 31.5549 42.9375C32.1928 43.4149 33.2916 43.4445 34.373 43.014C34.5567 42.9407 34.7154 42.89 34.7268 42.9017C34.7663 42.9414 34.2218 43.3135 33.8376 43.5092C33.3212 43.7728 32.9104 43.875 32.3644 43.875C31.3742 43.875 30.5526 43.3603 29.8669 42.3121C29.7317 42.1054 29.4287 41.4877 29.1925 40.9378C28.4681 39.2509 28.1112 38.7369 27.2698 38.1746C26.5386 37.6856 25.5947 37.5975 24.8847 37.9531C23.9521 38.4203 23.6924 39.6369 24.3599 40.4083C24.6249 40.7148 25.1201 40.9792 25.5248 41.0307C26.2819 41.1266 26.9327 40.5385 26.9327 39.7578C26.9327 39.2509 26.7421 38.9615 26.2614 38.74C25.6053 38.4374 24.9006 38.7907 24.9036 39.4209C24.9052 39.6892 25.0198 39.8577 25.2826 39.9793C25.4519 40.0573 25.4557 40.0636 25.3175 40.0347C24.7153 39.9068 24.5748 39.1659 25.0585 38.6738C25.6395 38.0834 26.8408 38.3438 27.2531 39.1503C27.4263 39.4888 27.4468 40.1634 27.2956 40.5705C26.9577 41.4822 25.9713 41.9611 24.9712 41.7006C24.2901 41.5228 24.0129 41.3309 23.192 40.4668C21.7652 38.9654 21.2108 38.6745 19.1545 38.3462L18.7603 38.2838L19.2091 37.897L19.2099 37.8954Z" fill="#F50DB4"/>
<path fill-rule="evenodd" clip-rule="evenodd" d="M12.5145 11.0227C17.2796 16.9305 20.5616 19.3678 20.9261 19.8825C21.2275 20.3076 21.1136 20.6897 20.598 20.9892C20.311 21.1561 19.7217 21.3246 19.4263 21.3246C19.0922 21.3246 18.9775 21.1928 18.9775 21.1928C18.7839 21.0048 18.6745 21.0376 17.6805 19.2344C16.3 17.046 15.1442 15.2303 15.1131 15.1999C15.0645 15.1531 15.8735 16.6526 17.54 19.6984C17.944 20.6499 17.6205 20.9993 17.6205 21.135C17.6205 21.4111 17.5469 21.5562 17.2135 21.9352C16.6584 22.5677 16.4101 23.279 16.2309 24.7499C16.0304 26.3995 15.4654 27.5639 13.9004 29.5581C12.9846 30.7256 12.8342 30.9393 12.6034 31.4096C12.3125 32.0024 12.2321 32.3338 12.1994 33.0818C12.1652 33.8726 12.2321 34.3834 12.4682 35.14C12.6755 35.8021 12.8912 36.2389 13.444 37.1131C13.9209 37.8673 14.1958 38.4281 14.1958 38.648C14.1958 38.8227 14.2284 38.8227 14.9673 38.6519C16.7359 38.244 18.1718 37.5265 18.9798 36.6475C19.4795 36.1032 19.5972 35.8029 19.601 35.0565C19.6032 34.5691 19.5865 34.4669 19.4574 34.1861C19.2471 33.7291 18.8651 33.3493 18.0215 32.7612C16.9166 31.9899 16.445 31.3683 16.3144 30.5143C16.2073 29.8131 16.3319 29.3187 16.9424 28.0108C17.575 26.6561 17.7314 26.0789 17.8377 24.7141C17.9061 23.832 18.001 23.4841 18.2493 23.2049C18.5082 22.914 18.7406 22.815 19.3815 22.7261C20.4256 22.5802 21.0901 22.3041 21.6368 21.7902C22.1107 21.3441 22.3089 20.9143 22.3392 20.267L22.362 19.7764L22.097 19.4614C21.1379 18.3203 11.8721 10.125 11.8129 10.125C11.8 10.125 12.1159 10.529 12.5145 11.0227ZM14.7342 33.9787C14.9514 33.5864 14.8359 33.0818 14.4729 32.8353C14.1305 32.6021 13.5974 32.7121 13.5974 33.0155C13.5974 33.1083 13.6475 33.1754 13.7607 33.2346C13.9505 33.3345 13.9649 33.4468 13.8153 33.6768C13.6635 33.9093 13.6764 34.1144 13.8495 34.2532C14.1297 34.477 14.5261 34.3538 14.7342 33.9787Z" fill="#F50DB4"/>
<path fill-rule="evenodd" clip-rule="evenodd" d="M23.0212 22.985C22.5314 23.1386 22.0545 23.669 21.9072 24.2258C21.8176 24.5651 21.8685 25.161 22.0029 25.3442C22.2208 25.6414 22.4311 25.7194 23.0014 25.7155C24.1177 25.7077 25.0874 25.2187 25.2006 24.6072C25.2932 24.1065 24.8672 23.4116 24.2802 23.1067C23.9772 22.9491 23.3333 22.8867 23.0219 22.985H23.0212ZM24.3258 24.0277C24.4981 23.7782 24.4222 23.5075 24.1299 23.325C23.5725 22.9772 22.7296 23.265 22.7296 23.8031C22.7296 24.0706 23.1693 24.3631 23.5725 24.3631C23.8405 24.3631 24.2073 24.1993 24.3265 24.0277H24.3258Z" fill="#F50DB4"/>
</svg>
