<svg width="20" height="20" viewBox="0 0 20 20" fill="none" xmlns="http://www.w3.org/2000/svg">
<path d="M10 20C15.5228 20 20 15.5228 20 10C20 4.47715 15.5228 0 10 0C4.47715 0 0 4.47715 0 10C0 15.5228 4.47715 20 10 20Z" fill="#CACACA"/>
<path d="M13.5196 5.63941C13.5359 5.34391 13.575 5.14922 13.6538 4.97129C13.685 4.90081 13.714 4.84332 13.7185 4.84332C13.723 4.84332 13.7095 4.89532 13.6884 4.95887C13.631 5.1316 13.6217 5.36789 13.6611 5.64259C13.7112 5.99124 13.7396 6.0415 14.0998 6.41846C14.2689 6.59524 14.4652 6.81795 14.5363 6.91356L14.6657 7.08745L14.5363 6.96325C14.378 6.81131 14.0138 6.51465 13.9333 6.47219C13.8793 6.44388 13.8715 6.44417 13.838 6.47825C13.8073 6.50945 13.8009 6.55653 13.7967 6.77838C13.7899 7.12414 13.7441 7.34627 13.6327 7.56811C13.5725 7.68828 13.5629 7.66257 13.6175 7.52709C13.658 7.42599 13.6622 7.38151 13.6619 7.04672C13.6614 6.37398 13.5832 6.21251 13.1256 5.93549C13.0097 5.8653 12.8188 5.7642 12.7012 5.71047C12.5836 5.65703 12.4903 5.61024 12.4936 5.60677C12.5066 5.59348 12.9529 5.72694 13.1323 5.79771C13.3995 5.90285 13.4437 5.91643 13.476 5.90372C13.4977 5.89534 13.5084 5.83035 13.5188 5.6397L13.5196 5.63941Z" fill="#F50DB4"/>
<path d="M7.87469 4.66077C7.71606 4.63563 7.7096 4.63275 7.78413 4.6209C7.927 4.59837 8.2645 4.62899 8.49709 4.68561C9.04018 4.81733 9.53405 5.15529 10.0614 5.75496L10.2014 5.91441L10.402 5.88148C11.2463 5.74282 12.1055 5.85317 12.8238 6.192C13.0215 6.2853 13.3331 6.47103 13.372 6.51869C13.3843 6.534 13.4071 6.63193 13.4226 6.7362C13.476 7.09756 13.4493 7.37458 13.341 7.5814C13.2822 7.69405 13.2789 7.72958 13.3185 7.82606C13.35 7.9029 13.4383 7.9598 13.5255 7.9598C13.7041 7.9598 13.8962 7.66459 13.9854 7.25441L14.0208 7.0915L14.0908 7.17267C14.4753 7.61751 14.7771 8.22411 14.8288 8.65595L14.8423 8.7686L14.7776 8.66635C14.6665 8.49014 14.5546 8.37027 14.4117 8.27379C14.1538 8.09961 13.8813 8.0401 13.159 8.0014C12.5068 7.96616 12.1378 7.90925 11.7719 7.78735C11.1493 7.57995 10.8354 7.30381 10.0957 6.31245C9.7672 5.87223 9.56414 5.62844 9.36192 5.4323C8.90293 4.9866 8.45181 4.75262 7.87469 4.66134V4.66077Z" fill="#F50DB4"/>
<path d="M8.18265 6.79311C7.86091 6.34047 7.66178 5.64692 7.70482 5.12814L7.71803 4.96753L7.79144 4.98111C7.92897 5.00682 8.16606 5.09694 8.27715 5.16569C8.58203 5.3546 8.71393 5.6036 8.84809 6.24284C8.88746 6.43002 8.93893 6.64175 8.96283 6.71367C9.00108 6.82922 9.14536 7.09872 9.26293 7.27377C9.34758 7.4 9.29133 7.45979 9.1043 7.44246C8.81884 7.41617 8.43212 7.14349 8.18265 6.79282V6.79311Z" fill="#F50DB4"/>
<path d="M13.129 10.1609C11.6254 9.54245 11.0956 9.00575 11.0956 8.0999C11.0956 7.96673 11.1001 7.85755 11.1057 7.85755C11.1113 7.85755 11.1692 7.90145 11.235 7.95547C11.5399 8.20533 11.8814 8.31192 12.8266 8.45288C13.3829 8.53578 13.696 8.6028 13.9845 8.70043C14.9022 9.01124 15.4701 9.64239 15.6056 10.5017C15.645 10.7513 15.6219 11.2198 15.5581 11.4665C15.5078 11.6615 15.3539 12.0128 15.3134 12.0263C15.3022 12.0301 15.2909 11.9859 15.2881 11.9255C15.2726 11.6029 15.1129 11.2886 14.8449 11.0532C14.54 10.7857 14.1305 10.5725 13.129 10.1606V10.1609Z" fill="#F50DB4"/>
<path d="M12.0734 10.4177C12.0546 10.3033 12.022 10.1569 12.0009 10.0927L11.9626 9.97603L12.0338 10.0578C12.1325 10.171 12.2104 10.3154 12.2765 10.5084C12.3268 10.6554 12.3325 10.6993 12.3322 10.9382C12.3319 11.1728 12.3254 11.2222 12.279 11.3545C12.2056 11.5633 12.1145 11.7112 11.9618 11.8701C11.687 12.1557 11.334 12.3137 10.8244 12.3793C10.7358 12.3906 10.4776 12.4099 10.2507 12.4221C9.67862 12.4524 9.30203 12.5154 8.96397 12.6367C8.91531 12.6543 8.872 12.6647 8.8675 12.6604C8.85372 12.6465 9.08406 12.5061 9.27447 12.4125C9.54278 12.2805 9.80968 12.2086 10.4082 12.1066C10.7038 12.0564 11.0089 11.9954 11.0865 11.9712C11.8184 11.7421 12.1947 11.1505 12.0743 10.4183L12.0734 10.4177Z" fill="#F50DB4"/>
<path d="M12.7628 11.6681C12.5631 11.2294 12.5173 10.8059 12.6267 10.4108C12.6385 10.3686 12.6573 10.3339 12.6686 10.3339C12.6798 10.3339 12.7271 10.3599 12.7732 10.3917C12.8652 10.4549 13.0499 10.5615 13.5418 10.8357C14.1558 11.1774 14.5057 11.4423 14.7436 11.7447C14.952 12.0096 15.0811 12.3111 15.143 12.6791C15.1781 12.8874 15.1576 13.3889 15.1053 13.5989C14.9402 14.2604 14.5566 14.78 14.0096 15.0833C13.9294 15.1278 13.8574 15.1642 13.8495 15.1645C13.8417 15.1645 13.8709 15.0888 13.9145 14.9958C14.0984 14.6029 14.1195 14.2205 13.9803 13.795C13.8951 13.5345 13.7213 13.2167 13.3706 12.6794C12.9628 12.0549 12.8629 11.8885 12.7625 11.6681H12.7628Z" fill="#F50DB4"/>
<path d="M7.11478 14.0353C7.67277 13.5541 8.36717 13.2121 8.99941 13.1072C9.27194 13.0619 9.72616 13.0801 9.97844 13.1459C10.3829 13.2517 10.7448 13.4885 10.933 13.7707C11.1169 14.0466 11.196 14.2869 11.2781 14.8219C11.3104 15.0328 11.3459 15.2448 11.3565 15.2927C11.4181 15.57 11.5382 15.7913 11.687 15.9028C11.9233 16.0796 12.3302 16.0906 12.7307 15.9311C12.7988 15.9039 12.8576 15.8852 12.8618 15.8895C12.8764 15.9042 12.6748 16.042 12.5324 16.1145C12.3412 16.2122 12.189 16.25 11.9868 16.25C11.6201 16.25 11.3158 16.0594 11.0618 15.6711C11.0117 15.5946 10.8995 15.3658 10.8121 15.1622C10.5437 14.5374 10.4116 14.347 10.0999 14.1387C9.82909 13.9576 9.4795 13.925 9.21654 14.0567C8.87117 14.2297 8.77498 14.6804 9.0222 14.966C9.12035 15.0796 9.30372 15.1775 9.45363 15.1965C9.73403 15.2321 9.97506 15.0143 9.97506 14.7251C9.97506 14.5374 9.90447 14.4302 9.72644 14.3482C9.48344 14.2361 9.22244 14.3669 9.22357 14.6003C9.22413 14.6997 9.2666 14.7621 9.36391 14.8072C9.42663 14.836 9.42804 14.8384 9.37685 14.8277C9.15382 14.7803 9.10179 14.5059 9.28094 14.3236C9.4961 14.1049 9.94103 14.2014 10.0937 14.5001C10.1579 14.6255 10.1655 14.8753 10.1095 15.0261C9.98434 15.3638 9.619 15.5411 9.2486 15.4447C8.99632 15.3788 8.89367 15.3077 8.58964 14.9877C8.06117 14.4316 7.85586 14.3239 7.09424 14.2023L6.94828 14.1792L7.11449 14.0359L7.11478 14.0353Z" fill="#F50DB4"/>
<path fill-rule="evenodd" clip-rule="evenodd" d="M4.63501 4.08247C6.39984 6.27057 7.61539 7.17324 7.75039 7.36389C7.86205 7.52132 7.81986 7.66286 7.62889 7.77378C7.52258 7.83559 7.30433 7.89799 7.19493 7.89799C7.07118 7.89799 7.02871 7.84917 7.02871 7.84917C6.95699 7.77956 6.91649 7.79169 6.54834 7.12385C6.03703 6.31332 5.60897 5.64086 5.59744 5.62959C5.57944 5.61226 5.87907 6.16764 6.49631 7.29572C6.64593 7.64813 6.52612 7.77753 6.52612 7.8278C6.52612 7.93005 6.49884 7.98378 6.37537 8.12416C6.16978 8.35843 6.07781 8.62186 6.01144 9.16665C5.93719 9.77758 5.72794 10.2088 5.14829 10.9475C4.80911 11.3799 4.75342 11.459 4.66792 11.6332C4.5602 11.8527 4.53039 11.9755 4.5183 12.2525C4.50564 12.5454 4.53039 12.7346 4.61786 13.0148C4.69464 13.26 4.77451 13.4218 4.97926 13.7456C5.15588 14.0249 5.2577 14.2326 5.2577 14.3141C5.2577 14.3788 5.26979 14.3788 5.54344 14.3155C6.19847 14.1645 6.73031 13.8987 7.02955 13.5732C7.21462 13.3715 7.25821 13.2603 7.25962 12.9839C7.26046 12.8034 7.25427 12.7655 7.20646 12.6615C7.12855 12.4923 6.98709 12.3516 6.67462 12.1338C6.26541 11.8481 6.09075 11.6179 6.04238 11.3016C6.00272 11.0419 6.04885 10.8588 6.27497 10.3744C6.50925 9.87261 6.56718 9.65886 6.60656 9.15336C6.63187 8.82666 6.66703 8.69783 6.75899 8.59442C6.8549 8.48668 6.94096 8.44999 7.17833 8.41706C7.56505 8.36305 7.81114 8.26079 8.01364 8.07044C8.18914 7.90521 8.26254 7.74605 8.27379 7.5063L8.28223 7.32461L8.18408 7.20791C7.82886 6.78531 4.39708 3.75 4.37514 3.75C4.37036 3.75 4.48736 3.89963 4.63501 4.08247ZM5.4571 12.5847C5.53754 12.4394 5.49479 12.2525 5.36035 12.1612C5.23351 12.0749 5.03607 12.1156 5.03607 12.228C5.03607 12.2623 5.05464 12.2872 5.09654 12.3091C5.16685 12.3461 5.1722 12.3877 5.11679 12.4729C5.06054 12.559 5.06532 12.635 5.12945 12.6864C5.23323 12.7693 5.38004 12.7236 5.4571 12.5847Z" fill="#F50DB4"/>
<path fill-rule="evenodd" clip-rule="evenodd" d="M8.52636 8.51296C8.34496 8.56987 8.16833 8.76629 8.11377 8.97254C8.08058 9.09819 8.09943 9.31888 8.14921 9.38676C8.22993 9.49681 8.30783 9.5257 8.51905 9.52425C8.93248 9.52136 9.29164 9.34025 9.33354 9.11379C9.36785 8.92834 9.21007 8.67097 8.99267 8.55803C8.88045 8.49968 8.64195 8.47657 8.52664 8.51296H8.52636ZM9.00954 8.89917C9.07339 8.80673 9.04526 8.7065 8.93698 8.63891C8.73055 8.51008 8.41836 8.61666 8.41836 8.81598C8.41836 8.91505 8.5812 9.02337 8.73055 9.02337C8.82983 9.02337 8.96567 8.96271 9.00983 8.89917H9.00954Z" fill="#F50DB4"/>
</svg>
