<svg width="450" height="55" viewBox="0 0 450 55" fill="none" xmlns="http://www.w3.org/2000/svg">
<mask id="path-1-outside-1_1438_2084" maskUnits="userSpaceOnUse" x="-0.96031" y="-3.00166" width="450.66" height="58.9358" fill="black">
<rect fill="white" x="-0.96031" y="-3.00166" width="450.66" height="58.9358"/>
<path d="M15.0601 49.9313L14.9997 45.3584C11.1983 44.9419 8.16376 43.6907 5.89603 41.6049C3.62788 39.488 2.34802 36.8136 2.05644 33.5816L10.6424 33.4682C11.008 35.2369 11.8653 36.5479 13.2145 37.4013C14.5637 38.2546 16.2648 38.6678 18.318 38.6407C20.1223 38.6169 21.5178 38.2717 22.5047 37.6053C23.5222 36.9074 24.0234 35.9829 24.0082 34.8319C23.9971 33.992 23.661 33.2808 22.9999 32.6984C22.3385 32.0848 21.2746 31.6321 19.8084 31.3404L13.3032 29.9795C9.83991 29.2473 7.25724 28.0524 5.55521 26.3948C3.88429 24.7367 3.03199 22.6322 2.99831 20.0813C2.96053 17.2193 3.90902 14.8266 5.8438 12.9031C7.77858 10.9796 10.4227 9.76238 13.7763 9.2514L13.7221 5.14509L20.0215 5.06193L20.0764 9.2149C23.4115 9.66869 26.1186 10.8619 28.1976 12.7947C30.3078 14.727 31.4919 17.216 31.7499 20.2618L23.2106 20.3745C22.8479 18.8236 22.0855 17.6358 20.9234 16.811C19.7613 15.9863 18.2781 15.5859 16.4738 15.6097C14.8562 15.631 13.5695 15.9747 12.6137 16.6407C11.6887 17.2752 11.2329 18.1057 11.2465 19.1323C11.2568 19.91 11.5767 20.5748 12.2062 21.1265C12.8669 21.6778 13.8368 22.0851 15.116 22.3482L21.9951 23.7508C25.4269 24.4523 27.9784 25.6476 29.6497 27.3368C31.3518 28.9944 32.2213 31.2232 32.2582 34.0229C32.2981 37.0404 31.351 39.542 29.4171 41.5277C27.5142 43.513 24.8082 44.7622 21.2992 45.2752L21.3595 49.8482L15.0601 49.9313ZM35.0338 45.4673L34.9599 39.8678L50.3039 24.9172C51.9014 23.3716 52.9742 22.144 53.5222 21.2344C54.0702 20.3249 54.3377 19.3724 54.3246 18.3769C54.3057 16.9459 53.8245 15.8478 52.8809 15.0824C51.937 14.2859 50.6407 13.8985 48.9919 13.9203C45.3211 13.9687 43.2781 15.9403 42.8628 19.835L34.6968 19.9428C34.8923 15.8955 36.2507 12.735 38.772 10.4615C41.293 8.15695 44.6999 6.97632 48.9928 6.91964C51.7615 6.88309 54.163 7.31809 56.1974 8.22465C58.2628 9.1308 59.8513 10.4322 60.9627 12.1288C62.1047 13.7938 62.6912 15.7929 62.722 18.126C62.7487 20.1481 62.2293 22.0529 61.1639 23.8404C60.0986 25.628 58.3828 27.6419 56.0166 29.8823L47.4875 37.8355L47.49 38.0222L63.3086 37.8134L63.4047 45.0927L35.0338 45.4673ZM81.6214 45.4123C77.204 45.4706 73.6761 44.5526 71.0375 42.6584C68.3985 40.7331 66.8999 37.9837 66.5415 34.4104L75.1741 34.2964C75.3793 35.6938 76.0465 36.7429 77.1758 37.4436C78.3359 38.1128 79.8492 38.4351 81.7157 38.4104C83.7999 38.3829 85.3637 37.8178 86.407 36.715C87.4815 35.6118 88.0059 34.0959 87.9805 32.1672C87.9538 30.1451 87.343 28.6597 86.1481 27.711C84.984 26.7307 83.3909 26.2539 81.3688 26.2806C80.0623 26.2979 78.8833 26.5468 77.8317 27.0274C76.8113 27.5075 75.996 28.2028 75.3857 29.1132L67.9664 29.2111L70.4293 7.19669L93.9939 6.88559L94.0913 14.2583L77.3394 14.4794L76.5477 21.6772L76.8276 21.6735C78.5516 20.2817 80.8135 19.5674 83.6133 19.5304C87.4396 19.4799 90.4868 20.5131 92.755 22.63C95.0542 24.7465 96.2301 27.7957 96.2827 31.7775C96.3377 35.9461 95.1056 39.2448 92.5864 41.6739C90.0671 44.1029 86.4121 45.349 81.6214 45.4123ZM99.6076 53.0155L99.5436 48.1626L101.783 48.133C102.686 48.1211 103.32 47.8638 103.687 47.3612C104.085 46.8892 104.279 46.2955 104.27 45.58L104.256 44.5534L100.057 44.6088L99.9384 35.6496L109.178 35.5276L109.314 45.8867C109.343 48.0643 108.79 49.7829 107.656 51.0424C106.552 52.3015 104.803 52.9469 102.407 52.9785L99.6076 53.0155ZM127.782 44.8029C122.991 44.8661 119.33 43.2654 116.797 40.0008C114.296 36.7046 113.003 31.8835 112.919 25.5374C112.836 19.1913 114.001 14.3532 116.415 11.0233C118.859 7.66185 122.477 5.9495 127.268 5.88626C132.059 5.82301 135.705 7.43946 138.206 10.7356C140.738 14.0003 142.046 18.8056 142.13 25.1517C142.214 31.4979 141.033 36.3516 138.589 39.7131C136.175 43.043 132.572 44.7396 127.782 44.8029ZM127.687 37.6168C129.74 37.5897 131.236 36.5899 132.174 34.6173C133.144 32.6444 133.601 29.5269 133.544 25.2651C133.488 21.0032 132.949 17.899 131.928 15.9523C130.938 14.0052 129.416 13.0452 127.363 13.0723C125.341 13.099 123.845 14.0833 122.875 16.0251C121.905 17.967 121.448 21.1 121.505 25.424C121.562 29.7481 122.101 32.8679 123.122 34.7835C124.143 36.6991 125.665 37.6435 127.687 37.6168ZM159.99 44.3777C155.199 44.4409 151.538 42.8402 149.005 39.5756C146.504 36.2794 145.211 31.4583 145.128 25.1122C145.044 18.7661 146.209 13.928 148.623 10.5981C151.068 7.23664 154.685 5.52429 159.476 5.46104C164.267 5.3978 167.913 7.01425 170.414 10.3104C172.947 13.575 174.255 18.3804 174.338 24.7265C174.422 31.0726 173.242 35.9264 170.797 39.2879C168.383 42.6178 164.78 44.3144 159.99 44.3777ZM159.895 37.1916C161.948 37.1645 163.444 36.1647 164.382 34.1921C165.352 32.2191 165.809 29.1017 165.752 24.8399C165.696 20.578 165.157 17.4738 164.136 15.5271C163.146 13.58 161.624 12.62 159.571 12.6471C157.549 12.6738 156.053 13.6581 155.083 15.5999C154.113 17.5418 153.656 20.6747 153.713 24.9988C153.771 29.3229 154.31 32.4427 155.33 34.3583C156.351 36.2739 157.873 37.2183 159.895 37.1916ZM192.198 43.9524C187.407 44.0157 183.746 42.415 181.214 39.1504C178.712 35.8542 177.419 31.0331 177.336 24.687C177.252 18.3408 178.417 13.5028 180.831 10.1729C183.276 6.81143 186.893 5.09908 191.684 5.03583C196.475 4.97259 200.121 6.58904 202.622 9.88519C205.155 13.1498 206.463 17.9552 206.546 24.3013C206.63 30.6474 205.45 35.5012 203.005 38.8627C200.591 42.1926 196.989 43.8892 192.198 43.9524ZM192.103 36.7664C194.156 36.7393 195.652 35.7395 196.591 33.7669C197.56 31.7939 198.017 28.6765 197.961 24.4147C197.904 20.1528 197.365 17.0485 196.344 15.1019C195.354 13.1548 193.832 12.1948 191.779 12.2219C189.757 12.2486 188.261 13.2328 187.291 15.1747C186.321 17.1166 185.864 20.2495 185.922 24.5736C185.979 28.8977 186.518 32.0175 187.539 33.9331C188.56 35.8487 190.081 36.7931 192.103 36.7664ZM224.309 42.9685L223.939 14.9709L232.525 14.8576L232.895 42.8551L224.309 42.9685ZM228.201 12.5344C226.925 12.5513 225.831 12.1146 224.917 11.2243C224.003 10.3341 223.537 9.25127 223.52 7.97582C223.503 6.70038 223.94 5.60563 224.83 4.69158C225.721 3.77752 226.803 3.31207 228.079 3.29524C229.354 3.2784 230.449 3.7151 231.363 4.60533C232.277 5.49556 232.743 6.5784 232.76 7.85385C232.776 9.12929 232.34 10.224 231.449 11.1381C230.559 12.0521 229.476 12.5176 228.201 12.5344ZM240.993 42.7482L240.734 23.1499L236.535 23.2054L236.424 14.8061L245.01 14.6927L245.071 19.359L247.031 19.3331C248.13 17.7007 249.482 16.4227 251.088 15.4992C252.724 14.5442 254.818 14.0499 257.369 14.0162C261.35 13.9636 264.413 14.9966 266.557 17.1152C268.732 19.2333 269.843 22.0967 269.891 25.7052L270.111 42.3638L261.525 42.4771L261.327 27.4984C261.301 25.5697 260.769 24.1144 259.729 23.1325C258.72 22.1502 257.236 21.6719 255.276 21.6978C253.317 21.7237 251.83 22.2411 250.817 23.2502C249.834 24.2588 249.356 25.7274 249.381 27.6562L249.579 42.6348L240.993 42.7482ZM289.519 42.1076L289.02 4.31086L307.358 4.06875C311.62 4.01249 314.963 5.05734 317.387 7.2033C319.811 9.31816 321.047 12.2732 321.098 16.0684C321.147 19.8325 319.989 22.8192 317.622 25.0284C315.256 27.2376 311.941 28.3704 307.68 28.4266L298.114 28.5529L298.291 41.9917L289.519 42.1076ZM298.013 20.9003L307.019 20.7814C308.761 20.7584 310.078 20.3521 310.969 19.5624C311.892 18.7413 312.344 17.6152 312.325 16.1842C312.306 14.7221 311.824 13.6084 310.881 12.843C309.968 12.0772 308.641 11.7058 306.899 11.7288L297.893 11.8477L298.013 20.9003ZM328.148 41.5976L327.889 21.9993L323.689 22.0547L323.579 13.6555L332.165 13.5421L332.238 19.1416L334.198 19.1158C334.887 17.0843 336.034 15.5757 337.639 14.5899C339.243 13.5731 341.041 13.0516 343.032 13.0253L345.412 12.9939L345.51 20.4599L342.757 20.4962C340.455 20.5266 338.799 21.1863 337.79 22.4753C336.811 23.7639 336.335 25.4348 336.362 27.4879L336.547 41.4867L328.148 41.5976ZM349.861 41.3109L349.491 13.3134L358.077 13.2L358.446 41.1976L349.861 41.3109ZM353.752 10.8769C352.477 10.8937 351.382 10.457 350.468 9.56681C349.554 8.67657 349.089 7.59374 349.072 6.31829C349.055 5.04285 349.492 3.9481 350.382 3.03404C351.272 2.11999 352.355 1.65454 353.63 1.6377C354.906 1.62087 356.001 2.05756 356.915 2.9478C357.829 3.83803 358.294 4.92087 358.311 6.19632C358.328 7.47176 357.891 8.56651 357.001 9.48056C356.111 10.3946 355.028 10.8601 353.752 10.8769ZM362.625 41.1424L362.558 36.1029L376.157 19.7752L363.185 19.9465L363.095 13.1338L387.08 12.8171L387.146 17.8567L373.547 34.1843L387.639 33.9982L387.729 40.811L362.625 41.1424ZM404.42 41.1507C401.34 41.1913 398.657 40.6356 396.371 39.4835C394.084 38.3002 392.304 36.628 391.031 34.4669C389.788 32.2742 389.147 29.6846 389.108 26.6982C389.069 23.7118 389.626 21.1376 390.78 18.9755C391.964 16.7819 393.653 15.095 395.847 13.9148C398.071 12.7031 400.692 12.0774 403.709 12.0375C406.696 11.9981 409.27 12.5397 411.431 13.6624C413.593 14.754 415.247 16.35 416.395 18.4506C417.574 20.5508 418.183 23.0785 418.222 26.0338L418.258 28.7869L397.4 29.0623C397.766 30.8621 398.531 32.221 399.694 33.139C400.857 34.026 402.387 34.4569 404.285 34.4319C405.809 34.4118 406.988 34.1628 407.822 33.6851C408.686 33.1759 409.298 32.39 409.658 31.3274L418.244 31.214C417.693 34.2704 416.2 36.6859 413.765 38.4604C411.33 40.2038 408.215 41.1006 404.42 41.1507ZM397.466 23.4609L409.972 23.2958C409.671 21.7441 409.003 20.6017 407.966 19.8687C406.96 19.1041 405.587 18.7333 403.844 18.7563C402.134 18.7789 400.739 19.1863 399.66 19.9783C398.582 20.7704 397.85 21.9313 397.466 23.4609ZM435.296 40.7431C431.097 40.7985 427.772 39.9556 425.322 38.2145C422.903 36.4729 421.58 34.0169 421.351 30.8463L429.61 30.7372C429.876 31.9783 430.479 32.8882 431.42 33.4669C432.392 34.0453 433.78 34.3225 435.585 34.2987C438.384 34.2617 439.774 33.5122 439.755 32.0501C439.747 31.459 439.523 30.9953 439.083 30.6588C438.674 30.2909 437.986 30.0199 437.019 29.846L430.75 28.7154C425.012 27.671 422.114 25.0335 422.059 20.8027C422.022 18.0652 423.098 15.873 425.285 14.2262C427.472 12.5483 430.51 11.6837 434.399 11.6324C438.287 11.581 441.362 12.3805 443.624 14.0308C445.886 15.6811 447.131 18.0293 447.358 21.0755L439.098 21.1845C438.771 19.9754 438.2 19.1117 437.384 18.5936C436.599 18.0439 435.444 17.7791 433.92 17.7992C432.676 17.8157 431.713 17.9995 431.034 18.3507C430.385 18.7015 430.065 19.2191 430.074 19.9035C430.081 20.4012 430.288 20.8185 430.697 21.1554C431.106 21.4922 431.716 21.7331 432.527 21.878L438.983 23.0528C441.977 23.6045 444.183 24.5399 445.601 25.8591C447.018 27.1782 447.742 28.9733 447.772 31.2442C447.811 34.1684 446.752 36.4692 444.596 38.1467C442.471 39.8238 439.371 40.6893 435.296 40.7431Z"/>
</mask>
<g filter="url(#filter0_i_1438_2084)">
<path d="M15.0601 49.9313L14.9997 45.3584C11.1983 44.9419 8.16376 43.6907 5.89603 41.6049C3.62788 39.488 2.34802 36.8136 2.05644 33.5816L10.6424 33.4682C11.008 35.2369 11.8653 36.5479 13.2145 37.4013C14.5637 38.2546 16.2648 38.6678 18.318 38.6407C20.1223 38.6169 21.5178 38.2717 22.5047 37.6053C23.5222 36.9074 24.0234 35.9829 24.0082 34.8319C23.9971 33.992 23.661 33.2808 22.9999 32.6984C22.3385 32.0848 21.2746 31.6321 19.8084 31.3404L13.3032 29.9795C9.83991 29.2473 7.25724 28.0524 5.55521 26.3948C3.88429 24.7367 3.03199 22.6322 2.99831 20.0813C2.96053 17.2193 3.90902 14.8266 5.8438 12.9031C7.77858 10.9796 10.4227 9.76238 13.7763 9.2514L13.7221 5.14509L20.0215 5.06193L20.0764 9.2149C23.4115 9.66869 26.1186 10.8619 28.1976 12.7947C30.3078 14.727 31.4919 17.216 31.7499 20.2618L23.2106 20.3745C22.8479 18.8236 22.0855 17.6358 20.9234 16.811C19.7613 15.9863 18.2781 15.5859 16.4738 15.6097C14.8562 15.631 13.5695 15.9747 12.6137 16.6407C11.6887 17.2752 11.2329 18.1057 11.2465 19.1323C11.2568 19.91 11.5767 20.5748 12.2062 21.1265C12.8669 21.6778 13.8368 22.0851 15.116 22.3482L21.9951 23.7508C25.4269 24.4523 27.9784 25.6476 29.6497 27.3368C31.3518 28.9944 32.2213 31.2232 32.2582 34.0229C32.2981 37.0404 31.351 39.542 29.4171 41.5277C27.5142 43.513 24.8082 44.7622 21.2992 45.2752L21.3595 49.8482L15.0601 49.9313ZM35.0338 45.4673L34.9599 39.8678L50.3039 24.9172C51.9014 23.3716 52.9742 22.144 53.5222 21.2344C54.0702 20.3249 54.3377 19.3724 54.3246 18.3769C54.3057 16.9459 53.8245 15.8478 52.8809 15.0824C51.937 14.2859 50.6407 13.8985 48.9919 13.9203C45.3211 13.9687 43.2781 15.9403 42.8628 19.835L34.6968 19.9428C34.8923 15.8955 36.2507 12.735 38.772 10.4615C41.293 8.15695 44.6999 6.97632 48.9928 6.91964C51.7615 6.88309 54.163 7.31809 56.1974 8.22465C58.2628 9.1308 59.8513 10.4322 60.9627 12.1288C62.1047 13.7938 62.6912 15.7929 62.722 18.126C62.7487 20.1481 62.2293 22.0529 61.1639 23.8404C60.0986 25.628 58.3828 27.6419 56.0166 29.8823L47.4875 37.8355L47.49 38.0222L63.3086 37.8134L63.4047 45.0927L35.0338 45.4673ZM81.6214 45.4123C77.204 45.4706 73.6761 44.5526 71.0375 42.6584C68.3985 40.7331 66.8999 37.9837 66.5415 34.4104L75.1741 34.2964C75.3793 35.6938 76.0465 36.7429 77.1758 37.4436C78.3359 38.1128 79.8492 38.4351 81.7157 38.4104C83.7999 38.3829 85.3637 37.8178 86.407 36.715C87.4815 35.6118 88.0059 34.0959 87.9805 32.1672C87.9538 30.1451 87.343 28.6597 86.1481 27.711C84.984 26.7307 83.3909 26.2539 81.3688 26.2806C80.0623 26.2979 78.8833 26.5468 77.8317 27.0274C76.8113 27.5075 75.996 28.2028 75.3857 29.1132L67.9664 29.2111L70.4293 7.19669L93.9939 6.88559L94.0913 14.2583L77.3394 14.4794L76.5477 21.6772L76.8276 21.6735C78.5516 20.2817 80.8135 19.5674 83.6133 19.5304C87.4396 19.4799 90.4868 20.5131 92.755 22.63C95.0542 24.7465 96.2301 27.7957 96.2827 31.7775C96.3377 35.9461 95.1056 39.2448 92.5864 41.6739C90.0671 44.1029 86.4121 45.349 81.6214 45.4123ZM99.6076 53.0155L99.5436 48.1626L101.783 48.133C102.686 48.1211 103.32 47.8638 103.687 47.3612C104.085 46.8892 104.279 46.2955 104.27 45.58L104.256 44.5534L100.057 44.6088L99.9384 35.6496L109.178 35.5276L109.314 45.8867C109.343 48.0643 108.79 49.7829 107.656 51.0424C106.552 52.3015 104.803 52.9469 102.407 52.9785L99.6076 53.0155ZM127.782 44.8029C122.991 44.8661 119.33 43.2654 116.797 40.0008C114.296 36.7046 113.003 31.8835 112.919 25.5374C112.836 19.1913 114.001 14.3532 116.415 11.0233C118.859 7.66185 122.477 5.9495 127.268 5.88626C132.059 5.82301 135.705 7.43946 138.206 10.7356C140.738 14.0003 142.046 18.8056 142.13 25.1517C142.214 31.4979 141.033 36.3516 138.589 39.7131C136.175 43.043 132.572 44.7396 127.782 44.8029ZM127.687 37.6168C129.74 37.5897 131.236 36.5899 132.174 34.6173C133.144 32.6444 133.601 29.5269 133.544 25.2651C133.488 21.0032 132.949 17.899 131.928 15.9523C130.938 14.0052 129.416 13.0452 127.363 13.0723C125.341 13.099 123.845 14.0833 122.875 16.0251C121.905 17.967 121.448 21.1 121.505 25.424C121.562 29.7481 122.101 32.8679 123.122 34.7835C124.143 36.6991 125.665 37.6435 127.687 37.6168ZM159.99 44.3777C155.199 44.4409 151.538 42.8402 149.005 39.5756C146.504 36.2794 145.211 31.4583 145.128 25.1122C145.044 18.7661 146.209 13.928 148.623 10.5981C151.068 7.23664 154.685 5.52429 159.476 5.46104C164.267 5.3978 167.913 7.01425 170.414 10.3104C172.947 13.575 174.255 18.3804 174.338 24.7265C174.422 31.0726 173.242 35.9264 170.797 39.2879C168.383 42.6178 164.78 44.3144 159.99 44.3777ZM159.895 37.1916C161.948 37.1645 163.444 36.1647 164.382 34.1921C165.352 32.2191 165.809 29.1017 165.752 24.8399C165.696 20.578 165.157 17.4738 164.136 15.5271C163.146 13.58 161.624 12.62 159.571 12.6471C157.549 12.6738 156.053 13.6581 155.083 15.5999C154.113 17.5418 153.656 20.6747 153.713 24.9988C153.771 29.3229 154.31 32.4427 155.33 34.3583C156.351 36.2739 157.873 37.2183 159.895 37.1916ZM192.198 43.9524C187.407 44.0157 183.746 42.415 181.214 39.1504C178.712 35.8542 177.419 31.0331 177.336 24.687C177.252 18.3408 178.417 13.5028 180.831 10.1729C183.276 6.81143 186.893 5.09908 191.684 5.03583C196.475 4.97259 200.121 6.58904 202.622 9.88519C205.155 13.1498 206.463 17.9552 206.546 24.3013C206.63 30.6474 205.45 35.5012 203.005 38.8627C200.591 42.1926 196.989 43.8892 192.198 43.9524ZM192.103 36.7664C194.156 36.7393 195.652 35.7395 196.591 33.7669C197.56 31.7939 198.017 28.6765 197.961 24.4147C197.904 20.1528 197.365 17.0485 196.344 15.1019C195.354 13.1548 193.832 12.1948 191.779 12.2219C189.757 12.2486 188.261 13.2328 187.291 15.1747C186.321 17.1166 185.864 20.2495 185.922 24.5736C185.979 28.8977 186.518 32.0175 187.539 33.9331C188.56 35.8487 190.081 36.7931 192.103 36.7664ZM224.309 42.9685L223.939 14.9709L232.525 14.8576L232.895 42.8551L224.309 42.9685ZM228.201 12.5344C226.925 12.5513 225.831 12.1146 224.917 11.2243C224.003 10.3341 223.537 9.25127 223.52 7.97582C223.503 6.70038 223.94 5.60563 224.83 4.69158C225.721 3.77752 226.803 3.31207 228.079 3.29524C229.354 3.2784 230.449 3.7151 231.363 4.60533C232.277 5.49556 232.743 6.5784 232.76 7.85385C232.776 9.12929 232.34 10.224 231.449 11.1381C230.559 12.0521 229.476 12.5176 228.201 12.5344ZM240.993 42.7482L240.734 23.1499L236.535 23.2054L236.424 14.8061L245.01 14.6927L245.071 19.359L247.031 19.3331C248.13 17.7007 249.482 16.4227 251.088 15.4992C252.724 14.5442 254.818 14.0499 257.369 14.0162C261.35 13.9636 264.413 14.9966 266.557 17.1152C268.732 19.2333 269.843 22.0967 269.891 25.7052L270.111 42.3638L261.525 42.4771L261.327 27.4984C261.301 25.5697 260.769 24.1144 259.729 23.1325C258.72 22.1502 257.236 21.6719 255.276 21.6978C253.317 21.7237 251.83 22.2411 250.817 23.2502C249.834 24.2588 249.356 25.7274 249.381 27.6562L249.579 42.6348L240.993 42.7482ZM289.519 42.1076L289.02 4.31086L307.358 4.06875C311.62 4.01249 314.963 5.05734 317.387 7.2033C319.811 9.31816 321.047 12.2732 321.098 16.0684C321.147 19.8325 319.989 22.8192 317.622 25.0284C315.256 27.2376 311.941 28.3704 307.68 28.4266L298.114 28.5529L298.291 41.9917L289.519 42.1076ZM298.013 20.9003L307.019 20.7814C308.761 20.7584 310.078 20.3521 310.969 19.5624C311.892 18.7413 312.344 17.6152 312.325 16.1842C312.306 14.7221 311.824 13.6084 310.881 12.843C309.968 12.0772 308.641 11.7058 306.899 11.7288L297.893 11.8477L298.013 20.9003ZM328.148 41.5976L327.889 21.9993L323.689 22.0547L323.579 13.6555L332.165 13.5421L332.238 19.1416L334.198 19.1158C334.887 17.0843 336.034 15.5757 337.639 14.5899C339.243 13.5731 341.041 13.0516 343.032 13.0253L345.412 12.9939L345.51 20.4599L342.757 20.4962C340.455 20.5266 338.799 21.1863 337.79 22.4753C336.811 23.7639 336.335 25.4348 336.362 27.4879L336.547 41.4867L328.148 41.5976ZM349.861 41.3109L349.491 13.3134L358.077 13.2L358.446 41.1976L349.861 41.3109ZM353.752 10.8769C352.477 10.8937 351.382 10.457 350.468 9.56681C349.554 8.67657 349.089 7.59374 349.072 6.31829C349.055 5.04285 349.492 3.9481 350.382 3.03404C351.272 2.11999 352.355 1.65454 353.63 1.6377C354.906 1.62087 356.001 2.05756 356.915 2.9478C357.829 3.83803 358.294 4.92087 358.311 6.19632C358.328 7.47176 357.891 8.56651 357.001 9.48056C356.111 10.3946 355.028 10.8601 353.752 10.8769ZM362.625 41.1424L362.558 36.1029L376.157 19.7752L363.185 19.9465L363.095 13.1338L387.08 12.8171L387.146 17.8567L373.547 34.1843L387.639 33.9982L387.729 40.811L362.625 41.1424ZM404.42 41.1507C401.34 41.1913 398.657 40.6356 396.371 39.4835C394.084 38.3002 392.304 36.628 391.031 34.4669C389.788 32.2742 389.147 29.6846 389.108 26.6982C389.069 23.7118 389.626 21.1376 390.78 18.9755C391.964 16.7819 393.653 15.095 395.847 13.9148C398.071 12.7031 400.692 12.0774 403.709 12.0375C406.696 11.9981 409.27 12.5397 411.431 13.6624C413.593 14.754 415.247 16.35 416.395 18.4506C417.574 20.5508 418.183 23.0785 418.222 26.0338L418.258 28.7869L397.4 29.0623C397.766 30.8621 398.531 32.221 399.694 33.139C400.857 34.026 402.387 34.4569 404.285 34.4319C405.809 34.4118 406.988 34.1628 407.822 33.6851C408.686 33.1759 409.298 32.39 409.658 31.3274L418.244 31.214C417.693 34.2704 416.2 36.6859 413.765 38.4604C411.33 40.2038 408.215 41.1006 404.42 41.1507ZM397.466 23.4609L409.972 23.2958C409.671 21.7441 409.003 20.6017 407.966 19.8687C406.96 19.1041 405.587 18.7333 403.844 18.7563C402.134 18.7789 400.739 19.1863 399.66 19.9783C398.582 20.7704 397.85 21.9313 397.466 23.4609ZM435.296 40.7431C431.097 40.7985 427.772 39.9556 425.322 38.2145C422.903 36.4729 421.58 34.0169 421.351 30.8463L429.61 30.7372C429.876 31.9783 430.479 32.8882 431.42 33.4669C432.392 34.0453 433.78 34.3225 435.585 34.2987C438.384 34.2617 439.774 33.5122 439.755 32.0501C439.747 31.459 439.523 30.9953 439.083 30.6588C438.674 30.2909 437.986 30.0199 437.019 29.846L430.75 28.7154C425.012 27.671 422.114 25.0335 422.059 20.8027C422.022 18.0652 423.098 15.873 425.285 14.2262C427.472 12.5483 430.51 11.6837 434.399 11.6324C438.287 11.581 441.362 12.3805 443.624 14.0308C445.886 15.6811 447.131 18.0293 447.358 21.0755L439.098 21.1845C438.771 19.9754 438.2 19.1117 437.384 18.5936C436.599 18.0439 435.444 17.7791 433.92 17.7992C432.676 17.8157 431.713 17.9995 431.034 18.3507C430.385 18.7015 430.065 19.2191 430.074 19.9035C430.081 20.4012 430.288 20.8185 430.697 21.1554C431.106 21.4922 431.716 21.7331 432.527 21.878L438.983 23.0528C441.977 23.6045 444.183 24.5399 445.601 25.8591C447.018 27.1782 447.742 28.9733 447.772 31.2442C447.811 34.1684 446.752 36.4692 444.596 38.1467C442.471 39.8238 439.371 40.6893 435.296 40.7431Z" fill="white"/>
</g>
<path d="M15.0601 49.9313L13.5602 49.9511L13.58 51.451L15.0799 51.4312L15.0601 49.9313ZM14.9997 45.3584L16.4996 45.3386L16.4821 44.0118L15.1631 43.8673L14.9997 45.3584ZM5.89603 41.6049L4.87253 42.7015L4.88058 42.7089L5.89603 41.6049ZM2.05644 33.5816L2.03664 32.0817L0.416967 32.1031L0.562511 33.7163L2.05644 33.5816ZM10.6424 33.4682L12.1113 33.1646L11.8607 31.952L10.6226 31.9683L10.6424 33.4682ZM13.2145 37.4013L14.0164 36.1336L14.0164 36.1336L13.2145 37.4013ZM22.5047 37.6053L23.3442 38.8484L23.3531 38.8423L22.5047 37.6053ZM22.9999 32.6984L21.9799 33.7981L21.994 33.8112L22.0083 33.8238L22.9999 32.6984ZM19.8084 31.3404L19.5012 32.8086L19.5084 32.8101L19.5156 32.8115L19.8084 31.3404ZM13.3032 29.9795L12.993 31.447L12.9961 31.4477L13.3032 29.9795ZM5.55521 26.3948L4.4986 27.4595L4.50864 27.4693L5.55521 26.3948ZM5.8438 12.9031L4.78625 11.8393L4.78625 11.8393L5.8438 12.9031ZM13.7763 9.2514L14.0022 10.7343L15.2934 10.5375L15.2762 9.2316L13.7763 9.2514ZM13.7221 5.14509L13.7023 3.64522L12.2024 3.66502L12.2222 5.16489L13.7221 5.14509ZM20.0215 5.06193L21.5214 5.04212L21.5016 3.54226L20.0017 3.56206L20.0215 5.06193ZM20.0764 9.2149L18.5765 9.2347L18.5935 10.527L19.8741 10.7012L20.0764 9.2149ZM28.1976 12.7947L27.1763 13.8933L27.1846 13.9009L28.1976 12.7947ZM31.7499 20.2618L31.7697 21.7616L33.3805 21.7404L33.2445 20.1351L31.7499 20.2618ZM23.2106 20.3745L21.75 20.7161L22.0246 21.8903L23.2304 21.8744L23.2106 20.3745ZM20.9234 16.811L20.0552 18.0343L20.0552 18.0343L20.9234 16.811ZM12.6137 16.6407L13.4622 17.8777L13.4713 17.8714L12.6137 16.6407ZM12.2062 21.1265L11.2176 22.2546L11.2312 22.2665L11.2452 22.2782L12.2062 21.1265ZM15.116 22.3482L14.8137 23.8174L14.8163 23.8179L15.116 22.3482ZM21.9951 23.7508L22.2954 22.2812L22.2948 22.2811L21.9951 23.7508ZM29.6497 27.3368L28.5835 28.3918L28.5932 28.4016L28.6032 28.4113L29.6497 27.3368ZM29.4171 41.5277L28.3425 40.4811L28.3341 40.4898L29.4171 41.5277ZM21.2992 45.2752L21.0822 43.791L19.7819 43.9811L19.7993 45.295L21.2992 45.2752ZM21.3595 49.8482L21.3793 51.348L22.8792 51.3282L22.8594 49.8284L21.3595 49.8482ZM15.0601 49.9313L16.5599 49.9115L16.4996 45.3386L14.9997 45.3584L13.4998 45.3782L13.5602 49.9511L15.0601 49.9313ZM14.9997 45.3584L15.1631 43.8673C11.6019 43.4771 8.89197 42.3225 6.91148 40.5009L5.89603 41.6049L4.88058 42.7089C7.43555 45.0589 10.7948 46.4066 14.8363 46.8495L14.9997 45.3584ZM5.89603 41.6049L6.9195 40.5083C4.93444 38.6556 3.81046 36.3297 3.55038 33.4468L2.05644 33.5816L0.562511 33.7163C0.885581 37.2974 2.32133 40.3204 4.87255 42.7015L5.89603 41.6049ZM2.05644 33.5816L2.07624 35.0814L10.6622 34.9681L10.6424 33.4682L10.6226 31.9683L2.03664 32.0817L2.05644 33.5816ZM10.6424 33.4682L9.17342 33.7719C9.60955 35.8817 10.673 37.5686 12.4127 38.669L13.2145 37.4013L14.0164 36.1336C13.0577 35.5272 12.4064 34.592 12.1113 33.1646L10.6424 33.4682ZM13.2145 37.4013L12.4127 38.669C14.0688 39.7165 16.0764 40.1704 18.3378 40.1405L18.318 38.6407L18.2982 37.1408C16.4533 37.1652 15.0585 36.7928 14.0164 36.1336L13.2145 37.4013ZM18.318 38.6407L18.3378 40.1405C20.2939 40.1147 22.0201 39.7426 23.3441 38.8484L22.5047 37.6053L21.6652 36.3622C21.0156 36.8009 19.9507 37.119 18.2982 37.1408L18.318 38.6407ZM22.5047 37.6053L23.3531 38.8423C24.7489 37.8849 25.5304 36.506 25.5081 34.8121L24.0082 34.8319L22.5083 34.8517C22.5164 35.4598 22.2955 35.9298 21.6562 36.3683L22.5047 37.6053ZM24.0082 34.8319L25.5081 34.8121C25.4911 33.5255 24.9531 32.42 23.9915 31.5729L22.9999 32.6984L22.0083 33.8238C22.369 34.1416 22.5031 34.4585 22.5083 34.8517L24.0082 34.8319ZM22.9999 32.6984L24.02 31.5986C23.0619 30.7099 21.6797 30.1833 20.1012 29.8692L19.8084 31.3404L19.5156 32.8115C20.8695 33.0809 21.615 33.4597 21.9799 33.7981L22.9999 32.6984ZM19.8084 31.3404L20.1156 29.8721L13.6104 28.5112L13.3032 29.9795L12.9961 31.4477L19.5012 32.8086L19.8084 31.3404ZM13.3032 29.9795L13.6134 28.5119C10.3005 27.8116 8.02396 26.7053 6.60178 25.3202L5.55521 26.3948L4.50864 27.4693C6.49053 29.3996 9.3793 30.6831 12.993 31.447L13.3032 29.9795ZM5.55521 26.3948L6.61177 25.33C5.24447 23.9732 4.52715 22.2556 4.49818 20.0615L2.99831 20.0813L1.49844 20.1011C1.53683 23.0087 2.5241 25.5001 4.49865 27.4595L5.55521 26.3948ZM2.99831 20.0813L4.49818 20.0615C4.46546 17.5834 5.27011 15.5886 6.90135 13.9669L5.8438 12.9031L4.78625 11.8393C2.54794 14.0646 1.45559 16.8553 1.49844 20.1011L2.99831 20.0813ZM5.8438 12.9031L6.90135 13.9669C8.56045 12.3174 10.8857 11.2092 14.0022 10.7343L13.7763 9.2514L13.5503 7.76852C9.95978 8.31561 6.9967 9.64179 4.78625 11.8393L5.8438 12.9031ZM13.7763 9.2514L15.2762 9.2316L15.2219 5.12529L13.7221 5.14509L12.2222 5.16489L12.2764 9.2712L13.7763 9.2514ZM13.7221 5.14509L13.7419 6.64496L20.0413 6.5618L20.0215 5.06193L20.0017 3.56206L13.7023 3.64522L13.7221 5.14509ZM20.0215 5.06193L18.5217 5.08173L18.5765 9.2347L20.0764 9.2149L21.5762 9.1951L21.5214 5.04212L20.0215 5.06193ZM20.0764 9.2149L19.8741 10.7012C22.9612 11.1212 25.3635 12.208 27.1763 13.8933L28.1976 12.7947L29.2189 11.6961C26.8738 9.51593 23.8619 8.21614 20.2786 7.72859L20.0764 9.2149ZM28.1976 12.7947L27.1846 13.9009C28.9968 15.5604 30.0266 17.69 30.2552 20.3884L31.7499 20.2618L33.2445 20.1351C32.9571 16.742 31.6188 13.8936 29.2107 11.6884L28.1976 12.7947ZM31.7499 20.2618L31.7301 18.7619L23.1908 18.8746L23.2106 20.3745L23.2304 21.8744L31.7697 21.7616L31.7499 20.2618ZM23.2106 20.3745L24.6712 20.0329C24.2357 18.1707 23.2877 16.6496 21.7915 15.5878L20.9234 16.811L20.0552 18.0343C20.8833 18.6219 21.4601 19.4765 21.75 20.7161L23.2106 20.3745ZM20.9234 16.811L21.7915 15.5878C20.3084 14.5352 18.4908 14.0829 16.454 14.1098L16.4738 15.6097L16.4936 17.1095C18.0653 17.0888 19.2142 17.4374 20.0552 18.0343L20.9234 16.811ZM16.4738 15.6097L16.454 14.1098C14.6493 14.1336 13.0366 14.5178 11.7561 15.4101L12.6137 16.6407L13.4713 17.8714C14.1023 17.4317 15.063 17.1284 16.4936 17.1095L16.4738 15.6097ZM12.6137 16.6407L11.7653 15.4037C10.4719 16.2909 9.72577 17.5716 9.74663 19.1521L11.2465 19.1323L12.7464 19.1125C12.7401 18.6399 12.9055 18.2596 13.4622 17.8777L12.6137 16.6407ZM11.2465 19.1323L9.74663 19.1521C9.76298 20.3902 10.2957 21.4466 11.2176 22.2546L12.2062 21.1265L13.1949 19.9984C12.8577 19.7029 12.7506 19.4299 12.7464 19.1125L11.2465 19.1323ZM12.2062 21.1265L11.2452 22.2782C12.1692 23.0493 13.4071 23.5281 14.8137 23.8174L15.116 22.3482L15.4182 20.879C14.2665 20.642 13.5646 20.3064 13.1673 19.9748L12.2062 21.1265ZM15.116 22.3482L14.8163 23.8179L21.6954 25.2206L21.9951 23.7508L22.2948 22.2811L15.4156 20.8784L15.116 22.3482ZM21.9951 23.7508L21.6947 25.2205C24.966 25.8891 27.1979 26.9915 28.5835 28.3918L29.6497 27.3368L30.716 26.2818C28.7589 24.3037 25.8877 23.0154 22.2954 22.2812L21.9951 23.7508ZM29.6497 27.3368L28.6032 28.4113C29.9698 29.7423 30.7256 31.5643 30.7584 34.0427L32.2582 34.0229L33.7581 34.0031C33.7169 30.882 32.7338 28.2466 30.6963 26.2622L29.6497 27.3368ZM32.2582 34.0229L30.7584 34.0427C30.7935 36.7013 29.9729 38.8072 28.3425 40.4812L29.4171 41.5277L30.4916 42.5743C32.7292 40.2769 33.8027 37.3795 33.7581 34.0031L32.2582 34.0229ZM29.4171 41.5277L28.3341 40.4898C26.7217 42.1721 24.3575 43.3121 21.0822 43.791L21.2992 45.2752L21.5161 46.7595C25.259 46.2122 28.3067 44.854 30.5 42.5657L29.4171 41.5277ZM21.2992 45.2752L19.7993 45.295L19.8597 49.868L21.3595 49.8482L22.8594 49.8284L22.799 45.2554L21.2992 45.2752ZM21.3595 49.8482L21.3397 48.3483L15.0403 48.4315L15.0601 49.9313L15.0799 51.4312L21.3793 51.348L21.3595 49.8482ZM35.0338 45.4673L33.534 45.4871L33.5538 46.9869L35.0536 46.9671L35.0338 45.4673ZM34.9599 39.8678L33.9131 38.7934L33.4515 39.2432L33.46 39.8876L34.9599 39.8678ZM50.3039 24.9172L49.2608 23.8392L49.2571 23.8429L50.3039 24.9172ZM53.5222 21.2344L52.2374 20.4603L52.2374 20.4603L53.5222 21.2344ZM52.8809 15.0824L51.9136 16.2288L51.9247 16.2381L51.936 16.2473L52.8809 15.0824ZM42.8628 19.835L42.8826 21.3349L44.2133 21.3173L44.3544 19.9941L42.8628 19.835ZM34.6968 19.9428L33.1986 19.8705L33.1216 21.4638L34.7167 21.4427L34.6968 19.9428ZM38.772 10.4615L39.7766 11.5756L39.7841 11.5686L38.772 10.4615ZM56.1974 8.22465L55.5868 9.59479L55.5947 9.59827L56.1974 8.22465ZM60.9627 12.1287L59.7079 12.9507L59.7166 12.964L59.7257 12.9772L60.9627 12.1287ZM61.1639 23.8404L59.8754 23.0725L59.8754 23.0725L61.1639 23.8404ZM56.0166 29.8823L57.0396 30.9793L57.0479 30.9715L56.0166 29.8823ZM47.4875 37.8355L46.4645 36.7385L45.9789 37.1914L45.9876 37.8553L47.4875 37.8355ZM47.49 38.0222L45.9901 38.042L46.0099 39.5419L47.5098 39.5221L47.49 38.0222ZM63.3086 37.8134L64.8085 37.7936L64.7886 36.2937L63.2888 36.3135L63.3086 37.8134ZM63.4047 45.0927L63.4245 46.5926L64.9244 46.5728L64.9046 45.0729L63.4047 45.0927ZM35.0338 45.4673L36.5337 45.4475L36.4598 39.848L34.9599 39.8678L33.46 39.8876L33.534 45.4871L35.0338 45.4673ZM34.9599 39.8678L36.0067 40.9421L51.3507 25.9916L50.3039 24.9172L49.2571 23.8429L33.9131 38.7934L34.9599 39.8678ZM50.3039 24.9172L51.3469 25.9952C52.9592 24.4352 54.1524 23.095 54.807 22.0086L53.5222 21.2344L52.2374 20.4603C51.796 21.1929 50.8436 22.3079 49.2609 23.8392L50.3039 24.9172ZM53.5222 21.2344L54.807 22.0086C55.4893 20.8762 55.8415 19.6509 55.8244 18.3571L54.3246 18.3769L52.8247 18.3967C52.8339 19.0939 52.6512 19.7735 52.2374 20.4603L53.5222 21.2344ZM54.3246 18.3769L55.8244 18.3571C55.8008 16.5689 55.1781 15.0143 53.8259 13.9175L52.8809 15.0824L51.936 16.2473C52.4708 16.6812 52.8105 17.323 52.8247 18.3967L54.3246 18.3769ZM52.8809 15.0824L53.8483 13.936C52.5476 12.8384 50.8595 12.3955 48.9721 12.4204L48.9919 13.9203L49.0117 15.4201C50.4219 15.4015 51.3264 15.7333 51.9136 16.2288L52.8809 15.0824ZM48.9919 13.9203L48.9721 12.4204C46.8707 12.4481 45.0344 13.0344 43.6649 14.3559C42.3086 15.6649 41.6021 17.5107 41.3713 19.676L42.8628 19.835L44.3544 19.9941C44.5388 18.2646 45.0615 17.1773 45.7482 16.5147C46.4217 15.8647 47.4423 15.4409 49.0117 15.4201L48.9919 13.9203ZM42.8628 19.835L42.843 18.3352L34.677 18.443L34.6968 19.9428L34.7167 21.4427L42.8826 21.3349L42.8628 19.835ZM34.6968 19.9428L36.1951 20.0152C36.3753 16.284 37.6084 13.5305 39.7765 11.5755L38.772 10.4615L37.7675 9.34754C34.893 11.9395 33.4093 15.5069 33.1986 19.8705L34.6968 19.9428ZM38.772 10.4615L39.7841 11.5686C41.9691 9.57115 44.9895 8.47263 49.0126 8.41951L48.9928 6.91964L48.973 5.41977C44.4103 5.48001 40.6168 6.74275 37.7599 9.35445L38.772 10.4615ZM48.9928 6.91964L49.0126 8.41951C51.6156 8.38515 53.7928 8.79533 55.5868 9.59477L56.1974 8.22465L56.8079 6.85453C54.5332 5.84086 51.9073 5.38104 48.973 5.41977L48.9928 6.91964ZM56.1974 8.22465L55.5947 9.59827C57.4249 10.4012 58.7734 11.5241 59.7079 12.9507L60.9627 12.1287L62.2174 11.3068C60.9292 9.34024 59.1008 7.86042 56.8 6.85103L56.1974 8.22465ZM60.9627 12.1287L59.7257 12.9772C60.6753 14.3618 61.1946 16.0615 61.2221 18.1458L62.722 18.126L64.2218 18.1062C64.1878 15.5243 63.5341 13.2259 62.1996 11.2803L60.9627 12.1287ZM62.722 18.126L61.2221 18.1458C61.245 19.8825 60.8033 21.5157 59.8754 23.0725L61.1639 23.8404L62.4524 24.6084C63.6554 22.5901 64.2523 20.4137 64.2218 18.1062L62.722 18.126ZM61.1639 23.8404L59.8754 23.0725C58.9087 24.6945 57.3011 26.6004 54.9853 28.793L56.0166 29.8823L57.0479 30.9715C59.4645 28.6835 61.2884 26.5615 62.4524 24.6084L61.1639 23.8404ZM56.0166 29.8823L54.9936 28.7852L46.4645 36.7385L47.4875 37.8355L48.5105 38.9326L57.0396 30.9793L56.0166 29.8823ZM47.4875 37.8355L45.9876 37.8553L45.9901 38.042L47.49 38.0222L48.9898 38.0024L48.9874 37.8157L47.4875 37.8355ZM47.49 38.0222L47.5098 39.5221L63.3284 39.3132L63.3086 37.8134L63.2888 36.3135L47.4702 36.5223L47.49 38.0222ZM63.3086 37.8134L61.8087 37.8332L61.9048 45.1125L63.4047 45.0927L64.9046 45.0729L64.8085 37.7936L63.3086 37.8134ZM63.4047 45.0927L63.3849 43.5929L35.014 43.9674L35.0338 45.4673L35.0536 46.9671L63.4245 46.5926L63.4047 45.0927ZM71.0375 42.6584L70.1534 43.8702L70.1627 43.8769L71.0375 42.6584ZM66.5415 34.4104L66.5217 32.9105L64.8858 32.9321L65.049 34.56L66.5415 34.4104ZM75.1741 34.2964L76.6582 34.0786L76.4675 32.7792L75.1543 32.7965L75.1741 34.2964ZM77.1758 37.4436L76.385 38.7182L76.4055 38.7309L76.4263 38.7429L77.1758 37.4436ZM86.407 36.715L85.3325 35.6684L85.3249 35.6762L85.3174 35.6841L86.407 36.715ZM86.1482 27.711L85.182 28.8584L85.1985 28.8723L85.2154 28.8857L86.1482 27.711ZM77.8317 27.0274L77.2082 25.6631L77.2006 25.6666L77.1931 25.6701L77.8317 27.0274ZM75.3857 29.1132L75.4055 30.613L76.1931 30.6026L76.6317 29.9484L75.3857 29.1132ZM67.9664 29.2111L66.4757 29.0443L66.2867 30.7334L67.9862 30.711L67.9664 29.2111ZM70.4293 7.19669L70.4095 5.69682L69.0858 5.71429L68.9386 7.02991L70.4293 7.19669ZM93.9939 6.88559L95.4938 6.86579L95.474 5.36592L93.9741 5.38572L93.9939 6.88559ZM94.0913 14.2583L94.1111 15.7581L95.6109 15.7383L95.5911 14.2385L94.0913 14.2583ZM77.3394 14.4794L77.3196 12.9796L75.9934 12.9971L75.8484 14.3154L77.3394 14.4794ZM76.5477 21.6772L75.0567 21.5132L74.8712 23.1994L76.5675 23.177L76.5477 21.6772ZM76.8276 21.6735L76.8474 23.1734L77.3662 23.1665L77.7699 22.8406L76.8276 21.6735ZM92.755 22.63L91.7315 23.7266L91.7391 23.7336L92.755 22.63ZM92.5864 41.6739L93.6275 42.7537L92.5864 41.6739ZM81.6214 45.4123L81.6016 43.9124C77.3912 43.968 74.2111 43.0903 71.9123 41.4399L71.0375 42.6584L70.1627 43.8769C73.141 46.015 77.0169 46.9732 81.6412 46.9121L81.6214 45.4123ZM71.0375 42.6584L71.9216 41.4466C69.6637 39.7994 68.3545 37.4568 68.0341 34.2607L66.5415 34.4104L65.049 34.56C65.4452 38.5107 67.1333 41.6668 70.1534 43.8702L71.0375 42.6584ZM66.5415 34.4104L66.5613 35.9103L75.1939 35.7963L75.1741 34.2964L75.1543 32.7965L66.5217 32.9105L66.5415 34.4104ZM75.1741 34.2964L73.69 34.5143C73.9547 36.3176 74.8542 37.7684 76.385 38.7182L77.1758 37.4436L77.9667 36.169C77.2388 35.7174 76.8038 35.0701 76.6582 34.0786L75.1741 34.2964ZM77.1758 37.4436L76.4263 38.7429C77.8946 39.5899 79.7005 39.9372 81.7355 39.9103L81.7157 38.4104L81.6959 36.9105C79.9978 36.933 78.7772 36.6357 77.9254 36.1443L77.1758 37.4436ZM81.7157 38.4104L81.7355 39.9103C84.0698 39.8795 86.0836 39.2395 87.4967 37.7459L86.407 36.715L85.3174 35.6841C84.6439 36.396 83.5301 36.8863 81.6959 36.9105L81.7157 38.4104ZM86.407 36.715L87.4816 37.7616C88.8997 36.3055 89.5097 34.3678 89.4803 32.1474L87.9805 32.1672L86.4806 32.187C86.5022 33.824 86.0632 34.9182 85.3325 35.6684L86.407 36.715ZM87.9805 32.1672L89.4803 32.1474C89.4498 29.8317 88.7356 27.8501 87.0809 26.5363L86.1482 27.711L85.2154 28.8857C85.9504 29.4693 86.4578 30.4585 86.4806 32.187L87.9805 32.1672ZM86.1482 27.711L87.1143 26.5636C85.5948 25.2841 83.6115 24.7509 81.349 24.7807L81.3689 26.2806L81.3887 27.7805C83.1703 27.757 84.3731 28.1773 85.182 28.8584L86.1482 27.711ZM81.3689 26.2806L81.349 24.7807C79.8611 24.8004 78.4726 25.0852 77.2082 25.6631L77.8317 27.0274L78.4553 28.3916C79.2939 28.0083 80.2634 27.7953 81.3887 27.7805L81.3689 26.2806ZM77.8317 27.0274L77.1931 25.6701C75.9341 26.2625 74.9059 27.135 74.1398 28.2779L75.3857 29.1132L76.6317 29.9484C77.086 29.2706 77.6885 28.7525 78.4704 28.3846L77.8317 27.0274ZM75.3857 29.1132L75.3659 27.6133L67.9466 27.7112L67.9664 29.2111L67.9862 30.711L75.4055 30.613L75.3857 29.1132ZM67.9664 29.2111L69.4571 29.3779L71.92 7.36346L70.4293 7.19669L68.9386 7.02991L66.4757 29.0443L67.9664 29.2111ZM70.4293 7.19669L70.4491 8.69656L94.0137 8.38546L93.9939 6.88559L93.9741 5.38572L70.4095 5.69682L70.4293 7.19669ZM93.9939 6.88559L92.4941 6.90539L92.5914 14.2781L94.0913 14.2583L95.5911 14.2385L95.4938 6.86579L93.9939 6.88559ZM94.0913 14.2583L94.0715 12.7584L77.3196 12.9796L77.3394 14.4794L77.3592 15.9793L94.1111 15.7581L94.0913 14.2583ZM77.3394 14.4794L75.8484 14.3154L75.0567 21.5132L76.5477 21.6772L78.0387 21.8412L78.8304 14.6434L77.3394 14.4794ZM76.5477 21.6772L76.5675 23.177L76.8474 23.1734L76.8276 21.6735L76.8078 20.1736L76.5279 20.1773L76.5477 21.6772ZM76.8276 21.6735L77.7699 22.8406C79.1699 21.7104 81.0792 21.064 83.6331 21.0303L83.6133 19.5304L83.5935 18.0305C80.5478 18.0707 77.9334 18.8531 75.8854 20.5063L76.8276 21.6735ZM83.6133 19.5304L83.6331 21.0303C87.1678 20.9836 89.8088 21.932 91.7315 23.7266L92.755 22.63L93.7785 21.5334C91.1649 19.0941 87.7114 17.9762 83.5935 18.0305L83.6133 19.5304ZM92.755 22.63L91.7391 23.7336C93.6567 25.4988 94.7341 28.1081 94.7828 31.7973L96.2827 31.7775L97.7826 31.7577C97.7261 27.4832 96.4517 23.9941 93.7709 21.5264L92.755 22.63ZM96.2827 31.7775L94.7828 31.7973C94.8335 35.6376 93.7097 38.5071 91.5452 40.594L92.5864 41.6739L93.6275 42.7537C96.5016 39.9826 97.8419 36.2546 97.7826 31.7577L96.2827 31.7775ZM92.5864 41.6739L91.5452 40.594C89.3885 42.6735 86.1536 43.8523 81.6016 43.9124L81.6214 45.4123L81.6412 46.9121C86.6707 46.8457 90.7457 45.5323 93.6275 42.7537L92.5864 41.6739ZM99.6076 53.0155L98.1078 53.0353L98.1276 54.5352L99.6274 54.5154L99.6076 53.0155ZM99.5436 48.1626L99.5238 46.6627L98.0239 46.6825L98.0437 48.1824L99.5436 48.1626ZM103.687 47.3612L102.54 46.3938L102.506 46.4343L102.475 46.4771L103.687 47.3612ZM104.256 44.5534L105.756 44.5336L105.736 43.0337L104.237 43.0535L104.256 44.5534ZM100.057 44.6088L98.5568 44.6286L98.5766 46.1285L100.076 46.1087L100.057 44.6088ZM99.9384 35.6496L99.9186 34.1498L98.4187 34.1696L98.4385 35.6694L99.9384 35.6496ZM109.178 35.5276L110.677 35.5078L110.658 34.008L109.158 34.0278L109.178 35.5276ZM107.656 51.0424L106.541 50.0385L106.534 50.0461L106.528 50.0538L107.656 51.0424ZM99.6076 53.0155L101.108 52.9957L101.043 48.1428L99.5436 48.1626L98.0437 48.1824L98.1078 53.0353L99.6076 53.0155ZM99.5436 48.1626L99.5634 49.6625L101.803 49.6329L101.783 48.133L101.764 46.6332L99.5238 46.6627L99.5436 48.1626ZM101.783 48.133L101.803 49.6329C102.954 49.6177 104.144 49.2794 104.898 48.2452L103.687 47.3612L102.475 46.4771C102.472 46.4804 102.457 46.5066 102.372 46.5411C102.273 46.5812 102.084 46.6289 101.764 46.6332L101.783 48.133ZM103.687 47.3612L104.833 48.3285C105.5 47.5376 105.783 46.5758 105.77 45.5602L104.27 45.58L102.77 45.5998C102.775 46.0151 102.669 46.2408 102.54 46.3938L103.687 47.3612ZM104.27 45.58L105.77 45.5602L105.756 44.5336L104.256 44.5534L102.756 44.5732L102.77 45.5998L104.27 45.58ZM104.256 44.5534L104.237 43.0535L100.037 43.109L100.057 44.6088L100.076 46.1087L104.276 46.0533L104.256 44.5534ZM100.057 44.6088L101.557 44.589L101.438 35.6298L99.9384 35.6496L98.4385 35.6694L98.5568 44.6286L100.057 44.6088ZM99.9384 35.6496L99.9582 37.1495L109.197 37.0275L109.178 35.5276L109.158 34.0278L99.9186 34.1498L99.9384 35.6496ZM109.178 35.5276L107.678 35.5474L107.815 45.9065L109.314 45.8867L110.814 45.8669L110.677 35.5078L109.178 35.5276ZM109.314 45.8867L107.815 45.9065C107.84 47.8177 107.357 49.1325 106.541 50.0385L107.656 51.0424L108.77 52.0464C110.223 50.4333 110.847 48.3109 110.814 45.8669L109.314 45.8867ZM107.656 51.0424L106.528 50.0538C105.808 50.875 104.545 51.4502 102.388 51.4787L102.407 52.9785L102.427 54.4784C105.06 54.4436 107.296 53.7281 108.784 52.0311L107.656 51.0424ZM102.407 52.9785L102.388 51.4787L99.5878 51.5156L99.6076 53.0155L99.6274 54.5154L102.427 54.4784L102.407 52.9785ZM116.797 40.0008L115.602 40.9076L115.607 40.9139L115.612 40.9201L116.797 40.0008ZM116.415 11.0233L115.202 10.141L115.2 10.1429L116.415 11.0233ZM138.206 10.7356L137.011 11.6424L137.016 11.6487L137.021 11.655L138.206 10.7356ZM138.589 39.7131L137.376 38.8308L137.374 38.8327L138.589 39.7131ZM132.174 34.6173L130.828 33.9557L130.824 33.9643L130.82 33.9729L132.174 34.6173ZM131.928 15.9523L130.591 16.6323L130.595 16.6407L130.6 16.6492L131.928 15.9523ZM122.875 16.0251L124.217 16.6954L122.875 16.0251ZM123.122 34.7835L124.446 34.078L123.122 34.7835ZM127.782 44.8029L127.762 43.303C123.356 43.3612 120.178 41.9117 117.983 39.0814L116.797 40.0008L115.612 40.9201C118.481 44.6191 122.626 46.3711 127.801 46.3027L127.782 44.8029ZM116.797 40.0008L117.992 39.094C115.763 36.1571 114.501 31.704 114.419 25.5176L112.919 25.5374L111.42 25.5572C111.505 32.063 112.828 37.2521 115.602 40.9076L116.797 40.0008ZM112.919 25.5374L114.419 25.5176C114.338 19.3297 115.483 14.8645 117.629 11.9037L116.415 11.0233L115.2 10.1429C112.519 13.842 111.334 19.0528 111.42 25.5572L112.919 25.5374ZM116.415 11.0233L117.628 11.9056C119.749 8.98855 122.888 7.44421 127.288 7.38612L127.268 5.88626L127.248 4.38639C122.067 4.45479 117.97 6.33515 115.202 10.141L116.415 11.0233ZM127.268 5.88626L127.288 7.38612C131.688 7.32803 134.846 8.78896 137.011 11.6424L138.206 10.7356L139.401 9.82881C136.564 6.08996 132.429 4.31799 127.248 4.38639L127.268 5.88626ZM138.206 10.7356L137.021 11.655C139.272 14.5566 140.549 18.9868 140.63 25.1715L142.13 25.1517L143.63 25.1319C143.544 18.6245 142.205 13.4439 139.391 9.81628L138.206 10.7356ZM142.13 25.1517L140.63 25.1715C140.712 31.3549 139.553 35.8369 137.376 38.8308L138.589 39.7131L139.802 40.5954C142.514 36.8664 143.716 31.6409 143.63 25.1319L142.13 25.1517ZM138.589 39.7131L137.374 38.8327C135.287 41.7125 132.168 43.2448 127.762 43.303L127.782 44.8029L127.801 46.3027C132.977 46.2344 137.063 44.3736 139.803 40.5935L138.589 39.7131ZM127.687 37.6168L127.707 39.1167C128.981 39.0999 130.16 38.7767 131.182 38.0937C132.198 37.4143 132.968 36.4399 133.529 35.2618L132.174 34.6173L130.82 33.9729C130.442 34.7673 129.994 35.2791 129.515 35.5996C129.041 35.9164 128.446 36.1067 127.667 36.117L127.687 37.6168ZM132.174 34.6173L133.52 35.2789C134.652 32.9758 135.101 29.5614 135.044 25.2453L133.544 25.2651L132.044 25.2849C132.1 29.4925 131.635 32.3129 130.828 33.9557L132.174 34.6173ZM133.544 25.2651L135.044 25.2453C134.987 20.9292 134.448 17.5279 133.256 15.2554L131.928 15.9523L130.6 16.6492C131.45 18.2701 131.989 21.0773 132.044 25.2849L133.544 25.2651ZM131.928 15.9523L133.265 15.2723C132.673 14.1094 131.878 13.1556 130.844 12.5033C129.805 11.8476 128.617 11.5556 127.343 11.5724L127.363 13.0723L127.383 14.5722C128.161 14.5619 128.761 14.7364 129.244 15.0406C129.731 15.3483 130.192 15.8481 130.591 16.6323L131.928 15.9523ZM127.363 13.0723L127.343 11.5724C126.084 11.5891 124.917 11.9082 123.9 12.5774C122.888 13.2428 122.111 14.1975 121.533 15.3548L122.875 16.0251L124.217 16.6954C124.608 15.9109 125.064 15.4025 125.549 15.0836C126.028 14.7685 126.62 14.5822 127.383 14.5722L127.363 13.0723ZM122.875 16.0251L121.533 15.3548C120.394 17.6341 119.948 21.0729 120.005 25.4438L121.505 25.424L123.005 25.4042C122.949 21.127 123.415 18.2998 124.217 16.6954L122.875 16.0251ZM121.505 25.424L120.005 25.4438C120.063 29.8147 120.6 33.2405 121.799 35.489L123.122 34.7835L124.446 34.078C123.603 32.4953 123.062 29.6815 123.005 25.4042L121.505 25.424ZM123.122 34.7835L121.799 35.489C122.407 36.6307 123.21 37.5645 124.238 38.2029C125.273 38.8451 126.447 39.1333 127.707 39.1167L127.687 37.6168L127.667 36.117C126.904 36.127 126.307 35.9564 125.82 35.6541C125.327 35.3481 124.859 34.8519 124.446 34.078L123.122 34.7835ZM149.005 39.5756L147.811 40.4824L147.815 40.4887L147.82 40.4949L149.005 39.5756ZM148.623 10.5981L147.41 9.71583L147.408 9.71768L148.623 10.5981ZM170.414 10.3104L169.219 11.2172L169.224 11.2235L169.229 11.2297L170.414 10.3104ZM170.797 39.2879L169.584 38.4056L169.582 38.4075L170.797 39.2879ZM164.382 34.1921L163.036 33.5305L163.032 33.5391L163.028 33.5477L164.382 34.1921ZM164.136 15.5271L162.799 16.207L162.803 16.2155L162.808 16.224L164.136 15.5271ZM155.083 15.5999L156.425 16.2702L155.083 15.5999ZM155.33 34.3583L156.654 33.6528L155.33 34.3583ZM159.99 44.3777L159.97 42.8778C155.565 42.9359 152.386 41.4865 150.191 38.6562L149.005 39.5756L147.82 40.4949C150.689 44.1939 154.834 45.9459 160.01 45.8775L159.99 44.3777ZM149.005 39.5756L150.2 38.6688C147.971 35.7319 146.709 31.2788 146.627 25.0924L145.128 25.1122L143.628 25.132C143.714 31.6378 145.036 36.8269 147.811 40.4824L149.005 39.5756ZM145.128 25.1122L146.627 25.0924C146.546 18.9045 147.691 14.4393 149.837 11.4785L148.623 10.5981L147.408 9.71768C144.727 13.4168 143.542 18.6276 143.628 25.132L145.128 25.1122ZM148.623 10.5981L149.836 11.4804C151.957 8.56334 155.096 7.019 159.496 6.96091L159.476 5.46104L159.456 3.96117C154.275 4.02958 150.178 5.90994 147.41 9.71583L148.623 10.5981ZM159.476 5.46104L159.496 6.96091C163.896 6.90282 167.054 8.36375 169.219 11.2172L170.414 10.3104L171.609 9.4036C168.772 5.66475 164.637 3.89277 159.456 3.96117L159.476 5.46104ZM170.414 10.3104L169.229 11.2297C171.48 14.1314 172.757 18.5616 172.838 24.7463L174.338 24.7265L175.838 24.7067C175.752 18.1993 174.413 13.0187 171.6 9.39107L170.414 10.3104ZM174.338 24.7265L172.838 24.7463C172.92 30.9296 171.761 35.4116 169.584 38.4056L170.797 39.2879L172.01 40.1701C174.722 36.4412 175.924 31.2156 175.838 24.7067L174.338 24.7265ZM170.797 39.2879L169.582 38.4075C167.495 41.2873 164.376 42.8196 159.97 42.8778L159.99 44.3777L160.01 45.8775C165.185 45.8092 169.271 43.9483 172.011 40.1683L170.797 39.2879ZM159.895 37.1916L159.915 38.6915C161.189 38.6747 162.368 38.3515 163.39 37.6685C164.407 36.9891 165.176 36.0147 165.737 34.8366L164.382 34.1921L163.028 33.5477C162.65 34.3421 162.203 34.8539 161.723 35.1743C161.249 35.4912 160.654 35.6815 159.875 35.6917L159.895 37.1916ZM164.382 34.1921L165.729 34.8537C166.86 32.5506 167.309 29.1362 167.252 24.8201L165.752 24.8399L164.253 24.8597C164.308 29.0673 163.844 31.8877 163.036 33.5305L164.382 34.1921ZM165.752 24.8399L167.252 24.8201C167.195 20.504 166.657 17.1026 165.464 14.8302L164.136 15.5271L162.808 16.224C163.658 17.8449 164.197 20.6521 164.253 24.8597L165.752 24.8399ZM164.136 15.5271L165.473 14.8471C164.882 13.6842 164.086 12.7304 163.052 12.0781C162.013 11.4223 160.826 11.1304 159.551 11.1472L159.571 12.6471L159.591 14.147C160.369 14.1367 160.969 14.3112 161.452 14.6154C161.939 14.9231 162.4 15.4229 162.799 16.207L164.136 15.5271ZM159.571 12.6471L159.551 11.1472C158.292 11.1638 157.125 11.483 156.108 12.1522C155.097 12.8176 154.319 13.7723 153.741 14.9296L155.083 15.5999L156.425 16.2702C156.817 15.4857 157.272 14.9773 157.757 14.6584C158.236 14.3433 158.828 14.157 159.591 14.147L159.571 12.6471ZM155.083 15.5999L153.741 14.9296C152.602 17.2089 152.156 20.6477 152.214 25.0186L153.713 24.9988L155.213 24.979C155.157 20.7018 155.623 17.8746 156.425 16.2702L155.083 15.5999ZM153.713 24.9988L152.214 25.0186C152.271 29.3895 152.808 32.8153 154.007 35.0638L155.33 34.3583L156.654 33.6528C155.811 32.0701 155.27 29.2563 155.213 24.979L153.713 24.9988ZM155.33 34.3583L154.007 35.0638C154.615 36.2054 155.418 37.1393 156.446 37.7777C157.481 38.4198 158.656 38.7081 159.915 38.6915L159.895 37.1916L159.875 35.6917C159.112 35.7018 158.515 35.5312 158.028 35.2289C157.535 34.9229 157.067 34.4267 156.654 33.6528L155.33 34.3583ZM181.214 39.1504L180.019 40.0572L180.023 40.0635L180.028 40.0697L181.214 39.1504ZM180.831 10.1729L179.618 9.29062L179.617 9.29247L180.831 10.1729ZM202.622 9.88519L201.428 10.792L201.432 10.7983L201.437 10.8045L202.622 9.88519ZM203.005 38.8627L201.792 37.9804L201.791 37.9823L203.005 38.8627ZM196.591 33.7669L195.244 33.1053L195.24 33.1139L195.236 33.1225L196.591 33.7669ZM196.344 15.1019L195.007 15.7818L195.011 15.7903L195.016 15.7988L196.344 15.1019ZM187.291 15.1747L188.633 15.845L187.291 15.1747ZM187.539 33.9331L188.862 33.2276L187.539 33.9331ZM192.198 43.9524L192.178 42.4526C187.773 42.5107 184.594 41.0613 182.399 38.231L181.214 39.1504L180.028 40.0697C182.897 43.7687 187.042 45.5206 192.218 45.4523L192.198 43.9524ZM181.214 39.1504L182.408 38.2436C180.18 35.3067 178.917 30.8536 178.836 24.6672L177.336 24.687L175.836 24.7068C175.922 31.2126 177.245 36.4017 180.019 40.0572L181.214 39.1504ZM177.336 24.687L178.836 24.6672C178.754 18.4793 179.899 14.014 182.045 11.0533L180.831 10.1729L179.617 9.29247C176.935 12.9916 175.75 18.2024 175.836 24.7068L177.336 24.687ZM180.831 10.1729L182.044 11.0551C184.166 8.13813 187.304 6.59379 191.704 6.5357L191.684 5.03583L191.664 3.53596C186.483 3.60437 182.386 5.48473 179.618 9.29062L180.831 10.1729ZM191.684 5.03583L191.704 6.5357C196.104 6.47761 199.262 7.93854 201.428 10.792L202.622 9.88519L203.817 8.97839C200.98 5.23954 196.845 3.46756 191.664 3.53596L191.684 5.03583ZM202.622 9.88519L201.437 10.8045C203.688 13.7062 204.965 18.1364 205.047 24.3211L206.546 24.3013L208.046 24.2815C207.96 17.774 206.621 12.5935 203.808 8.96586L202.622 9.88519ZM206.546 24.3013L205.047 24.3211C205.128 30.5044 203.969 34.9864 201.792 37.9804L203.005 38.8627L204.218 39.7449C206.93 36.016 208.132 30.7904 208.046 24.2815L206.546 24.3013ZM203.005 38.8627L201.791 37.9823C199.703 40.8621 196.584 42.3944 192.178 42.4526L192.198 43.9524L192.218 45.4523C197.393 45.384 201.479 43.5231 204.219 39.7431L203.005 38.8627ZM192.103 36.7664L192.123 38.2663C193.397 38.2494 194.577 37.9262 195.598 37.2433C196.615 36.5639 197.385 35.5895 197.945 34.4113L196.591 33.7669L195.236 33.1225C194.858 33.9169 194.411 34.4287 193.931 34.7491C193.457 35.066 192.862 35.2563 192.083 35.2665L192.103 36.7664ZM196.591 33.7669L197.937 34.4285C199.069 32.1253 199.517 28.7109 199.46 24.3949L197.961 24.4147L196.461 24.4345C196.516 28.6421 196.052 31.4625 195.244 33.1053L196.591 33.7669ZM197.961 24.4147L199.46 24.3949C199.403 20.0788 198.865 16.6774 197.672 14.405L196.344 15.1019L195.016 15.7988C195.866 17.4197 196.405 20.2268 196.461 24.4345L197.961 24.4147ZM196.344 15.1019L197.681 14.4219C197.09 13.2589 196.294 12.3052 195.261 11.6529C194.221 10.9971 193.034 10.7052 191.759 10.722L191.779 12.2219L191.799 13.7217C192.578 13.7115 193.178 13.8859 193.66 14.1902C194.148 14.4979 194.608 14.9977 195.007 15.7818L196.344 15.1019ZM191.779 12.2219L191.759 10.722C190.5 10.7386 189.333 11.0578 188.316 11.727C187.305 12.3924 186.527 13.3471 185.949 14.5044L187.291 15.1747L188.633 15.845C189.025 15.0605 189.48 14.5521 189.965 14.2332C190.444 13.9181 191.036 13.7318 191.799 13.7217L191.779 12.2219ZM187.291 15.1747L185.949 14.5044C184.81 16.7837 184.364 20.2225 184.422 24.5934L185.922 24.5736L187.421 24.5538C187.365 20.2765 187.831 17.4494 188.633 15.845L187.291 15.1747ZM185.922 24.5736L184.422 24.5934C184.479 28.9643 185.017 32.3901 186.215 34.6386L187.539 33.9331L188.862 33.2276C188.019 31.6449 187.478 28.8311 187.421 24.5538L185.922 24.5736ZM187.539 33.9331L186.215 34.6386C186.823 35.7802 187.626 36.7141 188.654 37.3525C189.689 37.9946 190.864 38.2829 192.123 38.2663L192.103 36.7664L192.083 35.2665C191.32 35.2766 190.724 35.106 190.236 34.8037C189.744 34.4977 189.275 34.0015 188.862 33.2276L187.539 33.9331ZM224.309 42.9685L222.809 42.9883L222.829 44.4881L224.329 44.4683L224.309 42.9685ZM223.939 14.9709L223.92 13.471L222.42 13.4908L222.44 14.9907L223.939 14.9709ZM232.525 14.8576L234.025 14.8377L234.005 13.3379L232.505 13.3577L232.525 14.8576ZM232.895 42.8551L232.915 44.355L234.415 44.3352L234.395 42.8353L232.895 42.8551ZM224.917 11.2243L223.87 12.2989L223.87 12.2989L224.917 11.2243ZM224.83 4.69158L225.905 5.73814L225.905 5.73814L224.83 4.69158ZM231.363 4.60533L230.317 5.6799L230.317 5.6799L231.363 4.60533ZM231.449 11.1381L232.524 12.1847L232.524 12.1847L231.449 11.1381ZM224.309 42.9685L225.809 42.9487L225.439 14.9511L223.939 14.9709L222.44 14.9907L222.809 42.9883L224.309 42.9685ZM223.939 14.9709L223.959 16.4708L232.545 16.3574L232.525 14.8576L232.505 13.3577L223.92 13.471L223.939 14.9709ZM232.525 14.8576L231.025 14.8774L231.395 42.8749L232.895 42.8551L234.395 42.8353L234.025 14.8377L232.525 14.8576ZM232.895 42.8551L232.875 41.3552L224.289 41.4686L224.309 42.9685L224.329 44.4683L232.915 44.355L232.895 42.8551ZM228.201 12.5344L228.181 11.0346C227.304 11.0461 226.592 10.7625 225.963 10.1498L224.917 11.2243L223.87 12.2989C225.069 13.4666 226.547 14.0564 228.221 14.0343L228.201 12.5344ZM224.917 11.2243L225.963 10.1498C225.334 9.53701 225.032 8.83354 225.02 7.95602L223.52 7.97582L222.02 7.99563C222.043 9.66899 222.671 11.1312 223.87 12.2989L224.917 11.2243ZM223.52 7.97582L225.02 7.95602C225.009 7.0785 225.292 6.3673 225.905 5.73814L224.83 4.69158L223.756 3.64501C222.588 4.84396 221.998 6.32226 222.02 7.99563L223.52 7.97582ZM224.83 4.69158L225.905 5.73814C226.518 5.10898 227.221 4.80669 228.099 4.79511L228.079 3.29524L228.059 1.79537C226.386 1.81746 224.924 2.44606 223.756 3.64501L224.83 4.69158ZM228.079 3.29524L228.099 4.79511C228.976 4.78352 229.687 5.06714 230.317 5.6799L231.363 4.60533L232.41 3.53076C231.211 2.36305 229.732 1.77328 228.059 1.79537L228.079 3.29524ZM231.363 4.60533L230.317 5.6799C230.946 6.29266 231.248 6.99613 231.26 7.87365L232.76 7.85385L234.259 7.83405C234.237 6.16068 233.609 4.69847 232.41 3.53076L231.363 4.60533ZM232.76 7.85385L231.26 7.87365C231.271 8.75117 230.988 9.46237 230.375 10.0915L231.449 11.1381L232.524 12.1847C233.692 10.9857 234.281 9.50741 234.259 7.83405L232.76 7.85385ZM231.449 11.1381L230.375 10.0915C229.762 10.7207 229.059 11.023 228.181 11.0346L228.201 12.5344L228.221 14.0343C229.894 14.0122 231.356 13.3836 232.524 12.1847L231.449 11.1381ZM240.993 42.7482L239.493 42.768L239.513 44.2679L241.013 44.2481L240.993 42.7482ZM240.734 23.1499L242.234 23.1301L242.214 21.6302L240.715 21.65L240.734 23.1499ZM236.535 23.2053L235.035 23.2252L235.055 24.725L236.554 24.7052L236.535 23.2053ZM236.424 14.8061L236.404 13.3062L234.904 13.326L234.924 14.8259L236.424 14.8061ZM245.01 14.6927L246.51 14.6729L246.49 13.1731L244.99 13.1929L245.01 14.6927ZM245.071 19.359L243.571 19.3788L243.591 20.8787L245.091 20.8589L245.071 19.359ZM247.031 19.3331L247.051 20.833L247.837 20.8226L248.276 20.1706L247.031 19.3331ZM251.088 15.4992L251.835 16.7995L251.844 16.7948L251.088 15.4992ZM266.557 17.1152L265.503 18.1821L265.51 18.1897L266.557 17.1152ZM270.111 42.3638L270.13 43.8637L271.63 43.8439L271.61 42.344L270.111 42.3638ZM261.525 42.4771L260.025 42.4969L260.045 43.9968L261.544 43.977L261.525 42.4771ZM259.729 23.1325L258.683 24.2071L258.691 24.2151L258.699 24.223L259.729 23.1325ZM250.817 23.2502L249.758 22.1872L249.75 22.1953L249.742 22.2036L250.817 23.2502ZM249.579 42.6348L249.599 44.1347L251.099 44.1149L251.079 42.615L249.579 42.6348ZM240.993 42.7482L242.493 42.7284L242.234 23.1301L240.734 23.1499L239.234 23.1697L239.493 42.768L240.993 42.7482ZM240.734 23.1499L240.715 21.65L236.515 21.7055L236.535 23.2053L236.554 24.7052L240.754 24.6498L240.734 23.1499ZM236.535 23.2053L238.035 23.1855L237.924 14.7863L236.424 14.8061L234.924 14.8259L235.035 23.2252L236.535 23.2053ZM236.424 14.8061L236.444 16.306L245.03 16.1926L245.01 14.6927L244.99 13.1929L236.404 13.3062L236.424 14.8061ZM245.01 14.6927L243.51 14.7125L243.571 19.3788L245.071 19.359L246.571 19.3392L246.51 14.6729L245.01 14.6927ZM245.071 19.359L245.091 20.8589L247.051 20.833L247.031 19.3331L247.011 17.8332L245.052 17.8591L245.071 19.359ZM247.031 19.3331L248.276 20.1706C249.254 18.7162 250.441 17.6017 251.835 16.7995L251.088 15.4992L250.34 14.1989C248.523 15.2438 247.005 16.6852 245.787 18.4957L247.031 19.3331ZM251.088 15.4992L251.844 16.7948C253.192 16.0078 255.01 15.5475 257.388 15.5161L257.369 14.0162L257.349 12.5163C254.625 12.5523 252.256 13.0806 250.331 14.2037L251.088 15.4992ZM257.369 14.0162L257.388 15.5161C261.103 15.467 263.727 16.4279 265.503 18.1821L266.557 17.1152L267.611 16.0483C265.099 13.5654 261.598 12.4602 257.349 12.5163L257.369 14.0162ZM266.557 17.1152L265.51 18.1897C267.347 19.9787 268.347 22.4337 268.391 25.725L269.891 25.7052L271.39 25.6854C271.339 21.7597 270.116 18.4879 267.603 16.0406L266.557 17.1152ZM269.891 25.7052L268.391 25.725L268.611 42.3836L270.111 42.3638L271.61 42.344L271.39 25.6854L269.891 25.7052ZM270.111 42.3638L270.091 40.8639L261.505 40.9773L261.525 42.4771L261.544 43.977L270.13 43.8637L270.111 42.3638ZM261.525 42.4771L263.024 42.4573L262.827 27.4786L261.327 27.4984L259.827 27.5182L260.025 42.4969L261.525 42.4771ZM261.327 27.4984L262.827 27.4786C262.798 25.2905 262.185 23.3891 260.759 22.0419L259.729 23.1325L258.699 24.223C259.352 24.8397 259.805 25.849 259.827 27.5182L261.327 27.4984ZM259.729 23.1325L260.776 22.0579C259.386 20.7041 257.456 20.1689 255.257 20.1979L255.276 21.6978L255.296 23.1977C257.017 23.175 258.055 23.5962 258.683 24.2071L259.729 23.1325ZM255.276 21.6978L255.257 20.1979C253.054 20.227 251.137 20.8144 249.758 22.1872L250.817 23.2502L251.875 24.3131C252.523 23.6679 253.579 23.2203 255.296 23.1977L255.276 21.6978ZM250.817 23.2502L249.742 22.2036C248.392 23.5895 247.853 25.5 247.881 27.676L249.381 27.6562L250.881 27.6363C250.859 25.9548 251.276 24.9281 251.891 24.2967L250.817 23.2502ZM249.381 27.6562L247.881 27.676L248.079 42.6546L249.579 42.6348L251.079 42.615L250.881 27.6363L249.381 27.6562ZM249.579 42.6348L249.559 41.135L240.973 41.2483L240.993 42.7482L241.013 44.2481L249.599 44.1347L249.579 42.6348ZM289.519 42.1076L288.019 42.1274L288.038 43.6272L289.538 43.6074L289.519 42.1076ZM289.02 4.31086L289 2.81099L287.5 2.83079L287.52 4.33066L289.02 4.31086ZM317.387 7.2033L316.393 8.32647L316.401 8.33352L317.387 7.2033ZM317.622 25.0284L316.599 23.9319L317.622 25.0284ZM298.114 28.5529L298.094 27.0531L296.594 27.0729L296.614 28.5727L298.114 28.5529ZM298.291 41.9917L298.311 43.4916L299.811 43.4718L299.791 41.9719L298.291 41.9917ZM298.013 20.9003L296.513 20.9201L296.533 22.4199L298.032 22.4001L298.013 20.9003ZM310.969 19.5624L311.964 20.6855L311.967 20.6829L310.969 19.5624ZM310.881 12.843L309.916 13.992L309.926 14L309.936 14.0079L310.881 12.843ZM297.893 11.8477L297.873 10.3478L296.373 10.3676L296.393 11.8675L297.893 11.8477ZM289.519 42.1076L291.018 42.0878L290.519 4.29106L289.02 4.31086L287.52 4.33066L288.019 42.1274L289.519 42.1076ZM289.02 4.31086L289.039 5.81073L307.378 5.56862L307.358 4.06875L307.338 2.56889L289 2.81099L289.02 4.31086ZM307.358 4.06875L307.378 5.56862C311.387 5.51569 314.327 6.49767 316.393 8.32644L317.387 7.2033L318.381 6.08017C315.599 3.61701 311.852 2.50929 307.338 2.56889L307.358 4.06875ZM317.387 7.2033L316.401 8.33352C318.445 10.1172 319.552 12.6353 319.598 16.0882L321.098 16.0684L322.597 16.0486C322.543 11.9111 321.176 8.51914 318.373 6.07308L317.387 7.2033ZM321.098 16.0684L319.598 16.0882C319.643 19.5053 318.605 22.0589 316.599 23.9319L317.622 25.0284L318.646 26.1249C321.372 23.5795 322.652 20.1598 322.597 16.0486L321.098 16.0684ZM317.622 25.0284L316.599 23.9319C314.582 25.8146 311.669 26.8738 307.66 26.9268L307.68 28.4266L307.699 29.9265C312.213 29.8669 315.929 28.6607 318.646 26.1249L317.622 25.0284ZM307.68 28.4266L307.66 26.9268L298.094 27.0531L298.114 28.5529L298.133 30.0528L307.699 29.9265L307.68 28.4266ZM298.114 28.5529L296.614 28.5727L296.791 42.0116L298.291 41.9917L299.791 41.9719L299.614 28.5331L298.114 28.5529ZM298.291 41.9917L298.271 40.4919L289.499 40.6077L289.519 42.1076L289.538 43.6074L298.311 43.4916L298.291 41.9917ZM298.013 20.9003L298.032 22.4001L307.038 22.2812L307.019 20.7814L306.999 19.2815L297.993 19.4004L298.013 20.9003ZM307.019 20.7814L307.038 22.2812C308.977 22.2556 310.702 21.8027 311.964 20.6855L310.969 19.5624L309.975 18.4393C309.453 18.9014 308.544 19.2611 306.999 19.2815L307.019 20.7814ZM310.969 19.5624L311.967 20.6829C313.267 19.5253 313.848 17.9539 313.825 16.1644L312.325 16.1842L310.825 16.204C310.839 17.2765 310.517 17.9573 309.972 18.442L310.969 19.5624ZM312.325 16.1842L313.825 16.1644C313.801 14.3571 313.186 12.7813 311.826 11.6781L310.881 12.843L309.936 14.0079C310.463 14.4355 310.81 15.0872 310.825 16.204L312.325 16.1842ZM310.881 12.843L311.845 11.6941C310.554 10.6106 308.818 10.2033 306.879 10.2289L306.899 11.7288L306.919 13.2287C308.464 13.2083 309.382 13.5438 309.916 13.992L310.881 12.843ZM306.899 11.7288L306.879 10.2289L297.873 10.3478L297.893 11.8477L297.913 13.3476L306.919 13.2287L306.899 11.7288ZM297.893 11.8477L296.393 11.8675L296.513 20.9201L298.013 20.9003L299.512 20.8805L299.393 11.8279L297.893 11.8477ZM328.148 41.5976L326.648 41.6174L326.668 43.1173L328.168 43.0975L328.148 41.5976ZM327.889 21.9993L329.389 21.9795L329.369 20.4796L327.869 20.4994L327.889 21.9993ZM323.689 22.0547L322.19 22.0745L322.209 23.5744L323.709 23.5546L323.689 22.0547ZM323.579 13.6555L323.559 12.1556L322.059 12.1754L322.079 13.6753L323.579 13.6555ZM332.165 13.5421L333.664 13.5223L333.645 12.0224L332.145 12.0422L332.165 13.5421ZM332.238 19.1416L330.739 19.1614L330.758 20.6613L332.258 20.6415L332.238 19.1416ZM334.198 19.1158L334.218 20.6156L335.278 20.6016L335.619 19.5974L334.198 19.1158ZM337.639 14.5899L338.424 15.8681L338.433 15.8626L338.442 15.8569L337.639 14.5899ZM345.412 12.9939L346.912 12.9741L346.892 11.4742L345.392 11.494L345.412 12.9939ZM345.51 20.4599L345.53 21.9597L347.03 21.9399L347.01 20.4401L345.51 20.4599ZM337.79 22.4753L336.609 21.5503L336.602 21.5591L336.595 21.5681L337.79 22.4753ZM336.547 41.4867L336.567 42.9866L338.067 42.9668L338.047 41.4669L336.547 41.4867ZM328.148 41.5976L329.648 41.5778L329.389 21.9795L327.889 21.9993L326.389 22.0191L326.648 41.6174L328.148 41.5976ZM327.889 21.9993L327.869 20.4994L323.67 20.5549L323.689 22.0547L323.709 23.5546L327.909 23.4992L327.889 21.9993ZM323.689 22.0547L325.189 22.0349L325.078 13.6357L323.579 13.6555L322.079 13.6753L322.19 22.0745L323.689 22.0547ZM323.579 13.6555L323.598 15.1553L332.184 15.042L332.165 13.5421L332.145 12.0422L323.559 12.1556L323.579 13.6555ZM332.165 13.5421L330.665 13.5619L330.739 19.1614L332.238 19.1416L333.738 19.1218L333.664 13.5223L332.165 13.5421ZM332.238 19.1416L332.258 20.6415L334.218 20.6156L334.198 19.1158L334.178 17.6159L332.219 17.6418L332.238 19.1416ZM334.198 19.1158L335.619 19.5974C336.212 17.8487 337.158 16.6454 338.424 15.8681L337.639 14.5899L336.854 13.3118C334.909 14.5059 333.562 16.3198 332.778 18.6341L334.198 19.1158ZM337.639 14.5899L338.442 15.8569C339.8 14.996 341.324 14.5479 343.052 14.5251L343.032 13.0253L343.012 11.5254C340.758 11.5552 338.686 12.1502 336.836 13.3229L337.639 14.5899ZM343.032 13.0253L343.052 14.5251L345.432 14.4937L345.412 12.9939L345.392 11.494L343.012 11.5254L343.032 13.0253ZM345.412 12.9939L343.912 13.0137L344.01 20.4797L345.51 20.4599L347.01 20.4401L346.912 12.9741L345.412 12.9939ZM345.51 20.4599L345.491 18.96L342.737 18.9964L342.757 20.4962L342.777 21.9961L345.53 21.9597L345.51 20.4599ZM342.757 20.4962L342.737 18.9964C340.175 19.0302 337.999 19.7751 336.609 21.5503L337.79 22.4753L338.97 23.4003C339.599 22.5975 340.735 22.023 342.777 21.9961L342.757 20.4962ZM337.79 22.4753L336.595 21.5681C335.365 23.1876 334.832 25.2115 334.862 27.5077L336.362 27.4879L337.862 27.4681C337.838 25.6581 338.257 24.3402 338.984 23.3825L337.79 22.4753ZM336.362 27.4879L334.862 27.5077L335.047 41.5065L336.547 41.4867L338.047 41.4669L337.862 27.4681L336.362 27.4879ZM336.547 41.4867L336.527 39.9868L328.128 40.0977L328.148 41.5976L328.168 43.0975L336.567 42.9866L336.547 41.4867ZM349.861 41.3109L348.361 41.3307L348.38 42.8306L349.88 42.8108L349.861 41.3109ZM349.491 13.3134L349.471 11.8135L347.971 11.8333L347.991 13.3332L349.491 13.3134ZM358.077 13.2L359.577 13.1802L359.557 11.6803L358.057 11.7001L358.077 13.2ZM358.446 41.1976L358.466 42.6974L359.966 42.6776L359.946 41.1778L358.446 41.1976ZM350.468 9.56681L349.422 10.6414L349.422 10.6414L350.468 9.56681ZM350.382 3.03404L351.457 4.08061L351.457 4.08061L350.382 3.03404ZM356.915 2.9478L355.868 4.02237L355.868 4.02237L356.915 2.9478ZM357.001 9.48056L358.076 10.5271L358.076 10.5271L357.001 9.48056ZM349.861 41.3109L351.36 41.2911L350.991 13.2936L349.491 13.3134L347.991 13.3332L348.361 41.3307L349.861 41.3109ZM349.491 13.3134L349.511 14.8132L358.097 14.6999L358.077 13.2L358.057 11.7001L349.471 11.8135L349.491 13.3134ZM358.077 13.2L356.577 13.2198L356.947 41.2174L358.446 41.1976L359.946 41.1778L359.577 13.1802L358.077 13.2ZM358.446 41.1976L358.427 39.6977L349.841 39.8111L349.861 41.3109L349.88 42.8108L358.466 42.6974L358.446 41.1976ZM353.752 10.8769L353.733 9.37703C352.855 9.38862 352.144 9.105 351.515 8.49224L350.468 9.56681L349.422 10.6414C350.621 11.8091 352.099 12.3989 353.772 12.3768L353.752 10.8769ZM350.468 9.56681L351.515 8.49224C350.886 7.87948 350.583 7.17601 350.572 6.29849L349.072 6.31829L347.572 6.33809C347.594 8.01146 348.223 9.47367 349.422 10.6414L350.468 9.56681ZM349.072 6.31829L350.572 6.29849C350.56 5.42097 350.844 4.70977 351.457 4.08061L350.382 3.03404L349.307 1.98748C348.14 3.18643 347.55 4.66472 347.572 6.33809L349.072 6.31829ZM350.382 3.03404L351.457 4.08061C352.069 3.45145 352.773 3.14916 353.65 3.13757L353.63 1.6377L353.611 0.137835C351.937 0.159927 350.475 0.788526 349.307 1.98748L350.382 3.03404ZM353.63 1.6377L353.65 3.13757C354.528 3.12599 355.239 3.40961 355.868 4.02237L356.915 2.9478L357.961 1.87323C356.762 0.705522 355.284 0.115743 353.611 0.137835L353.63 1.6377ZM356.915 2.9478L355.868 4.02237C356.497 4.63513 356.8 5.33859 356.811 6.21612L358.311 6.19632L359.811 6.17651C359.789 4.50315 359.16 3.04094 357.961 1.87323L356.915 2.9478ZM358.311 6.19632L356.811 6.21612C356.823 7.09364 356.539 7.80484 355.926 8.434L357.001 9.48056L358.076 10.5271C359.243 9.32818 359.833 7.84988 359.811 6.17651L358.311 6.19632ZM357.001 9.48056L355.926 8.434C355.314 9.06315 354.61 9.36545 353.733 9.37703L353.752 10.8769L353.772 12.3768C355.446 12.3547 356.908 11.7261 358.076 10.5271L357.001 9.48056ZM362.625 41.1424L361.125 41.1622L361.145 42.6621L362.645 42.6423L362.625 41.1424ZM362.558 36.1029L361.406 35.1429L361.051 35.5686L361.059 36.1227L362.558 36.1029ZM376.157 19.7752L377.31 20.7352L379.395 18.2324L376.138 18.2754L376.157 19.7752ZM363.185 19.9465L361.685 19.9663L361.705 21.4662L363.205 21.4464L363.185 19.9465ZM363.095 13.1338L363.075 11.6339L361.576 11.6537L361.595 13.1536L363.095 13.1338ZM387.08 12.8171L388.58 12.7973L388.56 11.2974L387.06 11.3173L387.08 12.8171ZM387.146 17.8567L388.299 18.8167L388.654 18.3909L388.646 17.8369L387.146 17.8567ZM373.547 34.1843L372.395 33.2243L370.31 35.7272L373.567 35.6842L373.547 34.1843ZM387.64 33.9982L389.139 33.9784L389.12 32.4786L387.62 32.4984L387.64 33.9982ZM387.729 40.811L387.749 42.3109L389.249 42.2911L389.229 40.7912L387.729 40.811ZM362.625 41.1424L364.125 41.1226L364.058 36.0831L362.558 36.1029L361.059 36.1227L361.125 41.1622L362.625 41.1424ZM362.558 36.1029L363.711 37.0628L377.31 20.7352L376.157 19.7752L375.005 18.8153L361.406 35.1429L362.558 36.1029ZM376.157 19.7752L376.138 18.2754L363.165 18.4466L363.185 19.9465L363.205 21.4464L376.177 21.2751L376.157 19.7752ZM363.185 19.9465L364.685 19.9267L364.595 13.114L363.095 13.1338L361.595 13.1536L361.685 19.9663L363.185 19.9465ZM363.095 13.1338L363.115 14.6336L387.1 14.317L387.08 12.8171L387.06 11.3173L363.075 11.6339L363.095 13.1338ZM387.08 12.8171L385.58 12.8369L385.647 17.8765L387.146 17.8567L388.646 17.8369L388.58 12.7973L387.08 12.8171ZM387.146 17.8567L385.994 16.8967L372.395 33.2243L373.547 34.1843L374.7 35.1443L388.299 18.8167L387.146 17.8567ZM373.547 34.1843L373.567 35.6842L387.659 35.4981L387.64 33.9982L387.62 32.4984L373.528 32.6844L373.547 34.1843ZM387.64 33.9982L386.14 34.018L386.23 40.8308L387.729 40.811L389.229 40.7912L389.139 33.9784L387.64 33.9982ZM387.729 40.811L387.71 39.3111L362.605 39.6425L362.625 41.1424L362.645 42.6423L387.749 42.3109L387.729 40.811ZM396.371 39.4835L395.681 40.8157L395.689 40.8194L395.696 40.823L396.371 39.4835ZM391.031 34.4669L389.726 35.2063L389.732 35.2173L389.738 35.2282L391.031 34.4669ZM390.78 18.9755L389.46 18.2628L389.456 18.2693L390.78 18.9755ZM395.847 13.9148L396.557 15.2358L396.564 15.232L395.847 13.9148ZM411.431 13.6624L410.74 14.9936L410.747 14.9975L410.755 15.0013L411.431 13.6624ZM416.395 18.4506L415.079 19.1699L415.083 19.1774L415.087 19.1849L416.395 18.4506ZM418.258 28.7869L418.278 30.2868L419.778 30.267L419.758 28.7671L418.258 28.7869ZM397.4 29.0623L397.38 27.5624L395.569 27.5863L395.93 29.3612L397.4 29.0623ZM399.694 33.139L398.765 34.3165L398.774 34.3242L398.784 34.3317L399.694 33.139ZM407.822 33.6851L408.568 34.9866L408.575 34.9821L408.583 34.9776L407.822 33.6851ZM409.658 31.3274L409.638 29.8275L408.577 29.8415L408.237 30.8468L409.658 31.3274ZM418.244 31.214L419.72 31.48L420.042 29.6901L418.224 29.7141L418.244 31.214ZM413.765 38.4604L414.639 39.6801L414.649 39.6726L413.765 38.4604ZM397.466 23.4609L396.011 23.0955L395.536 24.9865L397.486 24.9608L397.466 23.4609ZM409.972 23.2958L409.991 24.7957L411.785 24.772L411.444 23.0106L409.972 23.2958ZM407.966 19.8687L407.058 21.0628L407.079 21.0784L407.1 21.0933L407.966 19.8687ZM404.42 41.1507L404.4 39.6508C401.513 39.6889 399.077 39.1676 397.046 38.1439L396.371 39.4835L395.696 40.823C398.237 42.1036 401.168 42.6938 404.44 42.6506L404.42 41.1507ZM396.371 39.4835L397.06 38.1512C395.017 37.0941 393.449 35.6167 392.323 33.7055L391.031 34.4669L389.738 35.2282C391.159 37.6393 393.151 39.5063 395.681 40.8157L396.371 39.4835ZM391.031 34.4669L392.336 33.7274C391.239 31.7918 390.645 29.4591 390.608 26.6784L389.108 26.6982L387.608 26.718C387.65 29.9101 388.338 32.7566 389.726 35.2063L391.031 34.4669ZM389.108 26.6982L390.608 26.6784C390.571 23.8901 391.092 21.5766 392.103 19.6817L390.78 18.9755L389.456 18.2693C388.16 20.6985 387.566 23.5335 387.608 26.718L389.108 26.6982ZM390.78 18.9755L392.099 19.6882C393.145 17.7522 394.622 16.2769 396.557 15.2358L395.847 13.9148L395.136 12.5939C392.684 13.9131 390.783 15.8115 389.46 18.2628L390.78 18.9755ZM395.847 13.9148L396.564 15.232C398.537 14.1575 400.909 13.5746 403.729 13.5374L403.709 12.0375L403.689 10.5377C400.474 10.5801 397.605 11.2488 395.129 12.5976L395.847 13.9148ZM403.709 12.0375L403.729 13.5374C406.523 13.5005 408.842 14.0079 410.74 14.9936L411.431 13.6624L412.123 12.3312C409.697 11.0715 406.868 10.4957 403.689 10.5377L403.709 12.0375ZM411.431 13.6624L410.755 15.0013C412.648 15.9576 414.078 17.3392 415.079 19.1699L416.395 18.4506L417.711 17.7314C416.416 15.3609 414.537 13.5503 412.107 12.3235L411.431 13.6624ZM416.395 18.4506L415.087 19.1849C416.118 21.0223 416.685 23.2925 416.722 26.0536L418.222 26.0338L419.722 26.014C419.68 22.8646 419.029 20.0793 417.703 17.7164L416.395 18.4506ZM418.222 26.0338L416.722 26.0536L416.758 28.8067L418.258 28.7869L419.758 28.7671L419.722 26.014L418.222 26.0338ZM418.258 28.7869L418.238 27.2871L397.38 27.5624L397.4 29.0623L397.42 30.5622L418.278 30.2868L418.258 28.7869ZM397.4 29.0623L395.93 29.3612C396.349 31.4226 397.261 33.1299 398.765 34.3165L399.694 33.139L400.623 31.9615C399.8 31.312 399.183 30.3016 398.87 28.7634L397.4 29.0623ZM399.694 33.139L398.784 34.3317C400.284 35.4757 402.172 35.9599 404.305 35.9318L404.285 34.4319L404.265 32.932C402.602 32.954 401.43 32.5762 400.604 31.9463L399.694 33.139ZM404.285 34.4319L404.305 35.9318C405.949 35.91 407.419 35.6445 408.568 34.9866L407.822 33.6851L407.076 32.3836C406.557 32.6812 405.669 32.9135 404.265 32.932L404.285 34.4319ZM407.822 33.6851L408.583 34.9776C409.795 34.2638 410.618 33.1684 411.079 31.8079L409.658 31.3274L408.237 30.8468C407.978 31.6115 407.578 32.088 407.061 32.3927L407.822 33.6851ZM409.658 31.3274L409.677 32.8272L418.263 32.7139L418.244 31.214L418.224 29.7141L409.638 29.8275L409.658 31.3274ZM418.244 31.214L416.767 30.948C416.283 33.6375 414.994 35.7088 412.882 37.2482L413.765 38.4604L414.649 39.6726C417.406 37.663 419.103 34.9033 419.72 31.48L418.244 31.214ZM413.765 38.4604L412.892 37.2408C410.766 38.7633 407.971 39.6037 404.4 39.6508L404.42 41.1507L404.44 42.6506C408.46 42.5975 411.895 41.6443 414.639 39.68L413.765 38.4604ZM397.466 23.4609L397.486 24.9608L409.991 24.7957L409.972 23.2958L409.952 21.796L397.446 21.9611L397.466 23.4609ZM409.972 23.2958L411.444 23.0106C411.089 21.1771 410.257 19.6519 408.832 18.644L407.966 19.8687L407.1 21.0933C407.748 21.5516 408.253 22.3112 408.499 23.581L409.972 23.2958ZM407.966 19.8687L408.874 18.6746C407.517 17.6429 405.776 17.2307 403.825 17.2565L403.844 18.7563L403.864 20.2562C405.397 20.236 406.404 20.5653 407.058 21.0628L407.966 19.8687ZM403.844 18.7563L403.825 17.2565C401.888 17.282 400.165 17.7465 398.772 18.7694L399.66 19.9783L400.548 21.1873C401.312 20.626 402.379 20.2758 403.864 20.2562L403.844 18.7563ZM399.66 19.9783L398.772 18.7694C397.364 19.8037 396.465 21.2906 396.011 23.0955L397.466 23.4609L398.921 23.8264C399.236 22.572 399.799 21.7372 400.548 21.1873L399.66 19.9783ZM425.322 38.2145L424.445 39.4318L424.453 39.4372L425.322 38.2145ZM421.351 30.8463L421.331 29.3464L419.741 29.3674L419.855 30.9541L421.351 30.8463ZM429.61 30.7372L431.077 30.4237L430.82 29.2211L429.591 29.2374L429.61 30.7372ZM431.42 33.4669L430.634 34.7446L430.643 34.7504L430.653 34.7561L431.42 33.4669ZM439.083 30.6588L438.081 31.7744L438.125 31.8142L438.172 31.8505L439.083 30.6588ZM437.019 29.846L436.753 31.3222L436.754 31.3223L437.019 29.846ZM430.75 28.7153L430.482 30.1911L430.484 30.1915L430.75 28.7153ZM425.285 14.2262L426.188 15.4246L426.198 15.4163L425.285 14.2262ZM447.358 21.0755L447.377 22.5753L448.972 22.5543L448.854 20.964L447.358 21.0755ZM439.098 21.1845L437.65 21.5762L437.954 22.6997L439.118 22.6844L439.098 21.1845ZM437.384 18.5936L436.524 19.8223L436.551 19.8417L436.58 19.8597L437.384 18.5936ZM431.034 18.3507L430.345 17.018L430.333 17.0245L430.32 17.0313L431.034 18.3507ZM432.527 21.878L432.796 20.4022L432.791 20.4013L432.527 21.878ZM438.983 23.0528L439.255 21.5777L439.252 21.5771L438.983 23.0528ZM444.596 38.1467L443.675 36.9629L443.667 36.9693L444.596 38.1467ZM435.296 40.7431L435.276 39.2432C431.272 39.2961 428.296 38.4883 426.191 36.9918L425.322 38.2145L424.453 39.4372C427.247 41.423 430.921 42.3009 435.316 42.2429L435.296 40.7431ZM425.322 38.2145L426.198 36.9972C424.167 35.5345 423.046 33.4994 422.847 30.7384L421.351 30.8463L419.855 30.9541C420.113 34.5344 421.639 37.4114 424.446 39.4318L425.322 38.2145ZM421.351 30.8463L421.371 32.3462L429.63 32.2371L429.61 30.7372L429.591 29.2374L421.331 29.3464L421.351 30.8463ZM429.61 30.7372L428.143 31.0508C428.481 32.6276 429.291 33.9185 430.634 34.7446L431.42 33.4669L432.206 32.1892C431.667 31.8578 431.271 31.3289 431.077 30.4237L429.61 30.7372ZM431.42 33.4669L430.653 34.7561C431.965 35.5366 433.673 35.8241 435.604 35.7986L435.585 34.2987L435.565 32.7988C433.888 32.821 432.819 32.5539 432.187 32.1778L431.42 33.4669ZM435.585 34.2987L435.604 35.7986C437.086 35.779 438.424 35.5761 439.439 35.0292C439.968 34.7439 440.444 34.3458 440.78 33.8034C441.12 33.2546 441.263 32.6453 441.255 32.0303L439.755 32.0501L438.255 32.0699C438.257 32.186 438.233 32.2187 438.23 32.2228C438.224 32.2332 438.181 32.299 438.015 32.3885C437.639 32.5911 436.883 32.7814 435.565 32.7988L435.585 34.2987ZM439.755 32.0501L441.255 32.0303C441.242 31.0147 440.828 30.1042 439.995 29.4672L439.083 30.6588L438.172 31.8505C438.22 31.8869 438.229 31.9069 438.231 31.9112C438.234 31.9185 438.254 31.9612 438.255 32.0699L439.755 32.0501ZM439.083 30.6588L440.086 29.5433C439.363 28.8935 438.34 28.5595 437.285 28.3697L437.019 29.846L436.754 31.3223C437.632 31.4804 437.985 31.6883 438.081 31.7744L439.083 30.6588ZM437.019 29.846L437.285 28.3698L431.017 27.2392L430.75 28.7153L430.484 30.1915L436.753 31.3222L437.019 29.846ZM430.75 28.7153L431.019 27.2396C428.3 26.7447 426.446 25.9033 425.283 24.8447C424.168 23.8296 423.581 22.52 423.558 20.7829L422.059 20.8027L420.559 20.8225C420.592 23.3162 421.481 25.4408 423.264 27.0632C424.998 28.6422 427.462 29.6416 430.482 30.1911L430.75 28.7153ZM422.059 20.8027L423.558 20.7829C423.529 18.5235 424.382 16.7838 426.188 15.4246L425.285 14.2262L424.383 13.0279C421.814 14.9622 420.516 17.6069 420.559 20.8225L422.059 20.8027ZM425.285 14.2262L426.198 15.4163C428.042 14.0016 430.724 13.181 434.418 13.1322L434.399 11.6324L434.379 10.1325C430.296 10.1864 426.902 11.0951 424.372 13.0362L425.285 14.2262ZM434.399 11.6324L434.418 13.1322C438.106 13.0836 440.825 13.8454 442.74 15.2426L443.624 14.0308L444.508 12.819C441.899 10.9156 438.468 10.0785 434.379 10.1325L434.399 11.6324ZM443.624 14.0308L442.74 15.2426C444.612 16.608 445.664 18.5343 445.862 21.1869L447.358 21.0755L448.854 20.964C448.597 17.5242 447.161 14.7541 444.508 12.819L443.624 14.0308ZM447.358 21.0755L447.338 19.5756L439.079 19.6846L439.098 21.1845L439.118 22.6844L447.377 22.5753L447.358 21.0755ZM439.098 21.1845L440.546 20.7928C440.151 19.3322 439.405 18.1002 438.188 17.3274L437.384 18.5936L436.58 19.8597C436.995 20.1232 437.391 20.6185 437.65 21.5762L439.098 21.1845ZM437.384 18.5936L438.244 17.3648C437.09 16.5564 435.567 16.2773 433.9 16.2994L433.92 17.7992L433.94 19.2991C435.321 19.2809 436.108 19.5314 436.524 19.8223L437.384 18.5936ZM433.92 17.7992L433.9 16.2994C432.552 16.3172 431.322 16.5132 430.345 17.018L431.034 18.3507L431.722 19.6834C432.105 19.4857 432.799 19.3142 433.94 19.2991L433.92 17.7992ZM431.034 18.3507L430.32 17.0313C429.814 17.305 429.355 17.6887 429.031 18.2135C428.703 18.7444 428.566 19.3326 428.574 19.9233L430.074 19.9035L431.574 19.8837C431.573 19.8324 431.579 19.8058 431.581 19.797C431.582 19.7946 431.582 19.793 431.583 19.792C431.583 19.7911 431.583 19.7906 431.583 19.7905C431.583 19.7904 431.583 19.7905 431.583 19.7906C431.583 19.7908 431.583 19.7908 431.583 19.7906C431.583 19.7903 431.585 19.7881 431.588 19.7838C431.592 19.7794 431.599 19.772 431.61 19.7619C431.633 19.7416 431.675 19.7092 431.747 19.6702L431.034 18.3507ZM430.074 19.9035L428.574 19.9233C428.587 20.8936 429.019 21.7164 429.744 22.3132L430.697 21.1554L431.651 19.9976C431.618 19.9705 431.599 19.9501 431.589 19.9381C431.585 19.9321 431.582 19.9278 431.58 19.9253C431.578 19.9228 431.578 19.9215 431.578 19.9213C431.577 19.9211 431.578 19.9212 431.578 19.9215C431.578 19.9217 431.577 19.9212 431.577 19.9197C431.576 19.917 431.574 19.906 431.574 19.8837L430.074 19.9035ZM430.697 21.1554L429.744 22.3132C430.432 22.8803 431.327 23.1873 432.263 23.3546L432.527 21.878L432.791 20.4013C432.105 20.2789 431.78 20.1042 431.651 19.9976L430.697 21.1554ZM432.527 21.878L432.258 23.3537L438.714 24.5286L438.983 23.0528L439.252 21.5771L432.796 20.4022L432.527 21.878ZM438.983 23.0528L438.711 24.528C441.572 25.0551 443.458 25.9141 444.579 26.9571L445.601 25.8591L446.623 24.761C444.908 23.1656 442.383 22.1539 439.255 21.5777L438.983 23.0528ZM445.601 25.8591L444.579 26.9571C445.644 27.9489 446.246 29.3258 446.272 31.264L447.772 31.2442L449.272 31.2244C449.237 28.6208 448.392 26.4076 446.623 24.761L445.601 25.8591ZM447.772 31.2442L446.272 31.264C446.305 33.757 445.431 35.5967 443.675 36.9629L444.596 38.1467L445.517 39.3306C448.073 37.3417 449.316 34.5798 449.272 31.2244L447.772 31.2442ZM444.596 38.1467L443.667 36.9693C441.903 38.3612 439.18 39.1917 435.276 39.2432L435.296 40.7431L435.316 42.2429C439.563 42.1869 443.039 41.2865 445.525 39.3241L444.596 38.1467Z" fill="#0008FF" mask="url(#path-1-outside-1_1438_2084)"/>
<defs>
<filter id="filter0_i_1438_2084" x="0.416992" y="0.136719" width="448.856" height="56.3984" filterUnits="userSpaceOnUse" color-interpolation-filters="sRGB">
<feFlood flood-opacity="0" result="BackgroundImageFix"/>
<feBlend mode="normal" in="SourceGraphic" in2="BackgroundImageFix" result="shape"/>
<feColorMatrix in="SourceAlpha" type="matrix" values="0 0 0 0 0 0 0 0 0 0 0 0 0 0 0 0 0 0 127 0" result="hardAlpha"/>
<feOffset dy="4"/>
<feGaussianBlur stdDeviation="1"/>
<feComposite in2="hardAlpha" operator="arithmetic" k2="-1" k3="1"/>
<feColorMatrix type="matrix" values="0 0 0 0 0 0 0 0 0 0.0313726 0 0 0 0 1 0 0 0 1 0"/>
<feBlend mode="normal" in2="shape" result="effect1_innerShadow_1438_2084"/>
</filter>
</defs>
</svg>
