<svg width="22" height="22" viewBox="0 0 22 22" fill="none" xmlns="http://www.w3.org/2000/svg">
<path d="M17.4706 6.51246C15.9183 6.0993 12.5408 8.43284 11.1443 9.46794C12.5122 8.39566 15.6551 5.75874 15.6551 4.1622C15.6551 2.1217 14.2859 1.10156 12.9166 1.10156C11.5473 1.10156 10.5203 2.80194 10.5203 2.80194C10.5203 2.80194 9.49338 1.10156 8.1241 1.10156C6.75482 1.10156 5.38554 2.1217 5.38554 4.1622C5.38554 5.75874 8.52846 8.39588 9.89642 9.46794C8.49986 8.43284 5.12242 6.0993 3.5701 6.51246C1.58614 7.04068 0.948583 8.61852 1.303 9.93258C1.65742 11.2466 3.57648 11.792 3.57648 11.792C3.57648 11.792 2.18894 13.2176 2.54336 14.5317C2.89778 15.8457 4.24418 16.8956 6.22814 16.3674C7.9294 15.9146 9.86804 11.5175 10.3861 10.2731C10.3107 11.7018 10.2423 17.3505 13.5183 20.9016L13.6837 20.7498C10.3721 17.1618 10.541 11.3676 10.6143 10.1759C11.0633 11.2669 13.0633 15.9018 14.8125 16.3674C16.7965 16.8956 18.1429 15.8455 18.4973 14.5317C18.8517 13.2176 17.4642 11.792 17.4642 11.792C17.4642 11.792 19.3833 11.2466 19.7377 9.93258C20.0921 8.61852 19.4545 7.04068 17.4706 6.51246ZM14.7901 11.1958L10.5723 10.0732C10.5723 10.0732 10.5723 10.0732 10.5723 10.0734L10.5195 10.0593L10.4682 10.0734L6.25036 11.196L6.19272 10.9802L10.4084 9.858V5.52246H10.6319V9.85756L14.8475 10.9798L14.7899 11.1956L14.7901 11.1958ZM19.6514 3.82208H19.875V4.5021H19.6514V3.82208ZM19.4209 4.95398H18.7362V4.73068H19.4209V4.95398ZM19.6514 5.18234H19.875V5.86236H19.6514V5.18234ZM20.7902 4.73068V4.95398H20.1055V4.73068H20.7902ZM3.4436 3.48196H3.22008V2.80194H3.4436V3.48196ZM2.98952 3.93362H2.30488V3.71032H2.98952V3.93362ZM3.4436 4.84222H3.22008V4.1622H3.4436V4.84222ZM4.3588 3.93362H3.67416V3.71032H4.3588V3.93362ZM8.01256 17.7652H8.23608V18.4455H8.01256V17.7652ZM7.09736 18.6738H7.782V18.8971H7.09736V18.6738ZM8.01256 19.1255H8.23608V19.8057H8.01256V19.1255ZM8.46664 18.6738H9.15128V18.8971H8.46664V18.6738Z" fill="#0008FF"/>
</svg>
