<svg width="22" height="22" viewBox="0 0 22 22" fill="none" xmlns="http://www.w3.org/2000/svg">
<path d="M17.4716 6.51149C15.9192 6.09833 12.5418 8.43187 11.1452 9.46697C12.5132 8.39469 15.6561 5.75777 15.6561 4.16123C15.6561 2.12073 14.2868 1.10059 12.9176 1.10059C11.5483 1.10059 10.5213 2.80097 10.5213 2.80097C10.5213 2.80097 9.49436 1.10059 8.12508 1.10059C6.7558 1.10059 5.38652 2.12073 5.38652 4.16123C5.38652 5.75777 8.52944 8.39491 9.8974 9.46697C8.50084 8.43187 5.1234 6.09833 3.57108 6.51149C1.58712 7.03971 0.94956 8.61755 1.30398 9.93161C1.6584 11.2457 3.57746 11.791 3.57746 11.791C3.57746 11.791 2.18992 13.2166 2.54434 14.5307C2.89876 15.8448 4.24516 16.8946 6.22912 16.3664C7.93038 15.9136 9.86902 11.5165 10.3871 10.2722C10.3117 11.7008 10.2432 17.3496 13.5193 20.9006L13.6847 20.7488C10.373 17.1608 10.542 11.3667 10.6153 10.1749C11.0643 11.2659 13.0643 15.9009 14.8135 16.3664C16.7975 16.8946 18.1439 15.8445 18.4983 14.5307C18.8527 13.2166 17.4652 11.791 17.4652 11.791C17.4652 11.791 19.3842 11.2457 19.7387 9.93161C20.0931 8.61755 19.4555 7.03971 17.4716 6.51149ZM14.7911 11.1948L10.5732 10.0722L10.5204 10.0583L10.4692 10.0724L6.25134 11.1951L6.1937 10.9792L10.4093 9.85703V5.52149H10.6329V9.85659L14.8485 10.9788L14.7911 11.1948ZM19.6524 3.82111H19.8759V4.50113H19.6524V3.82111ZM19.4219 4.95301H18.7372V4.72971H19.4219V4.95301ZM19.6524 5.18137H19.8759V5.86139H19.6524V5.18137ZM20.7911 4.72971V4.95301H20.1065V4.72971H20.7911ZM3.44458 3.48099H3.22106V2.80097H3.44458V3.48099ZM2.9905 3.93265H2.30586V3.70935H2.9905V3.93265ZM3.44458 4.84125H3.22106V4.16123H3.44458V4.84125ZM4.35978 3.93265H3.67514V3.70935H4.35978V3.93265ZM8.01354 17.7643H8.23706V18.4445H8.01354V17.7643ZM7.09834 18.6729H7.78298V18.8962H7.09834V18.6729ZM8.01354 19.1245H8.23706V19.8048H8.01354V19.1245ZM8.46762 18.6729H9.15226V18.8962H8.46762V18.6729Z" fill="white"/>
</svg>
