<svg width="137" height="48" viewBox="0 0 137 48" fill="none" xmlns="http://www.w3.org/2000/svg">
<g opacity="0.9">
<path d="M27.7952 18.1092C26.7568 18.1092 25.9607 18.5748 25.3722 19.5058C24.7838 20.4369 24.5069 21.7977 24.5069 23.5882C24.5069 25.2713 24.7838 26.5962 25.3722 27.5273C25.9607 28.4584 26.7568 28.9239 27.7952 28.9239C28.8335 28.9239 29.6643 28.4584 30.2181 27.5273C30.7719 26.5962 31.0834 25.2713 31.0834 23.5882C31.0834 21.9051 30.8065 20.4727 30.2181 19.5058C29.6643 18.5748 28.8335 18.1092 27.7952 18.1092Z" fill="black"/>
<path d="M43.0941 4H22.534C17.5497 4 13.5 8.18979 13.5 13.3465V34.6177C13.5 39.8102 17.5497 44 22.534 44H43.0941C48.113 44 52.1627 39.8102 52.1281 34.6177V13.3465C52.1281 8.18979 48.0784 4 43.0941 4ZM33.3678 30.3921C32.0525 31.9678 30.1834 32.7914 27.7952 32.7914C25.4069 32.7914 23.5724 32.0036 22.2917 30.3921C20.9764 28.7807 20.3534 26.5246 20.3534 23.624C20.3534 20.7234 21.011 18.4673 22.2917 16.8559C23.5724 15.2444 25.4415 14.4566 27.7952 14.4566C30.1488 14.4566 32.0525 15.2444 33.3678 16.8559C34.6831 18.4673 35.3408 20.7234 35.3408 23.624C35.3408 26.5246 34.6831 28.7807 33.3678 30.3921ZM44.0286 32.7914H39.6674V19.7207L36.8291 21.0815L36.1369 16.9275L41.0865 14.4208H44.0286V32.7914Z" fill="black"/>
<path d="M69.2269 25.701L61.5428 14.8505H57.6315V32.5407H61.612V21.9051L69.1923 32.5049H73.1728V14.8505H69.2269V25.701Z" fill="black"/>
<path d="M89.96 17.0349C89.1639 16.2113 88.1948 15.5667 87.1218 15.1012C86.0142 14.6356 84.8373 14.4208 83.522 14.4208C82.2067 14.4208 81.0299 14.6356 79.9569 15.1012C78.8493 15.5667 77.9147 16.2113 77.1186 17.0349C76.3225 17.8585 75.6995 18.8254 75.2495 19.9355C74.7996 21.0815 74.5919 22.299 74.5919 23.624C74.5919 24.949 74.7996 26.1665 75.2495 27.2766C75.6995 28.3867 76.3225 29.3536 77.1186 30.1773C77.9147 31.0009 78.8839 31.6455 79.9569 32.111C81.0645 32.5765 82.2413 32.7914 83.522 32.7914C84.8027 32.7914 86.0142 32.5407 87.1218 32.111C88.2294 31.6455 89.1639 31.0009 89.96 30.1773C90.7561 29.3536 91.3792 28.3867 91.8291 27.2766C92.2791 26.1665 92.4868 24.949 92.4868 23.624C92.4868 22.299 92.2791 21.0457 91.8291 19.9355C91.3792 18.8254 90.7561 17.8585 89.96 17.0349ZM87.3987 26.1307C87.0179 26.8827 86.4641 27.4557 85.8065 27.8854C85.1488 28.3151 84.3874 28.53 83.522 28.53C82.6567 28.53 81.8952 28.3151 81.2376 27.8854C80.5799 27.4557 80.0607 26.8827 79.68 26.1307C79.2992 25.4145 79.0916 24.555 79.0916 23.624C79.0916 22.6929 79.2992 21.8335 79.68 21.0815C80.0607 20.3294 80.5799 19.7565 81.2376 19.3268C81.8952 18.897 82.6567 18.6822 83.522 18.6822C84.3874 18.6822 85.1488 18.897 85.8065 19.3268C86.4641 19.7565 87.0179 20.3294 87.3987 21.0815C87.7794 21.8335 87.9871 22.6571 87.9871 23.624C87.9871 24.5909 87.7794 25.3787 87.3987 26.1307Z" fill="black"/>
<path d="M105.57 15.9606C104.29 15.2086 102.801 14.8505 101.14 14.8505H93.9059V32.4691H101.14C102.801 32.4691 104.29 32.111 105.57 31.359C106.851 30.607 107.855 29.5685 108.582 28.2435C109.309 26.9185 109.655 25.3787 109.655 23.6598C109.655 21.9409 109.309 20.4011 108.582 19.0761C107.855 17.7511 106.851 16.7126 105.57 15.9606ZM104.082 27.205C103.321 28.1003 102.317 28.5658 101.036 28.5658H98.3018V18.8254H101.036C102.282 18.8254 103.321 19.2551 104.082 20.1862C104.844 21.0815 105.224 22.2632 105.224 23.6956C105.224 25.128 104.844 26.3098 104.082 27.205Z" fill="black"/>
<path d="M115.366 28.709V25.3429H122.185V21.6902H115.366V18.6464H123.223V14.8505H111.109V32.5049H123.5V28.709H115.366Z" fill="black"/>
</g>
</svg>
