<svg width="137" height="48" viewBox="0 0 137 48" fill="none" xmlns="http://www.w3.org/2000/svg">
<path fill-rule="evenodd" clip-rule="evenodd" d="M110.464 19.8689C110.364 19.5828 110.211 19.3176 110.002 19.0751C109.792 18.8326 109.532 18.6284 109.225 18.4627C108.916 18.2987 108.552 18.2149 108.133 18.2149C107.913 18.2149 107.721 18.1434 107.556 18.0004C107.39 17.8573 107.308 17.6532 107.308 17.3897C107.308 16.7058 107.065 16.1213 106.58 15.6363C106.095 15.1531 105.513 14.9106 104.829 14.9106H98.2198C97.5359 14.9106 96.9532 15.1513 96.4682 15.6363C95.9832 16.1213 95.7407 16.7058 95.7407 17.3897H95.7424V20.6941C95.7424 20.0119 95.4982 19.4275 95.0149 18.9425C94.5299 18.4575 93.9454 18.2149 93.2632 18.2149C93.0434 18.2149 92.8498 18.1382 92.684 17.9846C92.52 17.8294 92.4363 17.6322 92.4363 17.3897C92.4363 16.7058 92.1938 16.1213 91.7105 15.6363C91.2255 15.1531 90.641 14.9106 89.9589 14.9106H85.0005C84.3184 14.9106 83.7356 15.1513 83.2506 15.6363C82.7656 16.1213 82.5231 16.7058 82.5231 17.3897C82.5231 17.5869 82.4446 17.7753 82.2911 17.9515C82.1375 18.1277 81.9386 18.2149 81.6961 18.2149C81.014 18.2149 80.4295 18.4575 79.9445 18.9425C79.4595 19.4275 79.2187 20.0119 79.2187 20.6941V27.3064C79.2187 27.8699 79.3827 28.3671 79.7142 28.7963C79.2431 28.3549 78.6814 28.1316 78.0288 28.1316H76.3766C76.1778 28.1316 75.9911 28.0618 75.8149 27.917C75.6387 27.774 75.5497 27.5698 75.5497 27.3064V10.7774C75.5497 10.0953 75.3072 9.51082 74.8222 9.0258C74.3389 8.54079 73.7544 8.29828 73.0723 8.29828C72.3901 8.29828 71.8056 8.54079 71.3206 9.0258C70.8356 9.51082 70.5931 10.0953 70.5931 10.7774V17.3897C70.5931 16.7058 70.3506 16.1213 69.8656 15.6363C69.3805 15.1531 68.7978 14.9106 68.1139 14.9106C67.43 14.9106 66.8473 15.1513 66.3623 15.6363C65.8773 16.1213 65.6365 16.7058 65.6365 17.3897V27.3064C65.6365 27.5489 65.558 27.7478 65.4045 27.9013C65.2509 28.0548 65.052 28.1316 64.8095 28.1316H59.8529C59.6104 28.1316 59.4115 28.0548 59.258 27.9013C59.1045 27.7478 59.026 27.5489 59.026 27.3064V17.3897C59.026 16.7058 58.7835 16.1213 58.3002 15.6363C57.8152 15.1531 57.2307 14.9106 56.5485 14.9106C55.8664 14.9106 55.2819 15.1513 54.7969 15.6363C54.3119 16.1213 54.0694 16.7058 54.0694 17.3897V20.654C54.0607 19.9893 53.8181 19.417 53.3436 18.9425C52.8691 18.4679 52.2741 18.2149 51.592 18.2149C51.3495 18.2149 51.1506 18.1382 50.997 17.9846C50.8418 17.8294 50.765 17.6322 50.765 17.388C50.765 16.7058 50.5225 16.1213 50.0375 15.6363C49.5542 15.1531 48.9697 14.9088 48.2876 14.9088H43.3292C43.1321 14.9088 42.9437 14.839 42.7674 14.6942C42.5912 14.5512 42.504 14.347 42.504 14.0836V10.7774C42.504 10.0953 42.2615 9.51082 41.7765 9.0258C41.2915 8.54079 40.7087 8.29828 40.0248 8.29828C39.3409 8.29828 38.7582 8.54079 38.2732 9.0258C37.7882 9.51082 37.5474 10.0953 37.5474 10.7774V20.6941C37.5474 20.0119 37.3032 19.4275 36.8199 18.9425C36.3349 18.4575 35.7504 18.2149 35.0683 18.2149C34.892 18.2149 34.7089 18.1434 34.5222 18.0004C34.3355 17.8573 34.2413 17.6532 34.2413 17.3897C34.2413 16.7058 33.9988 16.1213 33.5138 15.6363C33.0305 15.1531 32.446 14.9106 31.7621 14.9106H23.5011C22.819 14.9106 22.2345 15.1513 21.7495 15.6363C21.2645 16.1213 21.0237 16.7058 21.0237 17.3897C21.0237 18.0736 21.2662 18.6563 21.7495 19.1414C22.2345 19.6264 22.819 19.8689 23.5011 19.8689H31.7621C31.9401 19.8689 32.1215 19.9404 32.3082 20.0835C32.4949 20.2265 32.5891 20.4307 32.5891 20.6941C32.5891 20.9576 32.4949 21.1634 32.3082 21.3065C32.1215 21.4495 31.9401 21.5211 31.7621 21.5211H23.5011C22.819 21.5211 22.2345 21.7636 21.7495 22.2486C21.2715 22.7266 21.0289 23.3041 21.0237 23.9758V20.6941C21.0237 20.0119 20.7795 19.4275 20.2962 18.9425C19.8112 18.4575 19.2267 18.2149 18.5445 18.2149C18.302 18.2149 18.1031 18.1382 17.9496 17.9846C17.7961 17.8294 17.7193 17.6322 17.7193 17.388C17.7193 16.7058 17.4751 16.1213 16.9918 15.6363C16.5068 15.1531 15.9223 14.9088 15.2401 14.9088H10.2836C10.0847 14.9088 9.89799 14.839 9.72178 14.6942C9.54557 14.5512 9.45659 14.347 9.45659 14.0836V10.7774C9.45659 10.0953 9.21408 9.51082 8.72906 9.0258C8.24579 8.54079 7.66133 8.29828 6.97917 8.29828C6.297 8.29828 5.71254 8.54079 5.22752 9.0258C4.74251 9.51082 4.5 10.0953 4.5 10.7774V30.6125C4.5 31.2947 4.74251 31.8792 5.22752 32.3642C5.7108 32.8492 6.29526 33.0917 6.97917 33.0917H15.2401C15.9223 33.0917 16.5068 32.8474 16.9918 32.3642C17.4751 31.8792 17.7193 31.2947 17.7193 30.6125C17.7193 30.3473 17.8065 30.1432 17.9828 30.0001C18.159 29.8571 18.3456 29.7856 18.5445 29.7856C19.2267 29.7856 19.8112 29.543 20.2962 29.058C20.7812 28.573 21.0237 27.9885 21.0237 27.3064C21.0237 27.9885 21.2662 28.573 21.7512 29.058C22.2345 29.543 22.819 29.7856 23.5011 29.7856C23.7 29.7856 23.8867 29.8623 24.0629 30.0176C24.2391 30.1711 24.3281 30.37 24.3281 30.6125C24.3281 31.2947 24.5706 31.8792 25.0556 32.3642C25.5389 32.8492 26.1234 33.0917 26.8055 33.0917H35.0683C35.7504 33.0917 36.3349 32.8492 36.8199 32.3642C37.3049 31.8792 37.5474 31.2947 37.5474 30.6125C37.5474 31.2947 37.7899 31.8792 38.2732 32.3642C38.7582 32.8492 39.3427 33.0917 40.0248 33.0917H48.2876C48.9697 33.0917 49.5542 32.8474 50.0375 32.3642C50.5225 31.8792 50.765 31.2947 50.765 30.6125C50.765 30.3473 50.854 30.1432 51.0302 30.0001C51.2064 29.8571 51.3931 29.7856 51.592 29.7856C52.2741 29.7856 52.8586 29.543 53.3436 29.058C53.8199 28.58 54.0624 28.006 54.0694 27.3343C54.0764 28.006 54.3189 28.58 54.7969 29.058C55.2802 29.543 55.8646 29.7856 56.5485 29.7856C56.7911 29.7856 56.9882 29.8676 57.1435 30.0333C57.297 30.199 57.3738 30.3927 57.3738 30.6125C57.3738 31.2947 57.6163 31.8792 58.1013 32.3642C58.5863 32.8492 59.169 33.0917 59.8529 33.0917H64.8095C65.052 33.0917 65.2509 33.1685 65.4045 33.322C65.558 33.4773 65.6365 33.6744 65.6365 33.9169C65.6365 34.1594 65.558 34.3583 65.4045 34.5118C65.2509 34.6671 65.052 34.7439 64.8095 34.7439H56.5485C55.8646 34.7439 55.2802 34.9864 54.7969 35.4714C54.3119 35.9547 54.0694 36.5409 54.0694 37.2231C54.0694 37.9052 54.3119 38.4914 54.7969 38.9747C55.2802 39.4597 55.8646 39.7022 56.5485 39.7022H64.8095C65.4917 39.7022 66.0762 39.4597 66.5612 38.9747C67.0462 38.4897 67.2887 37.9052 67.2887 37.2231C67.2887 37.0032 67.3655 36.8096 67.519 36.6456C67.6725 36.4798 67.8714 36.3961 68.1139 36.3961C68.7961 36.3961 69.3805 36.1536 69.8656 35.6703C70.3506 35.1853 70.5931 34.6008 70.5931 33.9169V27.3064C70.5931 27.9885 70.8356 28.573 71.3206 29.058C71.8039 29.543 72.3884 29.7856 73.0723 29.7856C73.2694 29.7856 73.4561 29.8571 73.634 30.0001C73.8085 30.1432 73.8975 30.3473 73.8975 30.6125C73.8975 31.2947 74.14 31.8792 74.625 32.3642C75.1083 32.8492 75.6927 33.0917 76.3766 33.0917H78.0288C78.711 33.0917 79.2955 32.8474 79.7787 32.3642C80.2638 31.8792 80.5063 31.2947 80.5063 30.6125C80.5063 30.0473 80.3405 29.55 80.009 29.1208C80.4801 29.564 81.0436 29.7856 81.6961 29.7856C81.9386 29.7856 82.1375 29.8623 82.2911 30.0176C82.4446 30.1711 82.5231 30.37 82.5231 30.6125C82.5231 31.2947 82.7656 31.8792 83.2506 32.3642C83.7339 32.8492 84.3184 33.0917 85.0005 33.0917H89.9589C90.641 33.0917 91.2255 32.8474 91.7105 32.3642C92.1938 31.8792 92.4363 31.2947 92.4363 30.6125C92.4363 30.4363 92.5078 30.2531 92.6526 30.0664C92.7939 29.8798 92.9981 29.7856 93.2632 29.7856C93.9454 29.7856 94.5299 29.543 95.0149 29.058C95.4999 28.573 95.7424 27.9885 95.7424 27.3064V30.6125C95.7424 31.2947 95.9832 31.8792 96.4682 32.3642C96.9532 32.8492 97.5377 33.0917 98.2198 33.0917C98.902 33.0917 99.4865 32.8474 99.9715 32.3642C100.456 31.8792 100.699 31.2947 100.699 30.6125V20.6941C100.699 20.4743 100.776 20.2806 100.929 20.1166C101.085 19.9509 101.282 19.8689 101.524 19.8689H104.829C105.028 19.8689 105.214 19.9457 105.39 20.0992C105.567 20.2545 105.656 20.4516 105.656 20.6941V30.6125C105.656 31.2947 105.898 31.8792 106.383 32.3642C106.866 32.8492 107.451 33.0917 108.133 33.0917C108.815 33.0917 109.401 32.8474 109.885 32.3642C110.37 31.8792 110.612 31.2947 110.612 30.6125V20.6941C110.612 20.4307 110.563 20.155 110.464 19.8689ZM16.0654 27.3064C16.0654 27.5925 15.9781 27.8019 15.8019 27.9345C15.6257 28.0671 15.439 28.1316 15.2401 28.1316H10.2836C10.062 28.1316 9.87007 28.0548 9.70433 27.9013C9.54033 27.7478 9.45659 27.5489 9.45659 27.3064V20.6941C9.45659 20.497 9.53335 20.3085 9.68863 20.1323C9.84216 19.9561 10.0411 19.8689 10.2836 19.8689H15.2401C15.4827 19.8689 15.6798 19.9509 15.8351 20.1166C15.9886 20.2806 16.0654 20.4743 16.0654 20.6941V27.3064ZM32.3256 27.9013C32.1477 28.0548 31.961 28.1316 31.7621 28.1316H26.8055C26.6084 28.1316 26.42 28.0548 26.2437 27.9013C26.0675 27.7478 25.9803 27.5489 25.9803 27.3064C25.9803 27.1075 26.0571 26.9208 26.2106 26.7446C26.3659 26.5684 26.563 26.4794 26.8055 26.4794H31.7621C32.0046 26.4794 32.2035 26.5684 32.357 26.7446C32.5123 26.9208 32.5891 27.1075 32.5891 27.3064C32.5891 27.5489 32.5001 27.7478 32.3256 27.9013ZM49.1128 27.3064C49.1128 27.5925 49.0238 27.8019 48.8493 27.9345C48.6714 28.0671 48.4847 28.1316 48.2876 28.1316H43.331C43.1094 28.1316 42.9175 28.0548 42.7517 27.9013C42.586 27.7478 42.504 27.5489 42.504 27.3064V20.6941C42.504 20.497 42.5808 20.3085 42.7343 20.1323C42.8896 19.9561 43.0867 19.8689 43.3292 19.8689H48.2876C48.5283 19.8689 48.7272 19.9509 48.8825 20.1166C49.036 20.2806 49.1128 20.4743 49.1128 20.6941V27.3064ZM90.7841 27.3064C90.7841 27.5925 90.6951 27.8019 90.5206 27.9345C90.3427 28.0671 90.156 28.1316 89.9589 28.1316H85.0023C84.7807 28.1316 84.5888 28.0548 84.423 27.9013C84.2573 27.7478 84.1753 27.5489 84.1753 27.3064V20.6941C84.1753 20.497 84.2521 20.3103 84.4073 20.1323C84.5609 19.9561 84.758 19.8689 85.0005 19.8689H89.9589C90.1996 19.8689 90.3985 19.9509 90.5538 20.1166C90.7073 20.2806 90.7841 20.4743 90.7841 20.6941V27.3064ZM115.661 11.4055C115.579 11.1822 115.633 10.9327 115.803 10.7635L118.09 8.47623C118.257 8.30875 118.509 8.25292 118.732 8.33492L123.61 10.1267C123.73 10.1703 123.809 10.2854 123.809 10.4128V11.4805C123.809 11.5608 123.777 11.6393 123.72 11.6951L122.533 12.8815C122.45 12.9653 122.324 12.9932 122.212 12.9513L119.463 11.9376C119.341 11.8923 119.222 12.0109 119.267 12.133L120.281 14.8826C120.323 14.9943 120.295 15.1199 120.211 15.2037L119.156 16.2592C119.037 16.3778 119.037 16.5715 119.156 16.6901L120.217 17.7509C120.3 17.8346 120.328 17.9602 120.286 18.0719L119.273 20.8215C119.227 20.9436 119.346 21.0622 119.468 21.0169L122.218 20.0032C122.329 19.9614 122.455 19.9893 122.539 20.073L123.72 21.2541C123.777 21.3117 123.809 21.3885 123.809 21.4687V22.5365C123.809 22.6638 123.73 22.7772 123.61 22.8226L118.739 24.6196C118.516 24.7016 118.266 24.6475 118.097 24.4783L115.81 22.191C115.642 22.0235 115.586 21.7723 115.668 21.549L117.46 16.6936C117.511 16.5575 117.511 16.4075 117.46 16.2714L115.663 11.4003V11.4055H115.661ZM132.462 21.5525C132.544 21.7758 132.49 22.0253 132.321 22.1945L130.034 24.4818C129.866 24.6493 129.615 24.7051 129.392 24.6231L124.514 22.8313C124.393 22.7877 124.315 22.6726 124.315 22.5452V21.4775C124.315 21.3972 124.346 21.3187 124.404 21.2629L125.59 20.0765C125.674 19.9928 125.799 19.9648 125.911 20.0067L128.661 21.0204C128.783 21.0657 128.901 20.9471 128.856 20.825L127.842 18.0754C127.801 17.9637 127.829 17.8381 127.912 17.7544L128.968 16.6988C129.086 16.5802 129.086 16.3865 128.968 16.2679L127.907 15.2071C127.823 15.1234 127.795 14.9978 127.837 14.8861L128.851 12.1365C128.896 12.0144 128.778 11.8958 128.655 11.9411L125.906 12.9548C125.794 12.9967 125.669 12.9687 125.585 12.885L124.404 11.7039C124.346 11.6463 124.315 11.5695 124.315 11.4893V10.4215C124.315 10.2942 124.395 10.1808 124.514 10.1354L129.385 8.3384C129.608 8.25641 129.858 8.31049 130.027 8.47972L132.314 10.767C132.482 10.9345 132.537 11.1857 132.455 11.409L130.664 16.2644C130.613 16.4005 130.613 16.5505 130.664 16.6866L132.461 21.5577V21.5525H132.462Z" fill="black"/>
</svg>
