<svg width="137" height="48" viewBox="0 0 137 48" fill="none" xmlns="http://www.w3.org/2000/svg">
<path d="M31.0222 34.8262C31.0222 35.7067 30.3055 36.4222 29.425 36.4222H24.7073V38.1533H29.425C31.2599 38.1533 32.7533 36.6611 32.7533 34.8262V30.1234H31.0222V34.8262Z" fill="black"/>
<path d="M29.425 9.84692H24.7073V11.578H29.425C30.3055 11.578 31.0222 12.2935 31.0222 13.174V17.961H32.7533V13.174C32.7533 11.3391 31.2599 9.84692 29.425 9.84692Z" fill="black"/>
<path d="M6.23106 34.8262V30.1234H4.5V34.8262C4.5 36.6611 5.99333 38.1533 7.82826 38.1533H12.546V36.4222H7.82826C6.94772 36.4222 6.23106 35.7067 6.23106 34.8262Z" fill="black"/>
<path d="M6.23106 13.174C6.23106 12.2935 6.94772 11.578 7.82826 11.578H12.546V9.84692H7.82826C5.99333 9.84692 4.5 11.3391 4.5 13.174V17.961H6.23106V13.174Z" fill="black"/>
<path d="M48.4147 31.4667H42.9746V27.1299H41.0231V35.514H42.9746V33.1401H48.4147V37.6674H50.3662V29.2833H48.4147V31.4667Z" fill="black"/>
<path d="M99.9808 28.8067H105.719V27.1299H98.0293V37.6674H105.908V35.9906H99.9808V28.8067Z" fill="black"/>
<path d="M118.764 33.4921C119.439 32.8181 119.856 31.8857 119.856 30.8563C119.856 28.7986 118.187 27.1299 116.128 27.1299H111.078V37.6674H113.028V28.8275H115.851C116.995 28.8275 117.922 29.7541 117.922 30.8978C117.922 31.4702 117.69 31.9872 117.316 32.3623C116.941 32.7362 116.422 32.9682 115.851 32.9682H115.131V34.5838H115.79L117.922 37.6674H120.04L117.673 34.2491C118.082 34.0622 118.45 33.8048 118.764 33.4921Z" fill="black"/>
<path d="M84.7105 28.8067H88.1842V35.6098H90.1345V28.8067H93.6082V27.1299H84.7105V28.8067Z" fill="black"/>
<path d="M105.087 31.5094H102.119V33.1239H105.087V31.5094Z" fill="black"/>
<path d="M63.2996 33.6121C63.2996 34.9681 62.1998 36.0668 60.8438 36.0668H60.4595C59.1035 36.0668 58.0037 34.9681 58.0037 33.6121V29.2833H56.0522V33.5671C56.0522 35.9029 57.946 37.7967 60.2829 37.7967H61.0215C63.3573 37.7967 65.2511 35.9029 65.2511 33.5671V27.1299H63.2996V33.6121Z" fill="black"/>
<path d="M78.3171 34.2261L72.5735 27.1299H70.9255V35.514H72.877V30.5216L78.6426 37.6409H80.2686V29.2833H78.3171V34.2261Z" fill="black"/>
<path d="M62.816 20.8288V19.1831H57.3643V10.3593H55.4129V20.8288H62.816Z" fill="black"/>
<path d="M71.1274 12.0581V10.2681C68.7593 10.6432 66.8875 12.4227 66.4847 14.68H68.4858C68.8182 13.3991 69.8349 12.3904 71.1274 12.0581Z" fill="black"/>
<path d="M75.6294 14.6801H77.6328C77.2277 12.4135 75.3432 10.6294 72.9612 10.2647V12.0512C74.2664 12.3766 75.2947 13.391 75.6294 14.6801Z" fill="black"/>
<path d="M71.1274 19.1347C69.8349 18.8023 68.8194 17.7948 68.4858 16.5138H66.4847C66.8886 18.7711 68.7593 20.5507 71.1274 20.9257V19.1347Z" fill="black"/>
<path d="M77.6328 16.5138H75.6294C75.2935 17.8029 74.2653 18.8161 72.9612 19.1416V20.9292C75.3432 20.5645 77.2266 18.7792 77.6328 16.5138Z" fill="black"/>
<path d="M91.7952 19.242L90.5038 18.0164C89.816 18.7746 88.8097 19.2524 87.6891 19.2524C85.6141 19.2524 83.9327 17.6159 83.9327 15.5964C83.9327 13.5768 85.6141 11.9404 87.6891 11.9404C88.8027 11.9404 89.8045 12.4135 90.4923 13.1636L91.7859 11.9404C90.7519 10.8671 89.2701 10.1954 87.6233 10.1954C84.4993 10.1954 81.9674 12.6132 81.9674 15.5964C81.9674 18.5796 84.4993 20.9984 87.6233 20.9984C89.2748 20.9984 90.7623 20.321 91.7952 19.242Z" fill="black"/>
<path d="M98.5706 15.6921V12.4701H96.6191V20.8299H98.5706V18.0833L100.182 16.4111L102.207 18.8184H104.592L101.515 15.0297L106.036 10.3374H103.731L98.5706 15.6921Z" fill="black"/>
<path d="M42.9746 16.2819H46.746C47.5746 16.2819 48.3547 16.9535 48.3547 17.7821C48.3547 18.1964 48.1597 18.5715 47.8608 18.8427C47.5631 19.115 47.1603 19.2824 46.746 19.2824H45.3981V20.8473H45.9647L47.0772 20.7976C47.4904 20.7907 48.1436 20.7168 48.8267 20.351C49.1868 20.1571 49.7327 19.864 50.0789 19.2201C50.4009 18.6188 50.3732 18.0418 50.357 17.7821C50.342 17.5525 50.3028 17.0158 49.9496 16.4654C49.4915 15.7522 48.8037 15.4775 48.5244 15.3875C48.6536 15.3136 48.7644 15.2375 48.866 15.1544C48.9964 15.047 49.3103 14.7678 49.5422 14.2992C49.8192 13.736 49.8146 13.2306 49.81 13.0171C49.8042 12.7574 49.7915 12.342 49.5515 11.8873C49.3034 11.4164 48.9491 11.1648 48.7275 11.0102C48.2728 10.6951 47.8527 10.5913 47.4454 10.4932C47.0888 10.4089 46.5521 10.3201 45.8851 10.3593H41.0231V19.2201H42.9746V16.2819ZM42.9746 11.8873H46.2659C47.0588 11.8873 47.8181 12.5301 47.8181 13.3229C47.8181 13.7187 47.6277 14.0788 47.3392 14.3385C47.0507 14.5981 46.6629 14.7585 46.2659 14.7585H42.9746V11.8873Z" fill="black"/>
<path d="M132.397 33.8302C132.263 33.409 132.039 33.139 131.921 33.0005C131.83 32.892 131.55 32.5793 130.944 32.2607C130.824 32.1973 130.479 32.023 129.337 31.7264C128.91 31.6156 128.473 31.5141 127.725 31.3087C127.209 31.1667 126.939 31.0836 126.684 30.8332C126.573 30.7247 126.302 30.45 126.283 30.0346C126.269 29.7415 126.388 29.5222 126.436 29.4368C126.677 29.0075 127.113 28.8505 127.366 28.7594C127.811 28.6001 128.176 28.6105 128.598 28.6278C128.954 28.6428 129.474 28.6982 130.085 28.8898V27.1426C129.424 27.0133 128.862 26.9868 128.449 26.9902C127.965 26.9948 127.455 27.0041 126.822 27.1899C126.471 27.2926 126.038 27.4241 125.574 27.7692C125.362 27.9273 124.922 28.2608 124.625 28.8771C124.553 29.0283 124.359 29.4656 124.346 30.0646C124.34 30.3116 124.336 30.9982 124.765 31.6422C125.125 32.1823 125.604 32.4119 126.103 32.6508C126.716 32.9451 127.269 33.0628 128.339 33.2901C129.008 33.4321 129.36 33.4759 129.816 33.7598C130.074 33.9202 130.488 34.1857 130.565 34.6484C130.616 34.9543 130.496 35.2058 130.456 35.2878C130.247 35.7102 129.832 35.874 129.547 35.9871C129.082 36.1718 128.693 36.1695 128.21 36.1672C127.991 36.1672 127.539 36.1499 126.982 36.0171C126.676 35.9444 126.422 35.8556 126.231 35.7806V37.5405C126.983 37.7297 127.625 37.7817 128.091 37.7886C128.31 37.7921 128.663 37.7967 129.122 37.7355C129.63 37.6686 130.209 37.5924 130.839 37.2497C131.165 37.0719 131.784 36.7361 132.171 36.0079C132.475 35.4355 132.494 34.8896 132.498 34.6554C132.503 34.4546 132.506 34.1741 132.398 33.8314L132.397 33.8302Z" fill="black"/>
<path d="M26.3772 24.2182L25.3386 24.8448V28.3958L19.1552 31.9457V24.8529L26.3772 20.7076V20.1063L18.6359 15.6633L10.8946 20.1063V28.9982L15.0549 31.3859V30.1881L11.9332 28.3958V21.3042L18.1166 24.8529V33.1424L18.6359 33.4401L26.3772 28.9982V24.2182ZM18.6359 23.9539L12.4571 20.4064L18.6359 16.8612L24.8146 20.4075L18.6359 23.9539Z" fill="black"/>
</svg>
