<svg width="137" height="48" viewBox="0 0 137 48" fill="none" xmlns="http://www.w3.org/2000/svg">
<path d="M17.9056 16.2814L18.7379 17.3081L18.062 17.8054C17.9194 17.9113 17.8367 18.077 17.8367 18.2566V19.0623C17.8367 19.38 18.0988 19.6332 18.4206 19.6194C18.7195 19.6056 18.9494 19.3477 18.9494 19.0485V18.5374L20.6323 17.2989C20.6645 17.2759 20.7105 17.2759 20.7427 17.2989L22.4256 18.5374V19.0669C22.4256 19.3846 22.6877 19.6378 23.0096 19.624C23.3085 19.6102 23.5384 19.3524 23.5384 19.0531V18.2566C23.5384 18.077 23.4556 17.9113 23.3131 17.8054L22.6371 17.3081L23.4694 16.2814C23.6625 16.042 23.6257 15.6921 23.3912 15.4987C23.1521 15.3053 22.8027 15.3422 22.6095 15.577L21.7405 16.6451L21.0186 16.1157C20.8209 15.9729 20.5542 15.9729 20.361 16.1157L19.6391 16.6451L18.7701 15.577C18.577 15.3376 18.2275 15.3053 17.9884 15.4987C17.7493 15.6921 17.7125 16.042 17.9102 16.2814H17.9056Z" fill="black"/>
<path d="M27.7087 18.4592C26.9776 18.4592 26.2603 18.6572 25.6304 19.0255L20.7701 21.8386C20.7149 21.8709 20.6414 21.8709 20.5862 21.8386L15.7351 19.0255L15.7076 19.0071C15.0868 18.648 14.3787 18.4546 13.6614 18.4546C11.4037 18.4546 9.56902 20.2962 9.56902 22.5615C9.56902 24.8267 11.4037 26.6683 13.6614 26.6683C14.181 26.6683 14.6914 26.5717 15.1696 26.3783C15.4547 26.2632 15.5926 25.9409 15.4776 25.6554C15.3627 25.37 15.0408 25.2319 14.7557 25.3424C14.4063 25.4805 14.0384 25.5541 13.6568 25.5541C12.0106 25.5541 10.6726 24.2097 10.6726 22.5615C10.6726 20.9132 12.0106 19.5642 13.6568 19.5642C14.181 19.5642 14.696 19.7023 15.1466 19.9648L19.5608 22.5246L16.5306 24.288C16.3605 24.3893 16.2547 24.5735 16.2547 24.7714V30.1721C16.2547 30.37 16.3605 30.5542 16.5306 30.6555L20.3977 32.8977C20.485 32.9483 20.577 32.9714 20.6736 32.9714C20.7701 32.9714 20.8667 32.9483 20.9494 32.8977L24.7981 30.6693C24.9682 30.568 25.074 30.3839 25.074 30.1859V24.7714C25.074 24.5735 24.9682 24.3893 24.7981 24.288L21.7725 22.5246L26.173 19.9786H26.1776C26.6328 19.7069 27.157 19.5596 27.6903 19.5596C29.3365 19.5596 30.6745 20.904 30.6745 22.5569C30.6745 24.2097 29.3365 25.5495 27.6903 25.5495C27.3041 25.5495 26.927 25.4759 26.573 25.3331C26.2879 25.218 25.966 25.3562 25.8511 25.6416C25.7361 25.9271 25.8741 26.254 26.1592 26.3691C26.6466 26.567 27.1616 26.6683 27.6903 26.6683C29.948 26.6683 31.7827 24.8267 31.7827 22.5615C31.7827 20.2962 29.948 18.4546 27.6903 18.4546L27.7087 18.4592ZM23.0738 30.3977L21.9748 31.033C21.9197 31.0653 21.8461 31.0653 21.7909 31.033L20.9586 30.5496C20.7885 30.4483 20.5724 30.4483 20.4023 30.5496L19.5746 31.0284C19.5194 31.0607 19.4459 31.0607 19.3907 31.0284L18.2917 30.3931C18.2319 30.3562 18.2319 30.2687 18.2917 30.2319L20.5908 28.8967C20.646 28.8645 20.7195 28.8645 20.7747 28.8967L23.0738 30.2365C23.1336 30.2734 23.1336 30.3608 23.0738 30.3977ZM23.9842 29.3157C23.9842 29.3894 23.9061 29.4308 23.8463 29.3986L20.9632 27.7181C20.7931 27.6168 20.5816 27.6168 20.4069 27.7181L17.5146 29.3986C17.4549 29.4354 17.3767 29.3894 17.3767 29.3157V28.0404C17.3767 27.9759 17.4135 27.9114 17.4686 27.8792L20.5908 26.0652C20.646 26.033 20.7195 26.033 20.7747 26.0652L23.8877 27.8792C23.9428 27.9114 23.9796 27.9759 23.9796 28.0404V29.3157H23.9842ZM23.8877 25.0477C23.9428 25.0799 23.9796 25.1444 23.9796 25.2088V26.4842C23.9796 26.5532 23.9015 26.5993 23.8417 26.567L20.9586 24.8865C20.7885 24.7853 20.577 24.7853 20.4023 24.8865L17.51 26.567C17.4503 26.6039 17.3721 26.5578 17.3721 26.4842V25.2088C17.3721 25.1444 17.4089 25.0799 17.464 25.0477L20.5862 23.2337C20.6414 23.2014 20.7149 23.2014 20.7701 23.2337L23.8831 25.0477H23.8877Z" fill="black"/>
<path d="M36.767 22.17C36.7118 21.9168 36.7946 21.6451 36.6796 21.3873C36.6153 21.24 36.721 21.0558 36.6245 20.8947C36.5325 20.7427 36.6566 20.531 36.5049 20.3882C36.4727 19.9002 36.3164 19.4444 36.1646 18.984C35.9853 18.4453 35.8382 17.8928 35.5945 17.3771C35.2542 16.6405 34.891 15.9176 34.4541 15.2316C33.8748 14.3292 33.2126 13.4867 32.4815 12.704C32.224 12.4277 31.9435 12.1791 31.6493 11.9351C31.332 11.6726 31.0101 11.4102 30.6882 11.1478C30.0767 10.6597 29.4008 10.273 28.7294 9.87705C28.8628 9.81259 28.9777 9.72971 29.0559 9.6054C28.9547 9.57317 29.0145 9.44426 28.9363 9.39822H28.849C28.7616 9.45807 28.8444 9.56397 28.7846 9.63763C28.4489 9.7159 28.1593 9.58238 27.865 9.44886C27.8972 9.41203 27.9202 9.3798 27.9431 9.35678C27.9018 9.31074 27.865 9.2693 27.8236 9.22787C27.7454 9.2647 27.8144 9.3752 27.6994 9.40743C27.5661 9.33836 27.4144 9.2647 27.2672 9.18643C27.2994 9.14039 27.3638 9.11276 27.3454 9.02529C27.3316 9.00687 27.3086 8.97004 27.2764 8.94702C26.812 8.60631 26.2786 8.39913 25.7728 8.13669C25.5061 7.99857 25.1797 7.9203 24.9038 8.20575C24.752 7.9249 24.4118 7.90188 24.214 7.67628C23.8416 7.71772 23.4645 7.69009 23.1059 7.5888C22.9128 7.53355 22.7196 7.56118 22.5449 7.50593C22.2598 7.40924 21.9931 7.39083 21.7126 7.51053C21.6345 7.54276 21.5471 7.51053 21.4965 7.43687C21.308 7.5842 21.0275 7.45068 20.8574 7.64866C21.0827 7.70391 21.3126 7.75455 21.5425 7.82822C21.7678 7.89728 21.9839 7.98936 22.269 8.09526C22.0851 8.11367 21.9793 8.1459 21.8782 8.07684C21.7356 7.98015 21.5425 7.99397 21.4322 8.04921C21.2482 8.1459 21.0781 8.10907 20.9034 8.11828C20.6459 8.12748 20.3884 8.12748 20.1355 8.11828C19.8734 8.10907 19.6251 8.261 19.3584 8.20575C19.3308 8.20115 19.2848 8.19194 19.2756 8.20575C19.1193 8.39452 18.9032 8.23798 18.7192 8.31625C18.5399 8.39452 18.3376 8.43596 18.1399 8.45898C17.7077 8.50502 17.3168 8.67998 16.903 8.77666C16.6317 8.84112 16.3834 8.97464 16.1213 9.05751C15.7167 9.18643 15.335 9.36599 14.9534 9.54095C14.6039 9.70209 14.2682 9.89086 13.9372 10.0842C13.2199 10.4986 12.5439 10.9544 11.8956 11.4701C11.6841 11.6358 11.5231 11.8844 11.2472 11.9627C11.0679 12.0134 10.9438 12.1469 10.8748 12.2758C10.7966 12.4185 10.6863 12.5152 10.5897 12.6257C10.4656 12.7638 10.3046 12.8743 10.2035 13.0263C9.95516 13.3992 9.6149 13.6846 9.3712 14.0576C9.32521 14.0161 9.29303 13.9885 9.26084 13.9563C8.8516 14.518 8.44237 15.0797 8.03313 15.6368C8.06072 15.669 8.08831 15.7012 8.1067 15.7243C7.80322 16.4517 7.50434 17.1746 7.20546 17.902C7.15948 17.9066 7.09051 17.9158 7.02614 17.925C6.92958 18.2197 6.75944 18.4729 6.64909 18.7584C6.51114 19.1221 6.44677 19.5042 6.33641 19.8726C6.28124 20.0429 6.17548 20.2317 6.23525 20.4297C6.23985 20.4481 6.26744 20.4619 6.29043 20.4803C6.30882 20.4297 6.32722 20.379 6.34561 20.3284C6.40079 20.3007 6.45137 20.3053 6.48355 20.3514C6.39159 20.7566 6.29043 21.1525 6.31802 21.5393C6.1157 21.8615 5.90419 22.147 6.00994 22.5982C6.08351 22.4094 6.06972 22.2299 6.21686 22.1378C6.29963 22.4278 6.06972 22.6765 6.14789 22.9435C6.06972 22.9711 6.01914 22.9895 5.97316 23.0034C5.98236 23.1093 5.94557 23.2151 6.00994 23.3118C6.1157 23.2474 5.98695 23.1093 6.15249 23.0724C6.10651 23.2244 6.19847 23.3717 6.07892 23.519C6.02374 23.5881 6.04673 23.7078 6.07432 23.8045C6.16168 24.0899 6.20767 24.3846 6.23066 24.6839C6.23066 24.7253 6.23066 24.7621 6.17548 24.7667C6.09271 24.7529 6.20767 24.6102 6.06052 24.624C6.02834 25.0522 6.17548 25.4573 6.26284 25.8625C6.35021 26.2769 6.43757 26.6959 6.56632 27.1056C6.69047 27.4924 6.77324 27.8883 6.879 28.2889C6.81922 28.3349 6.71346 28.252 6.65828 28.3441C6.93877 28.8045 7.02614 29.1637 6.95257 29.4675C6.72726 29.4675 6.8606 29.2742 6.80083 29.1683C6.54333 28.7032 6.30423 28.229 6.01914 27.7732C5.83062 27.4693 5.67888 27.1194 5.88579 26.7419C5.56392 26.1618 5.25585 25.5725 5.40299 24.8726C5.49495 24.9003 5.42598 25.0107 5.54553 25.0522C5.54553 24.9049 5.59151 24.7437 5.53633 24.6286C5.42138 24.3846 5.46276 24.136 5.46276 23.8873C5.46276 23.4684 5.45357 23.054 5.52714 22.6304C5.60071 22.2161 5.54093 21.7741 5.54093 21.3459C5.45357 21.3459 5.43518 21.2584 5.3708 21.2262C5.3708 21.088 5.35701 20.9407 5.3754 20.8026C5.39379 20.6691 5.45357 20.5402 5.49495 20.402C5.59151 20.4757 5.49035 20.5862 5.57312 20.6507C5.72026 20.577 5.75705 20.4297 5.79383 20.2961C5.8812 19.9693 5.98695 19.6424 5.96856 19.3017C5.95017 19.007 6.09731 18.7353 6.06972 18.4361C6.06052 18.3486 6.10651 18.1875 6.17548 18.1046C6.3594 17.8974 6.43297 17.6166 6.6169 17.414C6.69507 17.437 6.6169 17.5291 6.70886 17.5659C6.8606 17.1515 7.03993 16.7464 7.15489 16.3274C7.26984 15.8992 7.53193 15.5677 7.76184 15.2086C7.80322 15.1441 7.90438 15.1948 7.93657 15.1119C7.91818 14.7942 8.03773 14.5088 8.14809 14.1635C8.22166 14.2648 8.26764 14.3338 8.3596 14.4627V13.9977C8.68147 13.7261 8.88839 13.3716 9.28383 13.2519C9.38039 13.0585 9.64708 13.0539 9.72985 12.8467C9.67927 12.8375 9.6149 12.8743 9.57351 12.8191C9.57351 12.7914 9.55052 12.7592 9.56432 12.7408C9.73445 12.4415 9.87239 12.1239 10.0839 11.8476C10.1851 11.7187 10.3 11.5806 10.2081 11.3642C10.0333 11.6036 9.88619 11.8246 9.78043 12.0686C9.72985 12.0502 9.71606 11.9719 9.59191 11.9995C9.49075 12.0824 9.38959 12.2804 9.16428 12.2666C9.12749 12.2666 9.06772 12.3356 9.04932 12.3817C8.96656 12.5704 8.81942 12.7178 8.69986 12.8697C8.52973 13.0861 8.45156 13.3808 8.19867 13.5557C8.21706 13.7077 8.1113 13.7629 7.98255 13.7997C8.06532 13.7169 8.14349 13.6386 8.19867 13.5557C8.18487 13.4498 8.22166 13.3624 8.15728 13.2749C7.73885 13.6524 7.63309 14.2694 7.16408 14.5963C7.20087 14.6377 7.22846 14.6653 7.26984 14.7114C7.08131 15.1211 6.76404 15.4572 6.50195 15.8209L6.58471 15.9038C6.3824 16.3688 6.24445 16.8661 6.07892 17.3541C5.94097 17.7547 5.76164 18.1644 5.80303 18.611C5.80303 18.6341 5.78004 18.6571 5.76164 18.6893C5.72486 18.6433 5.68807 18.6018 5.6329 18.542C5.59611 18.4407 5.68348 18.2934 5.55933 18.1322C5.55933 18.5604 5.23286 18.7998 5.1179 19.1405C5.15929 19.2326 5.27424 19.2648 5.29263 19.3845C5.19607 19.4766 5.18687 19.6009 5.20527 19.7252C5.24665 20.0107 5.13629 20.2731 5.09491 20.5402C5.04433 20.844 4.94317 21.1433 4.94777 21.461C4.94777 21.53 4.95697 21.6083 4.92938 21.6682C4.79603 21.9306 4.8788 22.193 4.94777 22.4601V22.0641C5.02134 22.0319 5.03054 21.9582 5.09951 21.9674C5.20987 22.4048 5.00755 22.8146 5.02594 23.2382H4.91099C4.80983 23.0862 4.77304 22.9205 4.77764 22.7363C4.78684 22.1792 4.77764 21.6221 4.77764 21.065C4.77764 21.0098 4.79143 20.9499 4.72246 20.9223C4.68108 20.9223 4.63969 20.9177 4.61211 20.9591C4.58911 21.1479 4.64889 21.3459 4.52934 21.5254C4.48796 21.5853 4.49255 21.7142 4.52934 21.7741C4.65809 21.9858 4.58452 22.2115 4.61211 22.4278C4.63969 22.6581 4.65349 22.9021 4.72246 23.1139C4.80983 23.3855 4.75465 23.6387 4.76384 23.8966C4.76384 23.9058 4.72706 23.915 4.69947 23.9242C4.69027 23.8229 4.72246 23.7308 4.58911 23.6341C4.6351 23.7538 4.56612 23.8413 4.68568 23.9518C4.66728 24.0715 4.78224 24.1498 4.78684 24.2741C4.79603 24.4214 4.67188 24.5273 4.69487 24.6654C4.71326 24.799 4.82362 24.9141 4.77764 25.0568C4.77304 25.0798 4.75005 25.1028 4.73626 25.1259C4.67648 25.0706 4.6167 25.0154 4.53853 24.9417V25.6231C4.59371 25.6737 4.64429 25.7244 4.69487 25.7704C4.66269 26.1342 4.79603 26.4703 4.8742 26.8064C4.95237 27.1286 4.99835 27.4555 5.10871 27.7732C5.22366 28.0955 5.24665 28.4546 5.31102 28.7999C5.34321 28.8828 5.47196 28.8874 5.46276 29.0117C5.44437 29.0439 5.41678 29.0854 5.38919 29.1222C5.41218 29.1959 5.49495 29.1314 5.53174 29.1867C5.56392 29.2327 5.52254 29.334 5.6237 29.334C5.6329 29.4399 5.60071 29.532 5.73406 29.6287C5.68807 29.5044 5.76164 29.4215 5.6329 29.3064V29.0209C5.68807 28.9795 5.70647 29.0117 5.71566 29.0578C5.80303 29.4353 5.8812 29.8174 5.97316 30.195C6.05593 30.5311 6.15249 30.8626 6.24905 31.1941C6.26284 31.2447 6.30423 31.2908 6.33182 31.3414C6.44677 31.2033 6.35481 31.0744 6.43297 30.9731H6.6169C6.73185 31.0559 6.74565 31.1803 6.80543 31.2677C6.67668 31.4335 6.78243 31.6315 6.72266 31.7972C6.67208 31.8156 6.6215 31.834 6.54793 31.8617C6.856 32.0596 6.77324 32.4694 7.03993 32.6812C7.14109 32.6259 7.01234 32.4832 7.13649 32.4326C7.24685 32.5753 7.32961 32.7318 7.45836 32.8608C7.52734 32.9298 7.56872 33.0449 7.58711 33.1462C7.68827 33.6527 7.88599 34.0947 8.27683 34.4492C8.56192 34.707 8.80102 35.0063 9.1045 35.2411C9.08611 35.2549 9.06772 35.2779 9.04932 35.2963C9.26544 35.614 9.6195 35.7844 9.87699 36.056C10.2494 36.452 10.6725 36.7881 11.1001 37.1242C11.3484 37.3175 11.6243 37.4603 11.868 37.6444C12.0151 37.7549 12.1301 37.7641 12.2864 37.7319C12.2634 37.6352 12.1393 37.6122 12.1347 37.4925C12.1945 37.5017 12.2404 37.4925 12.268 37.5155C12.6681 37.7549 13.0313 38.0404 13.3716 38.3627C13.4038 38.3903 13.413 38.4041 13.3716 38.4225C13.275 38.4778 13.1463 38.3857 13.0543 38.4824C13.4452 38.6849 13.8314 38.8875 14.2131 39.1085C14.6545 39.3664 15.1373 39.5551 15.6109 39.7531C15.942 39.8866 16.296 39.9557 16.6225 40.0984C16.8708 40.2089 17.1559 40.1629 17.3812 40.3286C17.3904 40.3332 17.4088 40.3286 17.4226 40.3286C17.5651 40.3286 17.7077 40.3286 17.8502 40.3286C17.8732 40.3286 17.8962 40.3056 17.9238 40.2918C17.8962 40.2596 17.8686 40.2319 17.8456 40.1997C17.887 40.1398 17.9973 40.0938 17.8962 39.9925C17.6847 39.9833 17.4593 40.0201 17.2708 39.9511C17.0133 39.859 16.7374 39.8037 16.4983 39.6426C16.3236 39.5275 16.0937 39.5229 15.919 39.3894C15.8684 39.3525 15.7534 39.3433 15.6937 39.4354C15.6523 39.4953 15.5879 39.4538 15.4959 39.4769C15.4316 39.3756 15.3258 39.2927 15.2292 39.2697C15.1327 39.1223 15.1051 38.9658 15.0085 38.8875C14.5395 38.8277 14.1717 38.5468 13.744 38.5008C13.7211 38.3673 13.813 38.3304 13.8636 38.266C14.0015 38.2476 14.1257 38.2752 14.2544 38.3442C14.3924 38.4133 14.5441 38.4732 14.6867 38.5376C15.0407 38.6849 15.427 38.7356 15.758 38.9428C15.9006 39.0349 16.0201 39.1822 16.2041 39.2098C16.227 39.2098 16.2546 39.196 16.2822 39.1914C16.342 39.1269 16.2546 39.021 16.3512 38.952C16.6639 39.0717 17.0041 39.1223 17.3168 39.2835C17.4685 39.3618 17.6663 39.3986 17.8364 39.4676C18.0111 39.5321 18.1951 39.5643 18.3698 39.6196C18.5629 39.6794 18.7652 39.638 18.9721 39.7117C19.1377 39.7715 19.3492 39.813 19.5285 39.8037C20.0481 39.7761 20.5539 39.9511 21.0735 39.905C21.2206 39.8912 21.377 39.8774 21.5103 39.9833C21.5379 40.0063 21.6437 40.0294 21.6759 39.9373C21.6529 39.905 21.6299 39.8774 21.5839 39.8176C21.7678 39.8176 21.9471 39.7669 22.0713 39.8268C22.3472 39.9603 22.6415 39.9373 22.8944 39.882C23.3174 39.7807 23.7174 39.5735 24.1543 39.4999C23.9106 39.4723 23.6485 39.4078 23.4415 39.4907C23.1289 39.6104 22.8438 39.5183 22.5449 39.5551C22.5449 39.4907 22.5449 39.463 22.5403 39.4354C22.692 39.3295 22.853 39.2927 23.0369 39.2973C23.4094 39.3065 23.7772 39.3065 24.1497 39.2973C24.3842 39.2973 24.5129 39.1914 24.5865 38.9566C24.1221 38.952 23.6898 39.2282 23.2254 39.0993V38.9566H22.5587C22.5587 38.9566 22.5587 38.9244 22.5541 38.9059C22.7242 38.8645 22.8898 38.8093 23.0645 38.7908C23.2622 38.7724 23.4599 38.7862 23.6577 38.7862C23.6669 38.7632 23.6761 38.7172 23.6898 38.7172C24.0393 38.7034 24.3796 38.6067 24.7198 38.5422C24.9451 38.4962 25.1659 38.4593 25.382 38.3857C25.5935 38.3074 25.828 38.3166 26.0257 38.1877C26.1866 38.2568 26.3154 37.9851 26.4809 38.1463V38.2752C26.6005 38.3074 26.6649 38.2291 26.7292 38.1555C26.8672 37.9989 27.0143 37.8332 27.2074 37.7687C27.5615 37.6536 27.888 37.4787 28.2052 37.3221C28.3386 37.3912 28.219 37.5293 28.3248 37.5938C28.5455 37.5938 28.7018 37.4741 28.849 37.3175C28.8766 37.2899 28.8812 37.2761 28.8352 37.2531C28.7754 37.2162 28.6742 37.2991 28.6099 37.1702C29.0099 36.9676 29.41 36.7604 29.8146 36.5625C29.8606 36.5394 29.9295 36.5625 29.9847 36.5625C29.9847 36.5118 29.9893 36.4612 29.9939 36.4197C30.0583 36.3737 30.1043 36.3829 30.1503 36.4197C30.1089 36.4888 30.0675 36.5532 29.9847 36.5671C29.9111 36.765 29.7272 36.8387 29.5525 36.9032C29.4789 36.9308 29.4743 36.9676 29.4743 37.0459C29.6629 37.138 29.8008 37.0183 29.9295 36.917C30.2836 36.6315 30.4951 36.2171 30.84 35.9225C30.8722 35.7199 31.0929 35.6601 31.1618 35.4989C31.24 35.3193 31.4423 35.3009 31.5297 35.1444C31.5803 35.0523 31.6952 35.1444 31.7642 35.0799C31.7872 35.0247 31.7918 34.9602 31.847 34.905C32.1596 34.5827 32.4769 34.2696 32.7666 33.9197C33.0563 33.5698 33.3506 33.2199 33.6403 32.8654C34.0955 32.3083 34.5001 31.7097 34.845 31.0882C35.2312 30.3976 35.5761 29.6793 35.8382 28.9288C35.9301 28.6664 36.0175 28.404 36.1095 28.1415C36.3072 27.5752 36.4359 26.9859 36.5601 26.3966C36.6383 26.0375 36.6796 25.6691 36.721 25.31C36.7624 24.9371 36.8176 24.5595 36.813 24.1866C36.8084 23.5282 36.8912 22.8606 36.744 22.2022L36.767 22.17ZM5.63749 29.0071C5.51334 28.8644 5.57312 28.7539 5.55473 28.625C5.67428 28.6802 5.6329 28.7539 5.63749 28.8137C5.64209 28.8736 5.63749 28.9288 5.63749 29.0071ZM26.5637 8.89177C26.6465 8.88716 26.7292 8.89177 26.7982 8.89177C26.8488 8.94241 26.8856 8.97924 26.927 9.02068C26.9086 9.03449 26.881 9.06672 26.8626 9.06212C26.7384 9.02989 26.6373 8.9332 26.4028 9.00226C26.5223 8.91939 26.5407 8.89637 26.5637 8.89637V8.89177ZM20.6873 37.3175C13.367 37.3175 7.43077 31.3598 7.43077 24.0071C7.43077 16.6543 13.367 10.6966 20.6873 10.6966C28.0075 10.6966 33.9437 16.6543 33.9437 24.0071C33.9437 31.3598 28.0075 37.3175 20.6873 37.3175Z" fill="black"/>
<path d="M22.1264 40.2412H18.7237C18.7237 40.2642 18.7329 40.2872 18.7375 40.3102C18.8755 40.3102 19.0272 40.278 19.156 40.3148C19.5376 40.4253 19.9238 40.4898 20.3239 40.4806C20.3791 40.4806 20.4388 40.4806 20.4848 40.499C20.7745 40.6325 21.0688 40.545 21.3585 40.545C21.3815 40.5128 21.3999 40.4806 21.4228 40.4484C21.3447 40.4207 21.2619 40.3931 21.1837 40.3655C21.5102 40.3056 21.8045 40.3056 22.0988 40.3056C22.108 40.3056 22.1218 40.2872 22.131 40.278C22.154 40.2274 22.0666 40.2688 22.131 40.2458L22.1264 40.2412Z" fill="black"/>
<path d="M11.7255 10.8163C11.652 10.692 11.6106 10.5769 11.606 10.4388C11.3071 10.5631 11.114 10.7795 10.9484 11.0005C10.7875 11.2169 10.5484 11.401 10.5024 11.7786C10.7277 11.553 10.9025 11.378 11.0772 11.2031C11.2565 11.0189 11.4726 10.8946 11.7255 10.8209V10.8163Z" fill="black"/>
<path d="M26.8487 39.2836C26.7567 39.2928 26.6647 39.3665 26.5958 39.4033C26.5774 39.4816 26.5958 39.5138 26.6555 39.5506C26.7475 39.4908 26.8487 39.4309 26.982 39.4447C27.1062 39.4586 27.2119 39.2744 27.3499 39.3987C27.3591 39.4447 27.3682 39.4816 27.3774 39.5276C27.4648 39.4816 27.543 39.4447 27.6211 39.4079C27.5844 39.3204 27.6763 39.2882 27.6763 39.1823C27.405 39.325 27.1291 39.2652 26.8579 39.2882L26.8487 39.2836Z" fill="black"/>
<path d="M14.4017 8.90108C14.2546 8.99777 14.0523 9.04841 13.9879 9.3707C14.3281 9.20035 14.5994 9.06683 14.9351 8.90108H14.4017Z" fill="black"/>
<path d="M7.08576 17.5751C7.31567 17.437 7.34326 17.2252 7.37545 17.0456C7.41223 16.8477 7.58237 16.6681 7.46281 16.378C7.37085 16.8154 7.10876 17.1377 7.08576 17.5751Z" fill="black"/>
<path d="M16.2871 8.18733C16.3928 8.08144 16.4664 8.01238 16.517 7.95713C16.4526 7.95252 16.3376 7.90648 16.2457 7.98936C16.1215 8.09986 16.0296 8.00317 15.91 7.95713V8.28862C16.0663 8.34387 16.1997 8.16431 16.2871 8.18733Z" fill="black"/>
<path d="M18.4527 7.69929C18.4205 7.78677 18.3561 7.8236 18.2733 7.86964C18.1952 7.91108 18.0572 7.90187 18.0342 8.03079C18.4251 8.09064 18.8021 7.92489 19.2711 7.94331C19.3171 7.89727 19.4045 7.80979 19.4827 7.72692C19.4919 7.73152 19.5286 7.75915 19.5654 7.76835C19.5884 7.77296 19.616 7.75454 19.6114 7.75454C19.5792 7.71771 19.5424 7.66706 19.4827 7.598C19.3999 7.63023 19.2665 7.55196 19.1424 7.63023C19.1746 7.66706 19.1976 7.69469 19.2298 7.72692C19.1378 7.77296 19.0458 7.819 18.9585 7.86044C18.7975 7.75454 18.655 7.64865 18.4619 7.68088C18.4573 7.5934 18.3791 7.57038 18.3469 7.51513H17.8135C17.7584 7.58419 17.6572 7.62102 17.7216 7.75915C17.9653 7.819 18.1998 7.598 18.4573 7.69008L18.4527 7.69929Z" fill="black"/>
<path d="M26.0306 38.5929C25.9984 38.5607 25.9662 38.5377 25.934 38.5054C25.8282 38.6712 25.6029 38.6113 25.4834 38.7541C25.3638 38.7679 25.2811 38.731 25.2167 38.8139C25.2995 38.8692 25.3822 38.8784 25.511 38.7633C25.8328 38.8001 26.1041 38.6113 26.4076 38.5653C26.3892 38.4594 26.2191 38.5561 26.2375 38.418H26.1041C26.0765 38.4732 26.0536 38.5331 26.026 38.5883L26.0306 38.5929Z" fill="black"/>
<path d="M15.7905 8.56946C15.7353 8.55104 15.6893 8.53723 15.6388 8.51881C15.6985 8.41292 15.7997 8.37609 15.8962 8.31163C15.5882 8.31163 15.3813 8.42673 15.3813 8.58327C15.4226 8.62471 15.464 8.67075 15.5146 8.72139C15.5514 8.55565 15.7491 8.71219 15.7905 8.56486V8.56946Z" fill="black"/>
<path d="M24.0897 38.7633H23.6759C23.6621 38.906 23.5517 38.8277 23.4828 38.8507C23.4046 38.8784 23.2758 38.7679 23.2483 38.9336H23.9978C23.9794 38.906 23.961 38.8784 23.9426 38.8507C24.0024 38.8415 24.0575 38.8277 24.1173 38.8185C24.1081 38.8001 24.0989 38.7817 24.0897 38.7633Z" fill="black"/>
<path d="M12.3324 10.1764C12.2312 10.2823 12.1623 10.3606 12.0887 10.4389C12.2726 10.3698 12.4749 10.3284 12.7232 10.1764H12.3324Z" fill="black"/>
<path d="M25.8282 39.8728C26.0443 39.905 26.1914 39.8038 26.334 39.661C26.0903 39.638 26.0121 39.6702 25.8282 39.8728Z" fill="black"/>
<path d="M6.22615 16.2216C6.18017 16.3137 6.14798 16.3735 6.11579 16.438C6.07441 16.5208 6.02843 16.659 6.11119 16.8155C6.15258 16.6083 6.26753 16.4564 6.22615 16.2216Z" fill="black"/>
<path d="M24.4258 39.9327C24.5684 39.9741 24.6787 39.9879 24.8121 39.9189C24.6787 39.859 24.5638 39.8498 24.4258 39.9327Z" fill="black"/>
<path d="M6.19374 20.8256C6.26271 20.7382 6.26271 20.6507 6.19374 20.5586C6.12477 20.6461 6.12477 20.7336 6.19374 20.8256Z" fill="black"/>
<path d="M24.7978 39.7393C24.7978 39.7807 24.7933 39.8314 24.7887 39.882C24.876 39.8682 24.9128 39.8083 24.9542 39.7439C24.9128 39.6978 24.8622 39.7025 24.8025 39.7439L24.7978 39.7393Z" fill="black"/>
<path d="M11.992 10.1717C11.992 10.1717 12.0288 10.1533 12.038 10.1256C12.038 10.121 12.0196 10.098 12.015 10.1026C11.9782 10.1118 11.9598 10.1349 11.9644 10.1717C11.8908 10.1809 11.8265 10.1533 11.7897 10.25C11.8541 10.2592 11.9092 10.2868 11.992 10.1717Z" fill="black"/>
<path d="M28.0123 37.9069H27.8973C27.7916 38.0174 27.7226 38.0911 27.6536 38.1648C27.7916 38.1279 27.9341 38.0773 28.0675 37.9069C28.1272 37.9069 28.1824 37.9162 28.21 37.8333C28.1456 37.8241 28.0905 37.7964 28.0123 37.9023V37.9069Z" fill="black"/>
<path d="M26.2418 38.4226C26.3062 38.4088 26.4074 38.4641 26.412 38.3352C26.3476 38.349 26.2464 38.2937 26.2418 38.4226Z" fill="black"/>
<path d="M6.27231 16.2675C6.34128 16.2537 6.33668 16.1708 6.2861 16.111C6.26771 16.1248 6.23552 16.1524 6.24012 16.157C6.26311 16.1938 6.18954 16.2905 6.2769 16.2721L6.27231 16.2675Z" fill="black"/>
<path d="M17.9607 8.08156C17.9607 8.08156 17.9791 8.10919 17.9837 8.10458C18.0205 8.09537 18.0388 8.06762 18.0342 8.03079C17.9929 8.02158 17.9699 8.04013 17.9607 8.08156Z" fill="black"/>
<path d="M12.7232 10.1258C12.7232 10.1258 12.7048 10.0982 12.7002 10.1028C12.6634 10.112 12.645 10.1396 12.6496 10.1764C12.691 10.1856 12.714 10.1672 12.7232 10.1258Z" fill="black"/>
<path d="M9.81728 12.7869C9.81728 12.7869 9.79889 12.7592 9.79429 12.7638C9.75751 12.773 9.73912 12.8007 9.74371 12.8375C9.7851 12.8467 9.80809 12.8283 9.81728 12.7869Z" fill="black"/>
<path d="M5.62368 21.286C5.62368 21.286 5.60529 21.2584 5.60069 21.263C5.5639 21.2722 5.54551 21.2998 5.55011 21.3367C5.59149 21.3459 5.61448 21.3275 5.62368 21.286Z" fill="black"/>
<path d="M5.12276 19.3202C5.09517 19.2787 5.06758 19.2787 5.03999 19.3202C5.06758 19.3616 5.09517 19.3616 5.12276 19.3202Z" fill="black"/>
<path d="M26.412 38.3352C26.4717 38.3352 26.4991 38.3074 26.4991 38.2476C26.4394 38.2476 26.412 38.2753 26.412 38.3352Z" fill="black"/>
<path d="M64.3745 22.0826V22.0887H64.3807L64.3745 22.0826Z" fill="black"/>
<path d="M64.3744 22.0872C64.2457 21.9675 64.1077 21.9168 63.9376 22.0181C63.7583 22.1194 63.5973 22.2483 63.4456 22.3773C62.4386 23.2751 61.473 24.2143 60.5672 25.2088C60.02 25.8073 59.5004 26.4243 58.9394 27.032C59.0406 26.6545 59.1371 26.2723 59.2475 25.8948C59.4268 25.218 59.6567 24.5412 59.7947 23.8414C59.8544 23.5099 59.6475 23.2428 59.2659 23.1323C58.9992 23.0495 58.9348 23.0955 58.7739 23.5007C58.5854 23.9703 58.4244 24.4445 58.2681 24.9233C57.8129 25.1996 57.376 25.508 56.93 25.7889C56.4242 26.1066 55.9138 26.4335 55.3758 26.7189C55.3437 26.5992 55.3988 26.5117 55.4218 26.4197C55.5598 26.0421 55.6977 25.66 55.8495 25.2917C55.9184 25.1075 55.8724 24.9832 55.7299 24.8727C55.5138 24.6931 55.2609 24.6056 54.9528 24.6655C55.054 24.4353 55.1505 24.2373 55.2287 24.0255C55.3207 23.7953 55.2747 23.5789 55.0908 23.4178C54.7137 23.0955 54.2861 22.9344 53.7849 23.0679C53.4078 23.1692 53.0768 23.3763 52.7779 23.6158C51.9364 24.2741 51.2421 25.0661 50.6535 25.9454C49.7247 26.5578 48.8695 27.2668 47.9866 27.9574C47.2095 28.5744 46.483 29.265 45.6645 29.8221C45.5818 29.8681 45.5036 29.9832 45.4254 29.9372C45.3335 29.8912 45.3932 29.7668 45.3932 29.6748C45.4392 28.9749 45.6599 28.3304 45.922 27.6904C46.8371 25.416 47.9636 23.2428 49.0718 21.0513C49.3109 20.5724 49.55 20.0982 49.7891 19.6056C49.8259 19.5043 49.881 19.4076 49.8259 19.2971C49.6557 18.9288 49.1178 18.8781 48.8787 19.1958C48.7959 19.3155 48.7177 19.449 48.6395 19.5641C47.9176 20.7428 47.2555 21.9537 46.6348 23.183C45.8761 24.6793 45.099 26.1572 44.515 27.7272C44.2989 28.3027 44.1472 28.9013 44.1977 29.532C44.2575 30.2687 44.8829 30.8442 45.6507 30.8534C45.9082 30.8534 46.1565 30.7245 46.4048 30.5772C46.8739 30.2779 47.2877 29.9188 47.7015 29.532C48.4418 28.8276 49.1959 28.137 49.9638 27.4556C49.9178 27.8331 50.0466 28.1048 50.4006 28.3442C50.9064 28.6895 51.426 28.7816 51.9916 28.4271C52.7227 27.9574 53.3665 27.3911 54.0148 26.8202C54.0838 26.7604 54.1435 26.7051 54.2677 26.6038C54.2079 27.0044 54.3367 27.2714 54.6263 27.451C55.0264 27.6904 55.431 27.7595 55.877 27.5707C56.2081 27.4326 56.5162 27.2622 56.8059 27.055C57.1553 26.811 57.5002 26.5532 57.8359 26.2861C57.7025 26.7926 57.5922 27.299 57.6014 27.8331C57.6105 28.3626 57.8634 28.7033 58.36 28.8783C58.5762 28.9565 58.7739 28.9243 58.9486 28.7585C59.1647 28.5422 59.3762 28.2981 59.5556 28.0495C60.9994 26.0145 62.5812 24.09 64.3377 22.3082C64.425 22.2207 64.4204 22.1517 64.3377 22.0826L64.3744 22.0872ZM54.4976 25.1029C53.6837 25.8395 52.8377 26.5486 51.9088 27.1471C51.9088 27.1471 51.8858 27.1471 51.8399 27.1379C52.5388 25.9685 53.3435 24.9049 54.4194 23.9933C54.4194 24.2557 54.4102 24.4537 54.3367 24.6241C54.2677 24.7944 54.3275 24.8865 54.4562 24.9417C54.5482 24.9786 54.585 25.0246 54.4976 25.1029Z" fill="black"/>
<path d="M95.3661 24.4444C95.3155 24.4306 95.265 24.4306 95.2282 24.4444C94.9109 24.5273 94.6212 24.4444 94.3407 24.297C93.9729 24.0899 93.605 24.1083 93.2418 24.3339C93.1222 24.4029 93.0027 24.4812 92.8233 24.5963C92.9337 24.4075 93.0073 24.2648 93.0762 24.1359C93.2234 23.8597 93.1866 23.7077 92.9153 23.5051C92.5842 23.2565 92.3543 23.2381 92.1382 23.4591C91.9221 23.6663 91.729 23.9195 91.5497 24.1681C91.3335 24.4858 91.122 24.8035 90.9197 25.1258C89.8253 25.7105 88.731 26.3044 87.6228 26.8938C86.9653 27.2391 86.317 27.6028 85.6088 27.8238C85.3605 27.9021 85.3192 27.8698 85.31 27.6028C85.287 27.0641 85.4893 26.5807 85.71 26.088C86.694 26.8247 87.2366 26.4978 87.6688 25.9683C88.1378 25.3974 88.4551 24.7252 88.6252 24.0116C88.7264 23.5742 88.5838 23.2059 88.2068 22.9342C87.6274 22.5245 87.0205 22.5337 86.4733 22.9849C86.0962 23.2933 85.7744 23.6433 85.5077 24.0438C85.2042 24.4812 84.9191 24.9278 84.68 25.402C83.7788 26.2492 82.8913 27.1056 81.9901 27.9527C81.8889 28.0632 81.7694 28.1507 81.6222 28.2704C81.59 27.9711 81.6314 27.7409 81.705 27.5107C81.9211 26.7648 82.174 26.042 82.5189 25.356C83.5857 23.2105 84.7904 21.1478 85.9445 19.0438C86.1744 18.634 86.4457 18.2565 86.6526 17.8283C86.6894 17.7592 86.7446 17.6671 86.6894 17.5658C86.5515 17.3126 85.9445 17.2758 85.7928 17.5198C85.3146 18.2979 84.7352 19.0023 84.2892 19.8126C84.1006 20.181 83.8615 20.5355 83.604 20.8486C83.0753 21.5162 82.5465 22.1792 82.0315 22.8329C81.9395 22.9342 81.8843 23.0724 81.7694 23.123C81.6498 23.169 81.5717 23.0033 81.4521 22.9526C80.7348 22.6119 80.0543 22.6764 79.4105 23.1322C78.6886 23.6294 78.1184 24.2602 77.631 24.96C76.5183 25.554 75.4009 26.1479 74.2514 26.682C74.1502 26.7326 74.0445 26.8017 73.9019 26.8017C73.9111 26.682 73.9249 26.5853 73.9433 26.484C74.0537 26.0052 74.164 25.5309 74.2606 25.0383C74.3618 24.5226 74.2238 24.2786 73.7456 24.0853C73.4559 23.9655 73.1984 23.9932 72.9317 24.1543C72.5731 24.3615 72.2558 24.6331 71.9431 24.914C71.3362 25.4527 70.7292 26.0006 70.0993 26.5669C70.0901 26.4564 70.1452 26.3965 70.1774 26.3275C70.6143 25.3882 71.1155 24.4812 71.6213 23.5834C71.727 23.3946 71.6902 23.2519 71.5293 23.146C71.0373 22.8053 70.7614 22.8053 70.4441 23.2243C69.9751 23.8412 69.5613 24.4904 69.1842 25.1626C68.1175 25.7335 67.0415 26.3182 65.9609 26.8938C65.3034 27.2391 64.655 27.6028 63.9469 27.8238C63.6986 27.9021 63.6572 27.8698 63.6481 27.6028C63.6251 27.0641 63.8274 26.5807 64.0481 26.088C65.0321 26.8247 65.5747 26.4978 66.0069 25.9683H66.0115C66.4805 25.3974 66.7978 24.7252 66.9679 24.0116C67.0691 23.5742 66.9311 23.2059 66.5495 22.9342C65.9747 22.5245 65.3632 22.5337 64.816 22.9849C64.4389 23.2933 64.1171 23.6433 63.8504 24.0438C63.2618 24.9002 62.7238 25.798 62.4847 26.8247C62.3652 27.345 62.4755 27.8146 62.894 28.1691C63.34 28.5374 63.8504 28.7308 64.4389 28.6756C64.9309 28.6387 65.377 28.4361 65.8046 28.2059C66.7334 27.7225 67.6071 27.1608 68.4761 26.5807C68.3336 26.9076 68.2324 27.2391 68.191 27.589C68.1542 27.9481 68.2922 28.1967 68.6508 28.3855C68.9911 28.5697 69.3406 28.694 69.6854 28.3947C69.9613 28.1461 70.2142 27.879 70.4625 27.6074C71.2488 26.7787 72.0673 25.9821 72.9409 25.2547C73.0007 25.2087 73.0697 25.1626 73.1708 25.0843C73.0421 25.6322 72.872 26.1019 72.8306 26.6129C72.7984 26.972 72.9317 27.2529 73.249 27.4509V27.437C73.6306 27.6673 74.0399 27.7455 74.4675 27.5982C74.6836 27.5199 74.8951 27.4278 75.1067 27.3219C75.686 27.0273 76.247 26.6958 76.8034 26.3597C76.6424 26.7004 76.5137 27.0503 76.4263 27.4094C76.3252 27.8376 76.4585 28.1461 76.8034 28.3855C77.4103 28.8137 78.1368 28.7768 78.684 28.275C79.1208 27.8836 79.5117 27.4463 79.8979 27.0227C80.3256 26.5531 80.7256 26.0696 81.1348 25.554C81.1578 25.646 81.1027 25.7151 81.0889 25.775C80.9003 26.2354 80.7302 26.6912 80.5922 27.1608C80.5095 27.4232 80.4681 27.6765 80.4681 27.9481C80.5095 28.6479 80.8544 28.984 81.5533 29.0255C81.8154 29.0485 82.0453 28.9886 82.2706 28.8413C82.5327 28.6802 82.7764 28.496 82.9925 28.2842C83.3741 27.8975 83.742 27.4969 84.1052 27.0917C84.0777 27.5015 84.211 27.8698 84.5513 28.1645C84.9973 28.5328 85.5123 28.7262 86.0962 28.6709C86.5882 28.6341 87.0343 28.4315 87.4619 28.2013C88.3861 27.7179 89.2552 27.1608 90.115 26.5899C90.0369 26.7648 89.9541 26.9352 89.8897 27.1148C89.692 27.6442 89.8575 27.9849 90.3955 28.1829C90.5932 28.252 90.745 28.229 90.8875 28.0356C91.3335 27.3496 91.8255 26.7004 92.3911 26.1019C92.8187 25.6414 93.2464 25.1948 93.789 24.8633C94.051 24.7022 94.2947 24.6331 94.5936 24.7943C94.8557 24.9232 95.1408 24.9785 95.4213 24.8541C95.5133 24.8173 95.6742 24.8035 95.6604 24.6746C95.6374 24.5457 95.4995 24.4766 95.3707 24.4444H95.3661ZM86.1468 25.2501C86.5331 24.5457 86.9929 23.8919 87.632 23.3808C87.6412 23.3716 87.6688 23.3716 87.6918 23.3578C87.7332 23.4499 87.701 23.5374 87.678 23.6202C87.4619 24.3569 87.1032 25.0061 86.5423 25.5448C86.4825 25.6046 86.4043 25.7335 86.3261 25.646C86.2342 25.5448 86.0641 25.4066 86.1468 25.2547V25.2501ZM64.4895 25.2501C64.8758 24.5457 65.3356 23.8919 65.9747 23.3808C65.9839 23.3716 66.0115 23.3716 66.0345 23.3578C66.0759 23.4499 66.0437 23.5374 66.0207 23.6202C65.8046 24.3569 65.4459 25.0061 64.885 25.5448C64.8252 25.6046 64.747 25.7335 64.6688 25.646C64.5769 25.5448 64.4067 25.4066 64.4895 25.2547V25.2501ZM80.652 24.4904C79.8841 25.3744 79.0841 26.2308 78.2426 27.0503C78.2104 27.0825 78.1828 27.1102 78.1414 27.1424C78.6794 25.7796 79.4749 24.6193 80.6152 23.7123C80.7946 23.5742 80.813 23.5834 80.8451 23.8044C80.8773 24.0576 80.8451 24.2832 80.6566 24.4904H80.652Z" fill="black"/>
<path d="M97.6236 27.1057C97.5547 27.0688 97.4949 27.055 97.4351 27.0228C97.1362 26.8617 96.8603 26.8847 96.5983 27.1011C96.3683 27.3082 96.1982 27.5615 96.0925 27.8607C95.9637 28.2383 96.0787 28.4501 96.4787 28.5053C96.5477 28.5145 96.6167 28.5145 96.7316 28.5283C97.2236 28.4915 97.5869 28.1968 97.8673 27.7825C98.0651 27.4832 97.9593 27.2346 97.6282 27.1057H97.6236Z" fill="black"/>
<path d="M119.162 20.8808C119.185 20.7795 119.079 20.7427 119.014 20.7105C118.964 20.6782 118.913 20.6736 118.853 20.6644C118.504 20.5723 118.155 20.5723 117.796 20.5954C116.26 20.6967 114.738 20.9131 113.212 21.1571C112.775 21.2261 112.333 21.3044 111.896 21.3873C111.873 21.309 111.919 21.2584 111.942 21.2169C112.48 20.181 113.055 19.1727 113.639 18.1644C113.74 17.9848 113.855 17.9112 114.058 17.8974C116.081 17.6672 118.104 17.46 120.132 17.308C122.072 17.1791 124.017 17.0318 125.967 17.1377C126.05 17.1377 126.128 17.1377 126.197 17.1147C126.358 17.0778 126.376 16.9765 126.256 16.8752C126.119 16.7463 125.939 16.7141 125.764 16.6865C124.987 16.5576 124.201 16.5161 123.415 16.5161C120.435 16.5069 117.469 16.7233 114.508 17.0134C114.379 17.0272 114.232 17.0824 114.278 16.8522C114.278 16.7924 114.232 16.7509 114.186 16.7233C113.869 16.4333 113.428 16.4701 113.152 16.7924C113.083 16.8845 113.005 16.9719 112.945 17.0686C112.862 17.1699 112.775 17.2067 112.646 17.2298C109.768 17.5705 106.889 17.9894 104.038 18.5373C102.696 18.7906 101.357 19.0438 100.052 19.4535C99.8217 19.5364 99.5918 19.6009 99.4033 19.7528C99.2056 19.8909 99.1964 20.0429 99.3711 20.2132C99.532 20.3744 99.7389 20.4665 99.9459 20.5217H99.955C100.461 20.6828 100.99 20.7105 101.5 20.8118C102.498 21.0005 103.551 20.9729 104.438 21.5991C104.521 21.6589 104.654 21.6911 104.728 21.576C104.806 21.4655 104.728 21.3689 104.645 21.286C104.484 21.1248 104.277 21.0236 104.061 20.9453C103.404 20.6921 102.709 20.577 102.029 20.425C101.836 20.3882 101.661 20.356 101.482 20.3099C101.312 20.2731 101.137 20.2731 100.976 20.1626C104.641 19.1635 108.388 18.634 112.182 18.1184C112.122 18.2196 112.09 18.2657 112.062 18.3163C111.487 19.1865 110.908 20.0705 110.439 21.0097C110.149 21.5853 109.791 21.9858 109.11 22.0272C109.041 22.0365 108.963 22.0641 108.894 22.0871C108.048 22.3403 107.211 22.5843 106.415 22.9849C106.323 23.0309 106.195 23.077 106.218 23.2013C106.227 23.3302 106.356 23.3809 106.457 23.4223C106.747 23.5374 107.027 23.4453 107.271 23.3532C107.928 23.1138 108.604 22.9527 109.285 22.7547C109.331 22.7455 109.395 22.7087 109.464 22.7639C109.418 22.8652 109.363 22.9527 109.317 23.054C108.411 24.868 107.62 26.7326 106.967 28.648C106.751 29.2879 106.567 29.9325 106.567 30.6139C106.567 31.0835 106.774 31.3229 107.211 31.4519C107.597 31.5624 107.887 31.4519 108.149 31.1618C108.342 30.9546 108.328 30.8165 108.048 30.7751C107.749 30.7244 107.772 30.5863 107.859 30.3745C107.891 30.3054 107.896 30.2364 107.928 30.1765C108.894 27.5246 109.993 24.9186 111.308 22.4186C111.368 22.2989 111.446 22.239 111.584 22.2114C112.044 22.1285 112.499 22.0319 112.959 21.9444C114.963 21.5853 116.931 21.1387 118.955 20.9775C119.037 20.9683 119.134 20.9775 119.152 20.8854L119.162 20.8808Z" fill="black"/>
<path d="M118.127 21.6774C117.58 21.7373 117.069 21.8984 116.591 22.17C116.481 22.2299 116.343 22.3082 116.402 22.4877C116.504 22.7962 117.032 23.0172 117.317 22.856C117.855 22.5568 118.393 22.2805 118.991 22.147C119.138 22.1148 119.138 22.0365 119.06 21.9398C118.89 21.7096 118.651 21.6221 118.375 21.6636C118.292 21.6636 118.205 21.6636 118.122 21.682L118.127 21.6774Z" fill="black"/>
<path d="M126.164 22.0872C126.036 21.9675 125.898 21.9168 125.728 22.0181C125.548 22.1194 125.387 22.2483 125.236 22.3772C124.229 23.275 123.263 24.2143 122.357 25.2088C121.81 25.8073 121.29 26.4243 120.729 27.032C120.831 26.6545 120.927 26.2723 121.037 25.8948C121.217 25.218 121.447 24.5412 121.585 23.8413C121.644 23.5099 121.438 23.2428 121.056 23.1323C120.789 23.0494 120.725 23.0955 120.564 23.5006C120.394 23.9242 120.247 24.3524 120.104 24.7806C119.925 24.8543 119.75 24.9325 119.575 25.0246C118.577 25.5633 117.584 26.125 116.577 26.6591C116.476 26.7189 116.38 26.7696 116.242 26.8432C116.278 26.7051 116.288 26.613 116.32 26.5255C116.508 25.9362 116.697 25.3423 116.89 24.7438C117.037 24.2649 116.959 24.0992 116.522 23.8552C116.186 23.6756 116.03 23.7078 115.823 24.0163C115.248 24.8543 114.908 25.7843 114.789 26.7788C114.669 27.6674 115.662 28.4132 116.499 28.0863H116.504C116.89 27.9206 117.239 27.7042 117.589 27.4648C118.325 26.9491 119.037 26.4196 119.768 25.8994C119.584 26.5348 119.419 27.1701 119.424 27.8423C119.433 28.3718 119.686 28.7125 120.182 28.8875C120.398 28.9657 120.601 28.9335 120.771 28.7677C120.987 28.5514 121.198 28.3073 121.378 28.0587C122.822 26.0237 124.403 24.0992 126.16 22.3174C126.247 22.2299 126.243 22.1608 126.16 22.0918L126.164 22.0872Z" fill="black"/>
<path d="M132.409 24.9141C132.23 24.753 132.032 24.7345 131.802 24.7944C131.604 24.845 131.416 24.9233 131.223 25.0246C130.068 25.6416 128.91 26.2723 127.746 26.8893C127.089 27.2346 126.44 27.5983 125.732 27.8193C125.484 27.8976 125.443 27.8653 125.433 27.5983C125.41 27.0596 125.613 26.5762 125.834 26.0835C126.818 26.8202 127.36 26.4933 127.792 25.9638C128.261 25.3929 128.579 24.7207 128.753 24.0071C128.855 23.5697 128.712 23.2014 128.335 22.9297C127.76 22.52 127.149 22.5292 126.601 22.9804C126.224 23.2889 125.903 23.6388 125.636 24.0393C125.047 24.8957 124.509 25.7935 124.27 26.8202C124.151 27.3405 124.261 27.8101 124.679 28.1646C125.125 28.5329 125.636 28.7263 126.224 28.6711C126.716 28.6342 127.162 28.4316 127.59 28.2014C129.287 27.3174 130.809 26.1802 132.413 25.1397C132.542 25.0568 132.515 24.9924 132.413 24.9095L132.409 24.9141ZM126.28 25.2502C126.666 24.5458 127.126 23.892 127.765 23.3809C127.774 23.3717 127.802 23.3717 127.825 23.3579C127.866 23.45 127.834 23.5375 127.811 23.6203C127.595 24.357 127.236 25.0062 126.675 25.5449C126.615 25.6047 126.537 25.7336 126.459 25.6462C126.367 25.5449 126.197 25.4067 126.28 25.2548V25.2502Z" fill="black"/>
</svg>
