<svg width="120" height="48" viewBox="0 0 120 48" fill="none" xmlns="http://www.w3.org/2000/svg">
<path d="M66.891 22.4743C65.8003 22.4743 64.9613 22.8717 64.374 23.6577H64.3254C64.0649 23.2691 63.7248 22.9777 63.3009 22.7745C62.877 22.5714 62.3648 22.4743 61.7642 22.4743C61.1328 22.4743 60.6073 22.5979 60.1834 22.8319C59.7594 23.0704 59.4062 23.4104 59.128 23.8432H58.6113V22.6067H56.346V24.8279H57.4544V30.0032H59.7197V26.0466C59.7197 25.5256 59.8389 25.1326 60.0774 24.8765C60.3158 24.6203 60.6735 24.4967 61.1504 24.4967C62.1351 24.4967 62.6297 25.0134 62.6297 26.0511V30.0076H64.895V26.0511C64.895 25.0134 65.3808 24.4967 66.3522 24.4967C67.3237 24.4967 67.8095 25.0134 67.8095 26.0511V30.0076H70.0748V25.6051C70.0748 24.6513 69.7877 23.8962 69.2181 23.3221C68.6485 22.7525 67.8713 22.4698 66.8954 22.4698L66.891 22.4743Z" fill="black"/>
<path d="M76.981 22.9335C76.3893 22.6244 75.6783 22.4654 74.857 22.4654C74.0356 22.4654 73.3203 22.62 72.7153 22.9335C72.1015 23.2426 71.6379 23.6886 71.3023 24.2627C70.9667 24.8367 70.8033 25.5167 70.8033 26.2983C70.8033 27.0799 70.9667 27.76 71.3023 28.3384C71.6379 28.9169 72.1059 29.3673 72.7153 29.6809C73.3247 30.0032 74.0312 30.1578 74.8437 30.1578H74.8393C75.6651 30.1533 76.376 29.9988 76.9721 29.6853C77.5727 29.3762 78.0364 28.9257 78.3675 28.3473C78.6987 27.7688 78.8621 27.0932 78.8621 26.3072C78.8621 25.5212 78.6987 24.8367 78.3675 24.2627C78.0364 23.6886 77.5771 23.2426 76.981 22.9335ZM76.1464 27.6717C75.8461 28.0161 75.4134 28.1839 74.8481 28.1839C74.2829 28.1839 73.8369 28.0117 73.5278 27.6717C73.2231 27.3272 73.073 26.8724 73.073 26.2939C73.073 25.7155 73.2275 25.265 73.5278 24.9339C73.8325 24.5983 74.2829 24.4349 74.8481 24.4349C75.4134 24.4349 75.8461 24.5983 76.1464 24.9339C76.4467 25.2695 76.5968 25.7199 76.5968 26.2939C76.5968 26.868 76.4467 27.3316 76.1464 27.6717Z" fill="black"/>
<path d="M84.6909 22.4787C84.0197 22.4787 83.4678 22.6023 83.0306 22.8408C82.5978 23.0792 82.2357 23.4148 81.9399 23.8432H81.4232V22.6067H79.1579V24.8279H80.2663V30.0076H80.2707L82.536 30.012V26.0555C82.536 25.5477 82.6685 25.1591 82.9379 24.8941C83.2072 24.6292 83.5958 24.4967 84.1169 24.4967C84.6379 24.4967 85.0265 24.6292 85.2915 24.8941C85.5609 25.1591 85.6933 25.5433 85.6933 26.0555V30.012H87.9586V25.6095C87.9586 24.6557 87.676 23.9006 87.1152 23.3265C86.5544 22.7569 85.7463 22.4743 84.6954 22.4743L84.6909 22.4787Z" fill="black"/>
<path d="M93.4962 25.4991L91.7961 25.1635C91.5842 25.1193 91.4252 25.0531 91.3148 24.9648C91.2088 24.872 91.1558 24.7616 91.1558 24.6292C91.1558 24.4481 91.2397 24.3112 91.4208 24.2229C91.6018 24.1346 91.8491 24.086 92.1803 24.086C92.5866 24.086 92.8868 24.1611 93.0988 24.3024C93.3108 24.4481 93.4565 24.6777 93.536 25.0001H95.7174C95.6688 24.1964 95.3464 23.5694 94.7591 23.1234C94.1718 22.6818 93.3593 22.461 92.3349 22.461C91.3104 22.461 90.5023 22.673 89.9194 23.1057C89.3365 23.534 89.0451 24.1125 89.0451 24.8367C89.0451 25.9539 89.8002 26.6604 91.3104 26.9563L92.9619 27.2786C93.218 27.3316 93.3947 27.4023 93.5095 27.495C93.6154 27.5878 93.6729 27.7158 93.6729 27.8704C93.6729 28.259 93.3063 28.4488 92.5645 28.4488C92.0876 28.4488 91.7255 28.3694 91.4782 28.2148C91.2221 28.0602 91.0675 27.8174 91.0013 27.4906H88.8199C88.8685 28.3296 89.2129 28.9832 89.8443 29.4512C90.4802 29.9193 91.3546 30.1533 92.4629 30.1533H92.4673C93.5404 30.1578 94.3661 29.9414 94.9358 29.5042C95.5054 29.0671 95.7924 28.4621 95.7924 27.6893C95.7924 27.0888 95.6026 26.6163 95.236 26.263C94.8651 25.9098 94.2866 25.6536 93.4962 25.4991Z" fill="black"/>
<path d="M99.528 24.3863H101.131V22.6112H99.5059V20.39H97.2892V22.6112H96.0307V24.3863H97.2627V28.2325C97.2627 28.8375 97.4217 29.279 97.7396 29.5705C98.0576 29.8619 98.5036 30.0076 99.0776 30.0076H101.303V28.2325H99.528V24.3863Z" fill="black"/>
<path d="M107.596 22.907C107.026 22.6111 106.359 22.461 105.56 22.461C104.761 22.461 104.072 22.6156 103.485 22.9247C102.897 23.2338 102.442 23.6754 102.129 24.245C101.811 24.8146 101.652 25.4947 101.652 26.2851C101.652 27.0755 101.811 27.76 102.138 28.3384C102.465 28.9169 102.924 29.3673 103.524 29.6808C104.12 30.0032 104.827 30.1578 105.644 30.1578L105.653 30.1489C106.655 30.1489 107.481 29.9237 108.13 29.4645C108.775 29.0052 109.181 28.3738 109.336 27.5701H107.07C106.973 27.8483 106.81 28.0514 106.584 28.1795C106.359 28.3119 106.041 28.3738 105.644 28.3738C105.145 28.3738 104.739 28.2501 104.438 28.0117C104.134 27.7644 103.935 27.4067 103.847 26.9342H109.353V26.21C109.353 25.4328 109.203 24.7616 108.903 24.2008C108.602 23.6444 108.17 23.2161 107.6 22.9158L107.596 22.907ZM103.869 25.4593C103.979 25.0531 104.173 24.7528 104.46 24.5453C104.747 24.3421 105.11 24.2406 105.569 24.2406C106.028 24.2406 106.39 24.3377 106.655 24.5409C106.924 24.744 107.092 25.0487 107.167 25.4593H103.864H103.869Z" fill="black"/>
<path d="M114.869 22.5185C114.347 22.5185 113.871 22.6465 113.442 22.9071C113.018 23.1676 112.709 23.5606 112.519 24.0949H112.003V22.6156H109.737V24.8368H110.846V30.0165H113.058V26.3161C113.058 25.7729 113.191 25.3313 113.46 24.9957C113.729 24.6601 114.166 24.4923 114.776 24.4923H115.5V22.5229H114.873L114.869 22.5185Z" fill="black"/>
<path d="M25.2189 22.4698C24.6448 22.4698 24.1326 22.5802 23.6822 22.7878C23.2362 22.9997 22.8873 23.3088 22.64 23.7195H22.1234V22.6112H20.8428V23.8476H21.461V30.0032H22.6179V25.6271C22.6179 24.9295 22.8122 24.3951 23.1964 24.0286C23.5806 23.6665 24.1281 23.4811 24.8568 23.4811C25.5854 23.4811 26.1418 23.6621 26.5259 24.0286C26.9057 24.3951 27.1 24.9295 27.1 25.6271V30.0032H28.2569V25.4549C28.2569 24.5541 27.9831 23.8299 27.4312 23.2868C26.8792 22.7436 26.1418 22.4698 25.2144 22.4698H25.2189Z" fill="black"/>
<path d="M35.4858 22.9247C34.9338 22.6156 34.2582 22.4566 33.4987 22.4566C32.7392 22.4566 32.0812 22.6156 31.5204 22.9335C30.9552 23.2514 30.5224 23.6974 30.2222 24.2715C29.9175 24.8455 29.7673 25.5256 29.7673 26.3072C29.7673 27.0888 29.9219 27.7688 30.231 28.3429C30.5357 28.9169 30.9684 29.3673 31.5292 29.6808C32.09 30.0032 32.748 30.1577 33.5031 30.1577V30.1445C34.2626 30.1445 34.9206 29.9899 35.4814 29.6764C36.0422 29.3673 36.4749 28.9169 36.7752 28.3384C37.0799 27.76 37.23 27.0844 37.23 26.2983C37.23 25.5123 37.0799 24.8279 36.7752 24.2538C36.4749 23.6798 36.0466 23.2338 35.4902 22.9247H35.4858ZM35.3975 28.4047C34.9471 28.8992 34.3156 29.1509 33.4987 29.1509C32.695 29.1465 32.0635 28.8948 31.6043 28.4003C31.1495 27.9057 30.9199 27.208 30.9199 26.3116C30.9199 25.4152 31.1451 24.7175 31.6043 24.2229C32.0635 23.7283 32.6818 23.4766 33.4987 23.4766C34.3156 23.4766 34.9427 23.7195 35.3975 24.2185C35.8479 24.7131 36.0775 25.4196 36.0775 26.316C36.0775 27.2124 35.8523 27.9057 35.3975 28.4047Z" fill="black"/>
<path d="M45.5317 19.6569H44.3748V23.8696H44.3262C44.0966 23.4104 43.7566 23.0659 43.315 22.8231C42.8734 22.5846 42.3435 22.4654 41.7386 22.4654C41.0409 22.4654 40.4403 22.6199 39.9369 22.929C39.4335 23.2337 39.0449 23.6797 38.7756 24.2538C38.5062 24.8278 38.3693 25.5167 38.3693 26.3115C38.3693 27.1064 38.5062 27.7953 38.7844 28.3693C39.0626 28.9434 39.4644 29.3894 39.9811 29.6941C40.4977 29.9987 41.1248 30.1577 41.8445 30.1577V30.1665C42.4319 30.1665 42.9352 30.0561 43.3548 29.8442C43.7743 29.6322 44.1099 29.3143 44.3527 28.908H44.8694V30.0164H46.15V28.78H45.5317V19.6569ZM44.3792 26.9121C44.3792 27.5965 44.1584 28.1441 43.7257 28.5504C43.2929 28.961 42.7189 29.1686 42.0035 29.1686C41.2219 29.1686 40.617 28.9125 40.1798 28.4135C39.7426 27.9145 39.5262 27.2124 39.5262 26.3071C39.5262 25.4019 39.747 24.6998 40.1798 24.2008C40.6125 23.6974 41.2219 23.4457 42.0035 23.4457C42.7189 23.4457 43.2885 23.6532 43.7257 24.0639C44.1628 24.4746 44.3792 25.0221 44.3792 25.7022V26.9121Z" fill="black"/>
<path d="M52.809 22.8938C52.3012 22.6112 51.6962 22.4698 50.9985 22.4698C50.2611 22.4698 49.612 22.6244 49.0644 22.9379C48.5124 23.247 48.0841 23.693 47.7838 24.2627C47.4791 24.8323 47.329 25.5079 47.329 26.2895C47.329 27.0711 47.4791 27.7512 47.7838 28.334C48.0885 28.9125 48.5168 29.3673 49.0777 29.6809C49.6385 30.0032 50.2964 30.1578 51.0515 30.1578L51.0427 30.1666C51.8949 30.1666 52.6103 29.9591 53.1888 29.5484C53.7672 29.1377 54.1558 28.5592 54.3413 27.8086H53.1579C53.021 28.2457 52.7604 28.5769 52.3895 28.8065C52.0186 29.0361 51.5593 29.151 51.0294 29.151C50.2567 29.151 49.6385 28.9125 49.1748 28.4356C48.7111 27.9587 48.4639 27.3007 48.4285 26.4529H54.4164V25.9363C54.4164 25.2297 54.2751 24.6159 53.9924 24.0993C53.7098 23.5826 53.3124 23.1808 52.8046 22.8982L52.809 22.8938ZM48.4992 25.5609C48.6184 24.8897 48.8966 24.3731 49.3338 24.0065C49.7709 23.6356 50.3229 23.4502 50.9897 23.4502C51.6565 23.4502 52.1952 23.6356 52.6059 24.0065C53.0166 24.3775 53.2506 24.8985 53.308 25.5609H48.4992Z" fill="black"/>
<path d="M7.88254 21.2158H6.19129V29.9988H16.723V19.5245H7.88254V21.2158ZM14.3208 26.0423C14.2722 26.347 14.1927 26.6296 14.0514 26.8769C13.8439 27.2434 13.548 27.526 13.1727 27.7247C12.7973 27.9234 12.3381 28.0205 11.8259 28.0205C11.3136 28.0205 10.8632 27.9234 10.479 27.7203C10.0993 27.5216 9.799 27.239 9.58704 26.8724C9.37508 26.5059 9.27352 26.0776 9.27352 25.583C9.27352 25.3004 9.31768 25.0443 9.38833 24.8058H10.1788L10.2406 24.8191L10.4216 24.8721C10.3995 24.9913 10.3775 25.1149 10.3775 25.2607C10.3775 25.6669 10.4879 25.9849 10.6998 26.2233C10.9118 26.4618 11.2209 26.581 11.6183 26.581C12.0157 26.581 12.3204 26.4618 12.528 26.2233C12.6914 26.0423 12.7929 25.7994 12.8238 25.5124L14.3517 25.9186C14.3473 25.9672 14.334 26.0025 14.3296 26.0467L14.3208 26.0423ZM8.55374 22.0239H10.1611L10.2008 22.0327L14.2104 23.9448H14.2192C14.3208 24.2274 14.3782 24.903 14.3782 24.903L10.2008 23.6533H8.55816V22.0239H8.55374Z" fill="black"/>
<path d="M7.88251 17.8333H4.5V21.2158L6.19129 21.2158L6.19125 19.5245L7.88254 19.5245L7.88251 17.8333Z" fill="black"/>
</svg>
