<svg width="137" height="48" viewBox="0 0 137 48" fill="none" xmlns="http://www.w3.org/2000/svg">
<path opacity="0.9" fill-rule="evenodd" clip-rule="evenodd" d="M109.773 25.0001C109.253 35.581 100.51 44 89.8014 44C78.7579 44 69.8051 35.0455 69.8051 23.9998C69.8051 12.9542 78.7579 4 89.8014 4C100.17 4 108.696 11.8935 109.699 22.0001H100.618C99.6779 16.8797 95.1927 13.0001 89.8017 13.0001C83.7275 13.0001 78.8035 17.9249 78.8035 23.9998C78.8035 30.0752 83.7275 35 89.8017 35C94.4649 35 98.4499 32.0972 100.05 28.0001H84.8026V25.0001H109.773ZM33.8078 38.8321C41.6568 45.9453 53.7905 45.7154 61.3626 38.1422C69.1716 30.3315 69.1716 17.6685 61.3626 9.85789C53.5535 2.04752 40.8925 2.04752 33.0834 9.85789C25.7515 17.1912 25.3035 28.8021 31.7393 36.6583L38.1605 30.236C35.2055 25.9504 35.6341 20.0348 39.4462 16.222C43.7412 11.9262 50.7048 11.9262 54.9999 16.222C59.2947 20.5179 59.2947 27.4825 54.9999 31.7784C51.7025 35.0764 46.8323 35.8424 42.8042 34.0764L53.5858 23.2929L51.4649 21.1718L40.1849 32.4536L33.8078 38.8321Z" fill="black"/>
</svg>
