<svg width="137" height="48" viewBox="0 0 137 48" fill="none" xmlns="http://www.w3.org/2000/svg">
<path opacity="0.9" fill-rule="evenodd" clip-rule="evenodd" d="M4.50466 15.8396H18.6476V18.1233H6.79188V20.9409H18.5963V32.1602H4.5V29.8765H16.3091V27.2978H4.50466V15.8396ZM16.3091 25.0129V23.2247H6.79188V25.0129H16.3091ZM21.6389 15.8396H23.925V23.5662H34.3095V15.8396H36.5956V25.8499H30.2597V32.1602H27.9737V25.8499H21.6378V15.8396H21.6389ZM39.7315 15.8396H54.6893V32.1602H52.4032V18.1233H48.4618V25.4513H46.1758V18.1233H42.0187V32.1602H39.7326V15.8396H39.7315ZM57.7272 15.8396H72.2094V32.1602H57.7272V15.8396ZM60.0145 18.1233V22.9332H69.9234V18.1233H60.0145ZM69.9234 25.2169H60.0145V29.8765H69.9234V25.2169ZM75.8524 32.1602V15.8396H78.1396V32.1602H75.8524ZM81.7815 15.8396H96.2636V32.1602H81.7815V15.8396ZM84.0687 18.1233V29.8765H93.9764V18.1233H84.0687ZM103.85 18.1233H98.5497V15.8396H111.221V18.1233H106.138V32.1602H103.85V18.1233ZM114.09 32.1602V15.8396H116.378V32.1602H114.09ZM119.161 15.8396H132.5V18.1233H121.449V29.8765H132.5V32.1602H119.161V15.8396Z" fill="black"/>
</svg>
