<svg width="163" height="40" viewBox="0 0 163 40" fill="none" xmlns="http://www.w3.org/2000/svg">
<path fill-rule="evenodd" clip-rule="evenodd" d="M35.143 29.0144V21.2155C35.141 20.4597 34.5318 19.8477 33.7804 19.8477C33.4047 19.8477 33.0645 19.9633 32.8179 20.2018C28.535 24.9525 18.7616 28.4123 7.09365 28.9434C5.381 29.0213 4.09591 30.5578 5.29915 31.7869C7.72933 34.2694 13.1954 36 19.549 36C28.1613 36 35.143 32.9368 35.143 29.0144Z" fill="#0F0F0F"/>
<path fill-rule="evenodd" clip-rule="evenodd" d="M31.1725 17.1453V11.4064C31.1711 10.8503 30.7207 10.3999 30.1655 10.3999C29.8877 10.3999 29.6363 10.485 29.454 10.6604C26.2884 14.1564 19.0644 16.7023 10.4402 17.093C9.17428 17.1504 8.22442 18.281 9.11378 19.1855C10.91 21.0122 14.9502 22.2856 19.6464 22.2856C26.0121 22.2856 31.1725 20.0316 31.1725 17.1453Z" fill="#0F0F0F"/>
<path fill-rule="evenodd" clip-rule="evenodd" d="M27.2334 8.32397V4.6452C27.2325 4.28871 26.9404 4 26.5801 4C26.4001 4 26.2369 4.05455 26.1187 4.16702C24.0654 6.40798 19.3795 8.03997 13.7854 8.29046C12.9643 8.32723 12.3482 9.05197 12.925 9.63178C14.0902 10.8028 16.7108 11.6191 19.757 11.6191C23.8862 11.6191 27.2334 10.1741 27.2334 8.32397Z" fill="#0F0F0F"/>
<path d="M61.2578 12.2188H54.1426V9.06104H71.7904V12.2188H64.6473V30.9399H61.2578V12.2188Z" fill="#0F0F0F"/>
<path d="M122.344 9.06104H138.143V12.2188H125.733V18.0832H137.246V21.1H125.733V27.7539H138.143V30.9399H122.344V9.06104Z" fill="#0F0F0F"/>
<path d="M150.495 9.06104C152.157 9.06104 153.567 9.35238 154.725 9.93506C155.883 10.4989 156.742 11.279 157.302 12.2752C157.881 13.2714 158.17 14.3992 158.17 15.6585C158.17 16.6735 157.965 17.5945 157.554 18.4216C157.162 19.2298 156.564 19.9158 155.761 20.4798C156.602 20.9684 157.209 21.6544 157.582 22.538C157.974 23.4026 158.17 24.5115 158.17 25.8649V30.9399H154.501V22.1713H144.444V30.9399H141.055V9.06104H150.495ZM154.501 19.1828V12.2188H144.444V19.1828H154.501Z" fill="#0F0F0F"/>
<path fill-rule="evenodd" clip-rule="evenodd" d="M74.5606 28.261C76.2227 30.3475 78.8467 31.3906 82.4322 31.3906C86.0552 31.3906 88.6884 30.3475 90.3318 28.261C91.9752 26.1747 92.7969 23.421 92.7969 20.0001C92.7969 16.598 91.9658 13.8538 90.3037 11.7674C88.6603 9.6622 86.0365 8.60962 82.4322 8.60962C78.8467 8.60962 76.2227 9.6622 74.5606 11.7674C72.9173 13.8538 72.0957 16.598 72.0957 20.0001C72.0957 23.4022 72.9173 26.1559 74.5606 28.261ZM89.1012 20.7332V19.3235C89.1012 16.9549 89.1011 15.7706 88.6431 14.866C88.2403 14.0702 87.5975 13.4232 86.8068 13.0178C85.9079 12.5568 84.7313 12.5568 82.3781 12.5568C80.0248 12.5568 78.8482 12.5568 77.9493 13.0178C77.1588 13.4232 76.516 14.0702 76.1131 14.866C75.6551 15.7706 75.6551 16.9549 75.6551 19.3235V20.7332C75.6551 23.1018 75.6551 24.2859 76.1131 25.1906C76.516 25.9864 77.1588 26.6334 77.9493 27.0388C78.8482 27.4999 80.0248 27.4999 82.3781 27.4999C84.7313 27.4999 85.9079 27.4999 86.8068 27.0388C87.5975 26.6334 88.2403 25.9864 88.6431 25.1906C89.1011 24.2859 89.1012 23.1018 89.1012 20.7332Z" fill="#0F0F0F"/>
<path fill-rule="evenodd" clip-rule="evenodd" d="M96.1602 9.17383H99.5215V26.8436L105.975 12.5354H109.036L115.489 26.8436V9.17383H118.85V30.8835H113.619L107.505 17.3272L101.391 30.8835H96.1602V9.17383Z" fill="#0F0F0F"/>
</svg>
