<svg width="137" height="48" viewBox="0 0 137 48" fill="none" xmlns="http://www.w3.org/2000/svg">
<path d="M98.9731 33.8424C97.5651 33.8424 96.421 33.5776 95.5383 32.8229C94.6765 32.0497 94.3116 30.9975 94.3116 29.7641V18.039C94.3116 16.7872 94.6765 15.735 95.5383 14.9803C96.421 14.2255 97.5651 13.9607 98.9731 13.9607H106.579C108.008 13.9607 109.152 14.2255 110.014 14.9803C110.876 15.735 111.241 16.7872 111.241 18.039V29.7641C111.241 30.9975 110.876 32.0497 110.014 32.8229C109.152 33.5776 108.008 33.8424 106.579 33.8424H98.9731ZM104.861 30.019C105.366 30.019 105.815 30.0035 106.088 29.7641C106.383 29.5247 106.579 29.1863 106.579 28.7446V19.0585C106.579 18.6167 106.383 18.2784 106.088 18.039C105.815 17.7996 105.366 17.7841 104.861 17.7841H100.691C100.165 17.7841 99.7371 17.7996 99.4639 18.039C99.1907 18.2784 98.9731 18.6167 98.9731 19.0585V28.7446C98.9731 29.1863 99.1907 29.5247 99.4639 29.7641C99.7371 30.0035 100.165 30.019 100.691 30.019H104.861Z" fill="black"/>
<path d="M89.9802 33.6454H85.2558V14.1574H89.9802V33.6454Z" fill="black"/>
<path d="M68.6579 33.6454H63.9964V14.1574H68.9034L76.2638 26.0667V14.1574H80.9253V33.6454H76.0183L68.6579 21.736V33.6454Z" fill="black"/>
<path d="M120.233 33.6454H115.571V14.1574H120.478L127.838 26.0667V14.1574H132.5V33.6454H127.593L120.233 21.736V33.6454Z" fill="black"/>
<path d="M47.6093 33.8422C46.1991 33.8422 45.0485 33.5775 44.1645 32.8196C43.3015 32.0434 42.9341 30.9903 42.9341 29.7519V14.1574H47.6093V28.7293C47.6093 29.1728 47.8278 29.5116 48.1014 29.7519C48.375 29.9921 48.8056 30.0074 49.3317 30.0074H53.2687C53.7949 30.0074 54.2254 29.9921 54.499 29.7519C54.7726 29.5116 54.9911 29.1728 54.9911 28.7293V14.1574H59.6663V29.7519C59.6663 30.9903 59.299 32.0434 58.436 32.8196C57.573 33.5775 56.4222 33.8422 54.9911 33.8422H47.6093Z" fill="black"/>
<path fill-rule="evenodd" clip-rule="evenodd" d="M28.1219 29.9056C28.1219 36.4285 22.8339 41.7165 16.3109 41.7165C9.78793 41.7165 4.5 36.4285 4.5 29.9056H10.2849C10.2849 33.167 13.0494 35.811 16.3109 35.811C19.5723 35.811 22.3369 33.167 22.3369 29.9056H28.1219Z" fill="black"/>
<path d="M31.2204 26.8077H37.029V20.999H31.2204V26.8077Z" fill="black"/>
<path d="M28.1222 20.999H22.3136V26.8077H28.1222V20.999Z" fill="black"/>
<path d="M13.4068 26.8077H19.2155V20.999H13.4068V26.8077Z" fill="black"/>
<path d="M10.3086 20.999H4.5V26.8077H10.3086V20.999Z" fill="black"/>
<path fill-rule="evenodd" clip-rule="evenodd" d="M13.4068 18.0946C13.4068 11.5716 18.6947 6.28369 25.2177 6.28369C31.7407 6.28369 37.0286 11.5716 37.0286 18.0946H31.2437C31.2437 14.8331 28.4791 12.1892 25.2177 12.1892C21.9563 12.1892 19.1918 14.8331 19.1918 18.0946H13.4068Z" fill="black"/>
</svg>
