<svg width="19" height="19" viewBox="0 0 19 19" fill="none" xmlns="http://www.w3.org/2000/svg">
<path d="M9.5 1C14.1944 1 18 4.80558 18 9.5C18 14.1944 14.1944 18 9.5 18C4.80558 18 1 14.1944 1 9.5C1 4.80558 4.80558 1 9.5 1Z" fill="#F25D00" stroke="white"/>
<path d="M6.49414 7.83169V10.2709C6.49414 10.3548 6.56217 10.4229 6.64614 10.4229H9.08533C9.16926 10.4229 9.23733 10.3548 9.23733 10.2709V7.83169C9.23733 7.74772 9.16926 7.67969 9.08533 7.67969H6.64614C6.56217 7.67969 6.49414 7.74772 6.49414 7.83169Z" fill="white"/>
<path d="M6.49512 11.2614V13.7006C6.49512 13.7845 6.56318 13.8526 6.64715 13.8526H9.08633C9.17027 13.8526 9.23833 13.7845 9.23833 13.7006V11.2614C9.23833 11.1774 9.17027 11.1094 9.08633 11.1094H6.64715C6.56318 11.1094 6.49512 11.1774 6.49512 11.2614Z" fill="white"/>
<path d="M9.92285 11.2614V13.7006C9.92285 13.7845 9.99088 13.8526 10.0749 13.8526H12.514C12.598 13.8526 12.666 13.7845 12.666 13.7006V11.2614C12.666 11.1774 12.598 11.1094 12.514 11.1094H10.0749C9.99088 11.1094 9.92285 11.1774 9.92285 11.2614Z" fill="white"/>
<path d="M9.92285 7.83169V10.2709C9.92285 10.3548 9.99088 10.4229 10.0749 10.4229H12.514C12.598 10.4229 12.666 10.3548 12.666 10.2709V7.83169C12.666 7.74775 12.598 7.67969 12.514 7.67969H10.0749C9.99088 7.67969 9.92285 7.74775 9.92285 7.83169Z" fill="white"/>
<path d="M9.08533 4.25H6.64614C6.56217 4.25 6.49414 4.31806 6.49414 4.402V6.84121C6.49414 6.92515 6.56217 6.99321 6.64614 6.99321H9.08533C9.16926 6.99321 9.23733 6.92515 9.23733 6.84121V4.402C9.23733 4.31806 9.16926 4.25 9.08533 4.25Z" fill="white"/>
</svg>
