<svg width="18" height="19" viewBox="0 0 18 19" fill="none" xmlns="http://www.w3.org/2000/svg">
<path d="M9 1C13.6944 1 17.5 4.80558 17.5 9.5C17.5 14.1944 13.6944 18 9 18C4.30558 18 0.5 14.1944 0.5 9.5C0.5 4.80558 4.30558 1 9 1Z" fill="#0008FF" stroke="white"/>
<path fill-rule="evenodd" clip-rule="evenodd" d="M12.4079 9.57888C12.4079 9.60121 12.3855 9.60121 12.3632 9.57888C12.3632 9.57888 12.3632 9.55655 12.3409 9.55655C12.3409 9.53422 12.3409 9.51189 12.3409 9.51189C12.3409 9.51189 12.3409 9.51189 12.3632 9.48956C12.3855 9.46723 12.4079 9.46723 12.4079 9.48956C12.4079 9.51189 12.4079 9.55655 12.4079 9.57888ZM12.2516 9.1323C12.2292 9.17696 12.1622 9.17696 12.1399 9.1323C12.1399 9.1323 12.1399 9.10997 12.1176 9.10997C12.0059 8.95367 11.8943 8.79736 11.7603 8.64106C11.738 8.5964 11.7603 8.55174 11.805 8.55174C12.1176 8.55174 12.2739 8.61873 12.3185 8.73038C12.3632 8.79736 12.3632 8.93134 12.2516 9.1323ZM12.1846 10.74C12.1622 10.7846 12.1399 10.8293 12.1399 10.874V10.8963C12.0283 11.1196 11.8273 11.2759 11.5817 11.4099C11.5147 11.4322 11.47 11.3875 11.47 11.3205C11.5594 11.0303 11.6263 10.6953 11.6487 10.3604C11.6487 10.2934 11.6933 10.2488 11.738 10.2041C11.8496 10.1148 11.939 10.0255 12.0283 9.93614C12.0729 9.89149 12.1399 9.91382 12.1622 9.9808C12.2516 10.2264 12.2739 10.4944 12.1846 10.74ZM11.4924 11.8118C11.47 11.8341 11.4477 11.8564 11.4031 11.9011C11.3584 11.9458 11.3137 11.9904 11.2691 12.0351C11.2468 12.0574 11.2021 12.0351 11.2021 11.9904C11.2021 11.9904 11.2021 11.9681 11.2244 11.9681C11.2468 11.9234 11.2691 11.8788 11.2914 11.8341L11.3137 11.8118C11.3584 11.7895 11.4031 11.7895 11.4477 11.7671C11.4924 11.7448 11.5147 11.7895 11.4924 11.8118ZM10.9788 11.5438C10.8672 11.5662 10.7778 11.5662 10.6662 11.5662C10.3982 11.5662 10.108 11.5438 9.79536 11.4992C9.75071 11.4992 9.75071 11.4322 9.79536 11.4322C9.86235 11.4099 9.92934 11.3652 9.99632 11.3205C10.4429 11.0749 10.8895 10.807 11.2468 10.539C11.2691 10.5167 11.3137 10.539 11.3137 10.5837C11.2691 10.8963 11.1798 11.1866 11.0904 11.4545C11.0681 11.4992 11.0458 11.5438 10.9788 11.5438ZM10.8895 11.9681C10.6439 12.4593 10.3536 12.7273 10.041 12.7049C9.72838 12.7049 9.41577 12.37 9.17015 11.7895C9.14782 11.7448 9.17015 11.7225 9.21481 11.7001C9.23714 11.7001 9.23714 11.7001 9.25947 11.7001C9.70605 11.8341 10.1303 11.8788 10.5322 11.8788C10.5769 11.8788 10.6215 11.8788 10.6662 11.8788C10.7109 11.8788 10.7778 11.8788 10.8225 11.8788C10.8672 11.8788 10.9118 11.9234 10.8895 11.9681ZM9.4381 12.8836C9.28179 12.9059 9.14782 12.9059 8.99152 12.9059C8.32165 12.9059 7.69643 12.7273 7.1382 12.37C7.09355 12.3477 7.11588 12.2807 7.16053 12.2807H7.18286C7.31684 12.2807 7.47314 12.2584 7.62944 12.2137C7.98671 12.1467 8.3663 12.0351 8.79056 11.8788C8.83521 11.8564 8.85754 11.8788 8.87987 11.9234C9.03618 12.303 9.23714 12.5933 9.46043 12.7943C9.50509 12.8166 9.48276 12.8613 9.4381 12.8836ZM7.45081 10.472C7.76342 10.2264 8.09835 9.9808 8.50028 9.75751C8.50028 10.2488 8.56726 10.74 8.65658 11.1642C8.52261 11.0973 8.3663 11.0303 8.23233 10.9633C7.94205 10.807 7.69643 10.6507 7.45081 10.472ZM6.51299 11.8118C6.446 11.6778 6.53532 11.3652 7.00423 10.874C7.04889 10.8293 7.04889 10.74 7.00423 10.6953C6.9819 10.673 6.95957 10.673 6.93724 10.6507C6.89259 10.606 6.8256 10.606 6.78094 10.6507L6.75861 10.673C6.51299 10.9186 6.35669 11.1419 6.26737 11.3429C6.24504 11.4099 6.15573 11.4099 6.1334 11.3429C5.77613 10.7846 5.57517 10.1371 5.57517 9.46723C5.57517 9.22162 5.5975 8.976 5.64216 8.7527C5.64216 8.70805 5.70914 8.70805 5.70914 8.7527C5.77613 8.99832 5.88778 9.22162 6.06641 9.46723C6.2897 9.80217 6.55765 10.1148 6.89259 10.4051C7.00423 10.4944 7.1382 10.606 7.24985 10.6953C7.49547 10.874 7.78575 11.0526 8.07603 11.2089C8.21 11.2759 8.34397 11.3429 8.45562 11.4099C8.52261 11.4322 8.61192 11.4545 8.67891 11.4099C8.7459 11.3875 8.81288 11.3652 8.85754 11.3429C8.92453 11.3205 8.96919 11.2312 8.94686 11.1642V11.1419C8.83521 10.7177 8.79056 10.2264 8.79056 9.71285V9.69053C8.79056 9.6682 8.79056 9.62354 8.79056 9.60121V9.57888C8.79056 9.55655 8.79056 9.51189 8.79056 9.48956C8.79056 9.40025 8.79056 9.31093 8.79056 9.22162C8.81288 8.5964 8.92453 8.01585 9.10316 7.52461C9.12549 7.47995 9.10316 7.43529 9.0585 7.41296C9.01385 7.39063 8.96919 7.39063 8.92453 7.3683C8.87987 7.34597 8.83521 7.3683 8.81288 7.41296C8.63425 7.94886 8.52261 8.57407 8.50028 9.24394C8.50028 9.33326 8.45562 9.40025 8.38863 9.44491C7.98671 9.6682 7.62944 9.93614 7.31684 10.1818C7.24985 10.2264 7.16053 10.2264 7.09355 10.1818C6.78094 9.91382 6.51299 9.62354 6.31203 9.31093C5.91011 8.70805 5.82079 8.14982 6.04408 7.70324C6.08874 7.65858 6.11107 7.61392 6.1334 7.56926C6.37902 7.23433 6.87026 7.03337 7.49547 7.01104C7.54013 7.01104 7.58479 7.01104 7.60712 7.01104C7.98671 7.01104 8.41096 7.07802 8.83521 7.18967H8.85754H8.87987C8.96919 7.212 9.08083 7.25666 9.17015 7.27899C9.19248 7.27899 9.21481 7.30132 9.23714 7.30132H9.25947H9.2818C9.48276 7.39063 9.70605 7.47995 9.90701 7.59159C10.3089 7.79256 10.6662 8.03817 10.9788 8.30612C10.3759 8.4401 9.68372 8.70805 8.96919 9.06531C8.94686 9.08764 8.92453 9.10997 8.92453 9.15463C8.92453 9.19929 8.92453 9.2886 8.92453 9.35559C8.92453 9.40025 8.96919 9.42258 9.01385 9.40025C9.70605 9.04298 10.3982 8.7527 11.0011 8.61873C11.1128 8.5964 11.1798 8.48476 11.1798 8.37311C11.1798 8.28379 11.1574 8.21681 11.1351 8.14982C11.1128 8.0605 11.0681 7.97119 10.9788 7.9042C10.7109 7.68091 10.3982 7.50228 10.0633 7.32364C9.84002 7.212 9.61673 7.10035 9.39344 7.01104C9.34878 6.98871 9.32645 6.94405 9.34878 6.89939C9.57207 6.47514 9.86235 6.25185 10.1303 6.25185C10.4429 6.25185 10.7555 6.58679 11.0011 7.16734C11.1128 7.45762 11.2021 7.79256 11.2691 8.14982C11.2914 8.30612 11.3137 8.46243 11.3361 8.61873C11.3584 8.88668 11.3807 9.17696 11.3584 9.46723C11.3584 9.64587 11.3361 9.8245 11.3361 10.0031C10.9118 10.3381 10.3759 10.6953 9.81769 10.9856C9.63906 11.0973 9.4381 11.1866 9.25947 11.2759C9.23714 11.2759 9.23714 11.2982 9.21481 11.2982C9.0585 11.3652 8.9022 11.4322 8.7459 11.4992H8.72357C8.72357 11.4992 8.70124 11.4992 8.70124 11.5215C8.67891 11.5215 8.65658 11.5438 8.63425 11.5438H8.61192C8.58959 11.5662 8.54494 11.5662 8.52261 11.5662C8.52261 11.5662 8.52261 11.5662 8.50028 11.5662C8.16534 11.6778 7.87506 11.7671 7.58479 11.8341C6.91491 12.0351 6.57998 11.9458 6.51299 11.8118ZM7.00423 6.6761C7.58479 6.27418 8.27699 6.05089 8.99152 6.05089C9.19248 6.05089 9.37111 6.07322 9.54974 6.09555C9.5944 6.09555 9.61673 6.16253 9.57207 6.20719C9.39344 6.34117 9.23714 6.56446 9.08083 6.83241C9.03618 6.89939 8.96919 6.92172 8.9022 6.89939C8.41096 6.76542 7.94205 6.69843 7.49547 6.72076C7.33917 6.72076 7.18286 6.72076 7.02656 6.74309C6.9819 6.76542 6.95957 6.69843 7.00423 6.6761ZM11.7157 9.17696C11.7157 9.1323 11.7603 9.10997 11.7826 9.15463C11.805 9.19929 11.8273 9.24394 11.872 9.26627C11.9166 9.31093 11.939 9.37792 11.9613 9.42258C11.9836 9.44491 11.9836 9.48956 11.9613 9.53422C11.9166 9.57888 11.872 9.62354 11.8273 9.6682C11.805 9.69053 11.7826 9.71285 11.7826 9.71285C11.7603 9.73518 11.7157 9.71285 11.7157 9.69053C11.7157 9.62354 11.7157 9.57888 11.7157 9.51189C11.7157 9.40025 11.7157 9.2886 11.7157 9.17696ZM11.3584 6.98871C11.3807 7.01104 11.4031 7.03337 11.4254 7.0557C11.7603 7.39063 12.0059 7.77023 12.1846 8.19448C12.2069 8.23914 12.1622 8.28379 12.1176 8.28379C12.0283 8.26147 11.9166 8.26147 11.7826 8.26147C11.6933 8.26147 11.6263 8.19448 11.604 8.12749C11.537 7.7479 11.4477 7.41296 11.3137 7.10035C11.3137 7.07802 11.2914 7.0557 11.2914 7.0557C11.2691 6.98871 11.3137 6.96638 11.3584 6.98871ZM12.6535 8.70805C12.4972 8.01585 12.1622 7.3683 11.6487 6.83241C10.9341 6.11788 9.99632 5.73828 8.99152 5.73828C7.98671 5.73828 7.04889 6.11788 6.35669 6.83241C6.17806 7.01104 6.02175 7.18967 5.91011 7.39063C5.84312 7.43529 5.82079 7.50228 5.77613 7.54694C5.4412 8.12749 5.24023 8.77503 5.24023 9.46723C5.24023 10.472 5.61983 11.4099 6.33436 12.1021C7.04889 12.8166 7.98671 13.1962 8.96919 13.1962C9.974 13.1962 10.9118 12.8166 11.604 12.1021C11.939 11.7671 12.2069 11.3875 12.3855 10.9633C12.4079 10.9186 12.4302 10.874 12.4525 10.8293C12.6312 10.4051 12.6981 9.93615 12.6981 9.46723C12.7205 9.22162 12.6981 8.95367 12.6535 8.70805Z" fill="white"/>
<path d="M13.4442 9.78891H16.3845C16.3882 9.69274 16.3906 9.59657 16.3906 9.50006C16.3906 9.40354 16.3882 9.30737 16.3845 9.2112C16.3131 7.34552 15.5536 5.6015 14.2259 4.27411C12.8298 2.87808 10.974 2.10938 8.99991 2.10938C7.02582 2.10938 5.16965 2.87808 3.77396 4.27411C2.37827 5.67014 1.60889 7.52563 1.60889 9.50006C1.60889 11.4745 2.37759 13.3303 3.77362 14.726C5.16965 16.122 7.02548 16.8907 8.99957 16.8907C9.92629 16.8907 10.8268 16.7212 11.6662 16.3973C12.6147 16.031 13.485 15.4668 14.2259 14.7263C14.9663 13.9858 15.5305 13.1155 15.8968 12.1671H15.2688C14.5789 13.7826 13.2821 15.0794 11.6662 15.7693C10.8469 16.1193 9.94532 16.313 8.99957 16.313C5.33957 16.313 2.34496 13.4122 2.19306 9.78891H4.55524V9.2112H2.19306C2.34496 5.5879 5.33991 2.68675 8.99991 2.68675C12.6599 2.68675 15.6545 5.5879 15.8064 9.21086H13.4442V9.78857V9.78891Z" fill="white"/>
</svg>
