<svg width="19" height="19" viewBox="0 0 19 19" fill="none" xmlns="http://www.w3.org/2000/svg">
<path d="M9.5 1C14.1944 1 18 4.80558 18 9.5C18 14.1944 14.1944 18 9.5 18C4.80558 18 1 14.1944 1 9.5C1 4.80558 4.80558 1 9.5 1Z" fill="#0008FF" stroke="white"/>
<path fill-rule="evenodd" clip-rule="evenodd" d="M8.49707 12.1711C7.75249 12.1762 7.14317 11.5805 7.13094 10.8359H5.82666C5.82666 12.3081 7.02015 13.5019 8.49265 13.5019C9.96514 13.5019 11.1559 12.3108 11.1583 10.8404H9.85402C9.83974 11.5795 9.2362 12.1711 8.49672 12.1711H8.49707Z" fill="white"/>
<path d="M7.13977 8.82422H5.82666V10.1373H7.13977V8.82422Z" fill="white"/>
<path d="M9.14954 8.82422H7.83643V10.1373H9.14954V8.82422Z" fill="white"/>
<path d="M11.1583 8.82422H9.854V10.1373H11.1583V8.82422Z" fill="white"/>
<path d="M13.1725 8.82422H11.8638V10.1373H13.1725V8.82422Z" fill="white"/>
<path fill-rule="evenodd" clip-rule="evenodd" d="M13.1725 8.16803C13.1725 6.69451 11.978 5.5 10.5045 5.5C9.03094 5.5 7.83643 6.69451 7.83643 8.16803H9.14512C9.15939 7.42889 9.76294 6.83724 10.5024 6.83724C11.2453 6.83214 11.8539 7.42549 11.8685 8.16803H13.1728H13.1725Z" fill="white"/>
<path d="M13.9442 9.78891H16.8845C16.8882 9.69274 16.8906 9.59657 16.8906 9.50006C16.8906 9.40354 16.8882 9.30737 16.8845 9.2112C16.8131 7.34552 16.0536 5.6015 14.7259 4.27411C13.3298 2.87808 11.474 2.10938 9.49991 2.10938C7.52582 2.10938 5.66965 2.87808 4.27396 4.27411C2.87827 5.67014 2.10889 7.52563 2.10889 9.50006C2.10889 11.4745 2.87759 13.3303 4.27362 14.726C5.66965 16.122 7.52548 16.8907 9.49957 16.8907C10.4263 16.8907 11.3268 16.7212 12.1662 16.3973C13.1147 16.031 13.985 15.4668 14.7259 14.7263C15.4663 13.9858 16.0305 13.1155 16.3968 12.1671H15.7688C15.0789 13.7826 13.7821 15.0794 12.1662 15.7693C11.3469 16.1193 10.4453 16.313 9.49957 16.313C5.83957 16.313 2.84496 13.4122 2.69306 9.78891H5.05524V9.2112H2.69306C2.84496 5.5879 5.83991 2.68675 9.49991 2.68675C13.1599 2.68675 16.1545 5.5879 16.3064 9.21086H13.9442V9.78857V9.78891Z" fill="white"/>
</svg>
