<svg width="18" height="19" viewBox="0 0 18 19" fill="none" xmlns="http://www.w3.org/2000/svg">
<rect x="0.5" y="1" width="17" height="17" rx="8.5" stroke="white"/>
<path d="M9 17.5C13.4183 17.5 17 13.9183 17 9.5C17 5.08172 13.4183 1.5 9 1.5C4.58172 1.5 1 5.08172 1 9.5C1 13.9183 4.58172 17.5 9 17.5Z" fill="#0008FF"/>
<path fill-rule="evenodd" clip-rule="evenodd" d="M5.81461 7.55739C5.78337 7.47285 5.8042 7.3779 5.86791 7.31409L6.73545 6.44655C6.79916 6.38284 6.89421 6.36202 6.97865 6.39316L8.82845 7.07271C8.87392 7.08942 8.9041 7.13269 8.9041 7.18112V7.58614C8.9041 7.6168 8.89197 7.64613 8.87029 7.66781L8.41999 8.11801C8.38818 8.14992 8.34071 8.16033 8.29839 8.14466L7.80148 7.96145L7.25547 7.75999C7.20934 7.74289 7.16425 7.78788 7.18135 7.83412L7.56602 8.87704C7.58159 8.91935 7.57127 8.96683 7.53937 8.99864L7.13903 9.39878C7.09394 9.44387 7.09394 9.51704 7.13903 9.56213L7.54147 9.96456C7.57337 9.99647 7.58379 10.0439 7.56812 10.0862L7.18345 11.129C7.16635 11.1752 7.21134 11.2202 7.25757 11.2031L8.30049 10.8183C8.34281 10.8028 8.39028 10.8132 8.42209 10.845L8.87019 11.2931C8.89187 11.3148 8.90401 11.3441 8.90401 11.3748V11.7799C8.90401 11.8282 8.87392 11.8715 8.82854 11.8882L6.98094 12.5699C6.8964 12.6011 6.80136 12.5802 6.73764 12.5165L5.87001 11.6488C5.8063 11.5851 5.78547 11.4902 5.81671 11.4055L6.49597 9.56413C6.51498 9.51255 6.51498 9.45581 6.49597 9.40423L5.81461 7.55739Z" fill="white"/>
<path fill-rule="evenodd" clip-rule="evenodd" d="M12.1862 11.4056C12.2174 11.4901 12.1966 11.5851 12.1329 11.6489L11.2653 12.5165C11.2016 12.5802 11.1067 12.601 11.0221 12.5699L9.17233 11.8903C9.12686 11.8736 9.09668 11.8304 9.09668 11.7819V11.3769C9.09668 11.3462 9.10881 11.3169 9.13049 11.2952L9.58079 10.845C9.6126 10.8131 9.66007 10.8027 9.70239 10.8184L10.1993 11.0016L10.7453 11.2031C10.7914 11.2202 10.8364 11.1752 10.8194 11.1289L10.4348 10.086C10.4192 10.0437 10.4295 9.99622 10.4614 9.96441L10.8617 9.56427C10.9068 9.51918 10.9068 9.44601 10.8617 9.40093L10.4593 8.99849C10.4274 8.96658 10.417 8.91911 10.4327 8.87689L10.8173 7.83406C10.8344 7.78783 10.7894 7.74284 10.7432 7.75994L9.70029 8.1447C9.65797 8.16028 9.6105 8.14986 9.57869 8.11805L9.13059 7.66996C9.10891 7.64827 9.09678 7.61895 9.09678 7.58828V7.18317C9.09678 7.13484 9.12686 7.09157 9.17224 7.07485L11.0198 6.3932C11.1044 6.36196 11.1993 6.38288 11.2631 6.4466L12.1307 7.31423C12.1945 7.37794 12.2153 7.47289 12.1841 7.55753L11.5048 9.39892C11.4857 9.4505 11.4857 9.50724 11.5048 9.55882L12.1863 11.4059L12.1862 11.4056Z" fill="white"/>
<path d="M13.4442 9.78891H16.3845C16.3882 9.69274 16.3906 9.59657 16.3906 9.50006C16.3906 9.40354 16.3882 9.30737 16.3845 9.2112C16.3131 7.34552 15.5536 5.6015 14.2259 4.27411C12.8298 2.87808 10.974 2.10938 8.99991 2.10938C7.02582 2.10938 5.16965 2.87808 3.77396 4.27411C2.37827 5.67014 1.60889 7.52563 1.60889 9.50006C1.60889 11.4745 2.37759 13.3303 3.77362 14.726C5.16965 16.122 7.02548 16.8907 8.99957 16.8907C9.92629 16.8907 10.8268 16.7212 11.6662 16.3973C12.6147 16.031 13.485 15.4668 14.2259 14.7263C14.9663 13.9858 15.5305 13.1155 15.8968 12.1671H15.2688C14.5789 13.7826 13.2821 15.0794 11.6662 15.7693C10.8469 16.1193 9.94532 16.313 8.99957 16.313C5.33957 16.313 2.34496 13.4122 2.19306 9.78891H4.55524V9.2112H2.19306C2.34496 5.5879 5.33991 2.68675 8.99991 2.68675C12.6599 2.68675 15.6545 5.5879 15.8064 9.21086H13.4442V9.78857V9.78891Z" fill="white"/>
</svg>
