<svg width="24" height="24" viewBox="0 0 24 24" fill="none" xmlns="http://www.w3.org/2000/svg">
<path d="M9.95018 14.33C10.6202 14.61 11.3202 14.75 12.0102 14.75C12.5302 14.75 13.0502 14.67 13.5402 14.51C15.6402 13.83 17.0502 12 17.0502 9.94996C17.0502 8.32996 16.3302 7.20996 15.4502 5.83996C14.9702 5.08996 14.6602 3.67996 14.3602 2.30996L14.2202 1.65996L12.5102 1.20996C10.6202 3.26996 9.38018 5.29996 8.81018 7.23996L7.51018 6.79996C5.78018 11.92 8.65018 13.78 9.96018 14.34L9.95018 14.33ZM9.38018 7.48996L10.7002 7.85996C11.0402 6.64996 11.7102 5.37996 12.7102 4.06996C12.9802 5.15996 13.3002 6.18996 13.8202 6.99996C14.5702 8.15996 15.0602 8.91996 15.0602 9.95996C15.0602 11.14 14.2102 12.21 12.9402 12.62C12.2502 12.84 11.4502 12.8 10.7502 12.5C8.99018 11.75 8.54018 10.07 9.39018 7.49996L9.38018 7.48996Z" fill="#0008FF"/>
<path d="M18 9.73999V11.9C19.37 12.51 20 13.25 20 13.79C20 14.26 19.55 14.71 19.15 15.02C19.02 15.12 18.87 15.22 18.7 15.32C17.17 16.23 14.67 16.78 12 16.78C9.33 16.78 6.83 16.23 5.29 15.31C5.13 15.22 4.98 15.12 4.83 14.99C4.45 14.71 4 14.26 4 13.79C4 13.25 4.63 12.51 6 11.9V9.73999C3.45 10.66 2 12.11 2 13.79V17.79C2 18.65 2.4 19.92 4.28 21.05C6.15 22.15 8.96 22.79 12 22.79C15.04 22.79 17.85 22.15 19.72 21.05C21.61 19.92 22 18.65 22 17.79V13.79C22 12.11 20.55 10.66 18 9.73999ZM20 17.79C20 18.27 19.52 18.83 18.7 19.33C17.15 20.24 14.65 20.79 12 20.79C9.35 20.79 6.85 20.24 5.3 19.33C4.48 18.83 4 18.27 4 17.79V16.87C4.09 16.93 4.19 16.99 4.28 17.04C6.13 18.14 8.94 18.78 12 18.78C15.06 18.78 17.87 18.14 19.71 17.05C19.81 16.99 19.91 16.93 20 16.87V17.79Z" fill="#0008FF"/>
</svg>
