<svg width="40" height="40" viewBox="0 0 40 40" fill="none" xmlns="http://www.w3.org/2000/svg">
<path d="M27.6294 16.9811C27.4997 15.6293 26.9997 14.2959 26.1294 13.1293L19.9997 4.94409L13.8701 13.1108C12.9812 14.2774 12.4997 15.6108 12.3701 16.9811H15.1294L12.5738 19.5367C12.9071 20.9626 13.6664 22.2959 14.8331 23.37C16.2775 24.6848 18.1479 25.3515 19.9997 25.3515C21.8516 25.3515 23.7034 24.7034 25.1479 23.3885C26.3331 22.333 27.0923 20.9811 27.4257 19.5367L24.8701 16.9811H27.6294ZM23.2775 21.333C21.4627 22.9626 18.5183 22.9626 16.7034 21.3145C14.8701 19.6293 14.5923 16.7589 16.0923 14.7774L19.9997 9.57372L23.9071 14.7959C24.5553 15.6478 24.8701 16.6848 24.8701 17.7034C24.8701 19.0367 24.3331 20.37 23.2775 21.333Z" fill="#0008FF"/>
<path d="M29.7218 29.4811L26.944 26.7034H13.0551L10.2773 29.4811H29.7218Z" fill="#666BFF"/>
<path d="M29.7218 35.0366L26.944 32.2588H13.0551L10.2773 35.0366H29.7218Z" fill="#666BFF"/>
</svg>
