<svg width="24" height="24" viewBox="0 0 24 24" fill="none" xmlns="http://www.w3.org/2000/svg">
<path fill-rule="evenodd" clip-rule="evenodd" d="M9.779 8.59653L6.44607 1.25H4.25L7.97788 9.46708C6.03173 10.7672 4.75 12.9839 4.75 15.5C4.75 19.5041 7.99594 22.75 12 22.75C16.0041 22.75 19.25 19.5041 19.25 15.5C19.25 12.9837 17.9681 10.7668 16.0216 9.46673L19.7494 1.25002H17.5533L14.2205 8.59633C13.9594 8.51245 13.692 8.44296 13.419 8.38879L10.4492 1.25H8.28307L11.2128 8.29225C10.7183 8.34565 10.2386 8.44878 9.779 8.59653ZM12.9082 4.28855L14.0362 7.00001L16.1906 1.25002H14.0536L12.9082 4.28855ZM9.75 14C9.75 13.0335 10.5335 12.25 11.5 12.25H12.5C13.4665 12.25 14.25 13.0335 14.25 14V14.5C14.25 14.8718 14.1341 15.2165 13.9364 15.5C14.1341 15.7835 14.25 16.1282 14.25 16.5V17C14.25 17.9665 13.4665 18.75 12.5 18.75H11.5C10.5335 18.75 9.75 17.9665 9.75 17V16.5H11.25V17C11.25 17.1381 11.362 17.25 11.5 17.25H12.5C12.6381 17.25 12.75 17.1381 12.75 17V16.5C12.75 16.3619 12.6381 16.25 12.5 16.25H12V14.75H12.5C12.6381 14.75 12.75 14.6381 12.75 14.5V14C12.75 13.8619 12.6381 13.75 12.5 13.75H11.5C11.362 13.75 11.25 13.8619 11.25 14V14.5H9.75V14Z" fill="white"/>
</svg>
