<svg width="24" height="24" viewBox="0 0 24 24" fill="none" xmlns="http://www.w3.org/2000/svg">
<path fill-rule="evenodd" clip-rule="evenodd" d="M4.25 1.25L7.97788 9.46708C6.03173 10.7672 4.75 12.9839 4.75 15.5C4.75 19.5041 7.99594 22.75 12 22.75C16.0041 22.75 19.25 19.5041 19.25 15.5C19.25 12.9837 17.9681 10.7668 16.0216 9.46673L19.7494 1.25002H17.5533L14.2205 8.59634C13.9594 8.51245 13.692 8.44296 13.419 8.3888L10.4492 1.25H8.28307L11.2128 8.29225C10.7183 8.34565 10.2386 8.44878 9.779 8.59653L6.44607 1.25H4.25ZM12.75 12.25H10.25V13.75H11.25V17.25H10.25V18.75H13.75V17.25H12.75V12.25ZM14.0362 7.00001L12.9082 4.28855L14.0536 1.25002H16.1906L14.0362 7.00001Z" fill="white"/>
</svg>
