<svg width="24" height="24" viewBox="0 0 24 24" fill="none" xmlns="http://www.w3.org/2000/svg">
<path fill-rule="evenodd" clip-rule="evenodd" d="M9.779 8.59653L6.44607 1.25H4.25L7.97788 9.46708C6.03173 10.7672 4.75 12.9839 4.75 15.5C4.75 19.5041 7.99594 22.75 12 22.75C16.0041 22.75 19.25 19.5041 19.25 15.5C19.25 12.9837 17.9681 10.7668 16.0216 9.46673L19.7494 1.25002H17.5533L14.2205 8.59634C13.9594 8.51245 13.692 8.44296 13.419 8.3888L10.4492 1.25H8.28307L11.2128 8.29225C10.7183 8.34565 10.2386 8.44878 9.779 8.59653ZM12.9082 4.28855L14.0362 7.00001L16.1906 1.25002H14.0536L12.9082 4.28855ZM12 13.75C11.5858 13.75 11.25 14.0858 11.25 14.5V15.25H9.75V14.5C9.75 13.2574 10.7574 12.25 12 12.25C13.2427 12.25 14.25 13.2574 14.25 14.5V14.6285C14.25 15.4238 13.8526 16.1664 13.1909 16.6075L12.2271 17.25H14.1815V18.75H9.75V17.0987L12.3589 15.3594C12.6033 15.1965 12.75 14.9222 12.75 14.6285V14.5C12.75 14.0858 12.4143 13.75 12 13.75Z" fill="white"/>
</svg>
