<svg width="24" height="24" viewBox="0 0 24 24" fill="none" xmlns="http://www.w3.org/2000/svg">
<path fill-rule="evenodd" clip-rule="evenodd" d="M9.77924 8.59653L6.44631 1.25H4.25024L7.97812 9.46708C6.03197 10.7672 4.75024 12.9839 4.75024 15.5C4.75024 19.5041 7.99618 22.75 12.0002 22.75C16.0043 22.75 19.2502 19.5041 19.2502 15.5C19.2502 12.9837 17.9683 10.7668 16.0218 9.46673L19.7496 1.25002H17.5535L14.2207 8.59634C13.9596 8.51245 13.6922 8.44296 13.4192 8.3888L10.4494 1.25H8.28331L11.213 8.29225C10.7185 8.34565 10.2388 8.44878 9.77924 8.59653ZM12.9084 4.28855L14.0364 7.00001L16.1908 1.25002H14.0538L12.9084 4.28855ZM12.0002 13.75C11.586 13.75 11.2502 14.0858 11.2502 14.5V15.25H9.75024V14.5C9.75024 13.2574 10.7576 12.25 12.0002 12.25C13.2429 12.25 14.2502 13.2574 14.2502 14.5V14.6285C14.2502 15.4238 13.8528 16.1664 13.1911 16.6075L12.2273 17.25H14.1817V18.75H9.75024V17.0987L12.3591 15.3594C12.6035 15.1965 12.7502 14.9222 12.7502 14.6285V14.5C12.7502 14.0858 12.4145 13.75 12.0002 13.75Z" fill="#0008FF"/>
</svg>
