<svg width="24" height="24" viewBox="0 0 24 24" fill="none" xmlns="http://www.w3.org/2000/svg">
<path fill-rule="evenodd" clip-rule="evenodd" d="M4.25024 1.25L7.97812 9.46708C6.03197 10.7672 4.75024 12.9839 4.75024 15.5C4.75024 19.5041 7.99618 22.75 12.0002 22.75C16.0043 22.75 19.2502 19.5041 19.2502 15.5C19.2502 12.9837 17.9683 10.7668 16.0218 9.46673L19.7496 1.25002H17.5535L14.2207 8.59634C13.9596 8.51245 13.6922 8.44296 13.4192 8.3888L10.4494 1.25H8.28331L11.213 8.29225C10.7185 8.34565 10.2388 8.44878 9.77924 8.59653L6.44631 1.25H4.25024ZM12.7502 12.25H10.2502V13.75H11.2502V17.25H10.2502V18.75H13.7502V17.25H12.7502V12.25ZM14.0364 7.00001L12.9084 4.28855L14.0538 1.25002H16.1908L14.0364 7.00001Z" fill="#0008FF"/>
</svg>
