<svg width="14" height="14" viewBox="0 0 14 14" fill="none" xmlns="http://www.w3.org/2000/svg">
<circle cx="7" cy="7" r="7" fill="#EEAD21"/>
<path fill-rule="evenodd" clip-rule="evenodd" d="M11.119 9.73225V7.66795C11.1185 7.46792 10.9575 7.30591 10.7591 7.30591C10.6598 7.30591 10.57 7.3365 10.5049 7.39964C9.37351 8.65712 6.79184 9.57289 3.70977 9.71342C3.25737 9.73407 2.91791 10.1407 3.23575 10.4661C3.87767 11.1232 5.32156 11.5812 6.99985 11.5812C9.27478 11.5812 11.119 10.7704 11.119 9.73225Z" fill="#0F0F0F"/>
<path fill-rule="evenodd" clip-rule="evenodd" d="M10.0702 6.5906V5.0716C10.0698 4.92439 9.95084 4.80518 9.80412 4.80518C9.73076 4.80518 9.66433 4.82772 9.61621 4.87413C8.78002 5.79946 6.87179 6.47335 4.59371 6.57677C4.25932 6.59196 4.00841 6.89121 4.24333 7.13061C4.71782 7.61414 5.78504 7.95119 7.02555 7.95119C8.70705 7.95119 10.0702 7.35454 10.0702 6.5906Z" fill="#0F0F0F"/>
<path fill-rule="evenodd" clip-rule="evenodd" d="M9.02964 4.25558V3.28186C9.0294 3.1875 8.95222 3.11108 8.85709 3.11108C8.80949 3.11108 8.76641 3.12552 8.73519 3.15529C8.19279 3.74844 6.95502 4.1804 5.47735 4.24673C5.26046 4.25646 5.09771 4.44829 5.25006 4.60173C5.55785 4.91169 6.25008 5.12775 7.05473 5.12775C8.14544 5.12775 9.02964 4.7453 9.02964 4.25558Z" fill="#0F0F0F"/>
</svg>
