<svg width="32" height="32" viewBox="0 0 32 32" fill="none" xmlns="http://www.w3.org/2000/svg">
<path d="M16 32C24.8366 32 32 24.8366 32 16C32 7.16344 24.8366 0 16 0C7.16344 0 0 7.16344 0 16C0 24.8366 7.16344 32 16 32Z" fill="#0008FF"/>
<path fill-rule="evenodd" clip-rule="evenodd" d="M9.62873 12.1167C9.56625 11.9477 9.6079 11.7578 9.73533 11.6301L11.4704 9.89506C11.5978 9.76763 11.7879 9.72599 11.9568 9.78827L15.6564 11.1474C15.7473 11.1808 15.8077 11.2673 15.8077 11.3642V12.1742C15.8077 12.2356 15.7835 12.2942 15.7401 12.3376L14.8395 13.238C14.7759 13.3018 14.6809 13.3226 14.5963 13.2913L13.6025 12.9249L12.5105 12.5219C12.4182 12.4877 12.328 12.5777 12.3622 12.6702L13.1315 14.756C13.1627 14.8407 13.1421 14.9356 13.0782 14.9992L12.2776 15.7995C12.1874 15.8897 12.1874 16.036 12.2776 16.1262L13.0824 16.9311C13.1463 16.9949 13.1671 17.0898 13.1358 17.1743L12.3664 19.2599C12.3322 19.3524 12.4222 19.4424 12.5147 19.4082L14.6005 18.6386C14.6851 18.6075 14.7801 18.6283 14.8437 18.6919L15.7399 19.5881C15.7833 19.6315 15.8075 19.6902 15.8075 19.7515V20.5617C15.8075 20.6584 15.7473 20.7449 15.6566 20.7784L11.9614 22.1417C11.7923 22.2041 11.6022 22.1623 11.4748 22.0349L9.73953 20.2996C9.61211 20.1722 9.57046 19.9823 9.63293 19.813L10.9915 16.1302C11.0295 16.0271 11.0295 15.9136 10.9915 15.8104L9.62873 12.1167Z" fill="white"/>
<path fill-rule="evenodd" clip-rule="evenodd" d="M22.3719 19.8136C22.4343 19.9827 22.3927 20.1725 22.2653 20.3002L20.5302 22.0354C20.4028 22.1629 20.2129 22.2045 20.0438 22.1422L16.3442 20.7831C16.2532 20.7497 16.1929 20.6632 16.1929 20.5663V19.7563C16.1929 19.6949 16.2171 19.6363 16.2605 19.5929L17.1611 18.6925C17.2247 18.6287 17.3197 18.6079 17.4043 18.6392L18.3981 19.0056L19.4901 19.4086C19.5824 19.4428 19.6724 19.3528 19.6384 19.2603L18.869 17.1745C18.8379 17.0898 18.8585 16.9949 18.9223 16.9313L19.723 16.131C19.8132 16.0408 19.8132 15.8945 19.723 15.8043L18.9181 14.9994C18.8543 14.9356 18.8335 14.8407 18.8648 14.7562L19.6342 12.6706C19.6684 12.5781 19.5784 12.4881 19.4859 12.5223L17.4001 13.2919C17.3155 13.323 17.2205 13.3022 17.1569 13.2385L16.2607 12.3424C16.2173 12.299 16.1931 12.2403 16.1931 12.179V11.3688C16.1931 11.2721 16.2532 11.1856 16.344 11.1521L20.0392 9.78884C20.2083 9.72637 20.3982 9.76821 20.5258 9.89563L22.2609 11.6309C22.3885 11.7583 22.4301 11.9482 22.3677 12.1175L21.0091 15.8003C20.9709 15.9034 20.9709 16.0169 21.0091 16.1201L22.3721 19.8143L22.3719 19.8136Z" fill="white"/>
<path d="M24.889 16.5778H30.7694C30.7769 16.3855 30.7817 16.1931 30.7817 16.0001C30.7817 15.8071 30.7769 15.6147 30.7694 15.4224C30.6267 11.691 29.1076 8.20299 26.4522 5.54822C23.6601 2.75615 19.9485 1.21875 16.0003 1.21875C12.0521 1.21875 8.33979 2.75615 5.54841 5.54822C2.75702 8.34028 1.21826 12.0513 1.21826 16.0001C1.21826 19.949 2.75566 23.6606 5.54773 26.452C8.33979 29.2441 12.0514 30.7815 15.9996 30.7815C17.8531 30.7815 19.6542 30.4423 21.333 29.7946C23.2299 29.0619 24.9705 27.9337 26.4522 26.4527C27.9332 24.9717 29.0614 23.2311 29.7941 21.3341H28.5381C27.1584 24.5653 24.5648 27.1589 21.333 28.5386C19.6943 29.2386 17.8911 29.626 15.9996 29.626C8.67963 29.626 2.69042 23.8244 2.38661 16.5778H7.11096V15.4224H2.38661C2.69042 8.1758 8.68031 2.3735 16.0003 2.3735C23.3203 2.3735 29.3095 8.1758 29.6133 15.4217H24.889V16.5771V16.5778Z" fill="white"/>
</svg>
