<svg width="25" height="25" viewBox="0 0 25 25" fill="none" xmlns="http://www.w3.org/2000/svg">
<path d="M12.368 24.5C18.9955 24.5 24.368 19.1274 24.368 12.5C24.368 5.87258 18.9955 0.5 12.368 0.5C5.74063 0.5 0.368042 5.87258 0.368042 12.5C0.368042 19.1274 5.74063 24.5 12.368 24.5Z" fill="#0008FF"/>
<path d="M12.342 5.66064L12.2507 5.97057V14.963L12.342 15.0541L16.5161 12.5867L12.342 5.66064Z" fill="white"/>
<path d="M12.3428 5.66016L8.16858 12.5862L12.3428 15.0536V10.6889V5.66016Z" fill="white"/>
<path d="M12.3422 15.844L12.2908 15.9067V19.11L12.3422 19.2601L16.5189 13.3779L12.3422 15.844Z" fill="white"/>
<path d="M12.3423 19.2601V15.844L8.16809 13.3779L12.3423 19.2601Z" fill="white"/>
<path d="M12.3422 15.0541L16.5163 12.5868L12.3422 10.6895V15.0541Z" fill="white"/>
<path d="M8.16809 12.5868L12.3423 15.0541V10.6895L8.16809 12.5868Z" fill="white"/>
<path d="M19.0345 12.9334H23.4449C23.4505 12.7891 23.454 12.6449 23.454 12.5001C23.454 12.3553 23.4505 12.2111 23.4449 12.0668C23.3378 9.26828 22.1985 6.65224 20.2069 4.66116C18.1129 2.56711 15.3292 1.41406 12.368 1.41406C9.40689 1.41406 6.62264 2.56711 4.5291 4.66116C2.43557 6.75521 1.28149 9.53844 1.28149 12.5001C1.28149 15.4617 2.43455 18.2455 4.52859 20.339C6.62264 22.4331 9.40638 23.5861 12.3675 23.5861C13.7576 23.5861 15.1084 23.3317 16.3675 22.8459C17.7902 22.2964 19.0957 21.4503 20.2069 20.3395C21.3177 19.2288 22.1639 17.9233 22.7134 16.5006H21.7714C20.7366 18.9239 18.7914 20.8691 16.3675 21.9039C15.1385 22.429 13.7861 22.7195 12.3675 22.7195C6.87752 22.7195 2.38561 18.3683 2.15775 12.9334H5.70102V12.0668H2.15775C2.38561 6.63185 6.87803 2.28013 12.368 2.28013C17.858 2.28013 22.3499 6.63185 22.5778 12.0663H19.0345V12.9329V12.9334Z" fill="white"/>
</svg>
