<svg width="25" height="25" viewBox="0 0 25 25" fill="none" xmlns="http://www.w3.org/2000/svg">
<path d="M12.184 24.5C18.8114 24.5 24.184 19.1274 24.184 12.5C24.184 5.87258 18.8114 0.5 12.184 0.5C5.55654 0.5 0.18396 5.87258 0.18396 12.5C0.18396 19.1274 5.55654 24.5 12.184 24.5Z" fill="#0008FF"/>
<path fill-rule="evenodd" clip-rule="evenodd" d="M18.184 12.6701C18.1083 14.2069 16.8373 15.4296 15.2806 15.4296C13.6752 15.4296 12.3737 14.1291 12.3737 12.5249C12.3737 10.9206 13.6752 9.62012 15.2806 9.62012C16.788 9.62012 18.0273 10.7665 18.1732 12.2344H16.853C16.7164 11.4907 16.0643 10.9273 15.2806 10.9273C14.3976 10.9273 13.6818 11.6425 13.6818 12.5249C13.6818 13.4072 14.3976 14.1225 15.2806 14.1225C15.9585 14.1225 16.5378 13.7009 16.7704 13.1059H14.5539V12.6701H18.184ZM7.14068 14.6791C8.28171 15.7122 10.0456 15.6788 11.1464 14.5789C12.2816 13.4445 12.2816 11.6053 11.1464 10.4709C10.0112 9.33654 8.1706 9.33654 7.03538 10.4709C5.96952 11.536 5.90439 13.2223 6.83998 14.3633L7.77344 13.4306C7.34388 12.8082 7.40619 11.949 7.96036 11.3952C8.58472 10.7713 9.59703 10.7713 10.2214 11.3952C10.8458 12.0191 10.8458 13.0307 10.2214 13.6546C9.74208 14.1336 9.03408 14.2448 8.44852 13.9884L10.0159 12.4222L9.70754 12.1141L7.14068 14.6791Z" fill="white"/>
<path d="M18.8504 12.9334H23.2608C23.2664 12.7891 23.27 12.6449 23.27 12.5001C23.27 12.3553 23.2664 12.2111 23.2608 12.0668C23.1537 9.26828 22.0144 6.65224 20.0229 4.66116C17.9288 2.56711 15.1451 1.41406 12.1839 1.41406C9.22281 1.41406 6.43856 2.56711 4.34502 4.66116C2.25148 6.75521 1.09741 9.53844 1.09741 12.5001C1.09741 15.4617 2.25046 18.2455 4.34451 20.339C6.43856 22.4331 9.2223 23.5861 12.1834 23.5861C13.5735 23.5861 14.9243 23.3317 16.1834 22.8459C17.6061 22.2964 18.9116 21.4503 20.0229 20.3395C21.1336 19.2288 21.9798 17.9233 22.5293 16.5006H21.5873C20.5525 18.9239 18.6073 20.8691 16.1834 21.9039C14.9544 22.429 13.6021 22.7195 12.1834 22.7195C6.69344 22.7195 2.20153 18.3683 1.97367 12.9334H5.51694V12.0668H1.97367C2.20153 6.63185 6.69395 2.28013 12.1839 2.28013C17.6739 2.28013 22.1658 6.63185 22.3937 12.0663H18.8504V12.9329V12.9334Z" fill="white"/>
</svg>
