<svg width="36" height="36" viewBox="0 0 36 36" fill="none" xmlns="http://www.w3.org/2000/svg">
<path d="M18 36C27.9411 36 36 27.9411 36 18C36 8.05888 27.9411 0 18 0C8.05888 0 0 8.05888 0 18C0 27.9411 8.05888 36 18 36Z" fill="#0008FF"/>
<path d="M28.0006 18.6501H34.6161C34.6246 18.4337 34.6299 18.2173 34.6299 18.0001C34.6299 17.783 34.6246 17.5666 34.6161 17.3502C34.4556 13.1524 32.7466 9.22836 29.7593 6.24175C26.6182 3.10067 22.4426 1.37109 18.0009 1.37109C13.5592 1.37109 9.38282 3.10067 6.24251 6.24175C3.1022 9.38282 1.37109 13.5577 1.37109 18.0001C1.37109 22.4426 3.10067 26.6182 6.24174 29.7585C9.38282 32.8996 13.5584 34.6292 18.0001 34.6292C20.0853 34.6292 22.1115 34.2476 24.0001 33.5189C26.1342 32.6947 28.0924 31.4254 29.7593 29.7593C31.4254 28.0932 32.6947 26.135 33.5189 24.0009H32.1059C30.5537 27.6359 27.6359 30.5537 24.0001 32.1059C22.1566 32.8935 20.1281 33.3293 18.0001 33.3293C9.76513 33.3293 3.02727 26.8025 2.68548 18.6501H8.00038V17.3502H2.68548C3.02727 9.19778 9.76589 2.67019 18.0009 2.67019C26.2359 2.67019 32.9737 9.19778 33.3155 17.3494H28.0006V18.6493V18.6501Z" fill="white"/>
<g clip-path="url(#clip0_179_1414)">
<path d="M14.2568 13.0732C15.5058 9.99938 19.8181 10.0577 20.9887 13.1644C21.3406 14.0997 22.07 14.8454 22.9798 15.2045C25.9829 16.3786 25.9282 20.7506 22.8923 21.8427C21.9678 22.1745 21.2221 22.9037 20.8465 23.8281C19.592 26.9147 15.2542 26.8363 14.1036 23.7096C13.748 22.7889 13.0242 22.0505 12.1216 21.6986C9.11847 20.5245 9.17318 16.1526 12.2091 15.0605C13.1336 14.7287 13.8793 13.9994 14.2549 13.0751L14.2568 13.0732Z" fill="#E5E5E5"/>
<path d="M14.3443 13.1444C15.5605 10.1526 19.7579 10.2091 20.8957 13.2319C21.2366 14.1435 21.9478 14.8691 22.8339 15.2174C25.7568 16.3605 25.7021 20.6139 22.7501 21.6787C21.8493 22.0014 21.1254 22.7106 20.7589 23.6112C19.5373 26.6158 15.3161 26.5392 14.1966 23.4964C13.8519 22.5994 13.1463 21.8829 12.2674 21.5383C9.34455 20.3952 9.39925 16.1417 12.3513 15.077C13.2521 14.7543 13.9759 14.0451 14.3424 13.1444H14.3443Z" fill="white"/>
<path d="M12.4862 15.2338C13.387 14.9111 14.1109 14.2019 14.4774 13.3013C15.5094 10.7634 18.6803 10.4189 20.3159 12.2129C18.7259 10.2457 15.4037 10.5374 14.3443 13.1445C13.9778 14.0451 13.2539 14.7543 12.3531 15.077C9.92257 15.954 9.45396 18.9896 10.9947 20.6742C9.61807 18.9659 10.1286 16.0834 12.4862 15.2338Z" fill="#959595"/>
<path d="M14.3336 23.3469C14.0164 22.4572 13.3198 21.7425 12.4355 21.3797C9.94109 20.3606 9.60194 17.2284 11.3633 15.613C9.43054 17.1846 9.71864 20.4645 12.2787 21.511C13.163 21.8756 13.8614 22.5903 14.1768 23.48C15.0374 25.8811 18.0205 26.3424 19.6761 24.82C17.9968 26.1801 15.1651 25.6769 14.33 23.3487L14.3336 23.3469Z" fill="#8E8E8E"/>
<path d="M22.6172 21.5218C21.7165 21.8445 20.9926 22.5537 20.6261 23.4543C19.5959 25.9922 16.4232 26.3367 14.7876 24.5427C16.3776 26.5099 19.6998 26.2164 20.7592 23.6111C21.1257 22.7105 21.8496 22.0012 22.7503 21.6785C25.1809 20.8034 25.6477 17.766 24.1069 16.0833C25.4836 17.7934 24.9748 20.674 22.6172 21.5236V21.5218Z" fill="#B8B8B8"/>
<path opacity="0.3" d="M22.7028 21.6348C21.7856 21.9629 21.0471 22.6849 20.6733 23.6001C19.6231 26.1799 16.3902 26.5318 14.7236 24.7086C16.3446 26.7086 19.7306 26.4114 20.8101 23.7606C21.1839 22.8453 21.9223 22.1234 22.8395 21.7952C25.3157 20.9037 25.7916 17.817 24.2216 16.1033C25.6256 17.8426 25.106 20.7724 22.7028 21.6366V21.6348Z" fill="#B1B1B1"/>
<path d="M15.9763 20.2584H14.7856V16.4954H15.9763V20.2584Z" fill="#0008FF"/>
<path d="M18.1023 20.2584H16.9116V16.4954H19.3331C20.2867 16.4954 20.9158 16.9566 20.9158 17.8372C20.9158 18.7178 20.2867 19.1791 19.3331 19.1791H18.1005V20.2584H18.1023ZM19.2711 18.1927C19.5792 18.1927 19.7433 18.0505 19.7433 17.8372C19.7433 17.6239 19.5811 17.4817 19.2711 17.4817H18.1023V18.1946H19.2711V18.1927Z" fill="#0008FF"/>
</g>
<defs>
<clipPath id="clip0_179_1414">
<rect width="15.3" height="15.3" fill="white" transform="translate(9.90088 10.7998)"/>
</clipPath>
</defs>
</svg>
