<svg width="32" height="32" viewBox="0 0 32 32" fill="none" xmlns="http://www.w3.org/2000/svg">
<path d="M16 32C24.8366 32 32 24.8366 32 16C32 7.16344 24.8366 0 16 0C7.16344 0 0 7.16344 0 16C0 24.8366 7.16344 32 16 32Z" fill="#0008FF"/>
<path fill-rule="evenodd" clip-rule="evenodd" d="M22.8152 16.1612C22.8152 16.2058 22.7706 16.2058 22.7259 16.1612C22.7259 16.1612 22.7259 16.1165 22.6813 16.1165C22.6813 16.0719 22.6813 16.0272 22.6813 16.0272C22.6813 16.0272 22.6813 16.0272 22.7259 15.9825C22.7706 15.9379 22.8152 15.9379 22.8152 15.9825C22.8152 16.0272 22.8152 16.1165 22.8152 16.1612ZM22.5026 15.268C22.458 15.3573 22.324 15.3573 22.2793 15.268C22.2793 15.268 22.2793 15.2234 22.2347 15.2234C22.0114 14.9108 21.7881 14.5981 21.5202 14.2855C21.4755 14.1962 21.5202 14.1069 21.6095 14.1069C22.2347 14.1069 22.5473 14.2409 22.6366 14.4642C22.7259 14.5981 22.7259 14.8661 22.5026 15.268ZM22.3687 18.4834C22.324 18.5727 22.2793 18.662 22.2793 18.7513V18.796C22.0561 19.2426 21.6541 19.5552 21.1629 19.8231C21.0289 19.8678 20.9396 19.7785 20.9396 19.6445C21.1182 19.064 21.2522 18.3941 21.2969 17.7242C21.2969 17.5902 21.3862 17.5009 21.4755 17.4116C21.6988 17.233 21.8774 17.0543 22.0561 16.8757C22.1454 16.7864 22.2793 16.831 22.324 16.965C22.5026 17.4563 22.5473 17.9922 22.3687 18.4834ZM20.9843 20.627C20.9396 20.6716 20.8949 20.7163 20.8056 20.8056C20.7163 20.8949 20.627 20.9843 20.5377 21.0736C20.493 21.1182 20.4037 21.0736 20.4037 20.9843C20.4037 20.9843 20.4037 20.9396 20.4484 20.9396C20.493 20.8503 20.5377 20.761 20.5823 20.6716L20.627 20.627C20.7163 20.5823 20.8056 20.5823 20.8949 20.5377C20.9843 20.493 21.0289 20.5823 20.9843 20.627ZM19.9571 20.0911C19.7338 20.1358 19.5552 20.1358 19.3319 20.1358C18.796 20.1358 18.2155 20.0911 17.5902 20.0018C17.5009 20.0018 17.5009 19.8678 17.5902 19.8678C17.7242 19.8231 17.8582 19.7338 17.9922 19.6445C18.8853 19.1533 19.7785 18.6174 20.493 18.0815C20.5377 18.0368 20.627 18.0815 20.627 18.1708C20.5377 18.796 20.359 19.3766 20.1804 19.9125C20.1358 20.0018 20.0911 20.0911 19.9571 20.0911ZM19.7785 20.9396C19.2872 21.9221 18.7067 22.458 18.0815 22.4133C17.4563 22.4133 16.8311 21.7434 16.3398 20.5823C16.2952 20.493 16.3398 20.4484 16.4291 20.4037C16.4738 20.4037 16.4738 20.4037 16.5184 20.4037C17.4116 20.6716 18.2601 20.761 19.064 20.761C19.1533 20.761 19.2426 20.761 19.3319 20.761C19.4212 20.761 19.5552 20.761 19.6445 20.761C19.7338 20.761 19.8231 20.8503 19.7785 20.9396ZM16.8757 22.7706C16.5631 22.8152 16.2952 22.8152 15.9825 22.8152C14.6428 22.8152 13.3924 22.458 12.2759 21.7434C12.1866 21.6988 12.2313 21.5648 12.3206 21.5648H12.3652C12.6332 21.5648 12.9458 21.5202 13.2584 21.4308C13.9729 21.2969 14.7321 21.0736 15.5806 20.761C15.6699 20.7163 15.7146 20.761 15.7593 20.8503C16.0719 21.6095 16.4738 22.19 16.9204 22.5919C17.0097 22.6366 16.965 22.7259 16.8757 22.7706ZM12.9011 17.9475C13.5263 17.4563 14.1962 16.965 15.0001 16.5184C15.0001 17.5009 15.134 18.4834 15.3127 19.3319C15.0447 19.1979 14.7321 19.064 14.4642 18.93C13.8836 18.6174 13.3924 18.3048 12.9011 17.9475ZM11.0255 20.627C10.8915 20.359 11.0702 19.7338 12.008 18.7513C12.0973 18.662 12.0973 18.4834 12.008 18.3941C11.9633 18.3494 11.9187 18.3494 11.874 18.3048C11.7847 18.2155 11.6507 18.2155 11.5614 18.3048L11.5167 18.3494C11.0255 18.8407 10.7129 19.2872 10.5343 19.6892C10.4896 19.8231 10.311 19.8231 10.2663 19.6892C9.55178 18.5727 9.14985 17.2776 9.14985 15.9379C9.14985 15.4466 9.19451 14.9554 9.28383 14.5088C9.28383 14.4195 9.4178 14.4195 9.4178 14.5088C9.55178 15.0001 9.77507 15.4466 10.1323 15.9379C10.5789 16.6078 11.1148 17.233 11.7847 17.8135C12.008 17.9922 12.2759 18.2155 12.4992 18.3941C12.9905 18.7513 13.571 19.1086 14.1516 19.4212C14.4195 19.5552 14.6875 19.6892 14.9108 19.8231C15.0447 19.8678 15.2234 19.9125 15.3573 19.8231C15.4913 19.7785 15.6253 19.7338 15.7146 19.6892C15.8486 19.6445 15.9379 19.4659 15.8932 19.3319V19.2872C15.6699 18.4387 15.5806 17.4563 15.5806 16.4291V16.3845C15.5806 16.3398 15.5806 16.2505 15.5806 16.2058V16.1612C15.5806 16.1165 15.5806 16.0272 15.5806 15.9825C15.5806 15.8039 15.5806 15.6253 15.5806 15.4466C15.6253 14.1962 15.8486 13.0351 16.2058 12.0526C16.2505 11.9633 16.2058 11.874 16.1165 11.8293C16.0272 11.7847 15.9379 11.7847 15.8486 11.74C15.7593 11.6954 15.6699 11.74 15.6253 11.8293C15.268 12.9011 15.0447 14.1516 15.0001 15.4913C15.0001 15.6699 14.9108 15.8039 14.7768 15.8932C13.9729 16.3398 13.2584 16.8757 12.6332 17.3669C12.4992 17.4563 12.3206 17.4563 12.1866 17.3669C11.5614 16.831 11.0255 16.2505 10.6236 15.6253C9.81972 14.4195 9.64109 13.3031 10.0877 12.4099C10.177 12.3206 10.2216 12.2313 10.2663 12.1419C10.7575 11.4721 11.74 11.0702 12.9905 11.0255C13.0798 11.0255 13.1691 11.0255 13.2137 11.0255C13.9729 11.0255 14.8214 11.1595 15.6699 11.3828H15.7146H15.7593C15.9379 11.4274 16.1612 11.5167 16.3398 11.5614C16.3845 11.5614 16.4291 11.606 16.4738 11.606H16.5184H16.5631C16.965 11.7847 17.4116 11.9633 17.8135 12.1866C18.6174 12.5885 19.3319 13.0798 19.9571 13.6157C18.7514 13.8836 17.3669 14.4195 15.9379 15.134C15.8932 15.1787 15.8486 15.2234 15.8486 15.3127C15.8486 15.402 15.8486 15.5806 15.8486 15.7146C15.8486 15.8039 15.9379 15.8486 16.0272 15.8039C17.4116 15.0894 18.796 14.5088 20.0018 14.2409C20.2251 14.1962 20.359 13.9729 20.359 13.7496C20.359 13.571 20.3144 13.437 20.2697 13.3031C20.2251 13.1244 20.1358 12.9458 19.9571 12.8118C19.4212 12.3652 18.796 12.008 18.1261 11.6507C17.6796 11.4274 17.233 11.2041 16.7864 11.0255C16.6971 10.9808 16.6524 10.8915 16.6971 10.8022C17.1437 9.9537 17.7242 9.50712 18.2601 9.50712C18.8853 9.50712 19.5105 10.177 20.0018 11.3381C20.2251 11.9187 20.4037 12.5885 20.5377 13.3031C20.5823 13.6157 20.627 13.9283 20.6716 14.2409C20.7163 14.7768 20.761 15.3573 20.7163 15.9379C20.7163 16.2952 20.6716 16.6524 20.6716 17.0097C19.8231 17.6796 18.7513 18.3941 17.6349 18.9746C17.2776 19.1979 16.8757 19.3766 16.5184 19.5552C16.4738 19.5552 16.4738 19.5999 16.4291 19.5999C16.1165 19.7338 15.8039 19.8678 15.4913 20.0018H15.4466C15.4466 20.0018 15.402 20.0018 15.402 20.0464C15.3573 20.0464 15.3127 20.0911 15.268 20.0911H15.2234C15.1787 20.1358 15.0894 20.1358 15.0447 20.1358C15.0447 20.1358 15.0447 20.1358 15.0001 20.1358C14.3302 20.359 13.7496 20.5377 13.1691 20.6716C11.8293 21.0736 11.1595 20.8949 11.0255 20.627ZM12.008 10.3556C13.1691 9.55178 14.5535 9.10519 15.9825 9.10519C16.3845 9.10519 16.7417 9.14985 17.099 9.19451C17.1883 9.19451 17.233 9.32848 17.1437 9.4178C16.7864 9.68575 16.4738 10.1323 16.1612 10.6682C16.0719 10.8022 15.9379 10.8469 15.8039 10.8022C14.8214 10.5343 13.8836 10.4003 12.9905 10.4449C12.6778 10.4449 12.3652 10.4449 12.0526 10.4896C11.9633 10.5343 11.9187 10.4003 12.008 10.3556ZM21.4308 15.3573C21.4308 15.268 21.5202 15.2234 21.5648 15.3127C21.6095 15.402 21.6541 15.4913 21.7434 15.536C21.8328 15.6253 21.8774 15.7593 21.9221 15.8486C21.9667 15.8932 21.9667 15.9825 21.9221 16.0719C21.8328 16.1612 21.7434 16.2505 21.6541 16.3398C21.6095 16.3845 21.5648 16.4291 21.5648 16.4291C21.5202 16.4738 21.4308 16.4291 21.4308 16.3845C21.4308 16.2505 21.4308 16.1612 21.4308 16.0272C21.4308 15.8039 21.4308 15.5806 21.4308 15.3573ZM20.7163 10.9808C20.761 11.0255 20.8056 11.0702 20.8503 11.1148C21.5202 11.7847 22.0114 12.5439 22.3687 13.3924C22.4133 13.4817 22.324 13.571 22.2347 13.571C22.0561 13.5263 21.8328 13.5263 21.5648 13.5263C21.3862 13.5263 21.2522 13.3924 21.2075 13.2584C21.0736 12.4992 20.8949 11.8293 20.627 11.2041C20.627 11.1595 20.5823 11.1148 20.5823 11.1148C20.5377 10.9808 20.627 10.9362 20.7163 10.9808ZM23.3065 14.4195C22.9939 13.0351 22.324 11.74 21.2969 10.6682C19.8678 9.23917 17.9922 8.47998 15.9825 8.47998C13.9729 8.47998 12.0973 9.23917 10.7129 10.6682C10.3556 11.0255 10.043 11.3828 9.81972 11.7847C9.68575 11.874 9.64109 12.008 9.55178 12.0973C8.8819 13.2584 8.47998 14.5535 8.47998 15.9379C8.47998 17.9475 9.23917 19.8231 10.6682 21.2075C12.0973 22.6366 13.9729 23.3958 15.9379 23.3958C17.9475 23.3958 19.8231 22.6366 21.2075 21.2075C21.8774 20.5377 22.4133 19.7785 22.7706 18.93C22.8152 18.8407 22.8599 18.7513 22.9046 18.662C23.2618 17.8135 23.3958 16.8757 23.3958 15.9379C23.4405 15.4466 23.3958 14.9108 23.3065 14.4195Z" fill="white"/>
<path d="M24.889 16.5778H30.7694C30.7769 16.3855 30.7817 16.1931 30.7817 16.0001C30.7817 15.8071 30.7769 15.6147 30.7694 15.4224C30.6267 11.691 29.1076 8.20299 26.4522 5.54822C23.6601 2.75615 19.9485 1.21875 16.0003 1.21875C12.0521 1.21875 8.33979 2.75615 5.54841 5.54822C2.75702 8.34028 1.21826 12.0513 1.21826 16.0001C1.21826 19.949 2.75566 23.6606 5.54773 26.452C8.33979 29.2441 12.0514 30.7815 15.9996 30.7815C17.8531 30.7815 19.6542 30.4423 21.333 29.7946C23.2299 29.0619 24.9705 27.9337 26.4522 26.4527C27.9332 24.9717 29.0614 23.2311 29.7941 21.3341H28.5381C27.1584 24.5653 24.5648 27.1589 21.333 28.5386C19.6943 29.2386 17.8911 29.626 15.9996 29.626C8.67963 29.626 2.69042 23.8244 2.38661 16.5778H7.11096V15.4224H2.38661C2.69042 8.1758 8.68031 2.3735 16.0003 2.3735C23.3203 2.3735 29.3095 8.1758 29.6133 15.4217H24.889V16.5771V16.5778Z" fill="white"/>
</svg>
