<svg width="288" height="52" viewBox="0 0 288 52" fill="none" xmlns="http://www.w3.org/2000/svg">
<path d="M0 0.632935H63.9187L71.7936 10.7796H7.87483L0 0.632935Z" fill="black"/>
<path d="M0 20.9288H63.9187L71.7936 31.0755H7.87483L0 20.9288Z" fill="black"/>
<path d="M0 41.2205H63.9187L71.7936 51.3671H7.87483L0 41.2205Z" fill="black"/>
<path d="M7.87891 31.0703V41.217H16.3984L7.87891 31.0703Z" fill="black"/>
<path d="M7.87891 10.7787V20.9253H16.3984L7.87891 10.7787Z" fill="black"/>
<path d="M88.8994 17.0648H117.542V21.0405H92.8973V23.962H116.862V27.9376H92.8973V30.6613H117.542V34.6369H88.8994V17.0648Z" fill="black"/>
<path d="M126.923 34.6369C126.162 34.6369 125.452 34.4464 124.793 34.0657C124.148 33.6705 123.636 33.1507 123.255 32.5064C122.874 31.8473 122.684 31.137 122.684 30.3756V29.0357H126.682V30.0241C126.682 30.2146 126.74 30.3684 126.857 30.4856C126.975 30.6027 127.121 30.6613 127.297 30.6613H146.956C147.146 30.6613 147.293 30.6027 147.395 30.4856C147.512 30.3684 147.571 30.2146 147.571 30.0241V29.0798C147.571 28.9186 147.512 28.7869 147.395 28.6843C147.293 28.5672 147.153 28.4867 146.978 28.4429L126.901 27.1249C126.111 26.993 125.4 26.7514 124.771 26.3999C124.156 26.0485 123.658 25.558 123.277 24.9284C122.896 24.2841 122.699 23.5006 122.684 22.578L122.662 21.1943C122.647 20.4621 122.816 19.7812 123.167 19.1515C123.533 18.5072 124.031 18.002 124.661 17.6359C125.29 17.2552 125.979 17.0648 126.726 17.0648H147.329C148.061 17.0648 148.75 17.2625 149.394 17.6579C150.038 18.0386 150.558 18.5585 150.954 19.2174C151.349 19.8617 151.547 20.5573 151.547 21.3041V22.5561H147.571V21.6775C147.571 21.4725 147.512 21.3187 147.395 21.2162C147.293 21.0991 147.146 21.0405 146.956 21.0405H127.297C127.121 21.0405 126.975 21.0991 126.857 21.2162C126.74 21.3334 126.682 21.4871 126.682 21.6775V22.5341C126.682 22.5927 126.682 22.644 126.682 22.6879C126.696 22.7172 126.718 22.7538 126.748 22.7977C126.792 22.9002 126.857 22.9808 126.945 23.0393C127.033 23.0979 127.136 23.1418 127.253 23.1711L147.439 24.5548C148.288 24.716 149.013 24.9796 149.614 25.3456C150.229 25.697 150.705 26.173 151.041 26.7735C151.378 27.3592 151.547 28.0621 151.547 28.8819L151.591 30.5513C151.591 31.3275 151.407 32.0304 151.041 32.6599C150.675 33.275 150.177 33.7583 149.548 34.1098C148.933 34.4612 148.266 34.6369 147.549 34.6369H126.923Z" fill="black"/>
<path d="M160.636 34.6369C159.904 34.6369 159.216 34.4464 158.571 34.0657C157.927 33.6705 157.407 33.1507 157.012 32.5064C156.617 31.8473 156.419 31.1444 156.419 30.3977V21.3041C156.419 20.5426 156.609 19.8397 156.99 19.1954C157.385 18.5365 157.905 18.0166 158.55 17.6359C159.209 17.2552 159.897 17.0648 160.614 17.0648H181.108C181.84 17.0648 182.529 17.2625 183.173 17.6579C183.832 18.0386 184.359 18.5585 184.754 19.2174C185.15 19.8617 185.348 20.5573 185.348 21.3041V24.4891H181.35V21.6995C181.35 21.4945 181.291 21.3334 181.174 21.2162C181.057 21.0991 180.903 21.0405 180.713 21.0405H161.032C160.856 21.0405 160.702 21.1064 160.57 21.2382C160.453 21.3553 160.395 21.5091 160.395 21.6995V30.0022C160.395 30.1341 160.424 30.2513 160.483 30.3537C160.556 30.4415 160.636 30.5149 160.724 30.5734C160.827 30.632 160.937 30.6613 161.054 30.6613H180.713C180.903 30.6613 181.057 30.5953 181.174 30.4634C181.291 30.3317 181.35 30.1779 181.35 30.0022V27.0149H185.348V30.3977C185.348 31.1444 185.15 31.8473 184.754 32.5064C184.374 33.1507 183.854 33.6705 183.195 34.0657C182.536 34.4464 181.833 34.6369 181.086 34.6369H160.636Z" fill="black"/>
<path d="M190.182 17.0648H194.157V24.0936H215.42V17.0648H219.418V34.6369H215.42V28.0914H194.157V34.6369H190.182V17.0648Z" fill="black"/>
<path d="M225.068 17.0648H253.71V21.0405H229.066V23.962H253.03V27.9376H229.066V30.6613H253.71V34.6369H225.068V17.0648Z" fill="black"/>
<path d="M258.83 17.0648H283.651C284.37 17.0648 285.037 17.2478 285.65 17.6139C286.266 17.9654 286.748 18.4486 287.1 19.0636C287.451 19.6787 287.626 20.3596 287.626 21.1064V25.4115C287.626 26.3487 287.386 27.1542 286.902 27.8278C286.434 28.5014 285.804 28.9626 285.013 29.2115L288 34.6369H283.498L280.597 29.4091H262.806V34.6369H258.83V17.0648ZM283.037 25.4335C283.226 25.4335 283.381 25.3749 283.498 25.2577C283.616 25.1406 283.674 24.987 283.674 24.7965V21.6995C283.674 21.4945 283.616 21.3334 283.498 21.2162C283.381 21.0991 283.226 21.0405 283.037 21.0405H262.806V25.4335H283.037Z" fill="black"/>
</svg>
