<svg width="24" height="24" viewBox="0 0 24 24" fill="none" xmlns="http://www.w3.org/2000/svg">
<path d="M19.0768 19.0889H6.57682L4.91016 17.4222V4.92224L6.57682 6.58891V17.4222H17.4102L19.0768 19.0889Z" fill="#0008FF"/>
<path d="M8.89865 15.3556L7.50977 14.4334L9.53198 11.4001C9.99865 10.7112 10.732 10.2667 11.5653 10.1778C12.3875 10.1001 13.2098 10.3889 13.7875 10.9778C14.0209 11.2112 14.332 11.3223 14.6764 11.3001C15.0098 11.2667 15.2987 11.0889 15.4764 10.8112L17.4986 7.76672L18.8875 8.68895L16.8653 11.7334C16.3987 12.4223 15.6653 12.8667 14.832 12.9556C14.0098 13.0334 13.1875 12.7445 12.6098 12.1556C12.3764 11.9223 12.0542 11.8112 11.7209 11.8334C11.3875 11.8667 11.0986 12.0445 10.9209 12.3223L8.89865 15.3556Z" fill="#666BFF"/>
</svg>
