<svg width="24" height="24" viewBox="0 0 24 24" fill="none" xmlns="http://www.w3.org/2000/svg">
<rect width="24" height="24" rx="12" fill="#dedfff" fill-opacity="0.1"/>
<path d="M12.0007 9.67765C14.7562 9.67765 17.0007 11.9221 17.0007 14.6777H18.6673C18.6673 10.9999 15.6784 8.01099 12.0007 8.01099C8.32287 8.01099 5.33398 10.9999 5.33398 14.6777H7.00065C7.00065 11.9221 9.2451 9.67765 12.0007 9.67765ZM12.0007 19.6777C9.2451 19.6777 7.00065 17.4332 7.00065 14.6777L5.50065 16.1777C6.18954 19.1332 8.83399 21.3443 12.0007 21.3443C15.1673 21.3443 17.8118 19.1332 18.5007 16.1777L17.0007 14.6777C17.0007 17.4332 14.7562 19.6777 12.0007 19.6777Z" fill="white"/>
<path d="M12.8343 7.6444V5.85551L13.9121 6.93329L15.0899 5.75551L12.001 2.66663L8.91211 5.75551L10.0899 6.93329L11.1677 5.85551V7.6444C11.4454 7.61107 11.7232 7.58885 12.001 7.58885C12.2788 7.58885 12.5566 7.61107 12.8343 7.6444Z" fill="#666BFF"/>
</svg>
