<svg width="24" height="24" viewBox="0 0 24 24" fill="none" xmlns="http://www.w3.org/2000/svg">
<rect width="24" height="24" rx="12" fill="#dedfff"/>
<path d="M12.0007 9.6779C14.7562 9.6779 17.0007 11.9223 17.0007 14.6779H18.6673C18.6673 11.0001 15.6784 8.01123 12.0007 8.01123C8.32287 8.01123 5.33398 11.0001 5.33398 14.6779H7.00065C7.00065 11.9223 9.2451 9.6779 12.0007 9.6779ZM12.0007 19.6779C9.2451 19.6779 7.00065 17.4335 7.00065 14.6779L5.50065 16.1779C6.18954 19.1335 8.83399 21.3446 12.0007 21.3446C15.1673 21.3446 17.8118 19.1335 18.5007 16.1779L17.0007 14.6779C17.0007 17.4335 14.7562 19.6779 12.0007 19.6779Z" fill="#0008FF"/>
<path d="M12.8343 7.64453V5.85564L13.9121 6.93342L15.0899 5.75564L12.001 2.66675L8.91211 5.75564L10.0899 6.93342L11.1677 5.85564V7.64453C11.4454 7.61119 11.7232 7.58897 12.001 7.58897C12.2788 7.58897 12.5566 7.61119 12.8343 7.64453Z" fill="#666BFF"/>
</svg>
