<svg width="25" height="24" viewBox="0 0 25 24" fill="none" xmlns="http://www.w3.org/2000/svg">
<path d="M7.33464 18.5445V10.2111H5.66797V18.5445L7.33464 20.2111H17.3346L15.668 18.5445H7.33464Z" fill="#0008FF"/>
<path d="M17.334 8.54444H15.6673V7.23333C15.6673 5.62222 14.5673 4.13333 12.9896 3.83333C10.8562 3.43333 9.00065 5.05555 9.00065 7.09999V8.53333H7.33398L9.00065 10.2H17.334V18.5333H19.0007V10.2L17.334 8.53333V8.54444ZM10.6673 8.54444V7.1111C10.6673 6.18888 11.4118 5.44444 12.334 5.44444C13.2562 5.44444 14.0007 6.18888 14.0007 7.1111V8.54444H10.6673Z" fill="#666BFF"/>
<path d="M11.502 13.5445V16.0445H13.1686V13.5445C13.1686 13.0889 12.7908 12.7111 12.3353 12.7111C11.8797 12.7111 11.502 13.0889 11.502 13.5445Z" fill="#0008FF"/>
</svg>
