<svg width="28" height="28" viewBox="0 0 28 28" fill="none" xmlns="http://www.w3.org/2000/svg">
<rect width="28" height="28" rx="6" fill="#CFF3FF"/>
<path d="M20.5454 2H7.45454C4.44209 2 2 4.44209 2 7.45454V20.5454C2 23.5579 4.44209 26 7.45454 26H20.5454C23.5579 26 26 23.5579 26 20.5454V7.45454C26 4.44209 23.5579 2 20.5454 2Z" fill="url(#paint0_linear_37_1237)"/>
<path d="M20.5454 2H7.45454C4.44209 2 2 4.44209 2 7.45454V20.5454C2 23.5579 4.44209 26 7.45454 26H20.5454C23.5579 26 26 23.5579 26 20.5454V7.45454C26 4.44209 23.5579 2 20.5454 2Z" fill="url(#paint1_radial_37_1237)"/>
<path d="M20.5454 2H7.45454C4.44209 2 2 4.44209 2 7.45454V20.5454C2 23.5579 4.44209 26 7.45454 26H20.5454C23.5579 26 26 23.5579 26 20.5454V7.45454C26 4.44209 23.5579 2 20.5454 2Z" fill="url(#paint2_radial_37_1237)"/>
<path d="M20.5454 2H7.45454C4.44209 2 2 4.44209 2 7.45454V20.5454C2 23.5579 4.44209 26 7.45454 26H20.5454C23.5579 26 26 23.5579 26 20.5454V7.45454C26 4.44209 23.5579 2 20.5454 2Z" fill="url(#paint3_radial_37_1237)"/>
<path d="M11.8606 20.4352V14.8682L17.2696 20.4352H20.279V20.2903L14.057 13.9499L19.8002 7.9348V7.86377H16.7713L11.8606 13.1793V7.86377H9.42188V20.4352H11.8606Z" fill="white"/>
<defs>
<linearGradient id="paint0_linear_37_1237" x1="14" y1="2" x2="14" y2="26" gradientUnits="userSpaceOnUse">
<stop stop-color="#1FD1FF"/>
<stop offset="1" stop-color="#1BB8FF"/>
</linearGradient>
<radialGradient id="paint1_radial_37_1237" cx="0" cy="0" r="1" gradientUnits="userSpaceOnUse" gradientTransform="translate(3.14642 25.0906) rotate(-45.1556) scale(38.4884 39.0642)">
<stop stop-color="#232DE3"/>
<stop offset="1" stop-color="#232DE3" stop-opacity="0"/>
</radialGradient>
<radialGradient id="paint2_radial_37_1237" cx="0" cy="0" r="1" gradientUnits="userSpaceOnUse" gradientTransform="translate(24.7074 25.863) rotate(-138.45) scale(24.065 36.6923)">
<stop stop-color="#8B4DFF"/>
<stop offset="1" stop-color="#8B4DFF" stop-opacity="0"/>
</radialGradient>
<radialGradient id="paint3_radial_37_1237" cx="0" cy="0" r="1" gradientUnits="userSpaceOnUse" gradientTransform="translate(13.8001 2.178) rotate(90) scale(18.922 45.9099)">
<stop stop-color="#24D5FF"/>
<stop offset="1" stop-color="#1BB8FF" stop-opacity="0"/>
</radialGradient>
</defs>
</svg>
