<svg width="31" height="28" viewBox="0 0 31 28" fill="none" xmlns="http://www.w3.org/2000/svg">
<rect width="30.6667" height="28" rx="6" fill="#FFE4CC"/>
<path d="M26.6341 13.983L27.8328 12.6062L27.3116 12.2323L28.1455 11.4844L27.5027 11.0085L28.3366 10.3966L27.798 9.98867L28.6667 5.84136L27.3464 2M27.3464 2L18.8686 5.07649H11.798L3.3203 2L2 5.84136L2.88599 9.98867L2.33008 10.3966L3.18132 11.0085L2.53855 11.4844L3.37242 12.2323L2.85125 12.6062L4.04995 13.983L2.22584 19.4901L3.91097 25.1161L9.83496 23.5184L10.9815 24.4363L13.3268 26H17.3398L19.6851 24.4363L20.8317 23.5184L26.7731 25.1161L28.4756 19.4901L26.6341 13.983" fill="#F5841F"/>
<path d="M27.3464 2L16.9403 9.49575L18.8686 5.07649L27.3464 2Z" fill="#E27625"/>
<path d="M3.3203 2L13.6395 9.56374L11.798 5.07649L3.3203 2Z" fill="#E27625"/>
<path d="M23.6113 19.3881L20.8317 23.5014L26.7731 25.0991L28.4756 19.4731L23.6113 19.3881Z" fill="#E27625"/>
<path d="M2.22584 19.4731L3.91097 25.0991L9.83496 23.5014L7.07275 19.3881L2.22584 19.4731Z" fill="#E27625"/>
<path d="M9.52226 12.4193L7.87188 14.8499L13.7438 15.1048L13.5527 8.95184L9.52226 12.4193Z" fill="#E27625"/>
<path d="M21.1618 12.4193L17.0619 8.88385L16.9403 15.1048L22.8122 14.8499L21.1618 12.4193Z" fill="#E27625"/>
<path d="M9.83496 23.5014L13.3963 21.8357L10.3214 19.5241L9.83496 23.5014Z" fill="#E27625"/>
<path d="M17.2877 21.8357L20.8317 23.5014L20.3453 19.5241L17.2877 21.8357Z" fill="#E27625"/>
<path d="M20.8317 23.5014L17.2877 21.8357L17.5831 24.0793L17.5483 25.0312L20.8317 23.5014Z" fill="#D7C1B3"/>
<path d="M9.83496 23.5014L13.1357 25.0312L13.1184 24.0793L13.3963 21.8357L9.83496 23.5014Z" fill="#D7C1B3"/>
<path d="M13.1878 18.0283L10.2519 17.1955L12.3366 16.2606L13.1878 18.0283Z" fill="#2F343B"/>
<path d="M17.4788 18.0283L18.3474 16.2606L20.4321 17.1955L17.4788 18.0283Z" fill="#2F343B"/>
<path d="M9.83496 23.5014L10.3561 19.3881L7.07275 19.4731L9.83496 23.5014Z" fill="#CC6228"/>
<path d="M20.3279 19.3881L20.8317 23.5014L23.6113 19.4731L20.3279 19.3881Z" fill="#CC6228"/>
<path d="M22.8122 14.8499L16.9403 15.1048L17.4788 18.0283L18.3474 16.2606L20.4321 17.1955L22.8122 14.8499Z" fill="#CC6228"/>
<path d="M10.2519 17.1955L12.3366 16.2606L13.1878 18.0283L13.7438 15.1048L7.87188 14.8499L10.2519 17.1955Z" fill="#CC6228"/>
<path d="M7.87188 14.8499L10.3214 19.5241L10.2519 17.1955L7.87188 14.8499Z" fill="#E27625"/>
<path d="M20.4321 17.1955L20.3453 19.5241L22.8122 14.8499L20.4321 17.1955Z" fill="#E27625"/>
<path d="M13.7438 15.1048L13.1878 18.0283L13.8827 21.4958L14.0391 16.9405L13.7438 15.1048Z" fill="#E27625"/>
<path d="M16.9403 15.1048L16.645 16.9235L16.7839 21.4958L17.4788 18.0283L16.9403 15.1048Z" fill="#E27625"/>
<path d="M17.4788 18.0283L16.7839 21.4958L17.2877 21.8357L20.3453 19.5241L20.4321 17.1955L17.4788 18.0283Z" fill="#F5841F"/>
<path d="M10.2519 17.1955L10.3214 19.5241L13.3963 21.8357L13.8827 21.4958L13.1878 18.0283L10.2519 17.1955Z" fill="#F5841F"/>
<path d="M17.5483 25.0312L17.5831 24.0793L17.3051 23.8584H13.3616L13.1184 24.0793L13.1357 25.0312L9.83496 23.5014L10.9815 24.4193L13.3268 26H17.3398L19.6851 24.4193L20.8317 23.5014L17.5483 25.0312Z" fill="#C0AD9E"/>
<path d="M17.2877 21.8357L16.7839 21.4958H13.8827L13.3963 21.8357L13.1184 24.0793L13.3616 23.8584H17.3051L17.5831 24.0793L17.2877 21.8357Z" fill="#2F343B"/>
<path d="M27.798 9.98867L28.6667 5.84136L27.3464 2L17.2877 9.24079L21.1618 12.4193L26.6341 13.983L27.8328 12.6062L27.3116 12.2323L28.1455 11.5014L27.5027 11.0085L28.3366 10.3966L27.798 9.98867Z" fill="#763E1A"/>
<path d="M2 5.84136L2.88599 9.98867L2.33008 10.3966L3.16395 11.0255L2.52117 11.5014L3.35505 12.2323L2.83388 12.6062L4.04995 13.983L9.52226 12.4193L13.3963 9.24079L3.3203 2L2 5.84136Z" fill="#763E1A"/>
<path d="M26.6341 13.983L21.1618 12.4193L22.8122 14.8499L20.3453 19.5241L23.6113 19.4731H28.4756L26.6341 13.983Z" fill="#F5841F"/>
<path d="M9.52226 12.4193L4.04995 13.983L2.22584 19.4731H7.07275L10.3214 19.5241L7.87188 14.8499L9.52226 12.4193Z" fill="#F5841F"/>
<path d="M16.9403 15.1048L17.2877 9.24079L18.8686 5.07649H11.798L13.3963 9.24079L13.7438 15.1048L13.8827 16.9405V21.4958H16.7839L16.8013 16.9405L16.9403 15.1048Z" fill="#F5841F"/>
</svg>
