<svg width="28" height="28" viewBox="0 0 28 28" fill="none" xmlns="http://www.w3.org/2000/svg">
<g style="mix-blend-mode:luminosity">
<rect width="28" height="28" rx="6" fill="#CFF3FF"/>
<rect x="2" y="2" width="24" height="24" rx="4" fill="#8898FF"/>
<path d="M22.3756 15.0996C23.0404 13.5545 19.7544 9.23772 16.6152 7.43926C14.6364 6.04602 12.5746 6.23743 12.157 6.84916C11.2406 8.19167 15.1915 9.32928 17.834 10.6567C17.266 10.9135 16.7307 11.3741 16.4159 11.9632C15.4308 10.8441 13.2686 9.88046 10.7316 10.6567C9.02189 11.1798 7.60105 12.4131 7.05188 14.2758C6.91842 14.2141 6.77068 14.1798 6.61526 14.1798C6.02092 14.1798 5.53906 14.6812 5.53906 15.2997C5.53906 15.9182 6.02092 16.4196 6.61526 16.4196C6.72544 16.4196 7.06991 16.3426 7.06991 16.3426L12.5746 16.3842C10.3732 20.0182 8.6334 20.5494 8.6334 21.179C8.6334 21.8085 10.298 21.638 10.9231 21.4033C13.9151 20.2799 17.1288 16.7787 17.6803 15.7708C19.9961 16.0714 21.9423 16.107 22.3756 15.0996Z" fill="url(#paint0_linear_37_1277)"/>
<path fill-rule="evenodd" clip-rule="evenodd" d="M17.8327 10.6568C17.8329 10.6568 17.833 10.6569 17.8332 10.657C17.9557 10.6067 17.9358 10.4185 17.9022 10.2707C17.8249 9.93093 16.4912 8.56054 15.2388 7.94674C13.5323 7.11036 12.2757 7.15342 12.0898 7.53886C12.4374 8.28024 14.049 8.97631 15.7322 9.70336C16.4503 10.0135 17.1815 10.3293 17.8331 10.6566C17.8329 10.6567 17.8328 10.6567 17.8327 10.6568Z" fill="url(#paint1_linear_37_1277)"/>
<path fill-rule="evenodd" clip-rule="evenodd" d="M15.6705 18.1184C15.3253 17.9812 14.9355 17.8552 14.4923 17.741C14.9649 16.8611 15.064 15.5584 14.6177 14.7347C13.9913 13.5789 13.205 12.9636 11.3778 12.9636C10.3729 12.9636 7.66707 13.3159 7.61906 15.6662C7.61403 15.9128 7.61894 16.1388 7.6361 16.3467L12.577 16.3839C11.9109 17.4835 11.2871 18.299 10.7409 18.9191C11.3967 19.094 11.9378 19.2408 12.4346 19.3755C12.906 19.5034 13.3375 19.6205 13.7891 19.7404C14.4704 19.2239 15.1109 18.6607 15.6705 18.1184Z" fill="url(#paint2_linear_37_1277)"/>
<path d="M6.98646 16.1054C7.18827 17.8908 8.16342 18.5905 10.1561 18.7976C12.1487 19.0046 13.2917 18.8657 14.8134 19.0098C16.0843 19.1302 17.2191 19.8041 17.6401 19.5712C18.019 19.3616 17.807 18.6043 17.3001 18.1185C16.6429 17.4888 15.7334 17.0509 14.1331 16.8955C14.452 15.9869 14.3626 14.7128 13.8673 14.0197C13.1511 13.0174 11.8292 12.5643 10.1561 12.7623C8.40804 12.9691 6.73311 13.8646 6.98646 16.1054Z" fill="url(#paint3_linear_37_1277)"/>
</g>
<defs>
<linearGradient id="paint0_linear_37_1277" x1="10.5325" y1="13.7313" x2="22.2995" y2="16.9381" gradientUnits="userSpaceOnUse">
<stop stop-color="white"/>
<stop offset="1" stop-color="white"/>
</linearGradient>
<linearGradient id="paint1_linear_37_1277" x1="20.2614" y1="13.4997" x2="11.483" y2="5.04285" gradientUnits="userSpaceOnUse">
<stop stop-color="#8697FF"/>
<stop offset="1" stop-color="#8697FF" stop-opacity="0"/>
</linearGradient>
<linearGradient id="paint2_linear_37_1277" x1="15.9054" y1="18.4252" x2="7.63882" y2="13.8577" gradientUnits="userSpaceOnUse">
<stop stop-color="#8697FF"/>
<stop offset="1" stop-color="#8697FF" stop-opacity="0"/>
</linearGradient>
<linearGradient id="paint3_linear_37_1277" x1="11.2315" y1="13.6404" x2="16.9845" y2="20.6653" gradientUnits="userSpaceOnUse">
<stop stop-color="white"/>
<stop offset="0.983895" stop-color="#D1D8FF"/>
</linearGradient>
</defs>
</svg>
