<svg width="17" height="16" viewBox="0 0 17 16" fill="none" xmlns="http://www.w3.org/2000/svg">
<g id="Group 163891">
<path id="Vector" d="M8.00682 16C12.4289 16 16.0136 12.4183 16.0136 8C16.0136 3.58172 12.4289 0 8.00682 0C3.58477 0 0 3.58172 0 8C0 12.4183 3.58477 16 8.00682 16Z" fill="#0008FF"/>
<path id="Vector_2" d="M8.00791 15.3909C6.02942 15.3909 4.1693 14.6212 2.77037 13.2235C1.37145 11.8257 0.601074 9.96719 0.601074 7.99038C0.601074 6.01357 1.37145 4.15503 2.77037 2.7573C4.1693 1.35956 6.02942 0.589844 8.00791 0.589844C9.98641 0.589844 11.8465 1.35956 13.2455 2.7573C14.6444 4.15503 15.4148 6.01357 15.4148 7.99038C15.4148 9.96719 14.6444 11.8257 13.2455 13.2235C11.8465 14.6212 9.98641 15.3909 8.00791 15.3909ZM8.00791 1.16756C4.24242 1.16756 1.17928 4.22843 1.17928 7.99038C1.17928 11.7523 4.24276 14.8132 8.00791 14.8132C11.7731 14.8132 14.8365 11.7523 14.8365 7.99038C14.8365 4.22843 11.7731 1.16756 8.00791 1.16756Z" fill="white"/>
<path id="Vector_3" d="M8.00684 3.55542L3.47607 5.46256L4.87364 6.85893V6.27068L8.00684 4.95179L11.14 6.27068V7.66705L8.00684 6.34816L3.47607 8.2553L4.87364 9.65168V9.06343L8.00684 7.74454L11.5543 9.23776L12.5376 8.2553V5.46256L8.00684 3.55542Z" fill="white"/>
<path id="Vector_4" d="M8.00684 9.14062L3.47607 11.0478L4.87364 12.4441V11.8559L9.6714 9.84136L8.00684 9.14062Z" fill="white"/>
</g>
</svg>
