<svg width="25" height="24" viewBox="0 0 25 24" fill="none" xmlns="http://www.w3.org/2000/svg">
<path d="M12.9897 24C19.6228 24 24.9999 18.6274 24.9999 12C24.9999 5.37258 19.6228 0 12.9897 0C6.35665 0 0.979492 5.37258 0.979492 12C0.979492 18.6274 6.35665 24 12.9897 24Z" fill="white"/>
<path d="M12.9906 23.086C10.0229 23.086 7.2327 21.9314 5.13432 19.8348C3.03593 17.7382 1.88037 14.9504 1.88037 11.9852C1.88037 9.01999 3.03593 6.23218 5.13432 4.13558C7.2327 2.03898 10.0229 0.884399 12.9906 0.884399C15.9584 0.884399 18.7486 2.03898 20.8469 4.13558C22.9453 6.23218 24.1009 9.01999 24.1009 11.9852C24.1009 14.9504 22.9453 17.7382 20.8469 19.8348C18.7486 21.9314 15.9584 23.086 12.9906 23.086ZM12.9906 1.75097C7.34239 1.75097 2.74768 6.34228 2.74768 11.9852C2.74768 17.6281 7.3429 22.2194 12.9906 22.2194C18.6384 22.2194 23.2336 17.6281 23.2336 11.9852C23.2336 6.34228 18.6384 1.75097 12.9906 1.75097Z" fill="#0008FF"/>
<path d="M12.989 5.33313L6.19287 8.19384L8.28921 10.2884V9.40602L12.989 7.42769L17.6888 9.40602V11.5006L12.989 9.52225L6.19287 12.383L8.28921 14.4775V13.5951L12.989 11.6168L18.3102 13.8566L19.7852 12.383V8.19384L12.989 5.33313Z" fill="#0008FF"/>
<path d="M12.989 13.7113L6.19287 16.572L8.28921 18.6666V17.7842L15.4859 14.7624L12.989 13.7113Z" fill="#0008FF"/>
</svg>
