<svg width="257" height="62" viewBox="0 0 257 62" fill="none" xmlns="http://www.w3.org/2000/svg">
<path d="M82 23H107.214V26.4998H85.5191V29.0715H106.615V32.5713H85.5191V34.9689H107.214V38.4687H82V23Z" fill="black"/>
<path d="M115.211 38.4687C114.541 38.4687 113.916 38.3011 113.336 37.966C112.768 37.6179 112.317 37.1603 111.982 36.5931C111.647 36.0131 111.479 35.3879 111.479 34.7176V33.5381H114.999V34.4082C114.999 34.5758 115.05 34.7111 115.153 34.8142C115.256 34.9174 115.385 34.9689 115.54 34.9689H132.846C133.013 34.9689 133.142 34.9174 133.232 34.8142C133.335 34.7111 133.387 34.5758 133.387 34.4082V33.5767C133.387 33.4349 133.335 33.3189 133.232 33.2287C133.142 33.1256 133.02 33.0547 132.865 33.016L115.192 31.8558C114.496 31.7398 113.871 31.5271 113.316 31.2178C112.775 30.9084 112.337 30.4766 112.001 29.9223C111.666 29.3551 111.492 28.6654 111.479 27.8533L111.46 26.6351C111.447 25.9906 111.595 25.3912 111.905 24.8369C112.227 24.2697 112.665 23.825 113.22 23.5027C113.774 23.1676 114.38 23 115.037 23H133.174C133.819 23 134.425 23.174 134.992 23.5221C135.559 23.8572 136.017 24.3148 136.365 24.8949C136.713 25.4621 136.887 26.0744 136.887 26.7318V27.834H133.387V27.0605C133.387 26.8801 133.335 26.7447 133.232 26.6545C133.142 26.5514 133.013 26.4998 132.846 26.4998H115.54C115.385 26.4998 115.256 26.5514 115.153 26.6545C115.05 26.7576 114.999 26.893 114.999 27.0605V27.8146C114.999 27.8662 114.999 27.9113 114.999 27.95C115.011 27.9758 115.031 28.008 115.057 28.0467C115.095 28.1369 115.153 28.2078 115.231 28.2594C115.308 28.3109 115.398 28.3496 115.501 28.3754L133.271 29.5935C134.019 29.7353 134.657 29.9674 135.185 30.2896C135.727 30.599 136.146 31.018 136.442 31.5465C136.739 32.0621 136.887 32.6808 136.887 33.4027L136.925 34.8722C136.925 35.5554 136.764 36.1742 136.442 36.7285C136.12 37.2699 135.682 37.6953 135.127 38.0047C134.586 38.314 133.999 38.4687 133.368 38.4687H115.211Z" fill="black"/>
<path d="M145.076 38.4687C144.431 38.4687 143.826 38.3011 143.258 37.966C142.691 37.6179 142.234 37.1603 141.886 36.5931C141.538 36.0131 141.363 35.3943 141.363 34.7369V26.7318C141.363 26.0615 141.531 25.4428 141.866 24.8756C142.214 24.2955 142.672 23.8379 143.239 23.5027C143.819 23.1676 144.425 23 145.057 23H163.097C163.742 23 164.347 23.174 164.915 23.5221C165.495 23.8572 165.959 24.3148 166.307 24.8949C166.655 25.4621 166.829 26.0744 166.829 26.7318V29.5355H163.31V27.0799C163.31 26.8994 163.258 26.7576 163.155 26.6545C163.052 26.5514 162.917 26.4998 162.749 26.4998H145.424C145.269 26.4998 145.134 26.5578 145.018 26.6738C144.915 26.7769 144.863 26.9123 144.863 27.0799V34.3888C144.863 34.5049 144.889 34.608 144.941 34.6982C145.005 34.7756 145.076 34.84 145.153 34.8916C145.244 34.9431 145.34 34.9689 145.443 34.9689H162.749C162.917 34.9689 163.052 34.9109 163.155 34.7949C163.258 34.6789 163.31 34.5435 163.31 34.3888V31.7592H166.829V34.7369C166.829 35.3943 166.655 36.0131 166.307 36.5931C165.972 37.1603 165.514 37.6179 164.934 37.966C164.354 38.3011 163.735 38.4687 163.078 38.4687H145.076Z" fill="black"/>
<path d="M171.47 23H174.97V29.1875H193.687V23H197.206V38.4687H193.687V32.7066H174.97V38.4687H171.47V23Z" fill="black"/>
<path d="M201.841 23H227.055V26.4998H205.36V29.0715H226.456V32.5713H205.36V34.9689H227.055V38.4687H201.841V23Z" fill="black"/>
<path d="M231.117 23H252.966C253.598 23 254.185 23.1611 254.726 23.4834C255.267 23.7928 255.693 24.2182 256.002 24.7596C256.312 25.301 256.466 25.9004 256.466 26.5578V30.3476C256.466 31.1726 256.254 31.8816 255.828 32.4746C255.416 33.0676 254.861 33.4736 254.165 33.6928L256.795 38.4687H252.831L250.279 33.8668H234.617V38.4687H231.117V23ZM252.425 30.367C252.593 30.367 252.728 30.3154 252.831 30.2123C252.934 30.1092 252.986 29.9738 252.986 29.8062V27.0799C252.986 26.8994 252.934 26.7576 252.831 26.6545C252.728 26.5514 252.593 26.4998 252.425 26.4998H234.617V30.367H252.425Z" fill="black"/>
<rect width="61.5057" height="61.5057" rx="7.23597" fill="#F3F3F3"/>
<path d="M7.23597 14.4719H47.9504L52.9665 20.9352H12.252L7.23597 14.4719Z" fill="black"/>
<path d="M7.23586 27.3984H47.9503L52.9664 33.8617H12.2519L7.23586 27.3984Z" fill="black"/>
<path d="M7.23586 40.3249H47.9503L52.9664 46.7882H12.2519L7.23586 40.3249Z" fill="black"/>
<path d="M12.2353 33.8617V40.3249H17.662L12.2353 33.8617Z" fill="black"/>
<path d="M12.2353 20.9352V27.3984H17.662L12.2353 20.9352Z" fill="black"/>
</svg>
