<svg width="288" height="52" viewBox="0 0 288 52" fill="none" xmlns="http://www.w3.org/2000/svg">
<path d="M0 0.641846H63.8978L71.7701 10.7853H7.87225L0 0.641846Z" fill="white"/>
<path d="M0 20.9296H63.8978L71.7701 31.073H7.87225L0 20.9296Z" fill="white"/>
<path d="M0 41.2148H63.8978L71.7701 51.3583H7.87225L0 41.2148Z" fill="white"/>
<path d="M7.83594 31.0715V41.215H16.3528L7.83594 31.0715Z" fill="white"/>
<path d="M7.83594 10.7856V20.9291H16.3528L7.83594 10.7856Z" fill="white"/>
<path d="M89.502 17.0681H118.136V21.0425H93.4986V23.9631H117.455V27.9375H93.4986V30.6603H118.136V34.6347H89.502V17.0681Z" fill="white"/>
<path d="M127.232 34.6347C126.47 34.6347 125.76 34.4443 125.102 34.0636C124.457 33.6685 123.945 33.1489 123.565 32.5048C123.184 31.8459 122.993 31.1359 122.993 30.3747V29.0353H126.99V30.0233C126.99 30.2137 127.049 30.3675 127.166 30.4846C127.283 30.6017 127.429 30.6603 127.605 30.6603H147.258C147.448 30.6603 147.595 30.6017 147.697 30.4846C147.814 30.3675 147.873 30.2137 147.873 30.0233V29.0793C147.873 28.9182 147.814 28.7865 147.697 28.6839C147.595 28.5668 147.455 28.4864 147.28 28.4426L127.21 27.1251C126.419 26.9932 125.709 26.7516 125.08 26.4003C124.465 26.0489 123.967 25.5586 123.586 24.9292C123.206 24.2851 123.008 23.5019 122.993 22.5796L122.972 21.1962C122.957 20.4643 123.125 19.7836 123.477 19.1541C123.843 18.51 124.34 18.005 124.97 17.639C125.599 17.2584 126.287 17.0681 127.034 17.0681H147.631C148.363 17.0681 149.051 17.2657 149.695 17.661C150.339 18.0416 150.859 18.5613 151.254 19.22C151.65 19.8641 151.847 20.5595 151.847 21.306V22.5577H147.873V21.6793C147.873 21.4744 147.814 21.3207 147.697 21.2182C147.595 21.1011 147.448 21.0425 147.258 21.0425H127.605C127.429 21.0425 127.283 21.1011 127.166 21.2182C127.049 21.3353 126.99 21.489 126.99 21.6793V22.5357C126.99 22.5942 126.99 22.6455 126.99 22.6894C127.005 22.7187 127.027 22.7553 127.056 22.7992C127.1 22.9017 127.166 22.9822 127.254 23.0407C127.341 23.0993 127.444 23.1432 127.561 23.1725L147.741 24.5558C148.59 24.7169 149.315 24.9804 149.915 25.3463C150.53 25.6976 151.005 26.1734 151.342 26.7737C151.679 27.3593 151.847 28.062 151.847 28.8815L151.891 30.5503C151.891 31.3263 151.708 32.029 151.342 32.6583C150.976 33.2732 150.478 33.7564 149.849 34.1077C149.234 34.459 148.568 34.6347 147.851 34.6347H127.232Z" fill="white"/>
<path d="M161.114 34.6347C160.382 34.6347 159.693 34.4443 159.049 34.0636C158.405 33.6685 157.886 33.1489 157.49 32.5048C157.095 31.8459 156.897 31.1433 156.897 30.3968V21.306C156.897 20.5448 157.088 19.8422 157.468 19.1981C157.864 18.5393 158.383 18.0196 159.027 17.639C159.686 17.2584 160.374 17.0681 161.092 17.0681H181.579C182.311 17.0681 182.999 17.2657 183.643 17.661C184.302 18.0416 184.829 18.5613 185.224 19.22C185.619 19.8641 185.817 20.5595 185.817 21.306V24.4901H181.82V21.7013C181.82 21.4964 181.762 21.3353 181.645 21.2182C181.528 21.1011 181.374 21.0425 181.184 21.0425H161.509C161.333 21.0425 161.179 21.1084 161.048 21.2402C160.93 21.3573 160.872 21.511 160.872 21.7013V30.0014C160.872 30.1333 160.901 30.2504 160.96 30.3528C161.033 30.4406 161.114 30.5139 161.201 30.5725C161.304 30.631 161.414 30.6603 161.531 30.6603H181.184C181.374 30.6603 181.528 30.5944 181.645 30.4625C181.762 30.3309 181.82 30.1771 181.82 30.0014V27.0151H185.817V30.3968C185.817 31.1433 185.619 31.8459 185.224 32.5048C184.843 33.1489 184.324 33.6685 183.665 34.0636C183.006 34.4443 182.304 34.6347 181.557 34.6347H161.114Z" fill="white"/>
<path d="M191.085 17.0681H195.059V24.0947H216.315V17.0681H220.312V34.6347H216.315V28.0912H195.059V34.6347H191.085V17.0681Z" fill="white"/>
<path d="M225.585 17.0681H254.218V21.0425H229.581V23.9631H253.538V27.9375H229.581V30.6603H254.218V34.6347H225.585V17.0681Z" fill="white"/>
<path d="M258.84 17.0681H283.653C284.372 17.0681 285.038 17.2511 285.651 17.6171C286.267 17.9684 286.749 18.4515 287.101 19.0663C287.452 19.6811 287.627 20.3618 287.627 21.1084V25.4122C287.627 26.3491 287.387 27.1543 286.903 27.8277C286.435 28.5011 285.806 28.9622 285.015 29.2109L288.001 34.6347H283.5L280.6 29.4085H262.814V34.6347H258.84V17.0681ZM283.039 25.4341C283.228 25.4341 283.383 25.3756 283.5 25.2584C283.618 25.1413 283.676 24.9878 283.676 24.7974V21.7013C283.676 21.4964 283.618 21.3353 283.5 21.2182C283.383 21.1011 283.228 21.0425 283.039 21.0425H262.814V25.4341H283.039Z" fill="white"/>
</svg>
