<svg width="245" height="210" viewBox="0 0 245 210" fill="none" xmlns="http://www.w3.org/2000/svg">
<path d="M127.039 171.524V192.435L108.891 181.981V161.07L127.039 171.524Z" fill="#666BFF"/>
<path d="M90.7419 56.5202V87.885L72.5938 77.4312V46.0664L90.7419 56.5202Z" fill="#666BFF"/>
<path d="M127.039 108.794V150.616L108.891 140.158V98.3398L127.039 108.794Z" fill="#666BFF"/>
<path d="M154.261 61.7488V93.1136L136.113 82.6565V72.2026L117.965 61.7488V40.8379L154.261 61.7488Z" fill="#666BFF"/>
<path d="M145.187 161.066L127.039 171.52L108.891 161.066L127.039 150.612L145.187 161.066Z" fill="#3D43FF"/>
<path d="M154.263 93.1144L127.039 108.793L108.891 98.3396L136.115 82.6572L154.263 93.1144Z" fill="#3D43FF"/>
<path d="M172.41 51.2905L154.262 61.7477L117.966 40.8367L90.7419 56.5191L72.5938 46.0653L117.966 19.9258L172.41 51.2905Z" fill="#3D43FF"/>
<path d="M117.966 40.8379V61.7488L108.89 66.9741V77.4312L90.7422 87.885V56.5203L117.966 40.8379Z" fill="white"/>
<path d="M145.185 161.07V181.981L127.037 192.435V171.524L145.185 161.07Z" fill="white"/>
<path d="M172.409 51.2871V103.563L145.185 119.245V140.153L127.037 150.61V108.788L154.261 93.109V61.7442L172.409 51.2871Z" fill="white"/>
<g opacity="0.7">
<path d="M163.334 129.702V161.067L145.186 150.613V119.248L163.334 129.702Z" fill="#666BFF"/>
<path d="M199.629 181.969V223.791L181.48 213.334V171.516L199.629 181.969Z" fill="#666BFF"/>
<path d="M226.855 134.929V166.294L208.707 155.837V145.383L190.559 134.929V114.019L226.855 134.929Z" fill="#666BFF"/>
<path d="M226.853 166.295L199.629 181.974L181.48 171.52L208.704 155.838L226.853 166.295Z" fill="#3D43FF"/>
<path d="M245.002 124.476L226.854 134.933L190.558 114.022L163.334 129.705L145.186 119.251L190.558 93.1113L245.002 124.476Z" fill="#3D43FF"/>
<path d="M190.558 114.019V134.929L181.482 140.155V150.612L163.334 161.066V129.701L190.558 114.019Z" fill="white"/>
<path d="M245.003 124.477V176.752L217.779 192.435V213.342L199.631 223.799V181.977L226.855 166.298V134.934L245.003 124.477Z" fill="white"/>
</g>
<g opacity="0.7">
<path d="M54.445 98.3395V119.25L36.2969 108.797V87.8857L54.445 98.3395Z" fill="#666BFF"/>
<path d="M18.1482 -16.6634V14.7014L0 4.24756V-27.1172L18.1482 -16.6634Z" fill="#666BFF"/>
<path d="M54.445 35.6091V77.431L36.2969 66.9738V25.1553L54.445 35.6091Z" fill="#666BFF"/>
<path d="M81.6674 -11.4357V19.929L63.5192 9.47188V-0.981924L45.3711 -11.4357V-32.3467L81.6674 -11.4357Z" fill="#666BFF"/>
<path d="M72.5932 87.8854L54.445 98.3392L36.2969 87.8854L54.445 77.4316L72.5932 87.8854Z" fill="#3D43FF"/>
<path d="M81.6689 19.9298L54.445 35.6088L36.2969 25.155L63.5208 9.47266L81.6689 19.9298Z" fill="#3D43FF"/>
<path d="M45.3743 -32.3467V-11.4357L36.2985 -6.21049V4.24665L18.1504 14.7005V-16.6643L45.3743 -32.3467Z" fill="white"/>
<path d="M72.5935 87.8857V108.797L54.4453 119.25V98.3395L72.5935 87.8857Z" fill="white"/>
<path d="M99.8174 -21.8887V30.387L72.5935 46.0694V66.977L54.4453 77.4342V35.6123L81.6692 19.9332V-11.4315L99.8174 -21.8887Z" fill="white"/>
</g>
</svg>
