<svg width="627" height="502" viewBox="0 0 627 502" fill="none" xmlns="http://www.w3.org/2000/svg">
<path d="M325.11 417.237V470.751L278.666 443.998V390.484L325.11 417.237Z" fill="#666BFF"/>
<path d="M232.221 122.928V203.196L185.776 176.443V96.175L232.221 122.928Z" fill="#666BFF"/>
<path d="M325.11 256.702V363.731L278.666 336.969V229.949L325.11 256.702Z" fill="#666BFF"/>
<path d="M394.776 136.309V216.576L348.332 189.815V163.062L301.888 136.309V82.7942L394.776 136.309Z" fill="#666BFF"/>
<path d="M371.554 390.484L325.11 417.237L278.666 390.484L325.11 363.731L371.554 390.484Z" fill="#3D43FF"/>
<path d="M394.781 216.576L325.11 256.702L278.666 229.949L348.337 189.815L394.781 216.576Z" fill="#3D43FF"/>
<path d="M441.224 109.547L394.779 136.309L301.891 82.7942L232.221 122.928L185.776 96.175L301.891 29.2797L441.224 109.547Z" fill="#3D43FF"/>
<path d="M301.891 82.7942V136.309L278.665 149.681V176.443L232.221 203.196V122.928L301.891 82.7942Z" fill="#1D24FF"/>
<path d="M371.548 390.484V443.998L325.104 470.751V417.237L371.548 390.484Z" fill="#1D24FF"/>
<path d="M441.218 109.547V243.329L371.548 283.463V336.969L325.104 363.731V256.702L394.774 216.576V136.309L441.218 109.547Z" fill="#1D24FF"/>
<g opacity="0.7">
<path d="M417.992 310.216V390.484L371.548 363.731V283.463L417.992 310.216Z" fill="#666BFF"/>
<path d="M510.882 443.99V551.019L464.438 524.257V417.237L510.882 443.99Z" fill="#666BFF"/>
<path d="M580.554 323.597V403.865L534.11 377.103V350.35L487.666 323.597V270.082L580.554 323.597Z" fill="#666BFF"/>
<path d="M580.552 403.865L510.882 443.99L464.438 417.237L534.108 377.103L580.552 403.865Z" fill="#3D43FF"/>
<path d="M626.995 296.835L580.551 323.597L487.663 270.082L417.992 310.216L371.548 283.463L487.663 216.568L626.995 296.835Z" fill="#3D43FF"/>
<path d="M487.663 270.082V323.597L464.436 336.969V363.731L417.992 390.484V310.216L487.663 270.082Z" fill="#1D24FF"/>
<path d="M626.997 296.835V430.618L557.326 470.751V524.257L510.882 551.019V443.99L580.552 403.865V323.597L626.997 296.835Z" fill="#1D24FF"/>
</g>
<g opacity="0.7">
<path d="M139.334 229.957V283.472L92.8896 256.719V203.204L139.334 229.957Z" fill="#666BFF"/>
<path d="M46.4442 -64.3517V15.9159L0 -10.8371V-91.1047L46.4442 -64.3517Z" fill="#666BFF"/>
<path d="M139.334 69.4219V176.451L92.8896 149.689V42.6689L139.334 69.4219Z" fill="#666BFF"/>
<path d="M209 -50.9709V29.2967L162.556 2.53518V-24.2178L116.111 -50.9709V-104.485L209 -50.9709Z" fill="#666BFF"/>
<path d="M185.778 203.204L139.334 229.957L92.8896 203.204L139.334 176.451L185.778 203.204Z" fill="#3D43FF"/>
<path d="M209.004 29.2967L139.334 69.4219L92.8896 42.6689L162.56 2.53513L209.004 29.2967Z" fill="#3D43FF"/>
<path d="M116.115 -104.485V-50.9709L92.8885 -37.5986V-10.8371L46.4443 15.9159V-64.3516L116.115 -104.485Z" fill="#1D24FF"/>
<path d="M185.778 203.204V256.719L139.334 283.472V229.957L185.778 203.204Z" fill="#1D24FF"/>
<path d="M255.449 -77.7324V56.0497L185.778 96.1835V149.689L139.334 176.451V69.4219L209.005 29.2967V-50.9709L255.449 -77.7324Z" fill="#1D24FF"/>
</g>
</svg>
