<svg width="240" height="186" viewBox="0 0 240 186" fill="none" xmlns="http://www.w3.org/2000/svg">
<path d="M112.701 24.3016L103.422 20.3249L122.421 10.6042L178.978 41.9756L131.258 68.9284V57.4403L112.701 46.3941V24.3016Z" fill="#0008FF"/>
<path d="M187.816 36.2317L122.422 0V10.6044L178.979 41.9757L187.816 36.2317Z" fill="#3E43FF"/>
<path d="M122.421 0L91.9336 15.4647L103.422 20.3251L122.421 10.6044V0Z" fill="#666AFF"/>
<path d="M167.49 78.4836L149.816 89.6953V100.14L167.49 88.9786V78.4836Z" fill="#666AFF"/>
<path d="M167.492 88.9786V78.4836L239.072 119.299L228.909 125.485L167.492 88.9786Z" fill="#3E43FF"/>
<path d="M182.955 152.88L169.258 143.601L168.816 123.276L149.816 112.672V100.132L167.462 88.9785L230.233 124.602L182.955 152.88Z" fill="#0008FF"/>
<path d="M169.259 143.601L168.817 123.276L140.98 139.183V159.95L169.259 143.601Z" fill="#3E43FF"/>
<path d="M168.816 123.276L149.817 112.671L122.422 129.462L140.98 139.182L168.816 123.276Z" fill="white"/>
<path d="M149.817 112.671V89.6953L122.422 106.927V129.462L149.817 112.671Z" fill="#3E43FF"/>
<path d="M149.816 89.6954L131.258 80.8584L103.422 96.765L122.421 106.928L149.816 89.6954Z" fill="white"/>
<path d="M131.258 80.8584V57.4404L103.422 73.7889V96.765L131.258 80.8584Z" fill="#3E43FF"/>
<path d="M103.422 73.7889L83.9805 64.0683L112.701 46.3943L131.258 57.4405L103.422 73.7889Z" fill="white"/>
<path d="M128.61 185.135L69.3594 150.579L112.261 123.718V133.438L131.261 144.485V164.81L146.284 174.53L128.61 185.135Z" fill="#0008FF"/>
<path d="M60.6875 145.56L112.257 113.163V123.718L69.3572 150.579L60.6875 145.56Z" fill="#666AFF"/>
<path d="M65.864 42.8594L10.6328 75.9981L66.3058 106.928L93.7005 91.4628V78.2073L76.0265 69.3703V47.7197L65.864 42.8594Z" fill="#0008FF"/>
<path d="M83.9791 41.092L65.8633 31.3713V42.8594L76.0258 47.7198V69.3704L93.6998 78.2074V102.067L112.257 113.163V133.439L131.257 144.485V164.81L146.28 174.531L156.884 168.345L140.978 159.95V139.183L122.42 129.462V106.928L103.42 96.765V73.7889L83.9791 64.0682V41.092Z" fill="#565BFD"/>
<path d="M112.701 24.3018L83.9805 41.092V64.0682L112.701 46.3942V24.3018Z" fill="#3E43FF"/>
<path d="M65.8645 31.3713L0 69.814L10.6333 75.9981L65.8645 42.8594V31.3713Z" fill="#666AFF"/>
</svg>
