<svg width="40" height="40" viewBox="0 0 40 40" fill="none" xmlns="http://www.w3.org/2000/svg">
<rect width="40" height="40" rx="20" fill="#0008FF" fill-opacity="0.1"/>
<path d="M15.4166 17.916H11.6666V28.3327H15.4166V17.916Z" stroke="#0008FF" stroke-width="1.5" stroke-linejoin="round"/>
<path d="M15.4166 13.541C15.4166 14.5765 14.5772 15.416 13.5416 15.416C12.5061 15.416 11.6666 14.5765 11.6666 13.541C11.6666 12.5055 12.5061 11.666 13.5416 11.666C14.5772 11.666 15.4166 12.5055 15.4166 13.541Z" stroke="#0008FF" stroke-width="1.5" stroke-linejoin="round"/>
<path d="M21.6667 17.916H17.9166V28.3327H21.6667V23.1245C21.6667 22.3191 22.3195 21.6662 23.125 21.6662C23.9304 21.6662 24.5833 22.3191 24.5833 23.1245V28.3327H28.3322L28.3334 21.6662C28.3334 19.5952 26.3636 17.9162 24.414 17.9162C23.304 17.9162 22.3139 18.4603 21.6667 19.311V17.916Z" stroke="#0008FF" stroke-width="1.5" stroke-linejoin="round"/>
</svg>
