<svg width="52" height="52" viewBox="0 0 52 52" fill="none" xmlns="http://www.w3.org/2000/svg">
<path d="M26 52C40.3594 52 52 40.3594 52 26C52 11.6406 40.3594 0 26 0C11.6406 0 0 11.6406 0 26C0 40.3594 11.6406 52 26 52Z" fill="#ECEBFF"/>
<path d="M39.9767 27.3701C39.7485 29.5796 39.0089 31.7027 37.8183 33.5655C36.6278 35.4283 35.0202 36.9778 33.1273 38.0872C26.5028 41.976 18.0325 39.6682 14.208 32.9302L13.6684 31.8386" stroke="#1622FF" stroke-width="1.2" stroke-linecap="round" stroke-linejoin="round"/>
<path d="M12.0239 24.6297C12.2567 22.4201 13.0117 20.2967 14.227 18.4338C15.4424 16.5708 17.0835 15.0211 19.016 13.9118C25.7786 10.0227 33.6733 12.3305 38.0273 19.0988L38.8803 20.3734" stroke="#1622FF" stroke-width="1.2" stroke-linecap="round" stroke-linejoin="round"/>
<path d="M12.0239 34.4954L12.959 30.6588L16.9567 32.0719" stroke="#1622FF" stroke-width="1.2" stroke-linecap="round" stroke-linejoin="round"/>
<path d="M35.0439 20.2975L39.305 21.3412L39.9768 17.5046" stroke="#1622FF" stroke-width="1.2" stroke-linecap="round" stroke-linejoin="round"/>
<path d="M20.7938 29.0986C20.7546 26.8398 22.1708 25.026 23.1614 23.1321C24.1159 21.3917 24.9678 19.5934 25.7125 17.747C25.725 17.6789 25.7602 17.6173 25.812 17.5731C25.8638 17.5288 25.9289 17.5046 25.9961 17.5046C26.0633 17.5046 26.1284 17.5288 26.1802 17.5731C26.2319 17.6173 26.2671 17.6789 26.2796 17.747C27.3285 20.2937 28.5555 22.7581 29.9508 25.1207C30.4903 26.0259 30.9145 26.9909 31.1067 28.0514C32.3886 35.8602 20.9219 37.0014 20.7938 29.0986Z" fill="#1622FF"/>
</svg>
