<svg width="52" height="52" viewBox="0 0 52 52" fill="none" xmlns="http://www.w3.org/2000/svg">
<path d="M26 52C40.3594 52 52 40.3594 52 26C52 11.6406 40.3594 0 26 0C11.6406 0 0 11.6406 0 26C0 40.3594 11.6406 52 26 52Z" fill="#ECEBFF"/>
<path d="M22.2786 37.6365H17.231L16.3618 34.1083H23.0932L22.2786 37.6365Z" stroke="#1622FF" stroke-width="2" stroke-linecap="round" stroke-linejoin="round"/>
<path d="M34.465 37.6365H29.4173L28.4478 34.1083H35.1791L34.465 37.6365Z" stroke="#1622FF" stroke-width="2" stroke-linecap="round" stroke-linejoin="round"/>
<path d="M33.0474 18.9519V29.4237" stroke="#1622FF" stroke-width="2" stroke-linecap="round" stroke-linejoin="round"/>
<path d="M14.0669 18.5596V29.8166C14.0669 31.283 14.0669 32.0162 14.352 32.5739C14.6031 33.0665 15.0036 33.467 15.4963 33.7181C16.0565 34.0032 16.7897 34.0032 18.2535 34.0032H33.4402C34.9059 34.0032 35.6391 34.0032 36.1974 33.7181C36.69 33.467 37.0906 33.0665 37.3416 32.5739C37.6268 32.0143 37.6268 31.2811 37.6268 29.8166V18.5596C37.6268 17.0933 37.6268 16.3601 37.3416 15.8024C37.0904 15.3099 36.6899 14.9094 36.1974 14.6582C35.6372 14.373 34.904 14.373 33.4402 14.373H18.2554C16.7897 14.373 16.0565 14.373 15.4981 14.6582C15.0056 14.9094 14.6052 15.3099 14.3539 15.8024C14.0669 16.3601 14.0669 17.0933 14.0669 18.5596Z" stroke="#1622FF" stroke-width="2" stroke-linecap="round" stroke-linejoin="round"/>
<path d="M18.4141 26.2097C18.3878 24.7358 19.3415 23.5527 20.0089 22.317C20.6521 21.1814 21.2261 20.0081 21.7278 18.8034C21.7359 18.7586 21.7595 18.7181 21.7944 18.689C21.8294 18.6598 21.8734 18.6439 21.9189 18.6439C21.9644 18.6439 22.0085 18.6598 22.0434 18.689C22.0783 18.7181 22.1019 18.7586 22.11 18.8034C22.816 20.465 23.6425 22.0729 24.5828 23.6141C24.9443 24.2069 25.232 24.8342 25.3611 25.526C26.224 30.6206 18.5006 31.3638 18.4141 26.2097Z" fill="#1622FF"/>
</svg>
