<svg width="1397" height="1397" viewBox="0 0 1397 1397" fill="none" xmlns="http://www.w3.org/2000/svg">
<circle cx="652.5" cy="652.5" r="652.5" transform="matrix(-1.19249e-08 1 1 1.19249e-08 46 46)" fill="url(#paint0_radial_2524_793)" fill-opacity="0.2"/>
<circle cx="652.5" cy="652.5" r="651" transform="matrix(-1.19249e-08 1 1 1.19249e-08 46 46)" stroke="url(#paint1_linear_2524_793)" stroke-opacity="0.25" stroke-width="3"/>
<g filter="url(#filter0_f_2524_793)">
<circle cx="652.5" cy="652.5" r="651" transform="matrix(-1.19249e-08 1 1 1.19249e-08 46 46)" stroke="url(#paint2_linear_2524_793)" stroke-opacity="0.25" stroke-width="3"/>
</g>
<g filter="url(#filter1_f_2524_793)">
<circle cx="652.5" cy="652.5" r="651" transform="matrix(-1.19249e-08 1 1 1.19249e-08 46 46)" stroke="url(#paint3_linear_2524_793)" stroke-opacity="0.79" stroke-width="3"/>
</g>
<defs>
<filter id="filter0_f_2524_793" x="8.7" y="8.7" width="1379.6" height="1379.6" filterUnits="userSpaceOnUse" color-interpolation-filters="sRGB">
<feFlood flood-opacity="0" result="BackgroundImageFix"/>
<feBlend mode="normal" in="SourceGraphic" in2="BackgroundImageFix" result="shape"/>
<feGaussianBlur stdDeviation="18.65" result="effect1_foregroundBlur_2524_793"/>
</filter>
<filter id="filter1_f_2524_793" x="0" y="0" width="1397" height="1397" filterUnits="userSpaceOnUse" color-interpolation-filters="sRGB">
<feFlood flood-opacity="0" result="BackgroundImageFix"/>
<feBlend mode="normal" in="SourceGraphic" in2="BackgroundImageFix" result="shape"/>
<feGaussianBlur stdDeviation="23" result="effect1_foregroundBlur_2524_793"/>
</filter>
<radialGradient id="paint0_radial_2524_793" cx="0" cy="0" r="1" gradientUnits="userSpaceOnUse" gradientTransform="translate(1305 652.5) rotate(-180) scale(599)">
<stop stop-color="#0109FF"/>
<stop offset="1" stop-color="#0109FF" stop-opacity="0"/>
</radialGradient>
<linearGradient id="paint1_linear_2524_793" x1="1305" y1="653" x2="1172.5" y2="653" gradientUnits="userSpaceOnUse">
<stop stop-color="#1D24FF"/>
<stop offset="1" stop-color="#1D24FF" stop-opacity="0"/>
</linearGradient>
<linearGradient id="paint2_linear_2524_793" x1="1305" y1="653" x2="1172.5" y2="653" gradientUnits="userSpaceOnUse">
<stop stop-color="#1D24FF"/>
<stop offset="1" stop-color="#1D24FF" stop-opacity="0"/>
</linearGradient>
<linearGradient id="paint3_linear_2524_793" x1="1305" y1="653" x2="1172.5" y2="653" gradientUnits="userSpaceOnUse">
<stop stop-color="#1D24FF"/>
<stop offset="1" stop-color="#1D24FF" stop-opacity="0"/>
</linearGradient>
</defs>
</svg>
