<svg width="14" height="14" viewBox="0 0 14 14" fill="none" xmlns="http://www.w3.org/2000/svg">
<path d="M0.730469 9.33301C0.730469 7.1584 2.49335 5.39551 4.66797 5.39551C6.84258 5.39551 8.60547 7.1584 8.60547 9.33301C8.60547 11.5076 6.84258 13.2705 4.66797 13.2705C2.49335 13.2705 0.730469 11.5076 0.730469 9.33301Z" fill="#0008FF"/>
<path fill-rule="evenodd" clip-rule="evenodd" d="M3.64714 2.22585C2.48549 2.43204 1.60547 3.4451 1.60547 4.66667H0.730469C0.730469 2.81254 2.23051 1.3125 4.08464 1.3125H4.52214V2.91667H3.64714V2.22585Z" fill="#0008FF"/>
<path fill-rule="evenodd" clip-rule="evenodd" d="M10.3555 11.7738C11.5171 11.5676 12.3971 10.5546 12.3971 9.33301H13.2721C13.2721 11.1871 11.7721 12.6872 9.91797 12.6872H9.48047V11.083H10.3555V11.7738Z" fill="#0008FF"/>
<path d="M9.42378 8.60344C9.10819 6.53022 7.46973 4.89177 5.39648 4.5762C5.44474 2.44351 7.18868 0.729492 9.33295 0.729492C11.5076 0.729492 13.2705 2.49237 13.2705 4.66699C13.2705 6.81127 11.5564 8.5552 9.42378 8.60344Z" fill="#0008FF"/>
</svg>
