<svg width="10" height="14" viewBox="0 0 10 14" fill="none" xmlns="http://www.w3.org/2000/svg">
<path d="M8.0727 5.6C8.01239 4.97108 7.77978 4.35077 7.37486 3.808L4.52317 0L1.67148 3.79938C1.25794 4.34215 1.03394 4.96246 0.973633 5.6H2.25732L1.06839 6.78892C1.22347 7.45231 1.5767 8.07261 2.11947 8.57231C2.79147 9.184 3.66163 9.49415 4.52317 9.49415C5.38471 9.49415 6.24624 9.19262 6.91824 8.58092C7.46963 8.08985 7.82285 7.46092 7.97793 6.78892L6.78902 5.6H8.0727ZM6.04809 7.62462C5.20379 8.38277 3.83394 8.38277 2.98963 7.616C2.13671 6.832 2.00747 5.49662 2.70532 4.57477L4.52317 2.15384L6.34101 4.58338C6.64255 4.97969 6.78902 5.46216 6.78902 5.936C6.78902 6.55631 6.53917 7.17662 6.04809 7.62462Z" fill="white"/>
<path d="M9.04615 11.4152L7.75385 10.1229H1.29231L0 11.4152H9.04615Z" fill="#8C90FF"/>
<path d="M9.04615 14.0001L7.75385 12.7078H1.29231L0 14.0001H9.04615Z" fill="#8C90FF"/>
</svg>
