<svg width="24" height="24" viewBox="0 0 24 24" fill="none" xmlns="http://www.w3.org/2000/svg">
<path d="M16.5774 10.1888C16.4996 9.37766 16.1996 8.57766 15.6774 7.87766L11.9996 2.96655L8.32187 7.86655C7.78854 8.56655 7.49965 9.36655 7.42188 10.1888H9.07742L7.54408 11.7221C7.74408 12.5777 8.19964 13.3777 8.89964 14.0221C9.7663 14.811 10.8885 15.211 11.9996 15.211C13.1108 15.211 14.2219 14.8221 15.0885 14.0332C15.7996 13.3999 16.2552 12.5888 16.4552 11.7221L14.9219 10.1888H16.5774ZM13.9663 12.7999C12.8774 13.7777 11.1108 13.7777 10.0219 12.7888C8.92187 11.7777 8.7552 10.0554 9.6552 8.86655L11.9996 5.74433L14.3441 8.87766C14.733 9.38877 14.9219 10.011 14.9219 10.6221C14.9219 11.4221 14.5997 12.2221 13.9663 12.7999Z" fill="#0008FF"/>
<path d="M17.8327 17.6888L16.166 16.0221H7.83268L6.16602 17.6888H17.8327Z" fill="#666BFF"/>
<path d="M17.8327 21.0221L16.166 19.3555H7.83268L6.16602 21.0221H17.8327Z" fill="#666BFF"/>
</svg>
