<svg width="28" height="28" viewBox="0 0 28 28" fill="none" xmlns="http://www.w3.org/2000/svg">
<path d="M14 21.7648C9.70926 21.7648 6.22222 18.2778 6.22222 13.9871L4.44629 15.763C5.27592 20.2871 9.24259 23.7093 14 23.7093C18.7574 23.7093 22.7241 20.2871 23.5537 15.763L21.7778 13.9871C21.7778 18.2778 18.2907 21.7648 14 21.7648Z" fill="white"/>
<path d="M14.9722 4.30371V6.26112C18.8092 6.74075 21.7777 10.0074 21.7777 13.9741H23.7222C23.7222 8.93149 19.8851 4.78334 14.9722 4.30371Z" fill="#666BFF"/>
<path d="M4.27783 13.987H6.22228C6.22228 10.0204 9.19079 6.75369 13.0278 6.27406V4.31665C8.11487 4.79628 4.27783 8.94443 4.27783 13.987Z" fill="#666BFF"/>
<path d="M13.028 6.2611V16.4889L10.7984 14.2593L9.42432 15.6333L14.0002 20.2093L18.5762 15.6333L17.2021 14.2593L14.9725 16.4889V6.2611C14.6484 6.22222 14.3243 6.19629 14.0002 6.19629C13.6762 6.19629 13.3521 6.22222 13.028 6.2611Z" fill="#666BFF"/>
</svg>
