<svg width="28" height="28" viewBox="0 0 28 28" fill="none" xmlns="http://www.w3.org/2000/svg">
<path d="M13.999 21.7648C9.70828 21.7648 6.22124 18.2778 6.22124 13.9871L4.44531 15.763C5.27494 20.2871 9.24161 23.7093 13.999 23.7093C18.7564 23.7093 22.7231 20.2871 23.5527 15.763L21.7768 13.9871C21.7768 18.2778 18.2898 21.7648 13.999 21.7648Z" fill="#0008FF"/>
<path d="M14.9727 4.30371V6.26112C18.8097 6.74075 21.7782 10.0074 21.7782 13.9741H23.7227C23.7227 8.93149 19.8856 4.78334 14.9727 4.30371Z" fill="#666BFF"/>
<path d="M4.27734 13.987H6.22179C6.22179 10.0204 9.19031 6.75369 13.0273 6.27406V4.31665C8.11438 4.79628 4.27734 8.94443 4.27734 13.987Z" fill="#666BFF"/>
<path d="M13.0275 6.2611V16.4889L10.7979 14.2593L9.42383 15.6333L13.9998 20.2093L18.5757 15.6333L17.2016 14.2593L14.972 16.4889V6.2611C14.6479 6.22222 14.3238 6.19629 13.9998 6.19629C13.6757 6.19629 13.3516 6.22222 13.0275 6.2611Z" fill="#666BFF"/>
</svg>
