<svg width="28" height="28" viewBox="0 0 28 28" fill="none" xmlns="http://www.w3.org/2000/svg">
<path d="M6.22248 14.0388L4.43359 15.8277C5.22433 20.0407 8.71137 23.2814 13.028 23.7092V21.7518C9.191 21.2722 6.22248 18.0055 6.22248 14.0388Z" fill="#FF6F00"/>
<path d="M21.7777 14.0388C21.7777 18.0055 18.8092 21.2722 14.9722 21.7518V23.7092C19.2888 23.2814 22.7759 20.0407 23.5666 15.8277L21.7777 14.0388Z" fill="#FF6F00"/>
<path d="M17.2021 13.7537L18.5762 12.3796L14.0002 7.80371L9.42432 12.3796L10.7984 13.7537L13.028 11.5241V21.7519C13.3521 21.7907 13.6762 21.8167 14.0002 21.8167C14.3243 21.8167 14.6484 21.7907 14.9725 21.7519V11.5241L17.2021 13.7537Z" fill="#FF6F00"/>
<path d="M14.0001 4.31665C8.63339 4.31665 4.27783 8.67221 4.27783 14.0389H6.22228C6.22228 9.74813 9.70931 6.26109 14.0001 6.26109C18.2908 6.26109 21.7778 9.74813 21.7778 14.0389H23.7223C23.7223 8.67221 19.3667 4.31665 14.0001 4.31665Z" fill="white"/>
</svg>
