<svg width="28" height="28" viewBox="0 0 28 28" fill="none" xmlns="http://www.w3.org/2000/svg">
<path d="M6.22248 14.0388L4.43359 15.8277C5.22433 20.0407 8.71137 23.2814 13.028 23.7092V21.7518C9.191 21.2722 6.22248 18.0055 6.22248 14.0388Z" fill="#FF6F00"/>
<path d="M21.7782 14.0388C21.7782 18.0055 18.8097 21.2722 14.9727 21.7518V23.7092C19.2893 23.2814 22.7764 20.0407 23.5671 15.8277L21.7782 14.0388Z" fill="#FF6F00"/>
<path d="M17.2016 13.7537L18.5757 12.3796L13.9998 7.80371L9.42383 12.3796L10.7979 13.7537L13.0275 11.5241V21.7519C13.3516 21.7907 13.6757 21.8167 13.9998 21.8167C14.3238 21.8167 14.6479 21.7907 14.972 21.7519V11.5241L17.2016 13.7537Z" fill="#FF6F00"/>
<path d="M13.9996 4.31665C8.6329 4.31665 4.27734 8.67221 4.27734 14.0389H6.22179C6.22179 9.74813 9.70883 6.26109 13.9996 6.26109C18.2903 6.26109 21.7773 9.74813 21.7773 14.0389H23.7218C23.7218 8.67221 19.3662 4.31665 13.9996 4.31665Z" fill="#FFA25B"/>
</svg>
