<svg width="26" height="26" viewBox="0 0 26 26" fill="none" xmlns="http://www.w3.org/2000/svg">
<rect x="0.5" y="0.5" width="25" height="25" rx="12.5" fill="white"/>
<rect x="0.5" y="0.5" width="25" height="25" rx="12.5" stroke="#FDFDFD"/>
<path d="M18.4001 7.80439C18.4001 8.8009 15.9824 9.60874 13.0001 9.60874C10.0177 9.60874 7.6001 8.8009 7.6001 7.80439C7.6001 6.80784 10.0177 6 13.0001 6C15.9824 6 18.4001 6.80784 18.4001 7.80439Z" fill="black"/>
<path d="M22 17.6081C22 16.3799 19.7967 15.3237 16.6388 14.8567L16.5571 14.8733C15.4919 15.0834 14.2824 15.2022 13 15.2022C11.6847 15.2022 10.4459 15.0772 9.36117 14.8567C6.2033 15.3237 4 16.3799 4 17.6081C4 19.269 8.02941 20.6154 13 20.6154C17.9706 20.6154 22 19.269 22 17.6081Z" fill="black"/>
<path d="M20.1998 12.1947C20.1998 11.1319 18.1378 10.2302 15.2776 9.91162L15.2038 9.92354C14.5232 10.0306 13.7792 10.0895 12.9998 10.0895C12.1922 10.0895 11.4225 10.0263 10.722 9.91171C7.86185 10.2301 5.7998 11.132 5.7998 12.1947C5.7998 13.5234 9.02332 14.6006 12.9998 14.6006C16.9763 14.6006 20.1998 13.5234 20.1998 12.1947Z" fill="black"/>
</svg>
