<svg width="26" height="26" viewBox="0 0 26 26" fill="none" xmlns="http://www.w3.org/2000/svg">
<rect x="0.5" y="0.5" width="25" height="25" rx="12.5" fill="white"/>
<rect x="0.5" y="0.5" width="25" height="25" rx="12.5" stroke="#FDFDFD"/>
<path d="M4 13C4 8.02933 8.03842 4 13.0203 4C18.0022 4 22.0406 8.02933 22.0406 13C22.0406 13.0777 22.0395 13.1554 22.0374 13.2321C22.0363 13.3098 22.033 13.3864 22.0286 13.463C22.0231 13.5856 22.0143 13.7082 22.0023 13.8297C21.999 13.8746 21.9946 13.9184 21.9902 13.9622C21.9781 14.0706 21.9639 14.1778 21.9485 14.2851H20.6452C20.7165 13.867 20.7526 13.4378 20.7526 13C20.7526 8.73973 17.2902 5.28509 13.0203 5.28509C8.75043 5.28509 5.28799 8.73864 5.28799 13C5.28799 17.2614 8.75043 20.7149 13.0203 20.7149H17.6676C16.3105 21.5304 14.7197 22 13.0203 22C8.03842 22 4 17.9707 4 13Z" fill="black"/>
<path d="M7.8672 13.0003C7.8672 10.1608 10.1744 7.85882 13.0203 7.85882C15.8662 7.85882 18.1744 10.1608 18.1744 13.0003C18.1744 13.4436 18.1185 13.8749 18.0121 14.2853H19.3351C19.4196 13.8705 19.4635 13.4403 19.4635 13.0003C19.4635 9.45039 16.5793 6.57153 13.0203 6.57153C9.46131 6.57153 6.57812 9.45039 6.57812 13.0003C6.57812 16.5501 9.4624 19.429 13.0203 19.429H19.333C19.7356 19.036 20.1009 18.6047 20.4235 18.1428H13.0203C10.1744 18.1428 7.8672 15.8408 7.8672 13.0003Z" fill="black"/>
<path d="M10.4444 13.0002C10.4444 11.5804 11.5974 10.43 13.0204 10.43C14.4433 10.43 15.5974 11.5804 15.5974 13.0002C15.5974 13.4687 15.4724 13.9076 15.2519 14.2853H16.6649C16.8075 13.8835 16.8854 13.4512 16.8854 13.0002C16.8854 10.8711 15.1553 9.1438 13.0204 9.1438C10.8854 9.1438 9.15527 10.8711 9.15527 13.0002C9.15527 15.1292 10.8865 16.8565 13.0204 16.8565H21.1729C21.3693 16.4449 21.5349 16.0159 21.6666 15.5714H13.0204C11.5974 15.5714 10.4444 14.4199 10.4444 13.0002Z" fill="black"/>
</svg>
