<svg width="18" height="18" viewBox="0 0 18 18" fill="none" xmlns="http://www.w3.org/2000/svg">
<circle cx="9" cy="9" r="8.5" fill="#1D1141" stroke="white"/>
<path d="M14.529 5.13325C14.4056 4.66625 14.0091 4.19925 13.2954 3.67938C12.7227 3.26525 12.1147 3.02734 11.6301 3.02734C11.5332 3.02734 11.445 3.03616 11.3569 3.05378C11.1366 3.09783 10.9428 3.25644 10.8194 3.49434C10.6696 3.77631 10.6344 4.15519 10.7313 4.38429C10.7666 4.45478 10.8106 4.54289 10.8635 4.62219C10.3965 4.90415 10.1322 4.98346 10.0969 4.99227C11.3129 5.39759 12.3262 6.24347 12.9606 7.34489L12.9694 7.23915C12.9958 6.94838 13.0839 6.61355 13.2073 6.26991C13.3307 6.30515 13.454 6.32278 13.5774 6.32278C13.9034 6.32278 14.1854 6.19061 14.3616 5.9527C14.5378 5.71479 14.6083 5.39759 14.529 5.13325Z" fill="#5E12A0"/>
<path d="M13.2598 6.01479C14.0617 6.23507 14.3877 5.61828 14.2819 5.20415C14.1674 4.79001 13.7973 4.36707 13.1453 3.89126C12.4932 3.41545 11.8324 3.2216 11.4095 3.30971C10.9865 3.39783 10.8632 4.04105 10.9689 4.28777C11.0129 4.38469 11.1099 4.52568 11.242 4.68428C11.0746 4.79883 10.916 4.88694 10.7839 4.96624C11.5945 5.32751 12.2994 5.89143 12.8281 6.59633C12.8898 6.35843 12.9779 6.14696 13.0572 5.96192C13.1189 5.97073 13.1893 5.98835 13.2598 6.01479Z" fill="url(#paint0_radial_2_36723)"/>
<path d="M8.66962 14.6479C11.3899 14.6479 13.5951 12.4427 13.5951 9.7224C13.5951 7.00211 11.3899 4.79688 8.66962 4.79688C5.94932 4.79688 3.74409 7.00211 3.74409 9.7224C3.74409 12.4427 5.94932 14.6479 8.66962 14.6479Z" fill="url(#paint1_radial_2_36723)"/>
<path opacity="0.6" d="M13.877 4.79856C13.2073 4.09366 12.6434 3.90862 11.9649 3.75883C11.4363 3.63547 11.5772 3.33589 12.2205 3.39757C11.9121 3.29183 11.6213 3.2654 11.4098 3.30945C10.9869 3.39757 10.8635 4.04079 10.9693 4.28751C11.0133 4.38443 11.1102 4.52541 11.2424 4.68402C11.0045 4.84262 10.8019 4.95717 10.6344 5.04528C10.7137 5.08053 10.8107 5.12458 10.9252 5.18626C11.2248 5.34487 11.5508 5.60921 11.5508 5.60921C11.0574 5.18626 11.1631 4.99241 11.8416 4.5166C12.0531 4.36681 12.4408 4.38443 12.802 4.56947C13.1633 4.75451 13.5862 5.22151 13.5862 5.22151L13.1809 5.9969C13.2073 6.00572 13.2338 6.01453 13.2602 6.02334C13.5157 6.09383 13.7184 6.07621 13.877 6.01453C14.062 5.89998 14.5467 5.51228 13.877 4.79856Z" fill="#A98698"/>
<path d="M11.9561 4.18352C12.1323 4.25401 12.3614 4.37737 12.6434 4.56241C12.9782 4.78269 13.269 5.02941 13.454 5.22326C13.1456 5.62858 12.9429 6.18369 12.8196 6.57139C12.8813 6.6595 12.9517 6.74762 13.0134 6.83573C13.0751 6.61545 13.1808 6.28943 13.3218 5.96341C13.3571 5.97222 13.4011 5.97222 13.4452 5.97222C13.5509 5.97222 13.6743 5.9546 13.7712 5.8753C13.8417 5.82243 13.921 5.7255 13.9122 5.54928C13.9122 5.38186 13.78 5.17039 13.5069 4.91486C13.313 4.72983 13.0487 4.52717 12.7843 4.34213C12.0266 3.83988 11.4979 3.6989 11.26 3.93681C11.1014 4.09541 11.119 4.28926 11.1719 4.43024C10.8899 4.61528 10.652 4.74745 10.4934 4.83556C10.5991 4.87081 10.6961 4.91486 10.8018 4.95892C11.0838 4.80913 11.4891 4.5536 11.9561 4.18352ZM13.6214 5.44354C13.6478 5.4876 13.6567 5.53165 13.6567 5.55809C13.6567 5.63739 13.6302 5.66382 13.6126 5.68145C13.5774 5.70788 13.5069 5.7255 13.4452 5.7255C13.4981 5.61977 13.5597 5.53165 13.6214 5.44354ZM11.445 4.13066C11.4714 4.10422 11.5419 4.0866 11.6565 4.10422C11.5684 4.17471 11.4803 4.23639 11.3921 4.29807C11.3833 4.23639 11.3921 4.17471 11.445 4.13066Z" fill="#5E12A0"/>
<path d="M8.66895 4.50781C5.78765 4.50781 3.45266 6.84281 3.45266 9.72411C3.45266 12.6054 5.78765 14.9404 8.66895 14.9404C11.5503 14.9404 13.8853 12.6054 13.8853 9.72411C13.8853 6.84281 11.5414 4.50781 8.66895 4.50781ZM8.66895 14.6496C5.94626 14.6496 3.74343 12.4468 3.74343 9.72411C3.74343 7.00141 5.94626 4.79859 8.66895 4.79859C11.3916 4.79859 13.5945 7.00141 13.5945 9.72411C13.5945 12.4468 11.3828 14.6496 8.66895 14.6496Z" fill="#5E12A0"/>
<path opacity="0.6" d="M8.66962 14.6479C11.3899 14.6479 13.5951 12.4427 13.5951 9.7224C13.5951 7.00211 11.3899 4.79688 8.66962 4.79688C5.94932 4.79688 3.74409 7.00211 3.74409 9.7224C3.74409 12.4427 5.94932 14.6479 8.66962 14.6479Z" fill="url(#paint2_linear_2_36723)"/>
<path opacity="0.6" d="M8.63414 14.051C5.94669 13.6192 4.12275 11.0904 4.56331 8.40292C4.75716 7.21339 5.35633 6.20009 6.20222 5.46875C4.96864 6.18247 4.05226 7.42486 3.80554 8.94041C3.37379 11.6279 5.19773 14.1567 7.87637 14.5885C9.37429 14.8352 10.8193 14.3682 11.8855 13.4518C10.9427 13.9981 9.79724 14.236 8.63414 14.051Z" fill="#A98698"/>
<path opacity="0.6" d="M9.45332 4.8696C8.21092 4.66694 7.00377 4.9489 6.01691 5.57451L5.98166 5.60975C6.36055 5.38066 6.91566 5.178 6.91566 5.178C5.48823 6.00626 5.04766 6.94907 5.04766 6.94907C5.60277 5.87409 7.23287 5.11632 8.51051 5.06345C9.78815 5.01058 10.6252 5.38947 11.6473 6.20892C12.6694 7.03718 13.2862 8.72896 13.2246 10.0683C13.1717 11.4076 12.4668 12.4914 12.4668 12.4914C12.9514 11.8658 13.2422 11.4076 13.4272 10.9406C13.4625 10.7996 13.4977 10.6586 13.5153 10.5088C13.9559 7.8302 12.1408 5.30135 9.45332 4.8696Z" fill="url(#paint3_linear_2_36723)"/>
<path d="M13.348 9.68359C13.348 12.2653 11.2509 14.3624 8.66915 14.3624C6.08744 14.3624 3.98153 12.2653 3.98153 9.68359H13.348Z" fill="url(#paint4_linear_2_36723)"/>
<g opacity="0.6">
<path opacity="0.6" d="M12.9783 9.67969C12.9783 12.1997 10.9869 14.2616 8.48448 14.3585H8.66952C11.2512 14.3585 13.3483 12.2614 13.3483 9.67969H12.9783Z" fill="url(#paint5_linear_2_36723)"/>
</g>
<g opacity="0.7">
<path d="M4.64275 9.67969H3.9819C3.9819 12.2614 6.07899 14.3585 8.66071 14.3585C8.77525 14.3585 8.88099 14.3585 8.98673 14.3497C6.56361 14.1735 4.64275 12.1469 4.64275 9.67969Z" fill="url(#paint6_linear_2_36723)"/>
</g>
<path d="M13.3391 9.7244C13.3391 9.18691 12.4051 8.87851 11.1628 8.77278C10.264 8.70229 9.35643 8.7904 8.3167 9.10761C7.41795 9.37194 6.6073 9.32789 6.01695 9.2574C4.70406 9.10761 3.98153 9.08998 3.98153 9.7244C3.98153 10.6408 5.84953 11.7862 8.65153 11.3897C10.0702 11.1871 10.8015 10.7729 11.6386 10.491C12.5461 10.1914 13.3391 10.2002 13.3391 9.7244Z" fill="url(#paint7_linear_2_36723)"/>
<path d="M10.2026 7.50401C10.6405 7.50401 10.9956 7.14896 10.9956 6.71099C10.9956 6.27302 10.6405 5.91797 10.2026 5.91797C9.76459 5.91797 9.40955 6.27302 9.40955 6.71099C9.40955 7.14896 9.76459 7.50401 10.2026 7.50401Z" fill="white"/>
<path d="M11.4979 8.09544C11.6828 8.09544 11.8327 7.94553 11.8327 7.76061C11.8327 7.57569 11.6828 7.42578 11.4979 7.42578C11.3129 7.42578 11.163 7.57569 11.163 7.76061C11.163 7.94553 11.3129 8.09544 11.4979 8.09544Z" fill="white"/>
<g opacity="0.6">
<path d="M12.6963 6.07761H12.6787C12.6258 6.0688 12.5906 6.01593 12.5994 5.95425C12.6787 5.54893 13.0135 5.16123 13.0311 5.14361C13.0664 5.09955 13.1369 5.09955 13.1721 5.1348C13.2162 5.17004 13.2162 5.24054 13.1809 5.27578C13.1721 5.28459 12.8637 5.64586 12.7932 5.99831C12.7844 6.05118 12.7404 6.07761 12.6963 6.07761Z" fill="url(#paint8_linear_2_36723)"/>
</g>
<path d="M11.63 3.0287C12.1234 3.0287 12.7314 3.2666 13.2953 3.68074C14.009 4.2006 14.4055 4.65879 14.5289 5.1346C14.5994 5.40775 14.5377 5.71615 14.3615 5.94524C14.1764 6.18315 13.9033 6.31532 13.5773 6.31532C13.4627 6.31532 13.3394 6.2977 13.2072 6.26245C13.1279 6.46511 13.0662 6.66777 13.0222 6.86162C13.5597 7.68107 13.8769 8.66794 13.8769 9.7253C13.8769 12.6066 11.5419 14.9416 8.66056 14.9416C5.77927 14.9416 3.45308 12.6066 3.45308 9.7253C3.45308 6.844 5.78808 4.509 8.66938 4.509C9.30379 4.509 9.91177 4.62355 10.4757 4.83502C10.5814 4.78215 10.7136 4.71166 10.8634 4.62355C10.8105 4.54424 10.7577 4.46494 10.7312 4.38564C10.6343 4.14774 10.6695 3.77766 10.8193 3.4957C10.9427 3.2666 11.1277 3.108 11.3568 3.05513C11.4361 3.03751 11.5331 3.0287 11.63 3.0287ZM11.63 2.87891C11.5242 2.87891 11.4185 2.88772 11.3216 2.91415C11.0572 2.97583 10.8281 3.15206 10.6784 3.43402C10.5109 3.76004 10.4669 4.18298 10.5814 4.45613C10.5991 4.49138 10.6167 4.53543 10.6431 4.57949C10.5814 4.61474 10.5198 4.64998 10.4581 4.67641C9.87653 4.47375 9.27736 4.36802 8.66056 4.36802C7.93804 4.36802 7.23313 4.509 6.57228 4.79096C5.92906 5.06411 5.35632 5.45181 4.86289 5.94524C4.36946 6.43868 3.98176 7.01141 3.70861 7.65464C3.42664 8.31549 3.28566 9.02039 3.28566 9.74292C3.28566 10.4654 3.42664 11.1704 3.70861 11.8312C3.98176 12.4744 4.36946 13.0472 4.86289 13.5406C5.35632 14.034 5.92906 14.4217 6.57228 14.6949C7.23313 14.9768 7.93804 15.1178 8.66056 15.1178C9.38309 15.1178 10.088 14.9768 10.7488 14.6949C11.3921 14.4217 11.9648 14.034 12.4582 13.5406C12.9517 13.0472 13.3394 12.4744 13.6125 11.8312C13.8945 11.1704 14.0355 10.4654 14.0355 9.74292C14.0355 8.712 13.7447 7.71632 13.1896 6.85281C13.216 6.72064 13.2601 6.58847 13.3041 6.4563C13.3922 6.47392 13.4892 6.48273 13.5773 6.48273C13.9474 6.48273 14.2734 6.33294 14.4848 6.05098C14.6875 5.78664 14.7668 5.41656 14.6787 5.10817C14.5377 4.59711 14.1324 4.11249 13.3834 3.575C12.7931 3.12562 12.1498 2.87891 11.63 2.87891Z" fill="white"/>
<path opacity="0.2" d="M8.34335 13.3997C8.47961 13.3997 8.59006 13.2892 8.59006 13.153C8.59006 13.0167 8.47961 12.9062 8.34335 12.9062C8.20709 12.9062 8.09663 13.0167 8.09663 13.153C8.09663 13.2892 8.20709 13.3997 8.34335 13.3997Z" fill="white"/>
<g opacity="0.4">
<path opacity="0.6" d="M8.20214 13.3145C8.10522 13.2176 8.10522 13.0589 8.20214 12.962C8.21976 12.9444 8.23739 12.9356 8.25501 12.918C8.21977 12.9268 8.19333 12.9444 8.1669 12.9708C8.06997 13.0678 8.06997 13.2264 8.1669 13.3233C8.2462 13.4026 8.36956 13.4202 8.46648 13.3673C8.37837 13.4026 8.27263 13.385 8.20214 13.3145Z" fill="url(#paint9_linear_2_36723)"/>
</g>
<path opacity="0.3" d="M8.43158 13.0862C8.46078 13.0862 8.48445 13.0625 8.48445 13.0333C8.48445 13.0041 8.46078 12.9805 8.43158 12.9805C8.40239 12.9805 8.37872 13.0041 8.37872 13.0333C8.37872 13.0625 8.40239 13.0862 8.43158 13.0862Z" fill="white"/>
<path opacity="0.2" d="M9.63004 13.2747C9.76629 13.2747 9.87675 13.1642 9.87675 13.028C9.87675 12.8917 9.76629 12.7812 9.63004 12.7812C9.49378 12.7812 9.38332 12.8917 9.38332 13.028C9.38332 13.1642 9.49378 13.2747 9.63004 13.2747Z" fill="white"/>
<g opacity="0.4">
<path opacity="0.6" d="M9.48859 13.1895C9.39167 13.0926 9.39167 12.9339 9.48859 12.837C9.50621 12.8194 9.52384 12.8106 9.54146 12.793C9.50621 12.8018 9.47978 12.8194 9.45335 12.8458C9.35642 12.9428 9.35642 13.1014 9.45335 13.1983C9.53265 13.2776 9.65601 13.2952 9.75293 13.2423C9.66482 13.2776 9.55908 13.26 9.48859 13.1895Z" fill="url(#paint10_linear_2_36723)"/>
</g>
<path opacity="0.3" d="M9.71799 12.9612C9.74719 12.9612 9.77086 12.9375 9.77086 12.9083C9.77086 12.8791 9.74719 12.8555 9.71799 12.8555C9.6888 12.8555 9.66513 12.8791 9.66513 12.9083C9.66513 12.9375 9.6888 12.9612 9.71799 12.9612Z" fill="white"/>
<path opacity="0.2" d="M8.99526 13.8466C9.09745 13.8466 9.18029 13.7638 9.18029 13.6616C9.18029 13.5594 9.09745 13.4766 8.99526 13.4766C8.89306 13.4766 8.81022 13.5594 8.81022 13.6616C8.81022 13.7638 8.89306 13.8466 8.99526 13.8466Z" fill="white"/>
<g opacity="0.4">
<path opacity="0.6" d="M8.8898 13.7791C8.81931 13.7086 8.81931 13.5852 8.8898 13.5147C8.89861 13.5059 8.91623 13.4971 8.92504 13.4883C8.89861 13.4971 8.88099 13.5147 8.86337 13.5323C8.79287 13.6028 8.79287 13.7262 8.86337 13.7967C8.92504 13.8584 9.01316 13.8672 9.09246 13.8231C9.02197 13.8495 8.94267 13.8319 8.8898 13.7791Z" fill="url(#paint11_linear_2_36723)"/>
</g>
<path opacity="0.3" d="M9.05696 13.6017C9.07642 13.6017 9.0922 13.586 9.0922 13.5665C9.0922 13.547 9.07642 13.5312 9.05696 13.5312C9.03749 13.5312 9.02171 13.547 9.02171 13.5665C9.02171 13.586 9.03749 13.6017 9.05696 13.6017Z" fill="white"/>
<path opacity="0.2" d="M10.1323 13.7138C10.2344 13.7138 10.3173 13.631 10.3173 13.5288C10.3173 13.4266 10.2344 13.3438 10.1323 13.3438C10.0301 13.3438 9.94722 13.4266 9.94722 13.5288C9.94722 13.631 10.0301 13.7138 10.1323 13.7138Z" fill="white"/>
<g opacity="0.4">
<path opacity="0.6" d="M10.026 13.6462C9.95555 13.5758 9.95555 13.4524 10.026 13.3819C10.0349 13.3731 10.0525 13.3643 10.0613 13.3555C10.0349 13.3643 10.0172 13.3819 9.99961 13.3995C9.92912 13.47 9.92912 13.5934 9.99961 13.6639C10.0613 13.7255 10.1494 13.7344 10.2287 13.6903C10.1582 13.7167 10.0789 13.6991 10.026 13.6462Z" fill="url(#paint12_linear_2_36723)"/>
</g>
<path opacity="0.3" d="M10.1937 13.4689C10.2131 13.4689 10.2289 13.4531 10.2289 13.4337C10.2289 13.4142 10.2131 13.3984 10.1937 13.3984C10.1742 13.3984 10.1584 13.4142 10.1584 13.4337C10.1584 13.4531 10.1742 13.4689 10.1937 13.4689Z" fill="white"/>
<path opacity="0.2" d="M7.29478 13.3106C7.51863 13.3106 7.7001 13.1292 7.7001 12.9053C7.7001 12.6815 7.51863 12.5 7.29478 12.5C7.07093 12.5 6.88946 12.6815 6.88946 12.9053C6.88946 13.1292 7.07093 13.3106 7.29478 13.3106Z" fill="white"/>
<g opacity="0.4">
<path opacity="0.6" d="M7.06615 13.1618C6.90754 13.0032 6.90754 12.7476 7.06615 12.589C7.09258 12.5626 7.11901 12.545 7.15426 12.5273C7.10139 12.545 7.05733 12.5802 7.01328 12.6155C6.85467 12.7741 6.85467 13.0296 7.01328 13.1882C7.14545 13.3204 7.34811 13.3468 7.50671 13.2499C7.35692 13.3116 7.18069 13.2851 7.06615 13.1618Z" fill="url(#paint13_linear_2_36723)"/>
</g>
<path opacity="0.3" d="M7.436 12.7856C7.48466 12.7856 7.52411 12.7462 7.52411 12.6975C7.52411 12.6488 7.48466 12.6094 7.436 12.6094C7.38733 12.6094 7.34789 12.6488 7.34789 12.6975C7.34789 12.7462 7.38733 12.7856 7.436 12.7856Z" fill="white"/>
<path opacity="0.2" d="M10.9163 12.3185C11.1401 12.3185 11.3216 12.137 11.3216 11.9131C11.3216 11.6893 11.1401 11.5078 10.9163 11.5078C10.6924 11.5078 10.511 11.6893 10.511 11.9131C10.511 12.137 10.6924 12.3185 10.9163 12.3185Z" fill="white"/>
<g opacity="0.4">
<path opacity="0.6" d="M10.6785 12.1696C10.5198 12.011 10.5198 11.7554 10.6785 11.5968C10.7049 11.5704 10.7313 11.5528 10.7666 11.5352C10.7137 11.5528 10.6696 11.588 10.6256 11.6233C10.467 11.7819 10.467 12.0374 10.6256 12.196C10.7578 12.3282 10.9604 12.3546 11.119 12.2577C10.9692 12.3194 10.8018 12.2929 10.6785 12.1696Z" fill="url(#paint14_linear_2_36723)"/>
</g>
<path opacity="0.3" d="M11.0575 11.7856C11.1062 11.7856 11.1456 11.7462 11.1456 11.6975C11.1456 11.6488 11.1062 11.6094 11.0575 11.6094C11.0088 11.6094 10.9694 11.6488 10.9694 11.6975C10.9694 11.7462 11.0088 11.7856 11.0575 11.7856Z" fill="white"/>
<defs>
<radialGradient id="paint0_radial_2_36723" cx="0" cy="0" r="1" gradientUnits="userSpaceOnUse" gradientTransform="translate(14.1216 4.64903) scale(3.93778)">
<stop stop-color="#FFEAFF" stop-opacity="0.6"/>
<stop offset="0.68" stop-color="#A087C9"/>
<stop offset="1" stop-color="#10002F"/>
</radialGradient>
<radialGradient id="paint1_radial_2_36723" cx="0" cy="0" r="1" gradientUnits="userSpaceOnUse" gradientTransform="translate(11.9307 6.32652) scale(9.63517)">
<stop stop-color="#FFEAFF" stop-opacity="0.6"/>
<stop offset="0.68" stop-color="#A087C9"/>
<stop offset="1" stop-color="#10002F"/>
</radialGradient>
<linearGradient id="paint2_linear_2_36723" x1="7.87548" y1="14.59" x2="9.45246" y2="4.86425" gradientUnits="userSpaceOnUse">
<stop stop-color="#81FFFF"/>
<stop offset="0.62" stop-color="white" stop-opacity="0"/>
</linearGradient>
<linearGradient id="paint3_linear_2_36723" x1="12.1372" y1="6.37634" x2="8.06465" y2="10.1132" gradientUnits="userSpaceOnUse">
<stop offset="0.29" stop-color="white"/>
<stop offset="0.78" stop-color="white" stop-opacity="0"/>
</linearGradient>
<linearGradient id="paint4_linear_2_36723" x1="3.98153" y1="12.023" x2="13.348" y2="12.023" gradientUnits="userSpaceOnUse">
<stop stop-color="#0002E9"/>
<stop offset="1" stop-color="#FF00C7"/>
</linearGradient>
<linearGradient id="paint5_linear_2_36723" x1="13.7915" y1="10.0929" x2="8.69683" y2="14.9074" gradientUnits="userSpaceOnUse">
<stop offset="0.29" stop-color="white"/>
<stop offset="0.78" stop-color="white" stop-opacity="0"/>
</linearGradient>
<linearGradient id="paint6_linear_2_36723" x1="3.9819" y1="12.0191" x2="8.98673" y2="12.0191" gradientUnits="userSpaceOnUse">
<stop stop-color="#000292"/>
<stop offset="1" stop-color="#7D00C7"/>
</linearGradient>
<linearGradient id="paint7_linear_2_36723" x1="3.99211" y1="10.1103" x2="13.3391" y2="10.1103" gradientUnits="userSpaceOnUse">
<stop stop-color="#000292"/>
<stop offset="1" stop-color="#BE00C7"/>
</linearGradient>
<linearGradient id="paint8_linear_2_36723" x1="13.1888" y1="5.1022" x2="12.5165" y2="6.19392" gradientUnits="userSpaceOnUse">
<stop offset="0.29" stop-color="white"/>
<stop offset="0.78" stop-color="white" stop-opacity="0"/>
</linearGradient>
<linearGradient id="paint9_linear_2_36723" x1="8.09376" y1="13.1576" x2="8.46736" y2="13.1576" gradientUnits="userSpaceOnUse">
<stop offset="0.29" stop-color="white"/>
<stop offset="0.78" stop-color="white" stop-opacity="0"/>
</linearGradient>
<linearGradient id="paint10_linear_2_36723" x1="9.37933" y1="13.0326" x2="9.75205" y2="13.0326" gradientUnits="userSpaceOnUse">
<stop offset="0.29" stop-color="white"/>
<stop offset="0.78" stop-color="white" stop-opacity="0"/>
</linearGradient>
<linearGradient id="paint11_linear_2_36723" x1="8.80962" y1="13.6698" x2="9.08894" y2="13.6698" gradientUnits="userSpaceOnUse">
<stop offset="0.29" stop-color="white"/>
<stop offset="0.78" stop-color="white" stop-opacity="0"/>
</linearGradient>
<linearGradient id="paint12_linear_2_36723" x1="9.94146" y1="13.537" x2="10.2217" y2="13.537" gradientUnits="userSpaceOnUse">
<stop offset="0.29" stop-color="white"/>
<stop offset="0.78" stop-color="white" stop-opacity="0"/>
</linearGradient>
<linearGradient id="paint13_linear_2_36723" x1="6.88992" y1="12.9177" x2="7.49878" y2="12.9177" gradientUnits="userSpaceOnUse">
<stop offset="0.29" stop-color="white"/>
<stop offset="0.78" stop-color="white" stop-opacity="0"/>
</linearGradient>
<linearGradient id="paint14_linear_2_36723" x1="10.5057" y1="11.9255" x2="11.1146" y2="11.9255" gradientUnits="userSpaceOnUse">
<stop offset="0.29" stop-color="white"/>
<stop offset="0.78" stop-color="white" stop-opacity="0"/>
</linearGradient>
</defs>
</svg>
