<svg width="26" height="26" viewBox="0 0 26 26" fill="none" xmlns="http://www.w3.org/2000/svg">
<rect x="0.5" y="0.5" width="25" height="25" rx="12.5" fill="url(#paint0_linear_2792_1719)"/>
<rect x="0.5" y="0.5" width="25" height="25" rx="12.5" stroke="#FDFDFD"/>
<path fill-rule="evenodd" clip-rule="evenodd" d="M3 13.0005C3 7.47724 7.47737 3 12.9997 3C18.5231 3 23.0005 7.47724 23 13C23 14.9562 22.4381 16.7811 21.4673 18.322C21.1997 18.7466 20.9015 19.1496 20.5749 19.5284L13.013 11.9668L6.51054 18.4686L5.43695 19.5422C5.10928 19.1643 4.81013 18.7619 4.54247 18.3378C3.56533 16.7939 3 14.9631 3 13.0005ZM20.3209 16.8972L20.4125 16.7141L20.413 16.7146C20.9866 15.5702 21.2898 14.2856 21.2898 13.0005C21.2898 8.42978 17.5711 4.71119 13.0002 4.71119C8.4294 4.71119 4.71123 8.42978 4.71123 13.0005C4.71123 14.2925 5.01727 15.5825 5.59636 16.7314L5.6884 16.9134L13.013 9.58891L20.3209 16.8972ZM13.0001 23C15.4897 23 17.7673 22.0903 19.5179 20.5847V20.5843L13.0134 14.08L6.49665 20.5961C8.24478 22.0952 10.5105 23 13.0001 23Z" fill="white"/>
<defs>
<linearGradient id="paint0_linear_2792_1719" x1="13" y1="1" x2="13.0354" y2="25" gradientUnits="userSpaceOnUse">
<stop stop-color="#169E00"/>
<stop offset="0.49" stop-color="#00C537"/>
<stop offset="1" stop-color="#00B1C9"/>
</linearGradient>
</defs>
</svg>
