<svg width="285" height="257" viewBox="0 0 285 257" fill="none" xmlns="http://www.w3.org/2000/svg">
<g opacity="0.1">
<path d="M258.88 60.7559L235.243 102.402L258.88 143.597L282.967 103.077L258.88 60.7559Z" fill="#1017F3"/>
<path d="M215.209 35.9951L192.923 78.0913L234.344 101.278L258.206 59.4069L215.209 35.9951Z" fill="#1017F3"/>
<path d="M186.618 103.079L146.098 78.7664H192.021L232.091 101.728L186.618 103.079Z" fill="#3137FF"/>
<path d="M213.633 35.7695H166.584L144.298 76.9652L192.022 77.6406L213.633 35.7695Z" fill="#1017F3"/>
<path d="M190.445 -7H142.046L166.808 34.1957H213.632L190.445 -7Z" fill="#3137FF"/>
<path d="M140.696 -6.55078L99.7256 18.6619L125.388 58.0567L165.233 34.6449L140.696 -6.55078Z" fill="#3137FF"/>
<path d="M91.8466 -6.77539L50.876 17.3117L99.0502 17.7619L138.67 -6.77539H91.8466Z" fill="#3D43FF"/>
<path d="M99.7248 100.379L75.1875 61.2089L99.0495 19.3379L124.262 58.7327L99.7248 100.379Z" fill="#3137FF"/>
<path d="M49.3005 18.6611L24.5381 60.5322H74.2881L97.6998 19.3365L49.3005 18.6611Z" fill="#3D43FF"/>
<path d="M99.2746 101.954L75.1875 63.2344L75.6377 109.833L98.8244 149.678L99.2746 101.954Z" fill="#3137FF"/>
<path d="M74.2881 61.6582H24.0879L27.2395 111.408L74.5132 109.607L74.2881 61.6582Z" fill="#3D43FF"/>
<path d="M51.3264 154.631L26.7891 195.601L69.5605 219.013L92.0719 177.818L51.3264 154.631Z" fill="#666BFF"/>
<path d="M210.481 146.525L187.069 105.329L185.943 152.828L210.481 192.673V146.525Z" fill="#3D43FF"/>
<path d="M282.967 105.105L259.556 144.95L260.906 192.449L284.543 151.704L282.967 105.105Z" fill="#1017F3"/>
<path d="M258.43 145.627L211.832 147.203L211.382 194.026L259.781 194.476L258.43 145.627Z" fill="#3137FF"/>
<path d="M186.394 237.472L144.974 263.135L193.373 262.684L233.668 238.372L186.394 237.472Z" fill="#3137FF"/>
<path d="M160.057 196.276L119.537 220.138L143.849 262.234L185.495 236.796L160.057 196.276Z" fill="#3D43FF"/>
<path d="M118.411 220.362H70.6875L92.7486 263.359L142.724 262.909L118.411 220.362Z" fill="#3D43FF"/>
<path d="M70.9102 218.787L93.4215 178.042H141.371L118.634 219.463L70.9102 218.787Z" fill="#666BFF"/>
<path d="M99.5012 152.604L53.1279 154.405L92.9729 176.917L140.247 176.466L99.5012 152.604Z" fill="#3D43FF"/>
<path d="M74.5125 110.507L27.4639 112.533L51.1007 153.278L98.5996 151.702L74.5125 110.507Z" fill="#3D43FF"/>
<path d="M142.497 177.817L120.436 218.112L159.83 195.151L184.143 154.405L142.497 177.817Z" fill="#666BFF"/>
<path d="M185.494 154.18L160.957 195.6L186.395 235.896L210.032 194.7L185.494 154.18Z" fill="#3D43FF"/>
<path d="M259.105 195.602L211.155 195.151L187.519 236.347L235.243 237.473L259.105 195.602Z" fill="#3137FF"/>
<path d="M234.118 102.854L187.295 104.205L211.607 146.301L257.98 144.5L234.118 102.854Z" fill="#3137FF"/>
<path d="M69.56 220.587L27.0137 197.625L50.4254 239.271L90.9458 262.232L69.56 220.587Z" fill="#3D43FF"/>
<path d="M26.3391 113.436L1.80176 152.38L25.6637 195.602L50.2011 153.956L26.3391 113.436Z" fill="#666BFF"/>
<path d="M22.9615 63.0078L0 101.502L1.57579 151.027L26.1131 112.308L22.9615 63.0078Z" fill="#666BFF"/>
<path d="M124.939 59.858L101.752 100.153L143.173 76.7415L164.784 36.4463L124.939 59.858Z" fill="#1017F3"/>
<path d="M233.893 16.6341L192.473 -6.32739L215.209 34.4181L256.855 57.3796L233.893 16.6341Z" fill="#3137FF"/>
</g>
</svg>
