<svg width="118" height="48" viewBox="0 0 118 48" fill="none" xmlns="http://www.w3.org/2000/svg">
<g opacity="0.9">
<path d="M18.2952 18.1092C17.2568 18.1092 16.4607 18.5748 15.8722 19.5058C15.2838 20.4369 15.0069 21.7977 15.0069 23.5882C15.0069 25.2713 15.2838 26.5962 15.8722 27.5273C16.4607 28.4584 17.2568 28.9239 18.2952 28.9239C19.3335 28.9239 20.1643 28.4584 20.7181 27.5273C21.2719 26.5962 21.5834 25.2713 21.5834 23.5882C21.5834 21.9051 21.3065 20.4727 20.7181 19.5058C20.1643 18.5748 19.3335 18.1092 18.2952 18.1092Z" fill="white"/>
<path d="M33.5941 4H13.034C8.04972 4 4 8.18979 4 13.3465V34.6177C4 39.8102 8.04972 44 13.034 44H33.5941C38.613 44 42.6627 39.8102 42.6281 34.6177V13.3465C42.6281 8.18979 38.5784 4 33.5941 4ZM23.8678 30.3921C22.5525 31.9678 20.6834 32.7914 18.2952 32.7914C15.9069 32.7914 14.0724 32.0036 12.7917 30.3921C11.4764 28.7807 10.8534 26.5246 10.8534 23.624C10.8534 20.7234 11.511 18.4673 12.7917 16.8559C14.0724 15.2444 15.9415 14.4566 18.2952 14.4566C20.6488 14.4566 22.5525 15.2444 23.8678 16.8559C25.1831 18.4673 25.8408 20.7234 25.8408 23.624C25.8408 26.5246 25.1831 28.7807 23.8678 30.3921ZM34.5286 32.7914H30.1674V19.7207L27.3291 21.0815L26.6369 16.9275L31.5865 14.4208H34.5286V32.7914Z" fill="white"/>
<path d="M59.7269 25.701L52.0428 14.8505H48.1315V32.5407H52.112V21.9051L59.6923 32.5049H63.6728V14.8505H59.7269V25.701Z" fill="white"/>
<path d="M80.46 17.0349C79.6639 16.2113 78.6948 15.5667 77.6218 15.1012C76.5142 14.6356 75.3373 14.4208 74.022 14.4208C72.7067 14.4208 71.5299 14.6356 70.4569 15.1012C69.3493 15.5667 68.4147 16.2113 67.6186 17.0349C66.8225 17.8585 66.1995 18.8254 65.7495 19.9355C65.2996 21.0815 65.0919 22.299 65.0919 23.624C65.0919 24.949 65.2996 26.1665 65.7495 27.2766C66.1995 28.3867 66.8225 29.3536 67.6186 30.1773C68.4147 31.0009 69.3839 31.6455 70.4569 32.111C71.5645 32.5765 72.7413 32.7914 74.022 32.7914C75.3027 32.7914 76.5142 32.5407 77.6218 32.111C78.7294 31.6455 79.6639 31.0009 80.46 30.1773C81.2561 29.3536 81.8792 28.3867 82.3291 27.2766C82.7791 26.1665 82.9868 24.949 82.9868 23.624C82.9868 22.299 82.7791 21.0457 82.3291 19.9355C81.8792 18.8254 81.2561 17.8585 80.46 17.0349ZM77.8987 26.1307C77.5179 26.8827 76.9641 27.4557 76.3065 27.8854C75.6488 28.3151 74.8874 28.53 74.022 28.53C73.1567 28.53 72.3952 28.3151 71.7376 27.8854C71.0799 27.4557 70.5607 26.8827 70.18 26.1307C69.7992 25.4145 69.5916 24.555 69.5916 23.624C69.5916 22.6929 69.7992 21.8335 70.18 21.0815C70.5607 20.3294 71.0799 19.7565 71.7376 19.3268C72.3952 18.897 73.1567 18.6822 74.022 18.6822C74.8874 18.6822 75.6488 18.897 76.3065 19.3268C76.9641 19.7565 77.5179 20.3294 77.8987 21.0815C78.2794 21.8335 78.4871 22.6571 78.4871 23.624C78.4871 24.5909 78.2794 25.3787 77.8987 26.1307Z" fill="white"/>
<path d="M96.0705 15.9606C94.7898 15.2086 93.3014 14.8505 91.64 14.8505H84.4059V32.4691H91.64C93.3014 32.4691 94.7898 32.111 96.0705 31.359C97.3512 30.607 98.3549 29.5685 99.0818 28.2435C99.8087 26.9185 100.155 25.3787 100.155 23.6598C100.155 21.9409 99.8087 20.4011 99.0818 19.0761C98.3549 17.7511 97.3512 16.7126 96.0705 15.9606ZM94.5821 27.205C93.8206 28.1003 92.8169 28.5658 91.5362 28.5658H88.8018V18.8254H91.5362C92.7822 18.8254 93.8206 19.2551 94.5821 20.1862C95.3436 21.0815 95.7244 22.2632 95.7244 23.6956C95.7244 25.128 95.3436 26.3098 94.5821 27.205Z" fill="white"/>
<path d="M105.866 28.709V25.3429H112.685V21.6902H105.866V18.6464H113.723V14.8505H101.609V32.5049H114V28.709H105.866Z" fill="white"/>
</g>
</svg>
