<svg width="118" height="48" viewBox="0 0 118 48" fill="none" xmlns="http://www.w3.org/2000/svg">
<path fill-rule="evenodd" clip-rule="evenodd" d="M95.0627 20.4499C94.9772 20.204 94.8453 19.9761 94.6654 19.7677C94.4855 19.5593 94.2621 19.3839 93.9982 19.2415C93.7328 19.1005 93.4195 19.0286 93.0596 19.0286C92.8707 19.0286 92.7058 18.9671 92.5633 18.8442C92.4209 18.7212 92.3504 18.5458 92.3504 18.3194C92.3504 17.7317 92.142 17.2294 91.7252 16.8126C91.3084 16.3973 90.8076 16.1889 90.2199 16.1889H84.5405C83.9528 16.1889 83.452 16.3958 83.0352 16.8126C82.6184 17.2294 82.41 17.7317 82.41 18.3194H82.4114V21.1591C82.4114 20.5729 82.2015 20.0706 81.7862 19.6538C81.3694 19.237 80.8671 19.0286 80.2809 19.0286C80.092 19.0286 79.9256 18.9626 79.7831 18.8307C79.6422 18.6972 79.5702 18.5278 79.5702 18.3194C79.5702 17.7317 79.3618 17.2294 78.9465 16.8126C78.5297 16.3973 78.0274 16.1889 77.4412 16.1889H73.1801C72.5939 16.1889 72.0931 16.3958 71.6763 16.8126C71.2595 17.2294 71.0511 17.7317 71.0511 18.3194C71.0511 18.4888 70.9836 18.6507 70.8517 18.8022C70.7197 18.9536 70.5488 19.0286 70.3404 19.0286C69.7542 19.0286 69.2519 19.237 68.8351 19.6538C68.4183 20.0706 68.2114 20.5729 68.2114 21.1591V26.8415C68.2114 27.3258 68.3523 27.7531 68.6372 28.1219C68.2324 27.7426 67.7496 27.5507 67.1889 27.5507H65.769C65.5981 27.5507 65.4376 27.4907 65.2862 27.3663C65.1348 27.2433 65.0583 27.0679 65.0583 26.8415V12.637C65.0583 12.0507 64.8499 11.5485 64.4331 11.1317C64.0178 10.7148 63.5155 10.5064 62.9293 10.5064C62.3431 10.5064 61.8408 10.7148 61.424 11.1317C61.0072 11.5485 60.7987 12.0507 60.7987 12.637V18.3194C60.7987 17.7317 60.5903 17.2294 60.1735 16.8126C59.7567 16.3973 59.2559 16.1889 58.6682 16.1889C58.0805 16.1889 57.5797 16.3958 57.1629 16.8126C56.7461 17.2294 56.5392 17.7317 56.5392 18.3194V26.8415C56.5392 27.0499 56.4717 27.2209 56.3398 27.3528C56.2078 27.4847 56.0369 27.5507 55.8285 27.5507H51.5689C51.3605 27.5507 51.1896 27.4847 51.0577 27.3528C50.9257 27.2209 50.8583 27.0499 50.8583 26.8415V18.3194C50.8583 17.7317 50.6498 17.2294 50.2345 16.8126C49.8177 16.3973 49.3155 16.1889 48.7292 16.1889C48.143 16.1889 47.6407 16.3958 47.2239 16.8126C46.8071 17.2294 46.5987 17.7317 46.5987 18.3194V21.1246C46.5912 20.5534 46.3828 20.0616 45.975 19.6538C45.5672 19.246 45.0559 19.0286 44.4697 19.0286C44.2612 19.0286 44.0903 18.9626 43.9584 18.8307C43.8249 18.6972 43.759 18.5278 43.759 18.3179C43.759 17.7317 43.5506 17.2294 43.1338 16.8126C42.7184 16.3973 42.2162 16.1874 41.6299 16.1874H37.3689C37.1994 16.1874 37.0375 16.1274 36.8861 16.0029C36.7347 15.88 36.6597 15.7046 36.6597 15.4782V12.637C36.6597 12.0507 36.4513 11.5485 36.0345 11.1317C35.6177 10.7148 35.1169 10.5064 34.5292 10.5064C33.9414 10.5064 33.4407 10.7148 33.0238 11.1317C32.607 11.5485 32.4001 12.0507 32.4001 12.637V21.1591C32.4001 20.5729 32.1902 20.0706 31.7749 19.6538C31.3581 19.237 30.8558 19.0286 30.2696 19.0286C30.1182 19.0286 29.9607 18.9671 29.8003 18.8442C29.6399 18.7212 29.5589 18.5458 29.5589 18.3194C29.5589 17.7317 29.3505 17.2294 28.9337 16.8126C28.5184 16.3973 28.0161 16.1889 27.4284 16.1889H20.3291C19.7429 16.1889 19.2406 16.3958 18.8238 16.8126C18.407 17.2294 18.2001 17.7317 18.2001 18.3194C18.2001 18.9071 18.4085 19.4079 18.8238 19.8247C19.2406 20.2415 19.7429 20.4499 20.3291 20.4499H27.4284C27.5813 20.4499 27.7372 20.5114 27.8977 20.6343C28.0581 20.7573 28.1391 20.9327 28.1391 21.1591C28.1391 21.3855 28.0581 21.5624 27.8977 21.6854C27.7372 21.8083 27.5813 21.8698 27.4284 21.8698H20.3291C19.7429 21.8698 19.2406 22.0782 18.8238 22.495C18.413 22.9058 18.2046 23.4021 18.2001 23.9793V21.1591C18.2001 20.5729 17.9902 20.0706 17.5748 19.6538C17.158 19.237 16.6558 19.0286 16.0695 19.0286C15.8611 19.0286 15.6902 18.9626 15.5583 18.8307C15.4263 18.6972 15.3603 18.5278 15.3603 18.3179C15.3603 17.7317 15.1504 17.2294 14.7351 16.8126C14.3183 16.3973 13.816 16.1874 13.2298 16.1874H8.97025C8.79932 16.1874 8.6389 16.1274 8.48747 16.0029C8.33603 15.88 8.25957 15.7046 8.25957 15.4782V12.637C8.25957 12.0507 8.05116 11.5485 7.63435 11.1317C7.21904 10.7148 6.71677 10.5064 6.13053 10.5064C5.5443 10.5064 5.04203 10.7148 4.62522 11.1317C4.20841 11.5485 4 12.0507 4 12.637V29.6827C4 30.269 4.20841 30.7712 4.62522 31.1881C5.04053 31.6049 5.5428 31.8133 6.13053 31.8133H13.2298C13.816 31.8133 14.3183 31.6034 14.7351 31.1881C15.1504 30.7712 15.3603 30.269 15.3603 29.6827C15.3603 29.4548 15.4353 29.2794 15.5867 29.1565C15.7382 29.0335 15.8986 28.9721 16.0695 28.9721C16.6558 28.9721 17.158 28.7637 17.5748 28.3468C17.9917 27.93 18.2001 27.4278 18.2001 26.8415C18.2001 27.4278 18.4085 27.93 18.8253 28.3468C19.2406 28.7637 19.7429 28.9721 20.3291 28.9721C20.5 28.9721 20.6604 29.038 20.8119 29.1715C20.9633 29.3034 21.0398 29.4743 21.0398 29.6827C21.0398 30.269 21.2482 30.7712 21.665 31.1881C22.0803 31.6049 22.5826 31.8133 23.1688 31.8133H30.2696C30.8558 31.8133 31.3581 31.6049 31.7749 31.1881C32.1917 30.7712 32.4001 30.269 32.4001 29.6827C32.4001 30.269 32.6085 30.7712 33.0238 31.1881C33.4407 31.6049 33.9429 31.8133 34.5292 31.8133H41.6299C42.2162 31.8133 42.7184 31.6034 43.1338 31.1881C43.5506 30.7712 43.759 30.269 43.759 29.6827C43.759 29.4548 43.8354 29.2794 43.9869 29.1565C44.1383 29.0335 44.2987 28.9721 44.4697 28.9721C45.0559 28.9721 45.5582 28.7637 45.975 28.3468C46.3843 27.936 46.5927 27.4428 46.5987 26.8655C46.6047 27.4428 46.8131 27.936 47.2239 28.3468C47.6392 28.7637 48.1415 28.9721 48.7292 28.9721C48.9376 28.9721 49.107 29.0425 49.2405 29.185C49.3724 29.3274 49.4384 29.4938 49.4384 29.6827C49.4384 30.269 49.6468 30.7712 50.0636 31.1881C50.4804 31.6049 50.9812 31.8133 51.5689 31.8133H55.8285C56.0369 31.8133 56.2078 31.8792 56.3398 32.0112C56.4717 32.1446 56.5392 32.314 56.5392 32.5225C56.5392 32.7309 56.4717 32.9018 56.3398 33.0337C56.2078 33.1672 56.0369 33.2331 55.8285 33.2331H48.7292C48.1415 33.2331 47.6392 33.4415 47.2239 33.8583C46.8071 34.2737 46.5987 34.7774 46.5987 35.3637C46.5987 35.9499 46.8071 36.4537 47.2239 36.869C47.6392 37.2858 48.1415 37.4942 48.7292 37.4942H55.8285C56.4147 37.4942 56.917 37.2858 57.3338 36.869C57.7506 36.4522 57.959 35.9499 57.959 35.3637C57.959 35.1748 58.025 35.0083 58.1569 34.8674C58.2889 34.725 58.4598 34.653 58.6682 34.653C59.2544 34.653 59.7567 34.4446 60.1735 34.0293C60.5903 33.6125 60.7987 33.1102 60.7987 32.5225V26.8415C60.7987 27.4278 61.0072 27.93 61.424 28.3468C61.8393 28.7637 62.3416 28.9721 62.9293 28.9721C63.0987 28.9721 63.2591 29.0335 63.4121 29.1565C63.562 29.2794 63.6385 29.4548 63.6385 29.6827C63.6385 30.269 63.8469 30.7712 64.2637 31.1881C64.679 31.6049 65.1813 31.8133 65.769 31.8133H67.1889C67.7751 31.8133 68.2774 31.6034 68.6927 31.1881C69.1095 30.7712 69.3179 30.269 69.3179 29.6827C69.3179 29.197 69.1755 28.7697 68.8906 28.4008C69.2954 28.7816 69.7797 28.9721 70.3404 28.9721C70.5488 28.9721 70.7197 29.038 70.8517 29.1715C70.9836 29.3034 71.0511 29.4743 71.0511 29.6827C71.0511 30.269 71.2595 30.7712 71.6763 31.1881C72.0916 31.6049 72.5939 31.8133 73.1801 31.8133H77.4412C78.0274 31.8133 78.5297 31.6034 78.9465 31.1881C79.3618 30.7712 79.5702 30.269 79.5702 29.6827C79.5702 29.5313 79.6317 29.3739 79.7562 29.2135C79.8776 29.053 80.053 28.9721 80.2809 28.9721C80.8671 28.9721 81.3694 28.7637 81.7862 28.3468C82.203 27.93 82.4114 27.4278 82.4114 26.8415V29.6827C82.4114 30.269 82.6184 30.7712 83.0352 31.1881C83.452 31.6049 83.9543 31.8133 84.5405 31.8133C85.1267 31.8133 85.629 31.6034 86.0458 31.1881C86.4626 30.7712 86.671 30.269 86.671 29.6827V21.1591C86.671 20.9702 86.737 20.8038 86.8689 20.6628C87.0024 20.5204 87.1718 20.4499 87.3802 20.4499H90.2199C90.3908 20.4499 90.5513 20.5159 90.7027 20.6478C90.8541 20.7813 90.9306 20.9507 90.9306 21.1591V29.6827C90.9306 30.269 91.139 30.7712 91.5558 31.1881C91.9711 31.6049 92.4734 31.8133 93.0596 31.8133C93.6459 31.8133 94.1496 31.6034 94.5649 31.1881C94.9818 30.7712 95.1902 30.269 95.1902 29.6827V21.1591C95.1902 20.9327 95.1482 20.6958 95.0627 20.4499ZM13.939 26.8415C13.939 27.0874 13.864 27.2673 13.7126 27.3813C13.5612 27.4952 13.4007 27.5507 13.2298 27.5507H8.97025C8.77983 27.5507 8.61491 27.4847 8.47247 27.3528C8.33154 27.2209 8.25957 27.0499 8.25957 26.8415V21.1591C8.25957 20.9897 8.32554 20.8278 8.45898 20.6763C8.59092 20.5249 8.76184 20.4499 8.97025 20.4499H13.2298C13.4382 20.4499 13.6076 20.5204 13.7411 20.6628C13.873 20.8038 13.939 20.9702 13.939 21.1591V26.8415ZM27.9127 27.3528C27.7597 27.4847 27.5993 27.5507 27.4284 27.5507H23.1688C22.9994 27.5507 22.8375 27.4847 22.686 27.3528C22.5346 27.2209 22.4596 27.0499 22.4596 26.8415C22.4596 26.6706 22.5256 26.5102 22.6575 26.3587C22.791 26.2073 22.9604 26.1309 23.1688 26.1309H27.4284C27.6368 26.1309 27.8077 26.2073 27.9396 26.3587C28.0731 26.5102 28.1391 26.6706 28.1391 26.8415C28.1391 27.0499 28.0626 27.2209 27.9127 27.3528ZM42.3391 26.8415C42.3391 27.0874 42.2627 27.2673 42.1127 27.3813C41.9598 27.4952 41.7994 27.5507 41.6299 27.5507H37.3704C37.18 27.5507 37.015 27.4847 36.8726 27.3528C36.7302 27.2209 36.6597 27.0499 36.6597 26.8415V21.1591C36.6597 20.9897 36.7257 20.8278 36.8576 20.6763C36.991 20.5249 37.1605 20.4499 37.3689 20.4499H41.6299C41.8368 20.4499 42.0078 20.5204 42.1412 20.6628C42.2731 20.8038 42.3391 20.9702 42.3391 21.1591V26.8415ZM78.1504 26.8415C78.1504 27.0874 78.0739 27.2673 77.924 27.3813C77.7711 27.4952 77.6106 27.5507 77.4412 27.5507H73.1816C72.9912 27.5507 72.8263 27.4847 72.6839 27.3528C72.5414 27.2209 72.471 27.0499 72.471 26.8415V21.1591C72.471 20.9897 72.5369 20.8293 72.6704 20.6763C72.8023 20.5249 72.9717 20.4499 73.1801 20.4499H77.4412C77.6481 20.4499 77.819 20.5204 77.9525 20.6628C78.0844 20.8038 78.1504 20.9702 78.1504 21.1591V26.8415ZM99.5292 13.1767C99.4587 12.9848 99.5052 12.7704 99.6506 12.625L101.616 10.6594C101.76 10.5154 101.976 10.4675 102.168 10.5379L106.36 12.0777C106.464 12.1152 106.531 12.2142 106.531 12.3236V13.2412C106.531 13.3102 106.504 13.3776 106.455 13.4256L105.435 14.4451C105.363 14.5171 105.255 14.5411 105.159 14.5051L102.796 13.634C102.691 13.595 102.589 13.697 102.628 13.8019L103.499 16.1649C103.535 16.2608 103.511 16.3688 103.439 16.4407L102.532 17.3478C102.43 17.4498 102.43 17.6162 102.532 17.7182L103.444 18.6298C103.516 18.7017 103.54 18.8097 103.504 18.9056L102.633 21.2686C102.594 21.3735 102.696 21.4755 102.801 21.4365L105.164 20.5654C105.26 20.5294 105.368 20.5534 105.44 20.6253L106.455 21.6404C106.504 21.6899 106.531 21.7558 106.531 21.8248V22.7424C106.531 22.8518 106.464 22.9493 106.36 22.9883L102.174 24.5326C101.982 24.603 101.768 24.5566 101.622 24.4111L99.6566 22.4455C99.5127 22.3016 99.4647 22.0857 99.5352 21.8938L101.075 17.7212C101.118 17.6042 101.118 17.4753 101.075 17.3583L99.5307 13.1722V13.1767H99.5292ZM113.968 21.8968C114.038 22.0887 113.992 22.3031 113.846 22.4485L111.881 24.4141C111.737 24.5581 111.521 24.606 111.329 24.5356L107.137 22.9958C107.033 22.9583 106.966 22.8593 106.966 22.7499V21.8323C106.966 21.7633 106.993 21.6959 107.042 21.6479L108.062 20.6283C108.134 20.5564 108.242 20.5324 108.338 20.5684L110.701 21.4395C110.806 21.4785 110.908 21.3765 110.869 21.2716L109.997 18.9086C109.961 18.8127 109.985 18.7047 110.057 18.6328L110.965 17.7257C111.066 17.6237 111.066 17.4573 110.965 17.3553L110.053 16.4437C109.981 16.3718 109.957 16.2638 109.993 16.1679L110.864 13.8049C110.903 13.7 110.801 13.598 110.696 13.637L108.333 14.5081C108.237 14.5441 108.129 14.5201 108.057 14.4481L107.042 13.4331C106.993 13.3836 106.966 13.3177 106.966 13.2487V12.3311C106.966 12.2217 107.035 12.1242 107.137 12.0852L111.323 10.5409C111.515 10.4705 111.729 10.5169 111.875 10.6624L113.84 12.628C113.984 12.7719 114.032 12.9878 113.962 13.1797L112.422 17.3523C112.378 17.4693 112.378 17.5982 112.422 17.7152L113.966 21.9013V21.8968H113.968Z" fill="white"/>
</svg>
