<svg width="118" height="48" viewBox="0 0 118 48" fill="none" xmlns="http://www.w3.org/2000/svg">
<path d="M26.7925 33.3037C26.7925 34.0604 26.1766 34.6752 25.4199 34.6752H21.3656V36.1629H25.4199C26.9968 36.1629 28.2801 34.8805 28.2801 33.3037V29.2623H26.7925V33.3037Z" fill="white"/>
<path d="M25.4199 11.8371H21.3656V13.3248H25.4199C26.1766 13.3248 26.7925 13.9396 26.7925 14.6964V18.8102H28.2801V14.6964C28.2801 13.1195 26.9968 11.8371 25.4199 11.8371Z" fill="white"/>
<path d="M5.48763 33.3037V29.2623H4V33.3037C4 34.8805 5.28333 36.1629 6.86022 36.1629H10.9145V34.6752H6.86022C6.10351 34.6752 5.48763 34.0604 5.48763 33.3037Z" fill="white"/>
<path d="M5.48763 14.6964C5.48763 13.9396 6.10351 13.3248 6.86022 13.3248H10.9145V11.8371H6.86022C5.28333 11.8371 4 13.1195 4 14.6964V18.8102H5.48763V14.6964Z" fill="white"/>
<path d="M41.7392 30.4167H37.0641V26.6896H35.3871V33.8947H37.0641V31.8547H41.7392V35.7454H43.4163V28.5403H41.7392V30.4167Z" fill="white"/>
<path d="M86.0538 28.1307H90.9848V26.6896H84.3768V35.7454H91.1475V34.3043H86.0538V28.1307Z" fill="white"/>
<path d="M102.196 32.1572C102.776 31.578 103.134 30.7767 103.134 29.892C103.134 28.1237 101.7 26.6896 99.9305 26.6896H95.5905V35.7454H97.2666V28.1485H99.6924C100.675 28.1485 101.472 28.9449 101.472 29.9277C101.472 30.4196 101.272 30.8639 100.951 31.1863C100.629 31.5076 100.183 31.7069 99.6924 31.7069H99.0736V33.0954H99.6399L101.472 35.7454H103.292L101.258 32.8078C101.609 32.6471 101.926 32.426 102.196 32.1572Z" fill="white"/>
<path d="M72.9309 28.1307H75.9161V33.9771H77.5922V28.1307H80.5774V26.6896H72.9309V28.1307Z" fill="white"/>
<path d="M90.4423 30.4534H87.8915V31.8408H90.4423V30.4534Z" fill="white"/>
<path d="M54.5309 32.2603C54.5309 33.4256 53.5857 34.3698 52.4204 34.3698H52.0902C50.9249 34.3698 49.9797 33.4256 49.9797 32.2603V28.5403H48.3027V32.2217C48.3027 34.229 49.9301 35.8564 51.9384 35.8564H52.5732C54.5805 35.8564 56.2079 34.229 56.2079 32.2217V26.6896H54.5309V32.2603Z" fill="white"/>
<path d="M67.4366 32.7879L62.5006 26.6896H61.0844V33.8947H62.7615V29.6044L67.7163 35.7225H69.1137V28.5403H67.4366V32.7879Z" fill="white"/>
<path d="M54.1153 21.2747V19.8604H49.4303V12.2775H47.7532V21.2747H54.1153Z" fill="white"/>
<path d="M61.258 13.7373V12.1991C59.2229 12.5214 57.6142 14.0507 57.2681 15.9906H58.9878C59.2735 14.8897 60.1472 14.0229 61.258 13.7373Z" fill="white"/>
<path d="M65.1268 15.9906H66.8485C66.5004 14.0428 64.8808 12.5095 62.8339 12.1962V13.7314C63.9555 14.0111 64.8392 14.8828 65.1268 15.9906Z" fill="white"/>
<path d="M61.258 19.8188C60.1472 19.5331 59.2744 18.6673 58.9878 17.5665H57.2681C57.6152 19.5064 59.2229 21.0357 61.258 21.358V19.8188Z" fill="white"/>
<path d="M66.8485 17.5665H65.1268C64.8382 18.6743 63.9545 19.545 62.8339 19.8247V21.3609C64.8808 21.0476 66.4994 19.5133 66.8485 17.5665Z" fill="white"/>
<path d="M79.0193 19.911L77.9095 18.8578C77.3184 19.5093 76.4536 19.9199 75.4906 19.9199C73.7075 19.9199 72.2625 18.5136 72.2625 16.7781C72.2625 15.0425 73.7075 13.6362 75.4906 13.6362C76.4477 13.6362 77.3085 14.0428 77.8996 14.6874L79.0114 13.6362C78.1227 12.7138 76.8493 12.1366 75.4341 12.1366C72.7494 12.1366 70.5735 14.2144 70.5735 16.7781C70.5735 19.3417 72.7494 21.4205 75.4341 21.4205C76.8533 21.4205 78.1317 20.8383 79.0193 19.911Z" fill="white"/>
<path d="M84.8419 16.8604V14.0914H83.1648V21.2757H84.8419V18.9153L86.2264 17.4782L87.9669 19.547H90.0169L87.3719 16.2911L91.2576 12.2586H89.277L84.8419 16.8604Z" fill="white"/>
<path d="M37.0641 17.3672H40.3052C41.0172 17.3672 41.6877 17.9444 41.6877 18.6564C41.6877 19.0125 41.5201 19.3348 41.2632 19.5679C41.0073 19.8019 40.6612 19.9457 40.3052 19.9457H39.1468V21.2905H39.6337L40.5898 21.2479C40.9448 21.2419 41.5062 21.1785 42.0933 20.8641C42.4027 20.6975 42.8718 20.4456 43.1693 19.8922C43.446 19.3755 43.4222 18.8796 43.4084 18.6564C43.3955 18.4591 43.3617 17.9979 43.0583 17.5248C42.6645 16.9119 42.0735 16.6759 41.8335 16.5985C41.9445 16.5351 42.0397 16.4696 42.127 16.3982C42.2391 16.306 42.5088 16.066 42.7082 15.6633C42.9462 15.1793 42.9422 14.745 42.9383 14.5615C42.9333 14.3383 42.9224 13.9813 42.7161 13.5906C42.5029 13.1859 42.1984 12.9697 42.008 12.8368C41.6173 12.5661 41.2563 12.4768 40.9062 12.3925C40.5997 12.3201 40.1385 12.2437 39.5653 12.2775H35.3871V19.8922H37.0641V17.3672ZM37.0641 13.5906H39.8926C40.5739 13.5906 41.2265 14.143 41.2265 14.8243C41.2265 15.1645 41.0629 15.4739 40.8149 15.697C40.567 15.9202 40.2338 16.058 39.8926 16.058H37.0641V13.5906Z" fill="white"/>
<path d="M113.911 32.4478C113.796 32.0858 113.604 31.8537 113.503 31.7347C113.424 31.6415 113.183 31.3727 112.663 31.099C112.559 31.0444 112.263 30.8947 111.282 30.6398C110.915 30.5446 110.539 30.4573 109.897 30.2808C109.453 30.1588 109.221 30.0874 109.002 29.8722C108.907 29.779 108.674 29.5429 108.657 29.1859C108.645 28.934 108.747 28.7456 108.789 28.6722C108.996 28.3032 109.371 28.1684 109.588 28.09C109.97 27.9532 110.284 27.9621 110.646 27.977C110.953 27.9898 111.399 28.0374 111.925 28.2021V26.7006C111.356 26.5895 110.873 26.5667 110.518 26.5697C110.103 26.5736 109.665 26.5816 109.12 26.7412C108.819 26.8295 108.447 26.9426 108.048 27.2391C107.865 27.375 107.488 27.6616 107.233 28.1912C107.17 28.3211 107.004 28.697 106.993 29.2117C106.988 29.4239 106.984 30.014 107.353 30.5674C107.662 31.0316 108.074 31.2289 108.502 31.4342C109.03 31.6871 109.505 31.7883 110.424 31.9836C110.999 32.1056 111.302 32.1433 111.694 32.3873C111.915 32.5251 112.271 32.7532 112.337 33.1509C112.381 33.4138 112.278 33.63 112.243 33.7004C112.064 34.0634 111.708 34.2042 111.463 34.3014C111.063 34.4601 110.729 34.4581 110.313 34.4561C110.125 34.4561 109.737 34.4412 109.258 34.3272C108.995 34.2647 108.777 34.1883 108.612 34.1238V35.6363C109.259 35.7989 109.81 35.8435 110.211 35.8495C110.399 35.8525 110.703 35.8564 111.097 35.8039C111.534 35.7464 112.031 35.6809 112.572 35.3864C112.853 35.2336 113.385 34.945 113.717 34.3192C113.979 33.8273 113.995 33.3582 113.998 33.1569C114.002 32.9843 114.005 32.7433 113.912 32.4488L113.911 32.4478Z" fill="white"/>
<path d="M22.8007 24.1874L21.9081 24.726V27.7776L16.5943 30.8282V24.7329L22.8007 21.1705V20.6538L16.148 16.8356L9.49533 20.6538V28.2953L13.0706 30.3472V29.3178L10.3879 27.7776V21.6833L15.7017 24.7329V31.8567L16.148 32.1126L22.8007 28.2953V24.1874ZM16.148 23.9603L10.8382 20.9117L16.148 17.865L21.4579 20.9127L16.148 23.9603Z" fill="white"/>
</svg>
