<svg width="118" height="48" viewBox="0 0 118 48" fill="none" xmlns="http://www.w3.org/2000/svg">
<path d="M15.5205 17.3668L16.2357 18.2491L15.6548 18.6764C15.5323 18.7674 15.4612 18.9099 15.4612 19.0642V19.7566C15.4612 20.0296 15.6864 20.2472 15.963 20.2353C16.2199 20.2235 16.4175 20.0019 16.4175 19.7447V19.3055L17.8637 18.2412C17.8914 18.2214 17.9309 18.2214 17.9586 18.2412L19.4048 19.3055V19.7605C19.4048 20.0336 19.6301 20.2512 19.9067 20.2393C20.1635 20.2274 20.3611 20.0059 20.3611 19.7487V19.0642C20.3611 18.9099 20.29 18.7674 20.1675 18.6764L19.5866 18.2491L20.3018 17.3668C20.4678 17.161 20.4362 16.8603 20.2346 16.6941C20.0292 16.528 19.7289 16.5596 19.5629 16.7614L18.816 17.6793L18.1957 17.2243C18.0257 17.1017 17.7965 17.1017 17.6306 17.2243L17.0102 17.6793L16.2634 16.7614C16.0974 16.5556 15.7971 16.528 15.5916 16.6941C15.3861 16.8603 15.3545 17.161 15.5244 17.3668H15.5205Z" fill="white"/>
<path d="M23.945 19.2383C23.3167 19.2383 22.7003 19.4084 22.1589 19.725L17.9821 22.1425C17.9347 22.1702 17.8715 22.1702 17.8241 22.1425L13.6552 19.725L13.6315 19.7092C13.098 19.4005 12.4895 19.2344 11.8731 19.2344C9.93285 19.2344 8.35619 20.817 8.35619 22.7637C8.35619 24.7104 9.93285 26.293 11.8731 26.293C12.3196 26.293 12.7582 26.2099 13.1692 26.0438C13.4142 25.9448 13.5327 25.6679 13.4339 25.4226C13.3351 25.1773 13.0585 25.0586 12.8135 25.1535C12.5132 25.2722 12.1971 25.3355 11.8691 25.3355C10.4545 25.3355 9.30455 24.1802 9.30455 22.7637C9.30455 21.3472 10.4545 20.1879 11.8691 20.1879C12.3196 20.1879 12.7622 20.3066 13.1494 20.5321L16.9429 22.732L14.3388 24.2474C14.1926 24.3345 14.1017 24.4927 14.1017 24.6629V29.304C14.1017 29.4742 14.1926 29.6324 14.3388 29.7195L17.6621 31.6464C17.7371 31.6899 17.8162 31.7097 17.8992 31.7097C17.9821 31.7097 18.0651 31.6899 18.1362 31.6464L21.4437 29.7314C21.5899 29.6443 21.6808 29.4861 21.6808 29.3159V24.6629C21.6808 24.4927 21.5899 24.3345 21.4437 24.2474L18.8436 22.732L22.6252 20.544H22.6291C23.0203 20.3106 23.4708 20.184 23.9292 20.184C25.3439 20.184 26.4937 21.3393 26.4937 22.7597C26.4937 24.1802 25.3439 25.3316 23.9292 25.3316C23.5973 25.3316 23.2732 25.2683 22.969 25.1456C22.724 25.0467 22.4474 25.1654 22.3486 25.4107C22.2498 25.656 22.3683 25.9369 22.6133 26.0358C23.0322 26.206 23.4748 26.293 23.9292 26.293C25.8694 26.293 27.4461 24.7104 27.4461 22.7637C27.4461 20.817 25.8694 19.2344 23.9292 19.2344L23.945 19.2383ZM19.9619 29.4979L19.0174 30.0439C18.97 30.0716 18.9068 30.0716 18.8594 30.0439L18.1441 29.6285C17.9979 29.5414 17.8122 29.5414 17.666 29.6285L16.9547 30.04C16.9073 30.0677 16.8441 30.0677 16.7967 30.04L15.8523 29.494C15.8009 29.4623 15.8009 29.3871 15.8523 29.3555L17.828 28.2081C17.8754 28.1804 17.9387 28.1804 17.9861 28.2081L19.9619 29.3594C20.0132 29.3911 20.0132 29.4663 19.9619 29.4979ZM20.7443 28.5681C20.7443 28.6314 20.6771 28.667 20.6257 28.6393L18.1481 27.1951C18.0019 27.1081 17.8201 27.1081 17.67 27.1951L15.1844 28.6393C15.1331 28.671 15.0659 28.6314 15.0659 28.5681V27.4721C15.0659 27.4167 15.0975 27.3613 15.1449 27.3336L17.828 25.7747C17.8754 25.747 17.9387 25.747 17.9861 25.7747L20.6613 27.3336C20.7087 27.3613 20.7403 27.4167 20.7403 27.4721V28.5681H20.7443ZM20.6613 24.9003C20.7087 24.928 20.7403 24.9834 20.7403 25.0388V26.1348C20.7403 26.1941 20.6731 26.2337 20.6218 26.206L18.1441 24.7618C17.9979 24.6748 17.8162 24.6748 17.666 24.7618L15.1805 26.206C15.1291 26.2376 15.0619 26.1981 15.0619 26.1348V25.0388C15.0619 24.9834 15.0936 24.928 15.141 24.9003L17.8241 23.3414C17.8715 23.3137 17.9347 23.3137 17.9821 23.3414L20.6573 24.9003H20.6613Z" fill="white"/>
<path d="M31.7295 22.4273C31.682 22.2097 31.7532 21.9762 31.6544 21.7547C31.5991 21.628 31.6899 21.4698 31.607 21.3313C31.5279 21.2007 31.6346 21.0187 31.5042 20.8961C31.4766 20.4767 31.3422 20.0849 31.2118 19.6893C31.0577 19.2263 30.9312 18.7516 30.7218 18.3084C30.4294 17.6753 30.1172 17.0541 29.7418 16.4646C29.2439 15.6891 28.6749 14.965 28.0466 14.2924C27.8253 14.055 27.5843 13.8413 27.3314 13.6316C27.0587 13.4061 26.7821 13.1806 26.5055 12.955C25.98 12.5356 25.3991 12.2033 24.8222 11.863C24.9368 11.8076 25.0355 11.7364 25.1027 11.6296C25.0158 11.6019 25.0672 11.4911 25 11.4515H24.9249C24.8498 11.503 24.921 11.594 24.8696 11.6573C24.5811 11.7245 24.3322 11.6098 24.0793 11.495C24.1069 11.4634 24.1267 11.4357 24.1465 11.4159C24.1109 11.3763 24.0793 11.3407 24.0437 11.3051C23.9765 11.3368 24.0358 11.4317 23.937 11.4594C23.8224 11.4001 23.692 11.3368 23.5656 11.2695C23.5932 11.2299 23.6486 11.2062 23.6327 11.131C23.6209 11.1152 23.6011 11.0836 23.5735 11.0638C23.1744 10.771 22.716 10.5929 22.2813 10.3674C22.0521 10.2487 21.7716 10.1814 21.5345 10.4267C21.4041 10.1854 21.1117 10.1656 20.9418 9.97173C20.6217 10.0073 20.2976 9.9836 19.9894 9.89656C19.8235 9.84908 19.6575 9.87282 19.5073 9.82534C19.2623 9.74225 19.0332 9.72642 18.7921 9.82929C18.7249 9.85699 18.6499 9.82929 18.6064 9.76599C18.4444 9.8926 18.2033 9.77786 18.0571 9.94799C18.2508 9.99547 18.4483 10.039 18.6459 10.1023C18.8395 10.1617 19.0253 10.2408 19.2703 10.3318C19.1122 10.3476 19.0213 10.3753 18.9344 10.316C18.8119 10.2329 18.6459 10.2447 18.5511 10.2922C18.393 10.3753 18.2468 10.3437 18.0966 10.3516C17.8754 10.3595 17.6541 10.3595 17.4367 10.3516C17.2115 10.3437 16.9981 10.4742 16.7689 10.4267C16.7452 10.4228 16.7057 10.4149 16.6978 10.4267C16.5634 10.589 16.3777 10.4544 16.2197 10.5217C16.0656 10.589 15.8917 10.6246 15.7218 10.6444C15.3503 10.6839 15.0144 10.8343 14.6588 10.9174C14.4257 10.9728 14.2123 11.0875 13.987 11.1587C13.6393 11.2695 13.3113 11.4238 12.9834 11.5742C12.683 11.7127 12.3946 11.8749 12.1101 12.0411C11.4936 12.3972 10.9127 12.7889 10.3556 13.232C10.1738 13.3745 10.0355 13.5881 9.79841 13.6554C9.6443 13.6989 9.53761 13.8136 9.47834 13.9244C9.41116 14.0471 9.31632 14.1302 9.23334 14.2251C9.12665 14.3438 8.98835 14.4388 8.90141 14.5694C8.68803 14.8899 8.39562 15.1352 8.18618 15.4557C8.14667 15.42 8.11901 15.3963 8.09135 15.3686C7.73966 15.8513 7.38797 16.334 7.03629 16.8128C7.05999 16.8405 7.0837 16.8682 7.09951 16.888C6.83871 17.5131 6.58186 18.1343 6.32501 18.7595C6.28549 18.7634 6.22622 18.7713 6.1709 18.7792C6.08792 19.0325 5.94171 19.2501 5.84687 19.4954C5.72833 19.808 5.673 20.1364 5.57817 20.4529C5.53075 20.5993 5.43986 20.7615 5.49123 20.9317C5.49519 20.9475 5.51889 20.9594 5.53865 20.9752C5.55446 20.9317 5.57026 20.8881 5.58607 20.8446C5.63349 20.8209 5.67696 20.8248 5.70462 20.8644C5.62559 21.2126 5.53865 21.5529 5.56236 21.8852C5.38849 22.1622 5.20672 22.4075 5.29761 22.7953C5.36083 22.633 5.34898 22.4787 5.47543 22.3996C5.54656 22.6489 5.34898 22.8625 5.41615 23.092C5.34898 23.1157 5.30551 23.1316 5.266 23.1434C5.2739 23.2344 5.24229 23.3254 5.29761 23.4085C5.38849 23.3531 5.27785 23.2344 5.42011 23.2028C5.38059 23.3334 5.45962 23.46 5.35688 23.5866C5.30946 23.6459 5.32922 23.7488 5.35293 23.8319C5.42801 24.0772 5.46752 24.3304 5.48728 24.5876C5.48728 24.6232 5.48728 24.6549 5.43986 24.6588C5.36874 24.647 5.46752 24.5243 5.34108 24.5362C5.31341 24.9042 5.43986 25.2523 5.51494 25.6005C5.59002 25.9566 5.6651 26.3167 5.77574 26.6688C5.88244 27.0012 5.95356 27.3415 6.04445 27.6857C5.99308 27.7252 5.90219 27.654 5.85478 27.7332C6.09582 28.1288 6.1709 28.4374 6.10767 28.6986C5.91405 28.6986 6.02864 28.5324 5.97727 28.4414C5.75599 28.0418 5.55051 27.6342 5.30551 27.2425C5.1435 26.9814 5.0131 26.6807 5.19092 26.3562C4.91431 25.8577 4.64956 25.3513 4.77601 24.7498C4.85504 24.7736 4.79576 24.8685 4.8985 24.9042C4.8985 24.7775 4.93802 24.6391 4.8906 24.5401C4.79181 24.3304 4.82738 24.1168 4.82738 23.9031C4.82738 23.5431 4.81947 23.187 4.8827 22.8229C4.94592 22.4669 4.89455 22.087 4.89455 21.719C4.81947 21.719 4.80367 21.6439 4.74834 21.6162C4.74834 21.4975 4.73649 21.3709 4.7523 21.2522C4.7681 21.1374 4.81947 21.0266 4.85504 20.9079C4.93802 20.9712 4.85108 21.0662 4.92221 21.1216C5.04866 21.0583 5.08027 20.9317 5.11189 20.8169C5.18697 20.536 5.27785 20.2551 5.26204 19.9623C5.24624 19.7091 5.37269 19.4756 5.34898 19.2184C5.34108 19.1433 5.38059 19.0048 5.43986 18.9336C5.59793 18.7555 5.66115 18.5142 5.81921 18.3401C5.88639 18.3598 5.81921 18.439 5.89824 18.4706C6.02864 18.1145 6.18275 17.7663 6.28154 17.4063C6.38033 17.0383 6.60557 16.7534 6.80315 16.4448C6.83871 16.3894 6.92564 16.433 6.9533 16.3617C6.9375 16.0887 7.04024 15.8434 7.13507 15.5467C7.1983 15.6337 7.23781 15.6931 7.31684 15.8038V15.4042C7.59345 15.1708 7.77127 14.8661 8.1111 14.7632C8.19409 14.5971 8.42328 14.5931 8.4944 14.4151C8.45094 14.4071 8.39562 14.4388 8.36005 14.3913C8.36005 14.3676 8.34029 14.3399 8.35215 14.3241C8.49836 14.0669 8.6169 13.7939 8.79867 13.5565C8.88561 13.4457 8.98439 13.327 8.90536 13.141C8.75521 13.3468 8.62876 13.5367 8.53787 13.7464C8.4944 13.7306 8.48255 13.6633 8.37586 13.687C8.28892 13.7583 8.20199 13.9284 8.00836 13.9165C7.97675 13.9165 7.92538 13.9759 7.90958 14.0154C7.83845 14.1777 7.712 14.3043 7.60926 14.4348C7.46305 14.6208 7.39588 14.874 7.17854 15.0244C7.19435 15.155 7.10346 15.2024 6.99282 15.2341C7.06395 15.1629 7.13112 15.0956 7.17854 15.0244C7.16669 14.9334 7.1983 14.8582 7.14298 14.783C6.78339 15.1075 6.6925 15.6377 6.28944 15.9186C6.32106 15.9542 6.34477 15.9779 6.38033 16.0175C6.21832 16.3696 5.94566 16.6585 5.72042 16.9711L5.79155 17.0423C5.61768 17.4419 5.49914 17.8692 5.35688 18.2886C5.23834 18.6329 5.08423 18.985 5.11979 19.3688C5.11979 19.3886 5.10003 19.4084 5.08423 19.4361C5.05261 19.3965 5.021 19.3609 4.97358 19.3094C4.94197 19.2224 5.01705 19.0958 4.91036 18.9573C4.91036 19.3253 4.6298 19.531 4.53101 19.8238C4.56657 19.9029 4.66536 19.9306 4.68117 20.0335C4.59819 20.1126 4.59028 20.2195 4.60609 20.3263C4.64165 20.5716 4.54682 20.7971 4.51125 21.0266C4.46779 21.2878 4.38085 21.5449 4.3848 21.818C4.3848 21.8773 4.39271 21.9446 4.369 21.996C4.2544 22.2215 4.32553 22.4471 4.3848 22.6766V22.3363C4.44803 22.3086 4.45593 22.2453 4.5152 22.2532C4.61004 22.6291 4.43617 22.9812 4.45198 23.3452H4.35319C4.26626 23.2147 4.23464 23.0722 4.2386 22.914C4.2465 22.4352 4.2386 21.9564 4.2386 21.4777C4.2386 21.4302 4.25045 21.3788 4.19118 21.355C4.15561 21.355 4.12005 21.3511 4.09634 21.3867C4.07658 21.5489 4.12795 21.719 4.02521 21.8734C3.98965 21.9248 3.9936 22.0356 4.02521 22.087C4.13586 22.269 4.07263 22.4629 4.09634 22.6489C4.12005 22.8467 4.1319 23.0564 4.19118 23.2384C4.26626 23.4718 4.21884 23.6895 4.22674 23.911C4.22674 23.9189 4.19513 23.9269 4.17142 23.9348C4.16352 23.8477 4.19118 23.7686 4.07658 23.6855C4.1161 23.7884 4.05683 23.8636 4.15957 23.9585C4.14376 24.0614 4.24255 24.1286 4.2465 24.2355C4.2544 24.3621 4.14771 24.4531 4.16747 24.5718C4.18327 24.6865 4.27811 24.7855 4.2386 24.9081C4.23464 24.9279 4.21489 24.9477 4.20303 24.9675C4.15166 24.92 4.10029 24.8725 4.03312 24.8092V25.3948C4.08053 25.4383 4.124 25.4818 4.16747 25.5214C4.13981 25.834 4.2544 26.1228 4.32158 26.4116C4.38875 26.6886 4.42827 26.9695 4.52311 27.2425C4.6219 27.5195 4.64165 27.8281 4.69697 28.1249C4.72464 28.1961 4.83528 28.2 4.82738 28.3069C4.81157 28.3346 4.78786 28.3702 4.76415 28.4018C4.78391 28.4651 4.85504 28.4097 4.88665 28.4572C4.91431 28.4968 4.87875 28.5838 4.96568 28.5838C4.97358 28.6748 4.94592 28.754 5.06052 28.8371C5.021 28.7302 5.08423 28.659 4.97358 28.5601V28.3148C5.021 28.2792 5.03681 28.3069 5.04471 28.3464C5.11979 28.6709 5.18697 28.9993 5.266 29.3237C5.33712 29.6126 5.42011 29.8974 5.50309 30.1823C5.51494 30.2259 5.55051 30.2654 5.57422 30.3089C5.673 30.1902 5.59397 30.0795 5.66115 29.9924H5.81921C5.918 30.0636 5.92985 30.1705 5.98122 30.2456C5.87058 30.3881 5.96147 30.5582 5.9101 30.7006C5.86663 30.7165 5.82316 30.7323 5.75994 30.756C6.02469 30.9262 5.95356 31.2783 6.18275 31.4603C6.26969 31.4128 6.15904 31.2902 6.26574 31.2467C6.36057 31.3693 6.4317 31.5039 6.54234 31.6146C6.60162 31.674 6.63718 31.7729 6.65299 31.86C6.73992 32.2952 6.90984 32.675 7.24572 32.9797C7.49071 33.2013 7.69619 33.4584 7.95699 33.6602C7.94119 33.6721 7.92538 33.6919 7.90958 33.7077C8.0953 33.9807 8.39957 34.1271 8.62085 34.3606C8.94093 34.7008 9.30447 34.9897 9.67196 35.2785C9.88535 35.4447 10.1224 35.5673 10.3319 35.7256C10.4583 35.8206 10.5571 35.8285 10.6915 35.8008C10.6717 35.7177 10.565 35.6979 10.5611 35.595C10.6124 35.6029 10.6519 35.595 10.6757 35.6148C11.0194 35.8206 11.3316 36.0659 11.624 36.3428C11.6517 36.3666 11.6596 36.3784 11.624 36.3943C11.541 36.4418 11.4304 36.3626 11.3514 36.4457C11.6872 36.6198 12.0192 36.7939 12.3472 36.9838C12.7265 37.2054 13.1414 37.3676 13.5484 37.5377C13.8329 37.6525 14.1372 37.7118 14.4178 37.8345C14.6311 37.9295 14.8761 37.8899 15.0698 38.0323C15.0777 38.0363 15.0935 38.0323 15.1053 38.0323C15.2278 38.0323 15.3503 38.0323 15.4728 38.0323C15.4926 38.0323 15.5123 38.0125 15.536 38.0007C15.5123 37.973 15.4886 37.9492 15.4689 37.9215C15.5044 37.8701 15.5993 37.8305 15.5123 37.7435C15.3306 37.7356 15.1369 37.7672 14.9749 37.7079C14.7536 37.6288 14.5166 37.5813 14.3111 37.4428C14.1609 37.3439 13.9633 37.3399 13.8132 37.2252C13.7697 37.1935 13.6709 37.1856 13.6195 37.2647C13.584 37.3162 13.5287 37.2806 13.4496 37.3004C13.3943 37.2133 13.3034 37.1421 13.2204 37.1223C13.1375 36.9957 13.1138 36.8612 13.0308 36.7939C12.6277 36.7425 12.3116 36.5011 11.9441 36.4615C11.9243 36.3468 12.0034 36.3151 12.0468 36.2598C12.1654 36.2439 12.2721 36.2677 12.3827 36.327C12.5013 36.3864 12.6317 36.4378 12.7542 36.4932C13.0584 36.6198 13.3904 36.6633 13.6749 36.8414C13.7974 36.9205 13.9001 37.0471 14.0582 37.0709C14.0779 37.0709 14.1016 37.059 14.1253 37.055C14.1767 36.9996 14.1016 36.9086 14.1846 36.8493C14.4533 36.9522 14.7457 36.9957 15.0144 37.1342C15.1448 37.2014 15.3148 37.2331 15.461 37.2924C15.6111 37.3478 15.7692 37.3755 15.9193 37.423C16.0853 37.4744 16.2592 37.4388 16.437 37.5021C16.5793 37.5536 16.761 37.5892 16.9151 37.5813C17.3617 37.5575 17.7963 37.7079 18.2429 37.6683C18.3693 37.6565 18.5037 37.6446 18.6182 37.7356C18.642 37.7554 18.7328 37.7751 18.7605 37.696C18.7407 37.6683 18.721 37.6446 18.6815 37.5931C18.8395 37.5931 18.9936 37.5496 19.1003 37.6011C19.3374 37.7158 19.5903 37.696 19.8077 37.6485C20.1712 37.5615 20.515 37.3834 20.8904 37.3201C20.681 37.2964 20.4557 37.241 20.2779 37.3122C20.0092 37.4151 19.7642 37.336 19.5073 37.3676C19.5073 37.3122 19.5073 37.2885 19.5034 37.2647C19.6338 37.1737 19.7721 37.1421 19.9302 37.146C20.2502 37.154 20.5664 37.154 20.8864 37.146C21.088 37.146 21.1986 37.055 21.2618 36.8532C20.8627 36.8493 20.4913 37.0867 20.0922 36.9759V36.8532H19.5192C19.5192 36.8532 19.5192 36.8256 19.5152 36.8097C19.6615 36.7741 19.8037 36.7266 19.9539 36.7108C20.1238 36.695 20.2937 36.7069 20.4636 36.7069C20.4715 36.6871 20.4794 36.6475 20.4913 36.6475C20.7916 36.6356 21.084 36.5525 21.3764 36.4972C21.57 36.4576 21.7597 36.4259 21.9454 36.3626C22.1272 36.2954 22.3287 36.3033 22.4987 36.1925C22.637 36.2518 22.7476 36.0184 22.8899 36.1569V36.2677C22.9926 36.2954 23.0479 36.2281 23.1032 36.1648C23.2218 36.0303 23.3482 35.8878 23.5142 35.8324C23.8185 35.7335 24.099 35.5832 24.3717 35.4486C24.4863 35.508 24.3835 35.6267 24.4744 35.6821C24.6641 35.6821 24.7985 35.5792 24.9249 35.4447C24.9486 35.4209 24.9526 35.4091 24.913 35.3893C24.8617 35.3576 24.7747 35.4289 24.7194 35.3181C25.0632 35.144 25.407 34.9659 25.7547 34.7958C25.7942 34.776 25.8535 34.7958 25.9009 34.7958C25.9009 34.7523 25.9049 34.7087 25.9088 34.6731C25.9642 34.6336 26.0037 34.6415 26.0432 34.6731C26.0076 34.7325 25.9721 34.7879 25.9009 34.7997C25.8377 34.9699 25.6796 35.0332 25.5295 35.0886C25.4663 35.1123 25.4623 35.144 25.4623 35.2112C25.6243 35.2904 25.7429 35.1875 25.8535 35.1005C26.1578 34.8551 26.3396 34.499 26.6359 34.2458C26.6636 34.0717 26.8533 34.0203 26.9125 33.8818C26.9797 33.7275 27.1536 33.7117 27.2286 33.5771C27.2721 33.498 27.3709 33.5771 27.4302 33.5217C27.4499 33.4743 27.4539 33.4189 27.5013 33.3714C27.77 33.0944 28.0427 32.8254 28.2916 32.5247C28.5406 32.224 28.7935 31.9233 29.0424 31.6186C29.4336 31.1398 29.7813 30.6255 30.0777 30.0913C30.4096 29.4978 30.706 28.8806 30.9312 28.2357C31.0103 28.0101 31.0854 27.7846 31.1644 27.5591C31.3343 27.0724 31.4449 26.5659 31.5516 26.0595C31.6188 25.7509 31.6544 25.4343 31.6899 25.1257C31.7255 24.8052 31.7729 24.4808 31.769 24.1603C31.765 23.5945 31.8361 23.0208 31.7097 22.455L31.7295 22.4273ZM4.97753 28.3029C4.87084 28.1803 4.92221 28.0853 4.90641 27.9745C5.00915 28.022 4.97358 28.0853 4.97753 28.1367C4.98149 28.1882 4.97753 28.2357 4.97753 28.3029ZM22.961 11.0163C23.0321 11.0123 23.1032 11.0163 23.1625 11.0163C23.206 11.0598 23.2376 11.0915 23.2732 11.1271C23.2574 11.1389 23.2336 11.1666 23.2178 11.1627C23.1111 11.135 23.0242 11.0519 22.8227 11.1112C22.9254 11.04 22.9412 11.0202 22.961 11.0202V11.0163ZM17.9109 35.4447C11.6201 35.4447 6.51863 30.3248 6.51863 24.006C6.51863 17.6872 11.6201 12.5673 17.9109 12.5673C24.2018 12.5673 29.3032 17.6872 29.3032 24.006C29.3032 30.3248 24.2018 35.4447 17.9109 35.4447Z" fill="white"/>
<path d="M19.1477 37.9572H16.2235C16.2235 37.977 16.2314 37.9967 16.2354 38.0165C16.3539 38.0165 16.4843 37.9888 16.595 38.0205C16.9229 38.1154 17.2549 38.1708 17.5987 38.1629C17.6461 38.1629 17.6974 38.1629 17.737 38.1788C17.9859 38.2935 18.2388 38.2183 18.4877 38.2183C18.5075 38.1906 18.5233 38.1629 18.5431 38.1352C18.4759 38.1115 18.4048 38.0878 18.3376 38.064C18.6181 38.0126 18.871 38.0126 19.1239 38.0126C19.1319 38.0126 19.1437 37.9967 19.1516 37.9888C19.1714 37.9453 19.0963 37.9809 19.1516 37.9611L19.1477 37.9572Z" fill="white"/>
<path d="M10.2094 12.6702C10.1462 12.5634 10.1107 12.4645 10.1067 12.3458C9.84986 12.4526 9.68389 12.6385 9.54164 12.8285C9.40333 13.0144 9.19785 13.1727 9.15834 13.4971C9.35196 13.3033 9.50212 13.1529 9.65228 13.0026C9.80639 12.8443 9.99211 12.7375 10.2094 12.6742V12.6702Z" fill="white"/>
<path d="M23.2059 37.1343C23.1268 37.1422 23.0478 37.2055 22.9885 37.2371C22.9727 37.3044 22.9885 37.3321 23.0399 37.3638C23.1189 37.3123 23.2059 37.2609 23.3205 37.2728C23.4272 37.2846 23.518 37.1264 23.6366 37.2332C23.6445 37.2728 23.6524 37.3044 23.6603 37.344C23.7354 37.3044 23.8026 37.2728 23.8697 37.2411C23.8381 37.1659 23.9172 37.1382 23.9172 37.0472C23.684 37.1699 23.4469 37.1184 23.2138 37.1382L23.2059 37.1343Z" fill="white"/>
<path d="M12.5093 11.0243C12.3828 11.1074 12.209 11.1509 12.1536 11.4279C12.4461 11.2815 12.6792 11.1667 12.9677 11.0243H12.5093Z" fill="white"/>
<path d="M6.22214 18.4785C6.41972 18.3598 6.44343 18.1778 6.47109 18.0235C6.5027 17.8534 6.64891 17.6991 6.54617 17.4498C6.46714 17.8257 6.2419 18.1027 6.22214 18.4785Z" fill="white"/>
<path d="M14.1295 10.4109C14.2204 10.3199 14.2836 10.2606 14.3271 10.2131C14.2718 10.2091 14.173 10.1696 14.0939 10.2408C13.9872 10.3357 13.9082 10.2527 13.8055 10.2131V10.498C13.9398 10.5454 14.0544 10.3911 14.1295 10.4109Z" fill="white"/>
<path d="M15.9906 9.99151C15.9629 10.0667 15.9076 10.0983 15.8365 10.1379C15.7693 10.1735 15.6507 10.1656 15.631 10.2764C15.9669 10.3278 16.2909 10.1854 16.694 10.2012C16.7335 10.1616 16.8085 10.0865 16.8757 10.0152C16.8836 10.0192 16.9152 10.0429 16.9469 10.0509C16.9666 10.0548 16.9903 10.039 16.9864 10.039C16.9587 10.0073 16.9271 9.96381 16.8757 9.90446C16.8046 9.93216 16.69 9.86489 16.5833 9.93216C16.611 9.96381 16.6307 9.98755 16.6584 10.0152C16.5794 10.0548 16.5003 10.0944 16.4252 10.13C16.2869 10.039 16.1644 9.94798 15.9985 9.97568C15.9945 9.9005 15.9274 9.88072 15.8997 9.83324H15.4413C15.3939 9.89259 15.307 9.92424 15.3623 10.0429C15.5717 10.0944 15.7732 9.90446 15.9945 9.98359L15.9906 9.99151Z" fill="white"/>
<path d="M22.5028 36.5407C22.4752 36.513 22.4475 36.4932 22.4198 36.4655C22.329 36.608 22.1353 36.5565 22.0326 36.6792C21.9299 36.6911 21.8587 36.6594 21.8034 36.7306C21.8745 36.7781 21.9457 36.786 22.0563 36.6871C22.3329 36.7188 22.5661 36.5565 22.8269 36.517C22.8111 36.426 22.6648 36.5091 22.6806 36.3904H22.5661C22.5423 36.4378 22.5226 36.4893 22.4989 36.5368L22.5028 36.5407Z" fill="white"/>
<path d="M13.7028 10.7393C13.6553 10.7235 13.6158 10.7116 13.5724 10.6958C13.6237 10.6048 13.7107 10.5731 13.7937 10.5177C13.5289 10.5177 13.3511 10.6167 13.3511 10.7512C13.3866 10.7868 13.4222 10.8264 13.4657 10.8699C13.4973 10.7274 13.6672 10.862 13.7028 10.7353V10.7393Z" fill="white"/>
<path d="M20.8349 36.6871H20.4793C20.4674 36.8098 20.3726 36.7425 20.3133 36.7623C20.2461 36.786 20.1355 36.6911 20.1118 36.8335H20.7559C20.7401 36.8098 20.7243 36.786 20.7085 36.7623C20.7598 36.7544 20.8073 36.7425 20.8586 36.7346C20.8507 36.7188 20.8428 36.7029 20.8349 36.6871Z" fill="white"/>
<path d="M10.731 12.1203C10.644 12.2113 10.5848 12.2786 10.5215 12.3458C10.6796 12.2865 10.8535 12.2509 11.0668 12.1203H10.731Z" fill="white"/>
<path d="M22.3289 37.6406C22.5146 37.6683 22.6411 37.5813 22.7636 37.4586C22.5541 37.4388 22.487 37.4665 22.3289 37.6406Z" fill="white"/>
<path d="M5.48341 17.3153C5.44389 17.3945 5.41623 17.4459 5.38857 17.5013C5.35301 17.5725 5.31349 17.6912 5.38462 17.8257C5.42018 17.6477 5.51897 17.5171 5.48341 17.3153Z" fill="white"/>
<path d="M21.1237 37.6921C21.2462 37.7277 21.3411 37.7396 21.4557 37.6802C21.3411 37.6288 21.2423 37.6209 21.1237 37.6921Z" fill="white"/>
<path d="M5.45556 21.272C5.51483 21.1968 5.51483 21.1216 5.45556 21.0425C5.39629 21.1177 5.39629 21.1928 5.45556 21.272Z" fill="white"/>
<path d="M21.4435 37.5259C21.4435 37.5615 21.4395 37.605 21.4356 37.6485C21.5106 37.6367 21.5423 37.5852 21.5778 37.5298C21.5423 37.4903 21.4988 37.4942 21.4474 37.5298L21.4435 37.5259Z" fill="white"/>
<path d="M10.4384 12.1162C10.4384 12.1162 10.4701 12.1004 10.478 12.0767C10.478 12.0727 10.4622 12.0529 10.4582 12.0569C10.4266 12.0648 10.4108 12.0846 10.4147 12.1162C10.3515 12.1241 10.2962 12.1004 10.2646 12.1835C10.3199 12.1914 10.3673 12.2151 10.4384 12.1162Z" fill="white"/>
<path d="M24.2059 35.9512H24.1071C24.0162 36.0462 23.9569 36.1095 23.8977 36.1728C24.0162 36.1411 24.1387 36.0976 24.2533 35.9512C24.3047 35.9512 24.3521 35.9591 24.3758 35.8879C24.3205 35.88 24.2731 35.8563 24.2059 35.9473V35.9512Z" fill="white"/>
<path d="M22.6844 36.3944C22.7397 36.3825 22.8266 36.43 22.8306 36.3192C22.7753 36.3311 22.6883 36.2836 22.6844 36.3944Z" fill="white"/>
<path d="M5.52308 17.3548C5.58235 17.3429 5.5784 17.2717 5.53493 17.2203C5.51912 17.2322 5.49146 17.2559 5.49542 17.2599C5.51517 17.2915 5.45195 17.3746 5.52703 17.3588L5.52308 17.3548Z" fill="white"/>
<path d="M15.5678 10.32C15.5678 10.32 15.5836 10.3438 15.5876 10.3398C15.6192 10.3319 15.6349 10.308 15.631 10.2764C15.5954 10.2685 15.5757 10.2844 15.5678 10.32Z" fill="white"/>
<path d="M11.0668 12.0768C11.0668 12.0768 11.051 12.053 11.047 12.057C11.0154 12.0649 10.9996 12.0886 11.0036 12.1203C11.0391 12.1282 11.0589 12.1124 11.0668 12.0768Z" fill="white"/>
<path d="M8.56954 14.3636C8.56954 14.3636 8.55373 14.3399 8.54978 14.3438C8.51817 14.3518 8.50236 14.3755 8.50632 14.4072C8.54188 14.4151 8.56164 14.3992 8.56954 14.3636Z" fill="white"/>
<path d="M4.96566 21.6676C4.96566 21.6676 4.94985 21.6439 4.9459 21.6478C4.91429 21.6557 4.89848 21.6795 4.90244 21.7111C4.938 21.719 4.95776 21.7032 4.96566 21.6676Z" fill="white"/>
<path d="M4.53518 19.9782C4.51148 19.9426 4.48777 19.9426 4.46406 19.9782C4.48777 20.0138 4.51148 20.0138 4.53518 19.9782Z" fill="white"/>
<path d="M22.8306 36.3192C22.882 36.3192 22.9055 36.2954 22.9055 36.2439C22.8541 36.2439 22.8306 36.2678 22.8306 36.3192Z" fill="white"/>
<path d="M55.4547 22.3522V22.3574H55.4599L55.4547 22.3522Z" fill="white"/>
<path d="M55.4546 22.3561C55.344 22.2532 55.2254 22.2097 55.0792 22.2968C54.9251 22.3838 54.7868 22.4946 54.6564 22.6054C53.791 23.3769 52.9612 24.1841 52.1827 25.0387C51.7125 25.5531 51.266 26.0833 50.7839 26.6056C50.8708 26.2811 50.9538 25.9527 51.0486 25.6283C51.2027 25.0466 51.4003 24.465 51.5189 23.8636C51.5702 23.5787 51.3924 23.3492 51.0644 23.2543C50.8352 23.1831 50.7799 23.2226 50.6416 23.5708C50.4796 23.9744 50.3413 24.3819 50.2069 24.7934C49.8157 25.0308 49.4403 25.2959 49.057 25.5373C48.6224 25.8103 48.1838 26.0912 47.7214 26.3365C47.6938 26.2336 47.7412 26.1585 47.7609 26.0793C47.8795 25.7549 47.998 25.4265 48.1284 25.1099C48.1877 24.9517 48.1482 24.8448 48.0257 24.7499C47.84 24.5956 47.6226 24.5204 47.3579 24.5718C47.4448 24.374 47.5278 24.2039 47.595 24.0219C47.674 23.824 47.6345 23.6381 47.4764 23.4996C47.1524 23.2226 46.7849 23.0841 46.3542 23.1989C46.0302 23.2859 45.7457 23.464 45.4888 23.6697C44.7657 24.2355 44.169 24.9161 43.6632 25.6718C42.865 26.198 42.13 26.8073 41.3713 27.4008C40.7035 27.931 40.0792 28.5245 39.3758 29.0033C39.3046 29.0429 39.2375 29.1418 39.1703 29.1022C39.0913 29.0626 39.1426 28.9558 39.1426 28.8767C39.1822 28.2753 39.3718 27.7213 39.5971 27.1714C40.3834 25.2168 41.3515 23.3492 42.3039 21.4659C42.5093 21.0544 42.7148 20.6468 42.9203 20.2235C42.9519 20.1364 42.9993 20.0533 42.9519 19.9584C42.8057 19.6418 42.3434 19.5983 42.1379 19.8713C42.0668 19.9742 41.9996 20.0889 41.9324 20.1879C41.312 21.2008 40.743 22.2414 40.2096 23.2978C39.5575 24.5837 38.8897 25.8538 38.3879 27.203C38.2022 27.6976 38.0718 28.212 38.1152 28.754C38.1666 29.3871 38.704 29.8817 39.3639 29.8896C39.5852 29.8896 39.7986 29.7788 40.012 29.6522C40.415 29.395 40.7707 29.0864 41.1263 28.754C41.7625 28.1487 42.4106 27.5552 43.0705 26.9696C43.031 27.294 43.1416 27.5275 43.4459 27.7332C43.8805 28.03 44.3271 28.1091 44.8131 27.8044C45.4414 27.4008 45.9946 26.9142 46.5518 26.4236C46.611 26.3721 46.6624 26.3246 46.7691 26.2376C46.7177 26.5818 46.8284 26.8113 47.0773 26.9656C47.4211 27.1714 47.7688 27.2307 48.1521 27.0685C48.4367 26.9498 48.7014 26.8034 48.9504 26.6253C49.2507 26.4156 49.547 26.1941 49.8355 25.9646C49.7209 26.3998 49.6261 26.835 49.634 27.294C49.6419 27.749 49.8592 28.0418 50.286 28.1922C50.4717 28.2594 50.6416 28.2317 50.7918 28.0893C50.9775 27.9033 51.1593 27.6936 51.3134 27.48C52.5542 25.7311 53.9135 24.0773 55.423 22.546C55.4981 22.4709 55.4941 22.4115 55.423 22.3522L55.4546 22.3561ZM46.9667 24.9477C46.2673 25.5808 45.5402 26.1901 44.742 26.7045C44.742 26.7045 44.7222 26.7045 44.6827 26.6966C45.2833 25.6916 45.9748 24.7776 46.8995 23.9942C46.8995 24.2197 46.8916 24.3898 46.8284 24.5362C46.7691 24.6826 46.8205 24.7618 46.9311 24.8092C47.0102 24.8409 47.0418 24.8805 46.9667 24.9477Z" fill="white"/>
<path d="M82.0881 24.3818C82.0446 24.3699 82.0011 24.3699 81.9695 24.3818C81.6969 24.453 81.4479 24.3818 81.2069 24.2552C80.8908 24.0772 80.5746 24.093 80.2625 24.2869C80.1597 24.3462 80.057 24.4135 79.9029 24.5124C79.9977 24.3502 80.0609 24.2275 80.1202 24.1167C80.2467 23.8793 80.215 23.7487 79.9819 23.5747C79.6974 23.361 79.4998 23.3452 79.3141 23.5351C79.1284 23.7131 78.9624 23.9308 78.8083 24.1444C78.6226 24.4174 78.4408 24.6904 78.2669 24.9674C77.3265 25.4699 76.386 25.9803 75.4337 26.4868C74.8686 26.7835 74.3114 27.0961 73.7029 27.286C73.4895 27.3533 73.454 27.3256 73.4461 27.0961C73.4263 26.6332 73.6002 26.2177 73.7898 25.7943C74.6355 26.4274 75.1018 26.1465 75.4732 25.6915C75.8763 25.2008 76.1489 24.6232 76.2951 24.0099C76.382 23.634 76.2596 23.3175 75.9355 23.084C75.4376 22.7319 74.916 22.7398 74.4458 23.1276C74.1218 23.3926 73.8452 23.6934 73.616 24.0376C73.3552 24.4135 73.1102 24.7973 72.9047 25.2048C72.1302 25.9328 71.3675 26.6688 70.593 27.3968C70.5061 27.4917 70.4034 27.5669 70.2769 27.6698C70.2493 27.4126 70.2848 27.2148 70.3481 27.0169C70.5338 26.376 70.7511 25.7548 71.0475 25.1652C71.9642 23.3214 72.9995 21.5488 73.9914 19.7407C74.1889 19.3885 74.4221 19.0641 74.5999 18.6961C74.6315 18.6367 74.6789 18.5576 74.6315 18.4706C74.513 18.253 73.9914 18.2213 73.861 18.431C73.45 19.0997 72.9521 19.705 72.5688 20.4014C72.4068 20.7179 72.2013 21.0226 71.98 21.2917C71.5256 21.8654 71.0712 22.4351 70.6286 22.997C70.5496 23.084 70.5022 23.2027 70.4034 23.2463C70.3006 23.2858 70.2335 23.1434 70.1307 23.0999C69.5143 22.8071 68.9295 22.8625 68.3762 23.2542C67.7558 23.6815 67.2659 24.2235 66.847 24.825C65.8907 25.3354 64.9305 25.8458 63.9426 26.3047C63.8557 26.3483 63.7648 26.4076 63.6423 26.4076C63.6502 26.3047 63.6621 26.2217 63.6779 26.1346C63.7727 25.7231 63.8675 25.3156 63.9505 24.8922C64.0374 24.4491 63.9189 24.2394 63.5079 24.0732C63.259 23.9703 63.0377 23.9941 62.8085 24.1325C62.5003 24.3106 62.2276 24.544 61.9589 24.7854C61.4373 25.2483 60.9157 25.7192 60.3744 26.2058C60.3665 26.1109 60.4139 26.0594 60.4415 26.0001C60.8169 25.1929 61.2477 24.4135 61.6823 23.6419C61.7732 23.4797 61.7416 23.357 61.6033 23.266C61.1805 22.9732 60.9434 22.9732 60.6707 23.3333C60.2677 23.8635 59.912 24.4214 59.588 24.9991C58.6713 25.4897 57.7466 25.9922 56.818 26.4868C56.2529 26.7835 55.6957 27.0961 55.0872 27.286C54.8738 27.3533 54.8383 27.3256 54.8304 27.0961C54.8106 26.6332 54.9845 26.2177 55.1741 25.7943C56.0198 26.4274 56.486 26.1465 56.8575 25.6915H56.8615C57.2645 25.2008 57.5372 24.6232 57.6834 24.0099C57.7703 23.634 57.6518 23.3175 57.3238 23.084C56.8298 22.7319 56.3043 22.7398 55.834 23.1276C55.51 23.3926 55.2334 23.6934 55.0042 24.0376C54.4984 24.7735 54.0361 25.5451 53.8306 26.4274C53.7279 26.8745 53.8227 27.2781 54.1823 27.5827C54.5656 27.8993 55.0042 28.0655 55.51 28.018C55.9328 27.9863 56.3161 27.8122 56.6836 27.6144C57.4818 27.199 58.2326 26.7162 58.9795 26.2177C58.857 26.4986 58.77 26.7835 58.7345 27.0842C58.7029 27.3928 58.8214 27.6065 59.1296 27.7687C59.422 27.927 59.7224 28.0338 60.0187 27.7766C60.2558 27.563 60.4732 27.3335 60.6865 27.1C61.3623 26.3878 62.0656 25.7033 62.8164 25.0782C62.8678 25.0386 62.9271 24.9991 63.014 24.9318C62.9034 25.4026 62.7571 25.8062 62.7216 26.2454C62.6939 26.554 62.8085 26.7954 63.0812 26.9655V26.9536C63.4091 27.1515 63.7608 27.2187 64.1283 27.0921C64.3141 27.0249 64.4958 26.9457 64.6776 26.8547C65.1755 26.6015 65.6576 26.3166 66.1357 26.0278C65.9974 26.3206 65.8868 26.6213 65.8117 26.9299C65.7248 27.2979 65.8393 27.563 66.1357 27.7687C66.6573 28.1367 67.2817 28.105 67.7519 27.6737C68.1273 27.3374 68.4632 26.9616 68.7951 26.5975C69.1626 26.194 69.5064 25.7785 69.8581 25.3354C69.8778 25.4145 69.8304 25.4738 69.8186 25.5253C69.6565 25.921 69.5103 26.3127 69.3918 26.7162C69.3206 26.9418 69.2851 27.1594 69.2851 27.3928C69.3207 27.9942 69.617 28.2831 70.2177 28.3187C70.4429 28.3385 70.6405 28.287 70.8341 28.1604C71.0593 28.0219 71.2688 27.8637 71.4545 27.6817C71.7825 27.3493 72.0986 27.0051 72.4108 26.6569C72.387 27.009 72.5016 27.3256 72.7941 27.5788C73.1774 27.8953 73.6199 28.0615 74.1218 28.014C74.5446 27.9824 74.9279 27.8083 75.2954 27.6104C76.0896 27.195 76.8365 26.7162 77.5754 26.2256C77.5082 26.376 77.4371 26.5224 77.3818 26.6767C77.2119 27.1317 77.3541 27.4245 77.8165 27.5946C77.9864 27.654 78.1168 27.6342 78.2393 27.468C78.6226 26.8785 79.0454 26.3206 79.5314 25.8062C79.8989 25.4105 80.2664 25.0267 80.7327 24.7419C80.9579 24.6034 81.1674 24.544 81.4242 24.6825C81.6495 24.7933 81.8944 24.8408 82.1355 24.734C82.2145 24.7023 82.3528 24.6904 82.341 24.5796C82.3212 24.4689 82.2027 24.4095 82.092 24.3818H82.0881ZM74.1652 25.0742C74.4972 24.4689 74.8923 23.907 75.4416 23.4678C75.4495 23.4599 75.4732 23.4599 75.493 23.448C75.5285 23.5272 75.5009 23.6024 75.4811 23.6736C75.2954 24.3066 74.9872 24.8645 74.5051 25.3275C74.4537 25.3789 74.3865 25.4897 74.3194 25.4145C74.2403 25.3275 74.0941 25.2088 74.1652 25.0782V25.0742ZM55.5535 25.0742C55.8854 24.4689 56.2806 23.907 56.8298 23.4678C56.8377 23.4599 56.8615 23.4599 56.8812 23.448C56.9168 23.5272 56.8891 23.6024 56.8694 23.6736C56.6836 24.3066 56.3754 24.8645 55.8933 25.3275C55.842 25.3789 55.7748 25.4897 55.7076 25.4145C55.6286 25.3275 55.4824 25.2088 55.5535 25.0782V25.0742ZM69.4432 24.4214C68.7832 25.1811 68.0957 25.917 67.3725 26.6213C67.3449 26.649 67.3212 26.6727 67.2856 26.7004C67.7479 25.5292 68.4316 24.5322 69.4115 23.7527C69.5657 23.634 69.5815 23.6419 69.6091 23.8318C69.6368 24.0495 69.6091 24.2433 69.4471 24.4214H69.4432Z" fill="white"/>
<path d="M84.0281 26.6689C83.9689 26.6372 83.9175 26.6253 83.8661 26.5976C83.6093 26.4592 83.3722 26.4789 83.1469 26.6649C82.9494 26.843 82.8032 27.0606 82.7123 27.3178C82.6016 27.6422 82.7004 27.8242 83.0442 27.8717C83.1035 27.8796 83.1628 27.8796 83.2615 27.8915C83.6844 27.8598 83.9965 27.6066 84.2376 27.2505C84.4075 26.9933 84.3166 26.7796 84.0321 26.6689H84.0281Z" fill="white"/>
<path d="M102.537 21.3194C102.557 21.2323 102.466 21.2007 102.411 21.173C102.367 21.1453 102.324 21.1413 102.273 21.1334C101.972 21.0543 101.672 21.0543 101.364 21.0741C100.044 21.1611 98.7359 21.3471 97.424 21.5568C97.0486 21.6161 96.6692 21.6834 96.2938 21.7546C96.2741 21.6874 96.3136 21.6438 96.3333 21.6082C96.7957 20.718 97.2896 19.8515 97.7915 18.985C97.8784 18.8306 97.9772 18.7673 98.1511 18.7555C99.8897 18.5576 101.628 18.3796 103.371 18.249C105.039 18.1382 106.71 18.0116 108.386 18.1026C108.457 18.1026 108.524 18.1026 108.583 18.0828C108.721 18.0512 108.737 17.9641 108.634 17.8771C108.516 17.7663 108.362 17.7386 108.212 17.7149C107.544 17.6041 106.868 17.5685 106.192 17.5685C103.632 17.5606 101.083 17.7465 98.5383 17.9958C98.4277 18.0077 98.3012 18.0551 98.3407 17.8573C98.3407 17.8059 98.3012 17.7703 98.2617 17.7465C97.989 17.4973 97.6097 17.5289 97.3726 17.8059C97.3133 17.885 97.2461 17.9602 97.1948 18.0433C97.1236 18.1303 97.0486 18.162 96.9379 18.1818C94.4643 18.4745 91.9906 18.8346 89.5406 19.3054C88.3868 19.5231 87.2369 19.7407 86.1147 20.0928C85.9171 20.164 85.7195 20.2194 85.5575 20.35C85.3876 20.4687 85.3797 20.5993 85.5298 20.7457C85.6681 20.8842 85.846 20.9633 86.0238 21.0108H86.0317C86.4663 21.1492 86.9208 21.173 87.3594 21.26C88.2169 21.4223 89.1218 21.3985 89.8844 21.9366C89.9556 21.9881 90.0702 22.0158 90.1334 21.9168C90.2006 21.8219 90.1334 21.7388 90.0623 21.6676C89.924 21.5291 89.7461 21.442 89.5604 21.3748C88.9953 21.1572 88.3987 21.0582 87.8138 20.9277C87.6479 20.896 87.4977 20.8683 87.3436 20.8288C87.1974 20.7971 87.0472 20.7971 86.9089 20.7021C90.0583 19.8436 93.2788 19.3885 96.5388 18.9454C96.4874 19.0324 96.4598 19.072 96.4361 19.1155C95.9421 19.8633 95.4443 20.623 95.0412 21.4302C94.7922 21.9248 94.484 22.269 93.8992 22.3046C93.8399 22.3125 93.7727 22.3362 93.7135 22.356C92.9864 22.5736 92.2672 22.7833 91.5836 23.1276C91.5046 23.1671 91.3939 23.2067 91.4137 23.3135C91.4216 23.4243 91.5322 23.4679 91.6192 23.5035C91.8681 23.6024 92.1092 23.5232 92.3186 23.4441C92.8837 23.2384 93.4645 23.0999 94.0494 22.9297C94.0889 22.9218 94.1442 22.8902 94.2035 22.9377C94.1639 23.0247 94.1165 23.0999 94.077 23.1869C93.2986 24.7458 92.6189 26.3483 92.0578 27.9943C91.8721 28.5442 91.714 29.0982 91.714 29.6838C91.714 30.0873 91.8918 30.2931 92.2672 30.4039C92.5991 30.4988 92.8481 30.4039 93.0733 30.1546C93.2393 29.9765 93.2274 29.8578 92.9864 29.8222C92.7295 29.7787 92.7493 29.66 92.8244 29.478C92.852 29.4187 92.856 29.3593 92.8836 29.3079C93.7135 27.0288 94.6579 24.7894 95.788 22.6409C95.8394 22.538 95.9066 22.4866 96.0251 22.4629C96.4203 22.3916 96.8115 22.3085 97.2066 22.2334C98.9295 21.9248 100.621 21.541 102.359 21.4025C102.431 21.3946 102.514 21.4025 102.529 21.3233L102.537 21.3194Z" fill="white"/>
<path d="M101.648 22.0039C101.178 22.0554 100.739 22.1939 100.328 22.4273C100.233 22.4787 100.115 22.546 100.166 22.7003C100.253 22.9654 100.707 23.1553 100.952 23.0168C101.415 22.7597 101.877 22.5223 102.391 22.4075C102.517 22.3798 102.517 22.3126 102.45 22.2295C102.304 22.0316 102.098 21.9565 101.861 21.9921C101.79 21.9921 101.715 21.9921 101.644 22.0079L101.648 22.0039Z" fill="white"/>
<path d="M108.555 22.3561C108.445 22.2532 108.326 22.2097 108.18 22.2968C108.026 22.3838 107.888 22.4946 107.757 22.6054C106.892 23.3769 106.062 24.1841 105.283 25.0387C104.813 25.5531 104.367 26.0833 103.885 26.6055C103.972 26.2811 104.055 25.9527 104.149 25.6283C104.304 25.0466 104.501 24.465 104.62 23.8636C104.671 23.5787 104.493 23.3492 104.165 23.2543C103.936 23.183 103.881 23.2226 103.742 23.5708C103.596 23.9348 103.47 24.3028 103.347 24.6707C103.193 24.734 103.043 24.8013 102.893 24.8804C102.035 25.3434 101.182 25.8261 100.316 26.2851C100.229 26.3365 100.146 26.38 100.028 26.4433C100.06 26.3246 100.067 26.2455 100.095 26.1703C100.257 25.6639 100.419 25.1535 100.585 24.6391C100.712 24.2276 100.644 24.0852 100.269 23.8755C99.9805 23.7211 99.8462 23.7488 99.6684 24.0139C99.1744 24.734 98.882 25.5333 98.7793 26.3879C98.6765 27.1516 99.5301 27.7925 100.249 27.5116H100.253C100.585 27.3692 100.885 27.1832 101.186 26.9775C101.818 26.5343 102.43 26.0793 103.059 25.6322C102.901 26.1782 102.758 26.7242 102.762 27.3019C102.77 27.7569 102.988 28.0497 103.414 28.2001C103.6 28.2673 103.774 28.2396 103.92 28.0972C104.106 27.9112 104.288 27.7015 104.442 27.4879C105.683 25.739 107.042 24.0852 108.551 22.5539C108.626 22.4788 108.623 22.4194 108.551 22.3601L108.555 22.3561Z" fill="white"/>
<path d="M113.922 24.7855C113.768 24.647 113.598 24.6312 113.4 24.6826C113.23 24.7261 113.068 24.7934 112.902 24.8804C111.91 25.4106 110.915 25.9527 109.915 26.4829C109.35 26.7796 108.793 27.0922 108.184 27.2821C107.971 27.3494 107.935 27.3217 107.927 27.0922C107.907 26.6293 108.081 26.2138 108.271 25.7905C109.117 26.4235 109.583 26.1426 109.954 25.6876C110.357 25.197 110.63 24.6193 110.78 24.006C110.867 23.6301 110.745 23.3136 110.421 23.0802C109.927 22.728 109.401 22.7359 108.931 23.1237C108.607 23.3888 108.33 23.6895 108.101 24.0337C107.595 24.7697 107.133 25.5412 106.927 26.4235C106.825 26.8706 106.92 27.2742 107.279 27.5789C107.662 27.8954 108.101 28.0616 108.607 28.0141C109.03 27.9825 109.413 27.8084 109.78 27.6105C111.239 26.8509 112.547 25.8736 113.926 24.9794C114.036 24.9081 114.013 24.8527 113.926 24.7815L113.922 24.7855ZM108.654 25.0743C108.986 24.469 109.381 23.9071 109.931 23.4679C109.939 23.46 109.962 23.46 109.982 23.4481C110.018 23.5273 109.99 23.6024 109.97 23.6737C109.784 24.3067 109.476 24.8646 108.994 25.3275C108.943 25.379 108.876 25.4898 108.808 25.4146C108.729 25.3275 108.583 25.2088 108.654 25.0783V25.0743Z" fill="white"/>
</svg>
