<svg width="118" height="48" viewBox="0 0 118 48" fill="none" xmlns="http://www.w3.org/2000/svg">
<path d="M65.8289 22.4881C64.748 22.4881 63.9166 22.882 63.3346 23.6609H63.2864C63.0282 23.2758 62.6913 22.987 62.2712 22.7857C61.8511 22.5844 61.3435 22.4881 60.7483 22.4881C60.1226 22.4881 59.6018 22.6106 59.1817 22.8426C58.7616 23.0789 58.4115 23.4158 58.1358 23.8447H57.6239V22.6194H55.379V24.8205H56.4773V29.9492H58.7222V26.0283C58.7222 25.5119 58.8404 25.1225 59.0767 24.8687C59.313 24.6149 59.6674 24.4923 60.1401 24.4923C61.1159 24.4923 61.606 25.0043 61.606 26.0327V29.9536H63.8509V26.0327C63.8509 25.0043 64.3323 24.4923 65.295 24.4923C66.2577 24.4923 66.7391 25.0043 66.7391 26.0327V29.9536H68.984V25.5907C68.984 24.6455 68.6996 23.8972 68.1351 23.3283C67.5705 22.7638 66.8004 22.4837 65.8333 22.4837L65.8289 22.4881Z" fill="white"/>
<path d="M75.828 22.9432C75.2416 22.6369 74.5371 22.4794 73.7231 22.4794C72.9092 22.4794 72.2003 22.6325 71.6008 22.9432C70.9925 23.2495 70.533 23.6915 70.2004 24.2604C69.8679 24.8293 69.7059 25.5032 69.7059 26.2777C69.7059 27.0523 69.8679 27.7262 70.2004 28.2995C70.533 28.8727 70.9969 29.3191 71.6008 29.6298C72.2047 29.9492 72.9048 30.1024 73.71 30.1024H73.7056C74.5239 30.098 75.2285 29.9449 75.8192 29.6342C76.4144 29.3278 76.8739 28.8815 77.2021 28.3082C77.5303 27.735 77.6922 27.0654 77.6922 26.2865C77.6922 25.5076 77.5303 24.8293 77.2021 24.2604C76.8739 23.6915 76.4188 23.2495 75.828 22.9432ZM75.0009 27.6387C74.7034 27.98 74.2745 28.1463 73.7144 28.1463C73.1543 28.1463 72.7123 27.9756 72.406 27.6387C72.104 27.2974 71.9552 26.8466 71.9552 26.2734C71.9552 25.7001 72.1084 25.2538 72.406 24.9256C72.7079 24.593 73.1543 24.4311 73.7144 24.4311C74.2745 24.4311 74.7034 24.593 75.0009 24.9256C75.2985 25.2581 75.4473 25.7045 75.4473 26.2734C75.4473 26.8423 75.2985 27.3017 75.0009 27.6387Z" fill="white"/>
<path d="M83.4685 22.4925C82.8033 22.4925 82.2563 22.615 81.8231 22.8513C81.3943 23.0876 81.0354 23.4202 80.7422 23.8447H80.2302V22.6194H77.9853V24.8205H79.0837V29.9536H79.0881L81.333 29.958V26.0371C81.333 25.5338 81.4643 25.1487 81.7312 24.8862C81.9982 24.6236 82.3832 24.4923 82.8996 24.4923C83.416 24.4923 83.8011 24.6236 84.0636 24.8862C84.3306 25.1487 84.4619 25.5295 84.4619 26.0371V29.958H86.7067V25.5951C86.7067 24.6499 86.4267 23.9016 85.8709 23.3327C85.3152 22.7682 84.5144 22.4881 83.4729 22.4881L83.4685 22.4925Z" fill="white"/>
<path d="M92.1945 25.4857L90.5097 25.1531C90.2996 25.1093 90.1421 25.0437 90.0327 24.9562C89.9277 24.8643 89.8752 24.7549 89.8752 24.6236C89.8752 24.4442 89.9583 24.3085 90.1377 24.221C90.3171 24.1335 90.5622 24.0854 90.8904 24.0854C91.293 24.0854 91.5906 24.1597 91.8006 24.2998C92.0107 24.4442 92.1551 24.6717 92.2338 24.9912H94.3956C94.3475 24.1948 94.028 23.5734 93.446 23.1314C92.864 22.6938 92.0588 22.475 91.0436 22.475C90.0283 22.475 89.2275 22.685 88.6499 23.1139C88.0722 23.5384 87.7834 24.1116 87.7834 24.8293C87.7834 25.9364 88.5317 26.6366 90.0283 26.9298L91.665 27.2492C91.9188 27.3017 92.0938 27.3717 92.2076 27.4636C92.3126 27.5555 92.3695 27.6824 92.3695 27.8356C92.3695 28.2207 92.0063 28.4089 91.2711 28.4089C90.7985 28.4089 90.4397 28.3301 90.1946 28.1769C89.9408 28.0238 89.7876 27.7831 89.722 27.4593H87.5602C87.6084 28.2907 87.9497 28.9384 88.5755 29.4022C89.2056 29.8661 90.0721 30.098 91.1705 30.098H91.1748C92.2382 30.1024 93.0565 29.888 93.621 29.4547C94.1855 29.0215 94.47 28.422 94.47 27.6562C94.47 27.0611 94.2818 26.5928 93.9186 26.2427C93.551 25.8927 92.9778 25.6388 92.1945 25.4857Z" fill="white"/>
<path d="M98.1719 24.383H99.7604V22.6238H98.15V20.4227H95.9533V22.6238H94.7061V24.383H95.927V28.1945C95.927 28.794 96.0845 29.2316 96.3996 29.5204C96.7147 29.8092 97.1567 29.9536 97.7256 29.9536H99.9311V28.1945H98.1719V24.383Z" fill="white"/>
<path d="M106.167 22.917C105.602 22.6238 104.942 22.475 104.15 22.475C103.357 22.475 102.675 22.6281 102.093 22.9345C101.511 23.2408 101.06 23.6784 100.749 24.2429C100.434 24.8074 100.277 25.4813 100.277 26.2646C100.277 27.0479 100.434 27.7262 100.758 28.2995C101.082 28.8727 101.537 29.3191 102.132 29.6298C102.723 29.9492 103.423 30.1024 104.233 30.1024L104.241 30.0936C105.235 30.0936 106.053 29.8705 106.696 29.4154C107.335 28.9602 107.738 28.3345 107.891 27.538H105.646C105.55 27.8137 105.388 28.015 105.165 28.1419C104.942 28.2732 104.627 28.3345 104.233 28.3345C103.738 28.3345 103.336 28.2119 103.038 27.9756C102.736 27.7306 102.539 27.3761 102.452 26.9079H107.909V26.1902C107.909 25.42 107.76 24.7549 107.462 24.1991C107.165 23.6478 106.736 23.2233 106.171 22.9257L106.167 22.917ZM102.474 25.4463C102.583 25.0437 102.775 24.7461 103.06 24.5405C103.344 24.3392 103.703 24.2385 104.158 24.2385C104.613 24.2385 104.972 24.3348 105.235 24.5361C105.502 24.7374 105.668 25.0393 105.742 25.4463H102.469H102.474Z" fill="white"/>
<path d="M113.374 22.5319C112.858 22.5319 112.385 22.6588 111.961 22.917C111.541 23.1752 111.234 23.5647 111.046 24.0942H110.534V22.6282H108.289V24.8293H109.388V29.9624H111.58V26.2953C111.58 25.7571 111.711 25.3194 111.978 24.9869C112.245 24.6543 112.678 24.488 113.282 24.488H114V22.5363H113.379L113.374 22.5319Z" fill="white"/>
<path d="M24.5322 22.4837C23.9633 22.4837 23.4557 22.5931 23.0093 22.7988C22.5674 23.0089 22.2217 23.3152 21.9766 23.7222H21.4646V22.6238H20.1956V23.8491H20.8082V29.9492H21.9547V25.6126C21.9547 24.9212 22.1473 24.3917 22.528 24.0285C22.9087 23.6696 23.4513 23.4858 24.1734 23.4858C24.8954 23.4858 25.4468 23.6653 25.8275 24.0285C26.2038 24.3917 26.3964 24.9212 26.3964 25.6126V29.9492H27.5429V25.4419C27.5429 24.5492 27.2716 23.8316 26.7246 23.2933C26.1776 22.7551 25.4468 22.4837 24.5278 22.4837H24.5322Z" fill="white"/>
<path d="M34.7066 22.9345C34.1596 22.6281 33.4901 22.4706 32.7374 22.4706C31.9848 22.4706 31.3327 22.6281 30.777 22.9432C30.2168 23.2583 29.788 23.7003 29.4904 24.2691C29.1885 24.838 29.0397 25.5119 29.0397 26.2865C29.0397 27.061 29.1929 27.735 29.4992 28.3038C29.8011 28.8727 30.23 29.3191 30.7857 29.6298C31.3415 29.9492 31.9935 30.1024 32.7418 30.1024V30.0893C33.4945 30.0893 34.1465 29.9361 34.7023 29.6254C35.258 29.3191 35.6869 28.8727 35.9844 28.2995C36.2864 27.7262 36.4352 27.0567 36.4352 26.2777C36.4352 25.4988 36.2864 24.8205 35.9844 24.2516C35.6869 23.6828 35.2624 23.2408 34.711 22.9345H34.7066ZM34.6191 28.3651C34.1728 28.8552 33.547 29.1046 32.7374 29.1046C31.941 29.1003 31.3152 28.8508 30.8601 28.3607C30.4094 27.8706 30.1818 27.1792 30.1818 26.2909C30.1818 25.4025 30.405 24.7111 30.8601 24.221C31.3152 23.7309 31.9279 23.4815 32.7374 23.4815C33.547 23.4815 34.1684 23.7221 34.6191 24.2166C35.0655 24.7067 35.293 25.4069 35.293 26.2952C35.293 27.1836 35.0699 27.8706 34.6191 28.3651Z" fill="white"/>
<path d="M44.6621 19.6962H43.5156V23.8709H43.4674C43.2399 23.4158 42.9029 23.0745 42.4653 22.8338C42.0277 22.5975 41.5026 22.4793 40.9031 22.4793C40.2117 22.4793 39.6165 22.6325 39.1177 22.9388C38.6188 23.2407 38.2337 23.6827 37.9668 24.2516C37.6998 24.8205 37.5642 25.5031 37.5642 26.2908C37.5642 27.0785 37.6998 27.7612 37.9755 28.3301C38.2512 28.8989 38.6494 29.3409 39.1614 29.6429C39.6734 29.9448 40.2948 30.1023 41.0081 30.1023V30.1111C41.5901 30.1111 42.089 30.0017 42.5047 29.7916C42.9204 29.5816 43.253 29.2665 43.4937 28.8639H44.0057V29.9623H45.2747V28.737H44.6621V19.6962ZM43.5199 26.886C43.5199 27.5643 43.3011 28.1069 42.8723 28.5095C42.4434 28.9164 41.8746 29.1221 41.1656 29.1221C40.3911 29.1221 39.7916 28.8683 39.3584 28.3738C38.9251 27.8793 38.7107 27.1835 38.7107 26.2865C38.7107 25.3894 38.9295 24.6936 39.3584 24.1991C39.7872 23.7002 40.3911 23.4508 41.1656 23.4508C41.8746 23.4508 42.4391 23.6565 42.8723 24.0634C43.3055 24.4704 43.5199 25.013 43.5199 25.6869V26.886Z" fill="white"/>
<path d="M51.8738 22.9038C51.3706 22.6238 50.771 22.4837 50.0796 22.4837C49.3488 22.4837 48.7056 22.6369 48.1629 22.9476C47.6159 23.2539 47.1914 23.6959 46.8939 24.2604C46.5919 24.8249 46.4431 25.4944 46.4431 26.269C46.4431 27.0436 46.5919 27.7175 46.8939 28.2951C47.1958 28.8684 47.6203 29.3191 48.1761 29.6298C48.7318 29.9492 49.3838 30.1024 50.1321 30.1024L50.1234 30.1111C50.968 30.1111 51.6769 29.9055 52.2501 29.4985C52.8234 29.0915 53.2085 28.5183 53.3923 27.7744H52.2195C52.0838 28.2076 51.8257 28.5358 51.4581 28.7633C51.0905 28.9909 50.6354 29.1047 50.1103 29.1047C49.3445 29.1047 48.7318 28.8684 48.2723 28.3957C47.8128 27.9231 47.5678 27.2711 47.5328 26.4309H53.4667V25.9189C53.4667 25.2188 53.3266 24.6105 53.0466 24.0985C52.7665 23.5865 52.3727 23.1883 51.8694 22.9082L51.8738 22.9038ZM47.6028 25.547C47.7209 24.8818 47.9966 24.3698 48.4299 24.0066C48.8631 23.639 49.4101 23.4552 50.0709 23.4552C50.7317 23.4552 51.2655 23.639 51.6725 24.0066C52.0795 24.3742 52.3114 24.8906 52.3683 25.547H47.6028Z" fill="white"/>
<path d="M7.35207 21.241H5.67605V29.9449H16.1129V19.565H7.35207V21.241ZM13.7323 26.024C13.6842 26.3259 13.6054 26.606 13.4654 26.851C13.2597 27.2143 12.9665 27.4943 12.5945 27.6912C12.2226 27.8882 11.7675 27.9844 11.2599 27.9844C10.7522 27.9844 10.3059 27.8882 9.92517 27.6869C9.54883 27.4899 9.25126 27.2099 9.04121 26.8467C8.83116 26.4835 8.73052 26.059 8.73052 25.5689C8.73052 25.2888 8.77427 25.035 8.84429 24.7987H9.6276L9.68886 24.8118L9.86828 24.8643C9.8464 24.9825 9.82452 25.105 9.82452 25.2494C9.82452 25.652 9.93392 25.9671 10.144 26.2034C10.354 26.4397 10.6603 26.5579 11.0542 26.5579C11.448 26.5579 11.75 26.4397 11.9556 26.2034C12.1176 26.024 12.2182 25.7833 12.2488 25.4989L13.7629 25.9014C13.7586 25.9496 13.7454 25.9846 13.7411 26.0284L13.7323 26.024ZM8.01722 22.0418H9.6101L9.64948 22.0505L13.6229 23.9454H13.6317C13.7323 24.2254 13.7892 24.895 13.7892 24.895L9.64948 23.6565H8.0216V22.0418H8.01722Z" fill="white"/>
<path d="M7.35203 17.8889H4V21.2409L5.67605 21.241L5.67602 19.5649L7.35207 19.565L7.35203 17.8889Z" fill="white"/>
</svg>
