<svg width="118" height="48" viewBox="0 0 118 48" fill="none" xmlns="http://www.w3.org/2000/svg">
<path opacity="0.9" fill-rule="evenodd" clip-rule="evenodd" d="M100.273 25.0001C99.7526 35.581 91.0102 44 80.3014 44C69.2579 44 60.3051 35.0455 60.3051 23.9998C60.3051 12.9542 69.2579 4 80.3014 4C90.6704 4 99.1959 11.8935 100.199 22.0001H91.1182C90.1779 16.8797 85.6927 13.0001 80.3017 13.0001C74.2275 13.0001 69.3035 17.9249 69.3035 23.9998C69.3035 30.0752 74.2275 35 80.3017 35C84.9649 35 88.9499 32.0972 90.5498 28.0001H75.3026V25.0001H100.273ZM24.3078 38.8321C32.1568 45.9453 44.2905 45.7154 51.8626 38.1422C59.6716 30.3315 59.6716 17.6685 51.8626 9.85789C44.0535 2.04752 31.3925 2.04752 23.5834 9.85789C16.2515 17.1912 15.8035 28.8021 22.2393 36.6583L28.6605 30.236C25.7055 25.9504 26.1341 20.0348 29.9462 16.222C34.2412 11.9262 41.2048 11.9262 45.4999 16.222C49.7947 20.5179 49.7947 27.4825 45.4999 31.7784C42.2025 35.0764 37.3323 35.8424 33.3042 34.0764L44.0858 23.2929L41.9649 21.1718L30.6849 32.4536L24.3078 38.8321Z" fill="white"/>
</svg>
