<svg width="118" height="48" viewBox="0 0 118 48" fill="none" xmlns="http://www.w3.org/2000/svg">
<path opacity="0.9" fill-rule="evenodd" clip-rule="evenodd" d="M4.00401 16.9872H16.1581V18.9498H5.96958V21.3712H16.114V31.0127H4V29.0502H14.1485V26.8341H4.00401V16.9872ZM14.1485 24.8706V23.3338H5.96958V24.8706H14.1485ZM18.7288 16.9872H20.6934V23.6273H29.6176V16.9872H31.5821V25.5899H26.1372V31.0127H24.1727V25.5899H18.7278V16.9872H18.7288ZM34.277 16.9872H47.1314V31.0127H45.1668V18.9498H41.7797V25.2473H39.8151V18.9498H36.2426V31.0127H34.2781V16.9872H34.277ZM49.7422 16.9872H62.1878V31.0127H49.7422V16.9872ZM51.7077 18.9498V23.0833H60.2232V18.9498H51.7077ZM60.2232 25.0459H51.7077V29.0502H60.2232V25.0459ZM65.3185 31.0127V16.9872H67.2841V31.0127H65.3185ZM70.4137 16.9872H82.8594V31.0127H70.4137V16.9872ZM72.3793 18.9498V29.0502H80.8938V18.9498H72.3793ZM89.3792 18.9498H84.824V16.9872H95.7137V18.9498H91.3448V31.0127H89.3792V18.9498ZM98.1792 31.0127V16.9872H100.145V31.0127H98.1792ZM102.537 16.9872H114V18.9498H104.503V29.0502H114V31.0127H102.537V16.9872Z" fill="white"/>
</svg>
