<svg width="118" height="48" viewBox="0 0 118 48" fill="none" xmlns="http://www.w3.org/2000/svg">
<path d="M85.1879 32.4582C83.9778 32.4582 82.9946 32.2307 82.2361 31.5821C81.4954 30.9176 81.1818 30.0134 81.1818 28.9534V18.8772C81.1818 17.8014 81.4954 16.8972 82.2361 16.2486C82.9946 15.5999 83.9778 15.3724 85.1879 15.3724H91.7241C92.9523 15.3724 93.9355 15.5999 94.6759 16.2486C95.4165 16.8972 95.7302 17.8014 95.7302 18.8772V28.9534C95.7302 30.0134 95.4165 30.9176 94.6759 31.5821C93.9355 32.2307 92.9523 32.4582 91.7241 32.4582H85.1879ZM90.2481 29.1725C90.6817 29.1725 91.0676 29.1591 91.3024 28.9534C91.5553 28.7477 91.7241 28.4569 91.7241 28.0773V19.7533C91.7241 19.3737 91.5553 19.0829 91.3024 18.8772C91.0676 18.6715 90.6817 18.6581 90.2481 18.6581H86.6638C86.2123 18.6581 85.8444 18.6715 85.6096 18.8772C85.3748 19.0829 85.1879 19.3737 85.1879 19.7533V28.0773C85.1879 28.4569 85.3748 28.7477 85.6096 28.9534C85.8444 29.1591 86.2123 29.1725 86.6638 29.1725H90.2481Z" fill="white"/>
<path d="M77.4595 32.2889H73.3995V15.5414H77.4595V32.2889Z" fill="white"/>
<path d="M59.1357 32.2889H55.1297V15.5414H59.3467L65.672 25.776V15.5414H69.678V32.2889H65.461L59.1357 22.0543V32.2889Z" fill="white"/>
<path d="M103.458 32.2889H99.4517V15.5414H103.669L109.994 25.776V15.5414H114V32.2889H109.783L103.458 22.0543V32.2889Z" fill="white"/>
<path d="M41.0471 32.4581C39.8351 32.4581 38.8464 32.2306 38.0866 31.5793C37.345 30.9122 37.0293 30.0072 37.0293 28.943V15.5414H41.0471V28.0641C41.0471 28.4453 41.2348 28.7364 41.47 28.943C41.7051 29.1493 42.0751 29.1625 42.5273 29.1625H45.9106C46.3628 29.1625 46.7328 29.1493 46.9679 28.943C47.203 28.7364 47.3908 28.4453 47.3908 28.0641V15.5414H51.4085V28.943C51.4085 30.0072 51.0929 30.9122 50.3512 31.5793C49.6096 32.2306 48.6207 32.4581 47.3908 32.4581H41.0471Z" fill="white"/>
<path fill-rule="evenodd" clip-rule="evenodd" d="M24.3 29.075C24.3 34.6807 19.7557 39.225 14.15 39.225C8.54431 39.225 4 34.6807 4 29.075H8.97144C8.97144 31.8778 11.3472 34.15 14.15 34.15C16.9528 34.15 19.3286 31.8778 19.3286 29.075H24.3Z" fill="white"/>
<path d="M26.9629 26.4127H31.9546V21.421H26.9629V26.4127Z" fill="white"/>
<path d="M24.3003 21.421H19.3086V26.4127H24.3003V21.421Z" fill="white"/>
<path d="M11.6543 26.4127H16.6461V21.421H11.6543V26.4127Z" fill="white"/>
<path d="M8.99181 21.421H4V26.4127H8.99181V21.421Z" fill="white"/>
<path fill-rule="evenodd" clip-rule="evenodd" d="M11.6543 18.925C11.6543 13.3193 16.1986 8.77496 21.8043 8.77496C27.41 8.77496 31.9543 13.3193 31.9543 18.925H26.9828C26.9828 16.1221 24.607 13.85 21.8043 13.85C19.0015 13.85 16.6258 16.1221 16.6258 18.925H11.6543Z" fill="white"/>
</svg>
