<svg width="16" height="17" viewBox="0 0 16 17" fill="none" xmlns="http://www.w3.org/2000/svg">
<path opacity="0.4" d="M4.6665 11.8333V9.16667" stroke="#0008FF" stroke-width="1.5" stroke-linecap="round"/>
<path opacity="0.4" d="M8 11.8333V5.16667" stroke="#0008FF" stroke-width="1.5" stroke-linecap="round"/>
<path opacity="0.4" d="M11.3335 11.8333V7.83333" stroke="#0008FF" stroke-width="1.5" stroke-linecap="round"/>
<path d="M1.6665 8.5C1.6665 5.51444 1.6665 4.02166 2.594 3.09416C3.5215 2.16667 5.01428 2.16667 7.99984 2.16667C10.9854 2.16667 12.4782 2.16667 13.4057 3.09416C14.3332 4.02166 14.3332 5.51444 14.3332 8.5C14.3332 11.4855 14.3332 12.9783 13.4057 13.9059C12.4782 14.8333 10.9854 14.8333 7.99984 14.8333C5.01428 14.8333 3.5215 14.8333 2.594 13.9059C1.6665 12.9783 1.6665 11.4855 1.6665 8.5Z" stroke="#0008FF" stroke-width="1.5" stroke-linejoin="round"/>
</svg>
