<svg width="16" height="17" viewBox="0 0 16 17" fill="none" xmlns="http://www.w3.org/2000/svg">
<path opacity="0.4" d="M4.66675 11.8334V9.16675" stroke="#667085" stroke-width="1.5" stroke-linecap="round"/>
<path opacity="0.4" d="M8 11.8334V5.16675" stroke="#667085" stroke-width="1.5" stroke-linecap="round"/>
<path opacity="0.4" d="M11.3333 11.8333V7.83325" stroke="#667085" stroke-width="1.5" stroke-linecap="round"/>
<path d="M1.66675 8.50008C1.66675 5.51452 1.66675 4.02174 2.59424 3.09424C3.52174 2.16675 5.01452 2.16675 8.00008 2.16675C10.9856 2.16675 12.4784 2.16675 13.4059 3.09424C14.3334 4.02174 14.3334 5.51452 14.3334 8.50008C14.3334 11.4856 14.3334 12.9784 13.4059 13.9059C12.4784 14.8334 10.9856 14.8334 8.00008 14.8334C5.01452 14.8334 3.52174 14.8334 2.59424 13.9059C1.66675 12.9784 1.66675 11.4856 1.66675 8.50008Z" stroke="#667085" stroke-width="1.5" stroke-linejoin="round"/>
</svg>
