<svg width="16" height="17" viewBox="0 0 16 17" fill="none" xmlns="http://www.w3.org/2000/svg">
<path opacity="0.4" d="M10.6665 3.83334C10.6665 3.21208 10.6665 2.90146 10.768 2.65642C10.9033 2.32972 11.1629 2.07016 11.4896 1.93483C11.7346 1.83334 12.0452 1.83334 12.6665 1.83334C13.2878 1.83334 13.5984 1.83334 13.8434 1.93483C14.1701 2.07016 14.4297 2.32972 14.565 2.65642C14.6665 2.90146 14.6665 3.21208 14.6665 3.83334V6.5C14.6665 7.12126 14.6665 7.43187 14.565 7.67694C14.4297 8.0036 14.1701 8.2632 13.8434 8.39854C13.5984 8.5 13.2878 8.5 12.6665 8.5C12.0452 8.5 11.7346 8.5 11.4896 8.39854C11.1629 8.2632 10.9033 8.0036 10.768 7.67694C10.6665 7.43187 10.6665 7.12126 10.6665 6.5V3.83334Z" stroke="#0008FF" stroke-width="1.5"/>
<path d="M10.6665 13.1667C10.6665 12.5454 10.6665 12.2348 10.768 11.9897C10.9033 11.6631 11.1629 11.4035 11.4896 11.2681C11.7346 11.1667 12.0452 11.1667 12.6665 11.1667C13.2878 11.1667 13.5984 11.1667 13.8434 11.2681C14.1701 11.4035 14.4297 11.6631 14.565 11.9897C14.6665 12.2348 14.6665 12.5454 14.6665 13.1667C14.6665 13.7879 14.6665 14.0985 14.565 14.3436C14.4297 14.6703 14.1701 14.9299 13.8434 15.0652C13.5984 15.1667 13.2878 15.1667 12.6665 15.1667C12.0452 15.1667 11.7346 15.1667 11.4896 15.0652C11.1629 14.9299 10.9033 14.6703 10.768 14.3436C10.6665 14.0985 10.6665 13.7879 10.6665 13.1667Z" stroke="#0008FF" stroke-width="1.5"/>
<path d="M1.3335 11.1667C1.3335 9.9096 1.3335 9.28107 1.72402 8.89053C2.11454 8.5 2.74308 8.5 4.00016 8.5H5.3335C6.59058 8.5 7.2191 8.5 7.60963 8.89053C8.00016 9.28107 8.00016 9.9096 8.00016 11.1667V12.5C8.00016 13.7571 8.00016 14.3856 7.60963 14.7761C7.2191 15.1667 6.59058 15.1667 5.3335 15.1667H4.00016C2.74308 15.1667 2.11454 15.1667 1.72402 14.7761C1.3335 14.3856 1.3335 13.7571 1.3335 12.5V11.1667Z" stroke="#0008FF" stroke-width="1.5"/>
<path d="M1.3335 3.83334C1.3335 3.21208 1.3335 2.90146 1.43499 2.65642C1.57032 2.32972 1.82988 2.07016 2.15658 1.93483C2.40162 1.83334 2.71224 1.83334 3.3335 1.83334H6.00016C6.62142 1.83334 6.93203 1.83334 7.1771 1.93483C7.50376 2.07016 7.76336 2.32972 7.8987 2.65642C8.00016 2.90146 8.00016 3.21208 8.00016 3.83334C8.00016 4.45459 8.00016 4.76522 7.8987 5.01025C7.76336 5.33695 7.50376 5.59652 7.1771 5.73184C6.93203 5.83334 6.62142 5.83334 6.00016 5.83334H3.3335C2.71224 5.83334 2.40162 5.83334 2.15658 5.73184C1.82988 5.59652 1.57032 5.33695 1.43499 5.01025C1.3335 4.76522 1.3335 4.45459 1.3335 3.83334Z" stroke="#0008FF" stroke-width="1.5"/>
</svg>
