<svg width="16" height="17" viewBox="0 0 16 17" fill="none" xmlns="http://www.w3.org/2000/svg">
<path opacity="0.4" d="M10.6667 3.83325C10.6667 3.212 10.6667 2.90137 10.7682 2.65634C10.9035 2.32964 11.1631 2.07007 11.4898 1.93475C11.7349 1.83325 12.0455 1.83325 12.6667 1.83325C13.288 1.83325 13.5986 1.83325 13.8437 1.93475C14.1703 2.07007 14.4299 2.32964 14.5653 2.65634C14.6667 2.90137 14.6667 3.212 14.6667 3.83325V6.49992C14.6667 7.12117 14.6667 7.43178 14.5653 7.67685C14.4299 8.00352 14.1703 8.26312 13.8437 8.39845C13.5986 8.49992 13.288 8.49992 12.6667 8.49992C12.0455 8.49992 11.7349 8.49992 11.4898 8.39845C11.1631 8.26312 10.9035 8.00352 10.7682 7.67685C10.6667 7.43178 10.6667 7.12117 10.6667 6.49992V3.83325Z" stroke="#667085" stroke-width="1.5"/>
<path d="M10.6667 13.1667C10.6667 12.5455 10.6667 12.2349 10.7682 11.9898C10.9035 11.6631 11.1631 11.4035 11.4898 11.2682C11.7349 11.1667 12.0455 11.1667 12.6667 11.1667C13.288 11.1667 13.5986 11.1667 13.8437 11.2682C14.1703 11.4035 14.4299 11.6631 14.5653 11.9898C14.6667 12.2349 14.6667 12.5455 14.6667 13.1667C14.6667 13.788 14.6667 14.0986 14.5653 14.3437C14.4299 14.6703 14.1703 14.9299 13.8437 15.0653C13.5986 15.1667 13.288 15.1667 12.6667 15.1667C12.0455 15.1667 11.7349 15.1667 11.4898 15.0653C11.1631 14.9299 10.9035 14.6703 10.7682 14.3437C10.6667 14.0986 10.6667 13.788 10.6667 13.1667Z" stroke="#667085" stroke-width="1.5"/>
<path d="M1.33325 11.1667C1.33325 9.9096 1.33325 9.28107 1.72378 8.89053C2.1143 8.5 2.74284 8.5 3.99992 8.5H5.33325C6.59033 8.5 7.21885 8.5 7.60938 8.89053C7.99992 9.28107 7.99992 9.9096 7.99992 11.1667V12.5C7.99992 13.7571 7.99992 14.3856 7.60938 14.7761C7.21885 15.1667 6.59033 15.1667 5.33325 15.1667H3.99992C2.74284 15.1667 2.1143 15.1667 1.72378 14.7761C1.33325 14.3856 1.33325 13.7571 1.33325 12.5V11.1667Z" stroke="#667085" stroke-width="1.5"/>
<path d="M1.33325 3.83325C1.33325 3.212 1.33325 2.90137 1.43475 2.65634C1.57007 2.32964 1.82964 2.07007 2.15634 1.93475C2.40137 1.83325 2.712 1.83325 3.33325 1.83325H5.99992C6.62117 1.83325 6.93178 1.83325 7.17685 1.93475C7.50352 2.07007 7.76312 2.32964 7.89845 2.65634C7.99992 2.90137 7.99992 3.212 7.99992 3.83325C7.99992 4.45451 7.99992 4.76513 7.89845 5.01017C7.76312 5.33687 7.50352 5.59643 7.17685 5.73176C6.93178 5.83325 6.62117 5.83325 5.99992 5.83325H3.33325C2.712 5.83325 2.40137 5.83325 2.15634 5.73176C1.82964 5.59643 1.57007 5.33687 1.43475 5.01017C1.33325 4.76513 1.33325 4.45451 1.33325 3.83325Z" stroke="#667085" stroke-width="1.5"/>
</svg>
