<svg width="14" height="14" viewBox="0 0 14 14" fill="none" xmlns="http://www.w3.org/2000/svg">
<path fill-rule="evenodd" clip-rule="evenodd" d="M11.137 1.28043C10.8776 1.08938 10.5124 1.14479 10.3214 1.40419C10.2445 1.50847 10.2076 1.62984 10.2077 1.75012V2.62515H5.54102C3.05884 2.62515 1.16602 4.44655 1.16602 7.00014C1.16602 7.32232 1.42719 7.58347 1.74935 7.58347C2.07151 7.58347 2.33268 7.32232 2.33268 7.00014C2.33268 5.10296 3.69103 3.79182 5.54102 3.79182H10.2077V4.67157C10.2086 4.79028 10.2456 4.90981 10.3214 5.01271C10.5124 5.27211 10.8776 5.32746 11.137 5.13641L11.139 5.13493C11.1829 5.1018 11.3078 5.00749 11.3778 4.95284C11.5194 4.84233 11.7102 4.68934 11.9027 4.52222C12.0923 4.35761 12.2968 4.16782 12.4586 3.9847C12.539 3.89381 12.6211 3.79079 12.6863 3.68263C12.7419 3.59048 12.8327 3.41896 12.8327 3.20846C12.8327 2.99797 12.7419 2.82645 12.6863 2.7343C12.6211 2.62614 12.539 2.52312 12.4586 2.43223C12.2969 2.24911 12.0923 2.05931 11.9027 1.89471C11.7102 1.72759 11.5194 1.57459 11.3778 1.46408C11.3079 1.40951 11.1832 1.31536 11.1392 1.28208L11.137 1.28043Z" fill="#0008FF"/>
<path fill-rule="evenodd" clip-rule="evenodd" d="M8.45768 11.3751C10.9399 11.3751 12.8327 9.55368 12.8327 7.00008C12.8327 6.67791 12.5715 6.41675 12.2493 6.41675C11.9272 6.41675 11.666 6.67791 11.666 7.00008C11.666 8.89726 10.3077 10.2084 8.45768 10.2084H3.79104V9.33341C3.79114 9.21313 3.75417 9.09174 3.67737 8.9875C3.48631 8.72809 3.12105 8.67273 2.86165 8.86377L2.85962 8.86529C2.81571 8.89848 2.69092 8.99275 2.62092 9.04735C2.47932 9.15789 2.28855 9.3109 2.09607 9.47802C1.90649 9.64258 1.70188 9.8324 1.54007 10.0155C1.45976 10.1064 1.37764 10.2094 1.31244 10.3176C1.25689 10.4097 1.16602 10.5813 1.16602 10.7917C1.16602 11.0022 1.25688 11.1738 1.31243 11.2659C1.37764 11.3741 1.45976 11.4771 1.54007 11.568C1.70188 11.7511 1.90649 11.9409 2.09608 12.1055C2.28856 12.2726 2.47933 12.4256 2.62094 12.5361C2.69091 12.5907 2.81572 12.685 2.85968 12.7182L2.86176 12.7198C3.12117 12.9108 3.48634 12.8554 3.67738 12.596C3.75471 12.491 3.79166 12.3687 3.79104 12.2476V11.3751H8.45768Z" fill="#0008FF"/>
</svg>
