<svg width="16" height="17" viewBox="0 0 16 17" fill="none" xmlns="http://www.w3.org/2000/svg">
<path d="M11.7199 6.97344C11.3843 6.88209 11.0312 6.83333 10.6667 6.83333C8.97787 6.83333 7.53347 7.87993 6.9468 9.35987M11.7199 6.97344C13.4181 7.43573 14.6667 8.98873 14.6667 10.8333C14.6667 13.0425 12.8758 14.8333 10.6667 14.8333C9.6422 14.8333 8.70767 14.4482 8 13.8148C7.18167 13.0824 6.66667 12.018 6.66667 10.8333C6.66667 10.313 6.766 9.81587 6.9468 9.35987M11.7199 6.97344C11.9007 6.51745 12 6.02033 12 5.5C12 3.29086 10.2091 1.5 8 1.5C5.79086 1.5 4 3.29086 4 5.5C4 6.02033 4.09935 6.51745 4.28012 6.97344C4.74019 8.134 5.72764 9.028 6.9468 9.35987" stroke="#0008FF" stroke-width="1.5" stroke-linecap="round"/>
<path opacity="0.4" d="M4.3335 7.16666C2.63534 7.62893 1.3335 8.98873 1.3335 10.8333C1.3335 13.0425 3.12436 14.8333 5.3335 14.8333C6.35797 14.8333 7.2925 14.4482 8.00016 13.8149" stroke="#0008FF" stroke-width="1.5" stroke-linecap="round"/>
</svg>
