<svg width="24" height="24" viewBox="0 0 24 24" fill="none" xmlns="http://www.w3.org/2000/svg">
<path d="M16.1666 7.42221H14.4999C14.4999 6.96666 14.1221 6.58888 13.6666 6.58888H10.3333C9.8777 6.58888 9.49992 6.96666 9.49992 7.42221H7.83325C7.83325 6.04443 8.95547 4.92221 10.3333 4.92221H13.6666C15.0444 4.92221 16.1666 6.04443 16.1666 7.42221Z" fill="#666BFF"/>
<path d="M16.9998 17.4111H5.33317V9.07776H3.6665V17.4111L5.33317 19.0778H18.6665L16.9998 17.4111Z" fill="#0008FF"/>
<path d="M18.6666 12.4222H5.33325V14.0889H18.6666V12.4222Z" fill="#0008FF"/>
<path d="M12.8332 11.5889H11.1665V14.9222H12.8332V11.5889Z" fill="#0008FF"/>
<path d="M18.6666 7.42221H5.33325L6.99992 9.08888H18.6666V17.4222H20.3333V9.08888L18.6666 7.42221Z" fill="#666BFF"/>
</svg>
