<svg width="16" height="17" viewBox="0 0 16 17" fill="none" xmlns="http://www.w3.org/2000/svg">
<path d="M6.6665 5.18453C6.9885 3.28215 8.64417 1.83333 10.6382 1.83333C12.863 1.83333 14.6665 3.63687 14.6665 5.86166C14.6665 7.85566 13.2177 9.51133 11.3153 9.83333" stroke="#0008FF" stroke-width="1.5" stroke-linecap="round" stroke-linejoin="round"/>
<path d="M5.3335 15.1667C7.54263 15.1667 9.3335 13.3758 9.3335 11.1667C9.3335 8.95754 7.54263 7.16667 5.3335 7.16667C3.12436 7.16667 1.3335 8.95754 1.3335 11.1667C1.3335 13.3758 3.12436 15.1667 5.3335 15.1667Z" stroke="#0008FF" stroke-width="1.5" stroke-linecap="round" stroke-linejoin="round"/>
<path opacity="0.4" d="M1.3335 6.5C1.3335 4.28857 3.12207 2.5 5.3335 2.5L4.76207 3.64286" stroke="#0008FF" stroke-width="1.5" stroke-linecap="round" stroke-linejoin="round"/>
<path opacity="0.4" d="M14.6665 10.5C14.6665 12.7114 12.8779 14.5 10.6665 14.5L11.2379 13.3571" stroke="#0008FF" stroke-width="1.5" stroke-linecap="round" stroke-linejoin="round"/>
</svg>
