<svg width="16" height="17" viewBox="0 0 16 17" fill="none" xmlns="http://www.w3.org/2000/svg">
<path d="M6.66675 5.18445C6.98875 3.28207 8.64442 1.83325 10.6384 1.83325C12.8632 1.83325 14.6667 3.6368 14.6667 5.86159C14.6667 7.85559 13.2179 9.51125 11.3155 9.83325" stroke="#667085" stroke-width="1.5" stroke-linecap="round" stroke-linejoin="round"/>
<path d="M5.33325 15.1667C7.54239 15.1667 9.33325 13.3759 9.33325 11.1667C9.33325 8.95761 7.54239 7.16675 5.33325 7.16675C3.12411 7.16675 1.33325 8.95761 1.33325 11.1667C1.33325 13.3759 3.12411 15.1667 5.33325 15.1667Z" stroke="#667085" stroke-width="1.5" stroke-linecap="round" stroke-linejoin="round"/>
<path opacity="0.4" d="M1.33325 6.5C1.33325 4.28857 3.12183 2.5 5.33325 2.5L4.76183 3.64286" stroke="#667085" stroke-width="1.5" stroke-linecap="round" stroke-linejoin="round"/>
<path opacity="0.4" d="M14.6667 10.5C14.6667 12.7114 12.8781 14.5 10.6667 14.5L11.2381 13.3571" stroke="#667085" stroke-width="1.5" stroke-linecap="round" stroke-linejoin="round"/>
</svg>
