<svg width="16" height="16" viewBox="0 0 16 16" fill="none" xmlns="http://www.w3.org/2000/svg">
<path d="M2 2.66669V9.33335C2 11.219 2 12.1618 2.58579 12.7476C3.17157 13.3334 4.11438 13.3334 6 13.3334H14" stroke="#0008FF" stroke-linecap="round" stroke-linejoin="round"/>
<path d="M4 9.33335L6.16667 7.16669C6.59603 6.73729 6.81073 6.52263 7.0618 6.45179C7.2394 6.40171 7.42727 6.40171 7.60487 6.45179C7.85593 6.52263 8.0706 6.73729 8.5 7.16669C8.9294 7.59609 9.14407 7.81075 9.39513 7.88155C9.57273 7.93169 9.7606 7.93169 9.9382 7.88155C10.1893 7.81075 10.4039 7.59609 10.8333 7.16669L13.3333 4.66669" stroke="#0008FF" stroke-linecap="round" stroke-linejoin="round"/>
</svg>
