<svg width="16" height="16" viewBox="0 0 16 16" fill="none" xmlns="http://www.w3.org/2000/svg">
<path d="M2.75 3.33334V9.16668C2.75 10.8166 2.75 11.6415 3.26256 12.1541C3.77513 12.6667 4.60008 12.6667 6.25 12.6667H13.25" stroke="white" stroke-linecap="round" stroke-linejoin="round"/>
<path d="M4.5 9.16668L6.39583 7.27084C6.77153 6.89512 6.95939 6.7073 7.17907 6.64531C7.33447 6.60149 7.49886 6.60149 7.65426 6.64531C7.87394 6.7073 8.06177 6.89512 8.4375 7.27084C8.81322 7.64657 9.00106 7.8344 9.22074 7.89635C9.37614 7.94022 9.54052 7.94022 9.69592 7.89635C9.91561 7.8344 10.1034 7.64657 10.4792 7.27084L12.6667 5.08334" stroke="white" stroke-linecap="round" stroke-linejoin="round"/>
</svg>
