<svg width="14" height="14" viewBox="0 0 14 14" fill="none" xmlns="http://www.w3.org/2000/svg">
<path d="M1.75 2.3335V8.16683C1.75 9.81673 1.75 10.6417 2.26256 11.1543C2.77513 11.6668 3.60008 11.6668 5.25 11.6668H12.25" stroke="#777e90" stroke-linecap="round" stroke-linejoin="round"/>
<path d="M3.5 8.16683L5.39583 6.271C5.77153 5.89527 5.95939 5.70745 6.17907 5.64546C6.33447 5.60164 6.49886 5.60164 6.65426 5.64546C6.87394 5.70745 7.06177 5.89527 7.4375 6.271C7.81322 6.64672 8.00106 6.83455 8.22074 6.8965C8.37614 6.94037 8.54052 6.94037 8.69592 6.8965C8.91561 6.83455 9.10344 6.64672 9.47917 6.271L11.6667 4.0835" stroke="#777e90" stroke-linecap="round" stroke-linejoin="round"/>
</svg>
