<svg width="14" height="14" viewBox="0 0 14 14" fill="none" xmlns="http://www.w3.org/2000/svg">
<path d="M0.729492 9.33301C0.729492 7.1584 2.49237 5.39551 4.66699 5.39551C6.8416 5.39551 8.60449 7.1584 8.60449 9.33301C8.60449 11.5076 6.8416 13.2705 4.66699 13.2705C2.49237 13.2705 0.729492 11.5076 0.729492 9.33301Z" fill="#175CD3"/>
<path fill-rule="evenodd" clip-rule="evenodd" d="M3.64616 2.22585C2.48451 2.43204 1.60449 3.4451 1.60449 4.66667H0.729492C0.729492 2.81254 2.22953 1.3125 4.08366 1.3125H4.52116V2.91667H3.64616V2.22585Z" fill="#175CD3"/>
<path fill-rule="evenodd" clip-rule="evenodd" d="M10.3545 11.7738C11.5161 11.5676 12.3962 10.5546 12.3962 9.33301H13.2712C13.2712 11.1871 11.7711 12.6872 9.91699 12.6872H9.47949V11.083H10.3545V11.7738Z" fill="#175CD3"/>
<path d="M9.42378 8.60344C9.10819 6.53022 7.46973 4.89177 5.39648 4.5762C5.44474 2.44351 7.18868 0.729492 9.33295 0.729492C11.5076 0.729492 13.2705 2.49237 13.2705 4.66699C13.2705 6.81127 11.5564 8.5552 9.42378 8.60344Z" fill="#175CD3"/>
</svg>
