<svg width="16" height="16" viewBox="0 0 16 16" fill="none" xmlns="http://www.w3.org/2000/svg">
<path d="M6.66699 4.68454C6.98899 2.78216 8.64466 1.33334 10.6387 1.33334C12.8635 1.33334 14.667 3.13689 14.667 5.36168C14.667 7.35568 13.2182 9.01134 11.3158 9.33334" stroke="white" stroke-linecap="round" stroke-linejoin="round"/>
<path d="M5.33301 14.6667C7.54214 14.6667 9.33301 12.8758 9.33301 10.6667C9.33301 8.45752 7.54214 6.66666 5.33301 6.66666C3.12387 6.66666 1.33301 8.45752 1.33301 10.6667C1.33301 12.8758 3.12387 14.6667 5.33301 14.6667Z" stroke="white" stroke-linecap="round" stroke-linejoin="round"/>
<path d="M1.33301 6C1.33301 3.78857 3.12158 2 5.33301 2L4.76158 3.14286" stroke="white" stroke-linecap="round" stroke-linejoin="round"/>
<path d="M14.667 10C14.667 12.2114 12.8784 14 10.667 14L11.2384 12.8571" stroke="white" stroke-linecap="round" stroke-linejoin="round"/>
</svg>
