<svg width="14" height="14" viewBox="0 0 14 14" fill="none" xmlns="http://www.w3.org/2000/svg">
<path d="M5.8335 4.0988C6.11525 2.43422 7.56395 1.1665 9.3087 1.1665C11.2554 1.1665 12.8335 2.74461 12.8335 4.6913C12.8335 6.43605 11.5658 7.88475 9.9012 8.1665" stroke="#777e90" stroke-linecap="round" stroke-linejoin="round"/>
<path d="M4.6665 12.8335C6.5995 12.8335 8.1665 11.2665 8.1665 9.3335C8.1665 7.4005 6.5995 5.8335 4.6665 5.8335C2.73351 5.8335 1.1665 7.4005 1.1665 9.3335C1.1665 11.2665 2.73351 12.8335 4.6665 12.8335Z" stroke="#777e90" stroke-linecap="round" stroke-linejoin="round"/>
<path d="M1.1665 5.25C1.1665 3.315 2.73151 1.75 4.6665 1.75L4.16651 2.75" stroke="#777e90" stroke-linecap="round" stroke-linejoin="round"/>
<path d="M12.8335 8.75C12.8335 10.685 11.2685 12.25 9.3335 12.25L9.83347 11.25" stroke="#777e90" stroke-linecap="round" stroke-linejoin="round"/>
</svg>
