<svg width="16" height="17" viewBox="0 0 16 17" fill="none" xmlns="http://www.w3.org/2000/svg">
<path opacity="0.4" d="M10 11.8333C9.46701 12.2483 8.76681 12.5 8.00001 12.5C7.23315 12.5 6.53302 12.2483 6 11.8333" stroke="#667085" stroke-width="1.5" stroke-linecap="round"/>
<path d="M1.56776 9.30901C1.33241 7.77748 1.21474 7.01176 1.50428 6.33293C1.79381 5.65409 2.43618 5.18963 3.72092 4.26072L4.68082 3.56668C6.27902 2.41112 7.07811 1.83334 8.00018 1.83334C8.92218 1.83334 9.72131 2.41112 11.3195 3.56668L12.2794 4.26072C13.5642 5.18963 14.2065 5.65409 14.496 6.33293C14.7856 7.01176 14.6679 7.77748 14.4326 9.30901L14.2319 10.6149C13.8982 12.7859 13.7314 13.8715 12.9528 14.5191C12.1742 15.1667 11.0359 15.1667 8.75938 15.1667H7.24098C4.96439 15.1667 3.8261 15.1667 3.0475 14.5191C2.26889 13.8715 2.10208 12.7859 1.76845 10.6149L1.56776 9.30901Z" stroke="#667085" stroke-width="1.5" stroke-linejoin="round"/>
</svg>
