<svg width="16" height="17" viewBox="0 0 16 17" fill="none" xmlns="http://www.w3.org/2000/svg">
<path opacity="0.4" d="M10 11.8333C9.46701 12.2482 8.76681 12.4999 8.00001 12.4999C7.23315 12.4999 6.53302 12.2482 6 11.8333" stroke="#0008FF" stroke-width="1.5" stroke-linecap="round"/>
<path d="M1.56776 9.30892C1.33241 7.77738 1.21474 7.01167 1.50428 6.33284C1.79381 5.654 2.43618 5.18954 3.72092 4.26063L4.68082 3.56659C6.27902 2.41103 7.07811 1.83325 8.00018 1.83325C8.92218 1.83325 9.72131 2.41103 11.3195 3.56659L12.2794 4.26063C13.5642 5.18954 14.2065 5.654 14.496 6.33284C14.7856 7.01167 14.6679 7.77738 14.4326 9.30892L14.2319 10.6149C13.8982 12.7859 13.7314 13.8714 12.9528 14.519C12.1742 15.1666 11.0359 15.1666 8.75938 15.1666H7.24098C4.96439 15.1666 3.8261 15.1666 3.0475 14.519C2.26889 13.8714 2.10208 12.7859 1.76845 10.6149L1.56776 9.30892Z" stroke="#0008FF" stroke-width="1.5" stroke-linejoin="round"/>
</svg>
