<svg width="24" height="24" viewBox="0 0 24 24" fill="none" xmlns="http://www.w3.org/2000/svg">
<g id="liquidity-pool_icon">
<g id="Group 163300">
<path id="Vector" d="M8.16654 11.2889L12.011 6.1667L15.8665 11.3C16.4554 12.0889 16.7665 13.0111 16.7999 13.9556H18.4888C18.4554 12.6778 18.0221 11.4 17.1999 10.3L12.011 3.37781L6.8332 10.2889C5.99987 11.4 5.56654 12.6778 5.5332 13.9667H7.2332C7.26654 13.0223 7.56654 12.0778 8.16654 11.2889Z" fill="#0008FF"/>
<path id="Vector_2" d="M16.7886 13.9667C16.8553 15.3556 16.3219 16.7556 15.2331 17.7445C13.4442 19.3556 10.5331 19.3556 8.75527 17.7333C7.6775 16.7445 7.16638 15.3556 7.22194 13.9667H7.19972L5.65527 15.5222C5.92194 16.8 6.58861 18.0111 7.63305 18.9556C8.85527 20.0778 10.4331 20.6333 11.9997 20.6333C13.5664 20.6333 15.1331 20.0778 16.3553 18.9778C17.3997 18.0222 18.0775 16.8111 18.3442 15.5111L16.7997 13.9667H16.7886Z" fill="#666BFF"/>
</g>
</g>
</svg>
