<svg width="20" height="17" viewBox="0 0 20 17" fill="none" xmlns="http://www.w3.org/2000/svg">
<path d="M12.361 15V17H5.25102C4.15102 17 3.25102 16.1 3.25102 15V5.41L1.46102 7.21L0.0410156 5.79L3.54102 2.29C3.93102 1.9 4.57102 1.9 4.96102 2.29C5.14102 2.48 5.25102 2.73 5.25102 2.99V15H12.361Z" fill="white"/>
<path d="M19.461 11.21L15.961 14.71C15.571 15.1 14.931 15.1 14.541 14.71C14.361 14.52 14.251 14.27 14.251 14.01V2H7.25101V0H14.251C15.351 0 16.251 0.9 16.251 2V11.59L18.041 9.79L19.461 11.21Z" fill="white"/>
</svg>
