<svg width="15" height="14" viewBox="0 0 15 14" fill="none" xmlns="http://www.w3.org/2000/svg">
<path d="M11.9681 0H3.12598L4.59966 1.47368H10.4944L11.9681 0Z" fill="black"/>
<path d="M5.33697 12.5261L3.86328 13.9998H11.2317L9.75803 12.5261H5.33697Z" fill="black"/>
<path d="M14.8372 2.99644C14.5818 2.51504 14.0807 2.2203 13.5305 2.2203H11.9684V1.48346H10.4948V7.37819C10.4948 7.96767 10.3179 8.51784 10.0133 8.9796L9.96422 9.05819C9.4337 9.82451 8.54949 10.3256 7.54738 10.3256C6.54528 10.3256 5.67089 9.82451 5.13054 9.05819L5.07159 8.96977C4.77686 8.50802 4.59019 7.95784 4.59019 7.36837V1.47363H3.11651V2.21047H1.5544C1.01405 2.21047 0.512996 2.50521 0.257557 2.98662C0.00211872 3.46802 0.0315921 4.04767 0.326329 4.4996L3.85335 9.78521L3.90247 9.86381L3.98107 9.9817H3.99089C4.79651 11.0624 6.08353 11.7796 7.53756 11.7796C8.9916 11.7796 10.2786 11.0624 11.0842 9.97188H11.0941L11.1727 9.86381L11.2218 9.79504L14.7488 4.4996C15.0534 4.04767 15.0828 3.46802 14.8274 2.98662L14.8372 2.99644ZM3.12633 3.68416V6.03223L1.56423 3.68416H3.12633ZM11.9684 6.04205V3.68416H13.5404L11.9684 6.04205Z" fill="black"/>
</svg>
