<svg width="24" height="24" viewBox="0 0 24 24" fill="none" xmlns="http://www.w3.org/2000/svg">
<path d="M17 4.07788H7L8.66667 5.74455H15.3333L17 4.07788Z" fill="#666BFF"/>
<path d="M9.4987 18.2446L7.83203 19.9113H16.1654L14.4987 18.2446H9.4987Z" fill="#666BFF"/>
<path d="M20.2438 7.46685C19.9549 6.92241 19.3882 6.58907 18.766 6.58907H16.9993V5.75574H15.3327V12.4224C15.3327 13.0891 15.1327 13.7113 14.7882 14.2335L14.7327 14.3224C14.1327 15.1891 13.1327 15.7557 11.9993 15.7557C10.866 15.7557 9.87712 15.1891 9.26601 14.3224L9.19934 14.2224C8.86601 13.7002 8.6549 13.078 8.6549 12.4113V5.74463H6.98823V6.57796H5.22156C4.61045 6.57796 4.04379 6.9113 3.7549 7.45574C3.46601 8.00019 3.49934 8.65574 3.83267 9.16685L7.82157 15.1446L7.87712 15.2335L7.96601 15.3668H7.97712C8.88823 16.5891 10.3438 17.4002 11.9882 17.4002C13.6327 17.4002 15.0882 16.5891 15.9993 15.3557H16.0105L16.0993 15.2335L16.1549 15.1557L20.1438 9.16685C20.4882 8.65574 20.5216 8.00019 20.2327 7.45574L20.2438 7.46685ZM6.99934 8.24463V10.9002L5.23268 8.24463H6.99934ZM16.9993 10.9113V8.24463H18.7771L16.9993 10.9113Z" fill="#0008FF"/>
</svg>
