<svg width="16" height="16" viewBox="0 0 16 16" fill="none" xmlns="http://www.w3.org/2000/svg">
<path d="M11.667 3.33334C12.2193 3.33334 12.667 3.78106 12.667 4.33334C12.667 4.88563 12.2193 5.33334 11.667 5.33334C11.1147 5.33334 10.667 4.88563 10.667 4.33334C10.667 3.78106 11.1147 3.33334 11.667 3.33334Z" stroke="white" stroke-linecap="round" stroke-linejoin="round"/>
<path d="M1.84916 7.42928C1.1804 8.17621 1.16601 9.30308 1.77978 10.0958C2.99775 11.6689 4.33084 13.0019 5.9039 14.2199C6.69661 14.8337 7.82348 14.8193 8.57041 14.1505C10.5983 12.3348 12.4553 10.4373 14.2476 8.35194C14.4248 8.14581 14.5356 7.89314 14.5605 7.62241C14.6705 6.42533 14.8965 2.97646 13.9599 2.03984C13.0232 1.10322 9.57434 1.32919 8.37728 1.43918C8.10654 1.46406 7.85388 1.5749 7.64768 1.75208C5.56242 3.54432 3.66488 5.40142 1.84916 7.42928Z" stroke="white"/>
</svg>
