<svg width="18" height="18" viewBox="0 0 18 18" fill="none" xmlns="http://www.w3.org/2000/svg">
<path d="M14.8265 11.8265C15.3858 10.8389 15.75 9.69413 15.75 8.38748V6.21022C15.75 4.98022 15.75 4.36521 15.4469 3.96397C15.1439 3.56272 14.4586 3.36792 13.088 2.97833C12.1517 2.71215 11.3262 2.39147 10.6667 2.09872C9.76757 1.69957 9.31794 1.5 9.00002 1.5C8.68202 1.5 8.23247 1.69957 7.33329 2.09872C6.87223 2.30339 6.33007 2.5217 5.72559 2.72551" stroke="#666BFF" stroke-width="1.5" stroke-linecap="square"/>
<path d="M3.42997 3.42993C2.99347 3.58988 2.71723 3.74663 2.55308 3.96393C2.25 4.36518 2.25 4.98018 2.25 6.21019V8.38745C2.25 12.6064 6.04708 15.1376 7.9455 16.1395C8.40082 16.3798 8.62845 16.5 9 16.5C9.37155 16.5 9.59917 16.3798 10.0545 16.1395C10.9852 15.6484 12.3723 14.7895 13.5445 13.5445" stroke="#0008FF" stroke-width="1.5" stroke-linecap="square"/>
<path d="M8.12782 7.78497C7.31785 7.78497 6.91285 8.36997 6.82285 8.72997C6.73285 9.08997 6.73285 10.395 6.78685 10.935C6.96685 11.61 7.41685 11.889 7.85785 11.979C8.26282 12.015 9.97282 12.0015 10.4678 12.0015C11.1878 12.015 11.7278 11.745 11.9528 10.935C11.9978 10.665 12.0428 9.17997 11.9303 8.72997C11.6918 8.00997 11.0978 7.78497 10.6478 7.78497H8.12782Z" stroke="#0008FF" stroke-width="1.5" stroke-linecap="round"/>
<path d="M8.0625 7.46891C8.0625 7.42391 8.06865 7.16484 8.0697 6.83891C8.07067 6.54109 8.0445 6.25391 8.1867 5.99111C8.7195 4.93091 10.2495 5.03891 10.6275 6.11891C10.693 6.29672 10.697 6.5786 10.695 6.83891C10.6925 7.17152 10.6995 7.46891 10.6995 7.46891" stroke="#0008FF" stroke-width="1.5" stroke-linecap="round"/>
</svg>
