<svg width="14" height="14" viewBox="0 0 14 14" fill="none" xmlns="http://www.w3.org/2000/svg">
<path d="M10.7919 6.70794C10.6315 6.11002 9.90234 5.24756 8.79401 5.30796C8.79401 5.30796 7.66713 5.24756 6.52817 5.24756C5.3892 5.24756 4.81275 5.26421 3.92317 5.30796C3.32525 5.30796 2.37734 5.64337 2.01275 6.66419C1.67691 7.68531 1.69166 9.79931 1.89609 10.8788C1.9399 11.4331 2.24494 12.2203 3.15026 12.6288C3.58776 12.8913 6.32943 12.8038 6.70859 12.8329" stroke="#777e90" stroke-linecap="round"/>
<path d="M3.80139 4.78098C3.77219 3.39518 3.71378 2.30113 5.31999 1.39672C5.86023 1.17791 6.66337 0.988278 7.65632 1.45507C8.69302 2.08233 8.82217 2.74615 8.91206 2.9138C9.16033 3.57023 9.0289 4.50382 9.05807 4.88309" stroke="#777e90" stroke-linecap="round"/>
<path d="M9.141 10.7588C9.316 10.8428 9.533 11.0598 9.638 11.2348C9.673 11.4798 9.848 10.5348 10.702 9.97484M12.2502 10.4998C12.2502 11.7885 11.2055 12.8332 9.91683 12.8332C8.62819 12.8332 7.5835 11.7885 7.5835 10.4998C7.5835 9.2112 8.62819 8.1665 9.91683 8.1665C11.2055 8.1665 12.2502 9.2112 12.2502 10.4998Z" stroke="#777e90" stroke-linecap="round"/>
</svg>
