<svg width="16" height="16" viewBox="0 0 16 16" fill="none" xmlns="http://www.w3.org/2000/svg">
<path d="M12.3336 7.66641C12.1503 6.98308 11.317 5.99741 10.0503 6.06643C10.0503 6.06643 8.76243 5.99741 7.46076 5.99741C6.15909 5.99741 5.50029 6.01643 4.48362 6.06643C3.80029 6.06643 2.71696 6.44977 2.30029 7.61641C1.91647 8.78341 1.93332 11.1994 2.16696 12.4331C2.21702 13.0666 2.56564 13.9663 3.6003 14.4331C4.1003 14.7331 7.23363 14.6331 7.66696 14.6664" stroke="white" stroke-linecap="round"/>
<path d="M4.34375 5.46417C4.31037 3.8804 4.24362 2.63006 6.07929 1.59645C6.69671 1.34638 7.61458 1.12966 8.74938 1.66314C9.93418 2.38 10.0818 3.13865 10.1845 3.33026C10.4682 4.08046 10.318 5.14742 10.3514 5.58087" stroke="white" stroke-linecap="round"/>
<path d="M10.447 12.296C10.647 12.392 10.895 12.64 11.015 12.84C11.055 13.12 11.255 12.04 12.231 11.4M14.0003 12C14.0003 13.4727 12.8065 14.6667 11.3337 14.6667C9.86093 14.6667 8.66699 13.4727 8.66699 12C8.66699 10.5273 9.86093 9.33334 11.3337 9.33334C12.8065 9.33334 14.0003 10.5273 14.0003 12Z" stroke="white" stroke-linecap="round"/>
</svg>
