<svg width="16" height="17" viewBox="0 0 16 17" fill="none" xmlns="http://www.w3.org/2000/svg">
<path opacity="0.4" d="M6 5.53139C6 4.20641 7.1234 2.89705 7.91187 2.14122C8.34013 1.73072 8.9932 1.73072 9.42147 2.14122C10.2099 2.89705 11.3333 4.20641 11.3333 5.53139C11.3333 6.83048 10.3235 8.16668 8.66667 8.16668C7.0098 8.16668 6 6.83048 6 5.53139Z" stroke="#0008FF" stroke-width="1.5"/>
<path d="M2.6665 9.83334H4.26305C4.45915 9.83334 4.65256 9.87754 4.82795 9.96241L6.18927 10.6211C6.36466 10.7059 6.55807 10.7501 6.75417 10.7501H7.44924C8.1215 10.7501 8.6665 11.2775 8.6665 11.928C8.6665 11.9543 8.6485 11.9774 8.62237 11.9846L6.92844 12.453C6.62455 12.537 6.29917 12.5077 6.0165 12.3709L4.56124 11.6669" stroke="#0008FF" stroke-width="1.5" stroke-linecap="round" stroke-linejoin="round"/>
<path d="M8.6665 11.5L11.7284 10.5593C12.2712 10.3901 12.8579 10.5907 13.1979 11.0615C13.4438 11.4019 13.3436 11.8895 12.9855 12.0961L7.9751 14.987C7.65644 15.1709 7.28044 15.2157 6.92997 15.1117L2.6665 13.8466" stroke="#0008FF" stroke-width="1.5" stroke-linecap="round" stroke-linejoin="round"/>
</svg>
