<svg width="16" height="17" viewBox="0 0 16 17" fill="none" xmlns="http://www.w3.org/2000/svg">
<path opacity="0.4" d="M6 5.5313C6 4.20631 7.1234 2.89696 7.91187 2.14113C8.34013 1.73063 8.9932 1.73063 9.42147 2.14113C10.2099 2.89696 11.3333 4.20631 11.3333 5.5313C11.3333 6.83039 10.3235 8.16659 8.66667 8.16659C7.0098 8.16659 6 6.83039 6 5.5313Z" stroke="#667085" stroke-width="1.5"/>
<path d="M2.66675 9.83325H4.26329C4.45939 9.83325 4.6528 9.87745 4.82819 9.96232L6.18951 10.621C6.36491 10.7059 6.55831 10.75 6.75441 10.75H7.44948C8.12175 10.75 8.66675 11.2774 8.66675 11.9279C8.66675 11.9542 8.64875 11.9773 8.62261 11.9845L6.92868 12.4529C6.6248 12.5369 6.29941 12.5077 6.01675 12.3709L4.56149 11.6668" stroke="#667085" stroke-width="1.5" stroke-linecap="round" stroke-linejoin="round"/>
<path d="M8.66675 11.5L11.7286 10.5593C12.2714 10.3902 12.8581 10.5907 13.1981 11.0616C13.444 11.402 13.3439 11.8895 12.9857 12.0962L7.97535 14.987C7.65668 15.1709 7.28068 15.2158 6.93021 15.1118L2.66675 13.8466" stroke="#667085" stroke-width="1.5" stroke-linecap="round" stroke-linejoin="round"/>
</svg>
