<svg width="24" height="24" viewBox="0 0 24 24" fill="none" xmlns="http://www.w3.org/2000/svg">
<path d="M17.8337 9.07787C17.8337 7.57787 17.267 6.08898 16.1225 4.95565C13.8559 2.67787 10.1448 2.67787 7.8781 4.95565C6.7781 6.05565 6.16699 7.52231 6.16699 9.07787H7.83366C7.83366 7.96676 8.26699 6.92231 9.05588 6.13343C9.86699 5.32231 10.9337 4.9112 12.0003 4.9112C13.067 4.9112 14.1337 5.32231 14.9448 6.13343C15.7559 6.94454 16.1559 8.0112 16.1559 9.07787C16.1559 10.1445 15.7559 11.2112 14.9448 12.0223C13.3225 13.6445 10.6781 13.6445 9.05588 12.0223C8.26699 11.2334 7.83366 10.189 7.83366 9.07787L6.36699 10.5445C6.61144 11.5445 7.13366 12.4556 7.8781 13.2001C9.01144 14.3334 10.5114 14.9112 12.0003 14.9112C13.4892 14.9112 14.9892 14.3334 16.1225 13.2001C16.8892 12.4445 17.3892 11.5223 17.6337 10.5445L16.167 9.07787H17.8337Z" fill="#0008FF"/>
<path d="M17.8337 17.4111L16.167 15.7444H7.83366L6.16699 17.4111H17.8337Z" fill="#666BFF"/>
<path d="M17.8337 20.7444L16.167 19.0778H7.83366L6.16699 20.7444H17.8337Z" fill="#666BFF"/>
</svg>
