<svg width="25" height="24" viewBox="0 0 25 24" fill="none" xmlns="http://www.w3.org/2000/svg">
<path d="M9.87602 12.7402L8.46602 14.1502L11.966 17.6502C12.356 18.0402 12.986 18.0402 13.376 17.6502L16.876 14.1502L15.466 12.7402L13.676 14.5302V4.02024H11.676V14.5402L9.87602 12.7402Z" fill="#0008FF"/>
<path d="M13.666 2.00024V4.02024C17.616 4.51024 20.666 7.87024 20.666 11.9502C20.666 16.3702 17.086 19.9502 12.666 19.9502C8.24602 19.9502 4.66602 16.3702 4.66602 11.9502C4.66602 7.87024 7.71602 4.51024 11.666 4.02024V2.00024C6.61602 2.50024 2.66602 6.76024 2.66602 11.9502C2.66602 17.4702 7.14602 21.9502 12.666 21.9502C18.186 21.9502 22.666 17.4702 22.666 11.9502C22.666 6.76024 18.716 2.50024 13.666 2.00024Z" fill="#0008FF"/>
</svg>
