<svg width="24" height="24" viewBox="0 0 24 24" fill="none" xmlns="http://www.w3.org/2000/svg">
<path d="M6.99967 18.5445V10.2112H5.33301V18.5445L6.99967 20.2112H16.9997L15.333 18.5445H6.99967Z" fill="#0008FF"/>
<path d="M17 8.54444H15.3333V7.23333C15.3333 5.62222 14.2333 4.13333 12.6556 3.83333C10.5222 3.43333 8.66667 5.05555 8.66667 7.09999V8.53333H7L8.66667 10.2H17V18.5333H18.6667V10.2L17 8.53333V8.54444ZM10.3333 8.54444V7.1111C10.3333 6.18888 11.0778 5.44444 12 5.44444C12.9222 5.44444 13.6667 6.18888 13.6667 7.1111V8.54444H10.3333Z" fill="#666BFF"/>
<path d="M11.166 13.5445V16.0445H12.8327V13.5445C12.8327 13.089 12.4549 12.7112 11.9993 12.7112C11.5438 12.7112 11.166 13.089 11.166 13.5445Z" fill="#0008FF"/>
</svg>
