<svg width="21" height="20" viewBox="0 0 21 20" fill="none" xmlns="http://www.w3.org/2000/svg">
<path d="M3 7.08325H13C15.357 7.08325 16.5355 7.08325 17.2677 7.81549C18 8.54775 18 9.72625 18 12.0833V12.9166C18 15.2736 18 16.4521 17.2677 17.1843C16.5355 17.9166 15.357 17.9166 13 17.9166H8C5.64298 17.9166 4.46447 17.9166 3.73223 17.1843C3 16.4521 3 15.2736 3 12.9166V7.08325Z" stroke="white" stroke-width="1.5" stroke-linecap="square" stroke-linejoin="round"/>
<path d="M13 7.08186V3.42517C13 2.68405 12.3992 2.08325 11.6581 2.08325C11.4447 2.08325 11.2343 2.13415 11.0445 2.23174L3.63525 6.04098C3.2452 6.24151 3 6.64328 3 7.08186" stroke="white" stroke-width="1.5" stroke-linecap="round" stroke-linejoin="round"/>
</svg>
