<svg width="18" height="18" viewBox="0 0 18 18" fill="none" xmlns="http://www.w3.org/2000/svg">
<path d="M15.2583 11.625V14.3167H4L2.75 13.0667V4.94165H4V13.0667H14.0083V11.625H15.2583Z" fill="#666BFF"/>
<path d="M15.2583 5.56665V7.44165H14.0083V6.81665H5.88333L5.88333 5.56665H12.1333V4.94165H5.25L4 3.69165H12.1333L13.3833 4.94165V5.56665H15.2583Z" fill="#0008FF"/>
<path d="M11.5098 8.06665C10.4764 8.06665 9.63477 8.90832 9.63477 9.94165C9.63477 10.975 10.4764 11.8167 11.5098 11.8167H15.2598V8.06665H11.5098ZM14.0098 10.5667H11.5098C11.1598 10.5667 10.8848 10.2833 10.8848 9.94165C10.8848 9.59998 11.1598 9.31665 11.5098 9.31665H14.0098V10.5667Z" fill="#666BFF"/>
</svg>
