<svg width="25" height="24" viewBox="0 0 25 24" fill="none" xmlns="http://www.w3.org/2000/svg">
<path d="M20.8444 15.5V19.0889H5.83332L4.16666 17.4222V6.58889H5.83332V17.4222H19.1778V15.5H20.8444Z" fill="white"/>
<path d="M20.8444 7.42223V9.92223H19.1778V9.08889H8.34442L8.34442 7.42223H16.6778V6.58889H7.49998L5.83331 4.92223H16.6778L18.3444 6.58889V7.42223H20.8444Z" fill="white"/>
<path d="M15.8463 10.7556C14.4686 10.7556 13.3463 11.8778 13.3463 13.2556C13.3463 14.6333 14.4686 15.7556 15.8463 15.7556H20.8463V10.7556H15.8463ZM19.1797 14.0889H15.8463C15.3797 14.0889 15.013 13.7111 15.013 13.2556C15.013 12.8 15.3797 12.4222 15.8463 12.4222H19.1797V14.0889Z" fill="white"/>
</svg>
