<svg width="32" height="32" viewBox="0 0 32 32" fill="none" xmlns="http://www.w3.org/2000/svg">
<path d="M0 16C0 24.8366 7.16344 32 16 32C24.8366 32 32 24.8366 32 16C32 7.16344 24.8366 0 16 0C7.16344 0 0 7.16344 0 16Z" fill="black"/>
<path fill-rule="evenodd" clip-rule="evenodd" d="M8.88863 11.7525C8.81844 11.5635 8.86523 11.3533 9.00774 11.211L10.939 9.28265C11.0815 9.14037 11.2921 9.09364 11.4814 9.16373L15.5992 10.6737C15.7013 10.7098 15.7672 10.8075 15.7672 10.9137V11.8141C15.7672 11.8821 15.7395 11.9479 15.6928 11.9946L14.691 12.9949C14.6208 13.065 14.5144 13.0883 14.4208 13.0544L13.3148 12.6466L12.0982 12.1985C11.9961 12.1603 11.8961 12.2601 11.9323 12.3642L12.7895 14.6832C12.8235 14.7767 12.8001 14.8829 12.7299 14.9529L11.8387 15.8428C11.7387 15.9426 11.7387 16.1061 11.8387 16.2059L12.7342 17.1C12.8043 17.1701 12.8277 17.2763 12.7937 17.3697L11.9366 19.6888C11.8983 19.7908 11.9982 19.8906 12.1025 19.8545L14.423 19.0029C14.5165 18.9689 14.6229 18.9922 14.6931 19.0623L15.6906 20.0583C15.7395 20.1072 15.7651 20.1709 15.7651 20.2389V21.1393C15.7651 21.2476 15.697 21.3432 15.597 21.3793L11.4835 22.8956C11.2942 22.9657 11.0836 22.919 10.9411 22.7767L9.00987 20.8484C8.86736 20.7061 8.82057 20.4958 8.89076 20.3068L10.403 16.2123C10.4456 16.0976 10.4456 15.9723 10.403 15.8576L8.88863 11.7525Z" fill="#D5FCE8"/>
<path fill-rule="evenodd" clip-rule="evenodd" d="M23.0739 20.3068C23.1441 20.4958 23.0973 20.7061 22.9548 20.8484L21.0235 22.7767C20.881 22.919 20.6704 22.9657 20.4811 22.8956L16.3633 21.3857C16.2612 21.3496 16.1953 21.2519 16.1953 21.1457V20.2452C16.1953 20.1773 16.223 20.1114 16.2698 20.0647L17.2716 19.0644C17.3417 18.9944 17.4481 18.971 17.5417 19.005L18.6477 19.4127L19.8643 19.8608C19.9664 19.8991 20.0664 19.7992 20.0302 19.6952L19.173 17.3761C19.139 17.2827 19.1624 17.1765 19.2326 17.1064L20.1238 16.2166C20.2238 16.1167 20.2238 15.9532 20.1238 15.8534L19.2283 14.9593C19.1582 14.8892 19.1348 14.7831 19.1688 14.6896L20.026 12.3705C20.0642 12.2686 19.9643 12.1688 19.8601 12.2049L17.5395 13.0565C17.446 13.0905 17.3396 13.0671 17.2694 12.997L16.2719 12.001C16.223 11.9522 16.1974 11.8884 16.1974 11.8205V10.92C16.1974 10.8117 16.2655 10.7162 16.3655 10.6801L20.479 9.16373C20.6683 9.09364 20.8789 9.14037 21.0214 9.28265L22.9526 11.211C23.0951 11.3533 23.1419 11.5635 23.0718 11.7525L21.5595 15.847C21.5169 15.9617 21.5169 16.087 21.5595 16.2017L23.0739 20.3068Z" fill="#D5FCE8"/>
</svg>
