<svg width="80" height="80" viewBox="0 0 80 80" fill="none" xmlns="http://www.w3.org/2000/svg">
<path d="M0 40C0 62.0914 17.9086 80 40 80C62.0914 80 80 62.0914 80 40C80 17.9086 62.0914 0 40 0C17.9086 0 0 17.9086 0 40Z" fill="black"/>
<path fill-rule="evenodd" clip-rule="evenodd" d="M17.605 26.0489C17.376 25.4324 17.5287 24.7466 17.9935 24.2825L24.293 17.9928C24.7579 17.5286 25.4447 17.3763 26.0622 17.6048L39.4938 22.53C39.8268 22.6477 40.0419 22.9664 40.0419 23.3127V26.2498C40.0419 26.4715 39.9517 26.6862 39.799 26.8386L36.5313 30.1012C36.3024 30.3298 35.9555 30.406 35.6502 30.2952L32.0426 28.9652L28.0741 27.5036C27.7411 27.3789 27.415 27.7045 27.533 28.0439L30.3289 35.6082C30.4399 35.913 30.3636 36.2594 30.1347 36.488L27.2277 39.3904C26.9017 39.716 26.9017 40.2494 27.2277 40.5749L30.1485 43.4912C30.3775 43.7198 30.4538 44.0662 30.3428 44.371L27.5469 51.9353C27.422 52.2678 27.7481 52.5934 28.088 52.4756L35.6572 49.6979C35.9624 49.587 36.3093 49.6632 36.5383 49.8918L39.7921 53.1406C39.9517 53.2999 40.0349 53.5077 40.0349 53.7294V56.6665C40.0349 57.0197 39.8129 57.3315 39.4868 57.4492L26.0691 62.3951C25.4516 62.6237 24.7648 62.4713 24.3 62.0072L18.0004 55.7175C17.5356 55.2534 17.383 54.5676 17.6119 53.9511L22.5447 40.5957C22.6835 40.2217 22.6835 39.813 22.5447 39.4389L17.605 26.0489Z" fill="#D5FCE8"/>
<path fill-rule="evenodd" clip-rule="evenodd" d="M63.8734 53.951C64.1024 54.5675 63.9497 55.2533 63.4849 55.7174L57.1854 62.0072C56.7205 62.4713 56.0337 62.6237 55.4162 62.3951L41.9846 57.47C41.6516 57.3522 41.4365 57.0336 41.4365 56.6872V53.7501C41.4365 53.5285 41.5267 53.3137 41.6793 53.1613L44.9471 49.8987C45.176 49.6701 45.5229 49.5939 45.8282 49.7048L49.4358 51.0347L53.4043 52.4964C53.7373 52.621 54.0633 52.2955 53.9454 51.956L51.1495 44.3917C51.0385 44.0869 51.1148 43.7406 51.3437 43.512L54.2507 40.6095C54.5767 40.284 54.5767 39.7506 54.2507 39.425L51.3298 36.5087C51.1009 36.2801 51.0246 35.9338 51.1356 35.629L53.9315 28.0647C54.0564 27.7322 53.7303 27.4066 53.3904 27.5243L45.8212 30.3021C45.516 30.4129 45.1691 30.3367 44.9401 30.1081L41.6863 26.8594C41.5267 26.7 41.4435 26.4922 41.4435 26.2706V23.3335C41.4435 22.9802 41.6655 22.6685 41.9915 22.5507L55.4093 17.6048C56.0267 17.3762 56.7136 17.5286 57.1784 17.9927L63.478 24.2825C63.9428 24.7466 64.0954 25.4324 63.8665 26.0489L58.9337 39.4042C58.7949 39.7783 58.7949 40.187 58.9337 40.561L63.8734 53.951Z" fill="#D5FCE8"/>
</svg>
