<svg width="24" height="24" viewBox="0 0 24 24" fill="none" xmlns="http://www.w3.org/2000/svg">
<path fill-rule="evenodd" clip-rule="evenodd" d="M12 24C18.6533 24 24 18.6533 24 12C24 5.34667 18.6533 0 12 0C5.34667 0 0 5.34667 0 12C0 18.6533 5.34667 24 12 24ZM15.3 13.896C15.3 12.1493 14.2507 11.5493 12.1507 11.3013C10.6507 11.0987 10.3507 10.7013 10.3507 9.99733C10.3507 9.3 10.8533 8.85067 11.8507 8.85067C12.7507 8.85067 13.2533 9.14933 13.5 9.9C13.5533 10.0493 13.7027 10.1467 13.8533 10.1467H14.648C14.6941 10.1481 14.7399 10.1402 14.7828 10.1235C14.8258 10.1067 14.8648 10.0814 14.8977 10.0492C14.9306 10.0169 14.9566 9.9783 14.9742 9.93571C14.9918 9.89312 15.0006 9.84741 15 9.80133V9.74933C14.7973 8.64667 13.8973 7.59733 12.7507 7.5V6.39733C12.7507 6.19467 12.6 6.044 12.3533 6H11.6933C11.4907 6 11.3027 6.14933 11.2507 6.39733V7.5C9.75067 7.70133 8.75333 8.84933 8.75333 10.1013C8.75333 11.752 9.75067 12.3973 11.8507 12.652C13.2533 12.8987 13.704 13.1987 13.704 14.0013C13.704 14.7973 12.9973 15.352 12.0533 15.352C10.7467 15.352 10.2987 14.7973 10.148 14.0467C10.1027 13.852 9.95333 13.7467 9.80267 13.7467H8.948C8.90193 13.7461 8.85622 13.7549 8.81363 13.7725C8.77104 13.79 8.73244 13.816 8.70018 13.8489C8.66791 13.8818 8.64264 13.9209 8.62588 13.9638C8.60912 14.0067 8.60122 14.0526 8.60267 14.0987V14.152C8.79733 15.3973 9.6 16.252 11.2507 16.4987V17.6093C11.2507 17.812 11.4 17.9467 11.648 18H12.368C12.5627 18 12.6987 17.864 12.7507 17.6093V16.4987C14.2507 16.252 15.3 15.2467 15.3 13.896ZM6.95067 17.6333C7.67619 18.2975 8.52579 18.8118 9.45067 19.1467C9.6 19.252 9.75067 19.4467 9.75067 19.5973V20.3013C9.75067 20.3987 9.75067 20.452 9.69733 20.496C9.65333 20.6987 9.45067 20.796 9.248 20.6987C7.42884 20.1187 5.84123 18.9752 4.71467 17.4336C3.5881 15.892 2.98094 14.0321 2.98094 12.1227C2.98094 10.2133 3.5881 8.35336 4.71467 6.81174C5.84123 5.27012 7.42884 4.12667 9.248 3.54667C9.30133 3.50133 9.39733 3.50133 9.45067 3.50133C9.65333 3.54667 9.75067 3.69733 9.75067 3.89867V4.59733C9.75067 4.85067 9.65333 5.00133 9.45067 5.09867C8.42803 5.4678 7.49929 6.05773 6.73051 6.82651C5.96173 7.59529 5.3718 8.52403 5.00267 9.54667C4.4867 10.9354 4.39632 12.4464 4.74305 13.8868C5.08978 15.3272 5.8579 16.6315 6.94933 17.6333M14.3013 3.74933C14.3467 3.54667 14.5493 3.44933 14.752 3.54667C16.1269 3.99299 17.3752 4.76161 18.3927 5.7884C19.4103 6.8152 20.1675 8.07041 20.6013 9.44933C22.1013 14.196 19.4987 19.252 14.752 20.752C14.6987 20.796 14.6013 20.796 14.5493 20.796C14.3467 20.752 14.2493 20.6013 14.2493 20.3987V19.7013C14.2493 19.4467 14.3467 19.2973 14.5493 19.1987C15.5716 18.8295 16.5 18.2397 17.2685 17.4712C18.037 16.7026 18.6268 15.7743 18.996 14.752C19.3391 13.8301 19.4961 12.8493 19.458 11.8663C19.4199 10.8833 19.1874 9.91764 18.7739 9.02503C18.3605 8.13242 17.7743 7.33057 17.0492 6.66581C16.3241 6.00104 15.4744 5.48654 14.5493 5.152C14.3987 5.04667 14.2493 4.852 14.2493 4.64933V3.952C14.2493 3.84667 14.2493 3.80133 14.3027 3.74933" fill="#2775CA"/>
</svg>
