<svg width="16" height="16" viewBox="0 0 16 16" fill="none" xmlns="http://www.w3.org/2000/svg">
<path d="M6.66699 4.68451C6.98899 2.78213 8.64466 1.33331 10.6387 1.33331C12.8635 1.33331 14.667 3.13686 14.667 5.36165C14.667 7.35565 13.2182 9.01131 11.3158 9.33331" stroke="#0008FF" stroke-linecap="round" stroke-linejoin="round"/>
<path d="M5.33301 14.6667C7.54214 14.6667 9.33301 12.8758 9.33301 10.6667C9.33301 8.45755 7.54214 6.66669 5.33301 6.66669C3.12387 6.66669 1.33301 8.45755 1.33301 10.6667C1.33301 12.8758 3.12387 14.6667 5.33301 14.6667Z" stroke="#0008FF" stroke-linecap="round" stroke-linejoin="round"/>
<path d="M1.33301 6C1.33301 3.78857 3.12158 2 5.33301 2L4.76158 3.14286" stroke="#0008FF" stroke-linecap="round" stroke-linejoin="round"/>
<path d="M14.667 10C14.667 12.2114 12.8784 14 10.667 14L11.2384 12.8571" stroke="#0008FF" stroke-linecap="round" stroke-linejoin="round"/>
</svg>
