<svg width="24" height="25" viewBox="0 0 24 25" fill="none" xmlns="http://www.w3.org/2000/svg">
<path d="M15.5 18.0903L17 20.0903C17 20.0903 19.8658 19.1919 22 17.5903C22 8.59033 19.5 6.02755 19.5 6.02755C19.5 6.02755 17.5 5.09033 15 4.59033L14.3979 5.82103C14.3979 5.82103 13.2853 5.59033 12 5.59033C10.7147 5.59033 9.60211 5.82103 9.60211 5.82103L9 4.59033C6.5 5.09033 4.5 6.02755 4.5 6.02755C4.5 6.02755 2 8.59033 2 17.5903C4.13419 19.1919 7 20.0903 7 20.0903L8.5 18.0903" stroke="white" stroke-width="1.5"/>
<path d="M17.5 17.0903C17.5 17.0903 15.2049 18.5903 12 18.5903C8.79507 18.5903 6.5 17.0903 6.5 17.0903" stroke="white" stroke-width="1.5" stroke-linecap="square" stroke-linejoin="round"/>
<path d="M17.25 12.5903C17.25 13.6949 16.4665 14.5903 15.5 14.5903C14.5335 14.5903 13.75 13.6949 13.75 12.5903C13.75 11.4857 14.5335 10.5903 15.5 10.5903C16.4665 10.5903 17.25 11.4857 17.25 12.5903Z" stroke="white" stroke-width="1.5"/>
<path d="M10.25 12.5903C10.25 13.6949 9.4665 14.5903 8.5 14.5903C7.5335 14.5903 6.75 13.6949 6.75 12.5903C6.75 11.4857 7.5335 10.5903 8.5 10.5903C9.4665 10.5903 10.25 11.4857 10.25 12.5903Z" stroke="white" stroke-width="1.5"/>
</svg>
