<svg width="24" height="25" viewBox="0 0 24 25" fill="none" xmlns="http://www.w3.org/2000/svg">
<path d="M6.51734 17.453C6.91177 18.0303 8.10883 19.2626 9.74168 19.5731M9.86428 22.3398C8.83582 22.1704 2 19.9455 2 12.4324C2 5.40313 8.0019 2.33984 12.0008 2.33984C15.9996 2.33984 22 5.40313 22 12.4324C22 19.9455 15.1642 22.1704 14.1357 22.3398C14.1357 22.3398 13.9267 18.9224 14.0487 18.3367C14.1706 17.7511 13.7552 16.8086 13.7552 16.8086C14.7262 16.4453 16.2043 15.9245 16.7001 14.5272C17.0848 13.443 17.3268 11.8686 16.2508 10.3887C16.2508 10.3887 16.5318 7.99793 15.9996 7.90532C15.4675 7.81271 13.8998 8.85176 13.8998 8.85176C13.4432 8.72232 12.4243 8.4746 12.0018 8.51923C11.5792 8.4746 10.5568 8.72232 10.1002 8.85176C10.1002 8.85176 8.53249 7.81271 8.00036 7.90532C7.46823 7.99793 7.74917 10.3887 7.74917 10.3887C6.67316 11.8686 6.91516 13.443 7.2999 14.5272C7.79575 15.9245 9.27384 16.4453 10.2448 16.8086C10.2448 16.8086 9.82944 17.7511 9.95135 18.3367C10.0733 18.9224 9.86428 22.3398 9.86428 22.3398Z" stroke="#F9F9F9" stroke-width="1.5" stroke-linecap="round" stroke-linejoin="round"/>
</svg>
