<svg width="24" height="24" viewBox="0 0 24 24" fill="none" xmlns="http://www.w3.org/2000/svg">
<path d="M12.3594 11.1999C7.81938 11.1999 4.39937 12.9499 4.35938 15.2799V18.3899C4.35938 19.1199 4.68936 20.1899 6.23936 21.1199C7.72936 21.9999 9.95937 22.4999 12.3594 22.4999C14.7594 22.4999 16.9894 21.9999 18.4794 21.1099C20.0294 20.1799 20.3594 19.1199 20.3594 18.3799V15.2699C20.3194 12.9399 16.8994 11.1899 12.3594 11.1899V11.1999ZM12.3594 13.1999C15.9694 13.1999 18.3594 14.4699 18.3594 15.3099C18.3594 16.1499 15.9694 17.4199 12.3594 17.4199C8.74938 17.4199 6.35938 16.1499 6.35938 15.3099C6.35938 14.4699 8.74938 13.1999 12.3594 13.1999ZM17.4494 19.3899C16.2794 20.0799 14.3694 20.4999 12.3494 20.4999C10.3294 20.4999 8.41937 20.0899 7.25937 19.3999C6.68937 19.0599 6.34937 18.6799 6.34937 18.3899V18.0799C7.78937 18.9099 9.90937 19.4199 12.3494 19.4199C14.7894 19.4199 16.9094 18.9099 18.3494 18.0799V18.3899C18.3494 18.6799 18.0094 19.0599 17.4494 19.3999V19.3899Z" fill="#0008FF"/>
<path d="M20.3506 1.5H15.3506V3.5H17.8106L12.4006 8.14L9.35062 5.09L2.64062 11.8L4.05061 13.21L9.34062 7.92L12.2906 10.87L19.3406 4.83V7.51H21.3406V2.5C21.3406 1.95 20.8906 1.5 20.3406 1.5H20.3506Z" fill="#0008FF"/>
</svg>
