<svg width="16" height="16" viewBox="0 0 16 16" fill="none" xmlns="http://www.w3.org/2000/svg">
<path d="M11.6665 3.33337C12.2188 3.33337 12.6665 3.78109 12.6665 4.33337C12.6665 4.88566 12.2188 5.33337 11.6665 5.33337C11.1142 5.33337 10.6665 4.88566 10.6665 4.33337C10.6665 3.78109 11.1142 3.33337 11.6665 3.33337Z" stroke="#0008FF" stroke-linecap="round" stroke-linejoin="round"/>
<path d="M1.84965 7.42931C1.18088 8.17624 1.1665 9.30311 1.78027 10.0958C2.99824 11.6689 4.33132 13.002 5.90438 14.2199C6.6971 14.8337 7.82396 14.8193 8.5709 14.1506C10.5988 12.3348 12.4558 10.4373 14.2481 8.35197C14.4253 8.14584 14.5361 7.89317 14.561 7.62244C14.671 6.42536 14.897 2.97649 13.9604 2.03987C13.0237 1.10325 9.57483 1.32922 8.37776 1.43921C8.10703 1.46409 7.85436 1.57493 7.64816 1.75211C5.56291 3.54435 3.66537 5.40145 1.84965 7.42931Z" stroke="#0008FF"/>
</svg>
