<svg width="16" height="16" viewBox="0 0 16 16" fill="none" xmlns="http://www.w3.org/2000/svg">
<path d="M12.3336 7.66638C12.1503 6.98305 11.317 5.99738 10.0503 6.0664C10.0503 6.0664 8.76243 5.99738 7.46076 5.99738C6.15909 5.99738 5.50029 6.0164 4.48362 6.0664C3.80029 6.0664 2.71696 6.44974 2.30029 7.61638C1.91647 8.78338 1.93332 11.1994 2.16696 12.433C2.21702 13.0666 2.56564 13.9662 3.6003 14.433C4.1003 14.733 7.23363 14.633 7.66696 14.6664" stroke="#0008FF" stroke-linecap="round"/>
<path d="M4.34375 5.46414C4.31037 3.88037 4.24362 2.63003 6.07929 1.59642C6.69671 1.34635 7.61458 1.12963 8.74938 1.66311C9.93418 2.37997 10.0818 3.13862 10.1845 3.33023C10.4682 4.08043 10.318 5.14739 10.3514 5.58084" stroke="#0008FF" stroke-linecap="round"/>
<path d="M10.447 12.296C10.647 12.392 10.895 12.64 11.015 12.84C11.055 13.12 11.255 12.04 12.231 11.4M14.0003 12C14.0003 13.4727 12.8065 14.6666 11.3337 14.6666C9.86093 14.6666 8.66699 13.4727 8.66699 12C8.66699 10.5272 9.86093 9.33331 11.3337 9.33331C12.8065 9.33331 14.0003 10.5272 14.0003 12Z" stroke="#0008FF" stroke-linecap="round"/>
</svg>
