<svg width="17" height="18" viewBox="0 0 17 18" fill="none" xmlns="http://www.w3.org/2000/svg">
<path d="M8.66667 15.65C4.9889 15.65 2.00001 12.6611 2.00001 8.98331L0.477783 10.5055C1.18889 14.3833 4.5889 17.3166 8.66667 17.3166C12.7445 17.3166 16.1445 14.3833 16.8556 10.5055L15.3333 8.98331C15.3333 12.6611 12.3445 15.65 8.66667 15.65Z" fill="white"/>
<path d="M9.50024 0.68335V2.36113C12.7891 2.77224 15.3336 5.57224 15.3336 8.97224H17.0002C17.0002 4.65002 13.7114 1.09446 9.50024 0.68335Z" fill="#666BFF"/>
<path d="M0.333496 8.98336H2.00016C2.00016 5.58336 4.54461 2.78336 7.8335 2.37225V0.694473C3.62239 1.10558 0.333496 4.66114 0.333496 8.98336Z" fill="#666BFF"/>
<path d="M7.83352 2.36108V11.1277L5.92241 9.21664L4.74463 10.3944L8.66685 14.3166L12.5891 10.3944L11.4113 9.21664L9.50019 11.1277V2.36108C9.22241 2.32775 8.94463 2.30553 8.66685 2.30553C8.38908 2.30553 8.1113 2.32775 7.83352 2.36108Z" fill="#666BFF"/>
</svg>
