<svg width="1296" height="508" viewBox="0 0 1296 508" fill="none" xmlns="http://www.w3.org/2000/svg">
<g filter="url(#filter0_dd_253_45)">
<g clip-path="url(#clip0_253_45)">
<rect width="1296" height="502" rx="48" fill="#F8F8FF"/>
<path d="M1056.68 241.452L1030.09 256.778L1056.68 272.104L1083.27 256.778V226.126V195.474L1056.68 210.8V241.452Z" fill="#1D24FF"/>
<path d="M657.607 311.044L631.018 326.37L657.607 341.696L684.202 326.37V295.718V265.066L657.607 280.392V311.044Z" fill="#1D24FF"/>
<path d="M649.964 34.3039L623.374 49.6299L649.964 64.9559L676.559 49.6299V18.978V-11.674L649.964 3.65195V34.3039Z" fill="#1D24FF"/>
<path d="M950.323 118.844L976.907 134.17L950.323 149.496L976.913 164.822V164.817V162.26V134.17V134.165V103.518H976.907L950.323 118.839V118.844Z" fill="#1D24FF"/>
<path d="M923.735 72.8661V103.513L933.276 98.0159V87.4793V78.3627V75.6395L944.375 69.2462V69.2629V84.7616V91.617L950.319 88.1921V88.1865H950.325V57.5401V57.5345L923.735 72.8605V72.8661Z" fill="#1D24FF"/>
<path d="M587.744 70.4034V101.05L597.285 95.5532V85.0166V75.9001V73.1768L608.383 66.7836V66.8003V82.2989V89.1544L614.328 85.7294V85.7238H614.334V55.0774V55.0719L587.744 70.3979V70.4034Z" fill="#1D24FF"/>
<path d="M905.992 144.395L907.929 143.281V143.275V136.231L905.992 135.117V144.395Z" fill="#1D24FF"/>
<path d="M768.727 368.003L795.316 383.329L821.906 368.003V337.351L795.316 352.677L768.727 368.003Z" fill="#1D24FF"/>
<path d="M486.59 127.478V96.8256L460 112.152L486.59 127.478Z" fill="#1D24FF"/>
<path d="M486.59 96.8258V66.1738L460 81.4998L486.59 96.8258Z" fill="#1D24FF"/>
<path d="M1296 440.695V471.342L1305.74 465.728V455.181V446.309V443.346L1316.84 436.948V436.964V452.708V459.329L1322.59 456.021V456.016V425.37H1322.58L1296 440.695Z" fill="#1D24FF"/>
<path d="M1296 410.038V410.043L1322.59 425.364V394.717H1322.58L1296 410.038Z" fill="#1D24FF"/>
<path d="M1322.59 180.142V149.496H1322.58L1296 164.822L1322.59 180.142Z" fill="#1D24FF"/>
<path d="M1322.59 118.844L1296 134.165V134.17L1322.59 149.491V118.844Z" fill="#1D24FF"/>
<path d="M1322.58 149.496L1296 134.17L1269.41 149.496L1296 164.817L1322.58 149.496Z" fill="#1D24FF"/>
<path d="M1298.21 43.4895L1300.43 44.7704L1302.64 46.0457L1304.86 47.321L1307.07 48.6019L1309.29 49.8772L1311.51 51.1525L1313.72 52.4278L1315.94 53.7087L1318.15 54.984L1320.37 56.2593L1322.58 57.5346L1296 42.2142L1298.21 43.4895Z" fill="#1D24FF"/>
<path d="M1296 226.126L1269.41 241.452L1296 256.778V226.126Z" fill="#1D24FF"/>
<path d="M1282.7 62.6469L1284.92 61.3716V58.8154L1287.13 57.5401V54.9839L1289.35 53.7086V51.1524L1291.57 49.8771V47.3209L1293.78 46.0456V43.4894L1295.91 42.2642L1269.41 57.5345L1282.7 65.1975V62.6469Z" fill="#1D24FF"/>
<path d="M1295.99 226.126V226.12V195.474H1295.99L1269.4 210.8H1269.4L1242.81 226.12V226.126H1242.81L1216.22 241.452L1242.81 256.778H1242.81V256.772L1269.4 241.452H1269.4V241.446L1295.99 226.126Z" fill="#1D24FF"/>
<path d="M1296 164.822L1269.41 149.496H1269.41L1242.82 164.822L1269.41 180.142L1296 164.822Z" fill="#1D24FF"/>
<path d="M1242.82 440.695L1269.41 456.016V425.37H1269.41L1242.82 440.695Z" fill="#1D24FF"/>
<path d="M1269.41 88.1866V85.6304L1271.63 84.3551V81.7989L1273.85 80.5236V77.973L1276.06 76.6921V74.1415L1278.28 72.8606V70.31L1280.49 69.0291V66.4785L1282.71 65.2032L1269.41 57.5402L1242.82 72.8606V72.8662L1269.41 88.1866H1269.41Z" fill="#1D24FF"/>
<path d="M1242.82 287.43L1269.41 302.756V272.109V272.104H1269.41L1242.82 287.43Z" fill="#1D24FF"/>
<path d="M609.993 162.853L583.403 178.179V208.831L593.239 203.145V192.592V183.848V180.757L604.338 174.359V174.375V190.247V196.746V196.763L602.401 197.877V197.86L602.389 197.871L602.406 197.877L609.993 193.505L610.004 193.499H609.998V190.943L612.214 189.668V187.112L614.429 185.836V183.28L616.644 182.005V179.454L618.86 178.173V175.623L621.075 174.342V171.791L623.285 170.516L623.29 170.51V167.96L625.506 166.684V164.128L627.721 162.853V160.297L629.936 159.021V156.465L632.152 155.19V152.634L634.373 151.358V148.802L636.588 147.527H636.582L609.993 162.853Z" fill="#1D24FF"/>
<path d="M1216.23 394.717H1216.22L1189.64 410.043L1216.22 425.364L1216.23 425.369L1242.82 410.043V410.038V379.391L1223.98 390.251L1216.23 394.717Z" fill="#1D24FF"/>
<path d="M1242.82 348.739V348.734V318.087V318.082H1242.81L1216.22 333.408V333.413L1189.63 348.734L1216.22 364.06H1216.23V364.065L1242.81 379.386H1242.82V348.739Z" fill="#1D24FF"/>
<path d="M1199.22 56.7883V47.7387V44.9541L1210.32 38.5553V38.572V54.1319V60.9373L1216.22 57.5346V26.8882V26.8826V-3.76935L1189.63 11.5566V42.2086V72.8606L1199.22 67.3305V56.7883Z" fill="#1D24FF"/>
<path d="M1208.42 153.979L1208.43 153.985V153.974L1208.42 153.979Z" fill="#1D24FF"/>
<path d="M1210.37 146.116V152.871L1208.43 153.985V153.99L1216.23 149.496L1210.37 146.116Z" fill="#1D24FF"/>
<path d="M1183.94 298.986V314.807V321.357L1189.63 318.082V287.43V256.778H1189.63L1187.41 258.059V260.61L1185.2 261.89V264.441L1182.98 265.716V268.273L1180.77 269.548V272.104L1178.55 273.379V275.936L1176.34 277.211V279.767L1174.12 281.042V283.599L1171.9 284.874V287.43L1169.69 288.705V291.262L1167.47 292.537V295.087L1165.26 296.368V298.919L1163.04 300.2V302.75V302.756L1136.45 318.082L1163.04 333.408L1173.31 327.494L1172.85 327.755V317.202V308.409V305.368L1183.94 298.969V298.986Z" fill="#1D24FF"/>
<path d="M1163.04 149.496V180.148L1136.45 195.474L1163.04 210.8L1189.63 226.126V195.474V164.822L1199.27 159.253V148.705V139.722L1189.64 134.17H1189.63V134.164L1189.64 134.17L1199.27 139.717V136.865L1210.36 130.472V130.483V146.116L1216.22 149.49V118.844V118.838V88.1921L1189.64 103.512V103.518H1189.63L1163.05 118.844H1163.04V149.496Z" fill="#1D24FF"/>
<path d="M556.814 193.505V162.853L530.225 178.179L556.814 193.505Z" fill="#1D24FF"/>
<path d="M1163.04 88.1865V57.5345V26.8825L1136.45 42.2085L1109.86 57.5345V88.1865L1136.45 72.8605L1163.04 88.1865Z" fill="#1D24FF"/>
<path d="M1136.45 471.347L1163.04 456.021V425.37L1136.45 440.695V471.347Z" fill="#1D24FF"/>
<path d="M1138.67 283.598V281.042L1140.89 279.767V277.211L1143.1 275.935V273.379L1145.32 272.104V269.548L1147.53 268.272V265.716L1149.75 264.441V261.89L1151.96 260.609V258.059L1154.18 256.778V254.227L1156.4 252.946V250.396L1158.61 249.12V246.564L1160.83 245.289V242.733L1163.04 241.458V241.452L1136.45 256.778L1109.86 272.104V302.756L1136.45 287.43H1136.46V284.874L1138.67 283.598Z" fill="#1D24FF"/>
<path d="M1109.86 394.717V425.369L1109.87 425.364L1109.87 425.358V422.802L1112.08 421.527V418.971L1114.3 417.695V415.139L1116.51 413.864V411.313L1118.73 410.032V407.482L1120.94 406.201V403.65L1123.15 402.375L1123.16 402.369V399.819L1125.38 398.543V395.987L1127.59 394.712V392.156L1129.81 390.88V388.324L1132.02 387.049V384.493L1134.24 383.217V380.661L1127.33 384.643L1109.86 394.717Z" fill="#1D24FF"/>
<path d="M1109.86 364.06L1136.45 379.386V348.734L1109.86 364.06Z" fill="#1D24FF"/>
<path d="M1056.69 394.717L1083.28 410.043V410.038V379.391L1069.98 387.054L1056.69 394.717Z" fill="#1D24FF"/>
<path d="M1030.09 195.474L1003.5 210.8V241.452L1030.09 226.126V195.474Z" fill="#1D24FF"/>
<path d="M631.02 265.066L604.431 280.392V311.044L631.02 295.718V265.066Z" fill="#1D24FF"/>
<path d="M623.376 -11.674L596.786 3.65195V34.3039L623.376 18.978V-11.674Z" fill="#1D24FF"/>
<path d="M1030.09 103.513L1056.68 118.839L1066.25 113.325V102.789V93.6999V90.9543L1077.35 84.5555V84.5722V100.099V106.926L1083.27 103.513H1083.28V72.8605V42.2086L1056.68 57.5346L1030.09 72.8605L1003.5 88.1865L1030.09 103.513Z" fill="#1D24FF"/>
<path d="M1003.5 333.408V364.06V394.712L1023.75 383.045L1030.09 379.386L1056.68 364.06V333.408V302.756L1030.09 318.082L1003.5 333.408Z" fill="#1D24FF"/>
<path d="M976.914 440.695L950.325 456.021L923.735 471.347L950.325 486.673L976.914 471.347L1003.5 456.021L1003.51 456.016L1003.5 456.01H1003.5V453.454H1003.5L1005.71 452.179V449.623L1007.93 448.347V445.791L1010.14 444.516V441.965L1012.36 440.684V438.134L1014.57 436.853V434.302L1016.79 433.027V433.021V430.471L1019.01 429.195V426.639L1021.22 425.364V422.808L1023.44 421.532V418.976L1025.65 417.701V415.145L1027.87 413.869V411.324L1003.5 425.369L976.914 440.695Z" fill="#1D24FF"/>
<path d="M1003.5 26.8825L976.91 42.2085V72.8605L1003.5 57.5345V26.8825Z" fill="#1D24FF"/>
<path d="M976.907 379.386H976.913V348.734L950.323 364.06L976.907 379.386Z" fill="#1D24FF"/>
<path d="M976.917 287.43V256.778L950.327 272.104V272.11L952.543 273.385L950.327 274.66L948.112 275.941L945.897 277.216L943.681 278.492L941.466 279.773L939.251 281.048L937.035 282.323L934.82 283.599L932.605 284.879L930.389 286.155L928.174 287.43L925.959 288.711H925.953L928.168 289.986H928.174L930.389 288.711L932.605 287.43L934.82 286.155L937.035 284.879L939.251 283.599L941.466 282.323L943.681 281.048L945.897 279.773L948.112 278.492L950.327 277.216L952.543 275.941L954.758 277.216L952.543 278.492L950.327 279.767V279.773L948.112 281.048L945.897 282.323L943.681 283.599L941.466 284.879L939.251 286.155L937.035 287.43L934.82 288.711L932.605 289.986L930.389 291.262L930.384 291.267L932.599 292.542H932.605L934.82 291.262L937.035 289.986L939.251 288.711L941.466 287.43L943.681 286.155L945.897 284.879L948.112 283.599L950.327 282.323L952.543 281.048L954.758 279.773L956.973 281.048L954.758 282.323L952.543 283.599L950.327 284.879L948.112 286.155L945.897 287.43L943.681 288.711L941.466 289.986L939.251 291.262L937.035 292.542L934.82 293.818H934.814L937.03 295.093H937.035L939.251 293.818L941.466 292.542L943.681 291.262L945.897 289.986L948.112 288.711L950.327 287.43L952.543 286.155L954.758 284.879L956.973 283.599L959.189 284.879L956.973 286.155L954.758 287.43L952.543 288.711L950.327 289.986L948.112 291.262L945.897 292.542L943.681 293.818L941.466 295.093L939.251 296.368L939.245 296.374L941.466 297.649L943.681 296.368L945.897 295.093L948.112 293.818L950.327 292.542V292.537L952.543 291.262L954.758 289.986L956.973 288.711L959.189 287.43L961.404 288.711L959.189 289.986L956.973 291.262L954.758 292.542L952.543 293.818L950.327 295.093L948.112 296.368L945.897 297.649L943.681 298.925L945.897 300.2L948.112 298.925L950.327 297.649L952.543 296.368L954.758 295.093L956.973 293.818L959.189 292.542L961.404 291.262L963.619 292.542L961.404 293.818L959.189 295.093L956.973 296.368L954.758 297.649L952.543 298.925L950.327 300.2L948.112 301.481L950.327 302.756L952.543 301.481L954.758 300.2L956.973 298.925L959.189 297.649L961.404 296.368L963.619 295.093L965.835 296.368L963.619 297.649L961.404 298.925L959.189 300.2L956.973 301.481L954.758 302.756L952.543 304.031L952.537 304.037L954.752 305.312H954.758L956.973 304.031L959.189 302.756L961.404 301.481L963.619 300.2L965.835 298.925L968.05 300.2L965.835 301.481L963.619 302.756L961.404 304.031L959.189 305.312L956.973 306.588H956.968L959.183 307.868L959.189 307.863L961.404 306.588L963.619 305.312L965.835 304.031L968.05 302.756L970.265 304.031L968.05 305.312L965.835 306.588L963.619 307.863L961.404 309.144L963.619 310.419L965.835 309.144L968.05 307.863L970.265 306.588L972.481 307.863L970.265 309.144L968.05 310.419L965.835 311.694L968.05 312.975V312.97L970.265 311.694L972.481 310.419L974.696 311.694L972.481 312.97L970.265 314.25L972.481 315.526L974.696 314.25L976.911 315.526L974.696 316.801L976.911 318.082H976.917V287.43Z" fill="#1D24FF"/>
<path d="M923.735 410.038V410.043L950.319 425.369L950.325 425.364V394.717H950.319L923.735 410.038Z" fill="#1D24FF"/>
<path d="M730.479 333.898V333.903L757.063 349.229L757.069 349.224V318.577H757.063L730.479 333.898Z" fill="#1D24FF"/>
<path d="M565.688 129.472V129.477L592.271 144.803L592.277 144.798V114.151H592.271L565.688 129.472Z" fill="#1D24FF"/>
<path d="M567.078 236.552V236.558L593.662 251.883L593.668 251.878V221.232H593.662L567.078 236.552Z" fill="#1D24FF"/>
<path d="M950.325 180.148L923.735 195.474L950.325 210.8V180.148Z" fill="#1D24FF"/>
<path d="M551.254 249.74L524.664 265.066L551.254 280.392V249.74Z" fill="#1D24FF"/>
<path d="M543.606 -27L517.017 -11.674L543.606 3.65196V-27Z" fill="#1D24FF"/>
<path d="M923.734 11.5622V11.5566H923.728L897.145 26.8826V26.8882L923.728 42.2086H923.734V11.5622Z" fill="#1D24FF"/>
<path d="M870.544 226.126V226.132L872.76 227.407L870.544 228.682L868.329 229.963L866.114 231.238L863.898 232.514L861.683 233.795L859.468 235.07L857.252 236.345L855.037 237.62L852.822 238.901L850.606 240.177L848.391 241.452L846.176 242.733V245.283L848.391 244.008L850.606 242.733L852.822 241.452L855.037 240.177L857.252 238.901L859.468 237.62L861.683 236.345L863.898 235.07L866.114 233.795L868.329 232.514L870.544 231.238L872.76 229.963L874.975 231.238L872.76 232.514L870.544 233.795L868.329 235.07L866.114 236.345L863.898 237.62L861.683 238.901L859.468 240.177L857.252 241.452L855.037 242.733L852.822 244.008L850.606 245.283L848.391 246.564V249.115L850.606 247.84L852.822 246.564L855.037 245.283L857.252 244.008L859.468 242.733L861.683 241.452L863.898 240.177L866.114 238.901L868.329 237.62L870.544 236.345L872.76 235.07L874.975 233.795L877.19 235.07L874.975 236.345L872.76 237.62L870.544 238.901L868.329 240.177L866.114 241.452L863.898 242.733L861.683 244.008L859.468 245.283L857.252 246.564L855.037 247.84L852.822 249.115L850.606 250.39V252.946L852.822 251.671L855.037 250.39L857.252 249.115L859.468 247.84L861.683 246.564L863.898 245.283L866.114 244.008L868.329 242.733L870.544 241.452L872.76 240.177L874.975 238.901L877.19 237.62L879.406 238.901L877.19 240.177L874.975 241.452L872.76 242.733L870.544 244.008L868.329 245.283L866.114 246.564L863.898 247.84L861.683 249.115L859.468 250.39L857.252 251.671L855.037 252.946L852.822 254.222V256.778L855.037 255.503L857.252 254.222L859.468 252.946L861.683 251.671L863.898 250.39L866.114 249.115L868.329 247.84L870.544 246.564L872.76 245.283L874.975 244.008L877.19 242.733L879.406 241.452L881.621 242.733L879.406 244.008L877.19 245.283L874.975 246.564L872.76 247.84L870.544 249.115L868.329 250.39L866.114 251.671L863.898 252.946L861.683 254.222L859.468 255.503L857.252 256.778L855.037 258.053V260.609L857.252 259.334L859.468 258.053L861.683 256.778L863.898 255.503L866.114 254.222L868.329 252.946L870.544 251.671L872.76 250.39L874.975 249.115L877.19 247.84L879.406 246.564L881.621 245.283L883.836 246.564L881.621 247.84L879.406 249.115L877.19 250.39L874.975 251.671L872.76 252.946L870.544 254.222L868.329 255.503L866.114 256.778L863.898 258.053L861.683 259.334L859.468 260.609L857.252 261.885V264.441L859.468 263.166L861.683 261.885L863.898 260.609L866.114 259.334L868.329 258.053L870.544 256.778L872.76 255.503L874.975 254.222L875.587 253.871L877.19 252.946L879.406 251.671L881.621 250.39L883.836 249.115L886.052 250.39L883.836 251.671L881.621 252.946L879.406 254.222L877.19 255.503L874.975 256.778L872.76 258.053L870.544 259.334L868.329 260.609L866.114 261.885L863.898 263.166L861.683 264.441L859.468 265.716V268.272L861.683 266.992L863.898 265.716L866.114 264.441L868.329 263.166L870.544 261.885L872.76 260.609L874.975 259.334L877.19 258.053L879.406 256.778L881.621 255.503L883.836 254.222L886.052 252.946L888.267 254.222L886.052 255.503L883.836 256.778L881.621 258.053L879.406 259.334L877.19 260.609L874.975 261.885L872.76 263.166L870.544 264.441L868.329 265.716L866.114 266.992L863.898 268.272L861.683 269.548V272.104L863.898 270.823L866.114 269.548L868.329 268.272L870.544 266.992L872.76 265.716L874.975 264.441L877.19 263.166L879.406 261.885L881.621 260.609L883.836 259.334L886.052 258.053L888.267 256.778L890.482 258.053L888.267 259.334L886.052 260.609L883.836 261.885L881.621 263.166L879.406 264.441L877.19 265.716L874.975 266.992L872.76 268.272L870.544 269.548L868.329 270.823L866.114 272.104L863.898 273.379V275.935L866.114 274.655L868.329 273.379L870.544 272.104L872.76 270.823L874.975 269.548L877.19 268.272L879.406 266.992L881.621 265.716L883.836 264.441L886.052 263.166L888.267 261.885L890.482 260.609L892.698 261.885L890.482 263.166L888.267 264.441L886.052 265.716L883.836 266.992L881.621 268.272L879.406 269.548L877.19 270.823L874.975 272.104L872.76 273.379L870.544 274.655L868.329 275.935L866.114 277.211V279.761L868.329 278.486L870.544 277.211L872.76 275.935L874.975 274.655L877.19 273.379L879.406 272.104L881.621 270.823L883.836 269.548L886.052 268.272L888.267 266.992L890.482 265.716L892.698 264.441L894.913 265.716L892.698 266.992L890.482 268.272L888.267 269.548L886.052 270.823L883.836 272.104L881.621 273.379L879.406 274.655L877.19 275.935L874.975 277.211L872.76 278.486L870.544 279.761L868.329 281.042V283.593L870.544 282.318L872.76 281.042L874.975 279.761L877.19 278.486L879.406 277.211L881.621 275.935L883.836 274.655L886.052 273.379L888.267 272.104L890.482 270.823L892.698 269.548L894.913 268.272L897.128 269.548L894.913 270.823L892.698 272.104L890.482 273.379L888.267 274.655L886.052 275.935L883.836 277.211L881.621 278.486L879.406 279.761L877.19 281.042L874.975 282.318L872.76 283.593L870.544 284.874V287.424L872.76 286.149L874.975 284.874L877.19 283.593L879.406 282.318L881.621 281.042L883.836 279.761L886.052 278.486L888.267 277.211L890.482 275.935L892.698 274.655L894.913 273.379L897.128 272.104H897.134H897.139V241.452V241.446V210.8H897.134L870.544 226.126Z" fill="#1D24FF"/>
<path d="M870.55 134.165V134.17L843.966 149.496L870.55 164.817L897.139 149.496L897.145 149.491V118.844H897.139L870.55 134.165Z" fill="#1D24FF"/>
<path d="M870.555 379.386L892.297 391.922L870.55 379.391L853.712 389.093L843.966 394.717L870.55 410.038L897.139 394.717L897.145 394.712V364.065H897.139L870.555 379.386Z" fill="#1D24FF"/>
<path d="M652.074 222.645L673.815 235.181L652.068 222.651L635.231 232.352L625.484 237.977L652.068 253.297L678.658 237.977L678.663 237.971V207.325H678.658L652.074 222.645Z" fill="#1D24FF"/>
<path d="M648.596 105.135L670.338 117.671L648.591 105.141L631.753 114.842L622.007 120.467L648.591 135.787L675.18 120.467L675.186 120.461V89.8148H675.18L648.596 105.135Z" fill="#1D24FF"/>
<path d="M715.344 46.0326L737.086 58.5685L715.339 46.0382L698.501 55.7394L688.755 61.3641L715.339 76.6845L741.928 61.3641L741.934 61.3585V30.7122H741.928L715.344 46.0326Z" fill="#1D24FF"/>
<path d="M486.59 15.4381L508.331 27.974L486.584 15.4436L469.746 25.1449L460 30.7696L486.584 46.09L513.173 30.7696L513.179 30.764V0.117645H513.173L486.59 15.4381Z" fill="#1D24FF"/>
<path d="M870.549 164.822L843.965 149.496H843.96L817.37 164.822L843.96 180.142V180.148L870.549 195.468V192.918L872.764 191.642V189.086L874.98 187.811V185.255L877.195 183.979V181.423L879.416 180.148V177.592L881.631 176.316V173.76L883.847 172.485V169.934L886.062 168.653V166.103L888.277 164.822V162.271L890.493 160.99V158.44L892.708 157.165V154.608L894.923 153.333V150.777L897.139 149.502H897.144V149.496H897.139L870.555 164.822H870.549Z" fill="#1D24FF"/>
<path d="M870.55 318.087L843.966 333.408L870.55 348.734V318.087Z" fill="#1D24FF"/>
<path d="M870.55 42.2142L843.966 57.5346L870.55 72.8606V42.2142Z" fill="#1D24FF"/>
<path d="M534.559 39.7514L507.975 55.0718L534.559 70.3978V39.7514Z" fill="#1D24FF"/>
<path d="M790.773 272.104H790.768L764.184 287.43L790.768 302.756H790.773L817.363 318.082H817.368L827.27 312.374V301.843V293.138V290.008L838.369 283.61V283.626V299.537V305.98L843.952 302.761V302.756V272.104V241.452L817.363 256.778L790.773 272.104Z" fill="#1D24FF"/>
<path d="M790.779 149.49V146.94L792.994 145.659V143.108L795.209 141.827V139.277L797.425 137.996V135.445L799.64 134.17V131.614L801.855 130.339V127.782L804.071 126.507V123.951L806.286 122.676V120.119L808.501 118.844V116.288L810.717 115.013V112.456L812.932 111.181V108.63L815.147 107.35V104.799L817.363 103.518L817.357 103.512H817.363L817.307 103.485L817.363 103.512V72.8661L792.994 86.9056L792.944 86.9335L790.773 88.1865L778.561 95.2313L764.184 103.512H764.189L764.184 103.518V134.164V134.17L790.773 149.49H790.779Z" fill="#1D24FF"/>
<path d="M817.373 11.5566H817.367L790.783 26.8826L817.373 42.2086V11.5566Z" fill="#1D24FF"/>
<path d="M764.19 226.126V226.12L766.405 224.845L768.621 223.57L770.836 222.289L773.051 221.014L775.267 219.738L777.482 218.457L779.697 217.182L781.913 215.907L784.128 214.631L786.343 213.351L788.559 212.075L790.774 210.8V208.244L788.559 209.519V209.525L786.343 210.8L784.128 212.075L781.913 213.351L779.697 214.631L777.482 215.907L775.267 217.182L773.051 218.457L770.836 219.738L768.621 221.014L766.405 222.289L764.19 223.57V221.014L766.405 219.738L768.621 218.457L770.836 217.182L773.051 215.907L775.267 214.631L777.482 213.351L779.697 212.075L781.913 210.8L784.128 209.519L786.343 208.244L788.559 206.968V204.412L786.343 205.688L784.128 206.968L781.913 208.244L779.697 209.519L777.482 210.8L775.267 212.075L773.051 213.351L770.836 214.631L768.621 215.907L766.405 217.182L764.19 218.457V215.907L766.405 214.631L768.621 213.351L770.836 212.075L773.051 210.8L775.267 209.519L777.482 208.244L779.697 206.968L781.913 205.693V205.688L784.128 204.412L786.343 203.137V200.581L784.128 201.862L781.913 203.137L779.697 204.412L777.482 205.688L775.267 206.968L773.051 208.244L770.836 209.519L768.621 210.8L766.405 212.075L764.19 213.351V210.8L766.405 209.519L768.621 208.244L770.836 206.968L773.051 205.688L775.267 204.412L777.482 203.137L779.697 201.862L781.913 200.581L784.128 199.305V196.749L781.913 198.03L779.697 199.305L777.482 200.581L775.267 201.862L773.051 203.137L770.836 204.412L768.621 205.688L766.405 206.968L764.19 208.244V205.688L766.405 204.412L768.621 203.137L770.836 201.862L773.051 200.581L775.267 199.305L777.482 198.03L779.697 196.749L781.913 195.474V192.918L779.697 194.199L777.482 195.474L775.267 196.749L773.051 198.03L770.836 199.305L768.621 200.581L766.405 201.862L764.19 203.137V200.581L766.405 199.305L768.621 198.03L770.836 196.749L773.051 195.474L775.267 194.199L777.482 192.918L779.697 191.642V189.086L777.482 190.367L775.267 191.642L773.051 192.918L770.836 194.199L768.621 195.474L766.405 196.749L764.19 198.03V195.474L766.405 194.199L768.621 192.918L770.836 191.642L773.051 190.367L775.267 189.086L777.482 187.811V185.26L775.267 186.536L773.051 187.811L770.836 189.086L768.621 190.367L766.405 191.642L764.19 192.918L761.975 194.199L764.185 195.474L750.898 203.137L737.601 210.8V241.452L764.185 256.778H764.19V226.126Z" fill="#1D24FF"/>
<path d="M731.581 152.96L737.598 149.496V123.951V118.844V118.838V88.1921L711.009 103.518V134.17V164.816L720.488 159.359V148.822V139.633V136.988L731.581 130.589V130.606V146.027V152.96Z" fill="#1D24FF"/>
<path d="M1163.04 394.712L1160.82 395.987V395.998L1163.04 394.717V394.712Z" fill="#1D24FF"/>
<path d="M1267.19 487.949L1269.4 486.673L1267.19 487.949Z" fill="#1D24FF"/>
<path d="M742.042 182.704L744.257 181.429L746.472 180.148L748.687 178.873L750.903 177.597L753.118 176.316L755.333 175.041L757.549 173.766L759.764 172.491L761.979 171.21L764.195 169.934L766.41 168.659V166.103L764.195 167.378L761.979 168.659L759.764 169.934L757.549 171.21L755.333 172.491L753.118 173.766L750.903 175.041L748.687 176.316L746.472 177.597L744.257 178.873L742.042 180.148L739.826 181.429L742.042 182.704Z" fill="#1D24FF"/>
<path d="M750.896 182.704L753.111 181.429L755.327 180.148L757.542 178.873L759.757 177.597L761.973 176.317L764.188 175.041L766.403 173.766L768.619 172.491V169.934L766.403 171.21L764.188 172.491L761.973 173.766L759.757 175.041L757.542 176.317L755.327 177.597L753.111 178.873L750.896 180.148L748.681 181.429L746.465 182.704L744.25 183.98L746.465 185.26L748.681 183.98L750.896 182.704Z" fill="#1D24FF"/>
<path d="M750.898 187.811L753.113 186.536L755.329 185.26L757.544 183.98L759.759 182.704L761.975 181.429L764.19 180.148L766.405 178.873L768.621 177.597L770.836 176.317V173.766L768.621 175.041L766.405 176.317L764.19 177.597L761.975 178.873L759.759 180.148L757.544 181.429L755.329 182.704L753.113 183.98L750.898 185.26L748.683 186.536L750.898 187.811Z" fill="#1D24FF"/>
<path d="M755.326 190.367L757.541 189.086L759.756 187.811L761.972 186.536L764.187 185.26L766.402 183.979L768.618 182.704L770.833 181.429L773.048 180.148V177.597L770.833 178.873L768.618 180.148L766.402 181.429L764.187 182.704L761.972 183.979L759.756 185.26L757.541 186.536L755.326 187.811L753.11 189.086V189.092L755.326 190.367Z" fill="#1D24FF"/>
<path d="M759.761 192.918L761.977 191.642L764.192 190.367L766.407 189.086L768.623 187.811L770.838 186.536L773.053 185.26L775.269 183.979V181.429L773.053 182.704L770.838 183.979L768.623 185.26L766.407 186.536L764.192 187.811L761.977 189.086L759.761 190.367L757.546 191.642L759.761 192.923V192.918Z" fill="#1D24FF"/>
<path d="M1276.06 334.689L1278.28 333.414L1280.49 332.133L1282.71 330.857L1284.92 329.582L1287.14 328.307L1289.35 327.026L1291.57 325.751L1293.78 324.475L1296 323.194L1298.21 321.919V319.363L1296 320.644L1293.78 321.919L1291.57 323.194L1289.35 324.475L1287.14 325.751L1284.92 327.026L1282.71 328.307L1280.49 329.582L1278.28 330.857L1276.06 332.133L1273.84 333.414L1271.62 334.689V337.245L1273.84 335.97L1273.84 335.964L1276.06 334.689Z" fill="#1D24FF"/>
<path d="M1278.27 338.52H1278.28L1280.49 337.245L1282.71 335.964L1284.92 334.689L1287.14 333.413L1289.35 332.133L1291.57 330.857L1293.78 329.582L1296 328.307V328.301L1298.21 327.026L1300.43 325.75V323.194L1298.21 324.475L1296 325.75L1293.78 327.026L1291.57 328.307L1289.35 329.582L1287.14 330.857L1284.92 332.133L1282.71 333.413L1280.49 334.689L1278.28 335.964L1276.06 337.245H1276.06L1273.85 338.52V341.076L1276.06 339.796L1278.27 338.52Z" fill="#1D24FF"/>
<path d="M1280.49 342.352L1282.7 341.076L1284.92 339.795L1287.13 338.52L1289.35 337.245L1291.56 335.964L1293.78 334.689L1295.99 333.413L1298.21 332.132L1300.43 330.857L1302.64 329.582V327.026L1300.43 328.307L1298.21 329.582L1295.99 330.857L1293.78 332.132L1291.56 333.413L1289.35 334.689L1287.13 335.964L1284.92 337.245L1282.7 338.52L1280.49 339.795L1278.27 341.076L1276.06 342.352V344.902L1278.27 343.627L1280.49 342.352Z" fill="#1D24FF"/>
<path d="M1282.71 346.183L1284.92 344.902L1287.14 343.627L1289.35 342.352L1291.57 341.076L1293.78 339.796L1296 338.52L1298.21 337.245L1300.43 335.964L1302.64 334.689L1304.86 333.413V330.857L1302.64 332.133L1300.43 333.413L1298.21 334.689L1296 335.964L1293.78 337.245L1291.57 338.52L1289.35 339.796L1287.14 341.076L1284.92 342.352L1282.71 343.627L1280.49 344.902L1278.27 346.183V348.734L1280.49 347.459L1282.71 346.183Z" fill="#1D24FF"/>
<path d="M1284.93 350.015L1287.14 348.734L1289.36 347.459L1291.57 346.183L1293.79 344.902L1296 343.627L1298.22 342.352L1300.43 341.076L1302.65 339.796L1304.86 338.52L1307.08 337.245V334.689L1304.86 335.964L1302.65 337.245L1300.43 338.52L1298.22 339.796L1296 341.071V341.076L1293.79 342.352L1291.57 343.627L1289.36 344.902L1287.14 346.183L1284.93 347.459L1282.71 348.734L1280.5 350.015V352.565L1282.71 351.29L1284.93 350.015Z" fill="#1D24FF"/>
<path d="M1287.13 353.846L1289.35 352.565L1291.56 351.29L1293.78 350.015L1295.99 348.734L1298.21 347.458L1300.42 346.183L1302.64 344.902L1303.84 344.212L1304.86 343.627L1307.07 342.352L1309.29 341.076V341.071V338.52L1307.07 339.795L1304.86 341.076L1302.64 342.352L1300.42 343.627L1298.21 344.902L1295.99 346.183L1293.78 347.458L1291.56 348.734L1289.35 350.015L1287.13 351.29L1284.92 352.565L1282.7 353.846V356.397L1284.92 355.122L1287.13 353.846Z" fill="#1D24FF"/>
<path d="M1289.35 357.672L1291.57 356.397L1293.78 355.122L1296 353.846V353.841L1298.21 352.565L1300.42 351.29H1300.43L1302.64 350.015L1304.86 348.734L1307.07 347.459L1309.29 346.183L1311.5 344.902V342.352L1309.29 343.627L1307.07 344.902L1304.86 346.183L1302.64 347.459L1300.43 348.734L1298.21 350.015H1298.21L1296 351.29L1293.78 352.565L1291.57 353.846L1289.35 355.122L1287.14 356.397L1284.92 357.672V360.228L1287.14 358.953L1289.35 357.672Z" fill="#1D24FF"/>
<path d="M1291.56 361.503L1293.78 360.228L1296 358.953L1298.21 357.672L1300.43 356.397L1302.64 355.121L1304.86 353.846L1307.07 352.565L1309.29 351.29L1311.5 350.015L1313.72 348.734V346.183L1311.5 347.458L1309.29 348.734L1307.07 350.015L1304.86 351.29L1302.64 352.565L1300.43 353.846L1298.21 355.121L1296 356.397L1293.78 357.672L1291.56 358.953L1289.35 360.228L1287.13 361.503V364.06L1289.35 362.784L1291.56 361.503Z" fill="#1D24FF"/>
<path d="M1293.79 365.335L1296 364.06L1298.22 362.784L1300.43 361.504L1302.65 360.228L1304.86 358.953L1307.08 357.672L1309.29 356.397L1311.51 355.121L1313.72 353.846L1315.94 352.565V350.015L1313.72 351.29L1311.51 352.565L1309.29 353.846L1307.08 355.121L1304.86 356.397L1302.65 357.672L1300.43 358.953L1298.22 360.228L1296 361.504L1293.79 362.784L1291.57 364.06L1289.36 365.335V367.891L1291.57 366.616L1293.79 365.335Z" fill="#1D24FF"/>
<path d="M1296 369.167L1298.22 367.891L1300.43 366.616L1302.65 365.335L1304.86 364.06L1307.08 362.785L1309.29 361.504L1311.51 360.228L1313.72 358.953L1315.94 357.672L1318.15 356.397V353.846L1315.94 355.122L1313.72 356.397L1311.51 357.672V357.678L1309.29 358.953L1307.08 360.228L1304.86 361.504L1302.65 362.785L1300.43 364.06L1298.22 365.335L1296 366.616L1293.78 367.891L1291.57 369.167V371.723L1293.78 370.442L1296 369.167Z" fill="#1D24FF"/>
<path d="M1295.99 374.274L1298.21 372.998L1300.43 371.723L1302.64 370.442L1304.86 369.167L1307.07 367.891L1309.29 366.616L1311.5 365.335L1313.72 364.06L1315.93 362.785L1318.15 361.509V361.504L1320.36 360.228V357.672L1318.15 358.953L1315.93 360.228L1313.72 361.504L1311.5 362.785L1309.29 364.06L1307.07 365.335L1304.86 366.616L1302.64 367.891L1300.43 369.167L1298.21 370.442L1295.99 371.723L1293.78 372.998V375.554L1295.99 374.274Z" fill="#1D24FF"/>
<path d="M1298.21 378.105L1300.43 376.83L1302.64 375.554L1304.86 374.273L1307.07 372.998L1309.29 371.723L1311.51 370.442L1313.72 369.167L1315.94 367.891L1318.15 366.616L1320.37 365.335L1322.58 364.06V361.504L1320.37 362.785L1318.15 364.06L1315.94 365.335L1313.72 366.616L1311.51 367.891L1309.29 369.167L1307.07 370.442L1304.86 371.723L1302.64 372.998L1300.43 374.273L1298.21 375.554L1296 376.83V379.386L1298.21 378.105Z" fill="#1D24FF"/>
<path d="M1134.24 163.541L1132.02 164.816L1129.81 166.097L1127.59 167.373L1125.38 168.648L1123.16 169.923L1120.94 171.204L1118.73 172.479L1116.51 173.755L1114.3 175.036L1112.08 176.311L1109.87 177.586V180.142L1112.08 178.867L1114.3 177.586L1116.51 176.311L1118.73 175.036L1120.94 173.755L1123.16 172.479L1125.38 171.204L1127.59 169.923L1129.81 168.648L1132.02 167.373L1134.24 166.097L1136.45 164.816L1136.46 164.822V134.17V103.513L1109.87 118.839V118.844L1083.28 134.164V134.17L1056.68 149.496V180.148L1083.28 164.822V136.726V134.17L1085.49 132.895L1087.71 131.614L1089.92 130.339L1092.15 129.063L1094.36 127.782L1096.58 126.507L1098.79 125.232L1101.01 123.956L1103.22 122.676L1105.44 121.4L1107.65 120.125L1109.87 118.844L1112.08 120.125L1109.87 121.4L1107.65 122.676L1105.44 123.956L1103.22 125.232L1101.01 126.507L1098.79 127.782L1096.58 129.063L1094.36 130.339L1092.15 131.614L1089.92 132.895L1087.71 134.17L1085.49 135.445V135.451V138.002L1087.71 136.726L1089.92 135.445L1092.15 134.17L1094.36 132.895L1096.58 131.614L1098.79 130.339L1101.01 129.063L1103.22 127.782L1105.44 126.507L1107.65 125.232L1109.87 123.956V123.951L1112.08 122.676L1114.3 123.956L1112.08 125.232L1109.87 126.507L1107.65 127.782L1105.44 129.063L1103.22 130.339L1101.01 131.614L1098.79 132.895L1096.58 134.17L1094.36 135.445L1092.15 136.726L1089.92 138.002L1087.71 139.277V141.833L1089.92 140.552L1092.14 139.277H1092.15L1094.36 138.002L1096.58 136.726L1098.79 135.445L1101.01 134.17L1103.22 132.895L1105.44 131.614L1107.65 130.339L1109.87 129.063L1112.08 127.782L1114.3 126.507L1116.51 127.782L1114.3 129.063L1112.08 130.339L1109.87 131.614L1107.65 132.895L1105.44 134.17L1103.22 135.445L1101.01 136.726L1098.79 138.002L1096.58 139.277L1094.36 140.552L1094.36 140.558L1092.15 141.833L1089.92 143.108V145.665L1092.15 144.384L1094.36 143.108L1096.57 141.833H1096.58L1098.79 140.552L1101.01 139.277L1103.22 138.002L1105.44 136.726L1107.65 135.445L1109.87 134.17L1112.08 132.895L1114.3 131.614L1116.51 130.339L1118.73 131.614L1116.51 132.895L1114.3 134.17L1112.08 135.445L1109.87 136.721V136.726L1107.65 138.002L1105.44 139.277L1103.22 140.552L1101.01 141.833L1098.79 143.108H1098.79L1096.58 144.384L1094.36 145.665L1092.15 146.94V149.496L1094.36 148.215L1096.58 146.94L1098.79 145.665L1101 144.389L1101.01 144.384L1103.22 143.108L1105.44 141.833L1107.65 140.552L1109.87 139.277L1112.08 138.002L1114.3 136.726L1116.51 135.445L1118.73 134.17L1120.94 135.445L1118.73 136.726L1116.51 138.002L1114.3 139.277L1112.08 140.552L1109.87 141.833L1107.65 143.108L1105.44 144.384L1103.22 145.665H1103.22L1101.01 146.94L1098.79 148.215L1096.58 149.496L1094.36 150.771V153.328L1096.58 152.047L1098.79 150.771L1101.01 149.496L1103.22 148.215L1105.43 146.94H1105.44L1107.65 145.665L1109.87 144.384L1112.08 143.108L1114.3 141.833L1116.51 140.552L1118.73 139.277L1120.94 138.002L1123.16 139.277L1120.94 140.552L1118.73 141.833L1116.51 143.108L1114.3 144.384L1112.08 145.665L1109.87 146.94L1107.65 148.215L1105.44 149.496L1103.22 150.771L1101.01 152.047L1098.79 153.328L1096.58 154.603V157.153L1098.79 155.878L1101.01 154.603L1103.22 153.328L1105.44 152.047L1107.65 150.771L1109.87 149.496V149.49L1112.08 148.215L1114.3 146.94L1116.51 145.665L1118.73 144.384L1120.94 143.108L1123.16 141.833L1125.38 143.108L1123.16 144.384L1120.94 145.665L1118.73 146.94L1116.51 148.215L1114.3 149.496L1112.08 150.771L1109.87 152.047L1107.65 153.328L1105.44 154.603L1103.22 155.878L1101.01 157.153L1098.79 158.434V160.985L1101.01 159.71L1103.22 158.434L1105.44 157.153L1107.65 155.878L1109.87 154.603L1112.08 153.328L1114.3 152.047L1116.51 150.771L1118.73 149.496L1120.94 148.215L1123.16 146.94L1125.38 145.665L1127.59 146.94L1125.38 148.215L1123.16 149.496L1120.94 150.771L1118.73 152.047L1116.51 153.328L1114.3 154.603L1112.08 155.878L1109.87 157.153L1107.65 158.434L1105.44 159.71L1103.22 160.985L1101.01 162.266V164.816L1103.22 163.541L1105.44 162.266L1107.65 160.985L1109.87 159.71L1112.08 158.434L1114.3 157.153L1116.51 155.878L1118.73 154.603L1120.94 153.328L1123.16 152.047L1125.38 150.771L1127.59 149.496L1129.81 150.771L1127.59 152.047L1125.38 153.328L1123.16 154.603L1120.94 155.878L1118.73 157.153L1116.51 158.434L1114.3 159.71L1112.08 160.985L1109.87 162.266L1107.65 163.541L1105.44 164.816L1103.22 166.097V168.648L1105.44 167.373L1107.65 166.097L1109.87 164.816L1112.08 163.541L1114.3 162.266L1116.51 160.985L1118.73 159.71L1120.94 158.434L1123.16 157.159V157.153L1125.38 155.878L1127.59 154.603L1129.81 153.328L1132.02 154.603L1129.81 155.878L1127.59 157.153L1125.38 158.434L1123.16 159.71L1120.94 160.985L1118.73 162.266L1116.51 163.541L1114.3 164.816L1112.08 166.097L1109.87 167.373L1107.65 168.648L1105.44 169.923V172.479L1107.65 171.204L1109.87 169.923L1112.08 168.648L1114.3 167.373L1116.51 166.097L1118.73 164.816L1120.94 163.541L1123.16 162.266L1125.38 160.985L1127.59 159.71L1129.81 158.434L1132.02 157.153L1134.24 158.434L1132.02 159.71L1129.81 160.985L1127.59 162.266L1125.38 163.541L1123.16 164.816L1120.94 166.097L1118.73 167.373L1116.51 168.648L1114.3 169.923L1112.08 171.204L1109.87 172.479L1107.65 173.755V176.311L1109.87 175.036L1112.08 173.755L1114.3 172.479L1116.51 171.204L1118.73 169.923L1120.94 168.648L1123.16 167.373L1125.38 166.097L1127.59 164.816L1129.81 163.541L1132.02 162.266L1134.24 160.985L1136.45 162.266L1134.24 163.541Z" fill="#1D24FF"/>
<path d="M1030.08 164.817V136.721V134.176V134.165L1027.87 135.445V135.451V137.996L1025.65 139.277V141.828L1023.44 143.103V145.659L1021.22 146.934V149.491L1019 150.766V153.322L1016.79 154.597V157.154L1014.57 158.429V160.985L1012.36 162.26V164.817L1010.14 166.092V168.648L1007.93 169.923V172.474L1005.71 173.755V176.305L1003.5 177.581L1003.5 177.586V180.137H1003.5L1030.08 164.817Z" fill="#1D24FF"/>
<path d="M984.661 383.841V383.852V383.858L986.242 384.766L986.593 384.972V384.966V384.955V373.806V362.584L984.661 361.47V374.919V383.841Z" fill="#1D24FF"/>
<path d="M1038.68 231.066V231.071V231.082L1040.61 232.196V232.191V232.179V220.061V209.809L1038.68 208.695V221.181V231.066Z" fill="#1D24FF"/>
<path d="M639.6 300.658V300.663V300.674L641.537 301.788V301.783V301.771V289.653V279.401L639.6 278.287V290.773V300.658Z" fill="#1D24FF"/>
<path d="M631.956 23.9177V23.9233V23.9344L633.893 25.0482V25.0427V25.0315V12.9133V2.66071L631.956 1.54691V14.0327V23.9177Z" fill="#1D24FF"/>
<path d="M800.272 205.326V216.241V216.252L802.209 217.371V217.355V204.212V194.984L800.272 193.87V205.326Z" fill="#1D24FF"/>
<path d="M1278.11 307.768L1280.04 308.882V308.865V296.624V286.494L1278.11 285.381V297.738V307.768Z" fill="#1D24FF"/>
<path d="M831.866 362.261V373.745V373.773L833.803 374.886V374.875V374.858V361.148V352.504L831.866 351.385V362.261Z" fill="#1D24FF"/>
<path d="M1093.65 17.7215V17.5377V5.57541V-4.64935L1093.48 -4.74959H1091.71V6.69478V16.4183V16.6021V16.6188L1093.65 17.7326V17.7215Z" fill="#1D24FF"/>
<path d="M828.167 109.744V109.733V97.2918V87.3734L826.23 86.2596V98.4056V108.619V108.63V108.647L828.167 109.761V109.744Z" fill="#1D24FF"/>
<path d="M1117.86 451.416V460.627V460.766L1119.79 461.88V461.863V461.741V450.302V439.492L1117.86 438.379V451.416Z" fill="#1D24FF"/>
<path d="M1147.55 385.779V385.773V372.992V363.403L1145.61 362.289V374.112V384.66V384.665V384.676L1147.55 385.79V385.779Z" fill="#1D24FF"/>
<path d="M905.992 135.1V135.117L907.929 136.231V143.275V143.281L914.058 139.745L905.992 135.1Z" fill="#666BFF"/>
<path d="M984.661 361.47L986.593 362.584V373.806V384.955L986.609 384.96L995.76 379.687V368.526V367.852L984.661 361.454V361.47Z" fill="#666BFF"/>
<path d="M1038.68 208.678V208.695L1040.61 209.809V220.061V232.18L1040.62 232.185L1049.77 226.911V215.077L1049.52 214.927L1038.68 208.678Z" fill="#666BFF"/>
<path d="M639.6 278.27V278.287L641.537 279.401V289.653V301.771L641.548 301.777L650.699 296.503V284.669L650.442 284.519L639.6 278.27Z" fill="#666BFF"/>
<path d="M631.956 1.53026V1.54696L633.893 2.66077V12.9134V25.0316L633.904 25.0372L643.055 19.7633V7.92909L642.799 7.77872L631.956 1.53026Z" fill="#666BFF"/>
<path d="M800.272 193.853V193.87L802.209 194.984V204.212V217.355L802.221 217.36L811.371 212.086V200.247L810.225 199.589L800.272 193.853Z" fill="#666BFF"/>
<path d="M1278.11 285.364V285.381L1280.04 286.494V296.624V308.865L1280.06 308.876L1289.21 303.597V291.763L1288.84 291.551L1278.11 285.364Z" fill="#666BFF"/>
<path d="M841.312 356.815L831.866 351.374V351.385L833.803 352.504V361.147V374.858V374.875L833.814 374.881L833.826 374.875L842.965 369.607V357.767L841.312 356.815Z" fill="#666BFF"/>
<path d="M1093.51 -4.74959H1093.48L1093.65 -4.64935V5.57541V17.5377V17.7215L1093.66 17.727L1093.82 17.6379L1102.81 12.4532V0.613394L1102.53 0.457461L1093.51 -4.74959Z" fill="#666BFF"/>
<path d="M828.167 97.2919V109.733V109.744L828.179 109.755V109.75H828.19L837.329 104.476V92.6418L836.784 92.3244L826.23 86.243V86.2597L828.167 87.3735V97.2919Z" fill="#666BFF"/>
<path d="M1117.86 438.379L1119.79 439.492V450.302V461.741V461.863L1119.81 461.874L1119.91 461.813L1128.96 456.595V445.017V444.761L1117.86 438.362V438.379Z" fill="#666BFF"/>
<path d="M1145.61 362.272V362.289L1147.55 363.403V372.993V385.774L1147.56 385.785L1156.71 380.505V368.671L1155.88 368.192L1145.61 362.272Z" fill="#666BFF"/>
<path d="M1172.86 308.408V317.202L1182 322.481L1182.02 322.47V313.688V300.099L1183.95 298.986V298.969L1172.86 305.368V308.408Z" fill="#666BFF"/>
<path d="M720.495 139.633V148.822L729.629 154.09L729.64 154.102L729.657 154.09V154.079V144.913V131.72L731.588 130.606V130.589L720.495 136.988V139.633Z" fill="#666BFF"/>
<path d="M827.271 293.138V301.843L836.406 307.111L836.422 307.122L836.433 307.111V307.094V298.423V284.74L838.37 283.626V283.61L827.271 290.008V293.138Z" fill="#666BFF"/>
<path d="M593.241 183.848V192.592L602.392 197.871L602.403 197.86V189.128V175.489L604.34 174.375V174.359L593.241 180.757V183.848Z" fill="#666BFF"/>
<path d="M1208.43 153.974V145.002V144.996V131.603L1210.36 130.483V130.472L1199.27 136.865V139.717V139.722V148.705L1208.41 153.979L1208.43 153.974Z" fill="#666BFF"/>
<path d="M1208.37 62.0622L1208.37 62.0677L1208.38 62.0566V62.051V53.0181V39.6858L1210.32 38.572V38.5553L1199.22 44.9541V47.7386V56.7883L1208.37 62.0622Z" fill="#666BFF"/>
<path d="M1066.25 93.6998V102.788L1075.38 108.057L1075.39 108.062L1075.4 108.068L1075.41 108.057V108.046V108.04V98.9848V85.686L1077.35 84.5722V84.5555L1066.25 90.9543V93.6998Z" fill="#666BFF"/>
<path d="M933.276 78.3627V87.4792L942.416 92.7475L942.427 92.7531L942.438 92.7475V92.7364V83.6421V70.3767L944.375 69.2629V69.2462L933.276 75.6394V78.3627Z" fill="#666BFF"/>
<path d="M597.289 75.9V85.0165L606.429 90.2848L606.44 90.2904L606.451 90.2848V90.2736V81.1794V67.914L608.388 66.8002V66.7834L597.289 73.1767V75.9Z" fill="#666BFF"/>
<path d="M821.905 368.003L831.869 373.745V362.261V351.385V351.374L841.314 356.815L842.968 357.767V369.607V380.144L848.495 383.329V352.677L821.905 337.351V368.003Z" fill="#3D43FF"/>
<path d="M539.766 127.478L513.182 112.152L539.766 96.8258L513.182 81.4998H513.176L486.592 66.1738H486.587V96.8258V127.478H486.592L513.176 142.804H513.182L539.766 158.13H539.772L566.361 142.804L539.772 127.478H539.766Z" fill="#3D43FF"/>
<path d="M1349.18 287.43L1375.77 272.104H1375.77L1402.36 256.778L1375.77 241.452H1375.77L1349.18 226.126H1349.18L1322.59 210.8H1322.58L1296 195.474V226.12V226.126V256.778L1322.59 241.452L1331.64 246.67V236.234V224.294V224.283L1342.01 230.258L1342.74 230.676V242.516V253.063L1342.59 252.98L1349.18 256.778V287.43H1349.18Z" fill="#3D43FF"/>
<path d="M1349.18 103.512L1322.59 88.1921L1296 103.512L1322.59 118.838L1349.18 103.512Z" fill="#3D43FF"/>
<path d="M1322.58 364.06H1322.59L1332.29 369.651V358.469V347.364V347.347L1341.94 352.911L1343.39 353.74V365.58V376.05L1349.17 379.386L1375.76 364.06L1402.35 348.739L1375.76 333.413L1349.17 318.087L1349.17 318.082L1322.59 302.761V302.756L1296 287.435V287.43H1295.99L1269.41 272.11V302.756V302.761L1280.04 308.887L1280.04 308.882L1278.11 307.768V297.738V285.381V285.364L1288.84 291.551L1289.21 291.763V303.597V314.15L1295.99 318.082H1296V318.087L1298.21 319.363V321.919L1300.43 323.194V325.75L1302.64 327.026V329.582L1304.86 330.857V333.413L1307.07 334.689V337.245L1309.29 338.52V341.071L1311.5 339.79L1311.51 339.796L1309.29 341.076L1311.5 342.352V344.902L1313.72 346.183V348.734L1315.93 350.015V352.565L1318.15 353.846V356.397L1320.36 357.672V360.228L1322.58 361.504V364.06Z" fill="#3D43FF"/>
<path d="M1322.59 26.8825H1322.59L1349.17 42.2085V11.5565L1322.59 -3.76944L1320.88 -4.74959H1271.11L1269.41 -3.76944L1296 11.5565L1322.59 26.8825Z" fill="#3D43FF"/>
<path d="M1280.04 308.865V308.882L1280.06 308.876L1280.04 308.865Z" fill="#3D43FF"/>
<path d="M1269.41 425.37V456.016V456.021L1296 471.342V440.695H1295.99L1269.41 425.37Z" fill="#3D43FF"/>
<path d="M1242.82 379.386L1260.6 389.633L1269.41 394.712L1286.25 385.011L1296 379.386L1269.41 364.065L1242.82 379.386Z" fill="#3D43FF"/>
<path d="M1242.82 318.087V348.734L1269.41 333.408L1242.82 318.087Z" fill="#3D43FF"/>
<path d="M1242.82 410.038L1269.41 394.717L1260.6 389.633L1242.82 379.391V410.038Z" fill="#3D43FF"/>
<path d="M1242.81 134.17V134.165L1269.4 118.844V118.839L1242.81 103.518L1216.23 118.844H1216.22V149.491V149.496H1216.23L1242.81 134.17Z" fill="#3D43FF"/>
<path d="M1242.81 42.2086L1269.4 26.8826L1242.81 11.5622V11.5566H1242.81L1216.22 -3.76935V26.8826V26.8882V57.5346L1242.81 42.2086H1242.81Z" fill="#3D43FF"/>
<path d="M1216.23 88.1921H1216.22V118.838L1242.81 103.512L1216.23 88.1921Z" fill="#3D43FF"/>
<path d="M1216.22 180.148V180.142L1189.63 164.822V195.474L1216.22 210.794V210.8L1242.81 195.474L1216.22 180.148Z" fill="#3D43FF"/>
<path d="M1216.22 302.761V302.756L1189.63 287.43V318.082L1216.22 302.761Z" fill="#3D43FF"/>
<path d="M1189.63 134.17H1189.64L1189.63 134.165V134.17Z" fill="#3D43FF"/>
<path d="M1189.63 226.126L1216.22 210.8L1189.63 195.474V226.126Z" fill="#3D43FF"/>
<path d="M1189.63 256.778V287.43L1216.22 272.104L1189.63 256.778Z" fill="#3D43FF"/>
<path d="M1163.04 425.37V456.021L1189.63 471.347L1216.22 456.021V456.016L1189.63 440.695L1163.04 425.37Z" fill="#3D43FF"/>
<path d="M556.812 193.505L583.402 208.831V178.179L556.812 162.853V193.505Z" fill="#3D43FF"/>
<path d="M1163.04 394.712L1163.05 394.717L1167.92 391.905L1189.63 379.386L1163.04 364.06L1136.45 348.734V379.386L1140.91 381.953L1143.1 383.217L1145.32 384.493L1145.61 384.665V384.66V374.112V362.289V362.272L1155.87 368.192L1156.71 368.671V380.505V391.058L1156.19 390.763L1156.39 390.88L1158.61 392.155L1160.82 393.431L1163.04 394.712H1163.04Z" fill="#3D43FF"/>
<path d="M1163.04 149.496V118.844V118.839L1136.45 103.513V134.17V164.822L1163.04 180.148V149.496Z" fill="#3D43FF"/>
<path d="M1109.87 210.8L1083.28 195.474V226.126V256.778L1109.87 241.452L1136.46 226.126L1109.87 210.8Z" fill="#3D43FF"/>
<path d="M710.794 280.392L684.204 265.066V295.718V326.37L710.794 311.044L737.383 295.718L710.794 280.392Z" fill="#3D43FF"/>
<path d="M703.146 3.65195L676.557 -11.674V18.9779V49.6299L703.146 34.3039L729.736 18.9779L703.146 3.65195Z" fill="#3D43FF"/>
<path d="M1109.86 456.021L1117.86 460.627V451.416V438.379V438.362L1128.95 444.761V445.017V456.595V467.026L1136.45 471.347V440.695L1109.86 425.37V456.021Z" fill="#3D43FF"/>
<path d="M1109.86 394.717L1102.99 390.758L1083.28 379.391V410.038V410.043L1109.87 425.369V394.717H1109.86Z" fill="#3D43FF"/>
<path d="M1109.87 302.756V272.104L1083.28 287.43L1109.87 302.756Z" fill="#3D43FF"/>
<path d="M1109.87 57.5346L1083.28 42.2086V72.8605V103.513L1109.87 88.1865V57.5346Z" fill="#3D43FF"/>
<path d="M1091.72 16.4183V6.69478V-4.74959H1058.39L1056.68 -3.76944L1083.28 11.5565L1091.72 16.4183Z" fill="#3D43FF"/>
<path d="M1102.82 0.613394V12.4532V22.8171L1109.87 26.8825L1136.46 11.5566L1163.05 26.8825V57.5345V88.1865L1189.64 72.8605V42.2085V11.5566L1163.05 -3.76944L1161.34 -4.74959H1111.57L1109.87 -3.76944L1108.17 -4.74959H1093.51L1102.54 0.457461L1102.82 0.613394Z" fill="#3D43FF"/>
<path d="M1109.87 333.408L1083.28 318.082L1056.68 302.756V333.408V364.06L1083.28 348.734L1109.87 333.408Z" fill="#3D43FF"/>
<path d="M1040.61 232.19L1040.62 232.185L1040.61 232.18V232.19H1040.61Z" fill="#3D43FF"/>
<path d="M641.546 301.782L641.551 301.777L641.541 301.771V301.782H641.546Z" fill="#3D43FF"/>
<path d="M633.898 25.042L633.903 25.0368L633.893 25.0315V25.042H633.898Z" fill="#3D43FF"/>
<path d="M1049.77 237.459L1047.76 236.312L1056.68 241.452V210.8L1030.09 195.474V226.126L1038.67 231.071V231.066V221.181V208.695V208.678L1049.51 214.927L1049.77 215.077V226.911V237.459Z" fill="#3D43FF"/>
<path d="M650.699 307.051L648.69 305.903L657.607 311.044V280.392L631.018 265.066V295.718L639.601 300.663V300.657V290.772V278.287V278.27L650.443 284.518L650.699 284.669V296.503V307.051Z" fill="#3D43FF"/>
<path d="M643.056 30.3109L641.047 29.1637L649.964 34.3039V3.65195L623.374 -11.674V18.978L631.957 23.9233V23.9177V14.0326V1.54686V1.53015L642.8 7.77861L643.056 7.92899V19.7632V30.3109Z" fill="#3D43FF"/>
<path d="M1056.68 149.496L1030.09 134.17L1003.5 118.844H1003.49H1003.5L1005.71 120.119L1007.92 121.395L1010.14 122.676L1012.36 123.951L1014.57 125.226L1016.79 126.507L1019 127.782L1021.22 129.058L1023.43 130.333L1025.65 131.614L1027.86 132.889L1030.08 134.165V134.176V136.721V164.817L1003.5 180.137H1003.49V177.586L1001.28 176.305L999.063 175.03L996.848 173.755L994.633 172.474L992.417 171.199L990.202 169.923L987.987 168.648L985.771 167.367L983.556 166.092L981.341 164.817L979.131 163.541L979.125 163.536L976.91 162.26V164.817V164.822L1003.5 180.148L1030.09 164.822L1056.68 180.148V149.496Z" fill="#3D43FF"/>
<path d="M1030.09 287.43L1003.5 272.104L976.91 256.778V287.43V318.082L1003.5 302.756L1030.09 287.43Z" fill="#3D43FF"/>
<path d="M1003.5 394.717V394.712V364.06V333.408L976.91 318.082V348.734V379.386L984.658 383.852V383.841V374.919V361.47V361.454L995.757 367.852V368.526V379.687V390.234L998.334 391.738L1003.49 394.717H1003.5Z" fill="#3D43FF"/>
<path d="M986.59 384.966L986.595 384.972L986.607 384.96L986.59 384.955V384.966Z" fill="#3D43FF"/>
<path d="M1003.5 26.8825L1030.09 42.2085L1056.68 26.8825L1030.09 11.5565L1003.5 -3.76944L1001.8 -4.74959H952.021L950.323 -3.76944L976.913 11.5565L1003.5 26.8825Z" fill="#3D43FF"/>
<path d="M976.91 103.518V134.165V134.17V162.26L979.125 160.985L981.341 162.26L981.346 162.266L983.556 163.536L985.771 164.817L987.987 166.092L990.202 167.367L992.417 168.648L994.633 169.923L996.848 171.199L999.063 172.474L1001.28 173.755L1003.49 175.03L1003.5 175.036L1005.71 176.305V173.755L1003.5 172.48L1003.49 172.474L1001.28 171.199L999.063 169.923L996.848 168.648L994.633 167.367L992.417 166.092L990.202 164.817L987.987 163.536L985.771 162.26L983.562 160.991L983.556 160.985L981.341 159.704L979.125 158.429L981.341 157.154L983.556 158.429L985.771 159.704L985.777 159.71L987.987 160.985L990.202 162.26L992.417 163.536L994.633 164.817L996.848 166.092L999.063 167.367L1001.28 168.648L1003.49 169.923H1003.5L1005.71 171.199L1007.92 172.474V169.923L1005.71 168.648L1003.5 167.373L1003.49 167.367L1001.28 166.092L999.063 164.817L996.848 163.536L994.633 162.26L992.417 160.985L990.202 159.704L987.992 158.434L987.987 158.429L985.771 157.154L983.556 155.878L981.341 154.597L983.556 153.322L985.771 154.597L987.987 155.878L990.202 157.154L990.208 157.159L992.417 158.429L994.633 159.704L996.848 160.985L999.063 162.26L1001.28 163.536L1003.49 164.817H1003.5L1005.71 166.092L1007.92 167.367L1010.14 168.648V166.092L1007.92 164.817L1005.71 163.536L1003.5 162.266L1003.49 162.26L1001.28 160.985L999.063 159.704L996.848 158.429L994.633 157.154L992.423 155.878H992.417L990.202 154.597L987.987 153.322L985.771 152.047L983.556 150.766L985.771 149.491L987.987 150.766L990.202 152.047L992.417 153.322L994.633 154.597L994.638 154.603L996.848 155.878L999.063 157.154L1001.28 158.429L1003.49 159.704L1003.5 159.71L1005.71 160.985L1007.92 162.26L1010.14 163.536L1012.36 164.817V162.26L1010.14 160.985L1007.92 159.704L1005.71 158.429L1003.5 157.154H1003.49L1001.28 155.878L999.063 154.597L996.854 153.328L996.848 153.322L994.633 152.047L992.417 150.766L990.202 149.491L987.987 148.215L985.771 146.934L987.987 145.659L990.202 146.934L992.417 148.215L994.633 149.491L996.848 150.766L999.063 152.047H999.069L1001.28 153.322L1003.49 154.597L1003.5 154.603L1005.71 155.878L1007.92 157.154L1010.14 158.429L1012.36 159.704L1014.57 160.985V158.429L1012.36 157.154L1010.14 155.878L1007.92 154.597L1005.71 153.322L1003.5 152.047H1003.49L1001.28 150.771L1001.28 150.766L999.063 149.491L996.848 148.215L994.633 146.934L992.417 145.659L990.202 144.384L987.987 143.103L990.197 141.828H990.202L992.417 143.103L994.633 144.384L996.848 145.659L999.063 146.934L1001.28 148.215L1003.49 149.491L1003.5 149.496L1005.71 150.766L1007.92 152.047L1010.14 153.322L1012.36 154.597L1014.57 155.878L1016.79 157.154V154.597L1014.57 153.322L1012.36 152.047L1010.14 150.766L1007.92 149.491L1005.72 148.215H1005.71L1003.5 146.94L1003.49 146.934L1001.28 145.659L999.063 144.384L996.848 143.103L994.633 141.828L992.417 140.552L990.202 139.277L992.417 137.996L994.633 139.277L996.848 140.552L999.063 141.828L1001.28 143.103L1003.49 144.384H1003.5L1005.71 145.659L1007.92 146.934L1007.93 146.94L1010.14 148.215L1012.36 149.491L1014.57 150.766L1016.79 152.047L1019 153.322V150.766L1016.79 149.491L1014.57 148.215L1012.36 146.934L1010.15 145.665L1010.14 145.659L1007.92 144.384L1005.71 143.103L1003.5 141.833L1003.49 141.828L1001.28 140.552L999.063 139.277L996.848 137.996L994.633 136.721L992.417 135.445L994.633 134.165L996.848 135.445L999.063 136.721L1001.28 137.996L1003.49 139.277H1003.5L1005.71 140.552L1007.92 141.828L1010.14 143.103L1012.36 144.384L1012.36 144.389L1014.57 145.659L1016.79 146.934L1019 148.215L1021.22 149.491V146.934L1019 145.659L1016.79 144.384L1014.58 143.108L1014.57 143.103L1012.36 141.828L1010.14 140.552L1007.92 139.277L1005.71 137.996L1003.5 136.726L1003.49 136.721L1001.28 135.445L999.063 134.165L996.848 132.889L994.633 131.614L996.848 130.333L999.063 131.614L1001.28 132.889L1003.49 134.165L1003.5 134.17L1005.71 135.445L1007.92 136.721L1010.14 137.996L1012.36 139.277L1014.57 140.552L1016.79 141.828L1016.8 141.833L1019 143.103L1021.22 144.384L1023.43 145.659V143.103L1021.22 141.828L1019.01 140.558L1019 140.552L1016.79 139.277L1014.57 137.996L1012.36 136.721L1010.14 135.445L1007.92 134.165L1005.71 132.889L1003.5 131.614H1003.49L1001.28 130.333L999.063 129.058L996.848 127.782L999.063 126.507L1001.28 127.782L1003.49 129.058L1003.5 129.063L1005.71 130.333L1007.92 131.614L1010.14 132.889L1012.36 134.165L1014.57 135.445L1016.79 136.721L1019 137.996L1021.22 139.277H1021.23L1023.43 140.552L1025.65 141.828V139.277L1023.44 138.002L1023.43 137.996L1021.22 136.721L1019 135.445L1016.79 134.165L1014.57 132.889L1012.36 131.614L1010.14 130.333L1007.92 129.058L1005.71 127.782L1003.5 126.507H1003.49L1001.28 125.226L999.063 123.951L1001.28 122.676L1003.49 123.951L1003.5 123.957L1005.71 125.226L1007.92 126.507L1010.14 127.782L1012.36 129.058L1014.57 130.333L1016.79 131.614L1019 132.889L1021.22 134.165L1023.43 135.445L1025.65 136.721L1025.66 136.726L1027.86 137.996V135.451V135.445L1025.65 134.165L1023.43 132.889L1021.22 131.614L1019 130.333L1016.79 129.058L1014.57 127.782L1012.36 126.507L1010.14 125.226L1007.92 123.951L1005.71 122.676L1003.5 121.4L1003.49 121.395L1001.28 120.119L1003.49 118.844L976.91 103.518Z" fill="#3D43FF"/>
<path d="M976.914 72.8606V42.2086L950.325 26.8882V26.8826L923.735 11.5622V42.2086L950.325 57.5346L976.914 72.8606Z" fill="#3D43FF"/>
<path d="M950.323 180.148V210.8L976.913 226.126L1003.5 241.452V210.8L976.913 195.474L950.323 180.148Z" fill="#3D43FF"/>
<path d="M551.256 249.74V280.392L577.845 295.718L604.435 311.044V280.392L577.845 265.066L551.256 249.74Z" fill="#3D43FF"/>
<path d="M543.607 -27V3.65196L570.197 18.978L596.786 34.3039V3.65196L570.197 -11.674L543.607 -27Z" fill="#3D43FF"/>
<path d="M950.323 425.364L976.907 410.043L950.323 394.717V425.364Z" fill="#3D43FF"/>
<path d="M757.066 349.224L783.65 333.903L757.066 318.577V349.224Z" fill="#3D43FF"/>
<path d="M592.279 144.798L618.863 129.477L592.279 114.151V144.798Z" fill="#3D43FF"/>
<path d="M593.669 251.878L620.253 236.558L593.669 221.232V251.878Z" fill="#3D43FF"/>
<path d="M950.324 241.452L923.734 226.126L897.145 241.452V272.104L923.734 256.778L950.324 241.452Z" fill="#3D43FF"/>
<path d="M923.736 318.087V318.082H923.73L897.146 302.761V302.756L870.557 287.43H870.551V287.435L843.962 302.756V302.761L870.551 318.082H870.557L897.141 333.408H897.146L923.736 348.734L950.325 333.408L923.736 318.087Z" fill="#3D43FF"/>
<path d="M897.145 241.446L923.734 226.126L897.145 210.8V241.446Z" fill="#3D43FF"/>
<path d="M897.145 394.712L920.328 381.352L923.728 379.391V379.386L897.145 364.065V394.712Z" fill="#3D43FF"/>
<path d="M678.659 237.971L701.842 224.611L705.243 222.651V222.645L678.659 207.325V237.971Z" fill="#3D43FF"/>
<path d="M675.189 120.461L698.372 107.101L701.773 105.141V105.135L675.189 89.8148V120.461Z" fill="#3D43FF"/>
<path d="M741.938 61.3585L765.121 47.9984L768.521 46.0382V46.0326L741.938 30.7122V61.3585Z" fill="#3D43FF"/>
<path d="M513.179 30.764L536.362 17.4039L539.763 15.4436V15.4381L513.179 0.117645V30.764Z" fill="#3D43FF"/>
<path d="M897.145 118.844V149.491L905.989 144.395V135.117V135.1L914.055 139.745L923.728 134.17L897.145 118.844Z" fill="#3D43FF"/>
<path d="M897.146 149.496V149.49L897.141 149.496H897.146Z" fill="#3D43FF"/>
<path d="M870.549 348.734L897.138 333.413V333.408L870.549 318.087V348.734Z" fill="#3D43FF"/>
<path d="M897.138 57.5346L870.549 42.2142V72.8606V72.8662L897.138 88.1866H897.144L923.728 103.513H923.733V72.8662H923.728L897.144 57.5402H897.138V57.5346Z" fill="#3D43FF"/>
<path d="M561.147 55.0718L534.558 39.7514V70.3978V70.4034L561.147 85.7238H561.153L587.737 101.05H587.742V70.4034H587.737L561.153 55.0774H561.147V55.0718Z" fill="#3D43FF"/>
<path d="M870.557 11.5565L897.141 -3.76944L895.438 -4.74959H845.665L843.962 -3.76944L870.551 11.5565H870.557Z" fill="#3D43FF"/>
<path d="M870.551 287.424V284.874L868.336 283.593V281.042L866.121 279.761V277.211L863.905 275.935V273.379L861.69 272.104V269.548L859.475 268.272V265.716L857.259 264.441V261.885L855.044 260.609V258.053L852.829 256.778V254.222L850.613 252.946V250.39L848.398 249.115V246.564L846.183 245.283V242.733L843.967 241.452H843.962V272.104V302.756L870.551 287.43V287.424Z" fill="#3D43FF"/>
<path d="M826.23 98.4058L817.374 103.513L826.23 108.619V98.4058Z" fill="#3D43FF"/>
<path d="M837.331 115.018L843.96 118.838L870.549 103.512L843.96 88.1921L836.785 92.3243L837.331 92.6417V104.476V115.018Z" fill="#3D43FF"/>
<path d="M843.96 26.8882V26.8826L817.37 11.5566V42.2086H817.376L843.96 26.8882Z" fill="#3D43FF"/>
<path d="M826.231 98.4057V86.2596V86.2429L836.785 92.3243L843.96 88.1865L817.37 72.8661V103.512H817.376L826.231 98.4057Z" fill="#3D43FF"/>
<path d="M766.405 166.103V168.659L768.621 169.934V172.491L770.836 173.766V176.316L773.051 177.597V180.148L775.267 181.429V183.979L777.482 185.26V187.811L779.697 189.086V191.642L781.913 192.918V195.474L784.128 196.749V199.305L786.343 200.581V203.137L788.559 204.412V206.968L790.774 208.244V210.8H790.779L802.19 217.377L802.212 217.371L800.275 216.252V216.241V205.326V193.87V193.853L810.228 199.589L811.374 200.247V212.086V222.634L817.363 226.126H817.369L843.958 210.8L817.369 195.474L790.779 180.148V180.142" fill="#3D43FF"/>
<path d="M802.213 217.355V217.372L802.224 217.36L802.213 217.355Z" fill="#3D43FF"/>
<path d="M635.339 451.101V451.118L635.35 451.107L635.339 451.101Z" fill="#3D43FF"/>
<path d="M764.19 11.5565L790.774 -3.76944L789.071 -4.74959H739.298L737.601 -3.76944L764.185 11.5565H764.19Z" fill="#3D43FF"/>
<path d="M764.184 256.778L790.768 241.452L764.184 226.126V256.778Z" fill="#3D43FF"/>
<path d="M737.601 88.1921V118.838V118.844V123.951V149.496L764.19 134.17V134.164V103.518L764.162 103.535L764.19 103.512L737.601 88.1921Z" fill="#3D43FF"/>
<path d="M711.009 195.48V226.131L737.593 241.452H737.598V210.8H737.593L711.009 195.48Z" fill="#3D43FF"/>
<path d="M1295.99 47.3209L1298.21 48.6018L1300.43 49.8771L1302.64 51.1524L1304.86 52.4277L1307.07 53.7086L1309.29 54.9839L1311.5 56.2592L1313.72 57.5401L1315.93 58.8154L1318.15 60.0907L1318.15 60.0963L1320.36 58.821V58.8154L1318.15 57.5401L1315.93 56.2592L1313.72 54.9839L1311.5 53.7086L1309.29 52.4277L1307.07 51.1524L1304.86 49.8771L1302.64 48.6018L1300.43 47.3209L1298.21 46.0456L1295.99 44.7703L1293.78 43.4894V46.0456L1295.99 47.3209Z" fill="#3D43FF"/>
<path d="M1291.57 47.321V49.8772L1293.78 51.1525L1296 52.4278V52.4334L1298.22 53.7087L1300.43 54.984L1302.65 56.2593L1304.86 57.5402L1307.08 58.8155L1309.29 60.0908L1311.51 61.3717L1313.72 62.647L1315.94 61.3717H1315.94V61.3661L1313.72 60.0908L1311.51 58.8155L1309.29 57.5402L1307.08 56.2593L1304.86 54.984L1302.65 53.7087L1300.43 52.4278L1298.22 51.1525L1296 49.8772L1293.78 48.6019L1291.57 47.321Z" fill="#3D43FF"/>
<path d="M1289.36 51.1524V53.7086L1291.57 54.9839L1293.79 56.2592L1296 57.5401L1298.22 58.8154L1300.43 60.0907L1302.65 61.3716L1304.86 62.6469L1307.08 63.9222L1309.29 65.1975V65.2031L1311.51 63.9222L1309.29 62.6469L1307.08 61.3716L1304.86 60.0907L1302.65 58.8154L1300.43 57.5401L1298.22 56.2592L1296 54.9839L1293.79 53.7086L1291.57 52.4277L1289.36 51.1524Z" fill="#3D43FF"/>
<path d="M1287.13 54.9838V57.54L1289.35 58.8153L1291.56 60.0906L1293.78 61.3715L1296 62.6468L1298.21 63.9221L1300.43 65.203L1302.64 66.4783L1304.86 67.7536L1307.07 66.4783L1304.86 65.203L1302.64 63.9221L1300.43 62.6468L1298.21 61.3715L1296 60.0906L1293.78 58.8153L1291.56 57.54L1289.35 56.2591L1287.13 54.9838Z" fill="#3D43FF"/>
<path d="M1284.92 58.8155V61.3717L1287.14 62.647L1289.35 63.9223L1291.57 65.2032L1293.78 66.4785L1296 67.7538L1298.21 69.0291L1300.43 70.31L1302.64 69.0291L1300.43 67.7538L1298.21 66.4785L1296 65.2032L1293.78 63.9223L1291.57 62.647L1289.35 61.3717L1287.14 60.0908L1284.92 58.8155Z" fill="#3D43FF"/>
<path d="M1282.7 62.6469V65.1975V65.2031L1284.92 66.4784L1285.06 66.5619L1287.13 67.7537L1289.35 69.029L1291.56 70.3099L1293.78 71.5852L1295.99 72.8605L1298.21 71.5852L1295.99 70.3099L1293.78 69.029L1291.56 67.7537L1289.35 66.4784L1287.13 65.2031L1284.92 63.9222L1282.7 62.6469Z" fill="#3D43FF"/>
<path d="M1296 98.4001V100.956V103.512L1322.58 88.1865L1309.29 80.5291V80.5235L1296 72.8661V75.4167L1293.78 74.1414L1291.57 72.8605L1289.35 71.5852L1287.14 70.3099L1284.92 69.029L1282.71 67.7537L1280.49 66.4784V69.029L1282.71 70.3099L1284.92 71.5852L1287.14 72.8605L1289.35 74.1414L1291.57 75.4167L1293.78 76.692L1296 77.9729V80.5235L1293.78 79.2482L1291.57 77.9729L1289.35 76.692L1287.14 75.4167L1284.92 74.1414L1282.71 72.8605L1280.49 71.5852L1278.28 70.3099V72.8605L1280.49 74.1414L1282.71 75.4167L1284.92 76.692L1287.14 77.9729L1289.35 79.2482L1291.57 80.5235L1293.78 81.7988L1296 83.0797V85.6303L1293.78 84.355L1291.57 83.0797L1289.35 81.7988L1287.14 80.5235L1284.92 79.2482L1282.71 77.9729L1280.49 76.692L1278.28 75.4167L1276.06 74.1414V76.692L1278.28 77.9729L1280.49 79.2482L1282.71 80.5235L1284.92 81.7988L1287.14 83.0797L1289.35 84.355L1291.57 85.6303L1293.78 86.9112L1296 88.1865V90.7427L1293.78 89.4618L1291.57 88.1865L1289.35 86.9112L1287.14 85.6303L1284.92 84.355L1282.71 83.0797L1280.49 81.8044V81.7988L1278.28 80.5235L1276.06 79.2482L1273.84 77.9729V80.5235L1276.06 81.7988L1278.28 83.0797L1280.49 84.355L1282.71 85.6303L1284.92 86.9112L1287.14 88.1865L1289.35 89.4618L1291.57 90.7427L1293.78 92.018L1296 93.2933V95.8495L1293.78 94.5686L1291.57 93.2933L1289.35 92.018L1287.14 90.7427L1284.92 89.4618L1282.71 88.1865L1280.49 86.9112L1278.28 85.6303L1276.06 84.355L1273.84 83.0797L1271.62 81.7988V84.355L1273.84 85.6303H1273.84L1276.06 86.9112L1278.28 88.1865L1280.49 89.4618L1282.71 90.7427L1284.92 92.018L1287.14 93.2933L1289.35 94.5686L1291.57 95.8495L1293.78 97.1248L1296 98.4001Z" fill="#3D43FF"/>
<path d="M1291.57 98.4002L1289.35 97.1249L1287.13 95.8496L1284.92 94.5687L1282.7 93.2934L1280.49 92.0181L1278.27 90.7428L1276.06 89.4619L1273.84 88.1866L1271.62 86.9113L1269.41 85.6304V88.1866L1271.62 89.4619L1273.84 90.7428L1276.06 92.0181L1278.27 93.2934L1280.49 94.5687L1282.7 95.8496L1284.92 97.1249L1287.13 98.4002L1289.35 99.6811L1291.57 100.956L1293.78 102.232L1296 103.513V100.956L1293.78 99.6811L1291.57 98.4002Z" fill="#3D43FF"/>
<path d="M894.918 150.777V153.333L897.133 154.608L897.139 154.614L899.349 155.884L901.564 157.165L903.779 158.44L905.995 159.715L908.21 160.991L910.425 162.271L912.641 163.547L914.856 164.822L917.071 166.103L919.287 167.378L921.502 166.103L919.287 164.822L917.082 163.552L917.071 163.547L914.856 162.271L912.641 160.991L910.425 159.715L908.215 158.446L908.21 158.44L907.92 158.273L905.995 157.165L905.983 157.154L903.779 155.884L901.564 154.608L899.349 153.333L897.139 152.058L897.133 152.052L894.918 150.777Z" fill="#3D43FF"/>
<path d="M892.708 154.608V157.165L894.923 158.44L897.139 159.715L897.144 159.721L899.354 160.99L901.569 162.271L903.785 163.547L906 164.822L908.215 166.103L910.431 167.378L912.646 168.653L914.861 169.934L917.077 168.653L914.861 167.378L912.646 166.103L910.431 164.822L908.215 163.547L906 162.271L903.785 160.99L901.569 159.715L899.354 158.44L897.144 157.165H897.139L894.923 155.884L892.708 154.608Z" fill="#3D43FF"/>
<path d="M890.494 158.44V160.991L892.709 162.271L894.925 163.547L897.14 164.822L897.146 164.828L899.355 166.103L901.571 167.378L903.786 168.654L906.001 169.934L908.217 171.21L910.432 172.485L912.647 171.21L910.432 169.934L908.217 168.654L906.001 167.378L903.786 166.103L901.571 164.822L899.355 163.547L897.146 162.271H897.14L894.925 160.991L892.709 159.715L890.494 158.44Z" fill="#3D43FF"/>
<path d="M888.28 162.271V164.822L890.496 166.103L892.711 167.378L894.926 168.654L897.142 169.934H897.147L899.357 171.21L901.572 172.485L903.788 173.76L906.003 175.041L908.218 173.76L906.003 172.485L903.788 171.21L901.572 169.934L899.357 168.654L897.147 167.384L897.142 167.378L894.926 166.103L892.711 164.822L890.496 163.547L888.28 162.271Z" fill="#3D43FF"/>
<path d="M886.059 166.103V168.653L888.274 169.934L890.489 171.21L892.705 172.485L894.92 173.76L897.135 175.041H897.141L899.351 176.316L901.566 177.592L903.781 176.316L901.566 175.041L899.351 173.76L897.141 172.491L897.135 172.485L894.92 171.21L892.705 169.934L890.489 168.653L888.274 167.378L886.059 166.103Z" fill="#3D43FF"/>
<path d="M897.133 180.148H897.138V180.142L899.348 178.873L897.138 177.597L897.133 177.592L894.917 176.317L892.702 175.041L890.487 173.76L888.271 172.485L886.056 171.21L883.841 169.934V172.485L886.056 173.76L888.271 175.041L890.487 176.317L892.702 177.592L894.917 178.873L897.133 180.148Z" fill="#3D43FF"/>
<path d="M892.707 182.704L894.923 181.423L892.707 180.148L890.492 178.873L888.277 177.592L886.062 176.316L883.846 175.041L881.631 173.76V176.316L883.846 177.592L886.062 178.873L888.277 180.148L890.492 181.423L892.707 182.704Z" fill="#3D43FF"/>
<path d="M888.278 185.255L890.494 183.979L888.278 182.704L886.063 181.423L883.848 180.148L881.632 178.873L879.417 177.592V180.148L881.632 181.423L883.848 182.704L886.063 183.979L888.273 185.255H888.278Z" fill="#3D43FF"/>
<path d="M883.851 187.811L886.066 186.536L886.061 186.53L883.851 185.255L881.635 183.98L879.42 182.704L877.199 181.423V183.98L879.42 185.255L881.635 186.536L883.845 187.811H883.851Z" fill="#3D43FF"/>
<path d="M879.417 190.362V190.367L881.632 189.086H881.626L879.417 187.811L877.196 186.536L874.98 185.255V187.811L877.196 189.086L879.411 190.362H879.417Z" fill="#3D43FF"/>
<path d="M874.978 192.918H874.984L877.199 191.642H877.193V191.637L874.978 190.362L872.763 189.086V191.642L874.978 192.918Z" fill="#3D43FF"/>
<path d="M872.764 194.193L870.549 192.918V195.468V195.474H870.554L872.77 194.199L872.764 194.193Z" fill="#3D43FF"/>
<path d="M819.587 109.906L821.802 111.181L824.018 112.456L826.233 113.737L828.448 115.013L830.664 116.288L832.879 117.569L835.094 118.844L837.31 120.119L839.525 121.4H839.53L841.74 120.125V120.119L839.525 118.844L837.31 117.569L835.094 116.288L832.879 115.013L830.664 113.737L828.448 112.456L826.233 111.181L824.018 109.906L821.802 108.63L819.587 107.35L817.372 106.074L815.156 104.799V107.35L817.372 108.63L819.587 109.906Z" fill="#3D43FF"/>
<path d="M817.369 113.737L819.584 115.013L821.8 116.288L824.015 117.569L826.23 118.844L828.446 120.119L830.661 121.4L832.876 122.676L835.092 123.951L837.307 122.676L835.092 121.4L832.876 120.119L830.661 118.844L828.446 117.569L826.23 116.288L824.015 115.013L821.8 113.737L819.584 112.456L817.369 111.181L815.154 109.906L812.938 108.63V111.181L815.154 112.456L817.369 113.737Z" fill="#3D43FF"/>
<path d="M815.151 117.569L817.367 118.844L819.582 120.119L821.797 121.4L824.013 122.676L826.228 123.951L828.443 125.226L830.659 126.507L832.874 125.226L830.659 123.951L828.443 122.676L826.228 121.4L824.013 120.119L821.797 118.844L819.582 117.569L817.367 116.288L815.151 115.013L812.936 113.737L810.721 112.456V115.013L812.936 116.288L815.151 117.569Z" fill="#3D43FF"/>
<path d="M812.934 121.4L815.149 122.676L817.364 123.951L819.58 125.226L821.795 126.507L824.01 127.782L826.226 129.058L828.441 127.782L826.226 126.507L824.01 125.226L821.795 123.951L819.58 122.676L817.364 121.4L815.149 120.119L812.934 118.844L810.718 117.569L808.503 116.288V118.844L810.718 120.119L812.934 121.4Z" fill="#3D43FF"/>
<path d="M810.728 125.226L812.943 126.507L815.158 127.782L817.374 129.058L819.589 130.339L821.804 131.614L824.02 130.333L821.804 129.058L819.589 127.782L817.374 126.507L815.158 125.226L812.943 123.951L810.728 122.676L808.512 121.4L806.297 120.119V122.676L808.512 123.951L810.728 125.226Z" fill="#3D43FF"/>
<path d="M830.659 141.827L829.641 141.243L830.659 141.827Z" fill="#3D43FF"/>
<path d="M808.51 129.058L810.725 130.338L812.94 131.614L815.156 132.889L817.371 134.17V134.164L819.586 132.889L817.371 131.614L815.156 130.338L812.94 129.058L810.725 127.782L808.51 126.507L806.294 125.226L804.079 123.951V126.507L806.294 127.782L808.51 129.058Z" fill="#3D43FF"/>
<path d="M806.296 132.889L808.511 134.17L810.727 135.445L812.942 136.721L815.157 135.445L812.942 134.17L810.727 132.889L808.511 131.614L806.296 130.339L804.081 129.058L801.865 127.782V130.339L804.081 131.614L806.296 132.889Z" fill="#3D43FF"/>
<path d="M804.077 136.721L806.292 137.996L808.508 139.277L810.723 138.002V137.996L808.508 136.721L806.292 135.445L804.077 134.17L801.862 132.889L799.646 131.614V134.17L801.862 135.445L804.077 136.721Z" fill="#3D43FF"/>
<path d="M801.859 140.552L804.075 141.828V141.833L806.29 140.552L804.075 139.277L801.859 137.996L799.644 136.721L797.429 135.445V137.996L799.644 139.277L801.859 140.552Z" fill="#3D43FF"/>
<path d="M799.649 144.384L801.865 143.108L799.649 141.827L797.434 140.552L795.219 139.277V141.827L797.434 143.108L799.649 144.384Z" fill="#3D43FF"/>
<path d="M795.22 146.94L797.436 145.665V145.659H797.43L795.22 144.384L793.005 143.108V145.659L795.215 146.934L795.22 146.94Z" fill="#3D43FF"/>
<path d="M793.002 148.215H792.997L790.787 146.94V149.491L793.002 148.215Z" fill="#3D43FF"/>
<path d="M1050.03 424.083L1047.81 422.808L1045.6 421.532L1043.38 420.252L1041.16 418.976L1038.95 417.701L1036.73 416.426L1034.51 415.145L1032.3 413.869L1030.09 412.6L1030.08 412.594L1027.88 411.319L1027.87 411.324V413.869L1030.08 415.145L1030.09 415.15L1032.3 416.426L1034.51 417.701L1036.73 418.976L1038.95 420.252L1041.16 421.532L1043.38 422.808L1045.6 424.083L1047.81 425.364L1050.03 426.639L1052.24 427.915L1052.25 427.926L1054.46 426.656V426.639L1052.24 425.364L1050.03 424.083Z" fill="#3D43FF"/>
<path d="M1047.81 427.914L1045.59 426.639L1043.38 425.364L1041.16 424.083L1038.95 422.808L1036.73 421.532L1034.51 420.251L1032.3 418.976L1030.09 417.706L1030.08 417.701L1027.86 416.425L1025.65 415.145V417.701L1027.86 418.976L1030.08 420.251L1030.09 420.257L1032.3 421.532L1034.51 422.808L1036.73 424.083L1038.95 425.364L1041.16 426.639L1043.38 427.914L1045.59 429.195L1047.81 430.471L1047.82 430.476L1050.03 429.201L1050.02 429.195L1047.81 427.914Z" fill="#3D43FF"/>
<path d="M1043.37 430.471L1041.16 429.195L1038.94 427.914L1036.73 426.639L1034.51 425.364L1032.29 424.083L1030.09 422.813L1030.08 422.808L1027.86 421.532L1025.65 420.252L1023.43 418.976V421.532L1025.65 422.808L1027.86 424.083L1030.08 425.364L1030.09 425.369L1032.29 426.639L1034.51 427.914L1036.73 429.195L1038.94 430.471L1041.16 431.746L1043.37 433.021L1043.39 433.032L1045.6 431.752L1045.59 431.746L1043.37 430.471Z" fill="#3D43FF"/>
<path d="M1038.94 433.021L1036.73 431.746L1034.51 430.47L1032.29 429.195L1030.09 427.92L1030.08 427.914L1027.86 426.639L1025.65 425.364L1023.43 424.083L1021.22 422.807V425.364L1023.43 426.639L1025.65 427.914L1027.86 429.195L1030.08 430.47L1030.09 430.476L1032.29 431.746L1034.51 433.021L1036.73 434.302L1038.94 435.577L1038.96 435.583L1041.17 434.308L1041.16 434.302L1038.94 433.021Z" fill="#3D43FF"/>
<path d="M1034.51 435.577L1032.29 434.302L1030.09 433.027L1030.08 433.021L1027.86 431.746L1025.65 430.471L1023.43 429.195L1021.22 427.914L1019 426.639V429.195L1021.22 430.471L1023.43 431.746L1025.65 433.021L1027.86 434.302L1030.08 435.577L1030.09 435.583L1032.29 436.853L1034.51 438.134L1034.53 438.139L1036.74 436.864L1036.73 436.853L1034.51 435.577Z" fill="#3D43FF"/>
<path d="M1030.09 438.139L1030.08 438.134L1027.87 436.853L1025.65 435.577L1023.44 434.302L1021.22 433.021L1019 431.746L1016.79 430.471V433.021L1019 434.302L1021.22 435.577L1023.44 436.853L1025.65 438.134L1027.87 439.409L1030.08 440.684L1030.09 440.69L1030.1 440.695L1032.31 439.415L1032.3 439.409L1030.09 438.139Z" fill="#3D43FF"/>
<path d="M1025.65 440.684L1023.43 439.409L1021.22 438.134L1019 436.853L1016.79 435.577L1014.57 434.302V436.853L1016.79 438.134L1019 439.409L1021.22 440.684L1023.43 441.965L1025.65 443.24L1025.66 443.246L1027.88 441.971L1027.86 441.965L1025.65 440.684Z" fill="#3D43FF"/>
<path d="M1021.22 443.24L1019 441.965L1016.79 440.684L1014.57 439.409L1012.36 438.134V440.684L1014.57 441.965L1016.79 443.24L1019 444.516L1021.22 445.791L1021.24 445.802L1023.45 444.521L1023.43 444.516L1021.22 443.24Z" fill="#3D43FF"/>
<path d="M1016.79 445.791L1014.57 444.516L1012.36 443.24L1010.14 441.965V444.516L1012.36 445.791L1014.57 447.072L1016.79 448.347L1016.81 448.353L1019.02 447.077L1019 447.072L1016.79 445.791Z" fill="#3D43FF"/>
<path d="M1012.36 448.347L1010.14 447.072L1007.93 445.791V448.347L1010.14 449.623L1012.36 450.904L1012.37 450.909L1014.58 449.634L1014.57 449.623L1012.36 448.347Z" fill="#3D43FF"/>
<path d="M1007.93 450.903L1005.71 449.623V452.179L1007.93 453.454L1007.94 453.465L1010.15 452.184L1010.14 452.179L1007.93 450.903Z" fill="#3D43FF"/>
<path d="M1003.5 453.459L1003.5 453.454V456.01H1003.5L1003.51 456.016L1005.72 454.74L1005.71 454.735L1003.5 453.459Z" fill="#3D43FF"/>
<path d="M1156.39 393.431L1154.17 392.156L1151.96 390.88L1149.74 389.599L1147.53 388.324L1145.31 387.049L1143.1 385.774L1140.88 384.493L1138.67 383.217L1136.45 381.942L1134.24 380.661V383.217L1136.45 384.493L1138.67 385.774L1140.88 387.049L1143.1 388.324L1145.31 389.599L1147.53 390.88L1149.74 392.156L1151.96 393.431L1154.17 394.712L1156.39 395.987L1158.6 397.262L1158.62 397.268L1160.82 395.998V395.987L1158.6 394.712L1156.39 393.431Z" fill="#3D43FF"/>
<path d="M1154.18 397.262L1151.96 395.987L1149.75 394.712L1147.53 393.431L1145.31 392.156L1143.1 390.88L1140.88 389.599L1138.67 388.324L1136.45 387.049L1134.24 385.773L1132.02 384.493V387.049L1134.24 388.324L1136.45 389.599L1138.67 390.88L1140.88 392.156L1143.1 393.431L1145.31 394.712L1147.53 395.987L1149.75 397.262L1151.96 398.543L1154.18 399.819L1154.19 399.824L1156.4 398.543H1156.39L1154.18 397.262Z" fill="#3D43FF"/>
<path d="M1149.75 399.819L1147.54 398.543L1145.32 397.262L1143.1 395.987L1140.89 394.712L1138.67 393.431L1136.46 392.156L1134.24 390.88L1132.03 389.599L1129.81 388.324V390.88L1132.03 392.156L1134.24 393.431L1136.46 394.712L1138.67 395.987L1140.89 397.262L1143.1 398.543L1145.32 399.819L1147.54 401.094L1149.75 402.369L1149.76 402.375L1151.98 401.099L1151.97 401.094L1149.75 399.819Z" fill="#3D43FF"/>
<path d="M1145.32 402.369L1143.1 401.094L1140.89 399.819L1138.67 398.543L1136.46 397.263L1134.24 395.987L1132.02 394.712L1129.81 393.431L1127.59 392.156V394.712L1129.81 395.987L1132.02 397.263L1134.24 398.543L1136.46 399.819L1138.67 401.094L1140.89 402.369L1143.1 403.65L1145.32 404.926L1145.33 404.931L1147.54 403.656L1147.53 403.65L1145.32 402.369Z" fill="#3D43FF"/>
<path d="M1140.88 404.925L1138.67 403.65L1136.45 402.369L1134.24 401.094L1132.02 399.819L1129.81 398.543L1127.59 397.262L1125.38 395.987V398.543L1127.59 399.819L1129.81 401.094L1132.02 402.369L1134.24 403.65L1136.45 404.925L1138.67 406.201L1140.88 407.482L1140.89 407.487L1143.11 406.206L1143.1 406.201L1140.88 404.925Z" fill="#3D43FF"/>
<path d="M1136.46 407.482L1134.24 406.201L1132.03 404.925L1129.81 403.65L1127.6 402.369L1125.38 401.094L1123.17 399.819V402.369L1125.38 403.65L1127.6 404.925L1129.81 406.201L1132.03 407.482L1134.24 408.757L1136.46 410.032L1136.46 410.038L1138.68 408.762L1138.67 408.757L1136.46 407.482Z" fill="#3D43FF"/>
<path d="M1132.03 412.594L1134.25 411.313H1134.24L1132.02 410.032L1129.81 408.757L1127.59 407.482L1125.38 406.201L1123.16 404.925L1120.95 403.65V406.201L1123.16 407.482L1125.38 408.757L1127.59 410.032L1129.81 411.313L1132.02 412.588L1132.03 412.594Z" fill="#3D43FF"/>
<path d="M1127.6 415.144L1129.81 413.869L1129.81 413.864L1127.59 412.588L1125.38 411.313L1123.16 410.032L1120.95 408.757L1118.73 407.481V410.032L1120.95 411.313L1123.16 412.588L1125.38 413.864L1127.59 415.139L1127.6 415.144Z" fill="#3D43FF"/>
<path d="M1123.17 417.701L1125.39 416.426L1125.38 416.42L1123.17 415.139L1120.95 413.864L1118.74 412.589L1116.52 411.313V413.864L1118.74 415.139L1120.95 416.42L1123.17 417.695L1123.17 417.701Z" fill="#3D43FF"/>
<path d="M1118.74 420.257L1120.95 418.976L1120.95 418.97L1118.73 417.695L1116.52 416.42L1114.3 415.139V417.695L1116.52 418.97L1118.73 420.251L1118.74 420.257Z" fill="#3D43FF"/>
<path d="M1114.31 422.808L1116.53 421.532L1116.52 421.527L1114.3 420.251L1112.09 418.971V421.527L1114.3 422.802L1114.31 422.808Z" fill="#3D43FF"/>
<path d="M1109.87 422.802V425.358L1109.87 425.364L1112.09 424.083H1112.08L1109.87 422.802Z" fill="#3D43FF"/>
<path d="M658.745 165.404L660.96 164.128L658.745 162.853L656.529 161.572L654.314 160.297L652.099 159.021L649.883 157.741L647.668 156.465L645.453 155.19L643.237 153.915L641.022 152.634L638.807 151.359L636.591 150.083L634.376 148.802V151.359L636.591 152.634L638.807 153.915L641.022 155.19L643.237 156.465L645.453 157.741L647.668 159.021L649.883 160.297L652.099 161.572L654.314 162.853L656.529 164.128L658.745 165.404Z" fill="#3D43FF"/>
<path d="M654.309 167.96L656.525 166.684L654.309 165.404L652.094 164.128L649.879 162.853L647.663 161.572L645.448 160.297L643.233 159.021L641.017 157.741L638.802 156.465L636.587 155.19L634.371 153.915L632.15 152.634V155.19L634.371 156.465L636.587 157.741V157.746L638.802 159.021L641.017 160.297L643.233 161.572L645.448 162.853L647.663 164.128L649.879 165.404L652.094 166.684L654.309 167.96Z" fill="#3D43FF"/>
<path d="M649.884 170.516L652.099 169.235L649.884 167.96L647.669 166.685L645.453 165.404L643.238 164.128L641.023 162.853L638.807 161.572L636.592 160.297L634.377 159.022L632.156 157.741L629.94 156.465V159.022L632.156 160.297L634.377 161.572L636.592 162.853L638.807 164.128L641.023 165.404L643.238 166.685L645.453 167.96L647.669 169.235L649.884 170.51V170.516Z" fill="#3D43FF"/>
<path d="M645.451 173.067L647.666 171.791L645.451 170.51L643.236 169.235L641.02 167.96L638.805 166.684L636.59 165.404L634.374 164.128L632.153 162.853L629.938 161.572L627.723 160.297V162.853L629.938 164.128L632.153 165.404L634.374 166.684L636.59 167.96L638.805 169.235L641.02 170.51L643.236 171.791L645.451 173.067Z" fill="#3D43FF"/>
<path d="M641.022 175.623L643.237 174.342L641.022 173.067L638.806 171.791L636.591 170.516V170.51L634.376 169.235L632.155 167.96L629.939 166.684L627.724 165.404L625.509 164.128V166.684L627.724 167.96L629.939 169.235L632.155 170.51L634.376 171.791L636.591 173.067L638.806 174.342L641.022 175.623Z" fill="#3D43FF"/>
<path d="M636.588 175.623L634.372 174.342L632.151 173.067L629.936 171.791L627.721 170.51L625.505 169.235L623.29 167.96V170.51L625.505 171.791L627.721 173.067L629.936 174.342L632.151 175.623L634.372 176.898L636.588 178.173V178.179V178.173L638.803 176.898L636.588 175.623Z" fill="#3D43FF"/>
<path d="M632.152 203.713L629.937 202.438L627.722 201.162L625.506 199.881L623.291 198.606L621.076 197.331L618.86 196.05L616.645 194.775L614.43 193.499L612.22 192.224H612.214L609.999 190.943V193.499H610.005L612.214 194.775L614.43 196.05L616.645 197.331L618.86 198.606L621.076 199.881L623.291 201.162L625.506 202.438L627.722 203.713L629.937 204.994L632.152 206.269L634.373 207.544L636.589 208.825V206.269L634.373 204.994L632.152 203.713Z" fill="#3D43FF"/>
<path d="M649.873 185.836L636.587 178.179V180.73L634.372 179.454L632.151 178.173L629.935 176.898L627.72 175.623L625.505 174.342L623.29 173.067L621.074 171.791V174.342L623.29 175.623L625.505 176.898L627.72 178.173L629.935 179.454L632.151 180.73H632.156L634.372 182.005L636.587 183.28V183.286V185.836L634.372 184.561L632.151 183.28L629.941 182.005H629.935L627.72 180.73L625.505 179.454L623.29 178.173L621.074 176.898L618.859 175.623V178.173L621.074 179.454L623.29 180.73L625.505 182.005L627.72 183.28L627.726 183.286L629.935 184.561L632.151 185.836L634.372 187.112L636.587 188.393V190.949V190.943L634.372 189.668L632.151 188.393L629.935 187.112L627.72 185.836L625.51 184.561H625.505L623.29 183.28L621.074 182.005L618.859 180.73L616.644 179.454V182.005L618.859 183.28L621.074 184.561L623.29 185.836H623.295L625.505 187.112L627.72 188.393L629.935 189.668L632.151 190.943L634.372 192.224L636.587 193.499V196.055V196.05L634.372 194.775L632.151 193.499L629.935 192.224L627.72 190.943L625.505 189.668L623.29 188.393L621.08 187.117L621.074 187.112L618.859 185.836L616.644 184.561L614.428 183.28V185.836L616.644 187.112L618.859 188.393H618.864L621.074 189.668L623.29 190.943L625.505 192.224L627.72 193.499L629.935 194.775L632.151 196.05L634.372 197.331L636.587 198.606V201.162L634.372 199.881L632.151 198.606L629.935 197.331L627.72 196.05L625.505 194.775L623.29 193.499L621.074 192.224L618.859 190.943L616.649 189.668H616.644L614.428 188.393L612.213 187.112V189.668L614.428 190.943L614.434 190.949L616.644 192.224L618.859 193.499L621.074 194.775L623.29 196.05L625.505 197.331L627.72 198.606L629.935 199.881L632.151 201.162L634.372 202.438L636.587 203.713V203.718V206.269V208.82V208.831L663.177 193.505L649.879 185.842L649.873 185.836Z" fill="#3D43FF"/>
<path d="M1296 376.83L1293.79 375.554V372.998L1291.57 371.723V369.167L1289.36 367.891V365.335L1287.14 364.06V361.504L1284.93 360.228V357.672L1282.71 356.397V353.846L1280.49 352.565V350.015L1278.28 348.734V346.183L1276.06 344.902V342.352L1273.85 341.077V338.52L1271.63 337.245V334.689L1269.41 333.414L1242.82 348.734V348.74V379.386L1269.41 364.06H1269.41L1273.09 366.176L1296 379.386H1296V376.83Z" fill="#3D43FF"/>
<path d="M1085.49 135.445L1083.28 134.17V136.726V164.822L1109.87 180.142V177.586L1107.65 176.311V173.755L1105.44 172.479V169.923L1103.22 168.648V166.097L1101.01 164.817V162.266L1098.79 160.985V158.434L1096.58 157.159V157.154V154.603L1094.36 153.328V150.771L1092.15 149.496V146.94L1089.93 145.665V143.108L1087.71 141.833V139.277L1085.49 138.002V135.451V135.445Z" fill="#3D43FF"/>
<path d="M1187.41 260.609V258.059L1185.2 256.778L1182.98 255.503L1180.77 254.227L1178.55 252.946L1176.33 251.671L1174.12 250.396L1171.9 249.121L1169.69 247.84L1167.47 246.564L1165.26 245.289L1163.04 244.008L1160.83 242.733V245.289L1163.04 246.564L1165.26 247.84L1167.47 249.121L1169.69 250.396L1171.9 251.671L1174.12 252.946L1176.33 254.227L1178.55 255.503L1180.77 256.778L1182.98 258.059L1185.2 259.334L1187.41 260.609Z" fill="#3D43FF"/>
<path d="M1185.2 261.89L1182.99 260.609L1180.77 259.334L1178.56 258.059L1176.34 256.778L1174.12 255.503L1171.91 254.227L1169.69 252.946L1167.48 251.671L1165.26 250.396L1163.05 249.121L1160.83 247.84L1158.62 246.564V249.121L1160.83 250.396L1163.05 251.671L1165.26 252.946L1167.48 254.227L1169.69 255.503L1171.91 256.778L1174.12 258.059L1176.34 259.334L1178.56 260.609L1180.77 261.89L1182.99 263.166L1185.2 264.441V261.89Z" fill="#3D43FF"/>
<path d="M1182.98 268.272V265.716L1180.76 264.441L1178.55 263.166L1176.33 261.89L1174.12 260.609L1171.9 259.334L1169.69 258.059L1167.47 256.778L1165.26 255.503L1163.04 254.227L1160.83 252.947L1158.61 251.671L1156.4 250.396V252.947L1158.61 254.227L1160.83 255.503L1163.04 256.778L1165.26 258.059L1167.47 259.334L1169.69 260.609L1171.9 261.89L1174.12 263.166L1176.33 264.441L1178.55 265.716L1180.76 266.997L1182.98 268.272Z" fill="#3D43FF"/>
<path d="M1180.77 272.104V269.548L1178.55 268.273L1176.34 266.997L1174.12 265.716L1171.91 264.441L1169.69 263.166L1167.48 261.89L1165.26 260.61L1163.05 259.334L1160.83 258.059L1158.62 256.778L1156.4 255.503L1154.19 254.227V256.778L1156.4 258.059L1158.62 259.334L1160.83 260.61L1163.05 261.89L1165.26 263.166L1167.48 264.441L1169.69 265.716L1171.91 266.997L1174.12 268.273L1176.34 269.548L1178.55 270.829L1180.77 272.104Z" fill="#3D43FF"/>
<path d="M1178.55 275.935V273.379L1176.34 272.104L1174.12 270.829L1171.91 269.548L1169.69 268.272L1167.48 266.997L1165.26 265.716L1163.04 264.441L1160.83 263.166L1158.61 261.89L1156.4 260.609L1154.18 259.334L1151.97 258.059V260.609L1154.18 261.89L1156.4 263.166L1158.61 264.441L1160.83 265.716L1163.04 266.997L1165.26 268.272L1167.48 269.548L1169.69 270.829L1171.91 272.104L1174.12 273.379L1176.34 274.66L1178.55 275.935Z" fill="#3D43FF"/>
<path d="M1176.34 279.767V277.211L1174.12 275.935L1171.91 274.66L1169.69 273.379L1167.48 272.104L1165.26 270.829L1163.05 269.548L1160.83 268.272L1158.62 266.997L1156.4 265.716L1154.18 264.441L1151.97 263.166L1149.75 261.89V264.441L1151.97 265.716L1154.18 266.997L1155.94 268.005L1157.39 268.84L1158.62 269.548L1160.83 270.829L1163.05 272.104L1165.26 273.379L1167.48 274.66L1169.69 275.935L1171.91 277.211L1174.12 278.492L1176.34 279.767Z" fill="#3D43FF"/>
<path d="M1174.12 283.598V281.042L1171.9 279.767L1169.69 278.492L1167.47 277.211L1165.26 275.935L1163.04 274.66L1160.83 273.379L1158.61 272.104L1156.4 270.829L1154.18 269.548L1151.97 268.272L1149.75 266.997L1147.54 265.716V268.272L1149.75 269.548L1151.97 270.829L1154.18 272.104L1156.4 273.379L1158.61 274.66L1160.83 275.935L1163.04 277.211L1165.26 278.492L1167.47 279.767L1169.69 281.042L1171.9 282.317L1174.12 283.598Z" fill="#3D43FF"/>
<path d="M1171.91 287.43V284.874L1169.69 283.598L1167.48 282.317L1165.26 281.042L1163.05 279.767L1160.83 278.492L1158.62 277.211L1156.4 275.935L1154.19 274.66L1151.97 273.379L1149.76 272.104L1147.54 270.829L1145.33 269.548V272.104L1147.54 273.379L1149.76 274.66L1151.97 275.935L1154.19 277.211L1156.4 278.492L1158.62 279.767L1160.83 281.042L1163.05 282.317L1165.26 283.598L1167.48 284.874L1169.69 286.149L1171.91 287.43Z" fill="#3D43FF"/>
<path d="M1169.69 291.261V288.705L1167.48 287.43L1165.26 286.149L1163.05 284.874L1160.83 283.598L1158.61 282.317L1156.4 281.042L1154.18 279.767L1151.97 278.492L1149.75 277.211L1147.54 275.935L1145.32 274.66L1143.11 273.379V275.935L1145.32 277.211L1147.54 278.492L1149.75 279.767L1151.97 281.042L1154.18 282.317L1156.4 283.598L1158.61 284.874L1160.83 286.149L1163.05 287.43L1165.26 288.705L1167.48 289.98L1169.69 291.261Z" fill="#3D43FF"/>
<path d="M1167.47 295.087V292.537L1165.26 291.261L1163.04 289.981L1160.83 288.705L1158.61 287.43L1156.4 286.149L1154.18 284.874L1151.97 283.598L1149.75 282.318L1147.54 281.042L1145.32 279.767L1143.1 278.492L1140.89 277.211V279.767L1143.1 281.042L1145.32 282.318L1147.54 283.598L1149.75 284.874L1151.97 286.149L1154.18 287.43L1156.4 288.705L1158.61 289.981L1160.83 291.261L1163.04 292.537L1165.26 293.812L1167.47 295.087Z" fill="#3D43FF"/>
<path d="M1165.26 298.919V296.368L1163.04 295.087L1160.83 293.812L1158.61 292.537L1156.4 291.261L1154.18 289.981L1151.97 288.705L1149.75 287.43L1147.54 286.149L1145.32 284.874L1143.11 283.598L1140.89 282.318L1138.68 281.042V283.598L1140.89 284.874L1143.11 286.149L1145.32 287.43L1147.54 288.705L1149.75 289.981L1151.97 291.261L1154.18 292.537L1156.4 293.812L1158.61 295.087L1160.83 296.368L1163.04 297.644L1165.26 298.919Z" fill="#3D43FF"/>
<path d="M1138.67 288.705L1140.89 289.981L1143.1 291.262L1145.32 292.537L1147.53 293.812L1149.75 295.087L1151.97 296.368L1154.18 297.644L1156.4 298.919L1158.61 300.2L1160.83 301.475L1163.04 302.75V300.2L1160.83 298.919L1158.61 297.644L1156.4 296.368L1154.18 295.087L1151.97 293.812L1149.75 292.537L1147.53 291.262L1145.32 289.981L1143.1 288.705L1140.89 287.43L1138.67 286.149L1136.46 284.874V287.43L1138.67 288.705Z" fill="#3D43FF"/>
<path d="M1183.94 321.357V314.807V298.986L1182.01 300.1V313.688V322.47V322.476V322.487L1183.94 321.373V321.357Z" fill="#3D43FF"/>
<path d="M729.655 144.913V154.079V154.09V154.107L731.587 152.993V152.96V146.026V130.606L729.655 131.72V144.913Z" fill="#3D43FF"/>
<path d="M836.437 284.74V298.423V307.094V307.111V307.128L838.374 306.014V305.98V299.537V283.626L836.437 284.74Z" fill="#3D43FF"/>
<path d="M602.406 189.128V197.86V197.877L604.343 196.763V196.746V190.247V174.375L602.406 175.489V189.128Z" fill="#3D43FF"/>
<path d="M1208.43 144.996V145.002V153.974V153.985L1210.37 152.871V146.116V130.483L1208.43 131.603V144.996Z" fill="#3D43FF"/>
<path d="M1210.32 60.9428V60.9373V54.1319V38.572L1208.39 39.6858V53.0181V62.0511V62.0566V62.0734L1210.32 60.9595V60.9428Z" fill="#3D43FF"/>
<path d="M1075.41 108.04V108.046V108.057V108.074L1077.35 106.96V106.943V106.932V106.926V100.099V84.5722L1075.41 85.686V98.9849V108.04Z" fill="#3D43FF"/>
<path d="M944.375 84.7617V69.263L942.438 70.3768V83.6423V92.7365V92.7477V92.7644L944.375 91.645V91.6171V84.7617Z" fill="#3D43FF"/>
<path d="M608.383 82.2987V66.8L606.446 67.9139V81.1793V90.2735V90.2847V90.3014L608.383 89.182V89.1542V82.2987Z" fill="#3D43FF"/>
<path d="M77.34 412V363.4H101.88C104.8 363.4 107.32 363.92 109.44 364.96C111.6 365.96 113.3 367.4 114.54 369.28C115.78 371.12 116.4 373.28 116.4 375.76C116.4 378.28 115.7 380.42 114.3 382.18C112.9 383.9 111.1 385.12 108.9 385.84V386.08C110.7 386.48 112.34 387.22 113.82 388.3C115.34 389.38 116.54 390.74 117.42 392.38C118.34 394.02 118.8 395.96 118.8 398.2C118.8 400.96 118.12 403.38 116.76 405.46C115.44 407.5 113.58 409.1 111.18 410.26C108.82 411.42 106.08 412 102.96 412H77.34ZM86.52 404.08H101.28C103.96 404.08 106.02 403.5 107.46 402.34C108.9 401.14 109.62 399.42 109.62 397.18C109.62 394.98 108.9 393.32 107.46 392.2C106.02 391.04 103.98 390.46 101.34 390.46H86.52V404.08ZM86.52 383.14H100.62C102.74 383.14 104.36 382.64 105.48 381.64C106.64 380.6 107.22 379.14 107.22 377.26C107.22 375.3 106.64 373.82 105.48 372.82C104.36 371.82 102.74 371.32 100.62 371.32H86.52V383.14ZM125.489 412V384.94H121.049V376H130.169V382.96H132.689C133.689 380.56 135.229 378.74 137.309 377.5C139.389 376.26 141.769 375.64 144.449 375.64H147.449V383.32H144.029C140.749 383.32 138.309 384.26 136.709 386.14C135.109 388.02 134.309 390.52 134.309 393.64V412H125.489ZM160.379 412.66C156.179 412.66 152.879 411.64 150.479 409.6C148.119 407.56 146.939 404.86 146.939 401.5C146.939 397.98 148.139 395.26 150.539 393.34C152.979 391.42 156.479 390.46 161.039 390.46H172.019V389.02C172.019 384.62 169.459 382.42 164.339 382.42C159.979 382.42 157.359 383.98 156.479 387.1H147.539C148.299 383.26 150.119 380.34 152.999 378.34C155.879 376.3 159.659 375.28 164.339 375.28C169.619 375.28 173.639 376.48 176.399 378.88C179.159 381.24 180.539 384.7 180.539 389.26V403.06H184.799V412H175.619V406.24H173.099C171.859 408.28 170.179 409.86 168.059 410.98C165.979 412.1 163.419 412.66 160.379 412.66ZM161.699 405.76C163.659 405.76 165.419 405.4 166.979 404.68C168.539 403.92 169.759 402.92 170.639 401.68C171.559 400.4 172.019 398.98 172.019 397.42V396.58H161.519C157.479 396.58 155.459 398.08 155.459 401.08C155.459 402.56 155.999 403.72 157.079 404.56C158.199 405.36 159.739 405.76 161.699 405.76ZM189.231 412V384.94H184.791V376H193.971V381.76H196.491C197.851 379.72 199.591 378.14 201.711 377.02C203.831 375.9 206.431 375.34 209.511 375.34C214.431 375.34 218.231 376.7 220.911 379.42C223.631 382.14 224.991 385.76 224.991 390.28V412H216.051V391.96C216.051 389.12 215.291 386.96 213.771 385.48C212.291 384 210.071 383.26 207.111 383.26C204.231 383.26 202.011 384 200.451 385.48C198.931 386.96 198.171 389.12 198.171 391.96V412H189.231ZM245.576 412.72C241.896 412.72 238.776 411.96 236.216 410.44C233.656 408.88 231.696 406.7 230.336 403.9C229.016 401.06 228.356 397.76 228.356 394C228.356 390.2 228.996 386.9 230.276 384.1C231.596 381.3 233.476 379.14 235.916 377.62C238.396 376.06 241.356 375.28 244.796 375.28C247.516 375.28 249.856 375.8 251.816 376.84C253.776 377.84 255.276 379.3 256.316 381.22H256.556V361.6H265.496V403.06H269.936V412H260.816V406.24H258.296C257.016 408.32 255.316 409.92 253.196 411.04C251.076 412.16 248.536 412.72 245.576 412.72ZM247.136 404.98C250.016 404.98 252.296 404.18 253.976 402.58C255.696 400.94 256.556 398.74 256.556 395.98V392.02C256.556 389.26 255.696 387.08 253.976 385.48C252.296 383.84 250.016 383.02 247.136 383.02C243.936 383.02 241.496 384 239.816 385.96C238.136 387.88 237.296 390.56 237.296 394C237.296 397.44 238.136 400.14 239.816 402.1C241.496 404.02 243.936 404.98 247.136 404.98ZM283.877 412L304.517 363.4H314.057L334.577 412H325.217L319.877 399.28H298.337L292.937 412H283.877ZM301.217 391.6H317.297L309.437 372.76H309.137L301.217 391.6ZM351.475 412.72C346.275 412.72 342.175 411.64 339.175 409.48C336.175 407.28 334.555 404.22 334.315 400.3H343.015C343.295 402.18 344.155 403.58 345.595 404.5C347.035 405.38 349.115 405.82 351.835 405.82C356.435 405.82 358.735 404.5 358.735 401.86C358.735 400.74 358.375 399.88 357.655 399.28C356.975 398.68 355.815 398.22 354.175 397.9L346.195 396.4C339.195 395.04 335.695 391.72 335.695 386.44C335.695 383.04 337.035 380.34 339.715 378.34C342.395 376.3 346.075 375.28 350.755 375.28C355.515 375.28 359.275 376.32 362.035 378.4C364.835 380.44 366.395 383.34 366.715 387.1H358.075C357.635 385.3 356.795 384 355.555 383.2C354.355 382.36 352.615 381.94 350.335 381.94C348.295 381.94 346.735 382.26 345.655 382.9C344.575 383.54 344.035 384.48 344.035 385.72C344.035 386.64 344.375 387.38 345.055 387.94C345.735 388.5 346.815 388.92 348.295 389.2L356.395 390.76C360.075 391.48 362.775 392.68 364.495 394.36C366.215 396.04 367.075 398.3 367.075 401.14C367.075 404.78 365.735 407.62 363.055 409.66C360.375 411.7 356.515 412.72 351.475 412.72ZM385.439 412.72C380.239 412.72 376.139 411.64 373.139 409.48C370.139 407.28 368.519 404.22 368.279 400.3H376.979C377.259 402.18 378.119 403.58 379.559 404.5C380.999 405.38 383.079 405.82 385.799 405.82C390.399 405.82 392.699 404.5 392.699 401.86C392.699 400.74 392.339 399.88 391.619 399.28C390.939 398.68 389.779 398.22 388.139 397.9L380.159 396.4C373.159 395.04 369.659 391.72 369.659 386.44C369.659 383.04 370.999 380.34 373.679 378.34C376.359 376.3 380.039 375.28 384.719 375.28C389.479 375.28 393.239 376.32 395.999 378.4C398.799 380.44 400.359 383.34 400.679 387.1H392.039C391.599 385.3 390.759 384 389.519 383.2C388.319 382.36 386.579 381.94 384.299 381.94C382.259 381.94 380.699 382.26 379.619 382.9C378.539 383.54 377.999 384.48 377.999 385.72C377.999 386.64 378.339 387.38 379.019 387.94C379.699 388.5 380.779 388.92 382.259 389.2L390.359 390.76C394.039 391.48 396.739 392.68 398.459 394.36C400.179 396.04 401.039 398.3 401.039 401.14C401.039 404.78 399.699 407.62 397.019 409.66C394.339 411.7 390.479 412.72 385.439 412.72ZM421.143 412.72C417.303 412.72 413.943 411.96 411.063 410.44C408.223 408.88 406.023 406.7 404.463 403.9C402.943 401.06 402.183 397.72 402.183 393.88C402.183 390.04 402.943 386.74 404.463 383.98C405.983 381.18 408.143 379.04 410.943 377.56C413.743 376.04 417.023 375.28 420.783 375.28C424.463 375.28 427.623 376 430.263 377.44C432.903 378.84 434.943 380.88 436.383 383.56C437.823 386.2 438.543 389.34 438.543 392.98V396.1H410.763C411.123 399.14 412.183 401.48 413.943 403.12C415.743 404.72 418.123 405.52 421.083 405.52C423.283 405.52 425.063 405.12 426.423 404.32C427.823 403.48 428.803 402.24 429.363 400.6H438.363C437.523 404.4 435.583 407.38 432.543 409.54C429.543 411.66 425.743 412.72 421.143 412.72ZM411.003 390.04H429.963C429.643 387.56 428.683 385.68 427.083 384.4C425.523 383.08 423.423 382.42 420.783 382.42C418.183 382.42 416.043 383.08 414.363 384.4C412.683 385.72 411.563 387.6 411.003 390.04ZM452.744 412C450.384 412 448.544 411.4 447.224 410.2C445.944 409 445.304 407.18 445.304 404.74V382.96H438.944V376H445.364V365.2H454.124V376H462.824V382.96H454.244V404.98H463.664V412H452.744ZM481.635 412.72C476.435 412.72 472.335 411.64 469.335 409.48C466.335 407.28 464.715 404.22 464.475 400.3H473.175C473.455 402.18 474.315 403.58 475.755 404.5C477.195 405.38 479.275 405.82 481.995 405.82C486.595 405.82 488.895 404.5 488.895 401.86C488.895 400.74 488.535 399.88 487.815 399.28C487.135 398.68 485.975 398.22 484.335 397.9L476.355 396.4C469.355 395.04 465.855 391.72 465.855 386.44C465.855 383.04 467.195 380.34 469.875 378.34C472.555 376.3 476.235 375.28 480.915 375.28C485.675 375.28 489.435 376.32 492.195 378.4C494.995 380.44 496.555 383.34 496.875 387.1H488.235C487.795 385.3 486.955 384 485.715 383.2C484.515 382.36 482.775 381.94 480.495 381.94C478.455 381.94 476.895 382.26 475.815 382.9C474.735 383.54 474.195 384.48 474.195 385.72C474.195 386.64 474.535 387.38 475.215 387.94C475.895 388.5 476.975 388.92 478.455 389.2L486.555 390.76C490.235 391.48 492.935 392.68 494.655 394.36C496.375 396.04 497.235 398.3 497.235 401.14C497.235 404.78 495.895 407.62 493.215 409.66C490.535 411.7 486.675 412.72 481.635 412.72Z" fill="#23262F"/>
</g>
</g>
<defs>
<filter id="filter0_dd_253_45" x="0" y="0" width="1296" height="508" filterUnits="userSpaceOnUse" color-interpolation-filters="sRGB">
<feFlood flood-opacity="0" result="BackgroundImageFix"/>
<feColorMatrix in="SourceAlpha" type="matrix" values="0 0 0 0 0 0 0 0 0 0 0 0 0 0 0 0 0 0 127 0" result="hardAlpha"/>
<feMorphology radius="4" operator="erode" in="SourceAlpha" result="effect1_dropShadow_253_45"/>
<feOffset dy="6"/>
<feGaussianBlur stdDeviation="2"/>
<feComposite in2="hardAlpha" operator="out"/>
<feColorMatrix type="matrix" values="0 0 0 0 0.0313726 0 0 0 0 0.0313726 0 0 0 0 0.0313726 0 0 0 0.05 0"/>
<feBlend mode="normal" in2="BackgroundImageFix" result="effect1_dropShadow_253_45"/>
<feColorMatrix in="SourceAlpha" type="matrix" values="0 0 0 0 0 0 0 0 0 0 0 0 0 0 0 0 0 0 127 0" result="hardAlpha"/>
<feMorphology radius="4" operator="erode" in="SourceAlpha" result="effect2_dropShadow_253_45"/>
<feOffset dy="5"/>
<feGaussianBlur stdDeviation="0.75"/>
<feComposite in2="hardAlpha" operator="out"/>
<feColorMatrix type="matrix" values="0 0 0 0 0.0313726 0 0 0 0 0.0313726 0 0 0 0 0.0313726 0 0 0 0.09 0"/>
<feBlend mode="normal" in2="effect1_dropShadow_253_45" result="effect2_dropShadow_253_45"/>
<feBlend mode="normal" in="SourceGraphic" in2="effect2_dropShadow_253_45" result="shape"/>
</filter>
<clipPath id="clip0_253_45">
<rect width="1296" height="502" rx="48" fill="white"/>
</clipPath>
</defs>
</svg>
