<svg width="626" height="360" viewBox="0 0 626 360" fill="none" xmlns="http://www.w3.org/2000/svg">
<path d="M336.43 324.035C265.85 324.035 200.96 259.425 191.79 179.995C182.62 100.575 232.59 35.965 303.18 35.965C373.77 35.965 438.65 100.575 447.82 179.995C456.99 259.415 407.03 324.035 336.43 324.035ZM302.95 34.025C231.41 34.025 180.77 99.515 190.06 179.995C199.35 260.485 265.12 325.975 336.65 325.975C408.19 325.975 458.84 260.485 449.55 179.995C440.26 99.515 374.49 34.025 302.95 34.025Z" fill="#0008FF"/>
<path opacity="0.91" d="M338.43 341.425C259.32 341.425 186.59 269.005 176.32 179.995C166.05 90.985 222.05 18.565 301.16 18.565C380.27 18.565 453 90.985 463.28 179.995C473.56 269.015 417.55 341.425 338.43 341.425ZM300.96 16.775C220.97 16.775 164.34 89.995 174.73 179.995C185.12 269.995 258.65 343.225 338.65 343.225C418.65 343.225 475.28 270.005 464.89 179.995C454.5 89.995 380.97 16.775 300.97 16.775" fill="#0008FF"/>
<path opacity="0.82" d="M340.44 358.835C252.79 358.835 172.23 278.605 160.85 179.995C149.47 81.385 211.51 1.16502 299.15 1.16502C386.8 1.16502 467.36 81.395 478.74 179.995C490.12 278.605 428.08 358.835 340.44 358.835ZM298.97 -0.474976C210.52 -0.474976 147.91 80.495 159.4 179.995C170.89 279.505 252.19 360.465 340.64 360.465C429.09 360.465 491.7 279.505 480.21 179.995C468.72 80.485 387.42 -0.474976 298.97 -0.474976Z" fill="#0008FF"/>
<path opacity="0.73" d="M342.45 376.235C246.28 376.235 157.88 288.195 145.39 179.995C132.9 71.7951 200.98 -16.235 297.15 -16.235C393.32 -16.235 481.73 71.7951 494.22 179.995C506.71 288.195 438.63 376.235 342.45 376.235ZM296.98 -17.715C200.08 -17.715 131.49 70.9751 144.07 179.995C156.66 289.025 245.72 377.715 342.62 377.715C439.53 377.715 508.12 289.025 495.53 179.995C482.95 70.9751 393.88 -17.715 296.97 -17.715" fill="#0008FF"/>
<path opacity="0.64" d="M344.46 393.645C293.74 393.645 243.49 371.425 202.97 331.065C162.44 290.715 136.5 237.065 129.91 179.995C123.32 122.935 136.88 69.285 168.09 28.935C199.29 -11.425 244.41 -33.645 295.13 -33.645C345.85 -33.645 396.11 -11.425 436.62 28.935C477.14 69.285 503.09 122.935 509.68 179.995C516.27 237.065 502.7 290.715 471.5 331.065C440.3 371.425 395.18 393.645 344.45 393.645M294.99 -34.965C243.95 -34.965 198.56 -12.605 167.16 27.995C135.76 68.595 122.12 122.585 128.74 179.995C135.37 237.415 161.48 291.405 202.25 332.005C243.02 372.605 293.58 394.965 344.62 394.965C395.66 394.965 441.06 372.605 472.46 332.005C503.86 291.405 517.5 237.415 510.88 179.995C504.25 122.585 478.15 68.595 437.37 27.995C396.6 -12.605 346.03 -34.965 295 -34.965" fill="#0008FF"/>
<path opacity="0.55" d="M346.47 411.045C291.62 411.045 237.28 387.015 193.45 343.375C149.62 299.735 121.58 241.725 114.45 180.005C107.33 118.295 121.99 60.275 155.73 16.645C189.48 -26.995 238.28 -51.025 293.12 -51.025C347.98 -51.025 402.32 -26.995 446.14 16.645C489.96 60.285 518.02 118.295 525.15 180.005C532.27 241.725 517.61 299.745 483.86 343.375C450.11 387.015 401.32 411.045 346.47 411.045ZM292.99 -52.215C237.86 -52.215 188.82 -28.065 154.9 15.795C120.98 59.655 106.24 117.965 113.4 179.995C120.56 242.025 148.76 300.335 192.81 344.205C236.85 388.065 291.47 412.215 346.6 412.215C401.74 412.215 450.77 388.065 484.7 344.205C518.62 300.345 533.36 242.035 526.2 179.995C519.04 117.965 490.84 59.655 446.79 15.795C402.74 -28.065 348.12 -52.215 292.99 -52.215Z" fill="#0008FF"/>
<path opacity="0.45" d="M348.48 428.445C289.5 428.445 231.06 402.605 183.94 355.675C136.82 308.745 106.64 246.355 98.98 179.995C91.32 113.635 107.09 51.245 143.38 4.31504C179.67 -42.605 232.14 -68.455 291.12 -68.455C350.1 -68.455 408.54 -42.615 455.66 4.31504C502.79 51.235 532.96 113.635 540.62 179.995C548.28 246.365 532.51 308.745 496.22 355.675C459.93 402.595 407.46 428.445 348.48 428.445ZM291 -69.465C231.78 -69.465 179.09 -43.515 142.65 3.60503C106.21 50.725 90.38 113.375 98.07 180.005C105.76 246.645 136.06 309.295 183.37 356.405C230.68 403.515 289.36 429.475 348.59 429.475C407.82 429.475 460.5 403.525 496.94 356.405C533.38 309.285 549.21 246.635 541.52 180.005C533.83 113.375 503.53 50.725 456.22 3.60503C408.9 -43.515 350.23 -69.465 291 -69.465Z" fill="#0008FF"/>
<path opacity="0.36" d="M350.49 445.845C287.38 445.845 224.85 418.195 174.42 367.985C123.99 317.775 91.7098 251.015 83.5098 179.995C75.3098 108.985 92.1798 42.225 131.02 -7.98497C169.85 -58.195 226 -85.845 289.11 -85.845C352.22 -85.845 414.76 -58.195 465.18 -7.98497C515.61 42.225 547.89 108.985 556.08 179.995C564.28 251.005 547.41 317.765 508.58 367.985C469.75 418.195 413.6 445.845 350.48 445.845M289.01 -86.715C225.69 -86.715 169.37 -58.965 130.4 -8.59497C91.4498 41.785 74.5198 108.755 82.7398 179.995C90.9598 251.235 123.36 318.215 173.94 368.585C224.53 418.965 287.26 446.715 350.58 446.715C413.9 446.715 470.23 418.965 509.18 368.585C548.14 318.215 565.07 251.235 556.85 179.995C548.63 108.755 516.23 41.785 465.64 -8.59497C415.06 -58.965 352.32 -86.715 289 -86.715" fill="#0008FF"/>
<path opacity="0.27" d="M352.5 463.255C285.26 463.255 218.63 433.795 164.91 380.285C111.18 326.785 76.7797 255.655 68.0497 179.995C59.3197 104.345 77.2897 33.205 118.67 -20.285C160.04 -73.785 219.86 -103.255 287.11 -103.255C354.36 -103.255 420.98 -73.795 474.71 -20.285C528.44 33.205 562.84 104.345 571.57 179.995C580.3 255.655 562.33 326.785 520.95 380.285C479.57 433.785 419.76 463.255 352.51 463.255M287.02 -103.965C219.61 -103.965 159.64 -74.425 118.16 -20.785C76.6797 32.845 58.6497 104.155 67.4097 179.995C76.1697 255.845 110.66 327.155 164.52 380.785C218.37 434.415 285.16 463.955 352.58 463.955C420 463.955 479.97 434.415 521.44 380.785C562.92 327.155 580.94 255.845 572.18 179.995C563.42 104.145 528.94 32.845 475.08 -20.785C421.22 -74.415 354.43 -103.965 287.01 -103.965" fill="#0008FF"/>
<path opacity="0.18" d="M354.51 480.655C318.44 480.655 282.53 472.705 247.77 457.035C214.21 441.895 183.12 420.215 155.39 392.595C127.67 364.985 104.69 332.835 87.0896 297.035C68.8797 259.965 57.2697 220.595 52.5797 179.995C47.8997 139.415 50.4097 100.035 60.0697 62.965C69.3997 27.165 84.9497 -4.98495 106.3 -32.595C127.66 -60.205 153.74 -81.885 183.8 -97.035C214.94 -112.715 249.02 -120.655 285.09 -120.655C321.17 -120.655 357.08 -112.705 391.83 -97.035C425.4 -81.895 456.49 -60.215 484.21 -32.595C511.94 -4.98495 534.92 27.165 552.51 62.965C570.73 100.035 582.33 139.405 587.02 179.995C591.71 220.585 589.19 259.965 579.53 297.035C570.2 332.835 554.65 364.985 533.29 392.595C511.94 420.205 485.86 441.885 455.79 457.035C424.66 472.715 390.58 480.655 354.5 480.655M285.03 -121.205C248.89 -121.205 214.75 -113.245 183.56 -97.535C153.43 -82.365 127.3 -60.655 105.91 -32.985C84.5097 -5.32495 68.9297 26.8951 59.5897 62.7551C49.9197 99.8851 47.3897 139.335 52.0797 179.995C56.7697 220.655 68.4097 260.115 86.6597 297.245C104.28 333.115 127.3 365.335 155.09 392.985C182.87 420.645 214 442.365 247.64 457.535C282.45 473.245 318.43 481.205 354.57 481.205C390.71 481.205 424.86 473.245 456.05 457.535C486.18 442.365 512.3 420.645 533.7 392.985C555.09 365.325 570.68 333.105 580.02 297.245C589.69 260.115 592.22 220.665 587.52 179.995C582.83 139.345 571.2 99.8851 552.95 62.7551C535.33 26.8851 512.3 -5.33495 484.52 -32.985C456.74 -60.655 425.6 -82.365 391.97 -97.535C357.16 -113.245 321.17 -121.205 285.03 -121.205Z" fill="#0008FF"/>
<path opacity="0.09" d="M356.51 498.055C318.35 498.055 280.36 489.645 243.59 473.055C208.08 457.045 175.2 434.115 145.86 404.895C116.53 375.685 92.2199 341.665 73.5999 303.795C54.3399 264.585 42.0499 222.935 37.0999 179.985C32.1499 137.035 34.8099 95.3951 45.0199 56.185C54.8899 18.315 71.3399 -15.705 93.9299 -44.915C116.52 -74.125 144.11 -97.055 175.92 -113.075C208.87 -129.655 244.92 -138.065 283.09 -138.065C321.26 -138.065 359.24 -129.655 396.01 -113.075C431.52 -97.055 464.4 -74.125 493.74 -44.915C523.07 -15.705 547.38 18.315 565.99 56.185C585.26 95.3951 597.55 137.045 602.5 179.985C607.46 222.925 604.79 264.585 594.57 303.795C584.71 341.665 568.25 375.685 545.66 404.895C523.07 434.105 495.48 457.035 463.67 473.055C430.73 489.645 394.69 498.055 356.52 498.055M283.04 -138.455C244.83 -138.455 208.74 -130.035 175.76 -113.425C143.91 -97.385 116.29 -74.425 93.6699 -45.185C71.0499 -15.935 54.5699 18.125 44.6899 56.035C34.4699 95.295 31.7999 137.005 36.7599 179.985C41.7199 222.985 54.0199 264.685 73.3099 303.945C91.9399 341.865 116.29 375.925 145.66 405.165C175.03 434.415 207.95 457.365 243.51 473.405C280.32 490.015 318.36 498.435 356.57 498.435C394.79 498.435 430.88 490.015 463.86 473.405C495.71 457.365 523.33 434.405 545.95 405.165C568.57 375.915 585.04 341.855 594.92 303.945C605.15 264.685 607.82 222.975 602.86 179.985C597.9 136.995 585.6 95.295 566.31 56.035C547.68 18.1151 523.34 -15.945 493.97 -45.185C464.6 -74.435 431.68 -97.385 396.12 -113.425C359.3 -130.035 321.25 -138.455 283.04 -138.455Z" fill="#0008FF"/>
<mask id="mask0_197_348" style="mask-type:luminance" maskUnits="userSpaceOnUse" x="182" y="39" width="214" height="290">
<path d="M395.18 309.495L374.72 318.945C360.95 325.305 345.58 328.785 329.09 328.785C257.91 328.785 192.71 263.865 183.47 183.785C176.37 122.255 204.36 69.6851 249.98 48.6151L270.44 39.165C224.82 60.235 196.83 112.805 203.93 174.335C213.17 254.415 278.38 319.335 349.55 319.335C366.05 319.335 381.42 315.845 395.18 309.495Z" fill="white"/>
</mask>
<g mask="url(#mask0_197_348)">
<path d="M395.18 309.495L374.72 318.945C360.95 325.305 345.58 328.785 329.09 328.785C257.91 328.785 192.71 263.865 183.47 183.785C176.37 122.255 204.36 69.6851 249.98 48.6151L270.44 39.165C224.82 60.235 196.83 112.805 203.93 174.335C213.17 254.415 278.38 319.335 349.55 319.335C366.05 319.335 381.42 315.845 395.18 309.495Z" fill="url(#paint0_linear_197_348)"/>
</g>
<path d="M316.07 29.3251C387.25 29.3251 452.44 94.2451 461.69 174.335C470.93 254.415 420.73 319.335 349.55 319.335C278.37 319.335 213.17 254.415 203.93 174.335C194.68 94.2451 244.9 29.3251 316.08 29.3251H316.07Z" fill="url(#paint1_linear_197_348)"/>
<path d="M203.93 174.335C194.68 94.2488 244.895 29.3311 316.07 29.3251V29.8251C386.948 29.8251 451.967 94.5041 461.193 174.392C470.407 254.247 420.363 318.835 349.55 318.835C278.672 318.835 213.643 254.156 204.427 174.278L203.93 174.335ZM203.93 174.335L204.427 174.278C195.203 94.4133 245.266 29.8251 316.08 29.8251V29.3251L203.93 174.335Z" stroke="white" stroke-opacity="0.19"/>
<path d="M222.42 177.715H260.47L265.34 175.465H227.29L222.42 177.715Z" fill="#000485"/>
<path d="M408.55 175.465L407.34 164.985L402.47 167.235L403.68 177.715H451.04L455.91 175.465H408.55Z" fill="url(#paint2_linear_197_348)"/>
<path d="M334.03 126.295L329.16 128.545C328.48 128.855 328.1 129.635 328.2 130.495L329.05 137.835C329.11 138.395 329.37 138.925 329.77 139.315L337.92 147.435C338.32 147.835 338.83 148.055 339.31 148.055C339.52 148.055 339.73 148.015 339.93 147.925L355.93 140.945C356.04 140.895 356.14 140.875 356.25 140.875C356.86 140.875 357.43 141.575 357.28 142.285L353.27 161.195C353.11 161.955 353.37 162.815 353.95 163.395L361.28 170.695C362.1 171.515 362.25 172.835 361.62 173.655L356.01 180.905C355.56 181.475 355.49 182.345 355.83 183.105L364.21 202.015C364.47 202.595 364.25 203.155 363.83 203.355L368.7 201.105C369.12 200.915 369.34 200.345 369.08 199.765L360.7 180.855C360.36 180.095 360.43 179.225 360.88 178.655L366.49 171.405C367.12 170.585 366.97 169.255 366.15 168.445L358.82 161.145C358.24 160.565 357.98 159.705 358.14 158.945L362.15 140.035C362.3 139.325 361.73 138.625 361.12 138.625C361.01 138.625 360.91 138.645 360.8 138.695L344.8 145.675C344.6 145.765 344.39 145.805 344.18 145.805C343.69 145.805 343.19 145.585 342.79 145.185L334.64 137.065C334.24 136.675 333.99 136.145 333.92 135.585L333.07 128.245C332.97 127.375 333.35 126.605 334.03 126.295Z" fill="url(#paint3_linear_197_348)"/>
<path d="M317.22 48.995C376.18 48.995 430.5 101.575 440.53 167.245L445.4 164.995C435.37 99.335 381.06 46.745 322.09 46.745C308.09 46.745 295.03 49.715 283.33 55.115L278.46 57.365C290.16 51.965 303.22 48.995 317.22 48.995Z" fill="url(#paint4_linear_197_348)"/>
<path d="M387.54 286.115C386.53 286.625 385.51 287.125 384.47 287.605L389.34 285.355C390.37 284.875 391.39 284.385 392.41 283.865C417 271.355 435.18 247.855 442.91 218.575L438.04 220.825C430.31 250.105 412.13 273.605 387.54 286.115Z" fill="url(#paint5_linear_197_348)"/>
<path d="M317.35 147.915C317.57 148.005 317.8 148.045 318.01 148.045C318.24 148.045 318.46 147.995 318.67 147.905L323.54 145.655C323.34 145.745 323.11 145.795 322.88 145.795C322.66 145.795 322.44 145.755 322.22 145.665L304.61 138.695C304.5 138.645 304.38 138.625 304.28 138.625C304.17 138.625 304.06 138.645 303.96 138.695L299.09 140.945C299.19 140.905 299.29 140.875 299.41 140.875C299.52 140.875 299.63 140.895 299.74 140.945L317.35 147.915Z" fill="url(#paint6_linear_197_348)"/>
<path d="M284.19 207.025C283.86 208.555 284.39 210.275 285.56 211.435L301.35 227.155C302.16 227.955 303.16 228.385 304.13 228.385C304.56 228.385 304.98 228.305 305.38 228.125L333.72 215.765C333.72 215.765 333.74 215.765 333.75 215.755L337.83 213.875C337.94 214.745 338.51 215.515 339.27 215.815L370.49 228.135C370.93 228.305 371.37 228.395 371.8 228.395C372.03 228.395 372.26 228.375 372.48 228.325C372.7 228.275 372.92 228.205 373.12 228.115L377.99 225.865C377.58 226.055 377.13 226.155 376.66 226.155C376.23 226.155 375.78 226.075 375.35 225.895L344.13 213.575C343.36 213.275 342.79 212.485 342.69 211.615L341.84 204.275C341.78 203.725 341.91 203.185 342.21 202.795L348.52 194.635C348.68 194.425 348.88 194.265 349.11 194.165L344.24 196.415C344.02 196.515 343.81 196.675 343.65 196.885L337.34 205.045C337.03 205.435 336.9 205.975 336.97 206.525L337.82 213.865L310.25 225.885C309.85 226.055 309.43 226.145 309 226.145C308.03 226.145 307.03 225.715 306.22 224.915L290.43 209.195C289.27 208.035 288.73 206.315 289.06 204.785L296.15 171.405C296.35 170.465 296.23 169.445 295.81 168.505L280.96 135.035C280.29 133.505 280.42 131.785 281.31 130.625L293.48 114.905C293.64 114.695 293.82 114.515 294.02 114.355C294.22 114.195 294.43 114.065 294.65 113.965L289.78 116.215C289.33 116.425 288.94 116.735 288.62 117.145L276.45 132.865C275.56 134.025 275.43 135.755 276.1 137.275L290.95 170.745C291.36 171.685 291.48 172.705 291.29 173.645L284.2 207.025H284.19Z" fill="url(#paint7_linear_197_348)"/>
<path d="M263.09 264.955C237.68 239.655 221.42 206.015 217.28 170.225C213.14 134.435 221.66 100.805 241.23 75.5051C245.74 69.6751 250.71 64.4451 256.08 59.8451C258.38 57.8751 260.76 56.0251 263.2 54.2951C264.83 53.1351 266.49 52.0351 268.18 50.9851C271.56 48.8851 275.05 47.0051 278.65 45.3451L273.78 47.5951C259.39 54.2451 246.66 64.4151 236.35 77.7551C216.78 103.055 208.27 136.685 212.4 172.475C216.53 208.265 232.79 241.905 258.21 267.205C283.62 292.505 315.12 306.435 346.92 306.435C361.85 306.435 376 303.355 388.85 297.495L393.72 295.245C380.87 301.115 366.72 304.185 351.79 304.185C319.99 304.185 288.48 290.255 263.08 264.955H263.09Z" fill="url(#paint8_linear_197_348)"/>
<mask id="path-18-inside-1_197_348" fill="white">
<path d="M363.65 113.675C364.62 113.675 365.63 114.105 366.43 114.905L382.22 130.625C383.38 131.785 383.92 133.505 383.59 135.035L376.5 168.415C376.3 169.345 376.42 170.375 376.83 171.305L391.68 204.785C392.35 206.315 392.22 208.025 391.32 209.185L379.16 224.915C378.54 225.715 377.64 226.135 376.67 226.135C376.24 226.135 375.79 226.055 375.36 225.875L344.14 213.555C343.37 213.255 342.8 212.465 342.7 211.595L341.85 204.255C341.79 203.705 341.92 203.165 342.22 202.775L348.53 194.615C348.84 194.215 349.29 193.995 349.77 193.995C349.99 193.995 350.21 194.035 350.44 194.125L358.83 197.435L368.04 201.095C368.16 201.145 368.27 201.165 368.37 201.165C368.98 201.165 369.4 200.465 369.07 199.755L360.69 180.845C360.35 180.085 360.42 179.215 360.87 178.645L366.48 171.395C367.11 170.575 366.96 169.245 366.14 168.435L358.81 161.135C358.23 160.555 357.97 159.695 358.13 158.935L362.14 140.025C362.29 139.315 361.72 138.615 361.11 138.615C361 138.615 360.9 138.635 360.79 138.685L344.79 145.665C344.59 145.755 344.38 145.795 344.17 145.795C343.68 145.795 343.18 145.575 342.78 145.175L334.63 137.055C334.23 136.665 333.98 136.135 333.91 135.575L333.06 128.235C332.96 127.355 333.35 126.575 334.05 126.275L362.39 113.915C362.79 113.745 363.21 113.655 363.64 113.655L363.65 113.675Z"/>
<path d="M295.98 113.665C296.41 113.665 296.85 113.745 297.29 113.925L328.52 126.235C329.29 126.545 329.86 127.325 329.96 128.205L330.81 135.545C330.87 136.095 330.74 136.635 330.43 137.015L324.12 145.175C323.82 145.575 323.37 145.785 322.88 145.785C322.66 145.785 322.44 145.745 322.22 145.655L304.61 138.685C304.5 138.635 304.38 138.615 304.28 138.615C303.67 138.615 303.26 139.315 303.57 140.025L311.95 158.935C312.29 159.695 312.22 160.555 311.78 161.135L306.17 168.385C305.54 169.205 305.69 170.535 306.51 171.345L313.84 178.645C314.41 179.225 314.68 180.085 314.52 180.845L310.51 199.745C310.35 200.465 310.93 201.165 311.54 201.165C311.65 201.165 311.75 201.145 311.86 201.095L327.85 194.115C328.05 194.025 328.26 193.985 328.48 193.985C328.97 193.985 329.47 194.195 329.87 194.595L338.03 202.725C338.43 203.115 338.68 203.645 338.75 204.195L339.6 211.545C339.7 212.425 339.31 213.205 338.61 213.505L310.27 225.865C309.87 226.035 309.45 226.125 309.02 226.125C308.05 226.125 307.05 225.695 306.24 224.895L290.45 209.175C289.29 208.015 288.75 206.295 289.08 204.765L296.17 171.385C296.37 170.445 296.25 169.425 295.83 168.485L280.98 135.015C280.31 133.485 280.44 131.765 281.33 130.605L293.5 114.885C294.12 114.085 295.02 113.665 295.99 113.665H295.98Z"/>
<path d="M320.88 36.265C352.68 36.265 384.19 50.195 409.6 75.505C433.76 99.555 449.65 131.175 454.7 164.985C454.96 166.735 455.2 168.475 455.41 170.225C455.62 171.975 455.77 173.715 455.91 175.465H408.54L407.33 164.985H445.39C435.36 99.325 381.05 46.735 322.08 46.735C263.12 46.735 220.94 99.315 226.07 164.985H264.12L265.33 175.455H227.28C237.31 241.125 291.62 293.705 350.58 293.705C365.82 293.705 379.94 290.185 392.4 283.845C416.99 271.335 435.17 247.835 442.9 218.555H453.02C449.1 235.745 441.84 251.515 431.46 264.935C421.07 278.365 408.24 288.585 393.72 295.225C380.87 301.095 366.72 304.165 351.79 304.165C319.99 304.165 288.48 290.235 263.08 264.935C237.67 239.635 221.41 205.995 217.27 170.205C213.14 134.415 221.65 100.785 241.22 75.485C260.78 50.175 289.08 36.245 320.88 36.245V36.265Z"/>
</mask>
<path d="M363.65 113.675C364.62 113.675 365.63 114.105 366.43 114.905L382.22 130.625C383.38 131.785 383.92 133.505 383.59 135.035L376.5 168.415C376.3 169.345 376.42 170.375 376.83 171.305L391.68 204.785C392.35 206.315 392.22 208.025 391.32 209.185L379.16 224.915C378.54 225.715 377.64 226.135 376.67 226.135C376.24 226.135 375.79 226.055 375.36 225.875L344.14 213.555C343.37 213.255 342.8 212.465 342.7 211.595L341.85 204.255C341.79 203.705 341.92 203.165 342.22 202.775L348.53 194.615C348.84 194.215 349.29 193.995 349.77 193.995C349.99 193.995 350.21 194.035 350.44 194.125L358.83 197.435L368.04 201.095C368.16 201.145 368.27 201.165 368.37 201.165C368.98 201.165 369.4 200.465 369.07 199.755L360.69 180.845C360.35 180.085 360.42 179.215 360.87 178.645L366.48 171.395C367.11 170.575 366.96 169.245 366.14 168.435L358.81 161.135C358.23 160.555 357.97 159.695 358.13 158.935L362.14 140.025C362.29 139.315 361.72 138.615 361.11 138.615C361 138.615 360.9 138.635 360.79 138.685L344.79 145.665C344.59 145.755 344.38 145.795 344.17 145.795C343.68 145.795 343.18 145.575 342.78 145.175L334.63 137.055C334.23 136.665 333.98 136.135 333.91 135.575L333.06 128.235C332.96 127.355 333.35 126.575 334.05 126.275L362.39 113.915C362.79 113.745 363.21 113.655 363.64 113.655L363.65 113.675Z" fill="url(#paint9_linear_197_348)"/>
<path d="M295.98 113.665C296.41 113.665 296.85 113.745 297.29 113.925L328.52 126.235C329.29 126.545 329.86 127.325 329.96 128.205L330.81 135.545C330.87 136.095 330.74 136.635 330.43 137.015L324.12 145.175C323.82 145.575 323.37 145.785 322.88 145.785C322.66 145.785 322.44 145.745 322.22 145.655L304.61 138.685C304.5 138.635 304.38 138.615 304.28 138.615C303.67 138.615 303.26 139.315 303.57 140.025L311.95 158.935C312.29 159.695 312.22 160.555 311.78 161.135L306.17 168.385C305.54 169.205 305.69 170.535 306.51 171.345L313.84 178.645C314.41 179.225 314.68 180.085 314.52 180.845L310.51 199.745C310.35 200.465 310.93 201.165 311.54 201.165C311.65 201.165 311.75 201.145 311.86 201.095L327.85 194.115C328.05 194.025 328.26 193.985 328.48 193.985C328.97 193.985 329.47 194.195 329.87 194.595L338.03 202.725C338.43 203.115 338.68 203.645 338.75 204.195L339.6 211.545C339.7 212.425 339.31 213.205 338.61 213.505L310.27 225.865C309.87 226.035 309.45 226.125 309.02 226.125C308.05 226.125 307.05 225.695 306.24 224.895L290.45 209.175C289.29 208.015 288.75 206.295 289.08 204.765L296.17 171.385C296.37 170.445 296.25 169.425 295.83 168.485L280.98 135.015C280.31 133.485 280.44 131.765 281.33 130.605L293.5 114.885C294.12 114.085 295.02 113.665 295.99 113.665H295.98Z" fill="url(#paint10_linear_197_348)"/>
<path d="M320.88 36.265C352.68 36.265 384.19 50.195 409.6 75.505C433.76 99.555 449.65 131.175 454.7 164.985C454.96 166.735 455.2 168.475 455.41 170.225C455.62 171.975 455.77 173.715 455.91 175.465H408.54L407.33 164.985H445.39C435.36 99.325 381.05 46.735 322.08 46.735C263.12 46.735 220.94 99.315 226.07 164.985H264.12L265.33 175.455H227.28C237.31 241.125 291.62 293.705 350.58 293.705C365.82 293.705 379.94 290.185 392.4 283.845C416.99 271.335 435.17 247.835 442.9 218.555H453.02C449.1 235.745 441.84 251.515 431.46 264.935C421.07 278.365 408.24 288.585 393.72 295.225C380.87 301.095 366.72 304.165 351.79 304.165C319.99 304.165 288.48 290.235 263.08 264.935C237.67 239.635 221.41 205.995 217.27 170.205C213.14 134.415 221.65 100.785 241.22 75.485C260.78 50.175 289.08 36.245 320.88 36.245V36.265Z" fill="url(#paint11_linear_197_348)"/>
<path d="M363.65 113.675C364.62 113.675 365.63 114.105 366.43 114.905L382.22 130.625C383.38 131.785 383.92 133.505 383.59 135.035L376.5 168.415C376.3 169.345 376.42 170.375 376.83 171.305L391.68 204.785C392.35 206.315 392.22 208.025 391.32 209.185L379.16 224.915C378.54 225.715 377.64 226.135 376.67 226.135C376.24 226.135 375.79 226.055 375.36 225.875L344.14 213.555C343.37 213.255 342.8 212.465 342.7 211.595L341.85 204.255C341.79 203.705 341.92 203.165 342.22 202.775L348.53 194.615C348.84 194.215 349.29 193.995 349.77 193.995C349.99 193.995 350.21 194.035 350.44 194.125L358.83 197.435L368.04 201.095C368.16 201.145 368.27 201.165 368.37 201.165C368.98 201.165 369.4 200.465 369.07 199.755L360.69 180.845C360.35 180.085 360.42 179.215 360.87 178.645L366.48 171.395C367.11 170.575 366.96 169.245 366.14 168.435L358.81 161.135C358.23 160.555 357.97 159.695 358.13 158.935L362.14 140.025C362.29 139.315 361.72 138.615 361.11 138.615C361 138.615 360.9 138.635 360.79 138.685L344.79 145.665C344.59 145.755 344.38 145.795 344.17 145.795C343.68 145.795 343.18 145.575 342.78 145.175L334.63 137.055C334.23 136.665 333.98 136.135 333.91 135.575L333.06 128.235C332.96 127.355 333.35 126.575 334.05 126.275L362.39 113.915C362.79 113.745 363.21 113.655 363.64 113.655L363.65 113.675Z" stroke="#1017FF" stroke-opacity="0.08" stroke-width="2" mask="url(#path-18-inside-1_197_348)"/>
<path d="M295.98 113.665C296.41 113.665 296.85 113.745 297.29 113.925L328.52 126.235C329.29 126.545 329.86 127.325 329.96 128.205L330.81 135.545C330.87 136.095 330.74 136.635 330.43 137.015L324.12 145.175C323.82 145.575 323.37 145.785 322.88 145.785C322.66 145.785 322.44 145.745 322.22 145.655L304.61 138.685C304.5 138.635 304.38 138.615 304.28 138.615C303.67 138.615 303.26 139.315 303.57 140.025L311.95 158.935C312.29 159.695 312.22 160.555 311.78 161.135L306.17 168.385C305.54 169.205 305.69 170.535 306.51 171.345L313.84 178.645C314.41 179.225 314.68 180.085 314.52 180.845L310.51 199.745C310.35 200.465 310.93 201.165 311.54 201.165C311.65 201.165 311.75 201.145 311.86 201.095L327.85 194.115C328.05 194.025 328.26 193.985 328.48 193.985C328.97 193.985 329.47 194.195 329.87 194.595L338.03 202.725C338.43 203.115 338.68 203.645 338.75 204.195L339.6 211.545C339.7 212.425 339.31 213.205 338.61 213.505L310.27 225.865C309.87 226.035 309.45 226.125 309.02 226.125C308.05 226.125 307.05 225.695 306.24 224.895L290.45 209.175C289.29 208.015 288.75 206.295 289.08 204.765L296.17 171.385C296.37 170.445 296.25 169.425 295.83 168.485L280.98 135.015C280.31 133.485 280.44 131.765 281.33 130.605L293.5 114.885C294.12 114.085 295.02 113.665 295.99 113.665H295.98Z" stroke="#1017FF" stroke-opacity="0.08" stroke-width="2" mask="url(#path-18-inside-1_197_348)"/>
<path d="M320.88 36.265C352.68 36.265 384.19 50.195 409.6 75.505C433.76 99.555 449.65 131.175 454.7 164.985C454.96 166.735 455.2 168.475 455.41 170.225C455.62 171.975 455.77 173.715 455.91 175.465H408.54L407.33 164.985H445.39C435.36 99.325 381.05 46.735 322.08 46.735C263.12 46.735 220.94 99.315 226.07 164.985H264.12L265.33 175.455H227.28C237.31 241.125 291.62 293.705 350.58 293.705C365.82 293.705 379.94 290.185 392.4 283.845C416.99 271.335 435.17 247.835 442.9 218.555H453.02C449.1 235.745 441.84 251.515 431.46 264.935C421.07 278.365 408.24 288.585 393.72 295.225C380.87 301.095 366.72 304.165 351.79 304.165C319.99 304.165 288.48 290.235 263.08 264.935C237.67 239.635 221.41 205.995 217.27 170.205C213.14 134.415 221.65 100.785 241.22 75.485C260.78 50.175 289.08 36.245 320.88 36.245V36.265Z" stroke="#1017FF" stroke-opacity="0.08" stroke-width="2" mask="url(#path-18-inside-1_197_348)"/>
<defs>
<linearGradient id="paint0_linear_197_348" x1="251.276" y1="39.165" x2="326.278" y2="328.785" gradientUnits="userSpaceOnUse">
<stop stop-color="#1B21E8"/>
<stop offset="1" stop-color="#000485"/>
</linearGradient>
<linearGradient id="paint1_linear_197_348" x1="232.5" y1="227.5" x2="447" y2="89.5" gradientUnits="userSpaceOnUse">
<stop stop-color="#0008FF"/>
<stop offset="1" stop-color="#7377FF"/>
</linearGradient>
<linearGradient id="paint2_linear_197_348" x1="391" y1="63" x2="231" y2="301.5" gradientUnits="userSpaceOnUse">
<stop stop-color="#0F16E7"/>
<stop offset="1" stop-color="#000485"/>
</linearGradient>
<linearGradient id="paint3_linear_197_348" x1="391" y1="63" x2="231" y2="301.5" gradientUnits="userSpaceOnUse">
<stop stop-color="#0F16E7"/>
<stop offset="1" stop-color="#000485"/>
</linearGradient>
<linearGradient id="paint4_linear_197_348" x1="391" y1="63" x2="231" y2="301.5" gradientUnits="userSpaceOnUse">
<stop stop-color="#0F16E7"/>
<stop offset="1" stop-color="#000485"/>
</linearGradient>
<linearGradient id="paint5_linear_197_348" x1="391" y1="63" x2="231" y2="301.5" gradientUnits="userSpaceOnUse">
<stop stop-color="#0F16E7"/>
<stop offset="1" stop-color="#000485"/>
</linearGradient>
<linearGradient id="paint6_linear_197_348" x1="391" y1="63" x2="231" y2="301.5" gradientUnits="userSpaceOnUse">
<stop stop-color="#0F16E7"/>
<stop offset="1" stop-color="#000485"/>
</linearGradient>
<linearGradient id="paint7_linear_197_348" x1="391" y1="63" x2="231" y2="301.5" gradientUnits="userSpaceOnUse">
<stop stop-color="#0F16E7"/>
<stop offset="1" stop-color="#000485"/>
</linearGradient>
<linearGradient id="paint8_linear_197_348" x1="391" y1="63" x2="231" y2="301.5" gradientUnits="userSpaceOnUse">
<stop stop-color="#0F16E7"/>
<stop offset="1" stop-color="#000485"/>
</linearGradient>
<linearGradient id="paint9_linear_197_348" x1="425.5" y1="50.5" x2="202" y2="270.5" gradientUnits="userSpaceOnUse">
<stop stop-color="#FBFBFB"/>
<stop offset="1" stop-color="#E8EEFF"/>
</linearGradient>
<linearGradient id="paint10_linear_197_348" x1="425.5" y1="50.5" x2="202" y2="270.5" gradientUnits="userSpaceOnUse">
<stop stop-color="#FBFBFB"/>
<stop offset="1" stop-color="#E8EEFF"/>
</linearGradient>
<linearGradient id="paint11_linear_197_348" x1="425.5" y1="50.5" x2="202" y2="270.5" gradientUnits="userSpaceOnUse">
<stop stop-color="#FBFBFB"/>
<stop offset="1" stop-color="#E8EEFF"/>
</linearGradient>
</defs>
</svg>
