<svg width="1296" height="508" viewBox="0 0 1296 508" fill="none" xmlns="http://www.w3.org/2000/svg">
<g filter="url(#filter0_dd_322_57)">
<g clip-path="url(#clip0_322_57)">
<rect width="1296" height="502" rx="48" fill="#F8F8FF"/>
<path d="M86.52 322H77.34V273.4H111.72V281.32H86.52V293.56H109.86V301.48H86.52V322ZM117.122 322V294.94H112.682V286H121.802V292.96H124.322C125.322 290.56 126.862 288.74 128.942 287.5C131.022 286.26 133.402 285.64 136.082 285.64H139.082V293.32H135.662C132.382 293.32 129.942 294.26 128.342 296.14C126.742 298.02 125.942 300.52 125.942 303.64V322H117.122ZM156.959 322.72C153.119 322.72 149.759 321.96 146.879 320.44C144.039 318.88 141.839 316.7 140.279 313.9C138.759 311.06 137.999 307.72 137.999 303.88C137.999 300.04 138.759 296.74 140.279 293.98C141.799 291.18 143.959 289.04 146.759 287.56C149.559 286.04 152.839 285.28 156.599 285.28C160.279 285.28 163.439 286 166.079 287.44C168.719 288.84 170.759 290.88 172.199 293.56C173.639 296.2 174.359 299.34 174.359 302.98V306.1H146.579C146.939 309.14 147.999 311.48 149.759 313.12C151.559 314.72 153.939 315.52 156.899 315.52C159.099 315.52 160.879 315.12 162.239 314.32C163.639 313.48 164.619 312.24 165.179 310.6H174.179C173.339 314.4 171.399 317.38 168.359 319.54C165.359 321.66 161.559 322.72 156.959 322.72ZM146.819 300.04H165.779C165.459 297.56 164.499 295.68 162.899 294.4C161.339 293.08 159.239 292.42 156.599 292.42C153.999 292.42 151.859 293.08 150.179 294.4C148.499 295.72 147.379 297.6 146.819 300.04ZM204.1 336.4V316.78H203.86C202.82 318.66 201.32 320.12 199.36 321.16C197.4 322.2 195.06 322.72 192.34 322.72C188.9 322.72 185.94 321.96 183.46 320.44C181.02 318.88 179.14 316.7 177.82 313.9C176.54 311.1 175.9 307.8 175.9 304C175.9 300.2 176.56 296.9 177.88 294.1C179.24 291.3 181.2 289.14 183.76 287.62C186.32 286.06 189.44 285.28 193.12 285.28C196.08 285.28 198.62 285.84 200.74 286.96C202.86 288.08 204.56 289.68 205.84 291.76H208.36V286H217.48V294.94H213.04V336.4H204.1ZM194.68 314.98C197.56 314.98 199.84 314.18 201.52 312.58C203.24 310.94 204.1 308.74 204.1 305.98V302.02C204.1 299.26 203.24 297.08 201.52 295.48C199.84 293.84 197.56 293.02 194.68 293.02C191.48 293.02 189.04 294 187.36 295.96C185.68 297.88 184.84 300.56 184.84 304C184.84 307.44 185.68 310.14 187.36 312.1C189.04 314.02 191.48 314.98 194.68 314.98ZM235.964 322.66C231.044 322.66 227.244 321.36 224.564 318.76C221.924 316.12 220.604 312.56 220.604 308.08V286H229.544V306.28C229.544 309.08 230.264 311.2 231.704 312.64C233.144 314.04 235.284 314.74 238.124 314.74C241.124 314.74 243.424 313.98 245.024 312.46C246.624 310.94 247.424 308.8 247.424 306.04V286H256.364V313.06H260.864V322H251.684V316.24H249.164C247.764 318.32 246.004 319.92 243.884 321.04C241.804 322.12 239.164 322.66 235.964 322.66ZM281.21 322.72C277.37 322.72 274.01 321.96 271.13 320.44C268.29 318.88 266.09 316.7 264.53 313.9C263.01 311.06 262.25 307.72 262.25 303.88C262.25 300.04 263.01 296.74 264.53 293.98C266.05 291.18 268.21 289.04 271.01 287.56C273.81 286.04 277.09 285.28 280.85 285.28C284.53 285.28 287.69 286 290.33 287.44C292.97 288.84 295.01 290.88 296.45 293.56C297.89 296.2 298.61 299.34 298.61 302.98V306.1H270.83C271.19 309.14 272.25 311.48 274.01 313.12C275.81 314.72 278.19 315.52 281.15 315.52C283.35 315.52 285.13 315.12 286.49 314.32C287.89 313.48 288.87 312.24 289.43 310.6H298.43C297.59 314.4 295.65 317.38 292.61 319.54C289.61 321.66 285.81 322.72 281.21 322.72ZM271.07 300.04H290.03C289.71 297.56 288.75 295.68 287.15 294.4C285.59 293.08 283.49 292.42 280.85 292.42C278.25 292.42 276.11 293.08 274.43 294.4C272.75 295.72 271.63 297.6 271.07 300.04ZM304.411 322V294.94H299.971V286H309.151V291.76H311.671C313.031 289.72 314.771 288.14 316.891 287.02C319.011 285.9 321.611 285.34 324.691 285.34C329.611 285.34 333.411 286.7 336.091 289.42C338.811 292.14 340.171 295.76 340.171 300.28V322H331.231V301.96C331.231 299.12 330.471 296.96 328.951 295.48C327.471 294 325.251 293.26 322.291 293.26C319.411 293.26 317.191 294 315.631 295.48C314.111 296.96 313.351 299.12 313.351 301.96V322H304.411ZM356.197 322C353.837 322 351.997 321.4 350.677 320.2C349.397 319 348.757 317.18 348.757 314.74V292.96H342.397V286H348.817V275.2H357.577V286H366.277V292.96H357.697V314.98H367.117V322H356.197ZM370.147 322V271.6H379.087V322H370.147ZM385.487 336.4V329.26H393.647L396.707 321.82L380.987 286H390.407L401.207 311.5H401.507L411.947 286H421.007L405.587 322L402.467 329.44C401.507 331.64 400.447 333.34 399.287 334.54C398.167 335.78 396.367 336.4 393.887 336.4H385.487ZM433.235 322L453.875 273.4H463.415L483.935 322H474.575L469.235 309.28H447.695L442.295 322H433.235ZM450.575 301.6H466.655L458.795 282.76H458.495L450.575 301.6ZM500.833 322.72C495.633 322.72 491.533 321.64 488.533 319.48C485.533 317.28 483.913 314.22 483.673 310.3H492.373C492.653 312.18 493.513 313.58 494.953 314.5C496.393 315.38 498.473 315.82 501.193 315.82C505.793 315.82 508.093 314.5 508.093 311.86C508.093 310.74 507.733 309.88 507.013 309.28C506.333 308.68 505.173 308.22 503.533 307.9L495.553 306.4C488.553 305.04 485.053 301.72 485.053 296.44C485.053 293.04 486.393 290.34 489.073 288.34C491.753 286.3 495.433 285.28 500.113 285.28C504.873 285.28 508.633 286.32 511.393 288.4C514.193 290.44 515.753 293.34 516.073 297.1H507.433C506.993 295.3 506.153 294 504.913 293.2C503.713 292.36 501.973 291.94 499.693 291.94C497.653 291.94 496.093 292.26 495.013 292.9C493.933 293.54 493.393 294.48 493.393 295.72C493.393 296.64 493.733 297.38 494.413 297.94C495.093 298.5 496.173 298.92 497.653 299.2L505.753 300.76C509.433 301.48 512.133 302.68 513.853 304.36C515.573 306.04 516.433 308.3 516.433 311.14C516.433 314.78 515.093 317.62 512.413 319.66C509.733 321.7 505.873 322.72 500.833 322.72ZM519.557 322V271.6H528.497V299.92H528.737L543.917 286H554.597L538.937 300.16L555.857 322H545.297L532.697 305.62L528.497 309.04V322H519.557ZM573.032 322.72C569.192 322.72 565.832 321.96 562.952 320.44C560.112 318.88 557.912 316.7 556.352 313.9C554.832 311.06 554.072 307.72 554.072 303.88C554.072 300.04 554.832 296.74 556.352 293.98C557.872 291.18 560.032 289.04 562.832 287.56C565.632 286.04 568.912 285.28 572.672 285.28C576.352 285.28 579.512 286 582.152 287.44C584.792 288.84 586.832 290.88 588.272 293.56C589.712 296.2 590.432 299.34 590.432 302.98V306.1H562.652C563.012 309.14 564.072 311.48 565.832 313.12C567.632 314.72 570.012 315.52 572.972 315.52C575.172 315.52 576.952 315.12 578.312 314.32C579.712 313.48 580.692 312.24 581.252 310.6H590.252C589.412 314.4 587.472 317.38 584.432 319.54C581.432 321.66 577.632 322.72 573.032 322.72ZM562.892 300.04H581.852C581.532 297.56 580.572 295.68 578.972 294.4C577.412 293.08 575.312 292.42 572.672 292.42C570.072 292.42 567.932 293.08 566.252 294.4C564.572 295.72 563.452 297.6 562.892 300.04ZM609.193 322.72C605.513 322.72 602.393 321.96 599.833 320.44C597.273 318.88 595.313 316.7 593.953 313.9C592.633 311.06 591.973 307.76 591.973 304C591.973 300.2 592.613 296.9 593.893 294.1C595.213 291.3 597.093 289.14 599.533 287.62C602.013 286.06 604.973 285.28 608.413 285.28C611.133 285.28 613.473 285.8 615.433 286.84C617.393 287.84 618.893 289.3 619.933 291.22H620.173V271.6H629.113V313.06H633.553V322H624.433V316.24H621.913C620.633 318.32 618.933 319.92 616.813 321.04C614.693 322.16 612.153 322.72 609.193 322.72ZM610.753 314.98C613.633 314.98 615.913 314.18 617.593 312.58C619.313 310.94 620.173 308.74 620.173 305.98V302.02C620.173 299.26 619.313 297.08 617.593 295.48C615.913 293.84 613.633 293.02 610.753 293.02C607.553 293.02 605.113 294 603.433 295.96C601.753 297.88 600.913 300.56 600.913 304C600.913 307.44 601.753 310.14 603.433 312.1C605.113 314.02 607.553 314.98 610.753 314.98ZM102.84 423.88C100.44 423.88 98.58 423.26 97.26 422.02C95.94 420.82 95.28 418.98 95.28 416.5V412.3C91.08 411.66 87.46 410.26 84.42 408.1C81.38 405.9 79.04 403.08 77.4 399.64C75.76 396.16 74.94 392.18 74.94 387.7C74.94 382.58 75.96 378.16 78 374.44C80.04 370.68 82.9 367.78 86.58 365.74C90.3 363.7 94.64 362.68 99.6 362.68C104.6 362.68 108.94 363.7 112.62 365.74C116.34 367.78 119.2 370.68 121.2 374.44C123.24 378.16 124.26 382.58 124.26 387.7C124.26 392.18 123.44 396.16 121.8 399.64C120.2 403.12 117.88 405.94 114.84 408.1C111.8 410.26 108.18 411.66 103.98 412.3V416.44H117.36V423.88H102.84ZM99.6 404.8C104.48 404.8 108.28 403.26 111 400.18C113.72 397.1 115.08 392.94 115.08 387.7C115.08 382.42 113.72 378.26 111 375.22C108.32 372.14 104.52 370.6 99.6 370.6C94.72 370.6 90.92 372.14 88.2 375.22C85.48 378.26 84.12 382.42 84.12 387.7C84.12 392.94 85.48 397.1 88.2 400.18C90.92 403.26 94.72 404.8 99.6 404.8ZM143.635 412.66C138.715 412.66 134.915 411.36 132.235 408.76C129.595 406.12 128.275 402.56 128.275 398.08V376H137.215V396.28C137.215 399.08 137.935 401.2 139.375 402.64C140.815 404.04 142.955 404.74 145.795 404.74C148.795 404.74 151.095 403.98 152.695 402.46C154.295 400.94 155.095 398.8 155.095 396.04V376H164.035V403.06H168.535V412H159.355V406.24H156.835C155.435 408.32 153.675 409.92 151.555 411.04C149.475 412.12 146.835 412.66 143.635 412.66ZM188.881 412.72C185.041 412.72 181.681 411.96 178.801 410.44C175.961 408.88 173.761 406.7 172.201 403.9C170.681 401.06 169.921 397.72 169.921 393.88C169.921 390.04 170.681 386.74 172.201 383.98C173.721 381.18 175.881 379.04 178.681 377.56C181.481 376.04 184.761 375.28 188.521 375.28C192.201 375.28 195.361 376 198.001 377.44C200.641 378.84 202.681 380.88 204.121 383.56C205.561 386.2 206.281 389.34 206.281 392.98V396.1H178.501C178.861 399.14 179.921 401.48 181.681 403.12C183.481 404.72 185.861 405.52 188.821 405.52C191.021 405.52 192.801 405.12 194.161 404.32C195.561 403.48 196.541 402.24 197.101 400.6H206.101C205.261 404.4 203.321 407.38 200.281 409.54C197.281 411.66 193.481 412.72 188.881 412.72ZM178.741 390.04H197.701C197.381 387.56 196.421 385.68 194.821 384.4C193.261 383.08 191.161 382.42 188.521 382.42C185.921 382.42 183.781 383.08 182.101 384.4C180.421 385.72 179.301 387.6 178.741 390.04ZM225.042 412.72C219.842 412.72 215.742 411.64 212.742 409.48C209.742 407.28 208.122 404.22 207.882 400.3H216.582C216.862 402.18 217.722 403.58 219.162 404.5C220.602 405.38 222.682 405.82 225.402 405.82C230.002 405.82 232.302 404.5 232.302 401.86C232.302 400.74 231.942 399.88 231.222 399.28C230.542 398.68 229.382 398.22 227.742 397.9L219.762 396.4C212.762 395.04 209.262 391.72 209.262 386.44C209.262 383.04 210.602 380.34 213.282 378.34C215.962 376.3 219.642 375.28 224.322 375.28C229.082 375.28 232.842 376.32 235.602 378.4C238.402 380.44 239.962 383.34 240.282 387.1H231.642C231.202 385.3 230.362 384 229.122 383.2C227.922 382.36 226.182 381.94 223.902 381.94C221.862 381.94 220.302 382.26 219.222 382.9C218.142 383.54 217.602 384.48 217.602 385.72C217.602 386.64 217.942 387.38 218.622 387.94C219.302 388.5 220.382 388.92 221.862 389.2L229.962 390.76C233.642 391.48 236.342 392.68 238.062 394.36C239.782 396.04 240.642 398.3 240.642 401.14C240.642 404.78 239.302 407.62 236.622 409.66C233.942 411.7 230.082 412.72 225.042 412.72ZM254.446 412C252.086 412 250.246 411.4 248.926 410.2C247.646 409 247.006 407.18 247.006 404.74V382.96H240.646V376H247.066V365.2H255.826V376H264.526V382.96H255.946V404.98H265.366V412H254.446ZM268.397 412V376H277.337V412H268.397ZM272.837 372.04C271.437 372.04 270.237 371.56 269.237 370.6C268.277 369.6 267.797 368.4 267.797 367C267.797 365.6 268.277 364.42 269.237 363.46C270.237 362.46 271.437 361.96 272.837 361.96C274.237 361.96 275.417 362.46 276.377 363.46C277.377 364.42 277.877 365.6 277.877 367C277.877 368.4 277.377 369.6 276.377 370.6C275.417 371.56 274.237 372.04 272.837 372.04ZM300.236 412.72C296.356 412.72 292.976 411.96 290.096 410.44C287.256 408.88 285.036 406.7 283.436 403.9C281.876 401.1 281.096 397.8 281.096 394C281.096 390.16 281.876 386.84 283.436 384.04C285.036 381.24 287.276 379.08 290.156 377.56C293.036 376.04 296.396 375.28 300.236 375.28C304.156 375.28 307.516 376.04 310.316 377.56C313.156 379.08 315.356 381.24 316.916 384.04C318.476 386.84 319.256 390.16 319.256 394C319.256 397.8 318.476 401.12 316.916 403.96C315.356 406.76 313.156 408.92 310.316 410.44C307.476 411.96 304.116 412.72 300.236 412.72ZM300.236 404.92C303.436 404.92 305.916 403.96 307.676 402.04C309.436 400.08 310.316 397.4 310.316 394C310.316 390.56 309.436 387.88 307.676 385.96C305.916 384.04 303.436 383.08 300.236 383.08C296.996 383.08 294.476 384.04 292.676 385.96C290.916 387.88 290.036 390.54 290.036 393.94C290.036 397.38 290.916 400.08 292.676 402.04C294.476 403.96 296.996 404.92 300.236 404.92ZM325.086 412V384.94H320.646V376H329.826V381.76H332.346C333.706 379.72 335.446 378.14 337.566 377.02C339.686 375.9 342.286 375.34 345.366 375.34C350.286 375.34 354.086 376.7 356.766 379.42C359.486 382.14 360.846 385.76 360.846 390.28V412H351.906V391.96C351.906 389.12 351.146 386.96 349.626 385.48C348.146 384 345.926 383.26 342.966 383.26C340.086 383.26 337.866 384 336.306 385.48C334.786 386.96 334.026 389.12 334.026 391.96V412H325.086ZM381.431 412.72C376.231 412.72 372.131 411.64 369.131 409.48C366.131 407.28 364.511 404.22 364.271 400.3H372.971C373.251 402.18 374.111 403.58 375.551 404.5C376.991 405.38 379.071 405.82 381.791 405.82C386.391 405.82 388.691 404.5 388.691 401.86C388.691 400.74 388.331 399.88 387.611 399.28C386.931 398.68 385.771 398.22 384.131 397.9L376.151 396.4C369.151 395.04 365.651 391.72 365.651 386.44C365.651 383.04 366.991 380.34 369.671 378.34C372.351 376.3 376.031 375.28 380.711 375.28C385.471 375.28 389.231 376.32 391.991 378.4C394.791 380.44 396.351 383.34 396.671 387.1H388.031C387.591 385.3 386.751 384 385.511 383.2C384.311 382.36 382.571 381.94 380.291 381.94C378.251 381.94 376.691 382.26 375.611 382.9C374.531 383.54 373.991 384.48 373.991 385.72C373.991 386.64 374.331 387.38 375.011 387.94C375.691 388.5 376.771 388.92 378.251 389.2L386.351 390.76C390.031 391.48 392.731 392.68 394.451 394.36C396.171 396.04 397.031 398.3 397.031 401.14C397.031 404.78 395.691 407.62 393.011 409.66C390.331 411.7 386.471 412.72 381.431 412.72Z" fill="#23262F"/>
<path d="M994.11 417.237V470.751L947.666 443.998V390.484L994.11 417.237Z" fill="#666BFF"/>
<path d="M901.221 122.928V203.196L854.776 176.443V96.175L901.221 122.928Z" fill="#666BFF"/>
<path d="M994.11 256.702V363.731L947.666 336.969V229.949L994.11 256.702Z" fill="#666BFF"/>
<path d="M1063.78 136.309V216.576L1017.33 189.815V163.062L970.888 136.309V82.7942L1063.78 136.309Z" fill="#666BFF"/>
<path d="M1040.55 390.484L994.11 417.237L947.666 390.484L994.11 363.731L1040.55 390.484Z" fill="#3D43FF"/>
<path d="M1063.78 216.576L994.11 256.702L947.666 229.949L1017.34 189.815L1063.78 216.576Z" fill="#3D43FF"/>
<path d="M1110.22 109.547L1063.78 136.309L970.891 82.7942L901.221 122.928L854.776 96.175L970.891 29.2797L1110.22 109.547Z" fill="#3D43FF"/>
<path d="M970.891 82.7942V136.309L947.665 149.681V176.443L901.221 203.196V122.928L970.891 82.7942Z" fill="#1D24FF"/>
<path d="M1040.55 390.484V443.998L994.104 470.751V417.237L1040.55 390.484Z" fill="#1D24FF"/>
<path d="M1110.22 109.547V243.329L1040.55 283.463V336.969L994.104 363.731V256.702L1063.77 216.576V136.309L1110.22 109.547Z" fill="#1D24FF"/>
<g opacity="0.7">
<path d="M1086.99 310.216V390.484L1040.55 363.731V283.463L1086.99 310.216Z" fill="#666BFF"/>
<path d="M1179.88 443.99V551.019L1133.44 524.257V417.237L1179.88 443.99Z" fill="#666BFF"/>
<path d="M1249.55 323.597V403.865L1203.11 377.103V350.35L1156.67 323.597V270.082L1249.55 323.597Z" fill="#666BFF"/>
<path d="M1249.55 403.865L1179.88 443.99L1133.44 417.237L1203.11 377.103L1249.55 403.865Z" fill="#3D43FF"/>
<path d="M1296 296.835L1249.55 323.597L1156.66 270.082L1086.99 310.216L1040.55 283.463L1156.66 216.568L1296 296.835Z" fill="#3D43FF"/>
<path d="M1156.66 270.082V323.597L1133.44 336.969V363.731L1086.99 390.484V310.216L1156.66 270.082Z" fill="#1D24FF"/>
<path d="M1296 296.835V430.618L1226.33 470.751V524.257L1179.88 551.019V443.99L1249.55 403.865V323.597L1296 296.835Z" fill="#1D24FF"/>
</g>
<g opacity="0.7">
<path d="M808.334 229.957V283.472L761.89 256.719V203.204L808.334 229.957Z" fill="#666BFF"/>
<path d="M715.444 -64.3517V15.9159L669 -10.8371V-91.1047L715.444 -64.3517Z" fill="#666BFF"/>
<path d="M808.334 69.4219V176.451L761.89 149.689V42.6689L808.334 69.4219Z" fill="#666BFF"/>
<path d="M878 -50.9709V29.2967L831.556 2.53518V-24.2178L785.111 -50.9709V-104.485L878 -50.9709Z" fill="#666BFF"/>
<path d="M854.778 203.204L808.334 229.957L761.89 203.204L808.334 176.451L854.778 203.204Z" fill="#3D43FF"/>
<path d="M878.004 29.2967L808.334 69.4219L761.89 42.6689L831.56 2.53513L878.004 29.2967Z" fill="#3D43FF"/>
<path d="M785.115 -104.485V-50.9709L761.889 -37.5986V-10.8371L715.444 15.9159V-64.3516L785.115 -104.485Z" fill="#1D24FF"/>
<path d="M854.778 203.204V256.719L808.334 283.472V229.957L854.778 203.204Z" fill="#1D24FF"/>
<path d="M924.449 -77.7324V56.0497L854.778 96.1835V149.689L808.334 176.451V69.4219L878.005 29.2967V-50.9709L924.449 -77.7324Z" fill="#1D24FF"/>
</g>
</g>
</g>
<defs>
<filter id="filter0_dd_322_57" x="0" y="0" width="1296" height="508" filterUnits="userSpaceOnUse" color-interpolation-filters="sRGB">
<feFlood flood-opacity="0" result="BackgroundImageFix"/>
<feColorMatrix in="SourceAlpha" type="matrix" values="0 0 0 0 0 0 0 0 0 0 0 0 0 0 0 0 0 0 127 0" result="hardAlpha"/>
<feMorphology radius="4" operator="erode" in="SourceAlpha" result="effect1_dropShadow_322_57"/>
<feOffset dy="6"/>
<feGaussianBlur stdDeviation="2"/>
<feComposite in2="hardAlpha" operator="out"/>
<feColorMatrix type="matrix" values="0 0 0 0 0.0313726 0 0 0 0 0.0313726 0 0 0 0 0.0313726 0 0 0 0.05 0"/>
<feBlend mode="normal" in2="BackgroundImageFix" result="effect1_dropShadow_322_57"/>
<feColorMatrix in="SourceAlpha" type="matrix" values="0 0 0 0 0 0 0 0 0 0 0 0 0 0 0 0 0 0 127 0" result="hardAlpha"/>
<feMorphology radius="4" operator="erode" in="SourceAlpha" result="effect2_dropShadow_322_57"/>
<feOffset dy="5"/>
<feGaussianBlur stdDeviation="0.75"/>
<feComposite in2="hardAlpha" operator="out"/>
<feColorMatrix type="matrix" values="0 0 0 0 0.0313726 0 0 0 0 0.0313726 0 0 0 0 0.0313726 0 0 0 0.09 0"/>
<feBlend mode="normal" in2="effect1_dropShadow_322_57" result="effect2_dropShadow_322_57"/>
<feBlend mode="normal" in="SourceGraphic" in2="effect2_dropShadow_322_57" result="shape"/>
</filter>
<clipPath id="clip0_322_57">
<rect width="1296" height="502" rx="48" fill="white"/>
</clipPath>
</defs>
</svg>
