<svg width="256" height="350" viewBox="0 0 256 350" fill="none" xmlns="http://www.w3.org/2000/svg">
<path d="M151.944 0L86.8633 37.4895L108.558 49.9889L151.944 24.9944L195.33 49.9889L217.021 37.4895L151.944 0Z" fill="#3D43FF"/>
<path d="M217.019 37.4893V62.4837L195.328 74.9831V49.9886L217.019 37.4893Z" fill="#1D24FF"/>
<path d="M195.328 74.9832L151.938 49.9888V24.9944L195.328 49.9888" fill="#666BFF"/>
<path d="M151.94 49.9886L108.559 74.983V49.9886L151.94 24.9941V49.9886Z" fill="#1D24FF"/>
<path d="M108.558 74.9831L86.8633 62.4837V37.4893L108.558 49.9886V74.9831Z" fill="#666BFF"/>
<path d="M151.941 99.9775L130.246 112.473L151.937 124.972L173.632 112.473L151.941 99.9775Z" fill="#3D43FF"/>
<path d="M151.938 124.972V174.961L173.637 162.466V112.473L151.938 124.972Z" fill="#1D24FF"/>
<path d="M151.937 124.972L130.246 112.473L130.25 162.466L151.937 174.961V124.972Z" fill="#666BFF"/>
<path d="M173.637 162.466L217.018 187.456L195.323 199.955L151.938 174.961L173.637 162.466Z" fill="#3D43FF"/>
<path d="M151.94 174.961L108.558 199.951L86.8633 187.456L130.253 162.466L151.94 174.961Z" fill="#3D43FF"/>
<path d="M151.94 174.961V199.955L108.559 224.95V199.951L151.94 174.961Z" fill="#1D24FF"/>
<path d="M151.938 174.961L195.323 199.955L195.328 224.95L151.938 199.955V174.961Z" fill="#666BFF"/>
<path d="M217.019 187.456V212.45L195.329 224.95L195.324 199.955L217.019 187.456Z" fill="#1D24FF"/>
<path d="M173.637 162.466L217.018 137.467V162.462L195.323 174.965L173.637 162.466Z" fill="#1D24FF"/>
<path d="M217.018 137.467L195.327 124.972L173.637 137.472V162.466L217.018 137.467Z" fill="#3D43FF"/>
<path d="M130.253 162.466L86.8633 137.467L108.558 124.972L130.249 137.472L130.253 162.466Z" fill="#3D43FF"/>
<path d="M86.8633 137.467V162.462L108.567 174.957L130.253 162.466L86.8633 137.467Z" fill="#666BFF"/>
<path d="M86.8633 187.456V212.45L108.558 224.95V199.951L86.8633 187.456Z" fill="#666BFF"/>
<path d="M151.938 199.955V249.944L173.633 237.445V212.455L151.938 199.955Z" fill="#1D24FF"/>
<path d="M151.937 249.944L130.246 237.445L130.25 212.446L151.937 199.955V249.944Z" fill="#666BFF"/>
<path d="M151.937 249.944L130.246 262.439L151.937 274.939L173.632 262.439L151.937 249.944Z" fill="#3D43FF"/>
<path d="M151.938 274.939L151.942 349.922L217.018 312.428V287.434L173.633 312.432V262.439L151.938 274.939Z" fill="#1D24FF"/>
<path d="M151.94 274.939L151.944 349.922L86.8633 312.428V287.434L130.253 312.432L130.249 262.439L151.94 274.939Z" fill="#666BFF"/>
<path d="M217.019 287.434L195.328 274.939L173.629 287.438V312.432L217.019 287.434Z" fill="#3D43FF"/>
<path d="M130.253 287.438L108.558 274.939L86.8633 287.434L130.253 312.432V287.438Z" fill="#3D43FF"/>
<path d="M86.8592 287.434V262.439L65.1684 274.939L65.1641 299.933L86.8592 287.434Z" fill="#1D24FF"/>
<path d="M86.8618 262.439L43.4759 237.449L21.7852 249.944L65.171 274.939L86.8618 262.439Z" fill="#3D43FF"/>
<path d="M43.4764 237.449V187.456L21.7812 199.955L21.7856 249.944L43.4764 237.449Z" fill="#1D24FF"/>
<path d="M43.4757 187.456L21.7806 174.961L0.0898438 187.456L21.7806 199.955L43.4757 187.456Z" fill="#3D43FF"/>
<path d="M0.0898438 187.456V262.439L65.1665 299.933L65.1708 274.939L21.7849 249.944L21.7806 199.955L0.0898438 187.456Z" fill="#666BFF"/>
<path d="M43.4727 237.449L86.8585 212.45V237.445L65.1591 249.94L43.4727 237.449Z" fill="#1D24FF"/>
<path d="M86.859 212.45L65.1639 199.955L43.4688 212.455L43.4731 237.449L86.859 212.45Z" fill="#3D43FF"/>
<path d="M86.8616 112.473L43.4757 87.4826L86.8616 62.4838L65.1665 49.9888L0.0898438 87.4782L65.1665 124.968L86.8616 112.473Z" fill="#3D43FF"/>
<path d="M0.0898438 87.4783V162.462L21.7806 174.961L21.7849 124.972L65.1665 149.966V124.968L0.0898438 87.4783Z" fill="#666BFF"/>
<path d="M86.8592 112.473V137.467L65.1641 149.966V124.968L86.8592 112.473Z" fill="#1D24FF"/>
<path d="M21.7812 174.961L43.4764 162.462L43.472 137.472L21.7856 124.972L21.7812 174.961Z" fill="#1D24FF"/>
<path d="M86.8585 62.4839V87.4783L65.1548 99.9734L43.4727 87.4826L86.8585 62.4839Z" fill="#1D24FF"/>
<path d="M151.938 49.9888L151.942 99.9776L173.633 87.4782L173.628 62.4838L151.938 49.9888Z" fill="#1D24FF"/>
<path d="M151.941 99.9776L130.246 87.4782V62.4838L151.937 49.9888L151.941 99.9776Z" fill="#666BFF"/>
<path d="M217.02 62.4838L238.715 49.9888L303.796 87.4782L238.715 124.972L217.02 112.473L260.41 87.4782L217.02 62.4838Z" fill="#3D43FF"/>
<path d="M303.796 87.4785V162.462L282.101 174.961V124.972L238.715 149.967V124.972L303.796 87.4785Z" fill="#1D24FF"/>
<path d="M238.715 149.966L217.02 137.467V112.473L238.715 124.972V149.966Z" fill="#666BFF"/>
<path d="M217.02 62.4839V87.4783L238.719 99.9777L260.41 87.4783L217.02 62.4839Z" fill="#666BFF"/>
<path d="M282.101 199.955V249.944L238.711 274.939L238.715 299.933L303.796 262.439V187.456L282.101 199.955Z" fill="#1D24FF"/>
<path d="M260.405 237.449L217.02 262.439L238.71 274.939L282.101 249.944L260.405 237.449Z" fill="#3D43FF"/>
<path d="M260.405 237.449L217.02 212.45L238.715 199.955L260.405 212.359V237.449Z" fill="#3D43FF"/>
<path d="M217.02 212.45V237.445L238.719 249.94L260.405 237.449L217.02 212.45Z" fill="#666BFF"/>
<path d="M217.02 262.439V287.434L238.715 299.933L238.71 274.939L217.02 262.439Z" fill="#666BFF"/>
<path d="M173.714 112.542L173.605 112.356L151.958 124.825L130.319 112.356L130.211 112.542L151.85 125.011V149.945H152.066V125.011L173.714 112.542Z" fill="url(#paint0_radial_69_3467)"/>
<path d="M173.605 262.322L151.958 274.791L130.319 262.322L130.211 262.509L151.85 274.978V299.911H152.066V274.978L173.714 262.509L173.605 262.322Z" fill="url(#paint1_radial_69_3467)"/>
<path d="M130.218 37.3723L108.571 49.8413L86.9365 37.3723L86.8281 37.5587L108.463 50.0278V74.9615H108.679V50.0278L130.327 37.5587L130.218 37.3723Z" fill="url(#paint2_radial_69_3467)"/>
<path d="M216.976 37.3723L195.333 49.8413L173.694 37.3723L173.586 37.5587L195.225 50.0278V74.9615H195.441V50.0278L217.085 37.5587L216.976 37.3723Z" fill="url(#paint3_radial_69_3467)"/>
<path d="M86.8277 262.322L65.1803 274.791L43.5459 262.322L43.4375 262.509L65.0719 274.978V299.911H65.2887V274.978L86.9361 262.509L86.8277 262.322Z" fill="url(#paint4_radial_69_3467)"/>
<path d="M260.367 262.322L238.719 274.791L217.085 262.322L216.977 262.509L238.611 274.978V299.911H238.828V274.978L260.475 262.509L260.367 262.322Z" fill="url(#paint5_radial_69_3467)"/>
<path d="M43.4492 187.339L21.8018 199.808L0.167412 187.339L0.0546875 187.525L21.6934 199.994V224.928H21.9102V199.994L43.5576 187.525L43.4492 187.339Z" fill="url(#paint6_radial_69_3467)"/>
<path d="M130.327 187.525L130.218 187.339L108.571 199.808L86.9365 187.339L86.8281 187.525L108.463 199.994V224.928H108.679V199.994L130.327 187.525Z" fill="url(#paint7_radial_69_3467)"/>
<path d="M217.092 187.525L216.984 187.339L195.336 199.808L173.702 187.339L173.594 187.525L195.228 199.994V224.928H195.445V199.994L217.092 187.525Z" fill="url(#paint8_radial_69_3467)"/>
<path d="M260.367 112.356L238.724 124.825L217.085 112.356L216.977 112.542L238.615 125.011V149.945H238.832V125.011L260.475 112.542L260.367 112.356Z" fill="url(#paint9_radial_69_3467)"/>
<path d="M86.8273 112.356L65.1842 124.82L43.5498 112.356L43.4414 112.546L65.0758 125.007V149.945H65.2926V125.007L86.9357 112.542L86.8273 112.356Z" fill="url(#paint10_radial_69_3467)"/>
<path d="M21.8599 75.0482L21.7515 74.8618L0.0520266 87.3612C0.0173422 87.3785 0 87.4176 0 87.4566V112.455H0.216778V87.6473L21.7515 100.051L21.8599 99.8649L0.325166 87.4566L21.8599 75.0526V75.0482Z" fill="url(#paint11_linear_69_3467)"/>
<path d="M108.629 125.041L108.521 124.855L86.8255 137.35C86.7908 137.367 86.7734 137.406 86.7734 137.445V162.44H86.9902V137.632L108.521 150.036L108.629 149.849L87.0986 137.445L108.629 125.041Z" fill="url(#paint12_linear_69_3467)"/>
<path d="M238.777 50.0583L238.669 49.8718L216.974 62.3669C216.939 62.3842 216.922 62.4232 216.922 62.4623V87.4567H217.139V62.6487L238.669 75.0527L238.777 74.8663L217.247 62.4623L238.777 50.0583Z" fill="url(#paint13_linear_69_3467)"/>
<path d="M238.785 200.025L238.677 199.838L216.982 212.333C216.947 212.351 216.93 212.39 216.93 212.429V237.423H217.146V212.615L238.677 225.019L238.785 224.833L217.255 212.429L238.785 200.025Z" fill="url(#paint14_linear_69_3467)"/>
<path d="M108.629 275.012L108.521 274.826L86.8255 287.321C86.7908 287.338 86.7734 287.377 86.7734 287.416V312.411H86.9902V287.603L108.521 300.007L108.629 299.82L87.0986 287.416L108.629 275.012Z" fill="url(#paint15_linear_69_3467)"/>
<path d="M217.085 137.35L195.39 124.855L195.281 125.041L216.812 137.445L195.281 149.849L195.39 150.036L216.92 137.632V162.44H217.137V137.445C217.137 137.406 217.115 137.372 217.085 137.35Z" fill="url(#paint16_linear_69_3467)"/>
<path d="M86.9324 62.3669L65.2373 49.8718L65.1289 50.0583L86.6593 62.4623L65.1289 74.8663L65.2373 75.0527L86.7676 62.6487V87.4567H86.9844V62.4623C86.9844 62.4232 86.9627 62.3886 86.9324 62.3669Z" fill="url(#paint17_linear_69_3467)"/>
<path d="M217.085 287.321L195.39 274.826L195.281 275.012L216.812 287.416L195.281 299.82L195.39 300.007L216.92 287.603V312.411H217.137V287.416C217.137 287.377 217.115 287.343 217.085 287.321Z" fill="url(#paint18_linear_69_3467)"/>
<path d="M86.9324 212.333L65.2373 199.838L65.1289 200.025L86.6593 212.429L65.1289 224.833L65.2373 225.019L86.7676 212.615V237.423H86.9844V212.429C86.9844 212.39 86.9627 212.355 86.9324 212.333Z" fill="url(#paint19_linear_69_3467)"/>
<path d="M173.601 237.328L152.07 249.732V224.924H151.854V249.732L130.323 237.328L130.215 237.514L151.91 250.009C151.91 250.009 151.945 250.022 151.962 250.022C151.979 250.022 152.001 250.018 152.014 250.009L173.709 237.514L173.601 237.328Z" fill="url(#paint20_linear_69_3467)"/>
<path d="M173.601 87.3613L152.07 99.7653V74.9573H151.854V99.7653L130.323 87.3613L130.215 87.5477L151.91 100.047C151.91 100.047 151.945 100.06 151.962 100.06C151.979 100.06 152.001 100.056 152.014 100.047L173.709 87.5477L173.601 87.3613Z" fill="url(#paint21_linear_69_3467)"/>
<path d="M173.601 337.305L152.07 349.709V324.901H151.854V349.709L130.323 337.305L130.215 337.492L151.91 349.987C151.91 349.987 151.945 350 151.962 350C151.979 350 152.001 349.996 152.014 349.987L173.709 337.492L173.601 337.305Z" fill="url(#paint22_linear_69_3467)"/>
<path d="M43.4406 162.349L21.9102 174.753V149.945H21.6934V174.753L0.163076 162.349L0.0546875 162.535L21.7498 175.03C21.7498 175.03 21.7845 175.043 21.8018 175.043C21.8192 175.043 21.8408 175.039 21.8538 175.03L43.5489 162.535L43.4406 162.349Z" fill="url(#paint23_linear_69_3467)"/>
<defs>
<radialGradient id="paint0_radial_69_3467" cx="0" cy="0" r="1" gradientUnits="userSpaceOnUse" gradientTransform="translate(151.962 131.15) rotate(90) scale(18.7946 21.7515)">
<stop stop-color="#EBECF0"/>
<stop offset="1" stop-color="#EBECF0" stop-opacity="0"/>
</radialGradient>
<radialGradient id="paint1_radial_69_3467" cx="0" cy="0" r="1" gradientUnits="userSpaceOnUse" gradientTransform="translate(151.962 281.117) rotate(90) scale(18.7946 21.7515)">
<stop stop-color="#EBECF0"/>
<stop offset="1" stop-color="#EBECF0" stop-opacity="0"/>
</radialGradient>
<radialGradient id="paint2_radial_69_3467" cx="0" cy="0" r="1" gradientUnits="userSpaceOnUse" gradientTransform="translate(108.577 56.1669) rotate(90) scale(18.7946 21.7493)">
<stop stop-color="#EBECF0"/>
<stop offset="1" stop-color="#EBECF0" stop-opacity="0"/>
</radialGradient>
<radialGradient id="paint3_radial_69_3467" cx="0" cy="0" r="1" gradientUnits="userSpaceOnUse" gradientTransform="translate(195.335 56.1669) rotate(90) scale(18.7946 21.7493)">
<stop stop-color="#EBECF0"/>
<stop offset="1" stop-color="#EBECF0" stop-opacity="0"/>
</radialGradient>
<radialGradient id="paint4_radial_69_3467" cx="0" cy="0" r="1" gradientUnits="userSpaceOnUse" gradientTransform="translate(65.1868 281.117) rotate(90) scale(18.7946 21.7493)">
<stop stop-color="#EBECF0"/>
<stop offset="1" stop-color="#EBECF0" stop-opacity="0"/>
</radialGradient>
<radialGradient id="paint5_radial_69_3467" cx="0" cy="0" r="1" gradientUnits="userSpaceOnUse" gradientTransform="translate(238.726 281.117) rotate(90) scale(18.7946 21.7493)">
<stop stop-color="#EBECF0"/>
<stop offset="1" stop-color="#EBECF0" stop-opacity="0"/>
</radialGradient>
<radialGradient id="paint6_radial_69_3467" cx="0" cy="0" r="1" gradientUnits="userSpaceOnUse" gradientTransform="translate(21.8062 206.133) rotate(90) scale(18.7946 21.7515)">
<stop stop-color="#EBECF0"/>
<stop offset="1" stop-color="#EBECF0" stop-opacity="0"/>
</radialGradient>
<radialGradient id="paint7_radial_69_3467" cx="0" cy="0" r="1" gradientUnits="userSpaceOnUse" gradientTransform="translate(108.577 206.133) rotate(90) scale(18.7946 21.7493)">
<stop stop-color="#EBECF0"/>
<stop offset="1" stop-color="#EBECF0" stop-opacity="0"/>
</radialGradient>
<radialGradient id="paint8_radial_69_3467" cx="0" cy="0" r="1" gradientUnits="userSpaceOnUse" gradientTransform="translate(195.343 206.133) rotate(90) scale(18.7946 21.7493)">
<stop stop-color="#EBECF0"/>
<stop offset="1" stop-color="#EBECF0" stop-opacity="0"/>
</radialGradient>
<radialGradient id="paint9_radial_69_3467" cx="0" cy="0" r="1" gradientUnits="userSpaceOnUse" gradientTransform="translate(238.726 131.15) rotate(90) scale(18.7946 21.7493)">
<stop stop-color="#EBECF0"/>
<stop offset="1" stop-color="#EBECF0" stop-opacity="0"/>
</radialGradient>
<radialGradient id="paint10_radial_69_3467" cx="0" cy="0" r="1" gradientUnits="userSpaceOnUse" gradientTransform="translate(65.1885 131.15) rotate(90) scale(18.7946 21.7471)">
<stop stop-color="#EBECF0"/>
<stop offset="1" stop-color="#EBECF0" stop-opacity="0"/>
</radialGradient>
<linearGradient id="paint11_linear_69_3467" x1="0.0863722" y1="87.578" x2="10.9252" y2="93.6478" gradientUnits="userSpaceOnUse">
<stop stop-color="#EBECF0"/>
<stop offset="1" stop-color="#EBECF0" stop-opacity="0"/>
</linearGradient>
<linearGradient id="paint12_linear_69_3467" x1="87.0122" y1="137.437" x2="95.9001" y2="142.639" gradientUnits="userSpaceOnUse">
<stop stop-color="#EBECF0"/>
<stop offset="1" stop-color="#EBECF0" stop-opacity="0"/>
</linearGradient>
<linearGradient id="paint13_linear_69_3467" x1="217.294" y1="62.6487" x2="226.616" y2="68.5017" gradientUnits="userSpaceOnUse">
<stop stop-color="#EBECF0"/>
<stop offset="1" stop-color="#EBECF0" stop-opacity="0"/>
</linearGradient>
<linearGradient id="paint14_linear_69_3467" x1="217.294" y1="212.658" x2="226.182" y2="217.644" gradientUnits="userSpaceOnUse">
<stop stop-color="#EBECF0"/>
<stop offset="1" stop-color="#EBECF0" stop-opacity="0"/>
</linearGradient>
<linearGradient id="paint15_linear_69_3467" x1="87.0156" y1="287.447" x2="98.288" y2="294.167" gradientUnits="userSpaceOnUse">
<stop stop-color="#EBECF0"/>
<stop offset="1" stop-color="#EBECF0" stop-opacity="0"/>
</linearGradient>
<linearGradient id="paint16_linear_69_3467" x1="217.079" y1="137.437" x2="209.275" y2="141.989" gradientUnits="userSpaceOnUse">
<stop stop-color="#EBECF0"/>
<stop offset="1" stop-color="#EBECF0" stop-opacity="0"/>
</linearGradient>
<linearGradient id="paint17_linear_69_3467" x1="87.015" y1="62.4319" x2="78.3439" y2="67.4178" gradientUnits="userSpaceOnUse">
<stop stop-color="#EBECF0"/>
<stop offset="1" stop-color="#EBECF0" stop-opacity="0"/>
</linearGradient>
<linearGradient id="paint18_linear_69_3467" x1="217.296" y1="287.23" x2="207.975" y2="292.649" gradientUnits="userSpaceOnUse">
<stop stop-color="#EBECF0"/>
<stop offset="1" stop-color="#EBECF0" stop-opacity="0"/>
</linearGradient>
<linearGradient id="paint19_linear_69_3467" x1="86.7982" y1="212.442" x2="77.26" y2="218.078" gradientUnits="userSpaceOnUse">
<stop stop-color="#EBECF0"/>
<stop offset="1" stop-color="#EBECF0" stop-opacity="0"/>
</linearGradient>
<linearGradient id="paint20_linear_69_3467" x1="151.962" y1="241.056" x2="151.962" y2="250.022" gradientUnits="userSpaceOnUse">
<stop stop-color="#EBECF0" stop-opacity="0"/>
<stop offset="1" stop-color="#EBECF0"/>
</linearGradient>
<linearGradient id="paint21_linear_69_3467" x1="151.962" y1="90.3962" x2="151.962" y2="100.06" gradientUnits="userSpaceOnUse">
<stop stop-color="#EBECF0" stop-opacity="0"/>
<stop offset="1" stop-color="#EBECF0"/>
</linearGradient>
<linearGradient id="paint22_linear_69_3467" x1="151.962" y1="338.389" x2="151.962" y2="350" gradientUnits="userSpaceOnUse">
<stop stop-color="#EBECF0" stop-opacity="0"/>
<stop offset="1" stop-color="#EBECF0"/>
</linearGradient>
<linearGradient id="paint23_linear_69_3467" x1="21.8018" y1="165.618" x2="21.8018" y2="175.043" gradientUnits="userSpaceOnUse">
<stop stop-color="#EBECF0" stop-opacity="0"/>
<stop offset="1" stop-color="#EBECF0"/>
</linearGradient>
</defs>
</svg>
