<svg width="323" height="339" viewBox="0 0 323 339" fill="none" xmlns="http://www.w3.org/2000/svg">
<path d="M269.023 41.1281L268.987 41.1466V41.1035L269.023 41.1281Z" stroke="#C9CBFF" stroke-opacity="0.37"/>
<path d="M227.777 254.879L207.155 243.002V242.995L227.777 254.879Z" stroke="#C9CBFF" stroke-opacity="0.37"/>
<path d="M145.305 136.126V112.372L165.922 124.249L207.143 100.501V76.7467L227.76 88.6238L248.407 76.7285V100.501L269.023 112.378L248.407 124.249V171.751L269.023 183.628L248.407 195.499V219.26L227.784 207.376L209.899 217.685L207.161 219.26V195.499L165.934 171.751L145.311 183.634V159.874L124.694 147.997L145.305 136.126Z" stroke="#C9CBFF" stroke-opacity="0.37"/>
<path d="M83.4585 148.01V147.997L83.4648 148.003L83.4585 148.01Z" stroke="#C9CBFF" stroke-opacity="0.37"/>
<path d="M269.01 254.886V254.866L269.023 254.879L269.01 254.886Z" stroke="#C9CBFF" stroke-opacity="0.37"/>
<g filter="url(#filter0_i_69_3417)">
<path d="M248.403 243.002L269.008 254.867V254.885L248.403 266.75V290.492L227.78 302.375V254.879L248.403 242.995V243.002Z" fill="#666BFF"/>
<path d="M248.403 243.002L269.008 254.867V254.885L248.403 266.75V290.492L227.78 302.375V254.879L248.403 242.995V243.002Z" fill="url(#paint0_linear_69_3417)"/>
</g>
<path d="M248.403 243.002L269.008 254.867V254.885L248.403 266.75V290.492L227.78 302.375V254.879L248.403 242.995V243.002Z" stroke="url(#paint1_linear_69_3417)" stroke-width="0.5"/>
<g filter="url(#filter1_i_69_3417)">
<path d="M330.859 314.252L289.632 338V290.504L330.859 266.75V314.252Z" fill="#666BFF"/>
</g>
<path d="M330.859 314.252L289.632 338V290.504L330.859 266.75V314.252Z" stroke="url(#paint2_linear_69_3417)" stroke-width="0.5"/>
<g filter="url(#filter2_i_69_3417)">
<path d="M330.859 243.001L310.243 254.878L289.632 266.75V243.001V219.253L330.859 195.499V243.001Z" fill="#666BFF"/>
</g>
<path d="M330.859 243.001L310.243 254.878L289.632 266.75V243.001V219.253L330.859 195.499V243.001Z" stroke="url(#paint3_linear_69_3417)" stroke-width="0.5"/>
<g filter="url(#filter3_i_69_3417)">
<path d="M330.859 171.751L310.243 183.628L289.632 195.499V171.751V148.003L330.859 124.249V171.751Z" fill="#666BFF"/>
</g>
<path d="M330.859 171.751L310.243 183.628L289.632 195.499V171.751V148.003L330.859 124.249V171.751Z" stroke="url(#paint4_linear_69_3417)" stroke-width="0.5"/>
<g filter="url(#filter4_i_69_3417)">
<path d="M330.859 100.501L310.243 112.378L289.632 124.249V100.501V76.7527L330.859 52.9985V100.501Z" fill="#666BFF"/>
</g>
<path d="M330.859 100.501L310.243 112.378L289.632 124.249V100.501V76.7527L330.859 52.9985V100.501Z" stroke="url(#paint5_linear_69_3417)" stroke-width="0.5"/>
<g filter="url(#filter5_i_69_3417)">
<path d="M330.859 29.2503L310.243 41.1274L289.632 52.9984V29.2503V5.50221L330.859 -18.252V29.2503Z" fill="#666BFF"/>
</g>
<path d="M330.859 29.2503L310.243 41.1274L289.632 52.9984V29.2503V5.50221L330.859 -18.252V29.2503Z" stroke="url(#paint6_linear_69_3417)" stroke-width="0.5"/>
<g filter="url(#filter6_i_69_3417)">
<path d="M268.988 17.373V41.103V41.1454V64.8571V64.8753L248.408 76.7282L227.761 88.6234V41.1272L248.408 29.232L268.988 17.373Z" fill="#666BFF"/>
</g>
<path d="M268.988 17.373V41.103V41.1454V64.8571V64.8753L248.408 76.7282L227.761 88.6234V41.1272L248.408 29.232L268.988 17.373Z" stroke="url(#paint7_linear_69_3417)" stroke-width="0.5"/>
<g filter="url(#filter7_i_69_3417)">
<path d="M207.141 52.9985V76.7466V100.501L165.919 124.249V76.7527L186.536 64.8756L207.141 52.9985Z" fill="#666BFF"/>
</g>
<path d="M207.141 52.9985V76.7466V100.501L165.919 124.249V76.7527L186.536 64.8756L207.141 52.9985Z" stroke="url(#paint8_linear_69_3417)" stroke-width="0.5"/>
<g filter="url(#filter8_i_69_3417)">
<path d="M145.301 88.6237V112.372V136.126L124.69 147.997L104.079 136.126L104.073 136.132V112.378L124.69 100.501L145.301 88.6237Z" fill="#666BFF"/>
</g>
<path d="M145.301 88.6237V112.372V136.126L124.69 147.997L104.079 136.126L104.073 136.132V112.378L124.69 100.501L145.301 88.6237Z" stroke="url(#paint9_linear_69_3417)" stroke-width="0.5"/>
<g filter="url(#filter9_i_69_3417)">
<path d="M62.8464 136.126L83.457 124.249V147.997V148.009L62.8524 159.874V183.616L42.2297 195.499V148.003L62.8464 136.126Z" fill="#666BFF"/>
</g>
<path d="M62.8464 136.126L83.457 124.249V147.997V148.009L62.8524 159.874V183.616L42.2297 195.499V148.003L62.8464 136.126Z" stroke="url(#paint10_linear_69_3417)" stroke-width="0.5"/>
<g filter="url(#filter10_i_69_3417)">
<path d="M145.309 183.634L124.704 195.499V219.241L104.081 231.124V183.628L145.309 159.874V183.634Z" fill="#666BFF"/>
</g>
<path d="M145.309 183.634L124.704 195.499V219.241L104.081 231.124V183.628L145.309 159.874V183.634Z" stroke="url(#paint11_linear_69_3417)" stroke-width="0.5"/>
<g filter="url(#filter11_i_69_3417)">
<path d="M207.16 219.259L186.556 231.124V254.866L186.543 254.878L165.933 266.75V219.253L207.16 195.499V219.259Z" fill="#666BFF"/>
</g>
<path d="M207.16 219.259L186.556 231.124V254.866L186.543 254.878L165.933 266.75V219.253L207.16 195.499V219.259Z" stroke="url(#paint12_linear_69_3417)" stroke-width="0.5"/>
<path d="M207.16 243.001L186.556 231.124L207.16 242.995V243.001Z" fill="#666BFF" stroke="#C9CBFF" stroke-opacity="0.37"/>
<path d="M269.021 254.879L289.632 266.75L310.243 254.879L330.859 266.75L289.632 290.504L269.009 278.621L248.405 266.75L269.009 254.885L269.021 254.879Z" fill="#3D43FF"/>
<path d="M269.021 254.879L289.632 266.75L310.243 254.879L330.859 266.75L289.632 290.504L269.009 278.621L248.405 266.75L269.009 254.885L269.021 254.879Z" fill="url(#paint13_linear_69_3417)"/>
<path d="M269.021 254.879L289.632 266.75L310.243 254.879L330.859 266.75L289.632 290.504L269.009 278.621L248.405 266.75L269.009 254.885L269.021 254.879Z" stroke="url(#paint14_linear_69_3417)" stroke-width="0.5"/>
<path d="M248.405 195.499L269.021 183.628L289.632 195.499L310.243 183.628L330.859 195.499L289.632 219.253L248.405 195.499Z" fill="#3D43FF"/>
<path d="M248.405 195.499L269.021 183.628L289.632 195.499L310.243 183.628L330.859 195.499L289.632 219.253L248.405 195.499Z" fill="url(#paint15_linear_69_3417)"/>
<path d="M248.405 195.499L269.021 183.628L289.632 195.499L310.243 183.628L330.859 195.499L289.632 219.253L248.405 195.499Z" stroke="url(#paint16_linear_69_3417)" stroke-width="0.5"/>
<path d="M248.405 124.249L269.021 112.378L289.632 124.249L310.243 112.378L330.859 124.249L289.632 148.003L248.405 124.249Z" fill="#3D43FF"/>
<path d="M248.405 124.249L269.021 112.378L289.632 124.249L310.243 112.378L330.859 124.249L289.632 148.003L248.405 124.249Z" fill="url(#paint17_linear_69_3417)"/>
<path d="M248.405 124.249L269.021 112.378L289.632 124.249L310.243 112.378L330.859 124.249L289.632 148.003L248.405 124.249Z" stroke="url(#paint18_linear_69_3417)" stroke-width="0.5"/>
<path d="M268.985 64.8574V41.1456L269.021 41.1274L289.632 52.9985L310.243 41.1274L330.859 52.9985L289.632 76.7526L268.985 64.8574Z" fill="#3D43FF"/>
<path d="M268.985 64.8574V41.1456L269.021 41.1274L289.632 52.9985L310.243 41.1274L330.859 52.9985L289.632 76.7526L268.985 64.8574Z" fill="url(#paint19_linear_69_3417)"/>
<path d="M268.985 64.8574V41.1456L269.021 41.1274L289.632 52.9985L310.243 41.1274L330.859 52.9985L289.632 76.7526L268.985 64.8574Z" stroke="url(#paint20_linear_69_3417)" stroke-width="0.5"/>
<path d="M248.405 -18.2519L289.632 -42L330.859 -18.2519L289.632 5.50227L248.405 -18.2519Z" fill="#3D43FF" stroke="url(#paint21_linear_69_3417)" stroke-width="0.5"/>
<g filter="url(#filter12_i_69_3417)">
<path d="M268.988 17.3733L248.408 29.2323L227.761 41.1275L186.54 17.3733L227.761 -6.37476L248.408 5.52049L268.988 17.3733Z" fill="#3D43FF"/>
</g>
<path d="M268.988 17.3733L248.408 29.2323L227.761 41.1275L186.54 17.3733L227.761 -6.37476L248.408 5.52049L268.988 17.3733Z" stroke="url(#paint22_linear_69_3417)" stroke-width="0.5"/>
<g filter="url(#filter13_i_69_3417)">
<path d="M207.141 52.9985L186.536 64.8756L165.919 76.7526L124.692 52.9985L165.919 29.2504L186.536 41.1274L207.141 52.9985Z" fill="#3D43FF"/>
</g>
<path d="M207.141 52.9985L186.536 64.8756L165.919 76.7526L124.692 52.9985L165.919 29.2504L186.536 41.1274L207.141 52.9985Z" stroke="url(#paint23_linear_69_3417)" stroke-width="0.5"/>
<g filter="url(#filter14_i_69_3417)">
<path d="M145.301 88.6237L124.69 100.501L104.073 112.378L62.846 88.6237L104.073 64.8756L124.69 76.7527L145.301 88.6237Z" fill="#3D43FF"/>
</g>
<path d="M145.301 88.6237L124.69 100.501L104.073 112.378L62.846 88.6237L104.073 64.8756L124.69 76.7527L145.301 88.6237Z" stroke="url(#paint24_linear_69_3417)" stroke-width="0.5"/>
<g filter="url(#filter15_i_69_3417)">
<path d="M42.2297 100.501L62.8464 112.378L83.457 124.249L62.8464 136.126L42.2297 148.003L1.00227 124.249L42.2297 100.501Z" fill="#3D43FF"/>
</g>
<path d="M42.2297 100.501L62.8464 112.378L83.457 124.249L62.8464 136.126L42.2297 148.003L1.00227 124.249L42.2297 100.501Z" stroke="url(#paint25_linear_69_3417)" stroke-width="0.5"/>
<g filter="url(#filter16_i_69_3417)">
<path d="M83.4645 148.003L104.075 136.132L104.081 136.126L124.692 147.997L145.309 159.874L104.081 183.628L83.4584 171.745L62.8538 159.874L83.4584 148.009L83.4645 148.003Z" fill="#3D43FF"/>
</g>
<path d="M83.4645 148.003L104.075 136.132L104.081 136.126L124.692 147.997L145.309 159.874L104.081 183.628L83.4584 171.745L62.8538 159.874L83.4584 148.009L83.4645 148.003Z" stroke="url(#paint26_linear_69_3417)" stroke-width="0.5"/>
<g filter="url(#filter17_i_69_3417)">
<path d="M165.933 171.751L207.16 195.499L165.933 219.253L145.31 207.37L124.705 195.499L145.31 183.634L165.933 171.751Z" fill="#3D43FF"/>
</g>
<path d="M165.933 171.751L207.16 195.499L165.933 219.253L145.31 207.37L124.705 195.499L145.31 183.634L165.933 171.751Z" stroke="url(#paint27_linear_69_3417)" stroke-width="0.5"/>
<path d="M209.898 217.685L227.783 207.376L248.406 219.259V242.995L227.783 254.879L207.161 242.995L186.556 231.124L207.161 219.259L209.898 217.685Z" fill="#3D43FF"/>
<path d="M209.898 217.685L227.783 207.376L248.406 219.259V242.995L227.783 254.879L207.161 242.995L186.556 231.124L207.161 219.259L209.898 217.685Z" fill="url(#paint28_linear_69_3417)"/>
<path d="M209.898 217.685L227.783 207.376L248.406 219.259V242.995L227.783 254.879L207.161 242.995L186.556 231.124L207.161 219.259L209.898 217.685Z" stroke="url(#paint29_linear_69_3417)" stroke-width="0.5"/>
<g filter="url(#filter18_i_69_3417)">
<path d="M289.629 290.504V338L248.402 314.252V290.492V266.75L269.006 278.621L289.629 290.504Z" fill="#1D24FF"/>
</g>
<path d="M289.629 290.504V338L248.402 314.252V290.492V266.75L269.006 278.621L289.629 290.504Z" stroke="url(#paint30_linear_69_3417)" stroke-width="0.5"/>
<g filter="url(#filter19_i_69_3417)">
<path d="M289.629 243.001V266.75L269.018 254.878L269.006 254.866L248.402 243.001V242.995V219.259V195.499L289.629 219.253V243.001Z" fill="#1D24FF"/>
</g>
<path d="M289.629 243.001V266.75L269.018 254.878L269.006 254.866L248.402 243.001V242.995V219.259V195.499L289.629 219.253V243.001Z" stroke="url(#paint31_linear_69_3417)" stroke-width="0.5"/>
<g filter="url(#filter20_i_69_3417)">
<path d="M289.629 171.751V195.499L269.018 183.628L248.402 171.751V124.249L289.629 148.003V171.751Z" fill="#1D24FF"/>
</g>
<path d="M289.629 171.751V195.499L269.018 183.628L248.402 171.751V124.249L289.629 148.003V171.751Z" stroke="url(#paint32_linear_69_3417)" stroke-width="0.5"/>
<g filter="url(#filter21_i_69_3417)">
<path d="M268.982 64.8574L289.629 76.7527V100.501V124.249L269.018 112.378L248.402 100.501V76.7284L268.982 64.8756V64.8574Z" fill="#1D24FF"/>
<path d="M268.982 64.8574L289.629 76.7527V100.501V124.249L269.018 112.378L248.402 100.501V76.7284L268.982 64.8756V64.8574Z" fill="url(#paint33_linear_69_3417)"/>
</g>
<path d="M268.982 64.8574L289.629 76.7527V100.501V124.249L269.018 112.378L248.402 100.501V76.7284L268.982 64.8756V64.8574Z" stroke="url(#paint34_linear_69_3417)" stroke-width="0.5"/>
<path d="M289.629 29.2503V52.9984L269.018 41.1274L268.982 41.1032V17.3732L248.402 5.52038V-18.252L289.629 5.50221V29.2503Z" fill="#1D24FF"/>
<path d="M289.629 29.2503V52.9984L269.018 41.1274L268.982 41.1032V17.3732L248.402 5.52038V-18.252L289.629 5.50221V29.2503Z" fill="url(#paint35_linear_69_3417)"/>
<path d="M289.629 29.2503V52.9984L269.018 41.1274L268.982 41.1032V17.3732L248.402 5.52038V-18.252L289.629 5.50221V29.2503Z" stroke="url(#paint36_linear_69_3417)" stroke-width="0.5"/>
<path d="M227.758 88.6234L207.141 76.7463V52.9982L186.536 41.1272V17.373L227.758 41.1272V88.6234Z" fill="#1D24FF"/>
<path d="M227.758 88.6234L207.141 76.7463V52.9982L186.536 41.1272V17.373L227.758 41.1272V88.6234Z" fill="url(#paint37_linear_69_3417)"/>
<path d="M227.758 88.6234L207.141 76.7463V52.9982L186.536 41.1272V17.373L227.758 41.1272V88.6234Z" stroke="url(#paint38_linear_69_3417)" stroke-width="0.5"/>
<path d="M165.922 124.249L145.305 112.372V88.6237L124.694 76.7527V52.9985L165.922 76.7527V124.249Z" fill="#1D24FF"/>
<path d="M165.922 124.249L145.305 112.372V88.6237L124.694 76.7527V52.9985L165.922 76.7527V124.249Z" fill="url(#paint39_linear_69_3417)"/>
<path d="M165.922 124.249L145.305 112.372V88.6237L124.694 76.7527V52.9985L165.922 76.7527V124.249Z" stroke="url(#paint40_linear_69_3417)" stroke-width="0.5"/>
<path d="M104.074 136.132L83.4636 148.003L83.4575 147.997V124.249L62.8468 112.378V88.6237L104.074 112.378V136.132Z" fill="#1D24FF"/>
<path d="M104.074 136.132L83.4636 148.003L83.4575 147.997V124.249L62.8468 112.378V88.6237L104.074 112.378V136.132Z" fill="url(#paint41_linear_69_3417)"/>
<path d="M104.074 136.132L83.4636 148.003L83.4575 147.997V124.249L62.8468 112.378V88.6237L104.074 112.378V136.132Z" stroke="url(#paint42_linear_69_3417)" stroke-width="0.5"/>
<g filter="url(#filter22_i_69_3417)">
<path d="M42.2305 148.003V195.499L1.00308 171.751V124.249L42.2305 148.003Z" fill="#1D24FF"/>
</g>
<path d="M42.2305 148.003V195.499L1.00308 171.751V124.249L42.2305 148.003Z" stroke="url(#paint43_linear_69_3417)" stroke-width="0.5"/>
<g filter="url(#filter23_i_69_3417)">
<path d="M104.078 183.628V231.124L62.8507 207.376V183.616V159.874L83.4553 171.745L104.078 183.628Z" fill="#1D24FF"/>
</g>
<path d="M104.078 183.628V231.124L62.8507 207.376V183.616V159.874L83.4553 171.745L104.078 183.628Z" stroke="url(#paint44_linear_69_3417)" stroke-width="0.5"/>
<g filter="url(#filter24_i_69_3417)">
<path d="M165.93 219.253V266.75L124.702 243.001V219.241V195.499L145.307 207.37L165.93 219.253Z" fill="#1D24FF"/>
</g>
<path d="M165.93 219.253V266.75L124.702 243.001V219.241V195.499L145.307 207.37L165.93 219.253Z" stroke="url(#paint45_linear_69_3417)" stroke-width="0.5"/>
<g filter="url(#filter25_i_69_3417)">
<path d="M186.55 231.124L207.155 243.001L227.777 254.879V302.375L186.55 278.627L186.538 254.879L186.55 254.866V231.124Z" fill="#1D24FF"/>
</g>
<path d="M186.55 231.124L207.155 243.001L227.777 254.879V302.375L186.55 278.627L186.538 254.879L186.55 254.866V231.124Z" stroke="url(#paint46_linear_69_3417)" stroke-width="0.5"/>
<defs>
<filter id="filter0_i_69_3417" x="227.531" y="242.563" width="41.7273" height="60.2446" filterUnits="userSpaceOnUse" color-interpolation-filters="sRGB">
<feFlood flood-opacity="0" result="BackgroundImageFix"/>
<feBlend mode="normal" in="SourceGraphic" in2="BackgroundImageFix" result="shape"/>
<feColorMatrix in="SourceAlpha" type="matrix" values="0 0 0 0 0 0 0 0 0 0 0 0 0 0 0 0 0 0 127 0" result="hardAlpha"/>
<feOffset/>
<feGaussianBlur stdDeviation="8"/>
<feComposite in2="hardAlpha" operator="arithmetic" k2="-1" k3="1"/>
<feColorMatrix type="matrix" values="0 0 0 0 0.788235 0 0 0 0 0.796078 0 0 0 0 1 0 0 0 0.2 0"/>
<feBlend mode="normal" in2="shape" result="effect1_innerShadow_69_3417"/>
</filter>
<filter id="filter1_i_69_3417" x="289.382" y="266.317" width="41.7273" height="72.1155" filterUnits="userSpaceOnUse" color-interpolation-filters="sRGB">
<feFlood flood-opacity="0" result="BackgroundImageFix"/>
<feBlend mode="normal" in="SourceGraphic" in2="BackgroundImageFix" result="shape"/>
<feColorMatrix in="SourceAlpha" type="matrix" values="0 0 0 0 0 0 0 0 0 0 0 0 0 0 0 0 0 0 127 0" result="hardAlpha"/>
<feOffset/>
<feGaussianBlur stdDeviation="8"/>
<feComposite in2="hardAlpha" operator="arithmetic" k2="-1" k3="1"/>
<feColorMatrix type="matrix" values="0 0 0 0 0.788235 0 0 0 0 0.796078 0 0 0 0 1 0 0 0 0.2 0"/>
<feBlend mode="normal" in2="shape" result="effect1_innerShadow_69_3417"/>
</filter>
<filter id="filter2_i_69_3417" x="289.382" y="195.067" width="41.7273" height="72.1155" filterUnits="userSpaceOnUse" color-interpolation-filters="sRGB">
<feFlood flood-opacity="0" result="BackgroundImageFix"/>
<feBlend mode="normal" in="SourceGraphic" in2="BackgroundImageFix" result="shape"/>
<feColorMatrix in="SourceAlpha" type="matrix" values="0 0 0 0 0 0 0 0 0 0 0 0 0 0 0 0 0 0 127 0" result="hardAlpha"/>
<feOffset/>
<feGaussianBlur stdDeviation="8"/>
<feComposite in2="hardAlpha" operator="arithmetic" k2="-1" k3="1"/>
<feColorMatrix type="matrix" values="0 0 0 0 0.788235 0 0 0 0 0.796078 0 0 0 0 1 0 0 0 0.2 0"/>
<feBlend mode="normal" in2="shape" result="effect1_innerShadow_69_3417"/>
</filter>
<filter id="filter3_i_69_3417" x="289.382" y="123.816" width="41.7273" height="72.1155" filterUnits="userSpaceOnUse" color-interpolation-filters="sRGB">
<feFlood flood-opacity="0" result="BackgroundImageFix"/>
<feBlend mode="normal" in="SourceGraphic" in2="BackgroundImageFix" result="shape"/>
<feColorMatrix in="SourceAlpha" type="matrix" values="0 0 0 0 0 0 0 0 0 0 0 0 0 0 0 0 0 0 127 0" result="hardAlpha"/>
<feOffset/>
<feGaussianBlur stdDeviation="8"/>
<feComposite in2="hardAlpha" operator="arithmetic" k2="-1" k3="1"/>
<feColorMatrix type="matrix" values="0 0 0 0 0.788235 0 0 0 0 0.796078 0 0 0 0 1 0 0 0 0.2 0"/>
<feBlend mode="normal" in2="shape" result="effect1_innerShadow_69_3417"/>
</filter>
<filter id="filter4_i_69_3417" x="289.382" y="52.5659" width="41.7273" height="72.1155" filterUnits="userSpaceOnUse" color-interpolation-filters="sRGB">
<feFlood flood-opacity="0" result="BackgroundImageFix"/>
<feBlend mode="normal" in="SourceGraphic" in2="BackgroundImageFix" result="shape"/>
<feColorMatrix in="SourceAlpha" type="matrix" values="0 0 0 0 0 0 0 0 0 0 0 0 0 0 0 0 0 0 127 0" result="hardAlpha"/>
<feOffset/>
<feGaussianBlur stdDeviation="8"/>
<feComposite in2="hardAlpha" operator="arithmetic" k2="-1" k3="1"/>
<feColorMatrix type="matrix" values="0 0 0 0 0.788235 0 0 0 0 0.796078 0 0 0 0 1 0 0 0 0.2 0"/>
<feBlend mode="normal" in2="shape" result="effect1_innerShadow_69_3417"/>
</filter>
<filter id="filter5_i_69_3417" x="289.382" y="-18.6846" width="41.7273" height="72.1155" filterUnits="userSpaceOnUse" color-interpolation-filters="sRGB">
<feFlood flood-opacity="0" result="BackgroundImageFix"/>
<feBlend mode="normal" in="SourceGraphic" in2="BackgroundImageFix" result="shape"/>
<feColorMatrix in="SourceAlpha" type="matrix" values="0 0 0 0 0 0 0 0 0 0 0 0 0 0 0 0 0 0 127 0" result="hardAlpha"/>
<feOffset/>
<feGaussianBlur stdDeviation="8"/>
<feComposite in2="hardAlpha" operator="arithmetic" k2="-1" k3="1"/>
<feColorMatrix type="matrix" values="0 0 0 0 0.788235 0 0 0 0 0.796078 0 0 0 0 1 0 0 0 0.2 0"/>
<feBlend mode="normal" in2="shape" result="effect1_innerShadow_69_3417"/>
</filter>
<filter id="filter6_i_69_3417" x="227.511" y="16.9404" width="41.7273" height="72.1155" filterUnits="userSpaceOnUse" color-interpolation-filters="sRGB">
<feFlood flood-opacity="0" result="BackgroundImageFix"/>
<feBlend mode="normal" in="SourceGraphic" in2="BackgroundImageFix" result="shape"/>
<feColorMatrix in="SourceAlpha" type="matrix" values="0 0 0 0 0 0 0 0 0 0 0 0 0 0 0 0 0 0 127 0" result="hardAlpha"/>
<feOffset/>
<feGaussianBlur stdDeviation="8"/>
<feComposite in2="hardAlpha" operator="arithmetic" k2="-1" k3="1"/>
<feColorMatrix type="matrix" values="0 0 0 0 0.788235 0 0 0 0 0.796078 0 0 0 0 1 0 0 0 0.2 0"/>
<feBlend mode="normal" in2="shape" result="effect1_innerShadow_69_3417"/>
</filter>
<filter id="filter7_i_69_3417" x="165.669" y="52.5659" width="41.7214" height="72.1155" filterUnits="userSpaceOnUse" color-interpolation-filters="sRGB">
<feFlood flood-opacity="0" result="BackgroundImageFix"/>
<feBlend mode="normal" in="SourceGraphic" in2="BackgroundImageFix" result="shape"/>
<feColorMatrix in="SourceAlpha" type="matrix" values="0 0 0 0 0 0 0 0 0 0 0 0 0 0 0 0 0 0 127 0" result="hardAlpha"/>
<feOffset/>
<feGaussianBlur stdDeviation="8"/>
<feComposite in2="hardAlpha" operator="arithmetic" k2="-1" k3="1"/>
<feColorMatrix type="matrix" values="0 0 0 0 0.788235 0 0 0 0 0.796078 0 0 0 0 1 0 0 0 0.2 0"/>
<feBlend mode="normal" in2="shape" result="effect1_innerShadow_69_3417"/>
</filter>
<filter id="filter8_i_69_3417" x="103.823" y="88.191" width="41.7273" height="60.0945" filterUnits="userSpaceOnUse" color-interpolation-filters="sRGB">
<feFlood flood-opacity="0" result="BackgroundImageFix"/>
<feBlend mode="normal" in="SourceGraphic" in2="BackgroundImageFix" result="shape"/>
<feColorMatrix in="SourceAlpha" type="matrix" values="0 0 0 0 0 0 0 0 0 0 0 0 0 0 0 0 0 0 127 0" result="hardAlpha"/>
<feOffset/>
<feGaussianBlur stdDeviation="8"/>
<feComposite in2="hardAlpha" operator="arithmetic" k2="-1" k3="1"/>
<feColorMatrix type="matrix" values="0 0 0 0 0.788235 0 0 0 0 0.796078 0 0 0 0 1 0 0 0 0.2 0"/>
<feBlend mode="normal" in2="shape" result="effect1_innerShadow_69_3417"/>
</filter>
<filter id="filter9_i_69_3417" x="41.9797" y="123.816" width="41.7273" height="72.1156" filterUnits="userSpaceOnUse" color-interpolation-filters="sRGB">
<feFlood flood-opacity="0" result="BackgroundImageFix"/>
<feBlend mode="normal" in="SourceGraphic" in2="BackgroundImageFix" result="shape"/>
<feColorMatrix in="SourceAlpha" type="matrix" values="0 0 0 0 0 0 0 0 0 0 0 0 0 0 0 0 0 0 127 0" result="hardAlpha"/>
<feOffset/>
<feGaussianBlur stdDeviation="8"/>
<feComposite in2="hardAlpha" operator="arithmetic" k2="-1" k3="1"/>
<feColorMatrix type="matrix" values="0 0 0 0 0.788235 0 0 0 0 0.796078 0 0 0 0 1 0 0 0 0.2 0"/>
<feBlend mode="normal" in2="shape" result="effect1_innerShadow_69_3417"/>
</filter>
<filter id="filter10_i_69_3417" x="103.831" y="159.441" width="41.7273" height="72.1156" filterUnits="userSpaceOnUse" color-interpolation-filters="sRGB">
<feFlood flood-opacity="0" result="BackgroundImageFix"/>
<feBlend mode="normal" in="SourceGraphic" in2="BackgroundImageFix" result="shape"/>
<feColorMatrix in="SourceAlpha" type="matrix" values="0 0 0 0 0 0 0 0 0 0 0 0 0 0 0 0 0 0 127 0" result="hardAlpha"/>
<feOffset/>
<feGaussianBlur stdDeviation="8"/>
<feComposite in2="hardAlpha" operator="arithmetic" k2="-1" k3="1"/>
<feColorMatrix type="matrix" values="0 0 0 0 0.788235 0 0 0 0 0.796078 0 0 0 0 1 0 0 0 0.2 0"/>
<feBlend mode="normal" in2="shape" result="effect1_innerShadow_69_3417"/>
</filter>
<filter id="filter11_i_69_3417" x="165.683" y="195.067" width="41.7273" height="72.1155" filterUnits="userSpaceOnUse" color-interpolation-filters="sRGB">
<feFlood flood-opacity="0" result="BackgroundImageFix"/>
<feBlend mode="normal" in="SourceGraphic" in2="BackgroundImageFix" result="shape"/>
<feColorMatrix in="SourceAlpha" type="matrix" values="0 0 0 0 0 0 0 0 0 0 0 0 0 0 0 0 0 0 127 0" result="hardAlpha"/>
<feOffset/>
<feGaussianBlur stdDeviation="8"/>
<feComposite in2="hardAlpha" operator="arithmetic" k2="-1" k3="1"/>
<feColorMatrix type="matrix" values="0 0 0 0 0.788235 0 0 0 0 0.796078 0 0 0 0 1 0 0 0 0.2 0"/>
<feBlend mode="normal" in2="shape" result="effect1_innerShadow_69_3417"/>
</filter>
<filter id="filter12_i_69_3417" x="186.039" y="-6.66333" width="83.4502" height="48.0793" filterUnits="userSpaceOnUse" color-interpolation-filters="sRGB">
<feFlood flood-opacity="0" result="BackgroundImageFix"/>
<feBlend mode="normal" in="SourceGraphic" in2="BackgroundImageFix" result="shape"/>
<feColorMatrix in="SourceAlpha" type="matrix" values="0 0 0 0 0 0 0 0 0 0 0 0 0 0 0 0 0 0 127 0" result="hardAlpha"/>
<feOffset/>
<feGaussianBlur stdDeviation="8"/>
<feComposite in2="hardAlpha" operator="arithmetic" k2="-1" k3="1"/>
<feColorMatrix type="matrix" values="0 0 0 0 0.788235 0 0 0 0 0.796078 0 0 0 0 1 0 0 0 0.2 0"/>
<feBlend mode="normal" in2="shape" result="effect1_innerShadow_69_3417"/>
</filter>
<filter id="filter13_i_69_3417" x="124.191" y="28.9618" width="83.4502" height="48.0793" filterUnits="userSpaceOnUse" color-interpolation-filters="sRGB">
<feFlood flood-opacity="0" result="BackgroundImageFix"/>
<feBlend mode="normal" in="SourceGraphic" in2="BackgroundImageFix" result="shape"/>
<feColorMatrix in="SourceAlpha" type="matrix" values="0 0 0 0 0 0 0 0 0 0 0 0 0 0 0 0 0 0 127 0" result="hardAlpha"/>
<feOffset/>
<feGaussianBlur stdDeviation="8"/>
<feComposite in2="hardAlpha" operator="arithmetic" k2="-1" k3="1"/>
<feColorMatrix type="matrix" values="0 0 0 0 0.788235 0 0 0 0 0.796078 0 0 0 0 1 0 0 0 0.2 0"/>
<feBlend mode="normal" in2="shape" result="effect1_innerShadow_69_3417"/>
</filter>
<filter id="filter14_i_69_3417" x="62.3452" y="64.587" width="83.4563" height="48.0793" filterUnits="userSpaceOnUse" color-interpolation-filters="sRGB">
<feFlood flood-opacity="0" result="BackgroundImageFix"/>
<feBlend mode="normal" in="SourceGraphic" in2="BackgroundImageFix" result="shape"/>
<feColorMatrix in="SourceAlpha" type="matrix" values="0 0 0 0 0 0 0 0 0 0 0 0 0 0 0 0 0 0 127 0" result="hardAlpha"/>
<feOffset/>
<feGaussianBlur stdDeviation="8"/>
<feComposite in2="hardAlpha" operator="arithmetic" k2="-1" k3="1"/>
<feColorMatrix type="matrix" values="0 0 0 0 0.788235 0 0 0 0 0.796078 0 0 0 0 1 0 0 0 0.2 0"/>
<feBlend mode="normal" in2="shape" result="effect1_innerShadow_69_3417"/>
</filter>
<filter id="filter15_i_69_3417" x="0.501465" y="100.212" width="83.4563" height="48.0793" filterUnits="userSpaceOnUse" color-interpolation-filters="sRGB">
<feFlood flood-opacity="0" result="BackgroundImageFix"/>
<feBlend mode="normal" in="SourceGraphic" in2="BackgroundImageFix" result="shape"/>
<feColorMatrix in="SourceAlpha" type="matrix" values="0 0 0 0 0 0 0 0 0 0 0 0 0 0 0 0 0 0 127 0" result="hardAlpha"/>
<feOffset/>
<feGaussianBlur stdDeviation="8"/>
<feComposite in2="hardAlpha" operator="arithmetic" k2="-1" k3="1"/>
<feColorMatrix type="matrix" values="0 0 0 0 0.788235 0 0 0 0 0.796078 0 0 0 0 1 0 0 0 0.2 0"/>
<feBlend mode="normal" in2="shape" result="effect1_innerShadow_69_3417"/>
</filter>
<filter id="filter16_i_69_3417" x="62.353" y="135.814" width="83.4563" height="48.1029" filterUnits="userSpaceOnUse" color-interpolation-filters="sRGB">
<feFlood flood-opacity="0" result="BackgroundImageFix"/>
<feBlend mode="normal" in="SourceGraphic" in2="BackgroundImageFix" result="shape"/>
<feColorMatrix in="SourceAlpha" type="matrix" values="0 0 0 0 0 0 0 0 0 0 0 0 0 0 0 0 0 0 127 0" result="hardAlpha"/>
<feOffset/>
<feGaussianBlur stdDeviation="8"/>
<feComposite in2="hardAlpha" operator="arithmetic" k2="-1" k3="1"/>
<feColorMatrix type="matrix" values="0 0 0 0 0.788235 0 0 0 0 0.796078 0 0 0 0 1 0 0 0 0.2 0"/>
<feBlend mode="normal" in2="shape" result="effect1_innerShadow_69_3417"/>
</filter>
<filter id="filter17_i_69_3417" x="124.205" y="171.463" width="83.4563" height="48.0793" filterUnits="userSpaceOnUse" color-interpolation-filters="sRGB">
<feFlood flood-opacity="0" result="BackgroundImageFix"/>
<feBlend mode="normal" in="SourceGraphic" in2="BackgroundImageFix" result="shape"/>
<feColorMatrix in="SourceAlpha" type="matrix" values="0 0 0 0 0 0 0 0 0 0 0 0 0 0 0 0 0 0 127 0" result="hardAlpha"/>
<feOffset/>
<feGaussianBlur stdDeviation="8"/>
<feComposite in2="hardAlpha" operator="arithmetic" k2="-1" k3="1"/>
<feColorMatrix type="matrix" values="0 0 0 0 0.788235 0 0 0 0 0.796078 0 0 0 0 1 0 0 0 0.2 0"/>
<feBlend mode="normal" in2="shape" result="effect1_innerShadow_69_3417"/>
</filter>
<filter id="filter18_i_69_3417" x="248.152" y="266.317" width="41.7273" height="72.1155" filterUnits="userSpaceOnUse" color-interpolation-filters="sRGB">
<feFlood flood-opacity="0" result="BackgroundImageFix"/>
<feBlend mode="normal" in="SourceGraphic" in2="BackgroundImageFix" result="shape"/>
<feColorMatrix in="SourceAlpha" type="matrix" values="0 0 0 0 0 0 0 0 0 0 0 0 0 0 0 0 0 0 127 0" result="hardAlpha"/>
<feOffset/>
<feGaussianBlur stdDeviation="8"/>
<feComposite in2="hardAlpha" operator="arithmetic" k2="-1" k3="1"/>
<feColorMatrix type="matrix" values="0 0 0 0 0.788235 0 0 0 0 0.796078 0 0 0 0 1 0 0 0 0.2 0"/>
<feBlend mode="normal" in2="shape" result="effect1_innerShadow_69_3417"/>
</filter>
<filter id="filter19_i_69_3417" x="248.152" y="195.067" width="41.7273" height="72.1155" filterUnits="userSpaceOnUse" color-interpolation-filters="sRGB">
<feFlood flood-opacity="0" result="BackgroundImageFix"/>
<feBlend mode="normal" in="SourceGraphic" in2="BackgroundImageFix" result="shape"/>
<feColorMatrix in="SourceAlpha" type="matrix" values="0 0 0 0 0 0 0 0 0 0 0 0 0 0 0 0 0 0 127 0" result="hardAlpha"/>
<feOffset/>
<feGaussianBlur stdDeviation="8"/>
<feComposite in2="hardAlpha" operator="arithmetic" k2="-1" k3="1"/>
<feColorMatrix type="matrix" values="0 0 0 0 0.788235 0 0 0 0 0.796078 0 0 0 0 1 0 0 0 0.2 0"/>
<feBlend mode="normal" in2="shape" result="effect1_innerShadow_69_3417"/>
</filter>
<filter id="filter20_i_69_3417" x="248.152" y="123.816" width="41.7273" height="72.1155" filterUnits="userSpaceOnUse" color-interpolation-filters="sRGB">
<feFlood flood-opacity="0" result="BackgroundImageFix"/>
<feBlend mode="normal" in="SourceGraphic" in2="BackgroundImageFix" result="shape"/>
<feColorMatrix in="SourceAlpha" type="matrix" values="0 0 0 0 0 0 0 0 0 0 0 0 0 0 0 0 0 0 127 0" result="hardAlpha"/>
<feOffset/>
<feGaussianBlur stdDeviation="8"/>
<feComposite in2="hardAlpha" operator="arithmetic" k2="-1" k3="1"/>
<feColorMatrix type="matrix" values="0 0 0 0 0.788235 0 0 0 0 0.796078 0 0 0 0 1 0 0 0 0.2 0"/>
<feBlend mode="normal" in2="shape" result="effect1_innerShadow_69_3417"/>
</filter>
<filter id="filter21_i_69_3417" x="248.152" y="64.4249" width="41.7273" height="60.2565" filterUnits="userSpaceOnUse" color-interpolation-filters="sRGB">
<feFlood flood-opacity="0" result="BackgroundImageFix"/>
<feBlend mode="normal" in="SourceGraphic" in2="BackgroundImageFix" result="shape"/>
<feColorMatrix in="SourceAlpha" type="matrix" values="0 0 0 0 0 0 0 0 0 0 0 0 0 0 0 0 0 0 127 0" result="hardAlpha"/>
<feOffset/>
<feGaussianBlur stdDeviation="8"/>
<feComposite in2="hardAlpha" operator="arithmetic" k2="-1" k3="1"/>
<feColorMatrix type="matrix" values="0 0 0 0 0.788235 0 0 0 0 0.796078 0 0 0 0 1 0 0 0 0.2 0"/>
<feBlend mode="normal" in2="shape" result="effect1_innerShadow_69_3417"/>
</filter>
<filter id="filter22_i_69_3417" x="0.753174" y="123.816" width="41.7273" height="72.1155" filterUnits="userSpaceOnUse" color-interpolation-filters="sRGB">
<feFlood flood-opacity="0" result="BackgroundImageFix"/>
<feBlend mode="normal" in="SourceGraphic" in2="BackgroundImageFix" result="shape"/>
<feColorMatrix in="SourceAlpha" type="matrix" values="0 0 0 0 0 0 0 0 0 0 0 0 0 0 0 0 0 0 127 0" result="hardAlpha"/>
<feOffset/>
<feGaussianBlur stdDeviation="8"/>
<feComposite in2="hardAlpha" operator="arithmetic" k2="-1" k3="1"/>
<feColorMatrix type="matrix" values="0 0 0 0 0.788235 0 0 0 0 0.796078 0 0 0 0 1 0 0 0 0.2 0"/>
<feBlend mode="normal" in2="shape" result="effect1_innerShadow_69_3417"/>
</filter>
<filter id="filter23_i_69_3417" x="62.6008" y="159.441" width="41.7273" height="72.1155" filterUnits="userSpaceOnUse" color-interpolation-filters="sRGB">
<feFlood flood-opacity="0" result="BackgroundImageFix"/>
<feBlend mode="normal" in="SourceGraphic" in2="BackgroundImageFix" result="shape"/>
<feColorMatrix in="SourceAlpha" type="matrix" values="0 0 0 0 0 0 0 0 0 0 0 0 0 0 0 0 0 0 127 0" result="hardAlpha"/>
<feOffset/>
<feGaussianBlur stdDeviation="8"/>
<feComposite in2="hardAlpha" operator="arithmetic" k2="-1" k3="1"/>
<feColorMatrix type="matrix" values="0 0 0 0 0.788235 0 0 0 0 0.796078 0 0 0 0 1 0 0 0 0.2 0"/>
<feBlend mode="normal" in2="shape" result="effect1_innerShadow_69_3417"/>
</filter>
<filter id="filter24_i_69_3417" x="124.452" y="195.067" width="41.7273" height="72.1155" filterUnits="userSpaceOnUse" color-interpolation-filters="sRGB">
<feFlood flood-opacity="0" result="BackgroundImageFix"/>
<feBlend mode="normal" in="SourceGraphic" in2="BackgroundImageFix" result="shape"/>
<feColorMatrix in="SourceAlpha" type="matrix" values="0 0 0 0 0 0 0 0 0 0 0 0 0 0 0 0 0 0 127 0" result="hardAlpha"/>
<feOffset/>
<feGaussianBlur stdDeviation="8"/>
<feComposite in2="hardAlpha" operator="arithmetic" k2="-1" k3="1"/>
<feColorMatrix type="matrix" values="0 0 0 0 0.788235 0 0 0 0 0.796078 0 0 0 0 1 0 0 0 0.2 0"/>
<feBlend mode="normal" in2="shape" result="effect1_innerShadow_69_3417"/>
</filter>
<filter id="filter25_i_69_3417" x="186.288" y="230.692" width="41.7395" height="72.1155" filterUnits="userSpaceOnUse" color-interpolation-filters="sRGB">
<feFlood flood-opacity="0" result="BackgroundImageFix"/>
<feBlend mode="normal" in="SourceGraphic" in2="BackgroundImageFix" result="shape"/>
<feColorMatrix in="SourceAlpha" type="matrix" values="0 0 0 0 0 0 0 0 0 0 0 0 0 0 0 0 0 0 127 0" result="hardAlpha"/>
<feOffset/>
<feGaussianBlur stdDeviation="8"/>
<feComposite in2="hardAlpha" operator="arithmetic" k2="-1" k3="1"/>
<feColorMatrix type="matrix" values="0 0 0 0 0.788235 0 0 0 0 0.796078 0 0 0 0 1 0 0 0 0.2 0"/>
<feBlend mode="normal" in2="shape" result="effect1_innerShadow_69_3417"/>
</filter>
<linearGradient id="paint0_linear_69_3417" x1="245.5" y1="262.5" x2="266.5" y2="245.5" gradientUnits="userSpaceOnUse">
<stop stop-color="#3D43FF" stop-opacity="0"/>
<stop offset="1" stop-color="#3D43FF"/>
</linearGradient>
<linearGradient id="paint1_linear_69_3417" x1="227.848" y1="262.581" x2="239.897" y2="266.402" gradientUnits="userSpaceOnUse">
<stop stop-color="white"/>
<stop offset="1" stop-color="white" stop-opacity="0"/>
</linearGradient>
<linearGradient id="paint2_linear_69_3417" x1="289.699" y1="290.25" x2="310.699" y2="302.25" gradientUnits="userSpaceOnUse">
<stop stop-color="white"/>
<stop offset="1" stop-color="white" stop-opacity="0"/>
</linearGradient>
<linearGradient id="paint3_linear_69_3417" x1="289.699" y1="219" x2="310.699" y2="231" gradientUnits="userSpaceOnUse">
<stop stop-color="white"/>
<stop offset="1" stop-color="white" stop-opacity="0"/>
</linearGradient>
<linearGradient id="paint4_linear_69_3417" x1="289.699" y1="147.75" x2="310.699" y2="159.75" gradientUnits="userSpaceOnUse">
<stop stop-color="white"/>
<stop offset="1" stop-color="white" stop-opacity="0"/>
</linearGradient>
<linearGradient id="paint5_linear_69_3417" x1="289.699" y1="76.4994" x2="310.699" y2="88.4994" gradientUnits="userSpaceOnUse">
<stop stop-color="white"/>
<stop offset="1" stop-color="white" stop-opacity="0"/>
</linearGradient>
<linearGradient id="paint6_linear_69_3417" x1="289.699" y1="5.24891" x2="310.699" y2="17.2489" gradientUnits="userSpaceOnUse">
<stop stop-color="white"/>
<stop offset="1" stop-color="white" stop-opacity="0"/>
</linearGradient>
<linearGradient id="paint7_linear_69_3417" x1="227.828" y1="40.8739" x2="248.828" y2="52.8739" gradientUnits="userSpaceOnUse">
<stop stop-color="white"/>
<stop offset="1" stop-color="white" stop-opacity="0"/>
</linearGradient>
<linearGradient id="paint8_linear_69_3417" x1="165.987" y1="76.4994" x2="186.985" y2="88.4967" gradientUnits="userSpaceOnUse">
<stop stop-color="white"/>
<stop offset="1" stop-color="white" stop-opacity="0"/>
</linearGradient>
<linearGradient id="paint9_linear_69_3417" x1="104.141" y1="108.207" x2="123.088" y2="121.2" gradientUnits="userSpaceOnUse">
<stop stop-color="white"/>
<stop offset="1" stop-color="white" stop-opacity="0"/>
</linearGradient>
<linearGradient id="paint10_linear_69_3417" x1="42.2969" y1="147.75" x2="63.2969" y2="159.75" gradientUnits="userSpaceOnUse">
<stop stop-color="white"/>
<stop offset="1" stop-color="white" stop-opacity="0"/>
</linearGradient>
<linearGradient id="paint11_linear_69_3417" x1="104.148" y1="183.375" x2="125.148" y2="195.375" gradientUnits="userSpaceOnUse">
<stop stop-color="white"/>
<stop offset="1" stop-color="white" stop-opacity="0"/>
</linearGradient>
<linearGradient id="paint12_linear_69_3417" x1="166" y1="219" x2="187" y2="231" gradientUnits="userSpaceOnUse">
<stop stop-color="white"/>
<stop offset="1" stop-color="white" stop-opacity="0"/>
</linearGradient>
<linearGradient id="paint13_linear_69_3417" x1="289.632" y1="269.5" x2="289.632" y2="223" gradientUnits="userSpaceOnUse">
<stop stop-color="#0008FF" stop-opacity="0"/>
<stop offset="1" stop-color="#0008FF"/>
</linearGradient>
<linearGradient id="paint14_linear_69_3417" x1="289.632" y1="290.504" x2="289.632" y2="274.564" gradientUnits="userSpaceOnUse">
<stop stop-color="white"/>
<stop offset="1" stop-color="white" stop-opacity="0"/>
</linearGradient>
<linearGradient id="paint15_linear_69_3417" x1="289.632" y1="201" x2="289.632" y2="157.5" gradientUnits="userSpaceOnUse">
<stop stop-color="#0008FF" stop-opacity="0"/>
<stop offset="1" stop-color="#0008FF"/>
</linearGradient>
<linearGradient id="paint16_linear_69_3417" x1="289.632" y1="219.253" x2="289.632" y2="203.314" gradientUnits="userSpaceOnUse">
<stop stop-color="white"/>
<stop offset="1" stop-color="white" stop-opacity="0"/>
</linearGradient>
<linearGradient id="paint17_linear_69_3417" x1="290" y1="130" x2="290" y2="72" gradientUnits="userSpaceOnUse">
<stop stop-color="#0008FF" stop-opacity="0"/>
<stop offset="1" stop-color="#0008FF"/>
</linearGradient>
<linearGradient id="paint18_linear_69_3417" x1="289.632" y1="148.003" x2="289.632" y2="132.064" gradientUnits="userSpaceOnUse">
<stop stop-color="white"/>
<stop offset="1" stop-color="white" stop-opacity="0"/>
</linearGradient>
<linearGradient id="paint19_linear_69_3417" x1="279.753" y1="68.3493" x2="253.247" y2="31.1507" gradientUnits="userSpaceOnUse">
<stop stop-color="#0008FF" stop-opacity="0"/>
<stop offset="1" stop-color="#0008FF"/>
</linearGradient>
<linearGradient id="paint20_linear_69_3417" x1="299.922" y1="76.7526" x2="299.922" y2="60.8133" gradientUnits="userSpaceOnUse">
<stop stop-color="white"/>
<stop offset="1" stop-color="white" stop-opacity="0"/>
</linearGradient>
<linearGradient id="paint21_linear_69_3417" x1="289.632" y1="5.50227" x2="289.632" y2="-15.7511" gradientUnits="userSpaceOnUse">
<stop stop-color="white"/>
<stop offset="1" stop-color="white" stop-opacity="0"/>
</linearGradient>
<linearGradient id="paint22_linear_69_3417" x1="227.764" y1="41.1275" x2="227.764" y2="19.8741" gradientUnits="userSpaceOnUse">
<stop stop-color="white"/>
<stop offset="1" stop-color="white" stop-opacity="0"/>
</linearGradient>
<linearGradient id="paint23_linear_69_3417" x1="165.916" y1="76.7526" x2="165.916" y2="55.4993" gradientUnits="userSpaceOnUse">
<stop stop-color="white"/>
<stop offset="1" stop-color="white" stop-opacity="0"/>
</linearGradient>
<linearGradient id="paint24_linear_69_3417" x1="104.073" y1="112.378" x2="104.073" y2="91.1245" gradientUnits="userSpaceOnUse">
<stop stop-color="white"/>
<stop offset="1" stop-color="white" stop-opacity="0"/>
</linearGradient>
<linearGradient id="paint25_linear_69_3417" x1="42.2297" y1="148.003" x2="42.2297" y2="126.75" gradientUnits="userSpaceOnUse">
<stop stop-color="white"/>
<stop offset="1" stop-color="white" stop-opacity="0"/>
</linearGradient>
<linearGradient id="paint26_linear_69_3417" x1="104.081" y1="183.628" x2="104.081" y2="162.375" gradientUnits="userSpaceOnUse">
<stop stop-color="white"/>
<stop offset="1" stop-color="white" stop-opacity="0"/>
</linearGradient>
<linearGradient id="paint27_linear_69_3417" x1="165.933" y1="219.253" x2="165.933" y2="198" gradientUnits="userSpaceOnUse">
<stop stop-color="white"/>
<stop offset="1" stop-color="white" stop-opacity="0"/>
</linearGradient>
<linearGradient id="paint28_linear_69_3417" x1="225" y1="238" x2="276.5" y2="231" gradientUnits="userSpaceOnUse">
<stop stop-color="#0008FF" stop-opacity="0"/>
<stop offset="1" stop-color="#0008FF"/>
</linearGradient>
<linearGradient id="paint29_linear_69_3417" x1="217.481" y1="254.879" x2="217.481" y2="243" gradientUnits="userSpaceOnUse">
<stop stop-color="white"/>
<stop offset="1" stop-color="white" stop-opacity="0"/>
</linearGradient>
<linearGradient id="paint30_linear_69_3417" x1="270.199" y1="298.75" x2="289.699" y2="290.25" gradientUnits="userSpaceOnUse">
<stop stop-color="white" stop-opacity="0"/>
<stop offset="1" stop-color="white"/>
</linearGradient>
<linearGradient id="paint31_linear_69_3417" x1="270.199" y1="227.5" x2="289.699" y2="219" gradientUnits="userSpaceOnUse">
<stop stop-color="white" stop-opacity="0"/>
<stop offset="1" stop-color="white"/>
</linearGradient>
<linearGradient id="paint32_linear_69_3417" x1="270.199" y1="156.25" x2="289.699" y2="147.75" gradientUnits="userSpaceOnUse">
<stop stop-color="white" stop-opacity="0"/>
<stop offset="1" stop-color="white"/>
</linearGradient>
<linearGradient id="paint33_linear_69_3417" x1="262.5" y1="95.0001" x2="250.5" y2="52.5001" gradientUnits="userSpaceOnUse">
<stop stop-color="#0006B8" stop-opacity="0"/>
<stop offset="1" stop-color="#0006B8"/>
</linearGradient>
<linearGradient id="paint34_linear_69_3417" x1="270.199" y1="91.5321" x2="288.421" y2="82.0031" gradientUnits="userSpaceOnUse">
<stop stop-color="white" stop-opacity="0"/>
<stop offset="1" stop-color="white"/>
</linearGradient>
<linearGradient id="paint35_linear_69_3417" x1="280" y1="12.9999" x2="231.114" y2="30.2514" gradientUnits="userSpaceOnUse">
<stop stop-color="#0006B8" stop-opacity="0"/>
<stop offset="1" stop-color="#0006B8"/>
</linearGradient>
<linearGradient id="paint36_linear_69_3417" x1="270.199" y1="13.7489" x2="289.699" y2="5.24891" gradientUnits="userSpaceOnUse">
<stop stop-color="white" stop-opacity="0"/>
<stop offset="1" stop-color="white"/>
</linearGradient>
<linearGradient id="paint37_linear_69_3417" x1="220.5" y1="52.9998" x2="176.5" y2="91.4998" gradientUnits="userSpaceOnUse">
<stop stop-color="#0006B8" stop-opacity="0"/>
<stop offset="1" stop-color="#0006B8"/>
</linearGradient>
<linearGradient id="paint38_linear_69_3417" x1="208.331" y1="49.3739" x2="227.829" y2="40.876" gradientUnits="userSpaceOnUse">
<stop stop-color="white" stop-opacity="0"/>
<stop offset="1" stop-color="white"/>
</linearGradient>
<linearGradient id="paint39_linear_69_3417" x1="148" y1="85.5001" x2="125" y2="107.5" gradientUnits="userSpaceOnUse">
<stop stop-color="#0006B8" stop-opacity="0"/>
<stop offset="1" stop-color="#0006B8"/>
</linearGradient>
<linearGradient id="paint40_linear_69_3417" x1="146.492" y1="84.9994" x2="165.992" y2="76.4994" gradientUnits="userSpaceOnUse">
<stop stop-color="white" stop-opacity="0"/>
<stop offset="1" stop-color="white"/>
</linearGradient>
<linearGradient id="paint41_linear_69_3417" x1="83" y1="105.5" x2="58" y2="143.5" gradientUnits="userSpaceOnUse">
<stop stop-color="#0006B8" stop-opacity="0"/>
<stop offset="1" stop-color="#0006B8"/>
</linearGradient>
<linearGradient id="paint42_linear_69_3417" x1="84.6445" y1="115.293" x2="102.865" y2="105.763" gradientUnits="userSpaceOnUse">
<stop stop-color="white" stop-opacity="0"/>
<stop offset="1" stop-color="white"/>
</linearGradient>
<linearGradient id="paint43_linear_69_3417" x1="22.8008" y1="156.25" x2="42.3008" y2="147.75" gradientUnits="userSpaceOnUse">
<stop stop-color="white" stop-opacity="0"/>
<stop offset="1" stop-color="white"/>
</linearGradient>
<linearGradient id="paint44_linear_69_3417" x1="84.6484" y1="191.875" x2="104.148" y2="183.375" gradientUnits="userSpaceOnUse">
<stop stop-color="white" stop-opacity="0"/>
<stop offset="1" stop-color="white"/>
</linearGradient>
<linearGradient id="paint45_linear_69_3417" x1="146.5" y1="227.5" x2="166" y2="219" gradientUnits="userSpaceOnUse">
<stop stop-color="white" stop-opacity="0"/>
<stop offset="1" stop-color="white"/>
</linearGradient>
<linearGradient id="paint46_linear_69_3417" x1="208.342" y1="263.125" x2="227.846" y2="254.621" gradientUnits="userSpaceOnUse">
<stop stop-color="white" stop-opacity="0"/>
<stop offset="1" stop-color="white"/>
</linearGradient>
</defs>
</svg>
