<svg width="276" height="353" viewBox="0 0 276 353" fill="none" xmlns="http://www.w3.org/2000/svg">
<g opacity="0.6">
<path d="M187.648 28.9193L210.965 69.3341L257.673 69.2917L234.356 28.877L187.648 28.9193Z" fill="#3D43FF" stroke="url(#paint0_linear_69_3319)" stroke-width="0.5" stroke-linejoin="round"/>
<path d="M187.575 109.791L210.966 69.3338L187.649 28.9191L164.258 69.3762L187.575 109.791Z" fill="#666BFF" stroke="url(#paint1_linear_69_3319)" stroke-width="0.5" stroke-linejoin="round"/>
<path d="M210.965 69.3344L187.574 109.791L234.282 109.749L257.673 69.292L210.965 69.3344Z" fill="#1D24FF" stroke="url(#paint2_linear_69_3319)" stroke-width="0.5" stroke-linejoin="round"/>
<path d="M304.385 -11.4956L280.989 -51.958L257.672 -11.5433L281.063 28.9139L304.38 -11.5009L304.385 -11.4956Z" fill="#1D24FF" stroke="url(#paint3_linear_69_3319)" stroke-width="0.5" stroke-linejoin="round"/>
<path d="M210.965 -11.5856L234.356 28.8715L281.064 28.9139L257.673 -11.5432L210.965 -11.5856Z" fill="#3D43FF" stroke="url(#paint4_linear_69_3319)" stroke-width="0.5" stroke-linejoin="round"/>
<path d="M94.3398 109.771H140.974L164.29 69.2657H117.657L94.3398 109.771Z" fill="#3D43FF" stroke="url(#paint5_linear_69_3319)" stroke-width="0.5" stroke-linejoin="round"/>
<path d="M164.29 150.275L140.974 109.77H94.3398L117.657 150.275H164.29Z" fill="#666BFF" stroke="url(#paint6_linear_69_3319)" stroke-width="0.5" stroke-linejoin="round"/>
<path d="M140.977 109.771L164.293 150.275L187.61 109.771L164.293 69.2657L140.977 109.771Z" fill="#1D24FF" stroke="url(#paint7_linear_69_3319)" stroke-width="0.5" stroke-linejoin="round"/>
<path d="M117.661 -11.6543H71.0273L94.3442 28.8505H140.978L117.661 -11.6543Z" fill="#1D24FF" stroke="url(#paint8_linear_69_3319)" stroke-width="0.5" stroke-linejoin="round"/>
<path d="M117.661 69.3553L140.978 28.8506H94.3442L71.0273 69.3553H117.661Z" fill="#3D43FF" stroke="url(#paint9_linear_69_3319)" stroke-width="0.5" stroke-linejoin="round"/>
<path d="M71.0278 -11.6542L47.7109 28.8506L71.0278 69.3553L94.3447 28.8506L71.0278 -11.6542Z" fill="#666BFF" stroke="url(#paint10_linear_69_3319)" stroke-width="0.5" stroke-linejoin="round"/>
<path d="M117.657 231.057L140.973 190.642L117.582 150.185L94.2656 190.6L117.657 231.057Z" fill="#3D43FF" stroke="url(#paint11_linear_69_3319)" stroke-width="0.5" stroke-linejoin="round"/>
<path d="M187.681 190.69L140.973 190.647L117.656 231.062L164.364 231.105L187.681 190.69Z" fill="#666BFF" stroke="url(#paint12_linear_69_3319)" stroke-width="0.5" stroke-linejoin="round"/>
<path d="M140.977 190.642L187.685 190.685L164.294 150.227L117.586 150.185L140.977 190.642Z" fill="#1D24FF" stroke="url(#paint13_linear_69_3319)" stroke-width="0.5" stroke-linejoin="round"/>
<path d="M94.4227 190.6L71.1058 150.185L47.7148 190.642L71.0317 231.057L94.4227 190.6Z" fill="#3D43FF" stroke="url(#paint14_linear_69_3319)" stroke-width="0.5" stroke-linejoin="round"/>
<path d="M24.3169 231.105L71.0247 231.062L47.7078 190.647L1 190.69L24.3169 231.105Z" fill="#666BFF" stroke="url(#paint15_linear_69_3319)" stroke-width="0.5" stroke-linejoin="round"/>
<path d="M71.104 150.185L24.3962 150.227L1 190.69L47.7078 190.647L71.0987 150.19L71.104 150.185Z" fill="#1D24FF" stroke="url(#paint16_linear_69_3319)" stroke-width="0.5" stroke-linejoin="round"/>
<path d="M234.282 271.493L210.966 231.078L164.258 231.12L187.575 271.535L234.282 271.493Z" fill="#3D43FF" stroke="url(#paint17_linear_69_3319)" stroke-width="0.5" stroke-linejoin="round"/>
<path d="M234.356 190.621L210.965 231.078L234.282 271.493L257.673 231.036L234.356 190.621Z" fill="#666BFF" stroke="url(#paint18_linear_69_3319)" stroke-width="0.5" stroke-linejoin="round"/>
<path d="M210.966 231.078L234.357 190.621L187.649 190.663L164.258 231.121L210.966 231.078Z" fill="#1D24FF" stroke="url(#paint19_linear_69_3319)" stroke-width="0.5" stroke-linejoin="round"/>
<path d="M187.645 352.412L210.962 311.997L164.254 311.955L140.938 352.37L187.645 352.412Z" fill="#666BFF" stroke="url(#paint20_linear_69_3319)" stroke-width="0.5" stroke-linejoin="round"/>
<path d="M117.539 311.908L140.93 352.365L164.247 311.95L140.856 271.493L117.539 311.908Z" fill="#1D24FF" stroke="url(#paint21_linear_69_3319)" stroke-width="0.5" stroke-linejoin="round"/>
<path d="M210.966 311.998L187.575 271.54L140.867 271.498L164.258 311.955L210.966 311.998Z" fill="#3D43FF" stroke="url(#paint22_linear_69_3319)" stroke-width="0.5" stroke-linejoin="round"/>
<path d="M327.583 190.643H280.95L257.633 231.147H304.267L327.583 190.643Z" fill="#3D43FF" stroke="url(#paint23_linear_69_3319)" stroke-width="0.5" stroke-linejoin="round"/>
<path d="M257.633 150.138L280.95 190.642H327.583L304.267 150.138H257.633Z" fill="#666BFF" stroke="url(#paint24_linear_69_3319)" stroke-width="0.5" stroke-linejoin="round"/>
<path d="M280.95 190.642L257.633 150.138L234.316 190.642L257.633 231.147L280.95 190.642Z" fill="#1D24FF" stroke="url(#paint25_linear_69_3319)" stroke-width="0.5" stroke-linejoin="round"/>
<path d="M234.242 109.728L280.95 109.771L304.267 69.3558L257.559 69.3135L234.242 109.728Z" fill="#666BFF" stroke="url(#paint26_linear_69_3319)" stroke-width="0.5" stroke-linejoin="round"/>
<path d="M280.95 109.77L234.242 109.728L257.633 150.185L304.341 150.227L280.95 109.77Z" fill="#1D24FF" stroke="url(#paint27_linear_69_3319)" stroke-width="0.5" stroke-linejoin="round"/>
</g>
<path d="M164.729 284.211L164.819 282.944C164.825 282.849 164.904 282.791 165.026 282.791L175.698 282.759C175.825 282.759 175.968 282.817 176.084 282.913L186.157 291.104C186.215 291.147 186.263 291.2 186.29 291.253C186.321 291.311 186.337 291.359 186.332 291.412L185.733 299.63C185.728 299.725 185.648 299.784 185.527 299.784L174.86 299.815C174.739 299.815 174.59 299.757 174.474 299.662L172.942 298.417L181.187 295.1C181.261 295.068 181.266 294.999 181.224 294.925C181.182 294.851 181.097 294.782 180.986 294.75L177.022 293.68C176.906 293.648 176.805 293.648 176.736 293.68L170.298 296.265L169.254 295.412L174.521 293.293C174.595 293.261 174.601 293.192 174.558 293.118C174.516 293.044 174.431 292.975 174.32 292.943L170.362 291.867C170.251 291.836 170.145 291.836 170.07 291.867L166.61 293.261L164.401 291.465C164.348 291.422 164.305 291.375 164.279 291.327C164.279 291.322 164.274 291.316 164.268 291.311C164.237 291.258 164.221 291.205 164.221 291.157L164.353 289.372L182.893 294.39C183.063 294.432 183.153 294.342 183.079 294.215L181.881 292.138C181.791 291.979 181.6 291.841 181.41 291.793L165.291 287.432L165.577 286.638L180.805 290.755C180.964 290.797 181.055 290.707 180.98 290.58L179.783 288.503C179.693 288.344 179.502 288.206 179.311 288.158L164.74 284.216M187.842 291.247C187.673 290.956 187.418 290.665 187.095 290.405L177.028 282.219C176.386 281.694 175.57 281.371 174.892 281.376L164.226 281.408C163.548 281.408 163.103 281.736 163.066 282.261L162.472 290.479C162.451 290.739 162.53 291.03 162.7 291.327C162.87 291.624 163.124 291.915 163.447 292.175L173.515 300.361C174.156 300.886 174.966 301.204 175.65 301.204L186.316 301.172C186.994 301.172 187.439 300.849 187.477 300.324L188.07 292.111C188.091 291.846 188.006 291.555 187.837 291.258" fill="white" fill-opacity="0.8"/>
<path d="M163.869 337.347L162.82 336.637C162.74 336.584 162.73 336.488 162.788 336.377L168.097 327.12C168.161 327.014 168.283 326.914 168.421 326.861L180.549 322.235C180.618 322.208 180.687 322.192 180.745 322.192C180.809 322.192 180.862 322.208 180.904 322.235L187.724 326.861C187.808 326.914 187.814 327.009 187.755 327.12L182.446 336.372C182.388 336.478 182.266 336.578 182.123 336.631L180.279 337.336L181.529 328.535C181.54 328.455 181.482 328.413 181.397 328.413C181.312 328.413 181.212 328.455 181.132 328.535L178.218 331.428C178.133 331.507 178.08 331.598 178.075 331.677L177.094 338.549L175.833 339.032L176.634 333.41C176.644 333.33 176.586 333.288 176.501 333.288C176.416 333.288 176.31 333.33 176.231 333.41L173.327 336.303C173.242 336.382 173.189 336.472 173.184 336.557L172.654 340.25L169.994 341.268C169.931 341.289 169.867 341.305 169.809 341.305C169.804 341.305 169.798 341.305 169.788 341.305C169.729 341.305 169.671 341.294 169.634 341.268L168.15 340.261L181.768 326.712C181.89 326.59 181.858 326.468 181.71 326.468H179.309C179.129 326.468 178.912 326.564 178.774 326.702L166.937 338.481L166.391 337.834L177.577 326.702C177.688 326.585 177.656 326.463 177.508 326.463H175.107C174.927 326.463 174.71 326.559 174.572 326.696L163.869 337.347ZM181.524 320.847C181.185 320.847 180.809 320.921 180.422 321.069L168.299 325.695C167.525 325.992 166.836 326.532 166.502 327.12L161.193 336.372C160.854 336.96 160.918 337.506 161.352 337.802L168.172 342.428C168.383 342.571 168.68 342.651 169.019 342.651C169.358 342.651 169.74 342.576 170.127 342.428L182.25 337.802C183.029 337.506 183.713 336.965 184.052 336.372L189.361 327.12C189.7 326.532 189.636 325.986 189.202 325.69L182.388 321.069C182.165 320.921 181.874 320.847 181.529 320.847" fill="white" fill-opacity="0.8"/>
<path d="M132.202 309.628L131.884 307.657C131.858 307.504 131.884 307.35 131.942 307.244L137.305 298.019C137.368 297.913 137.458 297.871 137.543 297.918L144.956 301.516C144.998 301.537 145.035 301.574 145.067 301.627C145.099 301.68 145.12 301.744 145.136 301.823L147.197 314.636C147.218 314.784 147.197 314.943 147.139 315.049L141.777 324.274C141.718 324.38 141.623 324.417 141.538 324.375L140.41 323.829L143.61 311.769C143.637 311.658 143.621 311.547 143.578 311.478C143.536 311.409 143.472 311.372 143.409 311.419L141.104 313.226C141.04 313.274 140.987 313.364 140.961 313.475L138.465 322.891L137.691 322.515L139.737 314.81C139.768 314.699 139.747 314.588 139.705 314.514C139.663 314.44 139.599 314.408 139.535 314.461L137.236 316.262C137.167 316.31 137.119 316.4 137.093 316.511L135.747 321.577L134.12 320.787C134.078 320.766 134.041 320.724 134.009 320.671C133.977 320.618 133.956 320.554 133.94 320.475L133.495 317.693L144.267 309.247C144.362 309.173 144.384 308.955 144.309 308.828L143.107 306.746C143.017 306.592 142.884 306.545 142.773 306.635L133.41 313.973L133.325 312.537L142.169 305.601C142.264 305.527 142.285 305.315 142.206 305.183L141.003 303.1C140.913 302.947 140.781 302.899 140.669 302.989L132.202 309.628ZM145.857 300.276C145.687 299.98 145.475 299.768 145.242 299.651L137.824 296.058C137.352 295.831 136.849 296.048 136.51 296.636L131.148 305.861C130.808 306.444 130.676 307.318 130.808 308.134L132.864 320.952C132.928 321.354 133.05 321.72 133.225 322.017C133.399 322.313 133.606 322.525 133.839 322.642L141.257 326.234C141.729 326.468 142.232 326.245 142.571 325.657L147.934 316.432C148.273 315.849 148.405 314.975 148.273 314.159L146.217 301.352C146.148 300.944 146.026 300.573 145.857 300.282" fill="white" fill-opacity="0.8"/>
<path d="M34.259 160.736C34.0576 160.736 33.8192 160.805 33.5967 160.932L31.3765 162.214L29.1564 163.496C28.8331 163.682 28.6106 163.957 28.5735 164.206L27.7893 169.712C27.7681 169.828 27.6992 169.956 27.5827 170.067L22.0561 175.572C21.8071 175.816 21.717 176.097 21.8283 176.282L22.5754 177.564L23.3225 178.847C23.3967 178.974 23.5557 179.043 23.757 179.043C23.8471 179.043 23.9478 179.027 24.0537 179L31.5143 176.976C31.7156 176.923 31.9064 176.786 31.9965 176.627L32.5952 175.583C32.6906 175.413 32.7065 175.254 32.6376 175.132L31.9223 173.914C31.8799 173.839 31.7845 173.797 31.6679 173.797C31.615 173.797 31.5514 173.808 31.4878 173.824L27.2806 174.963C27.2806 174.963 27.2382 174.973 27.2171 174.973C27.1111 174.973 27.074 174.883 27.1747 174.788L30.2532 171.725C30.4016 171.577 30.4545 171.413 30.391 171.301L29.6968 170.109C29.6279 169.993 29.7392 169.797 29.9459 169.68L32.0071 168.493C32.1978 168.382 32.3356 168.218 32.3568 168.069L32.7966 165.007C32.8072 164.911 32.9502 164.821 33.0562 164.821C33.0721 164.821 33.0933 164.821 33.1092 164.832L36.0075 165.971C36.0499 165.987 36.1029 165.997 36.1559 165.997C36.2778 165.997 36.4155 165.955 36.548 165.881L38.6622 164.662C38.8688 164.54 39.0384 164.381 39.1338 164.212L39.7325 163.168C39.8226 163.014 39.7855 162.876 39.653 162.818L34.5133 160.794C34.4391 160.768 34.3597 160.752 34.2643 160.752" fill="white" fill-opacity="0.8"/>
<path d="M48.6407 160.736C48.5506 160.736 48.4499 160.752 48.3492 160.778L40.8834 162.802C40.6821 162.855 40.4966 162.993 40.4065 163.152L39.8078 164.196C39.7124 164.365 39.6912 164.524 39.7654 164.646L40.4754 165.865C40.5178 165.939 40.6132 165.981 40.735 165.981C40.788 165.981 40.8516 165.971 40.9099 165.955L45.117 164.816C45.117 164.816 45.1594 164.805 45.1806 164.805C45.2866 164.805 45.3184 164.895 45.223 164.99L42.1392 168.053C41.9908 168.201 41.9378 168.366 42.0067 168.477L42.7009 169.664C42.7697 169.78 42.6585 169.977 42.4518 170.093L40.3959 171.285C40.2052 171.391 40.0674 171.561 40.0462 171.709L39.6117 174.772C39.5958 174.867 39.4581 174.957 39.3521 174.957C39.3362 174.957 39.315 174.957 39.2991 174.947L36.3954 173.807C36.353 173.792 36.3001 173.781 36.2471 173.781C36.1252 173.781 35.9874 173.823 35.855 173.898L33.7461 175.116C33.5395 175.233 33.3699 175.397 33.2745 175.567L32.6758 176.61C32.5857 176.764 32.6175 176.902 32.7552 176.96L37.9003 178.984C37.9744 179.011 38.0592 179.027 38.1493 179.027C38.3506 179.027 38.5838 178.958 38.8063 178.831L41.0265 177.548L43.2466 176.266C43.5698 176.081 43.7977 175.805 43.8348 175.556L44.619 170.051C44.6349 169.934 44.7091 169.807 44.8256 169.696L50.3521 164.19C50.6012 163.947 50.686 163.666 50.58 163.48L49.8329 162.198L49.0858 160.916C49.0116 160.789 48.8526 160.72 48.6513 160.72" fill="white" fill-opacity="0.8"/>
<path d="M60.6668 185.899C60.5661 186.073 60.5078 186.317 60.5078 186.572V189.136V191.701C60.5078 192.066 60.635 192.4 60.8257 192.554L65.1971 195.987C65.2872 196.067 65.3614 196.189 65.4038 196.342L67.4067 203.882C67.4968 204.216 67.6875 204.433 67.9048 204.433L69.3884 204.423L70.872 204.412C71.0204 204.412 71.1581 204.306 71.2588 204.131C71.3065 204.052 71.3436 203.962 71.3701 203.856L73.3465 196.385C73.3995 196.183 73.373 195.945 73.2829 195.791L72.6789 194.753C72.5835 194.583 72.451 194.493 72.3133 194.493L70.9038 194.504C70.8137 194.504 70.7289 194.567 70.6707 194.673C70.6442 194.721 70.623 194.774 70.6071 194.837L69.4944 199.05C69.4944 199.05 69.4785 199.092 69.4679 199.113C69.4149 199.204 69.3195 199.182 69.2824 199.055L68.1697 194.859C68.1167 194.663 68.0001 194.53 67.873 194.53L66.4953 194.541C66.3575 194.541 66.2463 194.345 66.241 194.106V191.727C66.241 191.505 66.1668 191.309 66.0502 191.213L63.6128 189.3C63.5387 189.242 63.5281 189.073 63.581 188.982C63.5916 188.967 63.6022 188.951 63.6128 188.94L66.0502 187.001C66.0873 186.974 66.1191 186.932 66.1509 186.884C66.2092 186.778 66.2463 186.635 66.2463 186.481V184.049C66.2463 183.811 66.1933 183.583 66.0926 183.419L65.4886 182.375C65.3985 182.221 65.2607 182.179 65.1441 182.274L60.8204 185.713C60.7621 185.761 60.7092 185.824 60.6615 185.904" fill="white" fill-opacity="0.8"/>
<path d="M67.8545 173.447C67.8068 173.527 67.7697 173.617 67.7432 173.723L65.7615 181.199C65.7085 181.401 65.735 181.628 65.8251 181.787L66.4291 182.831C66.5245 183.001 66.657 183.096 66.7947 183.091L68.2042 183.08C68.2943 183.08 68.3737 183.017 68.4373 182.916C68.4638 182.868 68.485 182.81 68.5009 182.746L69.6189 178.534C69.6189 178.534 69.6348 178.492 69.6401 178.476C69.6931 178.386 69.7885 178.402 69.8256 178.534L70.9436 182.736C70.9966 182.937 71.1131 183.064 71.2403 183.064H72.618C72.761 183.054 72.8723 183.25 72.8723 183.488V185.862C72.8723 186.085 72.9465 186.286 73.0631 186.376L75.5004 188.289C75.5746 188.352 75.5905 188.517 75.5375 188.607C75.5269 188.623 75.5163 188.639 75.5004 188.649L73.0631 190.594C73.026 190.62 72.9942 190.657 72.9677 190.705C72.9094 190.811 72.8723 190.954 72.8723 191.108V193.54C72.8723 193.778 72.9253 194.006 73.026 194.17L73.63 195.209C73.7201 195.363 73.8526 195.405 73.9744 195.32L78.2981 191.876C78.3564 191.828 78.4094 191.765 78.4571 191.685C78.5578 191.51 78.6161 191.272 78.6161 191.018V188.453V185.889C78.6161 185.518 78.4889 185.179 78.2981 185.03L73.9214 181.597C73.8314 181.528 73.7572 181.401 73.7148 181.242L71.7119 173.702C71.6218 173.363 71.4258 173.151 71.2138 173.156L69.7302 173.166L68.2466 173.177C68.0982 173.177 67.9604 173.278 67.8598 173.453" fill="white" fill-opacity="0.8"/>
<path d="M23.7728 201.202C23.5714 201.202 23.4125 201.271 23.3383 201.398L22.5912 202.68L21.8441 203.963C21.7328 204.143 21.8229 204.424 22.0666 204.667L27.5984 210.173C27.715 210.289 27.7839 210.416 27.8051 210.528L28.5893 216.033C28.6211 216.277 28.8542 216.552 29.1721 216.738L31.3923 218.02L33.6124 219.302C33.8349 219.429 34.0734 219.498 34.2747 219.498C34.3648 219.498 34.4496 219.482 34.5185 219.456L39.6635 217.432C39.7959 217.374 39.833 217.236 39.743 217.082L39.1442 216.038C39.0488 215.869 38.874 215.71 38.6726 215.588L36.5585 214.369C36.426 214.29 36.2829 214.253 36.1611 214.253C36.1081 214.253 36.0604 214.263 36.018 214.279L33.1196 215.418C33.1196 215.418 33.0825 215.429 33.0666 215.429C32.9607 215.429 32.8229 215.339 32.8123 215.238L32.3725 212.176C32.3513 212.033 32.2136 211.863 32.0228 211.752L29.9669 210.565C29.7603 210.443 29.649 210.252 29.7179 210.13L30.412 208.943C30.4756 208.832 30.4279 208.668 30.2795 208.52L27.201 205.452C27.1056 205.356 27.1374 205.266 27.2434 205.266C27.2593 205.266 27.2805 205.266 27.307 205.277L31.5141 206.416C31.5777 206.432 31.6413 206.442 31.6943 206.442C31.8162 206.442 31.9062 206.4 31.9486 206.326L32.6639 205.107C32.7328 204.991 32.7169 204.826 32.6216 204.657L32.0228 203.613C31.9327 203.459 31.742 203.322 31.5406 203.263L24.0748 201.239C23.9741 201.213 23.8734 201.197 23.7834 201.197" fill="white" fill-opacity="0.8"/>
<path d="M38.1518 201.202C38.0617 201.202 37.977 201.218 37.9081 201.244L32.7631 203.268C32.6253 203.321 32.5935 203.459 32.6836 203.618L33.2823 204.662C33.3777 204.831 33.5526 204.99 33.7592 205.112L35.8681 206.331C36.0005 206.405 36.1436 206.447 36.2602 206.447C36.3132 206.447 36.3662 206.437 36.4085 206.421L39.3069 205.282C39.3069 205.282 39.3387 205.271 39.3599 205.271C39.4659 205.271 39.6089 205.361 39.6195 205.456L40.054 208.524C40.0752 208.667 40.213 208.837 40.4037 208.948L42.4596 210.135C42.6663 210.257 42.7775 210.448 42.7087 210.57L42.0145 211.757C41.951 211.868 41.9986 212.032 42.147 212.181L45.2308 215.243C45.3262 215.339 45.2944 215.434 45.1884 215.434C45.1673 215.434 45.1461 215.434 45.1196 215.423L40.9124 214.284C40.8541 214.268 40.7958 214.258 40.7429 214.258C40.621 214.258 40.5256 214.3 40.4779 214.374L39.7679 215.593C39.6937 215.709 39.7096 215.874 39.805 216.043L40.4037 217.087C40.4938 217.241 40.6846 217.379 40.8859 217.437L48.3518 219.461C48.4524 219.487 48.5531 219.503 48.6432 219.503C48.8445 219.503 49.0035 219.434 49.0777 219.307L49.8248 218.025L50.5719 216.743C50.6779 216.557 50.5931 216.282 50.3494 216.038L44.8175 210.533C44.701 210.416 44.6321 210.294 44.6109 210.178L43.8267 204.672C43.7896 204.429 43.5618 204.148 43.2438 203.968L41.0237 202.685L38.8035 201.403C38.581 201.276 38.3426 201.207 38.1412 201.207" fill="white" fill-opacity="0.8"/>
<path d="M73.678 42.6245L63.9338 25.7429C63.8278 25.5575 63.6794 25.4568 63.5364 25.4515L59.6842 25.4303C59.4299 25.4303 59.3027 25.9549 59.4829 26.2622L69.2271 43.1438C69.3331 43.3292 69.4815 43.4299 69.6298 43.4352L73.482 43.4511C73.7363 43.4511 73.8582 42.9318 73.6833 42.6245" fill="white" fill-opacity="0.8"/>
<path d="M80.8699 30.257L71.1256 13.3754C71.0196 13.1953 70.8766 13.0946 70.7282 13.0893L66.8761 13.0681C66.627 13.0681 66.4999 13.5874 66.6747 13.8947L76.419 30.7763C76.525 30.9617 76.6733 31.0624 76.8164 31.0677L80.6685 31.0836C80.9229 31.0836 81.05 30.559 80.8699 30.2517" fill="white" fill-opacity="0.8"/>
<path d="M75.2342 32.822L65.49 15.9404C65.3098 15.6331 65.0078 15.8503 65.0078 16.2795V22.9294C65.0078 23.1837 65.0661 23.4327 65.1721 23.6182L74.9163 40.4998C75.0965 40.8071 75.3985 40.5951 75.3985 40.1553V33.5108C75.3985 33.2565 75.3402 33.0021 75.2342 32.8167" fill="white" fill-opacity="0.8"/>
<path d="M116.941 52.3104H97.4471C97.2299 52.3104 96.9862 52.3846 96.7689 52.5118L91.0092 55.834C90.6277 56.0513 90.596 56.4222 90.951 56.4222H110.445C110.662 56.4222 110.906 56.348 111.128 56.2208L116.883 52.8986C117.259 52.6813 117.296 52.3104 116.936 52.3104" fill="white" fill-opacity="0.8"/>
<path d="M124.06 39.9009H104.566C104.359 39.9009 104.115 39.9751 103.888 40.1022L98.1279 43.4245C97.7517 43.6417 97.7146 44.0127 98.075 44.0127H117.569C117.786 44.0127 118.03 43.9385 118.247 43.8113L124.001 40.489C124.383 40.2718 124.415 39.9009 124.06 39.9009Z" fill="white" fill-opacity="0.8"/>
<path d="M116.392 46.0684H96.8983C96.5433 46.0684 96.1512 46.4393 96.2784 46.6565L98.223 49.9788C98.2919 50.1059 98.4562 50.1801 98.6681 50.1801H118.162C118.517 50.1801 118.909 49.8092 118.782 49.592L116.843 46.2697C116.763 46.1425 116.604 46.0684 116.392 46.0684Z" fill="white" fill-opacity="0.8"/>
<path d="M107.413 16.9987L97.669 0.117177C97.5631 -0.0682762 97.3723 -0.243131 97.1551 -0.370299L91.4007 -3.69257C91.0192 -3.90981 90.6854 -3.75615 90.8602 -3.44883L100.605 13.4327C100.71 13.6182 100.901 13.793 101.118 13.9202L106.873 17.2425C107.254 17.4597 107.588 17.3061 107.413 16.9987Z" fill="white" fill-opacity="0.8"/>
<path d="M121.722 16.9615L111.978 0.0799458C111.872 -0.100209 111.686 -0.275064 111.469 -0.407531L105.709 -3.7298C105.328 -3.94705 104.994 -3.79338 105.169 -3.48606L114.913 13.3955C115.019 13.581 115.21 13.7558 115.427 13.883L121.181 17.2053C121.558 17.4225 121.897 17.2688 121.717 16.9615" fill="white" fill-opacity="0.8"/>
<path d="M112.545 13.4009L102.801 -3.48069C102.62 -3.78801 102.106 -3.94167 101.979 -3.72443L100.077 -0.375669C100.003 -0.2485 100.019 -0.0736451 100.125 0.111808L109.869 16.9934C110.049 17.3007 110.563 17.4544 110.685 17.2371L112.593 13.8937C112.667 13.7665 112.651 13.5863 112.545 13.4009Z" fill="white" fill-opacity="0.8"/>
<path d="M249.587 7.36492H248.363L248.883 8.94392H250.054C250.34 8.94392 250.552 8.87504 250.684 8.73727C250.822 8.60481 250.859 8.40876 250.779 8.15442C250.742 8.05375 250.705 7.96897 250.658 7.88949C250.557 7.71993 250.43 7.58746 250.266 7.50268C250.091 7.40731 249.868 7.35962 249.593 7.35962" fill="white" fill-opacity="0.8"/>
<path d="M242.153 7.32324C241.771 7.32324 241.501 7.42392 241.337 7.61467C241.183 7.81072 241.162 8.10745 241.273 8.50485C241.379 8.89695 241.533 9.37913 241.734 9.95138C241.777 10.068 241.83 10.1898 241.904 10.3223C242.211 10.8628 242.693 11.133 243.345 11.133C243.727 11.133 243.997 11.0376 244.15 10.8416C244.315 10.6455 244.336 10.3488 244.225 9.95138C244.06 9.40032 243.907 8.91814 243.753 8.50485C243.705 8.37768 243.647 8.25581 243.573 8.12334C243.266 7.58818 242.789 7.32324 242.142 7.32324" fill="white" fill-opacity="0.8"/>
<path d="M248.366 12.3081C248.291 12.3081 248.222 12.287 248.154 12.2499C248.095 12.2022 248.053 12.1492 248.032 12.0909L246.156 6.35774C246.129 6.29416 246.14 6.24117 246.182 6.20408C246.22 6.16169 246.267 6.14049 246.341 6.14049H249.054C249.812 6.14049 250.501 6.27826 251.105 6.54849C251.725 6.81872 252.181 7.21082 252.472 7.7195C252.557 7.86786 252.62 8.02152 252.673 8.18048C252.891 8.85871 252.832 9.35679 252.504 9.68C252.181 10.0032 251.571 10.1622 250.676 10.1622H249.298L249.939 12.0962C249.96 12.1598 249.955 12.2128 249.918 12.2552C249.881 12.2975 249.828 12.3134 249.759 12.3134H248.371M243.946 12.3982C243.136 12.3982 242.378 12.234 241.673 11.9054C240.969 11.5716 240.444 11.0948 240.089 10.4801C240.015 10.3529 239.941 10.1887 239.872 10.0032C239.718 9.57933 239.549 9.07066 239.374 8.47721C238.907 6.86111 239.644 6.05042 241.567 6.05042C242.092 6.05042 242.606 6.1246 243.109 6.28356C243.607 6.42662 244.063 6.65447 244.471 6.95119C244.879 7.24262 245.197 7.59763 245.435 8.01093C245.504 8.1328 245.584 8.28646 245.653 8.47721C245.849 8.99648 246.018 9.51045 246.156 10.0032C246.379 10.8033 246.315 11.4127 245.96 11.8101C245.6 12.2022 244.927 12.3982 243.952 12.3982M239.384 -2.46985C231.871 -2.46985 228.798 2.79173 232.517 9.27201C236.237 15.7576 245.345 21.0192 252.859 21.0192C260.372 21.0192 263.446 15.7576 259.726 9.27201C256.006 2.78644 246.903 -2.46985 239.384 -2.46985Z" fill="white" fill-opacity="0.8"/>
<path d="M283.797 -10.8715C283.76 -10.8079 283.717 -10.7761 283.675 -10.7814C283.627 -10.8026 283.595 -10.845 283.569 -10.9139L280.957 -17.8498C280.925 -17.924 280.914 -18.0141 280.92 -18.1094C280.93 -18.1995 280.946 -18.279 280.983 -18.3373L282.34 -20.6899C282.721 -21.3469 283.097 -21.7337 283.484 -21.8609C283.871 -21.9934 284.215 -21.8026 284.507 -21.2939C284.592 -21.1456 284.671 -20.9813 284.745 -20.7853C285.047 -19.964 285.169 -19.1692 285.095 -18.3956C285.031 -17.6326 284.766 -16.8643 284.321 -16.096L283.632 -14.9038L284.517 -12.5723C284.549 -12.4982 284.56 -12.4134 284.554 -12.318C284.544 -12.2279 284.528 -12.1484 284.491 -12.0902L283.797 -10.8874M281.608 -6.91336C281.206 -6.21394 280.776 -5.80064 280.326 -5.68407C279.876 -5.5728 279.473 -5.82713 279.118 -6.44178C279.044 -6.56895 278.959 -6.7438 278.864 -6.96105C278.662 -7.45912 278.434 -8.07376 278.17 -8.81028C277.465 -10.8238 277.592 -12.6571 278.562 -14.3315C278.821 -14.7872 279.102 -15.1157 279.399 -15.3223C279.69 -15.5343 279.987 -15.5926 280.273 -15.5025C280.559 -15.4124 280.824 -15.1687 281.068 -14.7554C281.137 -14.6335 281.222 -14.464 281.312 -14.252C281.561 -13.6374 281.799 -13.028 282.011 -12.4134C282.361 -11.4013 282.504 -10.4476 282.44 -9.5415C282.377 -8.64602 282.096 -7.76644 281.608 -6.91866M274.98 -25.162C271.223 -18.6552 271.218 -8.13735 274.98 -1.67298C278.736 4.7914 284.83 4.75431 288.587 -1.75245C292.343 -8.25922 292.343 -18.7718 288.587 -25.2415C284.83 -31.7058 278.736 -31.6687 274.98 -25.1673" fill="white" fill-opacity="0.8"/>
<g filter="url(#filter0_f_69_3319)">
<circle cx="210.588" cy="150.856" r="46.2949" fill="#B6B9FF"/>
</g>
<path d="M187.575 109.748L164.258 150.163L210.966 150.205L234.282 109.791L187.575 109.748Z" fill="#3D43FF" stroke="url(#paint28_linear_69_3319)" stroke-width="0.5" stroke-linejoin="round"/>
<path d="M257.677 150.247L234.286 109.79L210.969 150.205L234.36 190.662L257.677 150.247Z" fill="#666BFF" stroke="url(#paint29_linear_69_3319)" stroke-width="0.5" stroke-linejoin="round"/>
<path d="M164.258 150.163L187.649 190.62L234.357 190.663L210.966 150.206L164.258 150.163Z" fill="#1D24FF" stroke="url(#paint30_linear_69_3319)" stroke-width="0.5" stroke-linejoin="round"/>
<defs>
<filter id="filter0_f_69_3319" x="123.393" y="63.6609" width="174.39" height="174.39" filterUnits="userSpaceOnUse" color-interpolation-filters="sRGB">
<feFlood flood-opacity="0" result="BackgroundImageFix"/>
<feBlend mode="normal" in="SourceGraphic" in2="BackgroundImageFix" result="shape"/>
<feGaussianBlur stdDeviation="20.45" result="effect1_foregroundBlur_69_3319"/>
</filter>
<linearGradient id="paint0_linear_69_3319" x1="211.434" y1="69.2086" x2="223.218" y2="49.0072" gradientUnits="userSpaceOnUse">
<stop stop-color="#EBECF0"/>
<stop offset="1" stop-color="#EBECF0" stop-opacity="0"/>
</linearGradient>
<linearGradient id="paint1_linear_69_3319" x1="211.434" y1="69.2084" x2="187.866" y2="69.2084" gradientUnits="userSpaceOnUse">
<stop stop-color="#EBECF0"/>
<stop offset="1" stop-color="#EBECF0" stop-opacity="0"/>
</linearGradient>
<linearGradient id="paint2_linear_69_3319" x1="210.59" y1="69.2085" x2="223.216" y2="89.4099" gradientUnits="userSpaceOnUse">
<stop stop-color="#EBECF0"/>
<stop offset="1" stop-color="#EBECF0" stop-opacity="0"/>
</linearGradient>
<linearGradient id="paint3_linear_69_3319" x1="280.451" y1="-11.5974" x2="257.724" y2="-11.5974" gradientUnits="userSpaceOnUse">
<stop stop-color="#EBECF0" stop-opacity="0"/>
<stop offset="1" stop-color="#EBECF0"/>
</linearGradient>
<linearGradient id="paint4_linear_69_3319" x1="246.784" y1="8.60422" x2="258.568" y2="-11.5972" gradientUnits="userSpaceOnUse">
<stop stop-color="#EBECF0" stop-opacity="0"/>
<stop offset="1" stop-color="#EBECF0"/>
</linearGradient>
<linearGradient id="paint5_linear_69_3319" x1="140.727" y1="109.611" x2="128.943" y2="89.4098" gradientUnits="userSpaceOnUse">
<stop stop-color="#EBECF0"/>
<stop offset="1" stop-color="#EBECF0" stop-opacity="0"/>
</linearGradient>
<linearGradient id="paint6_linear_69_3319" x1="141.569" y1="109.611" x2="128.943" y2="129.813" gradientUnits="userSpaceOnUse">
<stop stop-color="#EBECF0"/>
<stop offset="1" stop-color="#EBECF0" stop-opacity="0"/>
</linearGradient>
<linearGradient id="paint7_linear_69_3319" x1="140.727" y1="109.611" x2="164.295" y2="109.611" gradientUnits="userSpaceOnUse">
<stop stop-color="#EBECF0"/>
<stop offset="1" stop-color="#EBECF0" stop-opacity="0"/>
</linearGradient>
<linearGradient id="paint8_linear_69_3319" x1="94.4313" y1="28.8055" x2="105.374" y2="8.60414" gradientUnits="userSpaceOnUse">
<stop stop-color="#EBECF0"/>
<stop offset="1" stop-color="#EBECF0" stop-opacity="0"/>
</linearGradient>
<linearGradient id="paint9_linear_69_3319" x1="105.374" y1="49.007" x2="94.4313" y2="28.8056" gradientUnits="userSpaceOnUse">
<stop stop-color="#EBECF0" stop-opacity="0"/>
<stop offset="1" stop-color="#EBECF0"/>
</linearGradient>
<linearGradient id="paint10_linear_69_3319" x1="94.4333" y1="28.8057" x2="71.7067" y2="28.8057" gradientUnits="userSpaceOnUse">
<stop stop-color="#EBECF0"/>
<stop offset="1" stop-color="#EBECF0" stop-opacity="0"/>
</linearGradient>
<linearGradient id="paint11_linear_69_3319" x1="140.725" y1="190.417" x2="117.157" y2="190.417" gradientUnits="userSpaceOnUse">
<stop stop-color="#EBECF0"/>
<stop offset="1" stop-color="#EBECF0" stop-opacity="0"/>
</linearGradient>
<linearGradient id="paint12_linear_69_3319" x1="140.725" y1="190.417" x2="152.509" y2="210.618" gradientUnits="userSpaceOnUse">
<stop stop-color="#EBECF0"/>
<stop offset="1" stop-color="#EBECF0" stop-opacity="0"/>
</linearGradient>
<linearGradient id="paint13_linear_69_3319" x1="140.727" y1="190.417" x2="152.511" y2="170.215" gradientUnits="userSpaceOnUse">
<stop stop-color="#EBECF0"/>
<stop offset="1" stop-color="#EBECF0" stop-opacity="0"/>
</linearGradient>
<linearGradient id="paint14_linear_69_3319" x1="71.704" y1="190.417" x2="48.1357" y2="190.417" gradientUnits="userSpaceOnUse">
<stop stop-color="#EBECF0" stop-opacity="0"/>
<stop offset="1" stop-color="#EBECF0"/>
</linearGradient>
<linearGradient id="paint15_linear_69_3319" x1="36.3525" y1="210.618" x2="48.9783" y2="190.417" gradientUnits="userSpaceOnUse">
<stop stop-color="#EBECF0" stop-opacity="0"/>
<stop offset="1" stop-color="#EBECF0"/>
</linearGradient>
<linearGradient id="paint16_linear_69_3319" x1="48.1366" y1="190.417" x2="36.3525" y2="170.215" gradientUnits="userSpaceOnUse">
<stop stop-color="#EBECF0"/>
<stop offset="1" stop-color="#EBECF0" stop-opacity="0"/>
</linearGradient>
<linearGradient id="paint17_linear_69_3319" x1="210.592" y1="230.82" x2="199.65" y2="251.021" gradientUnits="userSpaceOnUse">
<stop stop-color="#EBECF0"/>
<stop offset="1" stop-color="#EBECF0" stop-opacity="0"/>
</linearGradient>
<linearGradient id="paint18_linear_69_3319" x1="211.432" y1="230.82" x2="235" y2="230.82" gradientUnits="userSpaceOnUse">
<stop stop-color="#EBECF0"/>
<stop offset="1" stop-color="#EBECF0" stop-opacity="0"/>
</linearGradient>
<linearGradient id="paint19_linear_69_3319" x1="211.434" y1="230.82" x2="199.65" y2="210.618" gradientUnits="userSpaceOnUse">
<stop stop-color="#EBECF0"/>
<stop offset="1" stop-color="#EBECF0" stop-opacity="0"/>
</linearGradient>
<linearGradient id="paint20_linear_69_3319" x1="164.295" y1="312.467" x2="176.08" y2="331.827" gradientUnits="userSpaceOnUse">
<stop stop-color="#EBECF0"/>
<stop offset="1" stop-color="#EBECF0" stop-opacity="0"/>
</linearGradient>
<linearGradient id="paint21_linear_69_3319" x1="164.294" y1="311.625" x2="140.726" y2="311.625" gradientUnits="userSpaceOnUse">
<stop stop-color="#EBECF0"/>
<stop offset="1" stop-color="#EBECF0" stop-opacity="0"/>
</linearGradient>
<linearGradient id="paint22_linear_69_3319" x1="164.297" y1="311.625" x2="176.082" y2="291.424" gradientUnits="userSpaceOnUse">
<stop stop-color="#EBECF0"/>
<stop offset="1" stop-color="#EBECF0" stop-opacity="0"/>
</linearGradient>
<linearGradient id="paint23_linear_69_3319" x1="280.451" y1="190.417" x2="292.236" y2="210.618" gradientUnits="userSpaceOnUse">
<stop stop-color="#EBECF0"/>
<stop offset="1" stop-color="#EBECF0" stop-opacity="0"/>
</linearGradient>
<linearGradient id="paint24_linear_69_3319" x1="281.293" y1="190.417" x2="292.236" y2="170.215" gradientUnits="userSpaceOnUse">
<stop stop-color="#EBECF0"/>
<stop offset="1" stop-color="#EBECF0" stop-opacity="0"/>
</linearGradient>
<linearGradient id="paint25_linear_69_3319" x1="280.453" y1="190.417" x2="256.885" y2="190.417" gradientUnits="userSpaceOnUse">
<stop stop-color="#EBECF0"/>
<stop offset="1" stop-color="#EBECF0" stop-opacity="0"/>
</linearGradient>
<linearGradient id="paint26_linear_69_3319" x1="280.452" y1="109.611" x2="268.667" y2="89.4101" gradientUnits="userSpaceOnUse">
<stop stop-color="#EBECF0"/>
<stop offset="1" stop-color="#EBECF0" stop-opacity="0"/>
</linearGradient>
<linearGradient id="paint27_linear_69_3319" x1="281.293" y1="109.611" x2="268.667" y2="129.813" gradientUnits="userSpaceOnUse">
<stop stop-color="#EBECF0"/>
<stop offset="1" stop-color="#EBECF0" stop-opacity="0"/>
</linearGradient>
<linearGradient id="paint28_linear_69_3319" x1="211.434" y1="150.014" x2="199.65" y2="129.813" gradientUnits="userSpaceOnUse">
<stop stop-color="#EBECF0"/>
<stop offset="1" stop-color="#EBECF0" stop-opacity="0"/>
</linearGradient>
<linearGradient id="paint29_linear_69_3319" x1="211.436" y1="150.014" x2="235.004" y2="150.014" gradientUnits="userSpaceOnUse">
<stop stop-color="#EBECF0"/>
<stop offset="1" stop-color="#EBECF0" stop-opacity="0"/>
</linearGradient>
<linearGradient id="paint30_linear_69_3319" x1="211.434" y1="150.014" x2="199.65" y2="170.216" gradientUnits="userSpaceOnUse">
<stop stop-color="#EBECF0"/>
<stop offset="1" stop-color="#EBECF0" stop-opacity="0"/>
</linearGradient>
</defs>
</svg>
