<svg width="264" height="321" viewBox="0 0 264 321" fill="none" xmlns="http://www.w3.org/2000/svg">
<path d="M117.38 58.7957C117.38 50.7225 114.109 43.4117 108.815 38.1241C105.177 34.4869 100.59 31.8035 95.4539 30.48H95.4473C82.8357 33.7278 73.5215 45.1742 73.5215 58.7957V92.9667L88.1398 84.5436L117.38 67.7007V58.7957Z" stroke="#FDFDFF" stroke-opacity="0.25" stroke-width="0.5" stroke-linejoin="round"/>
<path d="M146.617 261.885C146.617 269.958 149.887 277.265 155.182 282.559C158.816 286.193 163.407 288.877 168.542 290.2C181.151 286.953 190.468 275.506 190.468 261.885V227.714L190.643 227.611L175.85 236.133L146.613 252.976V261.881L146.617 261.885Z" stroke="#FDFDFF" stroke-opacity="0.25" stroke-width="0.5" stroke-linejoin="round"/>
<path d="M263.566 84.5435L175.853 135.072V236.133L190.646 227.611L205.093 219.287V261.881C205.093 278.027 192.003 291.117 175.853 291.117C173.331 291.117 170.882 290.797 168.545 290.196C163.41 288.873 158.819 286.189 155.185 282.556C149.89 277.261 146.62 269.954 146.62 261.881V252.976L117.881 269.531C121.631 298.207 146.157 320.347 175.856 320.347C192.006 320.347 206.624 313.802 217.206 303.22C227.788 292.639 234.333 278.02 234.333 261.874V202.444L234.036 202.615L263.569 185.601V84.5435H263.566ZM219.761 196.338C211.687 200.998 205.119 197.258 205.093 187.981C205.076 181.901 207.872 174.956 212.07 169.58L211.998 143.614L227.203 134.834L227.276 160.8C231.491 161.322 234.313 165.022 234.333 171.101C234.359 180.379 227.837 191.677 219.764 196.338H219.761Z" fill="#666BFF" stroke="#FDFDFF" stroke-opacity="0.25" stroke-width="0.5" stroke-linejoin="round"/>
<path d="M117.377 202.433L146.616 219.273L117.377 202.433Z" stroke="#FDFDFF" stroke-opacity="0.25" stroke-width="0.5" stroke-linejoin="round"/>
<path d="M117.38 67.7007L146.118 51.1449C142.369 22.4694 117.842 0.329102 88.1399 0.329102C71.9935 0.329102 57.3752 6.87416 46.7935 17.4558C36.2118 28.0375 29.6668 42.6558 29.6668 58.8023V118.233L0.430176 135.076V236.136L88.1432 185.607V84.5435L73.5249 92.9666L58.9067 101.386V58.7924C58.9067 42.6459 71.9968 29.5558 88.1432 29.5558C90.6649 29.5558 93.1139 29.8759 95.4507 30.4766H95.4573C100.593 31.8002 105.181 34.4836 108.818 38.1208C114.112 43.4083 117.383 50.7191 117.383 58.7924V67.6973L117.38 67.7007ZM58.9067 145.195C58.9232 151.275 56.1276 158.219 51.9292 163.596L52.0018 189.562L36.796 198.341L36.7234 172.375C32.5086 171.854 29.6866 168.154 29.6668 162.074C29.6404 152.796 36.1623 141.498 44.2355 136.838C52.3088 132.178 58.8769 135.917 58.9034 145.195H58.9067Z" fill="#666BFF" stroke="#FDFDFF" stroke-opacity="0.25" stroke-width="0.5" stroke-linejoin="round"/>
<path d="M190.471 227.713V261.884C190.471 275.506 181.154 286.952 168.545 290.2C170.882 290.801 173.331 291.121 175.853 291.121C192.003 291.121 205.093 278.031 205.093 261.884V219.29L190.646 227.611L190.471 227.713Z" fill="#1D24FF" stroke="#FDFDFF" stroke-opacity="0.25" stroke-width="0.5" stroke-linejoin="round"/>
<path d="M117.882 269.535L104.769 277.09C111.465 302.006 134.21 320.351 161.238 320.351H175.857C146.158 320.351 121.631 298.207 117.882 269.535Z" fill="#1D24FF" stroke="#FDFDFF" stroke-opacity="0.25" stroke-width="0.5" stroke-linejoin="round"/>
<path d="M117.38 202.447L146.616 219.29L175.856 236.136V135.075L88.1431 84.5435V185.604L102.761 194.027L117.38 202.447Z" fill="#1D24FF" stroke="#FDFDFF" stroke-opacity="0.25" stroke-width="0.5" stroke-linejoin="round"/>
<path d="M146.118 51.1449L159.231 43.5899C152.537 18.6738 129.793 0.329102 102.761 0.329102H88.1396C117.842 0.329102 142.365 22.4694 146.118 51.1449Z" fill="#1D24FF" stroke="#FDFDFF" stroke-opacity="0.25" stroke-width="0.5" stroke-linejoin="round"/>
<path d="M88.1399 29.5591C71.9934 29.5591 58.9033 42.6492 58.9033 58.7957V101.39L73.5216 92.9699V58.799C73.5216 45.1775 82.8359 33.731 95.4474 30.4832C93.1106 29.8825 90.6616 29.5624 88.1399 29.5624V29.5591Z" fill="#1D24FF" stroke="#FDFDFF" stroke-opacity="0.25" stroke-width="0.5" stroke-linejoin="round"/>
<path d="M44.2388 136.841C36.1656 141.501 29.6436 152.799 29.67 162.077C29.6865 168.157 32.5118 171.857 36.7267 172.378L36.7993 198.344L52.0051 189.565L51.9325 163.599C56.1308 158.222 58.9264 151.278 58.9099 145.198C58.8835 135.92 52.3153 132.181 44.2421 136.841H44.2388Z" fill="#1D24FF" stroke="#FDFDFF" stroke-opacity="0.25" stroke-width="0.5" stroke-linejoin="round"/>
<path d="M227.276 160.801L227.203 134.835L211.998 143.615L212.07 169.58C207.872 174.957 205.076 181.901 205.093 187.981C205.119 197.259 211.687 200.998 219.761 196.338C227.834 191.678 234.356 180.38 234.329 171.102C234.313 165.022 231.488 161.322 227.273 160.801H227.276Z" fill="#1D24FF" stroke="#FDFDFF" stroke-opacity="0.25" stroke-width="0.5" stroke-linejoin="round"/>
<path d="M175.856 34.0151L159.234 43.5901L146.118 51.1452L117.38 67.7009L88.1431 84.5438L175.856 135.076L263.566 84.5438L175.856 34.0151Z" fill="#3D43FF" stroke="#FDFDFF" stroke-opacity="0.25" stroke-width="0.5" stroke-linejoin="round"/>
<path d="M117.38 202.447L102.762 194.028L88.1432 185.604L0.430176 236.136L88.1432 286.665L104.765 277.09L117.882 269.535L146.616 252.979L175.856 236.136L146.616 219.29L117.38 202.447Z" fill="#3D43FF" stroke="#FDFDFF" stroke-opacity="0.25" stroke-width="0.5" stroke-linejoin="round"/>
<path d="M131.998 210.87C125.734 207.097 116.574 201.774 110.198 198.018C103.917 194.321 94.8962 189.165 88.47 185.416L88.1399 140.531L87.8099 185.416C73.6768 193.595 58.263 202.516 44.2817 210.87C58.5271 202.959 73.9705 194.113 88.1366 185.984C94.5629 189.667 103.639 194.872 109.937 198.457C116.357 202.11 125.641 207.342 131.992 210.87H131.998Z" fill="#FDFDFF"/>
<path d="M176.183 135.267C190.316 127.088 205.73 118.166 219.711 109.812C205.466 117.724 190.022 126.57 175.856 134.699C169.43 131.015 160.354 125.81 154.056 122.226C147.636 118.572 138.352 113.341 132.001 109.812C138.266 113.585 147.425 118.909 153.802 122.665C160.083 126.362 169.103 131.517 175.53 135.267L175.86 180.151L176.19 135.267H176.183Z" fill="#FDFDFF"/>
</svg>
