<svg width="1216" height="131" viewBox="0 0 1216 131" fill="none" xmlns="http://www.w3.org/2000/svg">
<path d="M0 0.339844H140.58L157.9 26.4496H17.3195L0 0.339844Z" fill="white"/>
<path d="M0 52.5625H140.58L157.9 78.6723H17.3195L0 52.5625Z" fill="white"/>
<path d="M0 104.778H140.58L157.9 130.888H17.3195L0 104.778Z" fill="white"/>
<path d="M17.2627 78.6655V104.775H36.0001L17.2627 78.6655Z" fill="white"/>
<path d="M17.2627 26.4517V52.5614H36.0001L17.2627 26.4517Z" fill="white"/>
<path d="M204.899 13.27H350.748V36.9554H225.256V54.3602H347.281V78.0453H225.256V94.2718H350.748V117.957H204.899V13.27Z" fill="white"/>
<path d="M397.008 117.957C393.131 117.957 389.514 116.822 386.158 114.554C382.877 112.199 380.268 109.103 378.329 105.264C376.391 101.338 375.421 97.1061 375.421 92.5696V84.5876H395.778V90.4759C395.778 91.6107 396.076 92.5271 396.672 93.225C397.269 93.9229 398.014 94.2718 398.909 94.2718H499.012C499.982 94.2718 500.727 93.9229 501.249 93.225C501.845 92.5271 502.144 91.6107 502.144 90.4759V84.85C502.144 83.8897 501.845 83.1052 501.249 82.4938C500.727 81.7959 500.018 81.3165 499.123 81.0554L396.895 73.2039C392.869 72.418 389.253 70.9782 386.046 68.8845C382.915 66.7908 380.38 63.8686 378.441 60.118C376.502 56.2794 375.496 51.6115 375.421 46.1154L375.309 37.8714C375.235 33.5094 376.092 29.4529 377.882 25.7016C379.745 21.863 382.281 18.8533 385.488 16.6723C388.693 14.4041 392.198 13.27 396.001 13.27H500.913C504.641 13.27 508.146 14.4477 511.427 16.8031C514.708 19.0714 517.355 22.1684 519.369 26.0942C521.381 29.9326 522.388 34.0765 522.388 38.5257V45.9847H502.144V40.7503C502.144 39.5289 501.845 38.613 501.249 38.0023C500.727 37.3044 499.982 36.9554 499.012 36.9554H398.909C398.014 36.9554 397.269 37.3044 396.672 38.0023C396.076 38.7002 395.778 39.6162 395.778 40.7503V45.8539C395.778 46.2027 395.778 46.5081 395.778 46.7698C395.851 46.9443 395.964 47.1623 396.113 47.424C396.336 48.0347 396.672 48.5146 397.12 48.8635C397.567 49.2125 398.088 49.4742 398.685 49.6487L501.473 57.8923C505.798 58.8527 509.489 60.423 512.545 62.6033C515.677 64.697 518.1 67.5326 519.816 71.1101C521.53 74.5997 522.388 78.7872 522.388 83.6712L522.612 93.6165C522.612 98.2409 521.68 102.428 519.816 106.179C517.951 109.843 515.416 112.723 512.21 114.816C509.079 116.91 505.685 117.957 502.032 117.957H397.008Z" fill="white"/>
<path d="M569.755 117.957C566.027 117.957 562.522 116.822 559.241 114.554C555.96 112.199 553.313 109.103 551.3 105.264C549.287 101.338 548.28 97.1501 548.28 92.7016V38.5257C548.28 33.9893 549.249 29.8018 551.188 25.9633C553.202 22.0375 555.848 18.9406 559.129 16.6723C562.485 14.4041 565.989 13.27 569.643 13.27H673.997C677.724 13.27 681.229 14.4477 684.51 16.8031C687.866 19.0714 690.549 22.1684 692.563 26.0942C694.576 29.9326 695.583 34.0765 695.583 38.5257V57.5008H675.226V40.8812C675.226 39.6599 674.928 38.7002 674.331 38.0023C673.735 37.3044 672.953 36.9554 671.983 36.9554H571.768C570.873 36.9554 570.091 37.3479 569.419 38.1331C568.823 38.831 568.524 39.7471 568.524 40.8812V90.3454C568.524 91.1312 568.673 91.8291 568.972 92.4391C569.345 92.9626 569.755 93.3995 570.202 93.7484C570.724 94.0974 571.284 94.2718 571.88 94.2718H671.983C672.953 94.2718 673.735 93.8789 674.331 93.0931C674.928 92.3086 675.226 91.3923 675.226 90.3454V72.5486H695.583V92.7016C695.583 97.1501 694.576 101.338 692.563 105.264C690.624 109.103 687.977 112.199 684.621 114.554C681.267 116.822 677.687 117.957 673.884 117.957H569.755Z" fill="white"/>
<path d="M722.432 13.27H742.676V55.1446H850.943V13.27H871.3V117.957H850.943V78.9617H742.676V117.957H722.432V13.27Z" fill="white"/>
<path d="M898.112 13.27H1043.96V36.9554H918.468V54.3602H1040.49V78.0453H918.468V94.2718H1043.96V117.957H898.112V13.27Z" fill="white"/>
<path d="M1067.45 13.27H1193.83C1197.5 13.27 1200.89 14.3604 1204.02 16.5414C1207.15 18.6352 1209.6 21.5141 1211.4 25.1781C1213.19 28.8422 1214.08 32.8987 1214.08 37.3479V62.9962C1214.08 68.5795 1212.86 73.3784 1210.39 77.3914C1208.01 81.4044 1204.8 84.1521 1200.77 85.6345L1215.98 117.957H1193.06L1178.29 86.8119H1087.69V117.957H1067.45V13.27ZM1190.71 63.1267C1191.67 63.1267 1192.46 62.7777 1193.06 62.0798C1193.66 61.3819 1193.95 60.4669 1193.95 59.3321V40.8812C1193.95 39.6599 1193.66 38.7002 1193.06 38.0023C1192.46 37.3044 1191.67 36.9554 1190.71 36.9554H1087.69V63.1267H1190.71Z" fill="white"/>
</svg>
