<svg width="364" height="65" viewBox="0 0 364 65" fill="none" xmlns="http://www.w3.org/2000/svg">
<path d="M0 0.339844H80.6341L90.5683 13.14H9.93418L0 0.339844Z" fill="white"/>
<path d="M0 25.9414H80.6341L90.5683 38.7415H9.93418L0 25.9414Z" fill="white"/>
<path d="M0 51.54H80.6341L90.5683 64.3402H9.93418L0 51.54Z" fill="white"/>
<path d="M9.89551 38.7393V51.5394H20.6429L9.89551 38.7393Z" fill="white"/>
<path d="M9.89551 13.1406V25.9407H20.6429L9.89551 13.1406Z" fill="white"/>
<path d="M112.943 21.0679H149.077V26.0832H117.987V29.7687H148.218V34.784H117.987V38.22H149.077V43.2353H112.943V21.0679Z" fill="white"/>
<path d="M160.54 43.2353C159.579 43.2353 158.683 42.995 157.852 42.5147C157.039 42.0161 156.393 41.3604 155.912 40.5476C155.432 39.7161 155.192 38.8201 155.192 37.8595V36.1693H160.235V37.4162C160.235 37.6565 160.309 37.8505 160.457 37.9983C160.605 38.1461 160.789 38.22 161.011 38.22H185.811C186.051 38.22 186.236 38.1461 186.365 37.9983C186.513 37.8505 186.587 37.6565 186.587 37.4162V36.2249C186.587 36.0216 186.513 35.8554 186.365 35.726C186.236 35.5782 186.06 35.4767 185.839 35.4214L160.512 33.7588C159.515 33.5924 158.619 33.2876 157.824 32.8442C157.048 32.4009 156.42 31.7821 155.94 30.9879C155.46 30.1751 155.21 29.1867 155.192 28.0229L155.164 26.2772C155.146 25.3536 155.358 24.4946 155.802 23.7002C156.263 22.8874 156.891 22.2501 157.686 21.7883C158.48 21.308 159.348 21.0679 160.29 21.0679H186.282C187.206 21.0679 188.074 21.3172 188.887 21.816C189.7 22.2963 190.355 22.9521 190.854 23.7834C191.353 24.5962 191.602 25.4736 191.602 26.4158V27.9952H186.587V26.8868C186.587 26.6282 186.513 26.4342 186.365 26.3049C186.236 26.1571 186.051 26.0832 185.811 26.0832H161.011C160.789 26.0832 160.605 26.1571 160.457 26.3049C160.309 26.4527 160.235 26.6467 160.235 26.8868V27.9675C160.235 28.0413 160.235 28.106 160.235 28.1614C160.253 28.1984 160.281 28.2445 160.318 28.3C160.374 28.4293 160.457 28.5309 160.568 28.6048C160.679 28.6787 160.808 28.7341 160.955 28.771L186.421 30.5166C187.492 30.72 188.407 31.0525 189.164 31.5142C189.94 31.9575 190.54 32.558 190.965 33.3155C191.39 34.0544 191.602 34.9411 191.602 35.9753L191.658 38.0812C191.658 39.0604 191.427 39.9471 190.965 40.7413C190.503 41.5172 189.875 42.1269 189.081 42.5703C188.305 43.0136 187.464 43.2353 186.559 43.2353H160.54Z" fill="white"/>
<path d="M203.332 43.2353C202.408 43.2353 201.54 42.995 200.727 42.5147C199.914 42.0161 199.259 41.3604 198.76 40.5476C198.261 39.7161 198.012 38.8294 198.012 37.8875V26.4158C198.012 25.4552 198.252 24.5685 198.732 23.7557C199.231 22.9244 199.887 22.2686 200.699 21.7883C201.531 21.308 202.399 21.0679 203.304 21.0679H229.157C230.081 21.0679 230.949 21.3172 231.762 21.816C232.594 22.2963 233.258 22.9521 233.757 23.7834C234.256 24.5962 234.505 25.4736 234.505 26.4158V30.4337H229.462V26.9145C229.462 26.6559 229.388 26.4527 229.24 26.3049C229.093 26.1571 228.899 26.0832 228.659 26.0832H203.831C203.609 26.0832 203.415 26.1664 203.249 26.3326C203.101 26.4804 203.027 26.6744 203.027 26.9145V37.3885C203.027 37.5549 203.064 37.7027 203.138 37.8319C203.23 37.9427 203.332 38.0352 203.443 38.1091C203.572 38.183 203.711 38.22 203.859 38.22H228.659C228.899 38.22 229.093 38.1368 229.24 37.9704C229.388 37.8043 229.462 37.6102 229.462 37.3885V33.6201H234.505V37.8875C234.505 38.8294 234.256 39.7161 233.757 40.5476C233.277 41.3604 232.621 42.0161 231.79 42.5147C230.959 42.995 230.072 43.2353 229.13 43.2353H203.332Z" fill="white"/>
<path d="M241.158 21.0679H246.174V29.9348H272.996V21.0679H278.04V43.2353H272.996V34.9781H246.174V43.2353H241.158V21.0679Z" fill="white"/>
<path d="M284.68 21.0679H320.812V26.0832H289.723V29.7687H319.954V34.784H289.723V38.22H320.812V43.2353H284.68V21.0679Z" fill="white"/>
<path d="M326.634 21.0679H357.945C358.853 21.0679 359.693 21.2988 360.467 21.7606C361.244 22.2039 361.852 22.8135 362.297 23.5894C362.739 24.3653 362.961 25.2242 362.961 26.1664V31.5974C362.961 32.7796 362.658 33.7958 362.047 34.6455C361.456 35.4953 360.662 36.0771 359.664 36.391L363.432 43.2353H357.753L354.093 36.6403H331.649V43.2353H326.634V21.0679ZM357.171 31.625C357.41 31.625 357.605 31.5511 357.753 31.4033C357.901 31.2555 357.974 31.0618 357.974 30.8215V26.9145C357.974 26.6559 357.901 26.4527 357.753 26.3049C357.605 26.1571 357.41 26.0832 357.171 26.0832H331.649V31.625H357.171Z" fill="white"/>
</svg>
