<svg width="182" height="32" viewBox="0 0 182 32" fill="none" xmlns="http://www.w3.org/2000/svg">
<path d="M0 0H40.3165L45.2836 6.4001H4.96702L0 0Z" fill="black"/>
<path d="M0 12.8008H40.3165L45.2836 19.2009H4.96702L0 12.8008Z" fill="black"/>
<path d="M0 25.5999H40.3165L45.2836 32H4.96702L0 25.5999Z" fill="black"/>
<path d="M4.95044 19.1999V25.6H10.3241L4.95044 19.1999Z" fill="black"/>
<path d="M4.95044 6.40039V12.8005H10.3241L4.95044 6.40039Z" fill="black"/>
<path d="M56.4727 10.3643H74.5392V12.872H58.9943V14.7147H74.1097V17.2224H58.9943V18.9404H74.5392V21.448H56.4727V10.3643Z" fill="black"/>
<path d="M80.269 21.448C79.7887 21.448 79.3407 21.3279 78.925 21.0877C78.5186 20.8384 78.1954 20.5106 77.9552 20.1042C77.7151 19.6884 77.5949 19.2404 77.5949 18.7601V17.915H80.1166V18.5385C80.1166 18.6586 80.1535 18.7556 80.2274 18.8295C80.3013 18.9034 80.3937 18.9404 80.5045 18.9404H92.9043C93.0245 18.9404 93.1169 18.9034 93.1814 18.8295C93.2553 18.7556 93.2923 18.6586 93.2923 18.5385V17.9428C93.2923 17.8411 93.2553 17.7581 93.1814 17.6934C93.1169 17.6195 93.029 17.5687 92.9182 17.5411L80.255 16.7098C79.7563 16.6266 79.3084 16.4741 78.9112 16.2525C78.5232 16.0308 78.2092 15.7214 77.969 15.3243C77.7289 14.9179 77.6042 14.4237 77.5949 13.8418L77.5811 12.9689C77.5719 12.5071 77.6781 12.0776 77.8998 11.6805C78.1306 11.274 78.4447 10.9554 78.8419 10.7245C79.239 10.4843 79.6732 10.3643 80.1442 10.3643H93.1398C93.6017 10.3643 94.0359 10.4889 94.4423 10.7383C94.8487 10.9785 95.1765 11.3064 95.426 11.722C95.6753 12.1284 95.7999 12.5672 95.7999 13.0382V13.8279H93.2923V13.2737C93.2923 13.1444 93.2553 13.0475 93.1814 12.9828C93.1169 12.9089 93.0245 12.872 92.9043 12.872H80.5045C80.3937 12.872 80.3013 12.9089 80.2274 12.9828C80.1535 13.0567 80.1166 13.1537 80.1166 13.2737V13.8141C80.1166 13.851 80.1166 13.8834 80.1166 13.9111C80.1257 13.9295 80.1397 13.9526 80.1582 13.9803C80.1858 14.045 80.2274 14.0958 80.2828 14.1327C80.3382 14.1697 80.4028 14.1974 80.4767 14.2159L93.2092 15.0887C93.7449 15.1903 94.2021 15.3566 94.5807 15.5874C94.9687 15.8091 95.2689 16.1093 95.4814 16.4881C95.6938 16.8576 95.7999 17.3009 95.7999 17.818L95.8277 18.871C95.8277 19.3606 95.7122 19.8039 95.4814 20.201C95.2504 20.589 94.9364 20.8938 94.5393 21.1155C94.1513 21.3372 93.731 21.448 93.2785 21.448H80.269Z" fill="black"/>
<path d="M101.668 21.448C101.206 21.448 100.772 21.3279 100.365 21.0877C99.9591 20.8384 99.6312 20.5106 99.3819 20.1042C99.1325 19.6884 99.0078 19.2451 99.0078 18.7741V13.0382C99.0078 12.5579 99.1278 12.1146 99.368 11.7082C99.6174 11.2925 99.9453 10.9646 100.352 10.7245C100.767 10.4843 101.201 10.3643 101.654 10.3643H114.58C115.042 10.3643 115.476 10.4889 115.883 10.7383C116.298 10.9785 116.631 11.3064 116.88 11.722C117.13 12.1284 117.254 12.5672 117.254 13.0382V15.0472H114.733V13.2876C114.733 13.1583 114.696 13.0567 114.622 12.9828C114.548 12.9089 114.451 12.872 114.331 12.872H101.917C101.806 12.872 101.71 12.9135 101.626 12.9966C101.552 13.0705 101.515 13.1675 101.515 13.2876V18.5246C101.515 18.6078 101.534 18.6817 101.571 18.7463C101.617 18.8017 101.668 18.848 101.723 18.8849C101.788 18.9219 101.857 18.9404 101.931 18.9404H114.331C114.451 18.9404 114.548 18.8988 114.622 18.8156C114.696 18.7325 114.733 18.6355 114.733 18.5246V16.6404H117.254V18.7741C117.254 19.2451 117.13 19.6884 116.88 20.1042C116.64 20.5106 116.312 20.8384 115.897 21.0877C115.481 21.3279 115.038 21.448 114.567 21.448H101.668Z" fill="black"/>
<path d="M120.579 10.3643H123.087V14.7978H136.498V10.3643H139.02V21.448H136.498V17.3194H123.087V21.448H120.579V10.3643Z" fill="black"/>
<path d="M142.341 10.3643H160.407V12.872H144.863V14.7147H159.978V17.2224H144.863V18.9404H160.407V21.448H142.341V10.3643Z" fill="black"/>
<path d="M163.318 10.3643H178.973C179.427 10.3643 179.847 10.4797 180.234 10.7106C180.623 10.9323 180.927 11.2371 181.149 11.625C181.37 12.013 181.481 12.4425 181.481 12.9135V15.629C181.481 16.2202 181.329 16.7283 181.024 17.1531C180.729 17.578 180.332 17.8689 179.833 18.0259L181.716 21.448H178.877L177.047 18.1505H165.825V21.448H163.318V10.3643ZM178.586 15.6429C178.705 15.6429 178.803 15.6059 178.877 15.532C178.951 15.4581 178.988 15.3613 178.988 15.2411V13.2876C178.988 13.1583 178.951 13.0567 178.877 12.9828C178.803 12.9089 178.705 12.872 178.586 12.872H165.825V15.6429H178.586Z" fill="black"/>
</svg>
