<svg width="550" height="113" viewBox="0 0 550 113" fill="none" xmlns="http://www.w3.org/2000/svg">
<path d="M25 24V88L1 64V0L25 24Z" stroke="#0008FF" stroke-width="1.5" stroke-miterlimit="10" stroke-linejoin="round"/>
<path d="M525 24H25L1 0H501L525 24Z" stroke="#0008FF" stroke-width="1.5" stroke-miterlimit="10" stroke-linejoin="round"/>
<path d="M549 112H49L25 88H525L549 112Z" stroke="#0008FF" stroke-width="1.5" stroke-miterlimit="10" stroke-linejoin="round"/>
<path d="M549 48V112L525 88V24L549 48Z" stroke="#0008FF" stroke-width="1.5" stroke-miterlimit="10" stroke-linejoin="round"/>
<path d="M43.55 70V45.7H56.03C57.49 45.7 58.77 45.96 59.87 46.48C60.97 47 61.83 47.73 62.45 48.67C63.07 49.59 63.38 50.66 63.38 51.88C63.38 53.1 63.06 54.14 62.42 55C61.78 55.84 60.91 56.47 59.81 56.89V57.01C60.75 57.25 61.57 57.65 62.27 58.21C62.99 58.77 63.55 59.46 63.95 60.28C64.37 61.1 64.58 62.03 64.58 63.07C64.58 64.45 64.24 65.66 63.56 66.7C62.88 67.74 61.94 68.55 60.74 69.13C59.56 69.71 58.17 70 56.57 70H43.55ZM48.62 65.56H55.67C56.89 65.56 57.83 65.3 58.49 64.78C59.15 64.24 59.48 63.47 59.48 62.47C59.48 61.47 59.15 60.71 58.49 60.19C57.85 59.67 56.92 59.41 55.7 59.41H48.62V65.56ZM48.62 55.39H55.31C56.27 55.39 57 55.17 57.5 54.73C58.02 54.27 58.28 53.61 58.28 52.75C58.28 51.89 58.02 51.24 57.5 50.8C57 50.36 56.27 50.14 55.31 50.14H48.62V55.39ZM73.9452 70.33C71.4452 70.33 69.5252 69.67 68.1852 68.35C66.8452 67.03 66.1752 65.23 66.1752 62.95V52H71.1552V61.99C71.1552 63.29 71.4852 64.27 72.1452 64.93C72.8252 65.57 73.8352 65.89 75.1752 65.89C76.5552 65.89 77.6152 65.54 78.3552 64.84C79.1152 64.14 79.4952 63.14 79.4952 61.84V52H84.4752V65.08H86.9352V70H81.8952V67.06H80.6352C79.9152 68.12 79.0352 68.93 77.9952 69.49C76.9752 70.05 75.6252 70.33 73.9452 70.33ZM88.6353 70V52H93.6153V70H88.6353ZM91.1253 50.23C90.3653 50.23 89.7153 49.97 89.1753 49.45C88.6553 48.91 88.3953 48.26 88.3953 47.5C88.3953 46.74 88.6553 46.1 89.1753 45.58C89.7153 45.04 90.3653 44.77 91.1253 44.77C91.8853 44.77 92.5253 45.04 93.0453 45.58C93.5853 46.1 93.8553 46.74 93.8553 47.5C93.8553 48.26 93.5853 48.91 93.0453 49.45C92.5253 49.97 91.8853 50.23 91.1253 50.23ZM96.3008 70V44.8H101.281V70H96.3008ZM111.496 70.36C109.656 70.36 108.086 69.97 106.786 69.19C105.506 68.41 104.536 67.32 103.876 65.92C103.216 64.5 102.886 62.86 102.886 61C102.886 59.12 103.206 57.48 103.846 56.08C104.486 54.66 105.416 53.57 106.636 52.81C107.876 52.03 109.356 51.64 111.076 51.64C112.396 51.64 113.526 51.89 114.466 52.39C115.426 52.87 116.166 53.56 116.686 54.46H116.806V44.8H121.786V65.08H124.246V70H119.206V67.06H117.946C117.306 68.1 116.446 68.91 115.366 69.49C114.306 70.07 113.016 70.36 111.496 70.36ZM112.426 66.04C113.766 66.04 114.826 65.67 115.606 64.93C116.406 64.17 116.806 63.13 116.806 61.81V60.19C116.806 58.87 116.406 57.84 115.606 57.1C114.826 56.34 113.766 55.96 112.426 55.96C110.906 55.96 109.766 56.41 109.006 57.31C108.246 58.21 107.866 59.44 107.866 61C107.866 62.56 108.246 63.79 109.006 64.69C109.766 65.59 110.906 66.04 112.426 66.04ZM125.694 70V52H130.674V70H125.694ZM128.184 50.23C127.424 50.23 126.774 49.97 126.234 49.45C125.714 48.91 125.454 48.26 125.454 47.5C125.454 46.74 125.714 46.1 126.234 45.58C126.774 45.04 127.424 44.77 128.184 44.77C128.944 44.77 129.584 45.04 130.104 45.58C130.644 46.1 130.914 46.74 130.914 47.5C130.914 48.26 130.644 48.91 130.104 49.45C129.584 49.97 128.944 50.23 128.184 50.23ZM134.56 70V56.92H132.1V52H137.14V54.94H138.4C139.1 53.9 139.98 53.1 141.04 52.54C142.1 51.96 143.42 51.67 145 51.67C147.5 51.67 149.43 52.36 150.79 53.74C152.17 55.1 152.86 56.93 152.86 59.23V70H147.88V60.16C147.88 58.84 147.52 57.84 146.8 57.16C146.1 56.46 145.07 56.11 143.71 56.11C142.35 56.11 141.31 56.46 140.59 57.16C139.89 57.84 139.54 58.84 139.54 60.16V70H134.56ZM163.884 77.56C161.184 77.56 158.984 77.01 157.284 75.91C155.604 74.83 154.604 73.32 154.284 71.38H159.564C160.044 72.86 161.434 73.6 163.734 73.6C165.294 73.6 166.484 73.24 167.304 72.52C168.144 71.82 168.564 70.8 168.564 69.46V67.06H168.414C167.874 68.02 167.124 68.75 166.164 69.25C165.224 69.75 164.094 70 162.774 70C161.074 70 159.594 69.63 158.334 68.89C157.094 68.13 156.124 67.06 155.424 65.68C154.744 64.3 154.404 62.68 154.404 60.82C154.404 58.02 155.174 55.79 156.714 54.13C158.274 52.47 160.404 51.64 163.104 51.64C164.624 51.64 165.914 51.93 166.974 52.51C168.054 53.09 168.914 53.9 169.554 54.94H170.814V52H175.854V56.92H173.394V69.52C173.394 72.08 172.574 74.06 170.934 75.46C169.294 76.86 166.944 77.56 163.884 77.56ZM164.004 65.68C165.384 65.68 166.464 65.3 167.244 64.54C168.024 63.78 168.414 62.74 168.414 61.42V60.16C168.414 58.86 168.014 57.84 167.214 57.1C166.434 56.34 165.364 55.96 164.004 55.96C162.544 55.96 161.404 56.39 160.584 57.25C159.784 58.11 159.384 59.31 159.384 60.85C159.384 62.39 159.784 63.58 160.584 64.42C161.404 65.26 162.544 65.68 164.004 65.68ZM189.986 70C188.706 70 187.706 69.68 186.986 69.04C186.286 68.38 185.936 67.38 185.936 66.04V55.9H182.846V52H185.996V46.6H190.856V52H195.026V55.9H190.916V66.1H195.446V70H189.986ZM196.667 70V44.8H201.647V54.58H201.767C202.347 53.62 203.127 52.9 204.107 52.42C205.087 51.92 206.247 51.67 207.587 51.67C209.847 51.67 211.637 52.36 212.957 53.74C214.297 55.1 214.967 56.93 214.967 59.23V70H209.987V60.16C209.987 58.84 209.627 57.84 208.907 57.16C208.207 56.46 207.177 56.11 205.817 56.11C204.457 56.11 203.417 56.46 202.697 57.16C201.997 57.84 201.647 58.84 201.647 60.16V70H196.667ZM225.915 70.36C223.975 70.36 222.285 69.98 220.845 69.22C219.405 68.44 218.295 67.35 217.515 65.95C216.735 64.53 216.345 62.86 216.345 60.94C216.345 59.02 216.725 57.37 217.485 55.99C218.245 54.59 219.325 53.52 220.725 52.78C222.145 52.02 223.815 51.64 225.735 51.64C227.615 51.64 229.225 52 230.565 52.72C231.925 53.44 232.965 54.47 233.685 55.81C234.405 57.15 234.765 58.75 234.765 60.61V62.29H221.115C221.315 63.63 221.825 64.65 222.645 65.35C223.465 66.05 224.545 66.4 225.885 66.4C226.945 66.4 227.785 66.22 228.405 65.86C229.025 65.5 229.465 64.95 229.725 64.21H234.705C234.305 66.13 233.335 67.64 231.795 68.74C230.255 69.82 228.295 70.36 225.915 70.36ZM221.235 58.99H229.995C229.835 57.85 229.395 57 228.675 56.44C227.955 55.86 226.985 55.57 225.765 55.57C224.545 55.57 223.545 55.86 222.765 56.44C222.005 57.02 221.495 57.87 221.235 58.99ZM248.994 70H243.924V45.7H261.354V50.14H248.994V55.54H260.334V59.98H248.994V70ZM270.1 70.33C267.6 70.33 265.68 69.67 264.34 68.35C263 67.03 262.33 65.23 262.33 62.95V52H267.31V61.99C267.31 63.29 267.64 64.27 268.3 64.93C268.98 65.57 269.99 65.89 271.33 65.89C272.71 65.89 273.77 65.54 274.51 64.84C275.27 64.14 275.65 63.14 275.65 61.84V52H280.63V65.08H283.09V70H278.05V67.06H276.79C276.07 68.12 275.19 68.93 274.15 69.49C273.13 70.05 271.78 70.33 270.1 70.33ZM290.154 70C288.874 70 287.874 69.68 287.154 69.04C286.454 68.38 286.104 67.38 286.104 66.04V55.9H283.014V52H286.164V46.6H291.024V52H295.194V55.9H291.084V66.1H295.614V70H290.154ZM304.486 70.33C301.986 70.33 300.066 69.67 298.726 68.35C297.386 67.03 296.716 65.23 296.716 62.95V52H301.696V61.99C301.696 63.29 302.026 64.27 302.686 64.93C303.366 65.57 304.376 65.89 305.716 65.89C307.096 65.89 308.156 65.54 308.896 64.84C309.656 64.14 310.036 63.14 310.036 61.84V52H315.016V65.08H317.476V70H312.436V67.06H311.176C310.456 68.12 309.576 68.93 308.536 69.49C307.516 70.05 306.166 70.33 304.486 70.33ZM319.802 70V56.92H317.342V52H322.382V55.54H323.642C324.122 54.28 324.882 53.34 325.922 52.72C326.962 52.1 328.132 51.79 329.432 51.79H330.962V56.11H329.222C327.662 56.11 326.512 56.55 325.772 57.43C325.052 58.31 324.692 59.47 324.692 60.91V70H319.802ZM339.902 70.36C337.962 70.36 336.272 69.98 334.832 69.22C333.392 68.44 332.282 67.35 331.502 65.95C330.722 64.53 330.332 62.86 330.332 60.94C330.332 59.02 330.712 57.37 331.472 55.99C332.232 54.59 333.312 53.52 334.712 52.78C336.132 52.02 337.802 51.64 339.722 51.64C341.602 51.64 343.212 52 344.552 52.72C345.912 53.44 346.952 54.47 347.672 55.81C348.392 57.15 348.752 58.75 348.752 60.61V62.29H335.102C335.302 63.63 335.812 64.65 336.632 65.35C337.452 66.05 338.532 66.4 339.872 66.4C340.932 66.4 341.772 66.22 342.392 65.86C343.012 65.5 343.452 64.95 343.712 64.21H348.692C348.292 66.13 347.322 67.64 345.782 68.74C344.242 69.82 342.282 70.36 339.902 70.36ZM335.222 58.99H343.982C343.822 57.85 343.382 57 342.662 56.44C341.942 55.86 340.972 55.57 339.752 55.57C338.532 55.57 337.532 55.86 336.752 56.44C335.992 57.02 335.482 57.87 335.222 58.99ZM349.432 75.28V72.4H350.812C351.372 72.4 351.782 72.25 352.042 71.95C352.302 71.65 352.432 71.26 352.432 70.78V70H349.942V64.66H355.402V70.99C355.402 72.33 355.052 73.38 354.352 74.14C353.652 74.9 352.572 75.28 351.112 75.28H349.432ZM376.264 70H371.284V50.14H363.394V45.7H384.154V50.14H376.264V70ZM391.109 70.36C389.149 70.36 387.439 69.98 385.979 69.22C384.539 68.44 383.419 67.35 382.619 65.95C381.819 64.55 381.419 62.89 381.419 60.97C381.419 59.07 381.809 57.42 382.589 56.02C383.389 54.62 384.519 53.54 385.979 52.78C387.439 52.02 389.159 51.64 391.139 51.64C393.099 51.64 394.799 52.02 396.239 52.78C397.679 53.54 398.789 54.62 399.569 56.02C400.349 57.42 400.739 59.08 400.739 61C400.739 62.9 400.349 64.56 399.569 65.98C398.789 67.38 397.669 68.46 396.209 69.22C394.769 69.98 393.069 70.36 391.109 70.36ZM391.109 66.04C392.609 66.04 393.759 65.59 394.559 64.69C395.359 63.77 395.759 62.53 395.759 60.97C395.759 59.41 395.359 58.19 394.559 57.31C393.759 56.41 392.609 55.96 391.109 55.96C389.589 55.96 388.419 56.41 387.599 57.31C386.799 58.19 386.399 59.41 386.399 60.97C386.399 62.53 386.799 63.77 387.599 64.69C388.419 65.59 389.589 66.04 391.109 66.04ZM410.914 77.56C408.214 77.56 406.014 77.01 404.314 75.91C402.634 74.83 401.634 73.32 401.314 71.38H406.594C407.074 72.86 408.464 73.6 410.764 73.6C412.324 73.6 413.514 73.24 414.334 72.52C415.174 71.82 415.594 70.8 415.594 69.46V67.06H415.444C414.904 68.02 414.154 68.75 413.194 69.25C412.254 69.75 411.124 70 409.804 70C408.104 70 406.624 69.63 405.364 68.89C404.124 68.13 403.154 67.06 402.454 65.68C401.774 64.3 401.434 62.68 401.434 60.82C401.434 58.02 402.204 55.79 403.744 54.13C405.304 52.47 407.434 51.64 410.134 51.64C411.654 51.64 412.944 51.93 414.004 52.51C415.084 53.09 415.944 53.9 416.584 54.94H417.844V52H422.884V56.92H420.424V69.52C420.424 72.08 419.604 74.06 417.964 75.46C416.324 76.86 413.974 77.56 410.914 77.56ZM411.034 65.68C412.414 65.68 413.494 65.3 414.274 64.54C415.054 63.78 415.444 62.74 415.444 61.42V60.16C415.444 58.86 415.044 57.84 414.244 57.1C413.464 56.34 412.394 55.96 411.034 55.96C409.574 55.96 408.434 56.39 407.614 57.25C406.814 58.11 406.414 59.31 406.414 60.85C406.414 62.39 406.814 63.58 407.614 64.42C408.434 65.26 409.574 65.68 411.034 65.68ZM432.828 70.36C430.888 70.36 429.198 69.98 427.758 69.22C426.318 68.44 425.208 67.35 424.428 65.95C423.648 64.53 423.258 62.86 423.258 60.94C423.258 59.02 423.638 57.37 424.398 55.99C425.158 54.59 426.238 53.52 427.638 52.78C429.058 52.02 430.728 51.64 432.648 51.64C434.528 51.64 436.138 52 437.478 52.72C438.838 53.44 439.878 54.47 440.598 55.81C441.318 57.15 441.678 58.75 441.678 60.61V62.29H428.028C428.228 63.63 428.738 64.65 429.558 65.35C430.378 66.05 431.458 66.4 432.798 66.4C433.858 66.4 434.698 66.22 435.318 65.86C435.938 65.5 436.378 64.95 436.638 64.21H441.618C441.218 66.13 440.248 67.64 438.708 68.74C437.168 69.82 435.208 70.36 432.828 70.36ZM428.148 58.99H436.908C436.748 57.85 436.308 57 435.588 56.44C434.868 55.86 433.898 55.57 432.678 55.57C431.458 55.57 430.458 55.86 429.678 56.44C428.918 57.02 428.408 57.87 428.148 58.99ZM448.899 70C447.619 70 446.619 69.68 445.899 69.04C445.199 68.38 444.849 67.38 444.849 66.04V55.9H441.759V52H444.909V46.6H449.769V52H453.939V55.9H449.829V66.1H454.359V70H448.899ZM455.58 70V44.8H460.56V54.58H460.68C461.26 53.62 462.04 52.9 463.02 52.42C464 51.92 465.16 51.67 466.5 51.67C468.76 51.67 470.55 52.36 471.87 53.74C473.21 55.1 473.88 56.93 473.88 59.23V70H468.9V60.16C468.9 58.84 468.54 57.84 467.82 57.16C467.12 56.46 466.09 56.11 464.73 56.11C463.37 56.11 462.33 56.46 461.61 57.16C460.91 57.84 460.56 58.84 460.56 60.16V70H455.58ZM484.828 70.36C482.888 70.36 481.198 69.98 479.758 69.22C478.318 68.44 477.208 67.35 476.428 65.95C475.648 64.53 475.258 62.86 475.258 60.94C475.258 59.02 475.638 57.37 476.398 55.99C477.158 54.59 478.238 53.52 479.638 52.78C481.058 52.02 482.728 51.64 484.648 51.64C486.528 51.64 488.138 52 489.478 52.72C490.838 53.44 491.878 54.47 492.598 55.81C493.318 57.15 493.678 58.75 493.678 60.61V62.29H480.028C480.228 63.63 480.738 64.65 481.558 65.35C482.378 66.05 483.458 66.4 484.798 66.4C485.858 66.4 486.698 66.22 487.318 65.86C487.938 65.5 488.378 64.95 488.638 64.21H493.618C493.218 66.13 492.248 67.64 490.708 68.74C489.168 69.82 487.208 70.36 484.828 70.36ZM480.148 58.99H488.908C488.748 57.85 488.308 57 487.588 56.44C486.868 55.86 485.898 55.57 484.678 55.57C483.458 55.57 482.458 55.86 481.678 56.44C480.918 57.02 480.408 57.87 480.148 58.99ZM496.759 70V56.92H494.299V52H499.339V55.54H500.599C501.079 54.28 501.839 53.34 502.879 52.72C503.919 52.1 505.089 51.79 506.389 51.79H507.919V56.11H506.179C504.619 56.11 503.469 56.55 502.729 57.43C502.009 58.31 501.649 59.47 501.649 60.91V70H496.759Z" fill="#0008FF"/>
</svg>
