<svg width="550" height="114" viewBox="0 0 550 114" fill="none" xmlns="http://www.w3.org/2000/svg">
<path d="M25 25V89L1 65V1L25 25Z" stroke="#0008FF" stroke-width="1.5" stroke-miterlimit="10" stroke-linejoin="round"/>
<path d="M525 25H25L1 1H501L525 25Z" stroke="#0008FF" stroke-width="1.5" stroke-miterlimit="10" stroke-linejoin="round"/>
<path d="M549 113H49L25 89H525L549 113Z" stroke="#0008FF" stroke-width="1.5" stroke-miterlimit="10" stroke-linejoin="round"/>
<path d="M549 49V113L525 89V25L549 49Z" stroke="#0008FF" stroke-width="1.5" stroke-miterlimit="10" stroke-linejoin="round"/>
<path d="M43.55 71V46.7H56.03C57.49 46.7 58.77 46.96 59.87 47.48C60.97 48 61.83 48.73 62.45 49.67C63.07 50.59 63.38 51.66 63.38 52.88C63.38 54.1 63.06 55.14 62.42 56C61.78 56.84 60.91 57.47 59.81 57.89V58.01C60.75 58.25 61.57 58.65 62.27 59.21C62.99 59.77 63.55 60.46 63.95 61.28C64.37 62.1 64.58 63.03 64.58 64.07C64.58 65.45 64.24 66.66 63.56 67.7C62.88 68.74 61.94 69.55 60.74 70.13C59.56 70.71 58.17 71 56.57 71H43.55ZM48.62 66.56H55.67C56.89 66.56 57.83 66.3 58.49 65.78C59.15 65.24 59.48 64.47 59.48 63.47C59.48 62.47 59.15 61.71 58.49 61.19C57.85 60.67 56.92 60.41 55.7 60.41H48.62V66.56ZM48.62 56.39H55.31C56.27 56.39 57 56.17 57.5 55.73C58.02 55.27 58.28 54.61 58.28 53.75C58.28 52.89 58.02 52.24 57.5 51.8C57 51.36 56.27 51.14 55.31 51.14H48.62V56.39ZM73.9452 71.33C71.4452 71.33 69.5252 70.67 68.1852 69.35C66.8452 68.03 66.1752 66.23 66.1752 63.95V53H71.1552V62.99C71.1552 64.29 71.4852 65.27 72.1452 65.93C72.8252 66.57 73.8352 66.89 75.1752 66.89C76.5552 66.89 77.6152 66.54 78.3552 65.84C79.1152 65.14 79.4952 64.14 79.4952 62.84V53H84.4752V66.08H86.9352V71H81.8952V68.06H80.6352C79.9152 69.12 79.0352 69.93 77.9952 70.49C76.9752 71.05 75.6252 71.33 73.9452 71.33ZM88.6353 71V53H93.6153V71H88.6353ZM91.1253 51.23C90.3653 51.23 89.7153 50.97 89.1753 50.45C88.6553 49.91 88.3953 49.26 88.3953 48.5C88.3953 47.74 88.6553 47.1 89.1753 46.58C89.7153 46.04 90.3653 45.77 91.1253 45.77C91.8853 45.77 92.5253 46.04 93.0453 46.58C93.5853 47.1 93.8553 47.74 93.8553 48.5C93.8553 49.26 93.5853 49.91 93.0453 50.45C92.5253 50.97 91.8853 51.23 91.1253 51.23ZM96.3008 71V45.8H101.281V71H96.3008ZM111.496 71.36C109.656 71.36 108.086 70.97 106.786 70.19C105.506 69.41 104.536 68.32 103.876 66.92C103.216 65.5 102.886 63.86 102.886 62C102.886 60.12 103.206 58.48 103.846 57.08C104.486 55.66 105.416 54.57 106.636 53.81C107.876 53.03 109.356 52.64 111.076 52.64C112.396 52.64 113.526 52.89 114.466 53.39C115.426 53.87 116.166 54.56 116.686 55.46H116.806V45.8H121.786V66.08H124.246V71H119.206V68.06H117.946C117.306 69.1 116.446 69.91 115.366 70.49C114.306 71.07 113.016 71.36 111.496 71.36ZM112.426 67.04C113.766 67.04 114.826 66.67 115.606 65.93C116.406 65.17 116.806 64.13 116.806 62.81V61.19C116.806 59.87 116.406 58.84 115.606 58.1C114.826 57.34 113.766 56.96 112.426 56.96C110.906 56.96 109.766 57.41 109.006 58.31C108.246 59.21 107.866 60.44 107.866 62C107.866 63.56 108.246 64.79 109.006 65.69C109.766 66.59 110.906 67.04 112.426 67.04ZM125.694 71V53H130.674V71H125.694ZM128.184 51.23C127.424 51.23 126.774 50.97 126.234 50.45C125.714 49.91 125.454 49.26 125.454 48.5C125.454 47.74 125.714 47.1 126.234 46.58C126.774 46.04 127.424 45.77 128.184 45.77C128.944 45.77 129.584 46.04 130.104 46.58C130.644 47.1 130.914 47.74 130.914 48.5C130.914 49.26 130.644 49.91 130.104 50.45C129.584 50.97 128.944 51.23 128.184 51.23ZM134.56 71V57.92H132.1V53H137.14V55.94H138.4C139.1 54.9 139.98 54.1 141.04 53.54C142.1 52.96 143.42 52.67 145 52.67C147.5 52.67 149.43 53.36 150.79 54.74C152.17 56.1 152.86 57.93 152.86 60.23V71H147.88V61.16C147.88 59.84 147.52 58.84 146.8 58.16C146.1 57.46 145.07 57.11 143.71 57.11C142.35 57.11 141.31 57.46 140.59 58.16C139.89 58.84 139.54 59.84 139.54 61.16V71H134.56ZM163.884 78.56C161.184 78.56 158.984 78.01 157.284 76.91C155.604 75.83 154.604 74.32 154.284 72.38H159.564C160.044 73.86 161.434 74.6 163.734 74.6C165.294 74.6 166.484 74.24 167.304 73.52C168.144 72.82 168.564 71.8 168.564 70.46V68.06H168.414C167.874 69.02 167.124 69.75 166.164 70.25C165.224 70.75 164.094 71 162.774 71C161.074 71 159.594 70.63 158.334 69.89C157.094 69.13 156.124 68.06 155.424 66.68C154.744 65.3 154.404 63.68 154.404 61.82C154.404 59.02 155.174 56.79 156.714 55.13C158.274 53.47 160.404 52.64 163.104 52.64C164.624 52.64 165.914 52.93 166.974 53.51C168.054 54.09 168.914 54.9 169.554 55.94H170.814V53H175.854V57.92H173.394V70.52C173.394 73.08 172.574 75.06 170.934 76.46C169.294 77.86 166.944 78.56 163.884 78.56ZM164.004 66.68C165.384 66.68 166.464 66.3 167.244 65.54C168.024 64.78 168.414 63.74 168.414 62.42V61.16C168.414 59.86 168.014 58.84 167.214 58.1C166.434 57.34 165.364 56.96 164.004 56.96C162.544 56.96 161.404 57.39 160.584 58.25C159.784 59.11 159.384 60.31 159.384 61.85C159.384 63.39 159.784 64.58 160.584 65.42C161.404 66.26 162.544 66.68 164.004 66.68ZM189.986 71C188.706 71 187.706 70.68 186.986 70.04C186.286 69.38 185.936 68.38 185.936 67.04V56.9H182.846V53H185.996V47.6H190.856V53H195.026V56.9H190.916V67.1H195.446V71H189.986ZM196.667 71V45.8H201.647V55.58H201.767C202.347 54.62 203.127 53.9 204.107 53.42C205.087 52.92 206.247 52.67 207.587 52.67C209.847 52.67 211.637 53.36 212.957 54.74C214.297 56.1 214.967 57.93 214.967 60.23V71H209.987V61.16C209.987 59.84 209.627 58.84 208.907 58.16C208.207 57.46 207.177 57.11 205.817 57.11C204.457 57.11 203.417 57.46 202.697 58.16C201.997 58.84 201.647 59.84 201.647 61.16V71H196.667ZM225.915 71.36C223.975 71.36 222.285 70.98 220.845 70.22C219.405 69.44 218.295 68.35 217.515 66.95C216.735 65.53 216.345 63.86 216.345 61.94C216.345 60.02 216.725 58.37 217.485 56.99C218.245 55.59 219.325 54.52 220.725 53.78C222.145 53.02 223.815 52.64 225.735 52.64C227.615 52.64 229.225 53 230.565 53.72C231.925 54.44 232.965 55.47 233.685 56.81C234.405 58.15 234.765 59.75 234.765 61.61V63.29H221.115C221.315 64.63 221.825 65.65 222.645 66.35C223.465 67.05 224.545 67.4 225.885 67.4C226.945 67.4 227.785 67.22 228.405 66.86C229.025 66.5 229.465 65.95 229.725 65.21H234.705C234.305 67.13 233.335 68.64 231.795 69.74C230.255 70.82 228.295 71.36 225.915 71.36ZM221.235 59.99H229.995C229.835 58.85 229.395 58 228.675 57.44C227.955 56.86 226.985 56.57 225.765 56.57C224.545 56.57 223.545 56.86 222.765 57.44C222.005 58.02 221.495 58.87 221.235 59.99ZM248.994 71H243.924V46.7H261.354V51.14H248.994V56.54H260.334V60.98H248.994V71ZM270.1 71.33C267.6 71.33 265.68 70.67 264.34 69.35C263 68.03 262.33 66.23 262.33 63.95V53H267.31V62.99C267.31 64.29 267.64 65.27 268.3 65.93C268.98 66.57 269.99 66.89 271.33 66.89C272.71 66.89 273.77 66.54 274.51 65.84C275.27 65.14 275.65 64.14 275.65 62.84V53H280.63V66.08H283.09V71H278.05V68.06H276.79C276.07 69.12 275.19 69.93 274.15 70.49C273.13 71.05 271.78 71.33 270.1 71.33ZM290.154 71C288.874 71 287.874 70.68 287.154 70.04C286.454 69.38 286.104 68.38 286.104 67.04V56.9H283.014V53H286.164V47.6H291.024V53H295.194V56.9H291.084V67.1H295.614V71H290.154ZM304.486 71.33C301.986 71.33 300.066 70.67 298.726 69.35C297.386 68.03 296.716 66.23 296.716 63.95V53H301.696V62.99C301.696 64.29 302.026 65.27 302.686 65.93C303.366 66.57 304.376 66.89 305.716 66.89C307.096 66.89 308.156 66.54 308.896 65.84C309.656 65.14 310.036 64.14 310.036 62.84V53H315.016V66.08H317.476V71H312.436V68.06H311.176C310.456 69.12 309.576 69.93 308.536 70.49C307.516 71.05 306.166 71.33 304.486 71.33ZM319.802 71V57.92H317.342V53H322.382V56.54H323.642C324.122 55.28 324.882 54.34 325.922 53.72C326.962 53.1 328.132 52.79 329.432 52.79H330.962V57.11H329.222C327.662 57.11 326.512 57.55 325.772 58.43C325.052 59.31 324.692 60.47 324.692 61.91V71H319.802ZM339.902 71.36C337.962 71.36 336.272 70.98 334.832 70.22C333.392 69.44 332.282 68.35 331.502 66.95C330.722 65.53 330.332 63.86 330.332 61.94C330.332 60.02 330.712 58.37 331.472 56.99C332.232 55.59 333.312 54.52 334.712 53.78C336.132 53.02 337.802 52.64 339.722 52.64C341.602 52.64 343.212 53 344.552 53.72C345.912 54.44 346.952 55.47 347.672 56.81C348.392 58.15 348.752 59.75 348.752 61.61V63.29H335.102C335.302 64.63 335.812 65.65 336.632 66.35C337.452 67.05 338.532 67.4 339.872 67.4C340.932 67.4 341.772 67.22 342.392 66.86C343.012 66.5 343.452 65.95 343.712 65.21H348.692C348.292 67.13 347.322 68.64 345.782 69.74C344.242 70.82 342.282 71.36 339.902 71.36ZM335.222 59.99H343.982C343.822 58.85 343.382 58 342.662 57.44C341.942 56.86 340.972 56.57 339.752 56.57C338.532 56.57 337.532 56.86 336.752 57.44C335.992 58.02 335.482 58.87 335.222 59.99ZM349.432 76.28V73.4H350.812C351.372 73.4 351.782 73.25 352.042 72.95C352.302 72.65 352.432 72.26 352.432 71.78V71H349.942V65.66H355.402V71.99C355.402 73.33 355.052 74.38 354.352 75.14C353.652 75.9 352.572 76.28 351.112 76.28H349.432ZM376.264 71H371.284V51.14H363.394V46.7H384.154V51.14H376.264V71ZM391.109 71.36C389.149 71.36 387.439 70.98 385.979 70.22C384.539 69.44 383.419 68.35 382.619 66.95C381.819 65.55 381.419 63.89 381.419 61.97C381.419 60.07 381.809 58.42 382.589 57.02C383.389 55.62 384.519 54.54 385.979 53.78C387.439 53.02 389.159 52.64 391.139 52.64C393.099 52.64 394.799 53.02 396.239 53.78C397.679 54.54 398.789 55.62 399.569 57.02C400.349 58.42 400.739 60.08 400.739 62C400.739 63.9 400.349 65.56 399.569 66.98C398.789 68.38 397.669 69.46 396.209 70.22C394.769 70.98 393.069 71.36 391.109 71.36ZM391.109 67.04C392.609 67.04 393.759 66.59 394.559 65.69C395.359 64.77 395.759 63.53 395.759 61.97C395.759 60.41 395.359 59.19 394.559 58.31C393.759 57.41 392.609 56.96 391.109 56.96C389.589 56.96 388.419 57.41 387.599 58.31C386.799 59.19 386.399 60.41 386.399 61.97C386.399 63.53 386.799 64.77 387.599 65.69C388.419 66.59 389.589 67.04 391.109 67.04ZM410.914 78.56C408.214 78.56 406.014 78.01 404.314 76.91C402.634 75.83 401.634 74.32 401.314 72.38H406.594C407.074 73.86 408.464 74.6 410.764 74.6C412.324 74.6 413.514 74.24 414.334 73.52C415.174 72.82 415.594 71.8 415.594 70.46V68.06H415.444C414.904 69.02 414.154 69.75 413.194 70.25C412.254 70.75 411.124 71 409.804 71C408.104 71 406.624 70.63 405.364 69.89C404.124 69.13 403.154 68.06 402.454 66.68C401.774 65.3 401.434 63.68 401.434 61.82C401.434 59.02 402.204 56.79 403.744 55.13C405.304 53.47 407.434 52.64 410.134 52.64C411.654 52.64 412.944 52.93 414.004 53.51C415.084 54.09 415.944 54.9 416.584 55.94H417.844V53H422.884V57.92H420.424V70.52C420.424 73.08 419.604 75.06 417.964 76.46C416.324 77.86 413.974 78.56 410.914 78.56ZM411.034 66.68C412.414 66.68 413.494 66.3 414.274 65.54C415.054 64.78 415.444 63.74 415.444 62.42V61.16C415.444 59.86 415.044 58.84 414.244 58.1C413.464 57.34 412.394 56.96 411.034 56.96C409.574 56.96 408.434 57.39 407.614 58.25C406.814 59.11 406.414 60.31 406.414 61.85C406.414 63.39 406.814 64.58 407.614 65.42C408.434 66.26 409.574 66.68 411.034 66.68ZM432.828 71.36C430.888 71.36 429.198 70.98 427.758 70.22C426.318 69.44 425.208 68.35 424.428 66.95C423.648 65.53 423.258 63.86 423.258 61.94C423.258 60.02 423.638 58.37 424.398 56.99C425.158 55.59 426.238 54.52 427.638 53.78C429.058 53.02 430.728 52.64 432.648 52.64C434.528 52.64 436.138 53 437.478 53.72C438.838 54.44 439.878 55.47 440.598 56.81C441.318 58.15 441.678 59.75 441.678 61.61V63.29H428.028C428.228 64.63 428.738 65.65 429.558 66.35C430.378 67.05 431.458 67.4 432.798 67.4C433.858 67.4 434.698 67.22 435.318 66.86C435.938 66.5 436.378 65.95 436.638 65.21H441.618C441.218 67.13 440.248 68.64 438.708 69.74C437.168 70.82 435.208 71.36 432.828 71.36ZM428.148 59.99H436.908C436.748 58.85 436.308 58 435.588 57.44C434.868 56.86 433.898 56.57 432.678 56.57C431.458 56.57 430.458 56.86 429.678 57.44C428.918 58.02 428.408 58.87 428.148 59.99ZM448.899 71C447.619 71 446.619 70.68 445.899 70.04C445.199 69.38 444.849 68.38 444.849 67.04V56.9H441.759V53H444.909V47.6H449.769V53H453.939V56.9H449.829V67.1H454.359V71H448.899ZM455.58 71V45.8H460.56V55.58H460.68C461.26 54.62 462.04 53.9 463.02 53.42C464 52.92 465.16 52.67 466.5 52.67C468.76 52.67 470.55 53.36 471.87 54.74C473.21 56.1 473.88 57.93 473.88 60.23V71H468.9V61.16C468.9 59.84 468.54 58.84 467.82 58.16C467.12 57.46 466.09 57.11 464.73 57.11C463.37 57.11 462.33 57.46 461.61 58.16C460.91 58.84 460.56 59.84 460.56 61.16V71H455.58ZM484.828 71.36C482.888 71.36 481.198 70.98 479.758 70.22C478.318 69.44 477.208 68.35 476.428 66.95C475.648 65.53 475.258 63.86 475.258 61.94C475.258 60.02 475.638 58.37 476.398 56.99C477.158 55.59 478.238 54.52 479.638 53.78C481.058 53.02 482.728 52.64 484.648 52.64C486.528 52.64 488.138 53 489.478 53.72C490.838 54.44 491.878 55.47 492.598 56.81C493.318 58.15 493.678 59.75 493.678 61.61V63.29H480.028C480.228 64.63 480.738 65.65 481.558 66.35C482.378 67.05 483.458 67.4 484.798 67.4C485.858 67.4 486.698 67.22 487.318 66.86C487.938 66.5 488.378 65.95 488.638 65.21H493.618C493.218 67.13 492.248 68.64 490.708 69.74C489.168 70.82 487.208 71.36 484.828 71.36ZM480.148 59.99H488.908C488.748 58.85 488.308 58 487.588 57.44C486.868 56.86 485.898 56.57 484.678 56.57C483.458 56.57 482.458 56.86 481.678 57.44C480.918 58.02 480.408 58.87 480.148 59.99ZM496.759 71V57.92H494.299V53H499.339V56.54H500.599C501.079 55.28 501.839 54.34 502.879 53.72C503.919 53.1 505.089 52.79 506.389 52.79H507.919V57.11H506.179C504.619 57.11 503.469 57.55 502.729 58.43C502.009 59.31 501.649 60.47 501.649 61.91V71H496.759Z" fill="#0008FF"/>
</svg>
