<svg width="24" height="24" viewBox="0 0 24 24" fill="none" xmlns="http://www.w3.org/2000/svg">
<path d="M6.16732 4.49992H9.50065V9.49992H7.83398H4.50065V4.49992H2.83398V9.49992V11.1666H9.50065H11.1673V9.49992V2.83325H4.50065L6.16732 4.49992Z" fill="#0008FF"/>
<path d="M13.6673 2.83325H12.834V11.1666H21.1673V10.3333C21.1673 6.19992 17.8007 2.83325 13.6673 2.83325ZM14.5007 9.49992V4.55547C17.0562 4.92214 19.0784 6.94436 19.4451 9.49992H14.5007Z" fill="#666BFF"/>
<path d="M2.83398 12.822V19.4887L4.50065 21.1554H11.1673V12.822H2.83398ZM9.50065 19.4887H4.50065V14.4887H9.50065V19.4887Z" fill="#0008FF"/>
<path d="M14.5007 12.8333H12.834V14.4999V21.1666H19.5006L17.834 19.4999H14.5007V14.4999H16.1673H19.5006V19.4999H21.1673V12.8333H19.5006H14.5007Z" fill="#0008FF"/>
</svg>
