<svg width="24" height="24" viewBox="0 0 24 24" fill="none" xmlns="http://www.w3.org/2000/svg">
<path fill-rule="evenodd" clip-rule="evenodd" d="M21 13H14C13.45 13 13 13.45 13 14V21C13 21.55 13.45 22 14 22H21C21.56 22 22 21.55 22 21V14C22 13.45 21.56 13 21 13ZM20 20H15V15H20V20ZM10 13H3C2.45 13 2 13.45 2 14V21C2 21.55 2.45 22 3 22H10C10.56 22 11 21.55 11 21V14C11 13.45 10.56 13 10 13ZM9 20H4V15H9V20ZM20 4V9H15V4H20V2H14C13.45 2 13 2.45 13 3V10C13 10.55 13.45 11 14 11H21C21.56 11 22 10.55 22 10V4H20ZM10 2H3C2.45 2 2 2.45 2 3V10C2 10.55 2.45 11 3 11H10C10.56 11 11 10.55 11 10V3C11 2.45 10.56 2 10 2ZM9 9H4V4H9V9Z" fill="#0008FF"/>
</svg>
