<svg width="25" height="24" viewBox="0 0 25 24" fill="none" xmlns="http://www.w3.org/2000/svg">
<path fill-rule="evenodd" clip-rule="evenodd" d="M17.5517 3.819L17.7487 6H20.9727C21.5031 6 22.0118 6.21071 22.3869 6.58579C22.762 6.96086 22.9727 7.46957 22.9727 8V18C22.9727 18.5304 22.762 19.0391 22.3869 19.4142C22.0118 19.7893 21.5031 20 20.9727 20H4.97168C4.44125 20 3.93254 19.7893 3.55747 19.4142C3.18239 19.0391 2.97168 18.5304 2.97168 18V8C2.97168 7.46957 3.18239 6.96086 3.55747 6.58579C3.93254 6.21071 4.44125 6 4.97168 6H8.19468L8.39268 3.819C8.43785 3.32191 8.66726 2.85968 9.03585 2.52311C9.40443 2.18654 9.88554 1.99995 10.3847 2H15.5597C16.0588 1.99995 16.5399 2.18654 16.9085 2.52311C17.2771 2.85968 17.5065 3.32191 17.5517 3.819ZM10.3847 4H15.5597L15.7407 6H10.2037L10.3847 4ZM8.01268 8L8.19468 6H10.2037L10.0217 8H15.9227L15.7417 6H17.7487L17.9317 8H20.9737V10H4.97168V8H8.01268ZM4.97168 12V18H20.9737V12H4.97168Z" fill="#777e90"/>
</svg>
