<svg width="24" height="24" viewBox="0 0 24 24" fill="none" xmlns="http://www.w3.org/2000/svg">
<path fill-rule="evenodd" clip-rule="evenodd" d="M16.593 3.819L16.79 6H20.014C20.5444 6 21.0531 6.21071 21.4282 6.58579C21.8033 6.96086 22.014 7.46957 22.014 8V18C22.014 18.5304 21.8033 19.0391 21.4282 19.4142C21.0531 19.7893 20.5444 20 20.014 20H4.013C3.48257 20 2.97386 19.7893 2.59879 19.4142C2.22371 19.0391 2.013 18.5304 2.013 18V8C2.013 7.46957 2.22371 6.96086 2.59879 6.58579C2.97386 6.21071 3.48257 6 4.013 6H7.236L7.434 3.819C7.47917 3.32191 7.70858 2.85968 8.07717 2.52311C8.44575 2.18654 8.92687 1.99995 9.426 2H14.601C15.1001 1.99995 15.5813 2.18654 15.9498 2.52311C16.3184 2.85968 16.5478 3.32191 16.593 3.819ZM9.426 4H14.601L14.782 6H9.245L9.426 4ZM7.054 8L7.236 6H9.245L9.063 8H14.964L14.783 6H16.79L16.973 8H20.015V10H4.013V8H7.054ZM4.013 12V18H20.015V12H4.013Z" fill="white"/>
</svg>
