<svg width="24" height="24" viewBox="0 0 24 24" fill="none" xmlns="http://www.w3.org/2000/svg">
<path d="M16.1654 7.42212H14.4987C14.4987 6.96656 14.1209 6.58879 13.6654 6.58879H10.332C9.87648 6.58879 9.4987 6.96656 9.4987 7.42212H7.83203C7.83203 6.04434 8.95425 4.92212 10.332 4.92212H13.6654C15.0431 4.92212 16.1654 6.04434 16.1654 7.42212Z" fill="#C9CBD3"/>
<path d="M16.9993 17.411H5.33268V9.07764H3.66602V17.411L5.33268 19.0776H18.666L16.9993 17.411Z" fill="#777e90"/>
<path d="M18.6654 12.4221H5.33203V14.0888H18.6654V12.4221Z" fill="#777e90"/>
<path d="M12.8327 11.5889H11.166V14.9222H12.8327V11.5889Z" fill="#777e90"/>
<path d="M18.6654 7.42212H5.33203L6.9987 9.08879H18.6654V17.4221H20.332V9.08879L18.6654 7.42212Z" fill="#C9CBD3"/>
</svg>
