<svg width="24" height="24" viewBox="0 0 24 24" fill="none" xmlns="http://www.w3.org/2000/svg">
<path fill-rule="evenodd" clip-rule="evenodd" d="M17.9989 4C16.8989 4 15.9989 4.9 15.9989 6C15.9989 7.1 16.8989 8 17.9989 8C19.0989 8 19.9989 7.1 19.9989 6C19.9989 4.9 19.0989 4 17.9989 4ZM13.9989 6C13.9989 3.79 15.7889 2 17.9989 2C20.2089 2 21.9989 3.79 21.9989 6C21.9989 7.82 20.7689 9.42 18.9989 9.87V14.15C21.1189 14.77 22.3389 16.99 21.7189 19.11C21.2189 20.81 19.6589 21.99 17.8889 21.99C15.6789 21.99 13.8889 20.2 13.8889 17.99C13.8889 17.7 13.9189 17.42 13.9789 17.14L8.94889 14.26C7.45889 15.89 4.92889 16 3.29889 14.51C1.66889 13.02 1.55889 10.49 3.04889 8.86C4.53889 7.23 7.06889 7.12 8.69889 8.61C8.82889 8.73 8.95889 8.86 9.06889 9L14.0589 6.72C14.0189 6.48 13.9889 6.24 13.9889 5.99L13.9989 6ZM14.9089 8.54L9.92889 10.81C10.0389 11.37 10.0189 11.94 9.88889 12.5L14.8789 15.36C15.4389 14.73 16.1789 14.28 16.9989 14.1V9.87C16.1789 9.66 15.4489 9.19 14.9089 8.54ZM5.99889 9.57C4.89889 9.57 3.99889 10.47 3.99889 11.57C3.99889 12.67 4.89889 13.57 5.99889 13.57C7.09889 13.57 7.99889 12.67 7.99889 11.57C7.99889 10.47 7.09889 9.57 5.99889 9.57ZM17.8889 16C16.7889 16 15.8889 16.9 15.8889 18C15.8889 19.1 16.7889 20 17.8889 20C18.9889 20 19.8889 19.1 19.8889 18C19.8889 16.9 18.9889 16 17.8889 16Z" fill="#777e90"/>
</svg>
