<svg width="24" height="24" viewBox="0 0 24 24" fill="none" xmlns="http://www.w3.org/2000/svg">
<path d="M10 9C10 8.73478 10.1054 8.48043 10.2929 8.29289C10.4804 8.10536 10.7348 8 11 8H13C13.2652 8 13.5196 8.10536 13.7071 8.29289C13.8946 8.48043 14 8.73478 14 9V10C14 10.2652 13.8946 10.5196 13.7071 10.7071C13.5196 10.8946 13.2652 11 13 11C12.4696 11 11.9609 11.2107 11.5858 11.5858C11.2107 11.9609 11 12.4696 11 13V15H13V13C13.7956 13 14.5587 12.6839 15.1213 12.1213C15.6839 11.5587 16 10.7956 16 10V9C16 8.20435 15.6839 7.44129 15.1213 6.87868C14.5587 6.31607 13.7956 6 13 6H11C10.2044 6 9.44129 6.31607 8.87868 6.87868C8.31607 7.44129 8 8.20435 8 9V11H10V9ZM13.063 17.125C13.063 17.3902 12.9576 17.6446 12.7701 17.8321C12.5826 18.0196 12.3282 18.125 12.063 18.125C11.7978 18.125 11.5434 18.0196 11.3559 17.8321C11.1684 17.6446 11.063 17.3902 11.063 17.125C11.063 16.8598 11.1684 16.6054 11.3559 16.4179C11.5434 16.2304 11.7978 16.125 12.063 16.125C12.3282 16.125 12.5826 16.2304 12.7701 16.4179C12.9576 16.6054 13.063 16.8598 13.063 17.125Z" fill="white"/>
<path fill-rule="evenodd" clip-rule="evenodd" d="M2 12C2 6.477 6.477 2 12 2C17.523 2 22 6.477 22 12C22 17.523 17.523 22 12 22C10.3014 22.0024 8.6305 21.5704 7.146 20.745L3.3 21.954L2.046 20.7L3.255 16.854C2.42962 15.3695 1.9976 13.6985 2 12ZM12 4C10.5754 3.99971 9.17659 4.37982 7.94808 5.10106C6.71956 5.82231 5.70592 6.85852 5.0119 8.10261C4.31789 9.34671 3.96866 10.7536 4.00032 12.1778C4.03198 13.602 4.44338 14.992 5.192 16.204L5.296 17.03L4.529 19.471L6.969 18.704L7.796 18.808C8.84859 19.4576 10.0375 19.8542 11.2692 19.9668C12.501 20.0794 13.7421 19.9048 14.895 19.4568C16.0479 19.0088 17.0812 18.2995 17.9137 17.3848C18.7463 16.4701 19.3554 15.3747 19.6932 14.1849C20.031 12.995 20.0883 11.743 19.8606 10.5273C19.6329 9.31151 19.1264 8.16512 18.3809 7.17815C17.6354 6.19118 16.6712 5.39052 15.564 4.83907C14.4568 4.28763 13.2369 4.00041 12 4Z" fill="white"/>
</svg>
