<svg width="24" height="24" viewBox="0 0 24 24" fill="none" xmlns="http://www.w3.org/2000/svg">
<path d="M11.9993 3.68896C7.39935 3.68896 3.66602 7.4223 3.66602 12.0223C3.66602 16.3445 6.9549 19.9001 11.166 20.3112V18.6334C7.87713 18.2223 5.33268 15.4223 5.33268 12.0223C5.33268 8.34452 8.32157 5.35563 11.9993 5.35563C15.6771 5.35563 18.666 8.34452 18.666 12.0223C18.666 15.4223 16.1216 18.2223 12.8327 18.6334V20.3112C17.0438 19.9001 20.3327 16.3445 20.3327 12.0223C20.3327 7.4223 16.5993 3.68896 11.9993 3.68896Z" fill="#C9CBD3"/>
<path d="M12.833 18.6332H11.1664V14.1666L14.9886 10.3555L14.1553 9.52214H9.84414L8.42192 10.9444L7.24414 9.75547L9.15525 7.85547H14.8441L17.3441 10.3555L12.833 14.8666V18.6332Z" fill="#777e90"/>
</svg>
