<svg width="24" height="24" viewBox="0 0 24 24" fill="none" xmlns="http://www.w3.org/2000/svg">
<path d="M12.8438 3.66675H12.0105C7.39935 3.66675 3.66602 7.41119 3.66602 12.0001V12.0334H5.33268V12.0001C5.33268 8.61119 7.87713 5.80008 11.166 5.38897V11.1667H6.99935V12.8334H11.166V17.0001H12.8327V12.8334H18.6105C18.1993 16.1223 15.3882 18.6667 11.9993 18.6667C8.33268 18.6667 5.3549 15.7001 5.33268 12.0334L3.81046 13.5445C4.53268 17.4112 7.93268 20.3334 11.9993 20.3334C16.5882 20.3334 20.3327 16.6001 20.3327 12.0001V11.1667H12.8327V3.66675H12.8438Z" fill="#0008FF"/>
<path d="M14.5111 3.66675H13.6777V10.3334H20.3444V9.50008C20.3444 6.28897 17.7222 3.66675 14.5111 3.66675ZM15.3333 8.66675V5.4223C16.9555 5.75564 18.2444 7.04453 18.5777 8.66675H15.3333Z" fill="#666BFF"/>
</svg>
