<svg width="24" height="24" viewBox="0 0 24 24" fill="none" xmlns="http://www.w3.org/2000/svg">
<path d="M17.8327 9.07787C17.8327 7.57787 17.266 6.08898 16.1216 4.95565C13.8549 2.67787 10.1438 2.67787 7.87713 4.95565C6.77713 6.05565 6.16602 7.52231 6.16602 9.07787H7.83268C7.83268 7.96676 8.26602 6.92231 9.0549 6.13343C9.86602 5.32231 10.9327 4.9112 11.9993 4.9112C13.066 4.9112 14.1327 5.32231 14.9438 6.13343C15.7549 6.94454 16.1549 8.0112 16.1549 9.07787C16.1549 10.1445 15.7549 11.2112 14.9438 12.0223C13.3216 13.6445 10.6771 13.6445 9.0549 12.0223C8.26602 11.2334 7.83268 10.189 7.83268 9.07787L6.36602 10.5445C6.61046 11.5445 7.13268 12.4556 7.87713 13.2001C9.01046 14.3334 10.5105 14.9112 11.9993 14.9112C13.4882 14.9112 14.9882 14.3334 16.1216 13.2001C16.8882 12.4445 17.3882 11.5223 17.6327 10.5445L16.166 9.07787H17.8327Z" fill="#0008FF"/>
<path d="M17.8327 17.4111L16.166 15.7444H7.83268L6.16602 17.4111H17.8327Z" fill="#666BFF"/>
<path d="M17.8327 20.7445L16.166 19.0779H7.83268L6.16602 20.7445H17.8327Z" fill="#666BFF"/>
</svg>
