<svg width="24" height="24" viewBox="0 0 24 24" fill="none" xmlns="http://www.w3.org/2000/svg">
<path d="M9.21 12.74L7.8 14.15L11.3 17.65C11.69 18.04 12.32 18.04 12.71 17.65L16.21 14.15L14.8 12.74L13.01 14.53V4.02H11.01V14.54L9.21 12.74Z" fill="#0008FF"/>
<path d="M13 2V4.02C16.95 4.51 20 7.87 20 11.95C20 16.37 16.42 19.95 12 19.95C7.58 19.95 4 16.37 4 11.95C4 7.87 7.05 4.51 11 4.02V2C5.95 2.5 2 6.76 2 11.95C2 17.47 6.48 21.95 12 21.95C17.52 21.95 22 17.47 22 11.95C22 6.76 18.05 2.5 13 2Z" fill="#0008FF"/>
</svg>
