<svg width="26" height="26" viewBox="0 0 26 26" fill="none" xmlns="http://www.w3.org/2000/svg">
<rect x="0.5" y="0.5" width="25" height="25" rx="12.5" fill="#9391F7"/>
<rect x="0.5" y="0.5" width="25" height="25" rx="12.5" stroke="#FDFDFD"/>
<path d="M10.7694 13.5855C11.7984 13.4185 12.4971 12.4489 12.3302 11.4199C12.1631 10.3909 11.1935 9.69212 10.1645 9.85914C9.13551 10.0262 8.43675 10.9957 8.60377 12.0248C8.77081 13.0538 9.74038 13.7525 10.7694 13.5855Z" fill="white"/>
<path d="M15.7021 13.5855C16.731 13.4185 17.4298 12.4489 17.2627 11.4199C17.0958 10.3909 16.1261 9.69212 15.0972 9.85914C14.0682 10.0262 13.3693 10.9957 13.5364 12.0248C13.7034 13.0538 14.673 13.7525 15.7021 13.5855Z" fill="white"/>
<path d="M12.9304 3.92969C7.80526 3.92969 3.65003 8.16407 3.65137 13.3858H6.02189C6.02189 9.47254 9.09047 6.29976 12.9304 6.29976C16.7704 6.29976 19.839 9.47254 19.839 13.3858H22.2095C22.2104 8.16407 18.0552 3.92969 12.9304 3.92969Z" fill="white"/>
</svg>
