<svg width="26" height="26" viewBox="0 0 26 26" fill="none" xmlns="http://www.w3.org/2000/svg">
<circle cx="13" cy="13" r="12.5" fill="#EEAD21" stroke="white"/>
<path fill-rule="evenodd" clip-rule="evenodd" d="M20.0609 17.6839V14.1451C20.0601 13.8022 19.7841 13.5244 19.4439 13.5244C19.2738 13.5244 19.1197 13.5769 19.0081 13.6851C17.0687 15.8408 12.6429 17.4107 7.3594 17.6516C6.58386 17.687 6.00193 18.3841 6.54679 18.9419C7.64722 20.0683 10.1225 20.8535 12.9995 20.8535C16.8994 20.8535 20.0609 19.4636 20.0609 17.6839Z" fill="#0F0F0F"/>
<path fill-rule="evenodd" clip-rule="evenodd" d="M18.2632 12.2983V9.69427C18.2626 9.44191 18.0587 9.23755 17.8071 9.23755C17.6814 9.23755 17.5675 9.27619 17.485 9.35575C16.0515 10.942 12.7803 12.0973 8.875 12.2746C8.30176 12.3006 7.87162 12.8136 8.27434 13.224C9.08776 14.0529 10.9173 14.6307 13.0439 14.6307C15.9264 14.6307 18.2632 13.6079 18.2632 12.2983Z" fill="#0F0F0F"/>
<path fill-rule="evenodd" clip-rule="evenodd" d="M16.4795 8.29525V6.62601C16.479 6.46426 16.3467 6.33325 16.1837 6.33325C16.1021 6.33325 16.0282 6.358 15.9747 6.40904C15.0449 7.42587 12.923 8.16637 10.3898 8.28007C10.018 8.29675 9.739 8.62561 10.0002 8.88865C10.5278 9.42001 11.7145 9.79039 13.0939 9.79039C14.9637 9.79039 16.4795 9.13477 16.4795 8.29525Z" fill="#0F0F0F"/>
</svg>
