<svg width="26" height="26" viewBox="0 0 26 26" fill="none" xmlns="http://www.w3.org/2000/svg">
<rect x="0.5" y="0.5" width="25" height="25" rx="12.5" fill="#F50DB4"/>
<rect x="0.5" y="0.5" width="25" height="25" rx="12.5" stroke="#FDFDFD"/>
<path d="M18.5476 6.71253C18.5719 6.28833 18.6299 6.00853 18.7465 5.75301C18.7926 5.65187 18.8359 5.56909 18.8425 5.56909C18.8492 5.56909 18.8292 5.64375 18.798 5.73497C18.7132 5.98296 18.6992 6.32214 18.7577 6.71677C18.8318 7.21748 18.8739 7.28972 19.4075 7.8306C19.6577 8.08429 19.9489 8.40425 20.0544 8.54161L20.2462 8.79141L20.0544 8.6129C19.8197 8.39462 19.2801 7.96888 19.1609 7.90802C19.081 7.86721 19.0691 7.86791 19.0198 7.91659C18.9744 7.96143 18.9648 8.02883 18.9585 8.34743C18.9487 8.84392 18.8804 9.16265 18.7157 9.4813C18.6267 9.65367 18.6126 9.61688 18.6932 9.42232C18.7534 9.27708 18.7595 9.21321 18.7591 8.73256C18.7582 7.76677 18.6426 7.53459 17.9646 7.13684C17.7929 7.03608 17.5099 6.89077 17.3358 6.8139C17.1617 6.73704 17.0234 6.67009 17.0285 6.66509C17.0477 6.64614 17.7088 6.83754 17.9749 6.93906C18.3707 7.09008 18.436 7.10965 18.4841 7.09144C18.5163 7.07923 18.5319 6.98614 18.5476 6.71253Z" fill="white"/>
<path d="M10.1848 5.30773C9.94998 5.27167 9.94006 5.26744 10.0506 5.25063C10.2624 5.21839 10.7624 5.26233 11.1069 5.34344C11.9113 5.53274 12.6433 6.01766 13.4246 6.87889L13.6322 7.10768L13.9291 7.06042C15.1801 6.8614 16.4527 7.01957 17.5171 7.50638C17.81 7.6403 18.2717 7.9069 18.3294 7.9754C18.3477 7.99724 18.3815 8.13779 18.4043 8.28777C18.4834 8.80661 18.4438 9.20427 18.2835 9.50131C18.1963 9.66298 18.1914 9.7142 18.2501 9.85252C18.2969 9.96293 18.4274 10.0446 18.5566 10.0444C18.8211 10.0441 19.1059 9.62076 19.2378 9.03174L19.2902 8.79778L19.394 8.9142C19.9634 9.55287 20.4106 10.4238 20.4874 11.0438L20.5074 11.2054L20.4117 11.0585C20.247 10.8057 20.0815 10.6335 19.8696 10.4947C19.4876 10.2444 19.0836 10.1592 18.0138 10.1034C17.0476 10.053 16.5008 9.9713 15.9586 9.79628C15.0361 9.49849 14.571 9.10191 13.4751 7.67854C12.9884 7.04632 12.6876 6.69652 12.3883 6.41483C11.7083 5.77476 11.0401 5.43907 10.1848 5.30773Z" fill="white"/>
<path d="M10.6407 8.36928C10.1641 7.71955 9.8691 6.7234 9.93297 5.97873L9.95268 5.74829L10.0612 5.76789C10.265 5.80469 10.6163 5.93415 10.7808 6.03307C11.2323 6.30451 11.4277 6.66189 11.6266 7.57957C11.6848 7.84836 11.7612 8.15254 11.7964 8.25552C11.853 8.42129 12.0669 8.80846 12.2408 9.05992C12.3661 9.241 12.2828 9.32681 12.006 9.30209C11.5831 9.2643 11.0103 8.87291 10.6407 8.36928Z" fill="white"/>
<path d="M17.9689 13.2047C15.7412 12.3167 14.9565 11.546 14.9565 10.2454C14.9565 10.0541 14.9632 9.89746 14.9713 9.89746C14.9794 9.89746 15.0656 9.96063 15.1628 10.0379C15.6146 10.3965 16.1204 10.5497 17.5208 10.752C18.3449 10.871 18.8086 10.9672 19.2364 11.1076C20.5961 11.554 21.4373 12.46 21.638 13.694C21.6963 14.0525 21.6621 14.7249 21.5676 15.0793C21.493 15.3592 21.2653 15.8637 21.2049 15.883C21.1881 15.8884 21.1717 15.8249 21.1674 15.7385C21.1445 15.2751 20.908 14.824 20.5108 14.4861C20.0592 14.1019 19.4524 13.796 17.9689 13.2047Z" fill="white"/>
<path d="M16.405 13.5735C16.3771 13.4091 16.3287 13.1991 16.2975 13.1069L16.2406 12.9392L16.3462 13.0565C16.4923 13.2189 16.6078 13.4267 16.7056 13.7033C16.7803 13.9145 16.7887 13.9774 16.7881 14.3205C16.7875 14.6575 16.7782 14.7281 16.7093 14.9182C16.6005 15.2179 16.4655 15.4304 16.2391 15.6586C15.8322 16.0686 15.309 16.2956 14.554 16.3898C14.4228 16.4061 14.0403 16.4337 13.704 16.451C12.8565 16.4946 12.2988 16.5848 11.7976 16.759C11.7255 16.7841 11.6612 16.7993 11.6547 16.7928C11.6344 16.7728 11.9756 16.5715 12.2575 16.4371C12.6549 16.2475 13.0505 16.1441 13.9369 15.998C14.3747 15.9258 14.8269 15.8382 14.9417 15.8033C16.026 15.4742 16.5834 14.6249 16.405 13.5735Z" fill="white"/>
<path d="M17.4263 15.3691C17.1303 14.7392 17.0623 14.131 17.2245 13.5638C17.2418 13.5032 17.2697 13.4536 17.2865 13.4536C17.3033 13.4536 17.3731 13.491 17.4417 13.5367C17.5781 13.6276 17.8516 13.7807 18.5804 14.174C19.4898 14.6649 20.0083 15.045 20.3609 15.4792C20.6697 15.8596 20.8608 16.2927 20.9528 16.8209C21.0049 17.1201 20.9744 17.8399 20.8968 18.1412C20.6523 19.0911 20.084 19.8373 19.2735 20.2727C19.1548 20.3365 19.0481 20.3889 19.0366 20.3891C19.025 20.3893 19.0683 20.2804 19.1328 20.147C19.4054 19.5828 19.4365 19.0339 19.2303 18.4229C19.1041 18.0489 18.8468 17.5925 18.3271 16.821C17.723 15.9241 17.5749 15.6854 17.4263 15.3691Z" fill="white"/>
<path d="M9.05862 18.7677C9.88531 18.0767 10.9139 17.5858 11.8508 17.4351C12.2546 17.3702 12.9273 17.396 13.3012 17.4907C13.9006 17.6425 14.4368 17.9827 14.7156 18.3879C14.9881 18.7839 15.105 19.1291 15.2267 19.897C15.2748 20.1998 15.327 20.504 15.3428 20.5729C15.4342 20.9709 15.6121 21.289 15.8325 21.4487C16.1826 21.7024 16.7855 21.7182 17.3786 21.4892C17.4792 21.4503 17.5666 21.4234 17.5728 21.4295C17.5943 21.4506 17.2956 21.6486 17.0849 21.7527C16.8015 21.8929 16.5761 21.9471 16.2765 21.9471C15.7334 21.9471 15.2824 21.6736 14.9061 21.1158C14.8321 21.006 14.6656 20.6772 14.5362 20.3851C14.1389 19.488 13.9428 19.2147 13.4814 18.9156C13.08 18.6554 12.5623 18.6088 12.1728 18.7978C11.6612 19.0462 11.5184 19.6934 11.8849 20.1036C12.0305 20.2667 12.3021 20.4073 12.5241 20.4346C12.9396 20.4858 13.2966 20.1729 13.2966 19.7576C13.2966 19.488 13.192 19.3341 12.9284 19.2164C12.5685 19.0556 12.1816 19.2435 12.1835 19.5783C12.1843 19.721 12.2471 19.8106 12.3916 19.8754C12.4843 19.9169 12.4865 19.9202 12.4109 19.9047C12.0806 19.8369 12.0032 19.4427 12.2688 19.1811C12.5876 18.8669 13.2468 19.0055 13.4731 19.4343C13.5683 19.6144 13.5793 19.9731 13.4964 20.1897C13.3108 20.6744 12.7697 20.9294 12.2208 20.7907C11.8471 20.6962 11.695 20.5939 11.2444 20.1345C10.4615 19.3361 10.1575 19.1814 9.02879 19.0069L8.8125 18.9735L9.05862 18.7677Z" fill="white"/>
<path fill-rule="evenodd" clip-rule="evenodd" d="M5.38506 4.47758C7.9997 7.61924 9.80054 8.91544 10.0007 9.1893C10.1659 9.41542 10.1037 9.61868 9.82063 9.77803C9.66321 9.86658 9.33958 9.95633 9.17754 9.95633C8.99426 9.95633 8.93134 9.88636 8.93134 9.88636C8.82508 9.78657 8.76523 9.80403 8.21952 8.84506C7.46191 7.68124 6.82789 6.7158 6.81059 6.69964C6.7706 6.66225 6.77128 6.66352 8.14228 9.09204C8.36379 9.5982 8.18633 9.784 8.18633 9.85608C8.18633 10.0027 8.14592 10.0798 7.96318 10.2816C7.65855 10.6181 7.52238 10.9961 7.42407 11.7785C7.31387 12.6555 7.00399 13.275 6.14521 14.3353C5.64251 14.9561 5.56025 15.0698 5.43341 15.32C5.27363 15.635 5.2297 15.8114 5.2119 16.2093C5.19308 16.6298 5.22973 16.9016 5.35953 17.3037C5.47316 17.6558 5.59178 17.8882 5.895 18.3532C6.15669 18.7544 6.30737 19.0526 6.30737 19.1693C6.30737 19.2621 6.32526 19.2622 6.73076 19.1715C7.70118 18.9546 8.48915 18.5731 8.93232 18.1055C9.20658 17.816 9.27096 17.6562 9.27308 17.2596C9.27446 17.0002 9.26521 16.9459 9.19438 16.7966C9.07908 16.5537 8.86918 16.3518 8.40653 16.0387C7.80034 15.6284 7.54143 15.2981 7.46991 14.8439C7.41125 14.4712 7.4793 14.2083 7.81466 13.5124C8.16176 12.7922 8.24778 12.4853 8.30596 11.7593C8.34354 11.2903 8.39559 11.1053 8.53171 10.9569C8.67368 10.802 8.80148 10.7496 9.15281 10.7021C9.72558 10.6246 10.0903 10.4779 10.3901 10.2044C10.6502 9.96715 10.759 9.7385 10.7758 9.39435L10.7884 9.13351L10.6431 8.96575C10.1168 8.35823 5.03259 4 5.0002 4C4.99328 4 5.16648 4.21492 5.38506 4.47758ZM6.60281 16.6852C6.72181 16.4765 6.65859 16.2083 6.45953 16.0773C6.27146 15.9534 5.97929 16.0118 5.97929 16.1731C5.97929 16.2223 6.00679 16.2582 6.06877 16.2898C6.17313 16.3429 6.1807 16.4027 6.09859 16.5249C6.01544 16.6486 6.02215 16.7574 6.11753 16.8313C6.27125 16.9505 6.48885 16.885 6.60281 16.6852Z" fill="white"/>
<path fill-rule="evenodd" clip-rule="evenodd" d="M11.1496 10.8388C10.8807 10.9206 10.6193 11.2027 10.5384 11.4986C10.4891 11.679 10.5171 11.9957 10.591 12.0934C10.7105 12.2513 10.826 12.2929 11.1387 12.2907C11.7511 12.2865 12.2835 12.0265 12.3453 11.7015C12.3961 11.435 12.1623 11.0658 11.8402 10.9037C11.674 10.8201 11.3206 10.7869 11.1496 10.8388ZM11.8655 11.393C11.9599 11.2602 11.9186 11.1166 11.758 11.0195C11.4522 10.8346 10.9896 10.9876 10.9896 11.2737C10.9896 11.416 11.2308 11.5714 11.4519 11.5714C11.5991 11.5714 11.8005 11.4845 11.8655 11.393Z" fill="white"/>
</svg>
