<svg width="48" height="48" viewBox="0 0 48 48" fill="none" xmlns="http://www.w3.org/2000/svg">
<path d="M24 48C37.2548 48 48 37.2548 48 24C48 10.7452 37.2548 0 24 0C10.7452 0 0 10.7452 0 24C0 37.2548 10.7452 48 24 48Z" fill="white"/>
<path fill-rule="evenodd" clip-rule="evenodd" d="M14.4443 18.1732C14.3506 17.9196 14.4131 17.6347 14.6042 17.4433L17.2068 14.8407C17.398 14.6496 17.6831 14.5871 17.9364 14.6805L23.4858 16.7192C23.6222 16.7693 23.7128 16.8991 23.7128 17.0444V18.2595C23.7128 18.3514 23.6764 18.4394 23.6113 18.5045L22.2605 19.8551C22.165 19.9508 22.0226 19.982 21.8957 19.935L20.4049 19.3854L18.7669 18.781C18.6285 18.7297 18.4932 18.8647 18.5445 19.0034L19.6985 22.1321C19.7453 22.2591 19.7143 22.4015 19.6186 22.4969L18.4176 23.6974C18.2823 23.8326 18.2823 24.0522 18.4176 24.1874L19.6249 25.3947C19.7206 25.4904 19.7518 25.6329 19.7048 25.7595L18.5508 28.888C18.4995 29.0267 18.6345 29.1617 18.7732 29.1104L21.902 27.9561C22.0289 27.9094 22.1713 27.9406 22.2668 28.036L23.6111 29.3803C23.6761 29.4454 23.7125 29.5333 23.7125 29.6253V30.8407C23.7125 30.9857 23.6222 31.1155 23.4861 31.1656L17.9433 33.2106C17.6897 33.3043 17.4046 33.2415 17.2134 33.0504L14.6105 30.4475C14.4194 30.2564 14.3569 29.9715 14.4506 29.7176L16.4884 24.1934C16.5454 24.0387 16.5454 23.8685 16.4884 23.7137L14.4443 18.1732Z" fill="#0008FF"/>
<path fill-rule="evenodd" clip-rule="evenodd" d="M33.5585 29.7195C33.6522 29.9732 33.5898 30.258 33.3986 30.4494L30.796 33.0523C30.6049 33.2435 30.32 33.3059 30.0664 33.2125L24.517 31.1739C24.3806 31.1237 24.29 30.9939 24.29 30.8486V29.6336C24.29 29.5416 24.3264 29.4536 24.3915 29.3886L25.7424 28.038C25.8378 27.9422 25.9802 27.911 26.1072 27.958L27.5979 28.5076L29.2359 29.112C29.3743 29.1633 29.5093 29.0283 29.4583 28.8896L28.3043 25.7609C28.2576 25.6339 28.2885 25.4915 28.3842 25.3961L29.5852 24.1956C29.7205 24.0604 29.7205 23.8409 29.5852 23.7056L28.3779 22.4983C28.2822 22.4026 28.251 22.2602 28.298 22.1335L29.452 19.005C29.5033 18.8663 29.3683 18.7314 29.2296 18.7827L26.1009 19.937C25.9739 19.9837 25.8315 19.9524 25.7361 19.857L24.3918 18.5127C24.3267 18.4477 24.2903 18.3597 24.2903 18.2677V17.0524C24.2903 16.9074 24.3806 16.7775 24.5167 16.7274L30.0595 14.6824C30.3131 14.5887 30.598 14.6515 30.7894 14.8426L33.392 17.4455C33.5835 17.6367 33.6459 17.9215 33.5522 18.1754L31.5144 23.6996C31.4571 23.8543 31.4571 24.0246 31.5144 24.1793L33.5588 29.7207L33.5585 29.7195Z" fill="#0008FF"/>
<path d="M37.3322 24.8667H46.1529C46.1641 24.5782 46.1713 24.2897 46.1713 24.0002C46.1713 23.7106 46.1641 23.4221 46.1529 23.1336C45.9388 17.5365 43.6602 12.3045 39.6771 8.32233C35.489 4.13423 29.9215 1.82812 23.9992 1.82812C18.077 1.82812 12.5085 4.13423 8.32139 8.32233C4.13431 12.5104 1.82617 18.0769 1.82617 24.0002C1.82617 29.9234 4.13228 35.4909 8.32037 39.678C12.5085 43.8661 18.0759 46.1722 23.9982 46.1722C26.7784 46.1722 29.48 45.6635 31.9982 44.6919C34.8436 43.5929 37.4546 41.9005 39.6771 39.679C41.8985 37.4575 43.5909 34.8466 44.6899 32.0012H42.8059C40.7363 36.8479 36.8459 40.7383 31.9982 42.8079C29.5402 43.8579 26.8355 44.4391 23.9982 44.4391C13.0182 44.4391 4.0344 35.7366 3.57869 24.8667H10.6652V23.1336H3.57869C4.0344 12.2637 13.0192 3.56025 23.9992 3.56025C34.9792 3.56025 43.963 12.2637 44.4187 23.1326H37.3322V24.8657V24.8667Z" fill="#0008FF"/>
</svg>
